<?xml version="1.0" encoding="UTF-8"?>
<svg id="Layer_1" xmlns="http://www.w3.org/2000/svg" version="1.1" viewBox="0 0 720.83 761.34">
  <!-- Generator: Adobe Illustrator 29.5.0, SVG Export Plug-In . SVG Version: 2.1.0 Build 137)  -->
  <defs>
    <style>
      .st0 {
        fill: #e3272e;
      }

      .st1 {
        fill: #af2a29;
      }

      .st2 {
        fill: #e3292f;
      }

      .st3 {
        fill: #eb6b27;
      }

      .st4 {
        fill: #fff;
      }

      .st5 {
        fill: #eb6c28;
      }

      .st6 {
        fill: #b62928;
      }

      .st7 {
        fill: #7a2622;
      }

      .st8 {
        fill: #f4a10c;
      }

      .st9 {
        fill: #e3282e;
      }

      .st10 {
        fill: #792521;
      }

      .st11 {
        fill: #e7e7e7;
      }

      .st12 {
        fill: #ae2928;
      }

      .st13 {
        fill: #742721;
      }

      .st14 {
        fill: #b62a29;
      }

      .st15 {
        fill: #af2928;
      }
    </style>
  </defs>
  <path class="st15" d="M138.33,363.3c32.83-.95,53.45,35.07,36.91,63.29-15.07,25.71-51.64,27.24-69.13,3.16-19.45-26.78-.99-65.49,32.21-66.45h0Z"/>
  <path class="st0" d="M511.77,521.03c41.34-4.05,62.35,47.78,30.53,74.15-23.04,19.09-58.62,6.97-66.04-21.66-6.33-24.42,10.06-49.99,35.51-52.49h0Z"/>
  <path class="st13" d="M203.47,520.11c31.9-.15,51.71,34.74,36.2,62.46-16.61,29.68-60.16,27.57-73.84-3.51-12.07-27.42,7.53-58.82,37.64-58.96h0Z"/>
  <path class="st12" d="M357.41,585.27c33.52-1.89,54.8,35.72,37.21,64.06s-57.31,25.49-71.88-2.83c-13.87-26.97,4.42-59.53,34.67-61.23h0Z"/>
  <path class="st3" d="M576.49,365.7c42.02-4.27,63.18,47.49,31.01,74.15-25.87,21.43-65.28,3.02-67.33-29.95-1.33-21.36,14.71-42,36.33-44.2h-.01Z"/>
  <path class="st14" d="M636.47,223.23c-1.5,8.23-8.26,12.9-9.06,21.77-1.9,21.15,23.32,29.24,29,5.51,3.93-16.39-.27-36.09,17.17-46.11,16.74-9.61,32.01.53,40.19,15.58,1.48,2.72,7.44,16.43,7.03,18.66s-8.89,7.68-11.09,9.09c-1.95,1.25-6.61,5.14-7.05.57-.3-3.15,5.87-8.68,7.21-12.87,6.3-19.75-20.82-30.31-27.22-11.4-5.81,17.18,3.14,44.15-19.46,53.41s-41.41-14.9-45.17-34.59c-1.61-8.43.94-10.42,7.22-15.34,3.1-2.43,7.1-6.2,11.21-4.28h.02Z"/>
  <path class="st4" d="M16.55,385.82c21.77-2.97,26.27,27.12,7.33,32.26-22.53,6.11-28.68-29.34-7.33-32.26Z"/>
  <path class="st4" d="M682.41,385.81c24.02-3.75,26.28,32.22,3.69,32.98-20.27.67-22.56-30.03-3.69-32.98Z"/>
  <path class="st11" d="M216.49,704.43c1.39-3.67,7.02-13.05,5.47-16.6-.78-1.79-3.66-1.81-2.99-4.43,1.08-1.09,10.2,3.76,11.99,4.55,1.61.71,9.27,2.97,9.57,4.34.55,2.51-5.12.43-6.73,2.01-1.18,1.16-4.68,8.9-5.66,10.98-1.75,3.7-3.53,7.9-5.09,11.69-1.04,2.53-4.96,11.21-5.05,13.22-.1,2.35,4.56,3.61,3.83,6.41-1.05,1.06-9.32-3.35-11.04-4.06s-10.63-3.73-10.97-4.85c-.82-2.66,4.78-1.07,6.47-2.08,1.43-.86,8.03-14.68,7.91-16.09l-.51-.96c-1.43-.38-2.67-1.14-3.99-1.76-3.4-1.6-10.44-5.02-13.73-5.92-.77-.21-1.72-.5-2.43,0s-6.1,14.14-6.2,15.42c-.17,2.22,6.12,6.49,3.05,7.34-1.16.32-8.63-3.63-10.4-4.37-2.65-1.1-5.81-2-8.32-3.19-1.28-.61-3.18-1.21-3.53-2.72-.29-1.94,3.83-.66,4.56-.68,3.44-.12,5.03-4.39,6.41-7.06,4.72-9.11,8.33-18.94,12.44-28.34.64-2.86-2.2-4.3-3.74-6.11-.16-.7.58-1.12,1.21-1.21,1.46-.21,8.46,3.56,10.45,4.42,1.84.8,9.45,3.05,9.85,4.54.72,2.68-3.62,1.15-4.76,1.33-1.03.16-1.99.89-2.59,1.73-.8,1.13-5.5,11.15-5.79,12.44-.16.7-.46,1.19,0,1.93.61.99,17.73,7.4,20.32,8.08h-.01Z"/>
  <path class="st11" d="M277.87,702.14c.23,1.99-1.34,11.47-3.54,11.48l-1.12-.82c-.04-6.72-1.91-8.04-7.75-9.98-1.17-.39-5.8-1.97-6.47-1.23-.7.78-5.64,17.52-5.02,18.22l10.29,2.41c1.86-.19,3.64-4.67,6-4.31l-3.3,14.58c-4.12,1.27-1.13-4.2-4.68-6.36-1.65-1.01-8.52-3.35-9.71-1.71-.79,1.08-3.52,11.7-3.75,13.5-.65,5.05,2.23,5.13,6.48,6.21,4,1.02,6.58,1.75,10.51-.25,2.73-1.39,4.35-4.92,7.33-4.89,1.33,1.34-4.63,10.09-6.25,11.27l-38.33-10.08c.78-2.5,3.99-1.36,5.89-1.77,3.34-.73,5.39-10.15,6.33-13.32,1.63-5.51,5.81-18.62,6.02-23.72.22-5.38-4.09-3.4-4.82-7.44l35.9,8.2h0Z"/>
  <path class="st11" d="M153.77,638.81c-.54,3.66,3.66,5.82,6.27,7.87,6.23,4.89,14.35,10.77,21.09,14.86,2.72,1.65,5.8,3.93,9.07,3.64.65,3.12-2.2,3.75-3.85,5.5-.89.94-6.26,8.23-6.25,3.38,0-2.2,2.55-4.31,1.22-7.43-.38-.9-7.26-5.58-8.4-5.98-.67-.24-1.22-.52-1.89-.03-4.06,5.82-8.4,11.48-12.38,17.35-1.65,2.43-9.3,13.23-9.19,15.21.1,1.87,6.29,7.9,2.65,7.95-1.09.02-10.79-7.64-12.66-8.94-1.65-1.14-9.18-4.99-9.19-6.65,0-2.67,5.29.35,6.86.14.72-.1,2.18-1.04,2.77-1.56,3.13-2.8,8.61-11.16,11.39-14.97,3.79-5.2,7.49-10.47,11.05-15.82.15-.91-7-6-8.44-6.27-3.96-.73-6.53,2.01-10.19,2.76-.67-1.7-.28-2.07.71-3.37.8-1.05,5.57-6.16,6.51-6.91.85-.69,1.79-.83,2.85-.75v.02Z"/>
  <path class="st11" d="M537.75,653.2c.36,2.8-2.89,3.35-2.31,6.35.53,2.72,7.52,12.96,9.49,15.95,1.56,2.38,9.78,14.74,11.25,15.59,2.29,1.34,4.4-.99,6.19-.46,1.98.58.05,2.41-.69,3.03-2.15,1.79-12.86,9.2-15.13,10.27-.74.35-1.37.78-2.26.52l-.72-1.09c.43-1.44,2.68-2.99,2.81-4.41.16-1.62-7.61-14.83-8.71-15.47-.71-.41-1.47.05-2.11.36-4.92,2.36-10.17,7.64-15.25,10.15l-.8,1.15c-.09.72.3,1.24.59,1.84.72,1.51,7.14,10.72,8.22,11.66,2.56,2.22,4.78-.53,7.21.22.83.39.84.59.6,1.41-.42,1.43-8.13,5.65-9.94,6.85-1.95,1.3-7.73,6.6-9.71,6.02l-.72-1.09c4.79-5.63,2.26-7.89-.82-13.22-4.73-8.19-10.57-16.09-15.82-23.97-2.16-2.94-7.61,2.32-7.41-2.13,2.46-1.09,17.39-12.04,18.47-11.82,2.62.54-2.57,4.62-1.94,7.2.25,1.03,6.64,11.5,7.45,12.23.38.34.65.73,1.24.73l17.43-11.82c.22-.92-6.97-11.32-8.16-12.36-2.7-2.35-3.8-.37-6.83-.33l-.73-1.09c.12-1.49,8.51-6.19,10.35-7.4,1.36-.89,7.48-6.18,8.76-4.9v.03Z"/>
  <path class="st11" d="M416.96,717.43c-.03,3.43.92,6.8,1.58,10.16.71,3.6,3.62,19.3,5.9,20.94,1.11.8,9.75,1.51,5.11,3.78-.66.32-13.53,3.41-14.34,3.45-.53.02-1.06.08-1.4-.43l-.15-1.89c3.88-1.4,4.88-2.97,4.75-7.03-.22-6.82-3.25-21.64-4.96-28.59-.61-2.5-.95-5.8-4.03-6.52-1.11-.26-6.19.17-5.4-2.25.22-.68,1.65-.87,2.29-1.07,1.96-.6,10.65-2.36,12.2-1.95,1.68.44,10.38,7.76,12.67,9.39,6.69,4.75,13.56,9.29,20.28,13.99.22-1.99-.35-3.84-.71-5.76-.78-4.1-2.9-14.56-4.67-17.86-1.96-3.65-5.5-1.42-7.28-2.7-1.23-.88.08-2.15,1.25-2.6,1.82-.7,9.75-2.75,11.77-3.09.93-.15,4.2-.5,3.25,1.33-2.24,2.05-4.64,2.88-4.58,6.44,1.74,9.24,3.38,18.51,5.44,27.68.52,2.32,3.63,12.02,2.98,13.32-.35.7-1.12,1.01-1.89.97-2.07-.12-11.76-8.85-14.24-10.74-8.49-6.48-17.17-12.74-25.83-18.99v.02Z"/>
  <path class="st11" d="M601.03,591.35c.19,4.01-2.16,5.18.48,8.87,4.07,5.69,15.74,16.08,21.32,21.35,1.48,1.4,7.23,5.35,7.37,7.02-.24,1.3-1.34,1.94-2.54,2.1-4.69.62-9.74-.46-14.38-.53-10.5-.15-20.94.66-31.42.51-.58.43,7.65,8.41,8.38,9.12,2.26,2.2,10.27,10.1,12.44,11.05,3.89,1.7,4.57-1.34,6.79-1.48,2.06-.13,1.73,1.08.89,2.37-1.48,2.26-6.43,8.22-8.37,10.32-.42.46-1.45,1.84-2.13,1.69-1.86-1.75.74-4.35.73-6.48,0-1.07-.57-1.9-1.07-2.78-1.57-2.82-18.97-20.9-21.96-23.11-4.66-3.45-6.06,1.07-9.35,1.22-1.61.08-.39-2.23.01-2.87.8-1.29,5.41-6.43,6.68-7.7.85-.85,1.36-1.4,2.61-1.7,5.08-1.21,15.98,0,21.87-.19,1.02-.03,1.94-.45,2.86-.49,4.23-.18,8.48.02,12.7-.49.22-.83-.34-.96-.71-1.44-1.22-1.58-3.73-3.81-5.26-5.28-1.69-1.62-9.33-8.77-10.82-9.31-3.53-1.29-4.89,2.39-8.13,2.13l.54-2.57c3.09-2.15,5.93-8.88,8.34-10.84.74-.6,1.25-.57,2.14-.49h0Z"/>
  <path class="st11" d="M399.12,710.38c.95-.05,3.84-.22,3.45,1.53-.28,1.26-5.83,1.11-6.6,5.4-1.02,5.65.64,13.46.39,19.56-.65,15.92-7.03,26.16-24.58,24.05-19.27-2.32-15.9-22.45-17.16-36.53-.14-1.59-.41-5.62-.91-6.76-1.07-2.45-4.89-1.29-5.8-3.78.45-1.92,10.99-1.12,13.18-1.21s9.15-1.86,10.1,0c1.13,2.21-4.94,1.89-5.51,5.55.1,7.35-.19,15.22.43,22.52.86,10.13,5.14,15.86,16.08,14.6,8.85-1.01,10-9.74,10.33-17,.22-4.94-.07-12.32-.51-17.27-.16-1.81-.63-4.91-2.21-5.94-1.78-1.16-5.25-.81-5.93-3.17.26-1.25,8.19-.64,9.82-.73s3.75-.73,5.43-.82h0Z"/>
  <path class="st11" d="M633.16,569.78c2.69-.29,4.25,2.24,6.27,3.55.87.56,9.02,4.37,5.39,5.5-1.64.51-3.54-1.29-5.71.02-.75.45-4.96,7.25-4.92,7.86.05.71.7,1.24,1.19,1.69.84.77,10.88,7.45,11.55,7.63.59.16,1.17.22,1.78.12,1.75-.29,6.05-8.5,6.38-10.43.85-5.09-2.33-7.5-2.76-12.11,1.73-1.73,7.65,7.22,8.53,8.5l-17.89,32.24c-2.65.55.51-7.47-1.44-8.62-4.07-3.31-8.27-6.47-12.54-9.51-2.71-1.92-13.67-9.79-15.96-10.41-4.55-1.25-3.65,2.57-7.2,2.65-.32-1.74.51-2.88,1.19-4.32,3.07-6.49,8.26-13.74,11.84-20.28,1.21-2.22,1.93-6.81,4.57-5.7.63.26,6.25,3.99,6.63,4.41.62.69.93,1.13.67,2.12-.49,1.55-3.5-.14-4.99-.21-5.43-.26-6.78,6.09-9.37,9.87-.04.43.22.67.45.98.48.63,11.25,8.25,12.34,8.76.57.27,1.05.73,1.76.52.66-.2,4.5-6.93,4.62-7.91.36-2.98-2.38-4.08-2.38-6.9v-.02Z"/>
  <path class="st11" d="M471.62,727.51c1.2-.85,6.61,4.22,8.18,4.97,11.65,5.6,20.2-7.98,7.87-13.15-7.77-3.25-18.83-2.35-22.87-11.64-6.03-13.86,9.02-21.32,20.41-22.75.96.18,4.35,6.07,4.72,7.21,2.33,7.28-5.42-.94-7.39-1.72-6.54-2.58-13.78,3.52-10.56,10.08,2.57,5.23,14.37,5.36,19.65,7.19,13.23,4.58,13.84,18.86,2.46,26.22-4.08,2.64-14.75,6.8-18.66,2.92-1.1-1.1-5.46-8.17-3.81-9.34h0Z"/>
  <path class="st11" d="M339.76,723.19c-3.61-.52-3.33-5.02-5.79-7.38-7.09-6.78-18.56,2.46-11.24,10.28s20.89,8.76,18.91,23.19c-1.57,11.5-21.03,14.97-29.18,9.61-2.79-1.83-4.81-11.74-2.12-12.18,4.23,3.01,4.26,8.07,9.65,10.4,7.86,3.39,15.21-3.62,9.47-10.91-4.77-6.06-15.61-9.23-17.85-17.62-2.46-9.21,3.96-16.83,13.11-17.79,2.97-.31,10.57-.1,13.24,1.02,2.23.93,2.38,9.08,1.79,11.39h.01Z"/>
  <path class="st11" d="M544.95,648.4c-1.51-1.4,6.79-7.1,7.67-7.9,1.47-1.32,8.43-8.67,9.81-8.4,2.38,2.62-3.35,5-1.07,8.27,4.81,6,9.79,11.96,14.98,17.62,1.74,1.9,7.53,8.68,9.37,9.32,3.41,1.18,5.09-1.81,7.34-1.12l.73,1.07c-.13,1.44-6.59,5.93-8.1,7.26-2.34,2.07-5.62,5.8-7.9,7.43-.72.51-1.37,1.08-2.35.94-2.02-1.6,1.02-3.54,1.19-5.49.13-1.41-.29-2.28-.9-3.46-2.24-4.31-14.13-17.08-18.07-21.24-1.27-1.35-4.59-5.02-6.1-5.44-2.14-.6-4.19,1.83-6.61,1.13h.01Z"/>
  <path class="st15" d="M416.47,541.5c9.6,5.35,22.49,15.7,29.72,23.97,14.65,16.75,25.12,42.01,28.22,64.07,1.18,8.37,2.24,17.76-4.25,24.38-8.11,8.26-24.27,5.25-29.24-5.03-2.51-5.19-1.74-10.23-2.4-15.58-2.4-19.31-12.04-38.22-26.36-51.06-21.67-19.43-47.63-25.93-76.11-17.86-10.64,3.01-20.03,8.33-28.4,15.47.88-13.43-.85-26.92-4.79-39.79,13.54-6.87,28.21-11.33,43.39-12.94,23.92-2.53,49.19,2.66,70.23,14.38h-.01Z"/>
  <path class="st10" d="M302.86,540.06c3.94,12.86,5.67,26.36,4.79,39.79-1.72,26.39-13.16,51.57-30.69,71.18-8.94,10-22.76,9.47-29.62-2.48-3.52-6.13-3.95-11.04-.57-17.4,2.94-5.54,9.7-11.88,13.53-17.39,9.72-13.99,13.7-31.3,12.84-48.28-1.15-22.67-10.18-37.52-26.11-52.75-10.12-9.67-33-22.31-47.23-20.6,0-.94.65-1.33,1.19-1.92,8.86-9.63,16.89-17.48,23.26-29.24,13.81,3.52,26.95,10.88,38.09,19.67,19.95,15.75,33.05,35.01,40.53,59.42h-.01Z"/>
  <path class="st3" d="M608.7,296.05c5.02,5.26,5.07,8.76,3.6,15.82s-4.33,13.17-11.75,14.86-15.13,1.39-22.62,3.03c-15.86,3.46-31.95,13.07-42.58,25.26-22.44,25.73-24.42,65.21-6.62,94.1l7.1,10.4c-12.04-1.16-26.57-.51-38.35,2.4-5.15-8.94-9.88-19.33-12.59-29.36-6.88-25.45-1.68-59.63,11.63-82.34,6.75-11.52,17.01-22.73,27.32-31.16,18.82-15.4,38.69-24.8,63.28-25.89,5.99-.27,11.79-.45,17.63,1.3,1.35.4,2.61,1.13,3.94,1.57h.01Z"/>
  <path class="st9" d="M535.84,459.52c12.9,1.25,26.83,5.27,38.68,10.46,7.13,3.12,24.42,11.5,29.65,16.37,2.84,2.65,7.67,8.08,8.95,11.67,5.31,14.89-12.1,28.8-25.98,21.9-5.31-2.64-9-7.88-13.75-11.42-13.56-10.07-34.08-16.18-50.97-15.43-22.88,1.02-47.1,13.82-60.31,32.45-8.35,11.77-14.76,25.35-15.91,39.94-7.23-8.27-20.12-18.62-29.72-23.97,6.58-18.98,16.41-38.13,31.39-51.79,13-11.85,32.47-23.55,49.63-27.79,11.78-2.91,26.31-3.56,38.35-2.4h-.01Z"/>
  <path class="st8" d="M535.36,355.02c10.63-12.18,26.72-21.8,42.58-25.26,7.49-1.64,15.47-1.4,22.62-3.03-16.97,16.87-41.28,26.93-65.2,28.28h0Z"/>
  <path class="st1" d="M246.77,631.14c-.35-11.92,2.92-23.61,7.45-34.5s10.84-22.51,18.92-31.18c.86,16.99-3.12,34.29-12.84,48.28-3.83,5.51-10.59,11.85-13.53,17.39h0Z"/>
  <path class="st12" d="M225.68,348.31c1.98,4.91,4.45,9.62,6.24,14.61,11.69,32.68,8.8,67.61-7.68,98.04-6.37,11.76-14.4,19.6-23.26,29.24-.54.59-1.2.99-1.19,1.92-.51.06-.86-.03-1.41.25-1.26.62-4.88,4.21-6.59,5.42-17.52,12.36-47.73,24.76-69.42,22.62-17.92-1.78-19.61-26.92-5.04-34.03,8.07-3.94,19.41-3.52,28.29-5.51,15.59-3.49,27.2-11.95,37.87-23.25,17.42-18.46,23.12-34.99,20.07-60.58-1.98-16.62-8.27-32.63-19.11-45.36l15.12.5c8.84-.67,17.52-1.6,26.1-3.86h0Z"/>
  <path class="st7" d="M183.49,457.61c-10.66,11.3-22.28,19.77-37.87,23.25-8.88,1.99-20.22,1.57-28.29,5.51,2.42-3.35,6.47-6.57,9.92-9.02,15.87-11.29,37.05-17.43,56.24-19.74h0Z"/>
  <path class="st5" d="M587.13,519.93c-18.17-1.87-35.23-6.43-50.77-16.1-4.85-3.02-10.08-6.57-13.94-10.75,16.89-.75,37.4,5.36,50.97,15.43,4.76,3.53,8.44,8.78,13.75,11.42h-.01Z"/>
  <path class="st2" d="M440.92,648.88c-3.22-2.68-5.88-6.8-8.06-10.4-3.14-5.18-6.76-11.95-9.45-17.4-5.94-12.02-10.46-25.35-11.26-38.84,14.32,12.84,23.96,31.74,26.36,51.06.66,5.34-.11,10.38,2.4,15.58h.01Z"/>
  <path class="st8" d="M608.7,296.05c-1.33-.44-2.59-1.17-3.94-1.57-5.84-1.75-11.64-1.57-17.63-1.3,7.58-3.8,15.64-3.33,21.57,2.88h0Z"/>
  <path class="st3" d="M280.33,161.83c1.99,5.99,1.78,14.98,3.1,21.59,3.26,16.38,12.92,33.72,24.7,45.05,27.95,26.87,77.13,29.66,105.46,1.92-1.01,13.14.3,27.04,3.84,39.79-8.31,4.41-17.06,8.01-26.17,10.51-28.01,7.69-61.63,3.25-86.97-10.99-11.34-6.37-20.77-15.52-29.72-24.45-14.23-18.95-27.01-43.85-27.32-68.07-.09-6.58.27-13.67,4.31-19.18,5.3-7.22,14.84-7.41,22.2-3.26,2.37,1.33,5.71,4.52,6.56,7.1h.01Z"/>
  <path class="st2" d="M280.33,161.83c17.09,17.64,25.29,42.51,27.8,66.63-11.78-11.33-21.44-28.67-24.7-45.05-1.31-6.61-1.11-15.6-3.1-21.59h0Z"/>
  <path class="st2" d="M247.25,177.17c-3.15-6.01-1.69-15.49,4.31-19.18-4.04,5.51-4.4,12.59-4.31,19.18h0Z"/>
  <path class="st8" d="M463.45,154.16c4.75,1.69,7.16,3.29,9.98,7.52,3.78,5.67,4.23,10.12,1.53,16.45-2.42,5.66-8.54,10.87-12.18,15.86-9.65,13.23-15.31,34.67-14.18,50.77,1.04,14.83,6,28.75,14.27,41.1,13.13,19.61,36.92,34.02,60.99,33.21-10.31,8.43-20.57,19.64-27.32,31.16-17.8-5.71-35.87-14.93-48.91-28.51-13.84-14.42-24.82-32.18-30.19-51.55-3.53-12.75-4.84-26.65-3.84-39.79,1.89-24.6,12.01-51.87,30.68-68.55,5.24-4.68,11.89-8.49,19.18-7.67h-.01Z"/>
  <path class="st5" d="M448.59,244.76c-1.13-16.1,4.53-37.54,14.18-50.77,3.64-4.99,9.77-10.2,12.18-15.86-.46,24.34-10.69,48.3-26.37,66.63h.01Z"/>
  <path class="st5" d="M463.45,154.16c-7.28-.82-13.94,2.99-19.18,7.67,3.46-6.36,9.67-9.58,16.98-8.59,1.14.15,1.5.67,2.19.92h0Z"/>
  <path class="st0" d="M274.57,245.24c8.95,8.93,18.38,18.08,29.72,24.45-4.05,14.4-10.12,29.66-20.12,41-15.09,17.11-36.28,31.76-58.5,37.62-8.58,2.26-17.26,3.19-26.1,3.86l-15.12-.5c-19.36-2.71-39.41-9.13-56.05-19.46-10.56-6.55-25.84-16.82-19.78-31.21,3.46-8.22,17.32-13.79,25.49-10.22,5.58,2.44,13.29,10.43,19.22,14.1,12.43,7.72,31.32,13.33,45.98,13.22,12.93-.1,28.04-5.81,38.79-12.74,19.7-12.7,36.26-36.03,36.47-60.12h0Z"/>
  <path class="st1" d="M199.31,318.11c-14.66.11-33.55-5.51-45.98-13.22-5.92-3.68-13.64-11.66-19.22-14.1,11.55-.17,22.91,3.57,33.4,8.07,11.2,4.79,22.63,11.27,31.79,19.26h0Z"/>
  <path class="st0" d="M203.53,207.03c18.66-.93,36.37,11.73,41.56,29.58,10.71,36.79-28.78,68.07-61.56,47.66-34.29-21.36-20.58-75.22,19.99-77.24h0Z"/>
  <path class="st3" d="M356.45,143.27c34.86-3.4,58.16,34.38,39.61,64.06-19.31,30.88-66.69,22.88-75.23-12.42-5.81-24.03,10.68-49.2,35.62-51.63h0Z"/>
  <path class="st8" d="M513.69,208.95c32.99-2.62,55.38,33.03,39.49,62.02-14.33,26.14-51.48,28.89-69.31,4.91-19.5-26.22-2.84-64.33,29.82-66.93h0Z"/>
  <path class="st6" d="M603.74,85.18c.87-.22,1.64-.02,2.45.31,1.87.78,7.58,8.6,9.46,10.67,13.32,14.61,30.05,28.18,34.53,48.41,8.85,39.99-33.23,69.01-68.33,49.15-14.81-8.38-33.24-32.01-43.6-46.04-1.03-1.4-4.44-5.48-1.92-6.71,5.82-.25,6.73,6.57,13.43,4.82,3.94-1.03,16.03-11.47,19.87-14.65,8.83-7.29,28.41-22.66,34.49-31.19,1.79-2.52,2.12-3.91,1.26-6.94-.41-1.46-4.23-6.97-1.63-7.83h-.01ZM622,113.96c-1.87.3-15.96,12.37-18.57,14.54-9.04,7.54-18.65,15.58-27.32,23.49-4.39,4-11.45,8.83-10.96,15.28,1.06,14.02,19.63,18.97,31.22,16.96,26.73-4.64,51.55-34.97,35.56-61.68-1.59-2.66-6.44-9.15-9.92-8.59h0Z"/>
  <path class="st14" d="M453.39,99.51c.87-.86-4.04-13.95-4.79-16.07-3.46-9.81-7.33-19.48-11.54-28.98-1.71-1.14-2.62,3.32-2.98,4.41-3.06,9.28-5.05,18.99-7.56,28.44-.12,4.81,9.09,7.69,8.58,10.46-.35,1.87-4.74,1.32-6.19,1.05-4.77-.88-11.31-3.88-16.28-5.3-3.93-1.12-17.46-3.72-19.83-5.58-1.73-1.36-1.74-2.94.38-3.8,3.46-1.41,8.01,1.4,11.56-2.34,2.49-2.62,4.87-10.84,6.09-14.52,3.83-11.51,7.43-24.12,10.66-35.84,1.37-4.98,5.25-16.79,4.53-21.3-.09-.57-.26-.91-.51-1.4-.94-1.84-11.02-6.97-5.59-8.63,2.76-.84,14.92,4.13,18.6,5.21,3.87,1.13,17.76,4.02,19.9,5.98,4.82,4.43-7.23,3.55-8.9,4.06-3.13.96-5.33,9.8-6.33,12.84-2.36,7.2-4.05,14.63-6.51,21.8l.72,1.05c1.41.43,6.52-1.99,8.16-2.74,3.3-1.51,6.84-3.53,10.07-5.28,3.58-1.94,24.28-13.8,25-16.25,1.17-3.93-11.99-8.15-5.2-10.01,1.78-.49,12.5,3.28,15.25,3.99,4.99,1.29,10.64,2.2,15.44,3.73,2.04.65,5.67,1.25,4.58,4.1-3.27,1.97-7.05.31-10.57.46-6.2.26-14.07,3.61-19.75,6.14-2.87,1.28-24.16,12-24.56,13.34,2.79,9.2,6.55,18.14,10.27,26.99,3.09,7.35,10.8,27.22,15.81,32.13,1.12,1.1,13.98,8,6.19,9.09-3.4.48-23.49-7.63-28.6-9.21-3.5-1.08-10.4-1.96-13.18-3.6-5.86-3.46,4.69-4.84,7.06-4.42h.02Z"/>
  <path class="st6" d="M540.94,44.92c1.95-.65,4.45.98,6.07,1.95,4.21,2.52,8.35,6.3,12.54,9.03,3.77,2.46,16.88,9.21,18.68,12,4.06,6.27-7.94,1.42-9.56,1.37-4.71-.13-6.82,3.76-9.26,7.08-9.95,13.53-22.07,31.86-30.19,46.51-2,3.61-5,7.82-3.71,12.15.41,1.37,9.52,10.72,3.88,10.98-2.45.11-16.46-10.79-19.67-12.93s-17.13-9.64-18.22-11.98c-2.72-5.87,8.24-1.36,10.4-1.53,1.58-.12,3.75-1.25,4.93-2.3,4.12-3.65,11.24-15.59,14.73-20.75,5.65-8.34,11.65-17.22,16.87-25.79,2.11-3.47,7.22-10.84,7.03-14.59-.04-.8-.16-1.28-.4-2.02-.52-1.57-7.49-8.04-4.11-9.18h0Z"/>
  <path class="st6" d="M313.26,63.7c-.59-.64-2.47-1.6-3.38-1.55-7.17,1.7-15.44,1.87-22.46,3.94-.86.25-1.69.25-2.26,1.1-.93,1.36-2.6,10.8-2.85,12.96-.51,4.25-1.51,10.34,3.43,12.27,2.23.87,8.81.39,8.52,3.47-.18,1.84-3.18,2.32-4.64,2.6-4.17.79-8.93.93-13.22,1.64-3.55.58-12.01,3.26-14.89,2.63-2.03-.44-1.92-1.49-1.54-3.24l-34.12,16.16-1.6-.58c-2.18-2.4,4.62-6.19,4.25-8.1l-.63-.8c-13.79-7.24-27.54-14.71-42.19-20.12l-.65,1.09c4.77,10.4,10.41,20.44,16.21,30.31,3.66,3.39,11.45-1.78,13.23,1.67.67,1.31-1.83,3.27-2.82,3.93-4.72,3.13-11.9,5.6-17.12,8.29-3.34,1.72-14.96,9.15-17.54,9.35-.89.07-2.01-.6-2.57-.26-.51.31-3.63,5-4.55,6.03-4.01,4.47-10.11,9.81-16.05,11.27-6.84,1.68-19.67-1.8-26.95-3.28-4.86-.99-16.96-4.85-21.01-3.93-3.2.73-6.1,2.67-3.36,5.77,3.15,3.57,9.19,8.69,12.95,11.98,3.04,2.66,10.24,9.68,14.09,9.32,2.55-.24,12.32-7.85,10.14-.44-.98,3.31-11.61,11.89-14.65,15.07-2.48,2.6-10.95,13.92-13.29,14.53-5.28,1.38-.96-6.14-.38-8.07.96-3.21,1.18-4.44-.78-7.33-2.72-4.01-9.42-10.16-13.09-13.75-10.06-9.86-23.11-22.59-34.06-31.14-3.35-2.61-4.64-4.14-9.36-3.16-2.14.45-8.59,5.99-9.49,2.33-.72-2.94,7.72-10.29,9.76-12.6,13.07-14.77,35.99-49.15,58.24-28.53,5.54,5.13,6.96,12.32,6.22,19.65-.14,1.37-2.24,6.75-1.15,7.49,6.21,1.73,12.49,3.29,18.8,4.59,8.33,1.71,22.48,5.24,30.29,2.3,1.94-.73,5.13-3.25,6.6-3.51,1.35-.24,2.46.61,3.45.18,1.07-.47,3.96-4.13,4.22-5.4.94-4.55-3.23-12.3-5.23-16.6-6.12-13.17-13.8-28.27-20.94-40.9-1.49-2.63-5.19-9.9-7.57-11.12-3.18-1.63-6.84.54-9.99-.08-3.56-.69-.24-3.83,1.33-4.87,4.96-3.29,13.37-6.38,19.04-9.24,3.19-1.62,11.08-7,14.13-7.01.58,0,1.17,0,1.7.26,1.71,3.95-5.04,5.97-5.69,9.74-.46,2.66,3.02,9.55,4.29,12.27,3.31,7.05,7.62,13.63,10.5,20.9,1.89.27,2.69-1.59,3.42-3.01,2.63-5.12,5.01-13.47,6.75-19.14s6.04-18.68,6.07-23.68c.03-6.66-14.24,1.4-11.12-4.85.94-1.89,10.16-5.72,12.61-7.06,3.48-1.92,16.68-10.34,19.42-10.35.53,0,1.12,0,1.45.48.39.81.33,1.62-.04,2.42-.69,1.5-6.05,5.35-7.67,7.19-9.26,10.5-13.04,29.13-17.89,42.08-.17.55-.12,1.03.14,1.55.69,1.41,24.78,12.02,28.22,13.51,6.8,2.94,24.8,11.46,31.25,11.46,3.27,0,13.89-4.39,11.02,2.35,5.27-3.13,6.97-10.21,8.63-15.81,6.29-21.16,9.43-43.86,15.35-65.18,2.51-3.59,5.04-9.73,7.68-12.94.62-.76,1.39-1.32,2.39-1.45,1.48.04,3.83,4.57,4.62,5.9,8.72,14.55,16.29,30.8,24.76,45.71,4.06,7.13,12.83,24.72,19.1,28.84,2.34,1.54,9.71,2.3,10.18,3.75.91,2.81-3.72,3.53-5.6,3.86-5.9,1.06-12.07,1.28-18.02,2.12-3.91.55-17.22,3.91-19.96,2.57-1.01-.49-1.18-1.64-.72-2.63,1.42-3.08,8.63-1.94,7.93-8.41-.23-2.07-7.81-17.19-9.27-18.78l-.02.02ZM293.52,27.12c-.63.46-.85,1.1-1.07,1.81-1.79,5.73-5.04,20.45-5.4,26.25-.13,2.13-.34,3.22,2.13,3.12,5.88-.23,12.91-2.89,18.99-3.1,1.27-.84-.27-3.13-.74-4.11-3.29-6.86-8.51-16.5-12.62-22.86-.3-.47-.54-1.27-1.29-1.1h0ZM81.74,114.97c-2.8.38-6.08,1.87-8.05,3.94-4.78,5.03-2.91,6.64.96,11.05,4.59,5.23,11.97,12.11,17.26,16.77,2.16,1.9,4.48,4.96,6.98,2.65,3.37-3.11,7.7-10.95,7.4-15.59-.73-11.51-13.48-20.34-24.56-18.82h0Z"/>
  <path class="st14" d="M80.48,245.18c-1.96-3.77,2.86-7.82-.51-11.23-1.78-1.8-7.84-2.81-10.48-3.42-2.88-.66-12.2-3.02-14.33-1.44-.45.33-3.67,5.39-4.37,6.42-3,4.4-5.6,9.1-8.52,13.56-.24.52-.23,1.03-.13,1.58.49,2.5,12.42,14.69,15.25,15.47,5.87,1.62,10.07-6.92,12.99-4.84,1.03.73.32,2.81-.11,3.8-1.31,3.01-5.99,8.38-8.08,11.57-1.69,2.57-6.47,11.95-8.63,12.95-.81.37-1.61.43-2.42.04-1.23-3.45,1.19-6.3,1.01-10.11-.24-5.26-6.27-12.69-9.42-16.96-11.78-15.99-25.19-30.85-37.31-46.58-1-1.54-5.05-12.53-5.36-14.34-.6-3.57,2.73-3.06,5.27-2.83,13.49,1.25,30.91,6.34,44.79,8.9,11.22,2.07,26.22,5.81,37.25,6.38,4.29.22,8.17-.25,11.9-2.47,1.34-.8,6.87-6.23,6.98-1.13.05,2.58-9.74,14.77-11.84,17.83-2.91,4.24-6.57,11.76-9.75,15.18-1.11,1.2-2.46,2.15-4.18,1.69v-.02ZM47.79,225.62l-31.6-5.79c-.38.34,1.12,2.19,1.45,2.62,3.44,4.59,7.92,9.82,11.73,14.16,1.13,1.29,5.5,6.6,6.74,6.73.56.06,1.05-.03,1.41-.51l10.05-15.36.23-1.86h0Z"/>
  <path class="st11" d="M121.65,628.26c-.28-2.42,1.88-3.72,2.28-6.1.5-2.99-.29-4.19-1.88-6.52-.86-1.26-4.98-6.37-6.3-6.02l-13.71,11.78c-.21.6.11.92.41,1.37.41.62,5.85,6.49,6.27,6.68,2.84,1.3,5.38-2.02,7.66.02.24,1.15-5.18,4.82-6.24,5.74-.98.84-5.93,7.1-6.25,3.36-.21-2.52,3.19-3.28,1.08-7.28-.35-.67-4.82-6.29-5.22-6.39-.49-.12-1.23-.04-1.71.12-.98.33-11.25,9.58-11.88,10.65-1.55,2.63,3.13,7.56,5.04,9.39,5.19,4.98,9.12,3,15.6,2.86,1.66,1.73-4.66,4.34-5.91,4.87-2.31.98-4.71,2.57-6.89.72-5.56-6.48-10.98-13.14-16.68-19.51-.99-1.11-9.18-8.38-7.91-9.58,3.2-.56,4.62,2.81,7.87,2.39,1.34-.17,6.25-4.15,7.7-5.28,7.46-5.79,14.51-12.87,21.56-19.18,1.96-2.66-.28-4.88-1.18-7.4.46-.64.86-.83,1.66-.75,2.05.22,20.33,23.73,24.16,26.24.22.77.1,1.22-.38,1.85-.18.24-4.04,3.59-4.6,4.03-1.38,1.08-2.62,2.36-4.54,1.93h-.01Z"/>
  <path class="st11" d="M94.15,590.7c-3.89,3.87-8.82,3.55-13.73,2.09,1.03,5.85-.08,11.18-5.12,14.78-8.33,5.94-17.08.26-22.67-6.4-2.77-3.3-11.8-16.15-13.36-19.71-.47-1.07-.73-1.84-.55-3.04,4.26.55,3.74,4.63,8.97,2.98,3.99-1.26,15.88-9.8,19.94-12.66,2.51-1.76,8.16-5.28,9.92-7.33,2.22-2.59-.21-4.87-.45-7.62l2.05-.72c4.01,6.24,9.15,11.79,13.17,18.01,3.77,5.83,7.88,13.61,1.83,19.64v-.02ZM85.1,569.4l-13.25,9.34c-.44,1.71,4.31,5.99,5.82,6.49,6.93,2.27,13.9-4.67,12.11-11.63-.5-1.96-2.29-4.82-4.69-4.2h.01ZM67.83,581.38c-1.02.22-12.96,8.81-13.7,9.81-1.71,2.32-1.45,6.27.92,8.05,5.91,4.45,16.43-.92,17.59-7.75.5-2.95-.66-11-4.81-10.11Z"/>
</svg>