<?xml version="1.0" encoding="UTF-8"?>
<svg id="Layer_1" xmlns="http://www.w3.org/2000/svg" version="1.1" viewBox="0 0 1361 196.06">
  <!-- Generator: Adobe Illustrator 30.5.1, SVG Export Plug-In . SVG Version: 2.1.4 Build 3)  -->
  <defs>
    <style>
      .st0 {
        fill: #e3272e;
      }

      .st1 {
        fill: #af2a29;
      }

      .st2 {
        fill: #e3292f;
      }

      .st3 {
        fill: #eb6b27;
      }

      .st4 {
        fill: #fff;
      }

      .st5 {
        fill: #eb6c28;
      }

      .st6 {
        fill: #b62928;
      }

      .st7 {
        fill: #7a2622;
      }

      .st8 {
        fill: #b82c2b;
      }

      .st9 {
        fill: #f4a10c;
      }

      .st10 {
        fill: #e3282e;
      }

      .st11 {
        fill: #792521;
      }

      .st12 {
        fill: #ae2928;
      }

      .st13 {
        fill: #742721;
      }

      .st14 {
        fill: #b62a29;
      }

      .st15 {
        fill: #af2928;
      }
    </style>
  </defs>
  <g>
    <path class="st8" d="M235.35,99l7.64-79.06h26.82l7.5,79.06h-14.96l-1.12-12.76h-9.52l-.99,12.76h-15.36ZM252.82,73.62h7.19l-3.46-40.21h-.72l-3.01,40.21Z"/>
    <path class="st8" d="M281.89,99V31.62h16.35v7.5c.78-2.61,2.16-4.64,4.13-6.11,1.98-1.47,4.46-2.2,7.46-2.2v13.43c-1.32,0-2.89.14-4.72.43-1.83.29-3.43.67-4.81,1.17-1.38.49-2.07,1.04-2.07,1.64v51.53h-16.35Z"/>
    <path class="st8" d="M313.78,99V19.94h15.9v34.9l7.73-23.22h16.67l-10.11,29.29,12.85,38.09h-17.12l-10.02-31.76v31.76h-15.9Z"/>
    <path class="st8" d="M371.19,99.72c-3.74,0-6.6-.87-8.56-2.61-1.96-1.74-3.3-4.12-4.02-7.14-.72-3.02-1.08-6.45-1.08-10.29,0-4.1.4-7.46,1.21-10.08.81-2.62,2.19-4.77,4.16-6.45,1.96-1.68,4.66-3.1,8.11-4.27l9.97-3.41v-6.92c0-3.62-1.18-5.44-3.55-5.44-2.16,0-3.23,1.47-3.23,4.4v4.04h-15.63c-.03-.24-.04-.55-.04-.92v-1.28c0-6.71,1.58-11.46,4.74-14.26,3.16-2.8,8.17-4.2,15.03-4.2,3.59,0,6.81.64,9.66,1.91,2.84,1.27,5.1,3.15,6.76,5.64,1.66,2.49,2.49,5.56,2.49,9.21v51.35h-15.99v-8c-.78,2.82-2.07,4.97-3.86,6.47-1.8,1.5-3.85,2.25-6.15,2.25ZM377.53,87.23c1.32,0,2.22-.55,2.7-1.66.48-1.11.72-2.31.72-3.59v-18.78c-2.22.9-3.94,2.03-5.17,3.39-1.23,1.36-1.84,3.36-1.84,6v8.67c0,3.98,1.2,5.97,3.59,5.97Z"/>
    <path class="st8" d="M425.23,99V19.94h15.63v31.67l7.37-31.67h15.9l-8.85,36.21,10.69,42.86h-16.4l-8.62-38.27v38.27h-15.72Z"/>
    <path class="st8" d="M468.31,27.48v-13.39h16.08v13.39h-16.08ZM468.31,99V31.62h16.08v67.38h-16.08Z"/>
    <path class="st8" d="M504.03,99.72c-3.12,0-5.59-.57-7.41-1.71-1.83-1.14-3.19-2.71-4.09-4.72-.9-2.01-1.49-4.36-1.77-7.05-.29-2.7-.43-5.58-.43-8.67v-29.29c0-5.18.92-9.37,2.76-12.58,1.84-3.2,4.96-4.81,9.37-4.81,3.26,0,5.77.7,7.52,2.09s3.11,3.33,4.07,5.82v-18.87h16.35v79.06h-16.35v-7.14c-.9,2.43-2.09,4.34-3.57,5.75s-3.63,2.11-6.45,2.11ZM510.18,87.14c1.53,0,2.55-.61,3.08-1.84.52-1.23.79-3.43.79-6.6v-28.35c0-1.59-.23-3.15-.7-4.69-.46-1.54-1.49-2.31-3.08-2.31-1.74,0-2.83.73-3.28,2.2-.45,1.47-.67,3.07-.67,4.81v28.35c0,5.63,1.29,8.45,3.86,8.45Z"/>
    <path class="st8" d="M555.06,99.72c-13.3,0-19.95-6.74-19.95-20.21v-5.35h16.17v7.91c0,1.53.3,2.73.9,3.59.6.87,1.56,1.3,2.88,1.3,2.34,0,3.5-1.75,3.5-5.26,0-2.93-.61-5.13-1.84-6.58-1.23-1.45-2.73-2.85-4.49-4.2l-8.58-6.6c-2.7-2.1-4.75-4.31-6.15-6.65-1.41-2.34-2.11-5.58-2.11-9.75,0-3.86.92-7.05,2.76-9.57s4.28-4.39,7.32-5.62c3.04-1.23,6.33-1.84,9.86-1.84,13.06,0,19.59,6.51,19.59,19.54v1.26h-16.62v-2.56c0-1.35-.23-2.65-.7-3.91-.46-1.26-1.37-1.89-2.72-1.89-2.28,0-3.41,1.2-3.41,3.59s.96,4.33,2.88,5.71l9.97,7.28c3.11,2.25,5.73,4.91,7.84,8,2.11,3.08,3.17,7.19,3.17,12.31,0,6.35-1.8,11.19-5.41,14.51-3.61,3.32-8.56,4.99-14.85,4.99Z"/>
    <path class="st8" d="M601.37,99V19.94h15.27v79.06h-15.27Z"/>
    <path class="st8" d="M622.66,99V31.62h16.08v8.58c.6-2.58,1.71-4.77,3.35-6.58,1.63-1.81,3.9-2.72,6.81-2.72,4.67,0,8.06,1.44,10.17,4.31s3.17,6.81,3.17,11.81v51.97h-15.86v-50.31c0-1.32-.27-2.54-.81-3.66s-1.47-1.68-2.79-1.68c-1.23,0-2.13.43-2.72,1.28s-.95,1.92-1.1,3.19c-.15,1.27-.22,2.54-.22,3.8v47.39h-16.08Z"/>
    <path class="st8" d="M682.37,99.72c-4.34,0-7.27-.92-8.78-2.76-1.51-1.84-2.27-4.66-2.27-8.47v-42h-4.54v-12.26h4.54v-14.29h15.63v14.29h4.54v12.26h-4.54v38.23c0,1.11.18,1.89.54,2.34s1.05.67,2.07.67c.72,0,1.36-.06,1.93-.18v10.96c-.36.12-1.48.35-3.37.7s-3.8.52-5.75.52Z"/>
    <path class="st8" d="M715.47,99.72c-4.79,0-8.61-.9-11.46-2.7-2.85-1.8-4.88-4.39-6.11-7.77-1.23-3.38-1.84-7.46-1.84-12.22v-27.09c0-6.26,1.8-11,5.39-14.22,3.59-3.22,8.54-4.83,14.82-4.83,12.94,0,19.41,6.35,19.41,19.05v4.9c0,5.93-.06,9.91-.18,11.95h-23.36v13.03c0,1.2.07,2.37.22,3.53.15,1.15.49,2.1,1.01,2.85.52.75,1.37,1.12,2.54,1.12,1.68,0,2.72-.73,3.14-2.18.42-1.45.63-3.35.63-5.68v-6.47h15.99v3.82c0,5.03-.62,9.25-1.86,12.65-1.24,3.4-3.34,5.96-6.29,7.68-2.95,1.72-6.97,2.58-12.06,2.58ZM712.06,58.79h7.64v-9.07c0-2.43-.3-4.17-.9-5.23-.6-1.06-1.5-1.59-2.7-1.59-1.29,0-2.28.51-2.99,1.53-.7,1.02-1.06,2.79-1.06,5.3v9.07Z"/>
    <path class="st8" d="M741.53,99V31.62h16.35v7.5c.78-2.61,2.16-4.64,4.13-6.11,1.98-1.47,4.46-2.2,7.46-2.2v13.43c-1.32,0-2.89.14-4.72.43-1.83.29-3.43.67-4.81,1.17-1.38.49-2.07,1.04-2.07,1.64v51.53h-16.35Z"/>
    <path class="st8" d="M773.42,99V31.62h16.08v8.58c.6-2.58,1.71-4.77,3.35-6.58,1.63-1.81,3.9-2.72,6.81-2.72,4.67,0,8.06,1.44,10.17,4.31s3.17,6.81,3.17,11.81v51.97h-15.86v-50.31c0-1.32-.27-2.54-.81-3.66s-1.47-1.68-2.79-1.68c-1.23,0-2.13.43-2.72,1.28s-.95,1.92-1.1,3.19c-.15,1.27-.22,2.54-.22,3.8v47.39h-16.08Z"/>
    <path class="st8" d="M831.55,99.72c-3.74,0-6.6-.87-8.56-2.61-1.96-1.74-3.3-4.12-4.02-7.14-.72-3.02-1.08-6.45-1.08-10.29,0-4.1.4-7.46,1.21-10.08.81-2.62,2.19-4.77,4.16-6.45,1.96-1.68,4.66-3.1,8.11-4.27l9.97-3.41v-6.92c0-3.62-1.18-5.44-3.55-5.44-2.16,0-3.23,1.47-3.23,4.4v4.04h-15.63c-.03-.24-.04-.55-.04-.92v-1.28c0-6.71,1.58-11.46,4.74-14.26,3.16-2.8,8.17-4.2,15.03-4.2,3.59,0,6.81.64,9.66,1.91,2.84,1.27,5.1,3.15,6.76,5.64,1.66,2.49,2.49,5.56,2.49,9.21v51.35h-15.99v-8c-.78,2.82-2.07,4.97-3.86,6.47-1.8,1.5-3.85,2.25-6.15,2.25ZM837.88,87.23c1.32,0,2.22-.55,2.7-1.66.48-1.11.72-2.31.72-3.59v-18.78c-2.22.9-3.94,2.03-5.17,3.39-1.23,1.36-1.84,3.36-1.84,6v8.67c0,3.98,1.2,5.97,3.59,5.97Z"/>
    <path class="st8" d="M877.6,99.72c-4.34,0-7.27-.92-8.78-2.76-1.51-1.84-2.27-4.66-2.27-8.47v-42h-4.54v-12.26h4.54v-14.29h15.63v14.29h4.54v12.26h-4.54v38.23c0,1.11.18,1.89.54,2.34s1.05.67,2.07.67c.72,0,1.36-.06,1.93-.18v10.96c-.36.12-1.48.35-3.37.7s-3.8.52-5.75.52Z"/>
    <path class="st8" d="M891.75,27.48v-13.39h16.08v13.39h-16.08ZM891.75,99V31.62h16.08v67.38h-16.08Z"/>
    <path class="st8" d="M933.79,99.72c-13.42,0-20.12-6.96-20.12-20.89v-27.04c0-6.35,1.78-11.42,5.35-15.21,3.56-3.79,8.49-5.68,14.78-5.68s11.26,1.89,14.82,5.68c3.56,3.79,5.35,8.86,5.35,15.21v27.04c0,13.93-6.72,20.89-20.17,20.89ZM933.79,87.32c1.35,0,2.31-.49,2.9-1.46.58-.97.88-2.21.88-3.71v-32.93c0-3.92-1.26-5.88-3.77-5.88s-3.77,1.96-3.77,5.88v32.93c0,1.5.29,2.73.88,3.71.58.97,1.55,1.46,2.9,1.46Z"/>
    <path class="st8" d="M959.89,99V31.62h16.08v8.58c.6-2.58,1.71-4.77,3.35-6.58,1.63-1.81,3.9-2.72,6.81-2.72,4.67,0,8.06,1.44,10.17,4.31s3.17,6.81,3.17,11.81v51.97h-15.86v-50.31c0-1.32-.27-2.54-.81-3.66s-1.47-1.68-2.79-1.68c-1.23,0-2.13.43-2.72,1.28s-.95,1.92-1.1,3.19c-.15,1.27-.22,2.54-.22,3.8v47.39h-16.08Z"/>
    <path class="st8" d="M1018.02,99.72c-3.74,0-6.6-.87-8.56-2.61-1.96-1.74-3.3-4.12-4.02-7.14-.72-3.02-1.08-6.45-1.08-10.29,0-4.1.4-7.46,1.21-10.08.81-2.62,2.19-4.77,4.16-6.45,1.96-1.68,4.66-3.1,8.11-4.27l9.97-3.41v-6.92c0-3.62-1.18-5.44-3.55-5.44-2.16,0-3.23,1.47-3.23,4.4v4.04h-15.63c-.03-.24-.04-.55-.04-.92v-1.28c0-6.71,1.58-11.46,4.74-14.26,3.16-2.8,8.17-4.2,15.03-4.2,3.59,0,6.81.64,9.66,1.91,2.84,1.27,5.1,3.15,6.76,5.64,1.66,2.49,2.49,5.56,2.49,9.21v51.35h-15.99v-8c-.78,2.82-2.07,4.97-3.86,6.47-1.8,1.5-3.85,2.25-6.15,2.25ZM1024.36,87.23c1.32,0,2.22-.55,2.7-1.66.48-1.11.72-2.31.72-3.59v-18.78c-2.22.9-3.94,2.03-5.17,3.39-1.23,1.36-1.84,3.36-1.84,6v8.67c0,3.98,1.2,5.97,3.59,5.97Z"/>
    <path class="st8" d="M1050.23,99V19.94h16.35v79.06h-16.35Z"/>
    <path class="st8" d="M1113.66,99.72c-7.22,0-12.42-1.8-15.61-5.39s-4.78-9.31-4.78-17.16v-7.73h15.63v9.88c0,1.83.28,3.26.83,4.29.55,1.03,1.52,1.55,2.9,1.55s2.43-.42,2.99-1.26c.55-.84.83-2.22.83-4.13,0-2.43-.24-4.45-.72-6.09-.48-1.63-1.31-3.19-2.49-4.67-1.18-1.48-2.82-3.21-4.92-5.19l-7.1-6.74c-5.3-5-7.95-10.72-7.95-17.16s1.56-11.87,4.69-15.41c3.13-3.53,7.66-5.3,13.59-5.3,7.25,0,12.39,1.93,15.43,5.79,3.04,3.86,4.56,9.73,4.56,17.61h-16.08v-5.44c0-1.08-.31-1.92-.92-2.52-.61-.6-1.45-.9-2.49-.9-1.26,0-2.18.35-2.76,1.06-.58.7-.88,1.61-.88,2.72s.3,2.31.9,3.59c.6,1.29,1.78,2.77,3.55,4.45l9.12,8.76c1.83,1.74,3.5,3.57,5.03,5.5s2.75,4.18,3.68,6.74c.93,2.56,1.39,5.68,1.39,9.37,0,7.43-1.37,13.25-4.11,17.45-2.74,4.21-7.51,6.31-14.31,6.31Z"/>
    <path class="st8" d="M1157.32,99.72c-7.55,0-12.9-1.93-16.06-5.79-3.16-3.86-4.74-9.54-4.74-17.03v-20.75c0-5.63.6-10.32,1.8-14.06,1.2-3.74,3.29-6.54,6.29-8.4,2.99-1.86,7.16-2.79,12.49-2.79,3.71,0,7.04.66,10,1.98,2.95,1.32,5.28,3.25,6.99,5.79,1.71,2.55,2.56,5.66,2.56,9.34v10.29h-16.4v-9.43c0-1.56-.22-2.87-.67-3.93-.45-1.06-1.42-1.59-2.92-1.59-2.64,0-3.95,1.87-3.95,5.62v32.66c0,1.38.3,2.64.9,3.8.6,1.15,1.59,1.73,2.96,1.73s2.39-.56,2.94-1.68c.55-1.12.83-2.43.83-3.93v-11.32h16.31v11.77c0,3.71-.83,6.9-2.49,9.55s-3.95,4.68-6.85,6.09c-2.91,1.41-6.23,2.11-9.97,2.11Z"/>
    <path class="st8" d="M1182.26,99V19.94h16.53v18.37c.87-2.52,2.2-4.38,4-5.59s3.89-1.82,6.29-1.82c4.67,0,8.07,1.47,10.2,4.4,2.13,2.94,3.19,6.87,3.19,11.81v51.88h-16.26v-50.85c0-1.47-.31-2.67-.92-3.59-.61-.93-1.58-1.39-2.9-1.39-1.11,0-1.98.48-2.63,1.44-.64.96-.97,2.1-.97,3.41v50.99h-16.53Z"/>
    <path class="st8" d="M1248.34,99.72c-13.42,0-20.12-6.96-20.12-20.89v-27.04c0-6.35,1.78-11.42,5.35-15.21,3.56-3.79,8.49-5.68,14.78-5.68s11.26,1.89,14.82,5.68c3.56,3.79,5.35,8.86,5.35,15.21v27.04c0,13.93-6.72,20.89-20.17,20.89ZM1248.34,87.32c1.35,0,2.31-.49,2.9-1.46.58-.97.88-2.21.88-3.71v-32.93c0-3.92-1.26-5.88-3.77-5.88s-3.77,1.96-3.77,5.88v32.93c0,1.5.29,2.73.88,3.71.58.97,1.55,1.46,2.9,1.46Z"/>
    <path class="st8" d="M1294.02,99.72c-13.42,0-20.12-6.96-20.12-20.89v-27.04c0-6.35,1.78-11.42,5.35-15.21,3.56-3.79,8.49-5.68,14.78-5.68s11.26,1.89,14.82,5.68c3.56,3.79,5.35,8.86,5.35,15.21v27.04c0,13.93-6.72,20.89-20.17,20.89ZM1294.02,87.32c1.35,0,2.31-.49,2.9-1.46.58-.97.88-2.21.88-3.71v-32.93c0-3.92-1.26-5.88-3.77-5.88s-3.77,1.96-3.77,5.88v32.93c0,1.5.29,2.73.88,3.71.58.97,1.55,1.46,2.9,1.46Z"/>
    <path class="st8" d="M1320.12,99V19.94h16.35v79.06h-16.35Z"/>
  </g>
  <g>
    <path class="st9" d="M279.92,162l-2.74-9.01h-13.79l-2.74,9.01h-8.64l13.35-37.99h9.81l13.41,37.99h-8.64ZM275.27,146.27l-2.74-8.8c-.17-.59-.4-1.34-.69-2.26-.28-.92-.57-1.86-.85-2.82-.29-.96-.51-1.79-.69-2.5-.17.71-.41,1.58-.71,2.63-.3,1.04-.59,2.03-.87,2.96-.28.93-.47,1.6-.6,1.99l-2.72,8.8h9.86Z"/>
    <path class="st9" d="M337.89,124.17v24.48c0,2.61-.57,4.96-1.72,7.05-1.15,2.1-2.88,3.76-5.2,4.98-2.32,1.23-5.24,1.84-8.76,1.84-5,0-8.82-1.28-11.44-3.83-2.62-2.55-3.93-5.93-3.93-10.14v-24.38h8v23.16c0,3.12.64,5.31,1.92,6.57,1.28,1.26,3.17,1.89,5.67,1.89,1.76,0,3.19-.3,4.28-.91,1.1-.6,1.9-1.54,2.42-2.79.52-1.26.78-2.86.78-4.81v-23.11h8Z"/>
    <path class="st9" d="M362.97,132.52c3.09,0,5.57.84,7.45,2.52,1.88,1.68,2.82,4.38,2.82,8.09v18.87h-7.89v-16.9c0-2.07-.38-3.63-1.13-4.68-.75-1.05-1.93-1.58-3.53-1.58-2.42,0-4.06.82-4.94,2.46s-1.32,4-1.32,7.09v13.61h-7.89v-28.93h6.03l1.06,3.7h.44c.62-1,1.39-1.81,2.32-2.43s1.95-1.08,3.08-1.37c1.13-.29,2.3-.44,3.51-.44Z"/>
    <path class="st9" d="M385.33,121.73c1.17,0,2.18.27,3.03.82.85.54,1.27,1.56,1.27,3.04s-.42,2.48-1.27,3.04c-.85.56-1.85.84-3.03.84s-2.2-.28-3.04-.84c-.84-.56-1.26-1.57-1.26-3.04s.42-2.5,1.26-3.04c.84-.54,1.85-.82,3.04-.82ZM389.26,133.07v28.93h-7.89v-28.93h7.89Z"/>
    <path class="st9" d="M409.73,156.23c.86,0,1.7-.09,2.52-.26.82-.17,1.63-.39,2.45-.65v5.87c-.85.38-1.89.7-3.14.95-1.25.25-2.62.38-4.1.38-1.73,0-3.27-.28-4.65-.84-1.37-.56-2.45-1.54-3.24-2.92s-1.18-3.33-1.18-5.81v-13.95h-3.78v-3.34l4.35-2.64,2.28-6.11h5.05v6.16h8.1v5.93h-8.1v13.95c0,1.1.31,1.93.94,2.47.63.54,1.46.81,2.5.81Z"/>
    <path class="st9" d="M460.61,147.48c0,2.42-.32,4.55-.97,6.42-.65,1.86-1.59,3.44-2.82,4.72-1.23,1.29-2.72,2.26-4.45,2.91-1.73.66-3.69.98-5.86.98-2.04,0-3.9-.33-5.6-.98s-3.17-1.63-4.42-2.91c-1.25-1.29-2.22-2.86-2.9-4.72-.68-1.86-1.02-4-1.02-6.42,0-3.21.57-5.93,1.71-8.15s2.76-3.92,4.87-5.07c2.1-1.16,4.61-1.73,7.53-1.73,2.71,0,5.11.58,7.21,1.73,2.1,1.16,3.74,2.85,4.94,5.07s1.8,4.94,1.8,8.15ZM440.61,147.48c0,1.9.21,3.49.62,4.79s1.06,2.27,1.94,2.92c.88.66,2.03.98,3.44.98s2.53-.33,3.4-.98c.87-.65,1.51-1.63,1.92-2.92s.61-2.89.61-4.79-.2-3.51-.61-4.78c-.41-1.27-1.05-2.22-1.93-2.86s-2.03-.96-3.44-.96c-2.09,0-3.6.72-4.54,2.15-.94,1.43-1.41,3.58-1.41,6.44Z"/>
    <path class="st9" d="M483.12,138.99h-6.83v23.01h-7.89v-23.01h-4.35v-3.8l4.35-2.12v-2.12c0-2.47.42-4.39,1.26-5.76.84-1.37,2.02-2.34,3.54-2.9,1.53-.56,3.33-.84,5.42-.84,1.54,0,2.93.13,4.19.38,1.26.25,2.29.53,3.08.84l-2.02,5.8c-.6-.19-1.26-.36-1.97-.52-.71-.16-1.52-.23-2.43-.23-1.1,0-1.91.33-2.42,1-.51.66-.76,1.51-.76,2.55v1.81h6.83v5.93Z"/>
    <path class="st9" d="M502.04,162v-37.83h8.02v37.83h-8.02Z"/>
    <path class="st9" d="M528.13,162.52c-3.23,0-5.85-1.26-7.88-3.79-2.03-2.53-3.04-6.24-3.04-11.14s1.03-8.7,3.08-11.25c2.05-2.54,4.74-3.82,8.05-3.82,1.38,0,2.6.19,3.65.57,1.05.38,1.96.89,2.73,1.53.77.64,1.42,1.35,1.95,2.15h.26c-.1-.55-.23-1.37-.38-2.45-.15-1.08-.22-2.19-.22-3.33v-9.26h7.92v40.27h-6.06l-1.53-3.75h-.34c-.5.79-1.13,1.51-1.88,2.16-.75.65-1.64,1.16-2.68,1.54s-2.25.57-3.65.57ZM530.9,156.23c2.16,0,3.68-.64,4.57-1.93.89-1.29,1.36-3.22,1.41-5.81v-.85c0-2.81-.43-4.96-1.29-6.46-.86-1.49-2.47-2.24-4.81-2.24-1.74,0-3.11.75-4.09,2.25s-1.48,3.67-1.48,6.5.5,4.96,1.49,6.39c.99,1.43,2.39,2.15,4.21,2.15Z"/>
    <path class="st9" d="M564.44,132.52c2.67,0,4.98.51,6.91,1.54,1.93,1.03,3.42,2.51,4.48,4.46,1.05,1.95,1.58,4.33,1.58,7.14v3.83h-18.66c.09,2.23.75,3.97,2.01,5.24,1.25,1.27,2.99,1.9,5.21,1.9,1.85,0,3.54-.19,5.07-.57,1.54-.38,3.11-.95,4.74-1.71v6.11c-1.43.71-2.93,1.23-4.49,1.55-1.56.33-3.46.49-5.68.49-2.9,0-5.46-.54-7.7-1.6s-3.99-2.7-5.25-4.89c-1.27-2.19-1.9-4.95-1.9-8.28s.57-6.2,1.72-8.45c1.15-2.25,2.75-3.94,4.8-5.07,2.05-1.13,4.44-1.7,7.17-1.7ZM564.49,138.14c-1.54,0-2.81.49-3.82,1.48-1.01.98-1.59,2.53-1.75,4.63h11.08c-.02-1.17-.23-2.22-.63-3.13-.41-.91-1.01-1.64-1.81-2.17-.8-.53-1.82-.8-3.07-.8Z"/>
    <path class="st9" d="M595.67,132.47c3.88,0,6.86.85,8.93,2.54,2.07,1.69,3.11,4.26,3.11,7.71v19.28h-5.51l-1.53-3.93h-.21c-.83,1.04-1.67,1.88-2.54,2.54-.86.66-1.85,1.14-2.98,1.45-1.12.31-2.48.47-4.09.47-1.71,0-3.24-.33-4.59-.98s-2.42-1.66-3.2-3.01c-.78-1.35-1.17-3.08-1.17-5.16,0-3.07,1.08-5.33,3.24-6.79,2.16-1.46,5.39-2.26,9.7-2.42l5.02-.16v-1.27c0-1.52-.4-2.63-1.19-3.34-.79-.71-1.9-1.06-3.31-1.06s-2.77.2-4.11.6-2.69.9-4.04,1.5l-2.61-5.33c1.54-.81,3.26-1.45,5.16-1.92,1.91-.47,3.88-.7,5.91-.7ZM599.86,148.59l-3.05.1c-2.55.07-4.33.53-5.32,1.37s-1.49,1.96-1.49,3.34c0,1.21.35,2.07,1.06,2.58.71.51,1.63.76,2.77.76,1.69,0,3.12-.5,4.28-1.5,1.17-1,1.75-2.42,1.75-4.27v-2.38Z"/>
    <path class="st9" d="M623.72,162h-7.89v-40.27h7.89v40.27Z"/>
    <path class="st9" d="M658.48,124.17c4.88,0,8.44,1.05,10.69,3.14,2.24,2.1,3.36,4.98,3.36,8.66,0,1.66-.25,3.24-.75,4.75-.5,1.51-1.32,2.85-2.45,4.02-1.13,1.17-2.64,2.1-4.52,2.78-1.88.68-4.2,1.02-6.96,1.02h-3.44v13.46h-8.02v-37.83h12.09ZM658.07,130.74h-3.65v11.23h2.64c1.5,0,2.8-.2,3.91-.59,1.1-.4,1.96-1.02,2.56-1.86.6-.85.91-1.93.91-3.26,0-1.86-.52-3.25-1.55-4.15-1.04-.91-2.64-1.36-4.81-1.36Z"/>
    <path class="st9" d="M686.95,162h-7.89v-40.27h7.89v40.27Z"/>
    <path class="st9" d="M707.08,132.47c3.88,0,6.86.85,8.93,2.54,2.07,1.69,3.11,4.26,3.11,7.71v19.28h-5.51l-1.53-3.93h-.21c-.83,1.04-1.67,1.88-2.54,2.54-.86.66-1.85,1.14-2.98,1.45-1.12.31-2.48.47-4.09.47-1.71,0-3.24-.33-4.59-.98s-2.42-1.66-3.2-3.01c-.78-1.35-1.17-3.08-1.17-5.16,0-3.07,1.08-5.33,3.24-6.79,2.16-1.46,5.39-2.26,9.7-2.42l5.02-.16v-1.27c0-1.52-.4-2.63-1.19-3.34-.79-.71-1.9-1.06-3.31-1.06s-2.77.2-4.11.6-2.69.9-4.04,1.5l-2.61-5.33c1.54-.81,3.26-1.45,5.16-1.92,1.91-.47,3.88-.7,5.91-.7ZM711.27,148.59l-3.05.1c-2.55.07-4.33.53-5.32,1.37s-1.49,1.96-1.49,3.34c0,1.21.35,2.07,1.06,2.58.71.51,1.63.76,2.77.76,1.69,0,3.12-.5,4.28-1.5,1.17-1,1.75-2.42,1.75-4.27v-2.38Z"/>
    <path class="st9" d="M723.1,133.07h8.64l5.46,16.28c.17.52.32,1.04.44,1.58.12.54.22,1.09.31,1.66.09.57.16,1.16.21,1.79h.16c.1-.93.25-1.8.43-2.61.18-.81.41-1.61.69-2.41l5.36-16.28h8.46l-12.24,32.63c-.74,2-1.71,3.67-2.9,5.01s-2.56,2.34-4.1,3.01c-1.54.67-3.24,1.01-5.09,1.01-.9,0-1.67-.05-2.33-.14-.66-.09-1.22-.19-1.68-.3v-6.26c.36.09.82.16,1.37.23.55.07,1.13.1,1.73.1,1.1,0,2.05-.23,2.85-.7.79-.47,1.46-1.09,1.99-1.88.54-.79.96-1.64,1.27-2.57l.47-1.42-11.49-28.73Z"/>
    <path class="st9" d="M794.94,162l-2.74-9.01h-13.79l-2.74,9.01h-8.64l13.35-37.99h9.81l13.4,37.99h-8.64ZM790.28,146.27l-2.74-8.8c-.17-.59-.4-1.34-.69-2.26-.28-.92-.57-1.86-.85-2.82-.29-.96-.51-1.79-.69-2.5-.17.71-.41,1.58-.71,2.63-.3,1.04-.59,2.03-.87,2.96-.28.93-.47,1.6-.59,1.99l-2.72,8.8h9.86Z"/>
    <path class="st9" d="M815.62,121.73v9.37c0,1.09-.03,2.17-.09,3.24-.06,1.07-.13,1.9-.22,2.48h.31c.76-1.19,1.79-2.2,3.11-3.04,1.31-.84,3.01-1.26,5.1-1.26,3.24,0,5.87,1.27,7.89,3.8,2.02,2.54,3.03,6.25,3.03,11.15,0,3.29-.47,6.06-1.4,8.29s-2.23,3.92-3.91,5.05c-1.67,1.13-3.62,1.7-5.82,1.7s-3.8-.38-5.02-1.14c-1.23-.76-2.22-1.61-2.98-2.56h-.54l-1.32,3.18h-6.03v-40.27h7.89ZM821.28,138.84c-1.38,0-2.48.29-3.29.85-.81.57-1.4,1.42-1.77,2.56s-.57,2.58-.61,4.32v.85c0,2.81.41,4.96,1.24,6.46s2.34,2.24,4.53,2.24c1.62,0,2.91-.75,3.87-2.25.96-1.5,1.44-3.67,1.44-6.5s-.48-4.96-1.45-6.39c-.97-1.43-2.29-2.15-3.96-2.15Z"/>
    <path class="st9" d="M853.12,132.47c3.88,0,6.86.85,8.93,2.54,2.07,1.69,3.11,4.26,3.11,7.71v19.28h-5.51l-1.53-3.93h-.21c-.83,1.04-1.67,1.88-2.54,2.54-.86.66-1.85,1.14-2.98,1.45-1.12.31-2.48.47-4.09.47-1.71,0-3.24-.33-4.59-.98s-2.42-1.66-3.2-3.01c-.78-1.35-1.17-3.08-1.17-5.16,0-3.07,1.08-5.33,3.24-6.79,2.16-1.46,5.39-2.26,9.7-2.42l5.02-.16v-1.27c0-1.52-.4-2.63-1.19-3.34-.79-.71-1.9-1.06-3.31-1.06s-2.77.2-4.11.6-2.69.9-4.04,1.5l-2.61-5.33c1.54-.81,3.26-1.45,5.16-1.92,1.91-.47,3.88-.7,5.91-.7ZM857.31,148.59l-3.05.1c-2.55.07-4.33.53-5.32,1.37s-1.49,1.96-1.49,3.34c0,1.21.35,2.07,1.06,2.58.71.51,1.63.76,2.77.76,1.69,0,3.12-.5,4.28-1.5,1.17-1,1.75-2.42,1.75-4.27v-2.38Z"/>
    <path class="st9" d="M885.02,162.52c-2.86,0-5.31-.52-7.32-1.57-2.02-1.04-3.55-2.66-4.61-4.85-1.05-2.19-1.58-4.99-1.58-8.41s.6-6.42,1.8-8.66c1.2-2.23,2.86-3.88,4.99-4.93,2.13-1.05,4.6-1.58,7.41-1.58,2,0,3.73.19,5.19.58,1.46.39,2.73.85,3.82,1.38l-2.33,6.11c-1.24-.5-2.4-.91-3.47-1.23-1.07-.32-2.14-.48-3.21-.48-1.38,0-2.53.32-3.44.97-.92.65-1.6,1.62-2.04,2.91-.45,1.29-.67,2.92-.67,4.87s.24,3.5.72,4.76c.48,1.26,1.18,2.2,2.1,2.81.91.61,2.03.92,3.34.92,1.64,0,3.1-.22,4.37-.66,1.28-.44,2.52-1.06,3.73-1.85v6.75c-1.21.76-2.47,1.31-3.79,1.64-1.32.34-2.99.5-5.01.5Z"/>
    <path class="st9" d="M927.08,133.07v28.93h-6.06l-1.06-3.7h-.41c-.62.98-1.4,1.79-2.33,2.41s-1.96,1.08-3.08,1.37c-1.12.29-2.29.44-3.49.44-2.07,0-3.87-.37-5.41-1.1-1.54-.73-2.73-1.88-3.58-3.43-.85-1.55-1.28-3.57-1.28-6.05v-18.87h7.89v16.9c0,2.07.37,3.63,1.11,4.68.74,1.05,1.92,1.58,3.55,1.58s2.86-.37,3.78-1.1c.92-.73,1.56-1.81,1.93-3.23.37-1.42.56-3.16.56-5.21v-13.61h7.89Z"/>
    <path class="st9" d="M955.54,153.41c0,1.97-.46,3.63-1.38,4.98s-2.3,2.38-4.13,3.08c-1.83.7-4.11,1.05-6.83,1.05-2.02,0-3.75-.13-5.19-.39-1.44-.26-2.89-.69-4.36-1.29v-6.52c1.57.71,3.26,1.29,5.06,1.75,1.8.46,3.39.69,4.75.69,1.54,0,2.64-.23,3.3-.69s1-1.06,1-1.8c0-.48-.13-.92-.4-1.31-.27-.39-.84-.83-1.72-1.32-.88-.49-2.26-1.13-4.14-1.93-1.81-.76-3.3-1.53-4.46-2.3-1.16-.78-2.03-1.7-2.59-2.76-.56-1.06-.84-2.41-.84-4.05,0-2.67,1.04-4.69,3.12-6.04s4.86-2.03,8.35-2.03c1.79,0,3.51.18,5.14.54,1.63.36,3.31.94,5.03,1.73l-2.38,5.69c-1.43-.62-2.78-1.13-4.05-1.53-1.27-.4-2.56-.59-3.87-.59-1.16,0-2.03.15-2.61.46-.59.31-.88.79-.88,1.42,0,.47.15.88.45,1.24s.89.76,1.76,1.2c.87.44,2.15,1.01,3.84,1.7,1.64.67,3.06,1.38,4.27,2.11,1.21.73,2.14,1.64,2.79,2.72.66,1.08.98,2.47.98,4.18Z"/>
    <path class="st9" d="M976.09,162v-37.83h8.02v37.83h-8.02Z"/>
    <path class="st9" d="M1009.45,132.52c3.09,0,5.57.84,7.45,2.52,1.88,1.68,2.82,4.38,2.82,8.09v18.87h-7.89v-16.9c0-2.07-.38-3.63-1.13-4.68-.75-1.05-1.93-1.58-3.53-1.58-2.42,0-4.06.82-4.94,2.46s-1.32,4-1.32,7.09v13.61h-7.89v-28.93h6.03l1.06,3.7h.44c.62-1,1.39-1.81,2.32-2.43s1.95-1.08,3.08-1.37c1.13-.29,2.3-.44,3.51-.44Z"/>
    <path class="st9" d="M1037.01,162.52c-3.23,0-5.85-1.26-7.88-3.79-2.03-2.53-3.04-6.24-3.04-11.14s1.03-8.7,3.08-11.25c2.05-2.54,4.74-3.82,8.05-3.82,1.38,0,2.6.19,3.65.57,1.05.38,1.96.89,2.73,1.53.77.64,1.42,1.35,1.95,2.15h.26c-.1-.55-.23-1.37-.38-2.45-.15-1.08-.22-2.19-.22-3.33v-9.26h7.92v40.27h-6.05l-1.53-3.75h-.34c-.5.79-1.13,1.51-1.88,2.16-.75.65-1.64,1.16-2.68,1.54s-2.25.57-3.65.57ZM1039.78,156.23c2.16,0,3.68-.64,4.57-1.93.89-1.29,1.36-3.22,1.41-5.81v-.85c0-2.81-.43-4.96-1.29-6.46-.86-1.49-2.47-2.24-4.81-2.24-1.74,0-3.11.75-4.09,2.25s-1.48,3.67-1.48,6.5.5,4.96,1.49,6.39c.99,1.43,2.39,2.15,4.21,2.15Z"/>
    <path class="st9" d="M1065.35,121.73c1.17,0,2.18.27,3.03.82.84.54,1.27,1.56,1.27,3.04s-.42,2.48-1.27,3.04c-.85.56-1.85.84-3.03.84s-2.2-.28-3.04-.84c-.84-.56-1.25-1.57-1.25-3.04s.42-2.5,1.25-3.04c.84-.54,1.85-.82,3.04-.82ZM1069.28,133.07v28.93h-7.89v-28.93h7.89Z"/>
    <path class="st9" d="M1089.42,132.47c3.88,0,6.86.85,8.93,2.54,2.07,1.69,3.11,4.26,3.11,7.71v19.28h-5.51l-1.53-3.93h-.21c-.83,1.04-1.67,1.88-2.54,2.54-.86.66-1.85,1.14-2.98,1.45-1.12.31-2.48.47-4.09.47-1.71,0-3.24-.33-4.59-.98s-2.42-1.66-3.2-3.01c-.78-1.35-1.17-3.08-1.17-5.16,0-3.07,1.08-5.33,3.24-6.79,2.16-1.46,5.39-2.26,9.7-2.42l5.02-.16v-1.27c0-1.52-.4-2.63-1.19-3.34-.79-.71-1.9-1.06-3.31-1.06s-2.77.2-4.11.6-2.69.9-4.04,1.5l-2.61-5.33c1.54-.81,3.26-1.45,5.16-1.92,1.91-.47,3.88-.7,5.91-.7ZM1093.61,148.59l-3.05.1c-2.55.07-4.33.53-5.32,1.37s-1.49,1.96-1.49,3.34c0,1.21.35,2.07,1.06,2.58.71.51,1.63.76,2.77.76,1.69,0,3.12-.5,4.28-1.5,1.17-1,1.75-2.42,1.75-4.27v-2.38Z"/>
    <path class="st9" d="M1136.05,124.17c4.88,0,8.44,1.05,10.69,3.14,2.24,2.1,3.36,4.98,3.36,8.66,0,1.66-.25,3.24-.75,4.75-.5,1.51-1.32,2.85-2.45,4.02-1.13,1.17-2.64,2.1-4.52,2.78-1.88.68-4.2,1.02-6.96,1.02h-3.44v13.46h-8.02v-37.83h12.09ZM1135.64,130.74h-3.65v11.23h2.64c1.5,0,2.8-.2,3.91-.59,1.1-.4,1.96-1.02,2.56-1.86.6-.85.91-1.93.91-3.26,0-1.86-.52-3.25-1.55-4.15-1.04-.91-2.64-1.36-4.81-1.36Z"/>
    <path class="st9" d="M1163.51,162l-11.02-28.93h8.26l5.59,16.49c.31.97.56,1.98.74,3.05.18,1.07.31,2.03.38,2.87h.21c.05-.91.18-1.89.38-2.92s.46-2.04.79-3l5.56-16.49h8.25l-11.02,28.93h-8.1Z"/>
    <path class="st9" d="M1198.96,156.23c.86,0,1.7-.09,2.52-.26.82-.17,1.63-.39,2.45-.65v5.87c-.85.38-1.89.7-3.14.95-1.25.25-2.62.38-4.1.38-1.73,0-3.27-.28-4.65-.84-1.37-.56-2.45-1.54-3.24-2.92s-1.18-3.33-1.18-5.81v-13.95h-3.78v-3.34l4.35-2.64,2.28-6.11h5.05v6.16h8.1v5.93h-8.1v13.95c0,1.1.31,1.93.94,2.47.63.54,1.46.81,2.5.81Z"/>
    <path class="st9" d="M1208.67,158.3c0-1.62.44-2.76,1.33-3.42.89-.65,1.96-.98,3.22-.98s2.28.33,3.17.98c.89.66,1.33,1.79,1.33,3.42s-.45,2.67-1.33,3.37c-.89.69-1.95,1.04-3.17,1.04s-2.33-.35-3.22-1.04c-.89-.69-1.33-1.81-1.33-3.37Z"/>
    <path class="st9" d="M1239.28,162v-37.83h8.02v31.21h15.35v6.62h-23.37Z"/>
    <path class="st9" d="M1280.79,156.23c.86,0,1.7-.09,2.52-.26.82-.17,1.63-.39,2.45-.65v5.87c-.85.38-1.89.7-3.14.95-1.25.25-2.62.38-4.1.38-1.73,0-3.27-.28-4.65-.84-1.37-.56-2.45-1.54-3.24-2.92s-1.18-3.33-1.18-5.81v-13.95h-3.78v-3.34l4.35-2.64,2.28-6.11h5.05v6.16h8.1v5.93h-8.1v13.95c0,1.1.31,1.93.94,2.47.63.54,1.46.81,2.5.81Z"/>
    <path class="st9" d="M1300.77,162.52c-3.23,0-5.85-1.26-7.88-3.79-2.03-2.53-3.04-6.24-3.04-11.14s1.03-8.7,3.08-11.25c2.05-2.54,4.74-3.82,8.05-3.82,1.38,0,2.6.19,3.65.57,1.05.38,1.96.89,2.73,1.53.77.64,1.42,1.35,1.95,2.15h.26c-.1-.55-.23-1.37-.38-2.45-.15-1.08-.22-2.19-.22-3.33v-9.26h7.92v40.27h-6.05l-1.53-3.75h-.34c-.5.79-1.13,1.51-1.88,2.16-.75.65-1.64,1.16-2.68,1.54s-2.25.57-3.65.57ZM1303.54,156.23c2.16,0,3.68-.64,4.57-1.93.89-1.29,1.36-3.22,1.41-5.81v-.85c0-2.81-.43-4.96-1.29-6.46-.86-1.49-2.47-2.24-4.81-2.24-1.74,0-3.11.75-4.09,2.25s-1.48,3.67-1.48,6.5.5,4.96,1.49,6.39c.99,1.43,2.39,2.15,4.21,2.15Z"/>
    <path class="st9" d="M1324.03,158.3c0-1.62.44-2.76,1.33-3.42.89-.65,1.96-.98,3.22-.98s2.28.33,3.17.98c.89.66,1.33,1.79,1.33,3.42s-.45,2.67-1.33,3.37c-.89.69-1.95,1.04-3.17,1.04s-2.33-.35-3.22-1.04c-.89-.69-1.33-1.81-1.33-3.37Z"/>
  </g>
  <g>
    <path class="st15" d="M67.09,95.1c7.38-.21,12.01,7.88,8.3,14.22-3.39,5.78-11.61,6.12-15.54.71-4.37-6.02-.22-14.72,7.24-14.93Z"/>
    <path class="st0" d="M151.02,130.54c9.29-.91,14.01,10.74,6.86,16.66-5.18,4.29-13.17,1.57-14.84-4.87-1.42-5.49,2.26-11.24,7.98-11.8Z"/>
    <path class="st13" d="M81.73,130.34c7.17-.03,11.62,7.81,8.13,14.04-3.73,6.67-13.52,6.2-16.59-.79-2.71-6.16,1.69-13.22,8.46-13.25Z"/>
    <path class="st12" d="M116.32,144.98c7.53-.42,12.32,8.03,8.36,14.4-3.78,6.09-12.88,5.73-16.15-.64s.99-13.38,7.79-13.76Z"/>
    <path class="st3" d="M165.56,95.64c9.44-.96,14.2,10.67,6.97,16.66-5.81,4.82-14.67.68-15.13-6.73-.3-4.8,3.31-9.44,8.16-9.93Z"/>
    <path class="st14" d="M179.04,63.62c-.34,1.85-1.86,2.9-2.04,4.89-.43,4.75,5.24,6.57,6.52,1.24.88-3.68-.06-8.11,3.86-10.36s7.19.12,9.03,3.5c.33.61,1.67,3.69,1.58,4.19s-2,1.73-2.49,2.04c-.44.28-1.49,1.15-1.58.13-.07-.71,1.32-1.95,1.62-2.89,1.42-4.44-4.68-6.81-6.12-2.56-1.31,3.86.71,9.92-4.37,12-5.04,2.07-9.31-3.35-10.15-7.77-.36-1.89.21-2.34,1.62-3.45.7-.55,1.6-1.39,2.52-.96Z"/>
    <path class="st4" d="M39.72,100.16c4.89-.67,5.9,6.1,1.65,7.25-5.06,1.37-6.45-6.59-1.65-7.25Z"/>
    <path class="st4" d="M189.37,100.16c5.4-.84,5.91,7.24.83,7.41-4.56.15-5.07-6.75-.83-7.41Z"/>
    <g>
      <g>
        <path class="st4" d="M84.65,171.76c.31-.83,1.58-2.93,1.23-3.73-.18-.4-.82-.41-.67-1,.24-.24,2.29.85,2.7,1.02.36.16,2.08.67,2.15.97.12.56-1.15.1-1.51.45-.26.26-1.05,2-1.27,2.47-.39.83-.79,1.77-1.14,2.63-.23.57-1.11,2.52-1.13,2.97-.02.53,1.02.81.86,1.44-.24.24-2.09-.75-2.48-.91s-2.39-.84-2.47-1.09c-.18-.6,1.07-.24,1.45-.47.32-.19,1.8-3.3,1.78-3.62l-.11-.22c-.32-.09-.6-.26-.9-.4-.76-.36-2.35-1.13-3.09-1.33-.17-.05-.39-.11-.55,0s-1.37,3.18-1.39,3.47c-.04.5,1.37,1.46.68,1.65-.26.07-1.94-.82-2.34-.98-.6-.25-1.31-.45-1.87-.72-.29-.14-.71-.27-.79-.61-.07-.43.86-.15,1.03-.15.77-.03,1.13-.99,1.44-1.59,1.06-2.05,1.87-4.26,2.8-6.37.14-.64-.49-.97-.84-1.37-.04-.16.13-.25.27-.27.33-.05,1.9.8,2.35.99.41.18,2.12.69,2.21,1.02.16.6-.81.26-1.07.3-.23.04-.45.2-.58.39-.18.25-1.24,2.51-1.3,2.8-.04.16-.1.27,0,.43.14.22,3.98,1.66,4.57,1.82Z"/>
        <path class="st4" d="M98.45,171.25c.05.45-.3,2.58-.8,2.58l-.25-.18c-.01-1.51-.43-1.81-1.74-2.24-.26-.09-1.3-.44-1.45-.28-.16.18-1.27,3.94-1.13,4.1l2.31.54c.42-.04.82-1.05,1.35-.97l-.74,3.28c-.93.29-.25-.94-1.05-1.43-.37-.23-1.91-.75-2.18-.38-.18.24-.79,2.63-.84,3.03-.15,1.14.5,1.15,1.46,1.4.9.23,1.48.39,2.36-.06.61-.31.98-1.11,1.65-1.1.3.3-1.04,2.27-1.4,2.53l-8.61-2.27c.18-.56.9-.3,1.32-.4.75-.16,1.21-2.28,1.42-2.99.37-1.24,1.31-4.19,1.35-5.33.05-1.21-.92-.76-1.08-1.67l8.07,1.84Z"/>
        <path class="st4" d="M70.56,157.01c-.12.82.82,1.31,1.41,1.77,1.4,1.1,3.23,2.42,4.74,3.34.61.37,1.3.88,2.04.82.15.7-.49.84-.87,1.24-.2.21-1.41,1.85-1.41.76,0-.49.57-.97.27-1.67-.09-.2-1.63-1.25-1.89-1.34-.15-.05-.27-.12-.42,0-.91,1.31-1.89,2.58-2.78,3.9-.37.55-2.09,2.97-2.07,3.42.02.42,1.41,1.77.6,1.79-.24,0-2.42-1.72-2.85-2.01-.37-.26-2.06-1.12-2.07-1.49,0-.6,1.19.08,1.54.03.16-.02.49-.23.62-.35.7-.63,1.94-2.51,2.56-3.36.85-1.17,1.68-2.35,2.48-3.56.03-.2-1.57-1.35-1.9-1.41-.89-.16-1.47.45-2.29.62-.15-.38-.06-.46.16-.76.18-.24,1.25-1.38,1.46-1.55.19-.16.4-.19.64-.17Z"/>
      </g>
      <g>
        <path class="st4" d="M156.86,160.25c.08.63-.65.75-.52,1.43.12.61,1.69,2.91,2.13,3.59.35.53,2.2,3.31,2.53,3.5.52.3.99-.22,1.39-.1.45.13.01.54-.15.68-.48.4-2.89,2.07-3.4,2.31-.17.08-.31.18-.51.12l-.16-.25c.1-.32.6-.67.63-.99.04-.36-1.71-3.33-1.96-3.48-.16-.09-.33.01-.47.08-1.11.53-2.28,1.72-3.43,2.28l-.18.26c-.02.16.07.28.13.41.16.34,1.6,2.41,1.85,2.62.57.5,1.08-.12,1.62.05.19.09.19.13.13.32-.09.32-1.83,1.27-2.23,1.54-.44.29-1.74,1.48-2.18,1.35l-.16-.25c1.08-1.27.51-1.77-.18-2.97-1.06-1.84-2.38-3.62-3.56-5.39-.49-.66-1.71.52-1.67-.48.55-.24,3.91-2.71,4.15-2.66.59.12-.58,1.04-.44,1.62.06.23,1.49,2.58,1.67,2.75.09.08.15.16.28.16l3.92-2.66c.05-.21-1.57-2.54-1.83-2.78-.61-.53-.85-.08-1.54-.07l-.16-.24c.03-.33,1.91-1.39,2.33-1.66.31-.2,1.68-1.39,1.97-1.1Z"/>
        <path class="st4" d="M129.71,174.68c0,.77.21,1.53.36,2.28.16.81.81,4.34,1.33,4.71.25.18,2.19.34,1.15.85-.15.07-3.04.77-3.22.77-.12,0-.24.02-.32-.1l-.03-.42c.87-.31,1.1-.67,1.07-1.58-.05-1.53-.73-4.86-1.12-6.43-.14-.56-.21-1.3-.9-1.47-.25-.06-1.39.04-1.21-.5.05-.15.37-.2.51-.24.44-.14,2.39-.53,2.74-.44.38.1,2.33,1.74,2.85,2.11,1.5,1.07,3.05,2.09,4.56,3.14.05-.45-.08-.86-.16-1.29-.18-.92-.65-3.27-1.05-4.01-.44-.82-1.24-.32-1.64-.61-.28-.2.02-.48.28-.58.41-.16,2.19-.62,2.65-.69.21-.03.94-.11.73.3-.5.46-1.04.65-1.03,1.45.39,2.08.76,4.16,1.22,6.22.12.52.82,2.7.67,2.99-.08.16-.25.23-.42.22-.47-.03-2.64-1.99-3.2-2.41-1.91-1.46-3.86-2.86-5.81-4.27Z"/>
        <path class="st4" d="M171.08,146.35c.04.9-.49,1.16.11,1.99.92,1.28,3.54,3.61,4.79,4.8.33.31,1.62,1.2,1.66,1.58-.05.29-.3.44-.57.47-1.05.14-2.19-.1-3.23-.12-2.36-.03-4.71.15-7.06.11-.13.1,1.72,1.89,1.88,2.05.51.49,2.31,2.27,2.8,2.48.88.38,1.03-.3,1.53-.33.46-.03.39.24.2.53-.33.51-1.45,1.85-1.88,2.32-.09.1-.33.41-.48.38-.42-.39.17-.98.16-1.46,0-.24-.13-.43-.24-.63-.35-.63-4.26-4.7-4.93-5.19-1.05-.78-1.36.24-2.1.28-.36.02-.09-.5,0-.65.18-.29,1.22-1.45,1.5-1.73.19-.19.31-.32.59-.38,1.14-.27,3.59,0,4.91-.04.23,0,.43-.1.64-.11.95-.04,1.91,0,2.85-.11.05-.19-.08-.22-.16-.32-.27-.36-.84-.86-1.18-1.19-.38-.36-2.1-1.97-2.43-2.09-.79-.29-1.1.54-1.83.48l.12-.58c.69-.48,1.33-2,1.87-2.44.17-.14.28-.13.48-.11Z"/>
        <path class="st4" d="M125.7,173.1c.21-.01.86-.05.77.34-.06.28-1.31.25-1.48,1.21-.23,1.27.14,3.03.09,4.4-.15,3.58-1.58,5.88-5.52,5.41-4.33-.52-3.57-5.04-3.86-8.21-.03-.36-.09-1.26-.2-1.52-.24-.55-1.1-.29-1.3-.85.1-.43,2.47-.25,2.96-.27s2.06-.42,2.27,0c.25.5-1.11.43-1.24,1.25.02,1.65-.04,3.42.1,5.06.19,2.28,1.16,3.56,3.61,3.28,1.99-.23,2.25-2.19,2.32-3.82.05-1.11-.02-2.77-.11-3.88-.04-.41-.14-1.1-.5-1.33-.4-.26-1.18-.18-1.33-.71.06-.28,1.84-.14,2.21-.16s.84-.16,1.22-.18Z"/>
        <path class="st4" d="M178.3,141.5c.6-.07.96.5,1.41.8.2.13,2.03.98,1.21,1.24-.37.11-.8-.29-1.28,0-.17.1-1.12,1.63-1.11,1.77.01.16.16.28.27.38.19.17,2.45,1.67,2.6,1.71.13.04.26.05.4.03.39-.07,1.36-1.91,1.43-2.34.19-1.14-.52-1.69-.62-2.72.39-.39,1.72,1.62,1.92,1.91l-4.02,7.25c-.6.12.12-1.68-.32-1.94-.91-.74-1.86-1.45-2.82-2.14-.61-.43-3.07-2.2-3.59-2.34-1.02-.28-.82.58-1.62.6-.07-.39.11-.65.27-.97.69-1.46,1.86-3.09,2.66-4.56.27-.5.43-1.53,1.03-1.28.14.06,1.4.9,1.49.99.14.16.21.25.15.48-.11.35-.79-.03-1.12-.05-1.22-.06-1.52,1.37-2.11,2.22,0,.1.05.15.1.22.11.14,2.53,1.85,2.77,1.97.13.06.24.16.4.12.15-.04,1.01-1.56,1.04-1.78.08-.67-.54-.92-.54-1.55Z"/>
        <path class="st4" d="M141.99,176.95c.27-.19,1.49.95,1.84,1.12,2.62,1.26,4.54-1.79,1.77-2.95-1.75-.73-4.23-.53-5.14-2.62-1.35-3.11,2.03-4.79,4.59-5.11.22.04.98,1.37,1.06,1.62.52,1.64-1.22-.21-1.66-.39-1.47-.58-3.1.79-2.37,2.26.58,1.18,3.23,1.21,4.42,1.62,2.97,1.03,3.11,4.24.55,5.89-.92.59-3.31,1.53-4.19.66-.25-.25-1.23-1.84-.86-2.1Z"/>
        <path class="st4" d="M112.36,175.98c-.81-.12-.75-1.13-1.3-1.66-1.59-1.52-4.17.55-2.53,2.31s4.69,1.97,4.25,5.21c-.35,2.59-4.73,3.36-6.56,2.16-.63-.41-1.08-2.64-.48-2.74.95.68.96,1.81,2.17,2.34,1.77.76,3.42-.81,2.13-2.45-1.07-1.36-3.51-2.07-4.01-3.96-.55-2.07.89-3.78,2.95-4,.67-.07,2.38-.02,2.98.23.5.21.54,2.04.4,2.56Z"/>
        <path class="st4" d="M158.47,159.17c-.34-.31,1.53-1.6,1.72-1.78.33-.3,1.9-1.95,2.2-1.89.54.59-.75,1.12-.24,1.86,1.08,1.35,2.2,2.69,3.37,3.96.39.43,1.69,1.95,2.11,2.09.77.26,1.14-.41,1.65-.25l.16.24c-.03.32-1.48,1.33-1.82,1.63-.53.47-1.26,1.3-1.78,1.67-.16.12-.31.24-.53.21-.45-.36.23-.8.27-1.23.03-.32-.07-.51-.2-.78-.5-.97-3.18-3.84-4.06-4.77-.29-.3-1.03-1.13-1.37-1.22-.48-.13-.94.41-1.48.25Z"/>
      </g>
    </g>
    <g>
      <path class="st15" d="M129.6,135.14c2.16,1.2,5.05,3.53,6.68,5.39,3.29,3.76,5.64,9.44,6.34,14.4.26,1.88.5,3.99-.96,5.48-1.82,1.86-5.45,1.18-6.57-1.13-.56-1.17-.39-2.3-.54-3.5-.54-4.34-2.71-8.59-5.92-11.48-4.87-4.37-10.7-5.83-17.1-4.01-2.39.68-4.5,1.87-6.38,3.48.2-3.02-.19-6.05-1.08-8.94,3.04-1.54,6.34-2.55,9.75-2.91,5.38-.57,11.06.6,15.78,3.23Z"/>
      <path class="st11" d="M104.06,134.82c.89,2.89,1.27,5.92,1.08,8.94-.39,5.93-2.96,11.59-6.9,16-2.01,2.25-5.12,2.13-6.66-.56-.79-1.38-.89-2.48-.13-3.91.66-1.25,2.18-2.67,3.04-3.91,2.18-3.14,3.08-7.03,2.89-10.85-.26-5.09-2.29-8.43-5.87-11.85-2.27-2.17-7.42-5.01-10.62-4.63,0-.21.15-.3.27-.43,1.99-2.16,3.8-3.93,5.23-6.57,3.1.79,6.06,2.45,8.56,4.42,4.48,3.54,7.43,7.87,9.11,13.35Z"/>
      <path class="st3" d="M172.8,79.98c1.13,1.18,1.14,1.97.81,3.56s-.97,2.96-2.64,3.34-3.4.31-5.08.68c-3.56.78-7.18,2.94-9.57,5.68-5.04,5.78-5.49,14.65-1.49,21.15l1.59,2.34c-2.71-.26-5.97-.12-8.62.54-1.16-2.01-2.22-4.35-2.83-6.6-1.55-5.72-.38-13.4,2.61-18.51,1.52-2.59,3.82-5.11,6.14-7,4.23-3.46,8.7-5.57,14.22-5.82,1.35-.06,2.65-.1,3.96.29.3.09.59.25.89.35Z"/>
      <path class="st10" d="M156.43,116.72c2.9.28,6.03,1.18,8.69,2.35,1.6.7,5.49,2.58,6.66,3.68.64.6,1.72,1.82,2.01,2.62,1.19,3.35-2.72,6.47-5.84,4.92-1.19-.59-2.02-1.77-3.09-2.57-3.05-2.26-7.66-3.64-11.45-3.47-5.14.23-10.58,3.1-13.56,7.29-1.88,2.65-3.32,5.7-3.58,8.98-1.63-1.86-4.52-4.19-6.68-5.39,1.48-4.27,3.69-8.57,7.05-11.64,2.92-2.66,7.3-5.29,11.15-6.25,2.65-.65,5.91-.8,8.62-.54Z"/>
      <path class="st9" d="M156.32,93.23c2.39-2.74,6-4.9,9.57-5.68,1.68-.37,3.48-.31,5.08-.68-3.81,3.79-9.28,6.05-14.65,6.36Z"/>
      <path class="st1" d="M91.46,155.29c-.08-2.68.66-5.31,1.67-7.75s2.44-5.06,4.25-7.01c.19,3.82-.7,7.71-2.89,10.85-.86,1.24-2.38,2.66-3.04,3.91Z"/>
      <g>
        <path class="st12" d="M86.72,91.73c.44,1.1,1,2.16,1.4,3.28,2.63,7.34,1.98,15.19-1.73,22.03-1.43,2.64-3.24,4.41-5.23,6.57-.12.13-.27.22-.27.43-.12.01-.19,0-.32.06-.28.14-1.1.95-1.48,1.22-3.94,2.78-10.73,5.57-15.6,5.08-4.03-.4-4.41-6.05-1.13-7.65,1.81-.89,4.36-.79,6.36-1.24,3.5-.78,6.11-2.69,8.51-5.23,3.92-4.15,5.2-7.86,4.51-13.62-.45-3.74-1.86-7.33-4.3-10.19l3.4.11c1.99-.15,3.94-.36,5.87-.87Z"/>
        <path class="st7" d="M77.24,116.29c-2.4,2.54-5.01,4.44-8.51,5.23-2,.45-4.54.35-6.36,1.24.54-.75,1.45-1.48,2.23-2.03,3.57-2.54,8.33-3.92,12.64-4.44Z"/>
      </g>
      <path class="st5" d="M167.95,130.3c-4.08-.42-7.92-1.45-11.41-3.62-1.09-.68-2.27-1.48-3.13-2.41,3.8-.17,8.41,1.2,11.45,3.47,1.07.79,1.9,1.97,3.09,2.57Z"/>
      <path class="st2" d="M135.09,159.28c-.72-.6-1.32-1.53-1.81-2.34-.71-1.17-1.52-2.69-2.12-3.91-1.33-2.7-2.35-5.7-2.53-8.73,3.22,2.89,5.39,7.13,5.92,11.48.15,1.2-.02,2.33.54,3.5Z"/>
      <path class="st9" d="M172.8,79.98c-.3-.1-.58-.26-.89-.35-1.31-.39-2.62-.35-3.96-.29,1.7-.85,3.52-.75,4.85.65Z"/>
      <g>
        <path class="st3" d="M99,49.82c.45,1.35.4,3.37.7,4.85.73,3.68,2.9,7.58,5.55,10.12,6.28,6.04,17.33,6.67,23.7.43-.23,2.95.07,6.08.86,8.94-1.87.99-3.83,1.8-5.88,2.36-6.29,1.73-13.85.73-19.55-2.47-2.55-1.43-4.67-3.49-6.68-5.49-3.2-4.26-6.07-9.85-6.14-15.3-.02-1.48.06-3.07.97-4.31,1.19-1.62,3.33-1.66,4.99-.73.53.3,1.28,1.02,1.48,1.6Z"/>
        <path class="st2" d="M99,49.82c3.84,3.96,5.68,9.55,6.25,14.98-2.65-2.55-4.82-6.44-5.55-10.12-.3-1.48-.25-3.51-.7-4.85Z"/>
        <path class="st2" d="M91.57,53.26c-.71-1.35-.38-3.48.97-4.31-.91,1.24-.99,2.83-.97,4.31Z"/>
      </g>
      <g>
        <path class="st9" d="M140.16,48.09c1.07.38,1.61.74,2.24,1.69.85,1.27.95,2.27.34,3.7-.54,1.27-1.92,2.44-2.74,3.56-2.17,2.97-3.44,7.79-3.19,11.41.23,3.33,1.35,6.46,3.21,9.24,2.95,4.41,8.3,7.65,13.71,7.46-2.32,1.9-4.62,4.41-6.14,7-4-1.28-8.06-3.36-10.99-6.41-3.11-3.24-5.58-7.23-6.78-11.58-.79-2.86-1.09-5.99-.86-8.94.42-5.53,2.7-11.66,6.9-15.41,1.18-1.05,2.67-1.91,4.31-1.72Z"/>
        <path class="st5" d="M136.82,68.46c-.25-3.62,1.02-8.44,3.19-11.41.82-1.12,2.19-2.29,2.74-3.56-.1,5.47-2.4,10.86-5.93,14.98Z"/>
        <path class="st5" d="M140.16,48.09c-1.64-.18-3.13.67-4.31,1.72.78-1.43,2.17-2.15,3.82-1.93.26.03.34.15.49.21Z"/>
      </g>
      <g>
        <path class="st0" d="M97.71,68.56c2.01,2.01,4.13,4.06,6.68,5.49-.91,3.24-2.28,6.67-4.52,9.21-3.39,3.85-8.15,7.14-13.15,8.45-1.93.51-3.88.72-5.87.87l-3.4-.11c-4.35-.61-8.86-2.05-12.6-4.37-2.37-1.47-5.81-3.78-4.45-7.01.78-1.85,3.89-3.1,5.73-2.3,1.25.55,2.99,2.34,4.32,3.17,2.79,1.73,7.04,3,10.33,2.97,2.91-.02,6.3-1.31,8.72-2.86,4.43-2.85,8.15-8.1,8.2-13.51Z"/>
        <path class="st1" d="M80.79,84.94c-3.29.02-7.54-1.24-10.33-2.97-1.33-.83-3.07-2.62-4.32-3.17,2.6-.04,5.15.8,7.51,1.81,2.52,1.08,5.09,2.53,7.15,4.33Z"/>
      </g>
    </g>
    <g>
      <path class="st0" d="M81.74,59.98c4.19-.21,8.17,2.64,9.34,6.65,2.41,8.27-6.47,15.3-13.83,10.71-7.71-4.8-4.63-16.9,4.49-17.36Z"/>
      <path class="st3" d="M116.11,45.65c7.83-.76,13.07,7.73,8.9,14.4s-14.99,5.14-16.91-2.79c-1.31-5.4,2.4-11.06,8-11.6Z"/>
      <path class="st9" d="M151.45,60.41c7.41-.59,12.45,7.42,8.87,13.94-3.22,5.87-11.57,6.49-15.58,1.1-4.38-5.89-.64-14.46,6.7-15.04Z"/>
      <g>
        <path class="st6" d="M171.69,32.59c.2-.05.37,0,.55.07.42.18,1.7,1.93,2.13,2.4,2.99,3.28,6.75,6.33,7.76,10.88,1.99,8.99-7.47,15.51-15.36,11.05-3.33-1.88-7.47-7.19-9.8-10.35-.23-.31-1-1.23-.43-1.51,1.31-.06,1.51,1.48,3.02,1.08.89-.23,3.6-2.58,4.46-3.29,1.98-1.64,6.39-5.09,7.75-7.01.4-.57.48-.88.28-1.56-.09-.33-.95-1.57-.37-1.76ZM175.79,39.06c-.42.07-3.59,2.78-4.17,3.27-2.03,1.69-4.19,3.5-6.14,5.28-.99.9-2.57,1.98-2.46,3.43.24,3.15,4.41,4.26,7.02,3.81,6.01-1.04,11.58-7.86,7.99-13.86-.36-.6-1.45-2.06-2.23-1.93Z"/>
        <path class="st14" d="M137.9,35.81c.2-.19-.91-3.13-1.08-3.61-.78-2.2-1.65-4.38-2.59-6.51-.38-.26-.59.75-.67.99-.69,2.09-1.14,4.27-1.7,6.39-.03,1.08,2.04,1.73,1.93,2.35-.08.42-1.06.3-1.39.24-1.07-.2-2.54-.87-3.66-1.19-.88-.25-3.92-.84-4.46-1.25-.39-.31-.39-.66.09-.85.78-.32,1.8.32,2.6-.53.56-.59,1.09-2.44,1.37-3.26.86-2.59,1.67-5.42,2.4-8.06.31-1.12,1.18-3.77,1.02-4.79-.02-.13-.06-.21-.12-.32-.21-.41-2.48-1.57-1.26-1.94.62-.19,3.35.93,4.18,1.17.87.25,3.99.9,4.47,1.35,1.08,1-1.62.8-2,.91-.7.22-1.2,2.2-1.42,2.89-.53,1.62-.91,3.29-1.46,4.9l.16.24c.32.1,1.47-.45,1.83-.62.74-.34,1.54-.79,2.26-1.19.8-.44,5.46-3.1,5.62-3.65.26-.88-2.7-1.83-1.17-2.25.4-.11,2.81.74,3.43.9,1.12.29,2.39.5,3.47.84.46.15,1.27.28,1.03.92-.73.44-1.58.07-2.37.1-1.39.06-3.16.81-4.44,1.38-.64.29-5.43,2.7-5.52,3,.63,2.07,1.47,4.08,2.31,6.07.69,1.65,2.43,6.12,3.55,7.22.25.25,3.14,1.8,1.39,2.04-.76.11-5.28-1.72-6.43-2.07-.79-.24-2.34-.44-2.96-.81-1.32-.78,1.05-1.09,1.59-.99Z"/>
        <path class="st6" d="M157.57,23.54c.44-.15,1,.22,1.36.44.95.57,1.88,1.42,2.82,2.03.85.55,3.79,2.07,4.2,2.7.91,1.41-1.78.32-2.15.31-1.06-.03-1.53.84-2.08,1.59-2.24,3.04-4.96,7.16-6.79,10.45-.45.81-1.12,1.76-.83,2.73.09.31,2.14,2.41.87,2.47-.55.03-3.7-2.43-4.42-2.9s-3.85-2.17-4.09-2.69c-.61-1.32,1.85-.31,2.34-.34.35-.03.84-.28,1.11-.52.93-.82,2.53-3.5,3.31-4.66,1.27-1.87,2.62-3.87,3.79-5.8.47-.78,1.62-2.44,1.58-3.28,0-.18-.04-.29-.09-.45-.12-.35-1.68-1.81-.92-2.06Z"/>
      </g>
      <g>
        <path class="st6" d="M106.4,27.76c-.13-.14-.55-.36-.76-.35-1.61.38-3.47.42-5.05.89-.19.06-.38.06-.51.25-.21.31-.58,2.43-.64,2.91-.11.96-.34,2.32.77,2.76.5.2,1.98.09,1.91.78-.04.41-.71.52-1.04.58-.94.18-2.01.21-2.97.37-.8.13-2.7.73-3.35.59-.46-.1-.43-.33-.35-.73l-7.67,3.63-.36-.13c-.49-.54,1.04-1.39.96-1.82l-.14-.18c-3.1-1.63-6.19-3.3-9.48-4.52l-.15.25c1.07,2.34,2.34,4.59,3.64,6.81.82.76,2.57-.4,2.97.38.15.29-.41.74-.63.88-1.06.7-2.68,1.26-3.85,1.86-.75.39-3.36,2.06-3.94,2.1-.2.01-.45-.13-.58-.06-.11.07-.82,1.12-1.02,1.35-.9,1-2.27,2.21-3.61,2.53-1.54.38-4.42-.4-6.06-.74-1.09-.22-3.81-1.09-4.72-.88-.72.16-1.37.6-.76,1.3.71.8,2.07,1.95,2.91,2.69.68.6,2.3,2.18,3.17,2.09.57-.05,2.77-1.77,2.28-.1-.22.74-2.61,2.67-3.29,3.39-.56.58-2.46,3.13-2.99,3.26-1.19.31-.22-1.38-.09-1.81.22-.72.27-1-.17-1.65-.61-.9-2.12-2.28-2.94-3.09-2.26-2.22-5.19-5.08-7.65-7-.75-.59-1.04-.93-2.1-.71-.48.1-1.93,1.35-2.13.52-.16-.66,1.73-2.31,2.19-2.83,2.94-3.32,8.09-11.05,13.09-6.41,1.24,1.15,1.57,2.77,1.4,4.42-.03.31-.5,1.52-.26,1.68,1.4.39,2.81.74,4.23,1.03,1.87.38,5.05,1.18,6.81.52.44-.16,1.15-.73,1.48-.79.3-.05.55.14.78.04.24-.11.89-.93.95-1.21.21-1.02-.73-2.76-1.18-3.73-1.38-2.96-3.1-6.35-4.71-9.19-.33-.59-1.17-2.22-1.7-2.5-.71-.37-1.54.12-2.25-.02-.8-.16-.05-.86.3-1.09,1.12-.74,3-1.43,4.28-2.08.72-.36,2.49-1.57,3.18-1.57.13,0,.26,0,.38.06.38.89-1.13,1.34-1.28,2.19-.1.6.68,2.15.97,2.76.74,1.58,1.71,3.06,2.36,4.7.43.06.6-.36.77-.68.59-1.15,1.13-3.03,1.52-4.3s1.36-4.2,1.36-5.32c0-1.5-3.2.32-2.5-1.09.21-.42,2.28-1.29,2.83-1.59.78-.43,3.75-2.32,4.37-2.32.12,0,.25,0,.33.11.09.18.07.36,0,.54-.16.34-1.36,1.2-1.72,1.62-2.08,2.36-2.93,6.55-4.02,9.46-.04.12-.03.23.03.35.16.32,5.57,2.7,6.34,3.04,1.53.66,5.57,2.58,7.02,2.57.74,0,3.12-.99,2.48.53,1.18-.7,1.57-2.29,1.94-3.55,1.41-4.76,2.12-9.86,3.45-14.65.56-.81,1.13-2.19,1.73-2.91.14-.17.31-.3.54-.32.33,0,.86,1.03,1.04,1.33,1.96,3.27,3.66,6.92,5.57,10.27.91,1.6,2.88,5.56,4.29,6.48.53.35,2.18.52,2.29.84.2.63-.84.79-1.26.87-1.33.24-2.71.29-4.05.48-.88.12-3.87.88-4.49.58-.23-.11-.27-.37-.16-.59.32-.69,1.94-.44,1.78-1.89-.05-.47-1.76-3.86-2.08-4.22ZM101.97,19.54c-.14.1-.19.25-.24.41-.4,1.29-1.13,4.6-1.21,5.9-.03.48-.08.72.48.7,1.32-.05,2.9-.65,4.27-.7.29-.19-.06-.7-.17-.92-.74-1.54-1.91-3.71-2.84-5.14-.07-.1-.12-.29-.29-.25ZM54.37,39.29c-.63.09-1.37.42-1.81.89-1.08,1.13-.65,1.49.22,2.48,1.03,1.18,2.69,2.72,3.88,3.77.48.43,1.01,1.11,1.57.6.76-.7,1.73-2.46,1.66-3.5-.16-2.59-3.03-4.57-5.52-4.23Z"/>
        <path class="st14" d="M54.09,68.55c-.44-.85.64-1.76-.11-2.52-.4-.4-1.76-.63-2.36-.77-.65-.15-2.74-.68-3.22-.32-.1.07-.82,1.21-.98,1.44-.67.99-1.26,2.05-1.91,3.05-.05.12-.05.23-.03.35.11.56,2.79,3.3,3.43,3.48,1.32.36,2.26-1.56,2.92-1.09.23.16.07.63-.02.85-.3.68-1.35,1.88-1.82,2.6-.38.58-1.45,2.69-1.94,2.91-.18.08-.36.1-.54,0-.28-.78.27-1.42.23-2.27-.05-1.18-1.41-2.85-2.12-3.81-2.65-3.59-5.66-6.93-8.39-10.47-.22-.35-1.13-2.82-1.2-3.22-.14-.8.61-.69,1.18-.64,3.03.28,6.95,1.43,10.07,2,2.52.46,5.89,1.31,8.37,1.43.96.05,1.84-.06,2.67-.56.3-.18,1.54-1.4,1.57-.25.01.58-2.19,3.32-2.66,4.01-.65.95-1.48,2.64-2.19,3.41-.25.27-.55.48-.94.38ZM46.74,64.15l-7.1-1.3c-.09.08.25.49.33.59.77,1.03,1.78,2.21,2.64,3.18.25.29,1.24,1.48,1.52,1.51.13.01.24,0,.32-.12l2.26-3.45.05-.42Z"/>
      </g>
    </g>
    <g>
      <path class="st4" d="M63.34,154.64c-.06-.54.42-.84.51-1.37.11-.67-.07-.94-.42-1.46-.19-.28-1.12-1.43-1.41-1.35l-3.08,2.65c-.05.13.02.21.09.31.09.14,1.31,1.46,1.41,1.5.64.29,1.21-.45,1.72,0,.05.26-1.16,1.08-1.4,1.29-.22.19-1.33,1.6-1.4.75-.05-.57.72-.74.24-1.64-.08-.15-1.08-1.41-1.17-1.44-.11-.03-.28,0-.38.03-.22.07-2.53,2.15-2.67,2.39-.35.59.7,1.7,1.13,2.11,1.17,1.12,2.05.67,3.51.64.37.39-1.05.98-1.33,1.1-.52.22-1.06.58-1.55.16-1.25-1.46-2.47-2.95-3.75-4.38-.22-.25-2.06-1.88-1.78-2.15.72-.13,1.04.63,1.77.54.3-.04,1.4-.93,1.73-1.19,1.68-1.3,3.26-2.89,4.85-4.31.44-.6-.06-1.1-.26-1.66.1-.14.19-.19.37-.17.46.05,4.57,5.33,5.43,5.9.05.17.02.27-.08.42-.04.05-.91.81-1.03.9-.31.24-.59.53-1.02.43Z"/>
      <path class="st4" d="M57.16,146.2c-.87.87-1.98.8-3.09.47.23,1.31-.02,2.51-1.15,3.32-1.87,1.34-3.84.06-5.1-1.44-.62-.74-2.65-3.63-3-4.43-.11-.24-.16-.41-.12-.68.96.12.84,1.04,2.02.67.9-.28,3.57-2.2,4.48-2.84.56-.4,1.83-1.19,2.23-1.65.5-.58-.05-1.09-.1-1.71l.46-.16c.9,1.4,2.06,2.65,2.96,4.05.85,1.31,1.77,3.06.41,4.41ZM55.13,141.42l-2.98,2.1c-.1.38.97,1.35,1.31,1.46,1.56.51,3.12-1.05,2.72-2.61-.11-.44-.51-1.08-1.05-.94ZM51.24,144.11c-.23.05-2.91,1.98-3.08,2.2-.39.52-.33,1.41.21,1.81,1.33,1,3.69-.21,3.95-1.74.11-.66-.15-2.47-1.08-2.27Z"/>
    </g>
  </g>
</svg>