<?xml version="1.0" encoding="UTF-8"?>
<svg id="Layer_1" xmlns="http://www.w3.org/2000/svg" version="1.1" viewBox="0 0 714.72 393.25">
  <!-- Generator: Adobe Illustrator 29.5.0, SVG Export Plug-In . SVG Version: 2.1.0 Build 137)  -->
  <defs>
    <style>
      .st0 {
        fill: #fbfcf7;
      }

      .st1 {
        fill: #f08525;
      }

      .st2 {
        fill: #fcfdfa;
      }

      .st3 {
        fill: #fcfdf9;
      }

      .st4 {
        fill: #a35a45;
      }

      .st5 {
        fill: #a3c73a;
      }

      .st6 {
        fill: #a35945;
      }

      .st7 {
        fill: #fefbf8;
      }

      .st8 {
        fill: #a45b47;
      }

      .st9 {
        fill: #ef811f;
      }

      .st10 {
        fill: #a25944;
      }

      .st11 {
        fill: #fefaf7;
      }

      .st12 {
        fill: #a35944;
      }
    </style>
  </defs>
  <path class="st10" d="M69.96,233.98c21.99,1.78,22.33,19.89,20.92,37.87-.82,10.38-6.8,15.88-16.38,18.75,6.28,2.3,13.45,6.82,15.46,13.62,1.7,5.75,1.44,26.11.02,32.14-3.27,13.8-15.11,15.18-27.26,15.75-17.3.8-42.41,1.34-59.42,0-1.17-.09-2.19-.36-3.3-.64v-23.92c2.31-2.51,6.57.62,8.48-1.21v-67.53H0v-23.92l.91-.91h69.05,0ZM59.36,258.81h-19.38v22.41h19.38v-22.41ZM59.36,302.41c-.77.33-1.79-.61-2.12-.61h-16.35l-.91.91v24.53h19.38v-24.83h0Z"/>
  <path class="st6" d="M343.43,273.95v8.48c2.51.39,2.97-2.22,4.51-3.66,1.75-1.63,3.9-2.97,5.6-4.69,7.81.43,22.57-2.61,27.34,5.12.47.76,1.92,4.13,1.92,4.75v46.33h7.87v20.89l-.91.91h-33.31l-.91-.91v-53.9c0-.33-.94-1.35-.61-2.12h-10.6l-.91.91v55.11l-.91.91h-25.44l-.91-.91v-55.11c0-2.23-7.87.94-7.87-1.21v-19.99l.91-.91h34.23Z"/>
  <path class="st4" d="M136.28,273.95v7.87c.9,1.02,7.57-7.35,8.91-7.75,5.64.31,16.14-1.72,20.46,2.31,1.19,1.11,3.34,5.53,3.34,6.96v24.53h-21.2v-12.72h-10.6l-.91.91v34.22h7.87v20.89l-.91.91h-41.19l-.91-.91v-20.89h7.87v-34.22c0-1.95-6.58.09-7.87-.3v-21.8h35.14Z"/>
  <path class="st10" d="M294.98,274.55v55.72h7.27v20.89l-.91.91h-40.58c-.1,0-1.07-.93-1.2-1.22-.45-.96-.63-18.36-.23-19.59,1.62-2.02,5.4-.59,7.79-.99v-35.13c-1.37-.53-7.87,1.61-7.87-.3v-19.99l.91-.91h33.31c.2,0,.92.8,1.51.61Z"/>
  <path class="st8" d="M278.49,237.73c15.63-1.13,18,23.54,3.43,25.88-19.38,3.12-21.67-24.57-3.43-25.88h0Z"/>
  <path class="st12" d="M245.91,330.27h7.27v21.2l-34.1.48c-2.75-.81-1.3-6.16-1.64-8.35-.8-.9-7.44,6.87-8.5,7.54-2.34,1.47-10.47,1.13-13.6.93-10.06-.64-17.43-2.2-18.47-13.63-.46-5.03-.57-18.88.9-23.3,1.2-3.61,5.33-7.31,9.14-7.82,9.75-1.32,20.63,1.21,30.53-.66v-13.93h-13.02c-1.9,1-.36,7.33-.91,7.88l-14.27.63-9.96-.63v-13.63c0-.2.75-3.48.9-3.95,2.2-6.87,8.65-8.65,15.13-9.1,9.32-.64,23.41-.6,32.76,0,5.98.39,13.43,1.38,16.04,7.58.69,1.63,1.8,6.32,1.8,7.89v40.88h0ZM203.51,333.3h13.63l.91-.91v-10.3l-.91-.91h-13.63c.2.59-.61,1.31-.61,1.51v9.08c0,.2.8.92.61,1.51v.02Z"/>
  <path class="st6" d="M520.6,273.95c2.21,2.13-.18,5.31.92,7.87l8.29-7.75c6.81.44,18.6-2.61,22.32,4.68.63,1.24,2.08,6.44,2.08,7.61v20.59l-.91.91h-20.29v-10.6c0-.33-.94-1.35-.61-2.12h-10.9v35.13h7.27v20.89l-.91.91h-41.19l-.91-.91v-19.99c1-1.89,7.33-.36,7.88-.91-.69-10.49.9-22.08.03-32.43-.48-5.7-4.74.05-7.9-3v-19.99l.91-.91h33.92v.02Z"/>
  <path class="st6" d="M632.95,318.16h-40.28c-.2,0-.92.8-1.51.61v13.93h13.93c.38-2.69-.95-6.38.91-8.48h26.05l.91.91v12.72c0,.29-.83,3.82-1.02,4.43-2.51,8.18-9.27,9.37-16.82,9.82-10.2.61-29.54.96-39.24-.78-9.98-1.79-11.95-7.14-12.57-16.51-.81-12.41-.82-30.6-.04-43.02.71-11.28,4.99-16.98,16.66-17.86,8.58-.65,35.36-1.08,42.75.91,3.96,1.06,7.4,3.54,8.88,7.48.3.81,1.39,5.3,1.39,5.88v29.98-.02ZM605.09,304.23v-11.2c-.97-1.5-2.37-.31-3.91-.27-3.33.07-6.69-.11-10.02-.03v11.51h13.93Z"/>
  <path class="st12" d="M714.72,318.16h-40.88l-.91.91v13.63h13.93c.38-2.69-.95-6.38.91-8.48h26.05l.91.91v13.32c0,4.64-4.72,11.26-9.29,12.51-8,2.2-31.63,1.69-40.68,1.11-6.86-.44-16.25-1.57-18.44-9.42-1.52-5.45-.55-9.02-.7-13.96-.33-10.73-2.69-39.03,2.16-47.5,2.01-3.5,5-5.33,8.8-6.34,7.54-2,33.44-1.58,42.12-.93,5.94.45,12.41,2.22,14.69,8.33.32.84,1.34,4.72,1.34,5.32v30.58h0ZM687.47,292.72h-14.54c-.29,3.83-1.32,7.72,0,11.51h13.63l.91-.91v-10.6Z"/>
  <path class="st4" d="M551.18,160.7c-5.44,28.64-28.34,51.9-53.67,64.73-15.14,7.66-30.44,8.99-40.09,24.72-9.65,15.73-14.32,53.44-12.23,72.55,2.99,27.3,14.75,43.82,29.91,65.17.38.53,2.06,2.56,1.57,2.96l-76.92,2.42c5.13-16.1,10.1-32.27,13.13-48.94,6.58-36.15,9.44-87.44-19.79-114.89-5-4.69-11.22-8.16-16.37-12.7-9.52-8.38-25.93-27.96-30.72-39.54-1.02-2.46-1.65-4.01,1.65-2.86l9.05,10.94c18.1,16.71,34.29,35.34,59.98,40.56,23.93,4.86,64.09-2.64,85.01-15.58,18.56-11.49,26.64-27.05,40.69-42.29,1.09-1.19,7.65-8.35,8.79-7.26h.01Z"/>
  <path class="st5" d="M396.61,202.61c-1.24-.73-3.55.46-4.97.43-6.06-.15-11.95-6.29-13.15-11.99-2.11-.57-4.14.55-6.2.49-9.33-.28-11.39-11.37-11.96-18.68-17.73-.95-21.57-13.78-15.2-28.74-6.75-4.76-9.59-8.82-8.23-17.49.43-2.76,4.11-8.51,4.07-9.84-.04-1.11-2.51-3.83-2.87-5.58-1.09-5.38.32-8.91,2.58-13.5.55-1.13,2.5-3.36,2.61-4.03.08-.44-2.49-6.02-2.75-7.92-1.28-9.44,3.3-15.06,10.79-19.92-5.82-15.41.48-24.63,16.04-27.43-.18-8.26,3.83-14.13,11.61-16.86,2.24-.79,6.94-1.16,8.23-1.92,1.58-.93,4.09-6.47,8.48-8.63,3.46-1.7,10.4-1.71,11.93-2.61,1.02-.6,1.82-4.76,5.41-6.7,9.13-4.94,21.85,1.56,22.44,12.15l-.03,187.1c-6.56,14.09-25.63,17.03-36.32,5.5-.83-.89-2.33-3.71-2.53-3.82h.02ZM403.4,25.64h-10.6l-.91.91v16.05h-16.35v11.51h16.35v15.44l.91.91h10.6v-16.35h16.05l.91-.91v-10.6h-16.96v-16.96ZM399.76,94.67c-.54-1.72-3.73-11.9-4.58-12.09l-39.67,14.27,4.01,11.78,40.25-13.96h-.01ZM386.82,108.65c-1.33,1.56-7.46,6.22-6.98,8.01l10.83,11.02-10.91,11.51c.89,1.62,6.48,7.93,8.08,7.51l11.02-10.83c.77,0,8.86,9.73,10.6,10.62.58.3.62.3,1.2,0,1.04-.53,6.9-6.66,6.6-7.79-.5-1.89-10.47-9.38-10.19-10.94l10.88-11.59c-.89-1.62-6.48-7.93-8.08-7.51-1.94.51-9.96,11.07-11.55,10.79l-11.51-10.81h.01ZM414.71,168.38c6.04-6.61-6.08-13.79-9.18-6.46-2.65,6.27,5.39,10.6,9.18,6.46ZM428.81,179.5l-40.9-13.38c-.63-.02-1.1-.25-1.54.38-.27.39-2.96,8.59-2.95,9.07.02.76.3,1.13,1.01,1.37l40.51,13.41c1.33.15.65-.15.92-.84.5-1.26,3.26-9.59,2.95-10.01h0ZM400.83,186.24c-7.07.86-5.72,11.76,1,11.39,7.35-.4,6.78-12.33-1-11.39Z"/>
  <polygon class="st2" points="403.4 25.64 403.4 42.6 420.35 42.6 420.35 53.19 419.45 54.1 403.4 54.1 403.4 70.45 392.8 70.45 391.89 69.55 391.89 54.1 375.53 54.1 375.53 42.6 391.89 42.6 391.89 26.55 392.8 25.64 403.4 25.64"/>
  <path class="st2" d="M386.82,108.65l11.51,10.81c1.58.28,9.61-10.28,11.55-10.79,1.6-.42,7.18,5.89,8.08,7.51l-10.88,11.59c-.28,1.56,9.69,9.05,10.19,10.94.3,1.13-5.57,7.25-6.6,7.79-.58.3-.62.3-1.2,0-1.74-.9-9.83-10.62-10.6-10.62l-11.02,10.83c-1.6.42-7.18-5.89-8.08-7.51l10.91-11.51-10.83-11.02c-.47-1.79,5.66-6.45,6.98-8.01h-.01Z"/>
  <path class="st2" d="M399.76,94.67l-40.25,13.96-4.01-11.78,39.67-14.27c.86.19,4.04,10.37,4.58,12.09h.01Z"/>
  <path class="st3" d="M428.81,179.5c.31.42-2.45,8.75-2.95,10.01-.27.68.41.99-.92.84l-40.51-13.41c-.71-.24-.99-.61-1.01-1.37-.01-.48,2.68-8.68,2.95-9.07.45-.63.91-.41,1.54-.38l40.9,13.38h0Z"/>
  <path class="st0" d="M400.83,186.24c7.79-.95,8.35,10.98,1,11.39-6.72.37-8.08-10.53-1-11.39Z"/>
  <path class="st0" d="M414.71,168.38c-3.79,4.14-11.83-.19-9.18-6.46,3.1-7.33,15.22-.15,9.18,6.46Z"/>
  <path class="st9" d="M496.25,19.4c.99.72,7.83,1.63,10.29,2.74,6.82,3.08,10.02,8.81,9.79,16.25,15.52,2.54,22.25,12.33,16.04,27.43,7.71,4.66,12.28,11.13,10.81,20.54-.28,1.78-2.88,6.61-2.76,7.31.13.74,3.25,4.81,3.94,6.34,1.84,4.12,2.59,7.22,1.07,11.61-.5,1.45-2.66,4.32-2.68,5.16-.04,1.34,3.64,7.08,4.07,9.84,1.41,9.02-1.36,12.46-8.23,17.49,6.17,14.95,2.66,27.92-15.2,28.75-.68,7.09-2.42,17.91-11.34,18.67-2.47.21-4.41-.87-6.8-.47-1.44,5.84-6.93,11.74-13.19,12-1.7.07-3.7-1.15-5.07-.29-.63.4-1.08,2.2-1.8,3.05-10.62,12.42-29,9.21-37.08-4.11l.2-189.02c.77-11.48,18.83-17.31,25.64-8.2.73.98,1.43,3.49,2.15,3.91,2.16,1.26,9.2.66,13.54,3.42,3,1.91,5.2,6.55,6.64,7.6l-.03-.02ZM469.42,40.78v19.08c1.01,1.47,8.21,1.21,8.82.34v-30.36c-.57-.82-5.57-.82-6.6-.47-.88.3-2.48,3.6-3.74,4.74-2.01,1.82-4.48,2.26-6.67,3.63l-.29,6.67s8.48-3.63,8.48-3.63ZM496.07,96.49c1.64-8.3,8.51-17,2.42-25.13-5.15-6.86-13.43-3.99-19.32.05s-9.66,8.55-6.99,15.97c.3.82.68,2.73,1.77,2.46l8.76-4.31c-1.5-4.11-.46-10.06,5.04-8.92,6.5,1.35.52,13.26-.47,16.84-1.89,6.85-3.18,12.51-.29,19.39l27.21-17.32-4.51-7.52-13.62,8.49h0ZM516.06,143.14c9.31.39,13.32-7.98,7.87-15.45-4.41-6.04-12.68-9.98-19.98-7.27-.59.22-3.35,1.54-3.02,2.4l7.03,6.95c7.77-7.2,12.49,6.29,3.56,5.53-1.44-.12-2.93-1.47-3.92-.99l-4.25,4.89c-.41,1.04,2.64,1.46,3.58,2.46,3.68,3.86-1.01,11.38-6.61,9.02-4.44-1.87-1.23-7.64-1.9-8.69-.29-.45-8.41-4.08-9.62-4.32-4.47,11.55,10.46,24.98,21.19,21.49,6.94-2.25,10.41-9.74,6.06-16.04v.02ZM480.26,160.75l-7.86,1.58-10.61,20.17.96,7.27,15.13-3.03,1.24,5.44,7.25-1.2-.65-5.69,3-1.04-1.11-5.72-3.74-.61-3.62-17.16h0Z"/>
  <path class="st7" d="M496.07,96.49l13.62-8.49,4.51,7.52-27.21,17.32c-2.9-6.88-1.6-12.54.29-19.39.99-3.59,6.97-15.5.47-16.84-5.51-1.14-6.54,4.82-5.04,8.92l-8.76,4.31c-1.09.27-1.47-1.64-1.77-2.46-2.67-7.42,1.15-11.97,6.99-15.97s14.17-6.91,19.32-.05c6.09,8.12-.77,16.83-2.42,25.13Z"/>
  <path class="st7" d="M516.06,143.14c4.35,6.3.87,13.78-6.06,16.04-10.73,3.49-25.66-9.95-21.19-21.49,1.21.24,9.33,3.87,9.62,4.32.67,1.05-2.55,6.82,1.9,8.69,5.6,2.36,10.28-5.16,6.61-9.02-.95-1-4-1.42-3.58-2.46l4.25-4.89c.99-.49,2.48.86,3.92.99,8.94.76,4.22-12.73-3.56-5.53l-7.03-6.95c-.33-.87,2.43-2.18,3.02-2.4,7.3-2.71,15.58,1.23,19.98,7.27,5.45,7.47,1.43,15.84-7.87,15.45v-.02Z"/>
  <path class="st11" d="M480.26,160.75l3.62,17.16,3.74.61,1.11,5.72-3,1.04.65,5.69-7.25,1.2-1.24-5.44-15.13,3.03-.96-7.27,10.61-20.17,7.86-1.58h0ZM469.42,181.28l7.02-1.18-1.58-8.51c-1.2.71-5.89,9.28-5.44,9.69h0Z"/>
  <path class="st7" d="M469.42,40.78l-8.48,3.63.29-6.67c2.19-1.37,4.66-1.81,6.67-3.63,1.26-1.14,2.86-4.44,3.74-4.74,1.03-.35,6.03-.35,6.6.47v30.36c-.61.87-7.81,1.12-8.82-.34v-19.08Z"/>
  <path class="st1" d="M469.42,181.28c-.45-.4,4.24-8.98,5.44-9.69l1.58,8.51-7.02,1.18h0Z"/>
</svg>