<?xml version="1.0" encoding="UTF-8"?><svg id="Layer_1" xmlns="http://www.w3.org/2000/svg" xmlns:xlink="http://www.w3.org/1999/xlink" viewBox="0 0 224.3 153.08"><defs><style>.cls-1{isolation:isolate;}.cls-2{fill:#2c43f2;}.cls-3{filter:url(#drop-shadow-3);}.cls-4{clip-path:url(#clippath-1);}.cls-5{filter:url(#drop-shadow-2);}.cls-6{clip-path:url(#clippath);}.cls-7{fill:none;}.cls-8{fill:#3fe062;}</style><filter id="drop-shadow-2" filterUnits="userSpaceOnUse"><feOffset dx="1" dy="1"/><feGaussianBlur result="blur" stdDeviation="1"/><feFlood flood-color="#000" flood-opacity=".75"/><feComposite in2="blur" operator="in"/><feComposite in="SourceGraphic"/></filter><filter id="drop-shadow-3" filterUnits="userSpaceOnUse"><feOffset dx="1" dy="1"/><feGaussianBlur result="blur-2" stdDeviation="2"/><feFlood flood-color="#000" flood-opacity=".75"/><feComposite in2="blur-2" operator="in"/><feComposite in="SourceGraphic"/></filter><clipPath id="clippath"><path class="cls-7" d="M41.31,65.95c-3.55,.3-6.75,.11-9.93,.55-12.91,1.8-23.77,11.6-26.74,24.28-4.27,18.19,7.42,36.06,25.78,39.34,3.1,.56,6.26,.66,9.4,.64,8.33-.05,16.66-.16,24.99-.35,6.8-.15,13.6-.35,20.41-.31,4.14,.03,7.57-3.76,7.57-8.15-.02-20.37-.05-40.74-.07-61.11-.01-15.19-.01-30.39-.05-45.58,0-1.45,.33-2.9-.04-4.38-1.1-4.39-4.04-6.74-8.83-6.79-7.03-.08-14.05-.08-21.08-.11-2.77,0-5.56-.21-8.32-.23-8.09-.03-15.39,2.47-21.6,7.76-6.21,5.3-9.98,12.05-11.06,20.13-1.18,8.85,.93,16.96,6.41,24.08,2.73,3.54,5.96,6.76,13.19,10.22"/></clipPath><clipPath id="clippath-1"><path class="cls-7" d="M47.04,35.86c1.57-2.04,3.17-3.61,4.96-5,3.8-2.96,7.88-4.29,12.4-1.83,4.91,2.66,7.7,6.71,7.29,12.5-.49,7.03-3.55,12.96-8.07,18.22-1.29,1.5-2.71,2.89-4.13,4.4,1.55,.2,3.12,.31,4.62,.83,3.39,1.17,6.21,3.15,8.52,5.86,.49,.58,.98,.9,1.79,.97,4.93,.47,9.46,2.23,13.73,4.61,4.32,2.41,7.34,5.88,7.93,11.04,.06,.52,.05,1.01-.03,1.53-.11,.83-.46,1.49-1.3,1.72-.87,.23-1.51-.24-1.97-.9-1.18-1.68-2.24-3.45-3.48-5.08-2.97-3.89-6.79-6.64-11.45-8.22-.24-.08-.49-.15-.74-.2-.09-.01-.19,.03-.48,.09,1.07,2.11,2.06,4.2,2.88,6.37,5.26,13.85-.32,31.25-12.83,39.22-6.49,4.13-13.47,5.62-20.92,2.44-4.4-1.87-7.55-5.02-9.8-9.18-.24-.45-.47-.91-.71-1.36-.02-.04-.08-.05-.18-.11-.5,1.37-.96,2.75-1.49,4.1-.3,.76-.69,1.49-1.28,2.09-.53,.55-1.17,.86-1.94,.66-.77-.2-1.13-.79-1.3-1.55-.4-1.68,.11-3.28,.49-4.85,3.33-13.88,6.41-27.81,8.74-41.89,1.63-9.91,3.39-19.81,3.95-29.86,.3-5.35-.08-10.68-.47-16-.05-.75-.36-1.63,.59-2.03,.98-.41,1.71,.22,2.26,.9,1.47,1.84,1.69,4.13,2.02,6.36,.18,1.27,.27,2.54,.43,4.13m29.93,58.15c-.17-6.94-2.12-12.48-5.16-17.7-.49-.84-1.14-.84-1.96-.76-4.94,.47-9.71,1.72-14.12,3.91-8.6,4.3-15.82,9.91-17.63,20.21-.47,2.66-1.6,5.32-1.49,7.95,.19,4.8,2.32,8.92,6.45,11.67,6.04,4.03,12.39,3.76,18.46,.35,10.25-5.75,14.74-15.05,15.46-25.63m-8.53-22.11c-3.32-3.96-11.12-6.46-15.97-2.68-.76,.59-1.66,1.02-2.53,1.44-1.5,.73-3.16,.65-3.51-.23-.63-1.57,.65-2.3,1.64-2.9,3.03-1.81,5.51-4.28,8.05-6.67,5.29-4.96,8.57-11.08,9.88-18.19,.64-3.46,.05-6.64-2.95-9-1.79-1.41-3.64-1.76-5.72-.8-1.88,.87-3.54,2.11-5.02,3.53-2.59,2.47-4.97,5.29-5.49,8.87-.59,4.1-.9,8.25-1.45,12.37-.99,7.41-1.97,14.82-3.28,22.18-.41,2.31-.78,4.63-1.16,6.94,7.27-8.55,16.83-12.62,27.52-14.84"/></clipPath></defs><g class="cls-5"><path class="cls-8" d="M99.52,81.9c.54-.54,1.05-.52,1.53,.04,.48,.57,.81,1.31,.99,2.21l-1.26,1.26c-1.38,1.38-2.94,2.82-4.68,4.33-1.74,1.5-3.87,3.08-6.39,4.73-2.64,1.65-4.71,2.47-6.21,2.47-1.68,0-3-.53-3.96-1.58-.96-1.05-1.44-2.5-1.44-4.37v-1.21c0-.33,.03-.64,.09-.95-3.54,3.18-6.87,4.77-9.99,4.77-1.68,0-3.05-.48-4.09-1.44-1.05-.96-1.58-2.25-1.58-3.87,0-1.86,.69-4,2.07-6.44,1.38-2.43,3.12-4.75,5.22-6.98,1.08-1.08,2.25-2.1,3.51-3.06,1.26-.96,2.59-1.78,4-2.48,1.41-.69,2.82-1.24,4.23-1.66,1.41-.42,2.8-.63,4.18-.63,1.86,0,3.36,.33,4.5,.99,1.14,.66,1.71,1.5,1.71,2.52,0,1.5-1.32,2.52-3.96,3.06-.66-1.08-1.77-1.62-3.33-1.62-2.82,0-6.03,1.92-9.63,5.76-3.66,3.84-5.49,7.02-5.49,9.54,0,.9,.33,1.35,.99,1.35,.54,0,1.17-.21,1.89-.63,.72-.42,1.51-.99,2.38-1.71,.87-.72,1.74-1.56,2.61-2.52,.87-.96,1.69-1.98,2.47-3.06,.96-1.44,1.95-3.33,2.97-5.67,2.52-.24,4.21,.03,5.08,.81,.87,.78,.82,2.22-.13,4.32-.78,1.5-1.47,3.21-2.07,5.13-.72,2.1-1.08,3.65-1.08,4.64,0,.93,.39,1.39,1.17,1.39,1.44,0,3.69-1.17,6.75-3.51,1.5-1.2,2.8-2.26,3.92-3.19,1.11-.93,2.05-1.78,2.83-2.56l.18-.18Z"/><path class="cls-8" d="M132.55,82.08c.54-.54,1.05-.5,1.53,.13,.48,.63,.81,1.34,.99,2.12l-1.26,1.26c-3.84,3.84-6.93,6.84-9.27,9-2.28,2.1-5.22,4.35-8.82,6.75-3.48,2.22-6.48,3.39-9,3.51-2.1,0-3.75-.54-4.95-1.62-1.2-1.08-1.8-2.55-1.8-4.41-.12-1.68,.41-3.46,1.58-5.36,1.17-1.89,2.46-3.67,3.87-5.35,1.41-1.68,2.7-3.18,3.87-4.5,1.17-1.32,1.69-2.28,1.58-2.88,.06-1.08-.51-2.76-1.71-5.04-1.02,1.56-2.13,3.05-3.33,4.46-1.2,1.41-2.46,2.78-3.78,4.09l-.18,.18c-.36,.36-.72,.38-1.08,.04-.36-.33-.69-.79-.99-1.4l-.45-.9,1.26-1.26c3.06-3.06,5.28-5.85,6.66-8.37-.9-1.8-1.35-3.57-1.35-5.31,0-1.38,.34-2.43,1.04-3.15,.69-.72,1.47-1.08,2.34-1.08s1.63,.35,2.29,1.04c.66,.69,.96,1.7,.9,3.01,0,1.56-.45,3.27-1.35,5.13l2.88,2.88c.18,.24,.54,.66,1.08,1.26,.54,.6,.93,1.05,1.17,1.35,.42,.66,.77,1.34,1.04,2.02,.27,.69,.41,1.37,.41,2.02,0,1.68-1.65,4.44-4.95,8.28-3.36,3.9-5.04,6.39-5.04,7.47,0,.96,.54,1.44,1.62,1.44,4.26,0,11.94-5.55,23.04-16.65l.18-.18Z"/><path class="cls-8" d="M134.62,102.6c-1.92,0-3.42-.57-4.5-1.71-1.08-1.14-1.62-2.76-1.62-4.86,0-3.72,1.23-8.13,3.69-13.23,2.16-4.32,4.5-6.48,7.02-6.48,1.38,0,2.64,.75,3.78,2.25-5.04,7.56-7.56,12.9-7.56,16.02,0,1.74,.63,2.61,1.89,2.61,1.92,0,5.01-1.71,9.27-5.13,2.1-1.68,4.06-3.34,5.9-5,1.83-1.65,3.55-3.29,5.17-4.91l.36-.36c.42-.36,.9-.25,1.44,.31,.54,.57,.84,1.28,.9,2.11l-1.17,1.17-1.08,1.08c-1.02,1.02-1.98,1.97-2.88,2.84-.9,.87-1.68,1.64-2.34,2.29s-1.47,1.4-2.43,2.21c-.96,.81-2.04,1.73-3.24,2.75-4.86,4.02-9.06,6.03-12.6,6.03Zm7.92-28.89c-1.14,0-2.07-.37-2.79-1.12-.72-.75-1.08-1.72-1.08-2.92,0-1.44,.51-2.68,1.53-3.74,1.02-1.05,2.22-1.57,3.6-1.57,1.08,0,1.99,.38,2.75,1.12,.75,.75,1.12,1.73,1.12,2.92,0,1.44-.51,2.69-1.53,3.73-1.02,1.05-2.22,1.58-3.6,1.58Z"/><path class="cls-8" d="M188.8,81.81c.36-.36,.81-.24,1.35,.36,.54,.6,.87,1.29,.99,2.07l-1.17,1.17-3.38,3.38c-.93,.93-1.73,1.7-2.38,2.29-.66,.6-1.47,1.3-2.43,2.12-.96,.81-2.07,1.73-3.33,2.75-2.58,2.1-5,3.62-7.25,4.54s-4.46,1.39-6.61,1.39c-2.52,0-4.62-.85-6.3-2.56-1.68-1.71-2.52-4.37-2.52-7.96,0-5.4,2.52-13.47,7.56-24.21-2.64,.18-5.01,.96-7.11,2.34-1.74-1.02-2.61-2.1-2.61-3.24,0-1.02,.75-1.95,2.25-2.79,1.5-.84,3.51-1.26,6.03-1.26h2.21c.63,0,1.12,.03,1.48,.09,4.38-8.82,7.83-14.49,10.35-17.01,1.38-1.38,2.79-2.07,4.23-2.07,1.68,0,2.85,.99,3.51,2.97-2.4,1.74-5.94,7.14-10.62,16.2,.42,0,1.15,.02,2.21,.04,1.05,.03,1.81,.04,2.29,.04h1.98c.9,0,1.59-.01,2.07-.04,.48-.03,1.11-.07,1.89-.14,2.64-.18,4.62-.72,5.94-1.62,1.26,.9,1.89,1.86,1.89,2.88,0,1.74-1.95,2.76-5.85,3.06-.18,0-.36,.03-.54,.09h-.54c-.66,.06-2.13,.11-4.41,.14-2.28,.03-5.34,.04-9.18,.04-5.4,11.1-8.1,19.29-8.1,24.57,0,3.42,1.5,5.13,4.5,5.13,2.28,0,5.43-1.47,9.45-4.41,4.14-2.94,8.07-6.27,11.79-9.99l.36-.36Z"/><path class="cls-8" d="M217.78,81.99c.54-.54,1.05-.51,1.53,.09,.48,.6,.81,1.32,.99,2.16l-1.26,1.26-4.05,4.05c-.42,.36-.99,.86-1.71,1.49-.72,.63-1.59,1.43-2.61,2.38-2.1,1.92-3.81,3.27-5.13,4.05-1.38,.84-3.03,1.65-4.95,2.43-1.92,.78-3.69,1.17-5.31,1.17-2.88,0-5.17-.91-6.88-2.75-1.71-1.83-2.56-4.28-2.56-7.33,0-4.68,1.8-9.09,5.4-13.23,3.6-4.08,7.41-6.12,11.43-6.12,1.62,0,2.92,.39,3.92,1.17,.99,.78,1.48,1.86,1.48,3.24,0,2.28-1.26,4.62-3.78,7.02-2.64,2.58-6.15,4.26-10.53,5.04-.06,.3-.09,.9-.09,1.8,0,3.54,1.2,5.31,3.6,5.31s5.55-1.32,9.45-3.96c1.92-1.32,3.78-2.73,5.58-4.23,1.8-1.5,3.57-3.12,5.31-4.86l.18-.18Zm-15.12-6.48c-.54,0-1.19,.23-1.94,.68-.75,.45-1.48,1.07-2.21,1.84-.72,.78-1.43,1.7-2.12,2.75-.69,1.05-1.25,2.15-1.66,3.29,1.98-.54,3.81-1.41,5.49-2.61,2.22-1.68,3.33-3.33,3.33-4.95,0-.66-.3-.99-.9-.99Z"/></g><g class="cls-3"><g class="cls-6"><g class="cls-1"><rect class="cls-2" width="99.87" height="134.59"/></g></g></g><g class="cls-4"><g class="cls-1"><rect class="cls-8" x="0" width="99.87" height="134.59"/></g></g></svg>