<?xml version="1.0" encoding="UTF-8"?><svg id="Layer_1" xmlns="http://www.w3.org/2000/svg" xmlns:xlink="http://www.w3.org/1999/xlink" viewBox="0 0 234.61 168.08"><defs><style>.cls-1{fill:none;}.cls-2{clip-path:url(#clippath-1);}.cls-3{isolation:isolate;}.cls-4{fill:#2c43f2;}.cls-5{fill:#3fe062;}.cls-6{clip-path:url(#clippath);}</style><clipPath id="clippath"><path class="cls-1" d="M41.31,65.95c-3.55.3-6.75.11-9.93.55-12.91,1.8-23.77,11.6-26.74,24.28-4.27,18.19,7.42,36.06,25.78,39.34,3.1.56,6.26.66,9.4.64,8.33-.05,16.66-.16,24.99-.35,6.8-.15,13.6-.35,20.41-.31,4.14.03,7.57-3.76,7.57-8.15-.02-20.37-.05-40.74-.07-61.11-.01-15.19-.01-30.39-.05-45.58,0-1.45.33-2.9-.04-4.38-1.1-4.39-4.04-6.74-8.83-6.79-7.03-.08-14.05-.08-21.08-.11-2.77,0-5.56-.21-8.32-.23-8.09-.03-15.39,2.47-21.6,7.76-6.21,5.3-9.98,12.05-11.06,20.13-1.18,8.85.93,16.96,6.41,24.08,2.73,3.54,5.96,6.76,13.19,10.22"/></clipPath><clipPath id="clippath-1"><path class="cls-1" d="M47.04,35.86c1.57-2.04,3.17-3.61,4.96-5,3.8-2.96,7.88-4.29,12.4-1.83,4.91,2.66,7.7,6.71,7.29,12.5-.49,7.03-3.55,12.96-8.07,18.22-1.29,1.5-2.71,2.89-4.13,4.4,1.55.2,3.12.31,4.62.83,3.39,1.17,6.21,3.15,8.52,5.86.49.58.98.9,1.79.97,4.93.47,9.46,2.23,13.73,4.61,4.32,2.41,7.34,5.88,7.93,11.04.06.52.05,1.01-.03,1.53-.11.83-.46,1.49-1.3,1.72-.87.23-1.51-.24-1.97-.9-1.18-1.68-2.24-3.45-3.48-5.08-2.97-3.89-6.79-6.64-11.45-8.22-.24-.08-.49-.15-.74-.2-.09-.01-.19.03-.48.09,1.07,2.11,2.06,4.2,2.88,6.37,5.26,13.85-.32,31.25-12.83,39.22-6.49,4.13-13.47,5.62-20.92,2.44-4.4-1.87-7.55-5.02-9.8-9.18-.24-.45-.47-.91-.71-1.36-.02-.04-.08-.05-.18-.11-.5,1.37-.96,2.75-1.49,4.1-.3.76-.69,1.49-1.28,2.09-.53.55-1.17.86-1.94.66-.77-.2-1.13-.79-1.3-1.55-.4-1.68.11-3.28.49-4.85,3.33-13.88,6.41-27.81,8.74-41.89,1.63-9.91,3.39-19.81,3.95-29.86.3-5.35-.08-10.68-.47-16-.05-.75-.36-1.63.59-2.03.98-.41,1.71.22,2.26.9,1.47,1.84,1.69,4.13,2.02,6.36.18,1.27.27,2.54.43,4.13M76.97,94c-.17-6.94-2.12-12.48-5.16-17.7-.49-.84-1.14-.84-1.96-.76-4.94.47-9.71,1.72-14.12,3.91-8.6,4.3-15.82,9.91-17.63,20.21-.47,2.66-1.6,5.32-1.49,7.95.19,4.8,2.32,8.92,6.45,11.67,6.04,4.03,12.39,3.76,18.46.35,10.25-5.75,14.74-15.05,15.46-25.63M68.45,71.89c-3.32-3.96-11.12-6.46-15.97-2.68-.76.59-1.66,1.02-2.53,1.44-1.5.73-3.16.65-3.51-.23-.63-1.57.65-2.3,1.64-2.9,3.03-1.81,5.51-4.28,8.05-6.67,5.29-4.96,8.57-11.08,9.88-18.19.64-3.46.05-6.64-2.95-9-1.79-1.41-3.64-1.76-5.72-.8-1.88.87-3.54,2.11-5.02,3.53-2.59,2.47-4.97,5.29-5.49,8.87-.59,4.1-.9,8.25-1.45,12.37-.99,7.41-1.97,14.82-3.28,22.18-.41,2.31-.78,4.63-1.16,6.94,7.27-8.55,16.83-12.62,27.52-14.84"/></clipPath></defs><g class="cls-6"><g class="cls-3"><rect class="cls-4" width="99.87" height="134.59"/></g></g><g class="cls-2"><g class="cls-3"><rect class="cls-5" x="0" width="99.87" height="134.59"/></g></g><path class="cls-5" d="M124.42,61.34c.87,0,1.73.07,2.56.21.83.14,1.81.37,2.92.69l-1.43,16.92c-.79-.32-1.66-.54-2.59-.66-.93-.12-1.96-.18-3.07-.18-1.83,0-3.45.4-4.88,1.19-1.43.79-2.63,1.94-3.6,3.43-.97,1.49-1.71,3.28-2.2,5.36-.5,2.08-.74,4.42-.74,7v34.01h-15.84V62.59h12.21l2.26,10.96h.77c.87-2.1,1.97-4.09,3.28-5.96,1.31-1.87,2.84-3.37,4.59-4.53,1.75-1.15,3.67-1.73,5.78-1.73Z"/><path class="cls-5" d="M138.97,36.32c2.98,0,5.16.78,6.55,2.35,1.39,1.57,2.08,3.84,2.08,6.82s-.73,5.11-2.17,6.64c-1.45,1.53-3.6,2.29-6.46,2.29s-4.92-.76-6.43-2.29c-1.51-1.53-2.26-3.74-2.26-6.64,0-3.06.71-5.35,2.12-6.88,1.41-1.53,3.6-2.29,6.58-2.29ZM146.89,62.59v66.71h-15.84V62.59h15.84Z"/><path class="cls-5" d="M176.16,116.61c1.11,0,2.29-.15,3.54-.45s2.55-.76,3.9-1.4v12.69c-1.75.99-3.66,1.75-5.75,2.26s-4.3.77-6.64.77c-3.81,0-6.92-.77-9.32-2.29-2.4-1.53-4.16-3.85-5.27-6.97-1.11-3.12-1.67-7.06-1.67-11.82v-33.65h-6.55v-8.52l7.8-4.17,3.75-14.53h10.84v14.06h11.97v13.16h-11.97v33.06c0,2.62.41,4.58,1.22,5.87.81,1.29,2.19,1.94,4.14,1.94Z"/><path class="cls-5" d="M207.39,61.45c5,0,9.24,1.23,12.72,3.69,3.47,2.46,6.11,5.95,7.89,10.45,1.79,4.51,2.68,9.84,2.68,15.99v8.93h-31.81c.08,5.84,1.15,10.14,3.22,12.9,2.06,2.76,5.22,4.14,9.47,4.14,2.82,0,5.49-.37,8.01-1.1,2.52-.73,5.21-2,8.07-3.78v13.22c-2.66,1.59-5.5,2.75-8.52,3.48-3.02.73-6.28,1.1-9.77,1.1-6.12,0-11.1-1.38-14.95-4.14s-6.67-6.69-8.46-11.79c-1.79-5.1-2.68-11.17-2.68-18.2,0-7.5.9-13.85,2.71-19.03,1.81-5.18,4.5-9.12,8.07-11.82,3.57-2.7,8.02-4.05,13.34-4.05ZM207.74,73.9c-2.62,0-4.71,1.18-6.25,3.54-1.55,2.36-2.38,6.22-2.5,11.58h16.98c0-3.14-.32-5.84-.95-8.1-.64-2.26-1.57-4-2.8-5.21-1.23-1.21-2.72-1.82-4.47-1.82Z"/></svg>