<?xml version="1.0" encoding="UTF-8"?><svg id="Layer_1" xmlns="http://www.w3.org/2000/svg" viewBox="0 0 226.32 122.1"><defs><style>.cls-1{fill:#0d8a8b;}.cls-2{fill:#fff;}.cls-3{fill:#05898a;}.cls-4{fill:#09b3b4;}.cls-5{fill:#0cb4b5;}.cls-6{fill:#b0d248;}</style></defs><polygon class="cls-4" points="116.1 0 72.79 81.21 159.4 81.21 116.1 0"/><path class="cls-1" d="M72.91,81h86.38l-23.99-45c-1.84.9-4.34,1.94-7.4,2.72-1.77.45-5.32,1.32-9.78,1.17-4.22-.14-5.63-.98-12.22-2.44-3.77-.84-6.92-1.24-8.99-1.44l-23.99,45Z"/><polygon class="cls-2" points="116.1 26.79 87.19 81 145 81 116.1 26.79"/><polygon class="cls-6" points="116.1 47.27 98.11 81 134.08 81 116.1 47.27"/><rect class="cls-5" x="171" width="27" height="81"/><path class="cls-3" d="M198,81h-27v-44c4.23.13,9.36-.05,15.11-1,4.53-.75,8.52-1.82,11.89-2.93v47.93Z"/><path class="cls-5" d="M63,.25c-1.48-.16-2.98-.25-4.5-.25C36.13,0,18,18.13,18,40.5s18.13,40.5,40.5,40.5c1.52,0,3.02-.09,4.5-.25V.25Z"/><path class="cls-3" d="M18,40.5c0,22.37,18.13,40.5,40.5,40.5,1.52,0,3.02-.09,4.5-.25v-44.75c-5.67-1.58-10.63-2.3-14.45-2.65-1.58-.14-8.44-.72-17.55.31-5.14.58-9.47,1.5-12.75,2.34-.13.97-.25,2.55-.25,4.5Z"/><path class="cls-3" d="M2.33,94.64c.75-1.36,1.77-2.42,3.08-3.17,1.3-.76,2.75-1.14,4.35-1.14,1.95,0,3.62.46,5.01,1.39,1.39.92,2.4,2.23,3.04,3.91h-2.05c-.5-1.18-1.26-2.11-2.29-2.78-1.03-.67-2.26-1-3.71-1-1.28,0-2.44.3-3.46.9-1.02.6-1.83,1.46-2.41,2.59-.58,1.12-.88,2.43-.88,3.91s.29,2.78.88,3.9c.58,1.12,1.39,1.97,2.41,2.57,1.03.6,2.18.9,3.46.9,1.45,0,2.69-.33,3.71-.99,1.02-.66,1.79-1.57,2.29-2.74h2.05c-.63,1.67-1.65,2.96-3.05,3.88-1.4.92-3.07,1.38-5,1.38-1.6,0-3.05-.38-4.35-1.14-1.3-.76-2.33-1.81-3.08-3.16-.75-1.35-1.12-2.88-1.12-4.6s.38-3.25,1.12-4.61Z"/><path class="cls-3" d="M24.79,94.8c.79-.47,1.76-.7,2.91-.7v1.83h-.47c-1.27,0-2.28.34-3.05,1.03-.77.68-1.15,1.83-1.15,3.42v7.62h-1.75v-13.65h1.75v2.43c.38-.85.97-1.51,1.76-1.98Z"/><path class="cls-3" d="M42.62,101.85h-11.33c.05,1.03.3,1.92.75,2.65.45.73,1.04,1.29,1.78,1.66s1.53.56,2.4.56c1.13,0,2.09-.27,2.86-.82.77-.55,1.29-1.29,1.54-2.23h1.85c-.33,1.33-1.05,2.42-2.14,3.26-1.09.84-2.46,1.26-4.11,1.26-1.28,0-2.43-.29-3.45-.86-1.02-.58-1.81-1.39-2.39-2.45s-.86-2.3-.86-3.71.28-2.66.85-3.72,1.36-1.88,2.38-2.45,2.17-.85,3.48-.85,2.44.28,3.41.85,1.72,1.33,2.25,2.29c.53.96.79,2.02.79,3.19,0,.6-.02,1.06-.05,1.38ZM40.29,97.83c-.43-.72-1-1.26-1.74-1.62s-1.53-.55-2.4-.55c-1.3,0-2.41.42-3.33,1.25-.92.83-1.42,2.01-1.53,3.52h9.6c.02-1.02-.19-1.88-.61-2.6Z"/><path class="cls-3" d="M45.91,97.46c.56-1.06,1.33-1.88,2.33-2.45s2.11-.86,3.36-.86,2.42.3,3.36.9c.94.6,1.62,1.37,2.04,2.3v-3h1.75v13.65h-1.75v-3.03c-.43.93-1.12,1.71-2.06,2.31-.94.61-2.06.91-3.36.91s-2.35-.29-3.34-.88-1.77-1.41-2.33-2.48c-.56-1.07-.84-2.3-.84-3.7s.28-2.63.84-3.69ZM56.33,98.28c-.45-.83-1.06-1.48-1.84-1.93-.77-.45-1.63-.67-2.56-.67s-1.83.22-2.6.65-1.37,1.06-1.81,1.89c-.44.82-.66,1.8-.66,2.94s.22,2.1.66,2.94c.44.84,1.05,1.48,1.81,1.92s1.63.66,2.6.66,1.79-.22,2.56-.67c.78-.45,1.39-1.09,1.84-1.92s.67-1.8.67-2.9-.22-2.07-.67-2.9Z"/><path class="cls-3" d="M65.02,95.83v8.47c0,.83.16,1.41.47,1.73s.88.47,1.67.47h1.6v1.5h-1.88c-1.23,0-2.15-.29-2.75-.86-.6-.58-.9-1.52-.9-2.84v-8.47h-1.9v-1.48h1.9v-3.42h1.78v3.42h3.75v1.48h-3.75Z"/><path class="cls-3" d="M71.62,91.4c-.25-.25-.38-.56-.38-.93s.12-.67.38-.91c.25-.24.55-.36.9-.36s.65.12.9.36c.25.24.38.55.38.91s-.12.68-.38.93-.55.38-.9.38-.65-.12-.9-.38ZM73.4,94.35v13.65h-1.75v-13.65h1.75Z"/><path class="cls-3" d="M82.22,106.3l4.6-11.95h1.85l-5.47,13.65h-1.98l-5.47-13.65h1.88l4.6,11.95Z"/><path class="cls-3" d="M103.35,101.85h-11.33c.05,1.03.3,1.92.75,2.65.45.73,1.04,1.29,1.78,1.66s1.53.56,2.4.56c1.13,0,2.09-.27,2.86-.82.77-.55,1.29-1.29,1.54-2.23h1.85c-.33,1.33-1.05,2.42-2.14,3.26-1.09.84-2.46,1.26-4.11,1.26-1.28,0-2.43-.29-3.45-.86-1.02-.58-1.81-1.39-2.39-2.45s-.86-2.3-.86-3.71.28-2.66.85-3.72,1.36-1.88,2.38-2.45,2.17-.85,3.48-.85,2.44.28,3.41.85,1.72,1.33,2.25,2.29c.53.96.79,2.02.79,3.19,0,.6-.02,1.06-.05,1.38ZM101.01,97.83c-.43-.72-1-1.26-1.74-1.62s-1.53-.55-2.4-.55c-1.3,0-2.41.42-3.33,1.25-.92.83-1.42,2.01-1.53,3.52h9.6c.02-1.02-.19-1.88-.61-2.6Z"/><path class="cls-3" d="M123.57,103.85h-7.95l-1.52,4.15h-1.85l6.38-17.25h1.98l6.35,17.25h-1.85l-1.53-4.15ZM123.05,102.4l-3.45-9.45-3.45,9.45h6.9Z"/><path class="cls-3" d="M133.26,94.8c.79-.47,1.76-.7,2.91-.7v1.83h-.47c-1.27,0-2.28.34-3.05,1.03-.77.68-1.15,1.83-1.15,3.42v7.62h-1.75v-13.65h1.75v2.43c.38-.85.97-1.51,1.76-1.98Z"/><path class="cls-3" d="M141.07,95.83v8.47c0,.83.16,1.41.47,1.73s.88.47,1.67.47h1.6v1.5h-1.88c-1.23,0-2.15-.29-2.75-.86-.6-.58-.9-1.52-.9-2.84v-8.47h-1.9v-1.48h1.9v-3.42h1.78v3.42h3.75v1.48h-3.75Z"/><path class="cls-3" d="M148.56,107.11c-.99-.72-1.55-1.71-1.66-2.96h1.8c.08.77.45,1.39,1.09,1.86.64.47,1.5.71,2.59.71.95,0,1.7-.22,2.24-.67.54-.45.81-1.01.81-1.67,0-.47-.15-.85-.45-1.15-.3-.3-.68-.54-1.14-.71-.46-.17-1.08-.36-1.86-.56-1.02-.27-1.84-.53-2.48-.8s-1.17-.66-1.61-1.19c-.44-.53-.66-1.23-.66-2.11,0-.67.2-1.28.6-1.85s.97-1.02,1.7-1.35c.73-.33,1.57-.5,2.5-.5,1.47,0,2.65.37,3.55,1.11s1.38,1.76,1.45,3.06h-1.75c-.05-.8-.36-1.45-.94-1.94s-1.36-.74-2.36-.74c-.88,0-1.6.21-2.15.62-.55.42-.83.93-.83,1.55,0,.53.16.97.49,1.31.33.34.73.61,1.21.8s1.13.4,1.95.64c.98.27,1.77.52,2.35.77s1.08.62,1.5,1.1.63,1.12.65,1.92c0,.73-.2,1.39-.6,1.96-.4.57-.96,1.03-1.67,1.36s-1.54.5-2.47.5c-1.57,0-2.85-.36-3.84-1.09Z"/><path class="cls-3" d="M169.05,90.53v17.47h-1.75v-17.47h1.75Z"/><path class="cls-3" d="M183.42,95.61c1.03,1.01,1.55,2.47,1.55,4.39v8h-1.73v-7.8c0-1.48-.37-2.62-1.11-3.4-.74-.78-1.75-1.17-3.04-1.17s-2.37.42-3.15,1.25c-.78.83-1.17,2.06-1.17,3.67v7.45h-1.75v-13.65h1.75v2.33c.43-.83,1.06-1.47,1.88-1.91s1.74-.66,2.78-.66c1.63,0,2.97.5,4,1.51Z"/><path class="cls-3" d="M188.9,97.46c.57-1.06,1.35-1.88,2.34-2.45.99-.58,2.11-.86,3.36-.86s2.28.29,3.25.88c.97.58,1.67,1.34,2.12,2.27v-7.8h1.75v18.5h-1.75v-3.05c-.42.95-1.1,1.73-2.05,2.34-.95.61-2.07.91-3.35.91s-2.37-.29-3.36-.88-1.77-1.41-2.33-2.48c-.56-1.07-.84-2.3-.84-3.7s.28-2.63.85-3.69ZM199.3,98.28c-.45-.83-1.06-1.48-1.84-1.93-.77-.45-1.63-.67-2.56-.67s-1.83.22-2.6.65-1.37,1.06-1.81,1.89c-.44.82-.66,1.8-.66,2.94s.22,2.1.66,2.94c.44.84,1.05,1.48,1.81,1.92s1.63.66,2.6.66,1.79-.22,2.56-.67c.78-.45,1.39-1.09,1.84-1.92s.67-1.8.67-2.9-.22-2.07-.67-2.9Z"/><path class="cls-3" d="M205.7,91.4c-.25-.25-.38-.56-.38-.93s.12-.67.38-.91c.25-.24.55-.36.9-.36s.65.12.9.36c.25.24.38.55.38.91s-.12.68-.38.93-.55.38-.9.38-.65-.12-.9-.38ZM207.47,94.35v13.65h-1.75v-13.65h1.75Z"/><path class="cls-3" d="M211.48,97.46c.56-1.06,1.33-1.88,2.33-2.45s2.11-.86,3.36-.86,2.42.3,3.36.9c.94.6,1.62,1.37,2.04,2.3v-3h1.75v13.65h-1.75v-3.03c-.43.93-1.12,1.71-2.06,2.31-.94.61-2.06.91-3.36.91s-2.35-.29-3.34-.88-1.77-1.41-2.33-2.48c-.56-1.07-.84-2.3-.84-3.7s.28-2.63.84-3.69ZM221.9,98.28c-.45-.83-1.06-1.48-1.84-1.93-.77-.45-1.63-.67-2.56-.67s-1.83.22-2.6.65-1.37,1.06-1.81,1.89c-.44.82-.66,1.8-.66,2.94s.22,2.1.66,2.94c.44.84,1.05,1.48,1.81,1.92s1.63.66,2.6.66,1.79-.22,2.56-.67c.78-.45,1.39-1.09,1.84-1.92s.67-1.8.67-2.9-.22-2.07-.67-2.9Z"/></svg>