<?xml version="1.0" encoding="UTF-8"?><svg id="Layer_1" xmlns="http://www.w3.org/2000/svg" xmlns:xlink="http://www.w3.org/1999/xlink" viewBox="0 0 719.93 584.17"><defs><style>.cls-1{fill:none;}.cls-2{clip-path:url(#clippath-1);}.cls-3{fill:#231f20;}.cls-4{isolation:isolate;}.cls-5{clip-path:url(#clippath-2);}.cls-6{clip-path:url(#clippath);}</style><clipPath id="clippath"><rect class="cls-1" x="56.39" y=".12" width="452.34" height="419.92"/></clipPath><clipPath id="clippath-1"><path class="cls-1" d="M242.06,389.46c1.94-1.81,4.17-3.4,5.76-5.48,4.16-5.46,7.79-11.31,12.1-16.64,2.61-3.23,5.77-6.26,9.25-8.52,7.83-5.13,15.39-1.77,16.68,7.51.62,4.42-.15,9.06-.4,13.59-.19,3.43-.55,6.84-.94,11.49,4.13-1.05,7.27-1.42,10.03-2.62,12.84-5.58,21.38-15.53,25.92-28.39,1.42-4.02-.3-9.29-1.06-13.91-2.57-15.77-5.43-31.48-7.97-47.26-.37-2.3-.06-4.94.71-7.14,31.52-90.67,63.11-181.31,94.75-271.92,5.81-16.65,20.75-23.76,37.61-18.15,6.17,2.05,12.32,4.19,18.45,6.35,16.93,5.98,23.92,18.57,19.92,36.27,3.31,1.25,6.8,2.28,10.03,3.83,14.52,6.92,18.82,17.15,13.81,32.26-6.91,20.82-13.8,41.65-20.7,62.47-.38,1.17-.7,2.36-1.15,3.5-1.98,4.95-6.44,7.33-10.86,5.83-4.75-1.61-6.95-6.19-5.2-11.54,4.83-14.85,9.8-29.66,14.71-44.48,2.37-7.16,4.74-14.32,7.07-21.5,2.23-6.89-4.86-15-11.89-13.23-1.43.36-2.7,2.91-3.33,4.69-14.48,41.24-28.87,82.5-43.26,123.76-14.85,42.59-29.64,85.2-44.6,127.76-.88,2.51-2.55,5.06-4.54,6.82-13.84,12.27-27.93,24.26-41.77,36.53-2.12,1.88-3.91,4.49-4.98,7.11-8.4,20.56-23.41,33.47-44.91,38.7-13.1,3.19-22.04-3.62-23.2-17.15-.08-.99-.13-1.99-.24-3.76-3.99,4.63-7.32,8.87-11.05,12.7-4.39,4.51-9.51,7.78-16.26,7.52-6.67-.26-12.35-3.78-13.6-10.32-1.64-8.56-2.12-17.34-3.17-26.61-2.48,1.87-5.21,3.86-7.87,5.95-11.89,9.38-23.37,19.31-35.75,27.99-6.93,4.86-15,8.68-23.1,11.18-14.64,4.51-28.27-1.66-36.03-14.85-.88-1.5-1.72-3.03-2.24-3.95-15.69,7.27-31.14,14.45-46.61,21.6-1.59.73-3.26,1.36-4.94,1.8-4.47,1.17-8.78-.94-10.25-5.13-1.57-4.45-.05-8.05,3.92-10.34,2.57-1.49,5.52-2.28,8.21-3.59,13.6-6.6,27.14-13.31,40.76-19.87,2.75-1.33,3.34-2.83,3.17-6.09-1.56-29.76,3.82-57.73,22.68-81.89,6.18-7.91,14.57-12.09,24.37-13.36,19.11-2.48,31.18,11.23,26.93,30.6-3.9,17.76-12.9,33.1-24.23,46.89-8,9.73-17.38,18.36-26.46,27.14-2.3,2.22-2.52,3.67-1.05,6.18,5.25,8.93,11.98,12.02,21.3,7.19,10.22-5.32,19.69-12.17,29.11-18.86,10.47-7.43,20.39-15.61,30.84-23.07,3.35-2.4,7.49-3.99,11.49-5.14,7.36-2.11,12.49.79,13.44,8.35.77,6.15-.11,12.52-.41,18.79-.18,3.78-.63,7.56-.96,11.34.65.36,1.29.72,1.94,1.08M416.23,45.91c-28.83,82.52-57.53,164.7-86.38,247.27,14.67,5.07,28.68,9.9,43.01,14.86,28.9-82.71,57.56-164.75,86.35-247.15-14.61-5.09-28.49-9.92-42.99-14.97M129.29,367.13c2.01-1.53,2.89-2.08,3.63-2.77,14.57-13.63,26.11-29.45,34.1-47.74,1.6-3.67,2.79-7.61,3.51-11.54,1.4-7.79-3.84-12.23-10.98-8.66-5.01,2.5-10,6.28-13.3,10.75-12.83,17.37-15.76,37.77-16.96,59.97M421.8,29.47c14.38,5.1,28.38,10.06,42.31,15,5.65-9.21,3.32-16.03-6.43-19.51-5.61-2.01-11.22-4.01-16.85-5.96-10.62-3.69-15.52-1.12-19.03,10.47M336.15,343.25c8.52-7.27,16.36-13.97,24.92-21.28-10.82-3.69-20.47-6.98-30.92-10.54,2.05,10.83,3.91,20.76,6,31.83"/></clipPath><clipPath id="clippath-2"><rect class="cls-1" x="56.34" width="452.4" height="420.24"/></clipPath></defs><g class="cls-4"><g class="cls-6"><g class="cls-2"><g class="cls-4"><g class="cls-5"><rect class="cls-3" x="56.39" y=".12" width="452.34" height="419.11"/></g></g></g></g></g><path d="M117.3,418.58c.74,0,1.24.5,1.24,1.24v17.11c0,.74-.5,1.24-1.24,1.24h-3.72c-.5,0-.74.25-.87.62l-18.48,62.86c-.25.87-.74,1.24-1.74,1.24h-19.09c-.99,0-1.49-.37-1.74-1.24l-11.66-40.79h-.25l-11.66,40.79c-.25.87-.74,1.24-1.74,1.24h-19.1c-.99,0-1.49-.37-1.74-1.24l-18.48-62.86c-.12-.37-.37-.62-.87-.62h-3.72c-.74,0-1.24-.5-1.24-1.24v-17.11c0-.74.5-1.24,1.24-1.24h34.35c.74,0,1.24.5,1.24,1.24v17.11c0,.74-.5,1.24-1.24,1.24h-2.98c-.5,0-.62.37-.5.74l5.46,25.54h.25l11.66-44.64c.25-.87.74-1.24,1.74-1.24h15c.99,0,1.49.37,1.74,1.24l12.15,44.64h.25l5.21-25.54c.12-.5-.12-.74-.62-.74h-3.1c-.74,0-1.24-.5-1.24-1.24v-17.11c0-.74.5-1.24,1.24-1.24h34.22Z"/><path d="M165.41,442.14c.99.25,1.36.5,1.36,1.61v21.7c0,.99-1.12,1.12-1.86.87-1.74-.5-4.46-1.24-6.94-1.24-5.46,0-9.3,3.35-9.3,9.79v7.69c0,.5.25.74.74.74h3.84c.74,0,1.24.5,1.24,1.24v17.11c0,.74-.5,1.24-1.24,1.24h-33.23c-.74,0-1.24-.5-1.24-1.24v-17.11c0-.74.5-1.24,1.24-1.24h3.47c.5,0,.74-.25.74-.74v-20.09c0-.5-.25-.74-.74-.74h-3.47c-.74,0-1.24-.5-1.24-1.24v-17.11c0-.74.5-1.24,1.24-1.24h27.4c.74,0,1.24.5,1.24,1.24v5.46h.12c2.36-4.59,6.7-7.07,12.4-7.07.99,0,3.1.12,4.22.37Z"/><path d="M198.77,442.14c.74,0,1.24.5,1.24,1.24v39.18c0,.5.25.74.74.74h3.47c.74,0,1.24.5,1.24,1.24v17.11c0,.74-.5,1.24-1.24,1.24h-32.86c-.74,0-1.24-.5-1.24-1.24v-17.11c0-.74.5-1.24,1.24-1.24h3.47c.5,0,.74-.25.74-.74v-20.09c0-.5-.25-.74-.74-.74h-3.47c-.74,0-1.24-.5-1.24-1.24v-17.11c0-.74.5-1.24,1.24-1.24h27.4ZM198.77,418.58c.74,0,1.24.5,1.24,1.24v15.38c0,.74-.5,1.24-1.24,1.24h-21.95c-.74,0-1.24-.5-1.24-1.24v-15.38c0-.74.5-1.24,1.24-1.24h21.95Z"/><path d="M235.97,424.78c.74,0,1.24.5,1.24,1.24v15.38c0,.5.25.74.74.74h7.44c.74,0,1.24.5,1.24,1.24v17.11c0,.74-.5,1.24-1.24,1.24h-7.44c-.5,0-.74.25-.74.74v14.01c0,5.21,1.24,6.82,5.7,6.82h2.48c.74,0,1.24.5,1.24,1.24v17.36c0,.74-.5,1.24-1.24,1.24h-7.44c-18.23,0-25.17-6.82-25.17-26.04v-14.63c0-.5-.25-.74-.74-.74h-3.22c-.74,0-1.24-.5-1.24-1.24v-17.11c0-.74.5-1.24,1.24-1.24h3.22c.5,0,.74-.25.74-.74v-15.38c0-.74.5-1.24,1.24-1.24h21.95Z"/><path d="M309.75,458.63c1.12,3.47,1.86,8.43,1.86,19.34,0,.74-.5,1.24-1.24,1.24h-35.09c-.5,0-.74.25-.74.74,0,.37.12.87.25,1.24,1.12,3.35,5.33,5.21,10.79,5.21,4.34,0,8.8-1.36,13.27-4.46.74-.5,1.24-.37,1.74.25l9.67,10.66c.5.5.37,1.36-.25,1.86-7.07,6.2-16.61,9.67-27.28,9.67-16,0-26.16-6.82-30.01-18.35-1.12-3.35-1.86-7.07-1.86-13.51s.74-10.17,1.86-13.52c3.84-11.78,13.89-18.35,28.39-18.35,15.62,0,24.92,6.45,28.64,17.98ZM274.9,461.61c-.25.74-.37,1.61-.37,2.98,0,.5.25.74.74.74h12.4c.5,0,.74-.25.74-.74,0-1.36-.12-2.23-.37-2.98-.87-2.73-3.1-4.22-6.57-4.22s-5.7,1.49-6.57,4.22Z"/><path d="M410.31,424.66c.62.37.87.99.87,1.74v20.33c0,.74-.5,1.24-1.24,1.24h-19.47c-.74,0-1.24-.5-1.24-1.24v-4.34c0-.74-.12-1.12-.99-1.49-1.36-.62-2.98-.99-5.46-.99-4.46,0-7.19,1.98-8.31,5.46-.62,1.98-1.24,4.09-1.24,15.38s.62,13.51,1.24,15.5c1.12,3.47,3.97,5.33,8.31,5.33,2.73,0,4.59-.37,5.7-.99.5-.25.74-.62.74-1.36v-4.71c0-.74.5-1.24,1.24-1.24h19.47c.74,0,1.24.5,1.24,1.24v20.71c0,.74-.12,1.24-.87,1.74-5.58,3.97-14.51,7.44-28.15,7.44-16.74,0-27.65-5.83-32.11-19.22-1.98-5.95-2.85-11.28-2.85-24.18,0-12.03.62-17.36,2.6-23.31,4.46-13.76,15.38-20.58,32.61-20.58,12.77,0,21.82,3.6,27.9,7.56Z"/><path d="M445.77,418.58c.74,0,1.24.5,1.24,1.24v28.02h.12c2.98-4.09,8.31-6.94,15.75-6.94,14.38,0,19.47,9.05,19.47,22.69v18.97c0,.5.25.74.74.74h3.1c.74,0,1.24.5,1.24,1.24v17.11c0,.74-.5,1.24-1.24,1.24h-30.75c-.74,0-1.24-.5-1.24-1.24v-17.11c0-.74.5-1.24,1.24-1.24h1.74c.5,0,.74-.25.74-.74v-15.38c0-4.09-2.11-6.2-5.46-6.2s-5.46,2.11-5.46,6.2v15.38c0,.5.25.74.74.74h1.74c.74,0,1.24.5,1.24,1.24v17.11c0,.74-.5,1.24-1.24,1.24h-31.12c-.74,0-1.24-.5-1.24-1.24v-17.11c0-.74.5-1.24,1.24-1.24h3.47c.5,0,.74-.25.74-.74v-43.65c0-.5-.25-.74-.74-.74h-3.47c-.74,0-1.24-.5-1.24-1.24v-17.11c0-.74.5-1.24,1.24-1.24h27.4Z"/><path d="M550.3,458.75c1.49,4.46,1.86,9.18,1.86,13.76s-.37,9.3-1.86,13.76c-3.97,12.28-15,18.1-28.89,18.1s-24.92-5.83-28.89-18.1c-1.49-4.46-1.86-9.17-1.86-13.76s.37-9.3,1.86-13.76c3.97-12.28,15-18.1,28.89-18.1s24.92,5.83,28.89,18.1ZM516.2,463.96c-.5,1.61-.74,3.47-.74,8.56s.25,6.94.74,8.56c.87,2.6,2.73,3.47,5.21,3.47s4.34-.87,5.21-3.47c.5-1.61.74-3.47.74-8.56s-.25-6.94-.74-8.56c-.87-2.6-2.73-3.47-5.21-3.47s-4.34.87-5.21,3.47Z"/><path d="M585.02,442.14c.74,0,1.24.5,1.24,1.24v39.18c0,.5.25.74.74.74h3.47c.74,0,1.24.5,1.24,1.24v17.11c0,.74-.5,1.24-1.24,1.24h-32.86c-.74,0-1.24-.5-1.24-1.24v-17.11c0-.74.5-1.24,1.24-1.24h3.47c.5,0,.74-.25.74-.74v-20.09c0-.5-.25-.74-.74-.74h-3.47c-.74,0-1.24-.5-1.24-1.24v-17.11c0-.74.5-1.24,1.24-1.24h27.4ZM585.02,418.58c.74,0,1.24.5,1.24,1.24v15.38c0,.74-.5,1.24-1.24,1.24h-21.95c-.74,0-1.24-.5-1.24-1.24v-15.38c0-.74.5-1.24,1.24-1.24h21.95Z"/><path d="M650.12,446.73c.99.62,1.12.99,1.12,2.11v15.87c0,.74-.5,1.24-1.24,1.24h-17.24c-.74,0-1.24-.5-1.24-1.24v-3.1c0-.5-.12-.74-.62-.99-.74-.37-2.11-.62-3.6-.62-3.1,0-5.08,1.12-5.95,3.72-.37,1.12-.62,3.22-.62,8.8s.25,7.69.62,8.8c.87,2.6,2.85,3.72,5.95,3.72,1.49,0,2.85-.25,3.6-.62.5-.25.62-.5.62-.99v-3.6c0-.74.5-1.24,1.24-1.24h17.24c.74,0,1.24.5,1.24,1.24v16.62c0,1.12-.37,1.61-.99,1.98-6.57,3.97-14.76,5.95-24.55,5.95-14.75,0-24.18-5.7-28.15-17.98-1.12-3.35-1.61-7.56-1.61-13.89s.5-10.17,1.61-13.52c3.97-12.28,14.01-18.35,28.15-18.35,9.42,0,17.98,2.11,24.43,6.08Z"/><path d="M715.59,458.63c1.12,3.47,1.86,8.43,1.86,19.34,0,.74-.5,1.24-1.24,1.24h-35.09c-.5,0-.74.25-.74.74,0,.37.12.87.25,1.24,1.12,3.35,5.33,5.21,10.79,5.21,4.34,0,8.8-1.36,13.27-4.46.74-.5,1.24-.37,1.74.25l9.67,10.66c.5.5.37,1.36-.25,1.86-7.07,6.2-16.61,9.67-27.28,9.67-16,0-26.16-6.82-30.01-18.35-1.12-3.35-1.86-7.07-1.86-13.51s.74-10.17,1.86-13.52c3.84-11.78,13.89-18.35,28.39-18.35,15.62,0,24.92,6.45,28.64,17.98ZM680.75,461.61c-.25.74-.37,1.61-.37,2.98,0,.5.25.74.74.74h12.4c.5,0,.74-.25.74-.74,0-1.36-.12-2.23-.37-2.98-.87-2.73-3.1-4.22-6.57-4.22s-5.7,1.49-6.57,4.22Z"/><path d="M46.63,536.29c.31,0,.51.2.51.51v7.04c0,.31-.2.51-.51.51h-1.58c-.2,0-.31.1-.31.25v18c0,.2.1.31.31.31h1.58c.31,0,.51.2.51.51v7.04c0,.31-.2.51-.51.51h-13.05c-.31,0-.51-.2-.51-.51v-7.04c0-.31.2-.51.51-.51h1.27c.2,0,.31-.1.31-.31v-8.21h-.25l-4.64,11.17c-.25.56-.61.66-.97.66h-4.49c-.36,0-.76-.15-.97-.66l-4.64-11.17h-.25v8.21c0,.2.1.31.31.31h1.27c.31,0,.51.2.51.51v7.04c0,.31-.2.51-.51.51H7.46c-.31,0-.51-.2-.51-.51v-7.04c0-.31.2-.51.51-.51h1.58c.2,0,.31-.1.31-.31v-17.95c0-.2-.1-.31-.31-.31h-1.58c-.31,0-.51-.2-.51-.51v-7.04c0-.31.2-.51.51-.51h11.58c.36,0,.71.1.87.51l7.19,16.17h.2l6.99-16.17c.15-.41.56-.51.87-.51h11.47Z"/><path d="M72.69,555.05v7.55c0,.2.1.31.31.31h1.27c.31,0,.51.2.51.51v7.04c0,.31-.2.51-.51.51h-10.71c-.31,0-.51-.2-.51-.51v-1.22h-.05c-1.38,1.43-3.31,2.35-6.48,2.35-4.13,0-7.96-2.24-7.96-7.7s4.74-8.36,10.96-8.36h3.26c.2,0,.31-.1.31-.31v-.71c0-1.12-.41-1.99-2.55-1.99-.61,0-1.07.1-1.27.15-.2.05-.31.15-.31.36v.76c0,.31-.2.51-.51.51h-7.65c-.31,0-.51-.2-.51-.51v-6.07c0-.31.05-.56.46-.71,2.45-.87,6.17-1.63,9.79-1.63,9.18,0,12.14,3.11,12.14,9.69ZM60.45,561.22c-1.53,0-2.4.71-2.4,1.79s.66,1.63,2.19,1.63c1.99,0,2.86-.56,2.86-1.79v-1.33c0-.2-.1-.31-.31-.31h-2.35Z"/><path d="M97.99,547.05c.31.1.41.25.41.51v5.76c0,.31-.2.51-.51.51h-7.45c-.31,0-.51-.2-.51-.51v-.71c0-.2-.1-.31-.31-.36-.51-.15-1.22-.2-1.89-.2-1.84,0-2.19.51-2.19,1.17,0,.56.1,1.02,2.04,1.22l2.8.31c7.24.77,9.43,3.57,9.43,7.85,0,6.43-5.3,8.98-12.34,8.98-3.88,0-7.29-.46-10.66-1.53-.25-.1-.36-.31-.36-.56v-6.22c0-.31.2-.51.51-.51h7.45c.31,0,.51.2.51.51v.92c0,.2.05.25.25.31.46.1,1.43.2,2.5.2,1.94,0,2.8-.36,2.8-1.33,0-.76-.41-1.12-2.5-1.33l-2.86-.31c-5.86-.61-8.87-3.06-8.87-8.01,0-5.46,4.08-8.36,11.58-8.36,3.62,0,7.5.61,10.15,1.68Z"/><path d="M112.83,538.84c.31,0,.51.2.51.51v6.32c0,.2.1.31.31.31h3.06c.31,0,.51.2.51.51v7.04c0,.31-.2.51-.51.51h-3.06c-.2,0-.31.1-.31.31v5.76c0,2.14.51,2.8,2.35,2.8h1.02c.31,0,.51.2.51.51v7.14c0,.31-.2.51-.51.51h-3.06c-7.5,0-10.35-2.8-10.35-10.71v-6.02c0-.2-.1-.31-.31-.31h-1.33c-.31,0-.51-.2-.51-.51v-7.04c0-.31.2-.51.51-.51h1.33c.2,0,.31-.1.31-.31v-6.32c0-.31.2-.51.51-.51h9.03Z"/><path d="M143.17,552.76c.46,1.43.77,3.47.77,7.96,0,.31-.2.51-.51.51h-14.43c-.2,0-.31.1-.31.31,0,.15.05.36.1.51.46,1.38,2.19,2.14,4.44,2.14,1.78,0,3.62-.56,5.46-1.84.31-.2.51-.15.71.1l3.98,4.39c.2.2.15.56-.1.77-2.91,2.55-6.83,3.98-11.22,3.98-6.58,0-10.76-2.8-12.34-7.55-.46-1.38-.77-2.91-.77-5.56s.31-4.18.77-5.56c1.58-4.84,5.71-7.55,11.68-7.55,6.42,0,10.25,2.65,11.78,7.39ZM128.84,553.98c-.1.31-.15.66-.15,1.22,0,.2.1.31.31.31h5.1c.2,0,.31-.1.31-.31,0-.56-.05-.92-.15-1.22-.36-1.12-1.27-1.73-2.7-1.73s-2.35.61-2.7,1.73Z"/><path d="M164.85,545.98c.41.1.56.2.56.66v8.92c0,.41-.46.46-.77.36-.71-.2-1.83-.51-2.86-.51-2.24,0-3.82,1.38-3.82,4.03v3.16c0,.2.1.31.31.31h1.58c.31,0,.51.2.51.51v7.04c0,.31-.2.51-.51.51h-13.67c-.31,0-.51-.2-.51-.51v-7.04c0-.31.2-.51.51-.51h1.43c.2,0,.31-.1.31-.31v-8.26c0-.2-.1-.31-.31-.31h-1.43c-.31,0-.51-.2-.51-.51v-7.04c0-.31.2-.51.51-.51h11.27c.31,0,.51.2.51.51v2.24h.05c.97-1.89,2.75-2.91,5.1-2.91.41,0,1.27.05,1.73.15Z"/><path d="M190.55,538.84c.31,0,.51.2.51.51v6.32c0,.2.1.31.31.31h3.06c.31,0,.51.2.51.51v7.04c0,.31-.2.51-.51.51h-3.06c-.2,0-.31.1-.31.31v5.76c0,2.14.51,2.8,2.35,2.8h1.02c.31,0,.51.2.51.51v7.14c0,.31-.2.51-.51.51h-3.06c-7.5,0-10.35-2.8-10.35-10.71v-6.02c0-.2-.1-.31-.31-.31h-1.33c-.31,0-.51-.2-.51-.51v-7.04c0-.31.2-.51.51-.51h1.33c.2,0,.31-.1.31-.31v-6.32c0-.31.2-.51.51-.51h9.03Z"/><path d="M208.14,536.29c.31,0,.51.2.51.51v11.53h.05c1.22-1.68,3.42-2.86,6.48-2.86,5.92,0,8.01,3.72,8.01,9.33v7.8c0,.2.1.31.31.31h1.28c.31,0,.51.2.51.51v7.04c0,.31-.2.51-.51.51h-12.65c-.31,0-.51-.2-.51-.51v-7.04c0-.31.2-.51.51-.51h.71c.2,0,.31-.1.31-.31v-6.32c0-1.68-.87-2.55-2.24-2.55s-2.24.87-2.24,2.55v6.32c0,.2.1.31.31.31h.71c.31,0,.51.2.51.51v7.04c0,.31-.2.51-.51.51h-12.8c-.31,0-.51-.2-.51-.51v-7.04c0-.31.2-.51.51-.51h1.43c.2,0,.31-.1.31-.31v-17.95c0-.2-.1-.31-.31-.31h-1.43c-.31,0-.51-.2-.51-.51v-7.04c0-.31.2-.51.51-.51h11.27Z"/><path d="M250.83,552.76c.46,1.43.77,3.47.77,7.96,0,.31-.2.51-.51.51h-14.43c-.2,0-.31.1-.31.31,0,.15.05.36.1.51.46,1.38,2.19,2.14,4.44,2.14,1.78,0,3.62-.56,5.46-1.84.31-.2.51-.15.71.1l3.98,4.39c.2.2.15.56-.1.77-2.91,2.55-6.83,3.98-11.22,3.98-6.58,0-10.76-2.8-12.34-7.55-.46-1.38-.77-2.91-.77-5.56s.31-4.18.77-5.56c1.58-4.84,5.71-7.55,11.68-7.55,6.42,0,10.25,2.65,11.78,7.39ZM236.5,553.98c-.1.31-.15.66-.15,1.22,0,.2.1.31.31.31h5.1c.2,0,.31-.1.31-.31,0-.56-.05-.92-.15-1.22-.36-1.12-1.27-1.73-2.7-1.73s-2.35.61-2.7,1.73Z"/><path d="M289.59,536.29c.36,0,.56.2.66.51l7.8,25.8c.05.2.15.31.36.31h1.58c.31,0,.51.2.51.51v7.04c0,.31-.2.51-.51.51h-13.31c-.31,0-.51-.2-.51-.51v-7.04c0-.31.2-.51.51-.51h.76c.15,0,.25-.1.2-.31l-.46-1.73h-8.31l-.41,1.68c-.05.25.1.36.31.36h.66c.31,0,.51.2.51.51v7.04c0,.31-.2.51-.51.51h-13.36c-.31,0-.51-.2-.51-.51v-7.04c0-.31.2-.51.51-.51h1.58c.2,0,.31-.1.36-.31l8.06-25.8c.1-.31.31-.51.66-.51h12.85ZM280.97,552.66h4.18l-1.99-7.96h-.15l-2.04,7.96Z"/><path d="M321.11,545.98c.41.1.56.2.56.66v8.92c0,.41-.46.46-.77.36-.71-.2-1.83-.51-2.86-.51-2.24,0-3.82,1.38-3.82,4.03v3.16c0,.2.1.31.31.31h1.58c.31,0,.51.2.51.51v7.04c0,.31-.2.51-.51.51h-13.67c-.31,0-.51-.2-.51-.51v-7.04c0-.31.2-.51.51-.51h1.43c.2,0,.31-.1.31-.31v-8.26c0-.2-.1-.31-.31-.31h-1.43c-.31,0-.51-.2-.51-.51v-7.04c0-.31.2-.51.51-.51h11.27c.31,0,.51.2.51.51v2.24h.05c.97-1.89,2.75-2.91,5.1-2.91.41,0,1.27.05,1.73.15Z"/><path d="M334.57,538.84c.31,0,.51.2.51.51v6.32c0,.2.1.31.31.31h3.06c.31,0,.51.2.51.51v7.04c0,.31-.2.51-.51.51h-3.06c-.2,0-.31.1-.31.31v5.76c0,2.14.51,2.8,2.35,2.8h1.02c.31,0,.51.2.51.51v7.14c0,.31-.2.51-.51.51h-3.06c-7.5,0-10.35-2.8-10.35-10.71v-6.02c0-.2-.1-.31-.31-.31h-1.33c-.31,0-.51-.2-.51-.51v-7.04c0-.31.2-.51.51-.51h1.33c.2,0,.31-.1.31-.31v-6.32c0-.31.2-.51.51-.51h9.03Z"/><path d="M377.46,552.81c.61,1.84.76,3.77.76,5.66s-.15,3.83-.76,5.66c-1.63,5.05-6.17,7.45-11.88,7.45s-10.25-2.4-11.88-7.45c-.61-1.84-.77-3.77-.77-5.66s.15-3.82.77-5.66c1.63-5.05,6.17-7.45,11.88-7.45s10.25,2.4,11.88,7.45ZM363.44,554.95c-.2.66-.31,1.43-.31,3.52s.1,2.86.31,3.52c.36,1.07,1.12,1.43,2.14,1.43s1.78-.36,2.14-1.43c.2-.66.31-1.43.31-3.52s-.1-2.86-.31-3.52c-.36-1.07-1.12-1.43-2.14-1.43s-1.79.36-2.14,1.43Z"/><path d="M395.92,536.29c.31,0,.51.2.51.51v6.48c0,.31-.2.51-.51.51h-1.43c-1.73,0-2.24.41-2.24,1.68v.2c0,.2.1.31.31.31h3.26c.31,0,.51.2.51.51v7.04c0,.31-.2.51-.51.51h-3.26c-.2,0-.31.1-.31.31v8.26c0,.2.1.31.31.31h2.5c.31,0,.51.2.51.51v7.04c0,.31-.2.51-.51.51h-14.58c-.31,0-.51-.2-.51-.51v-7.04c0-.31.2-.51.51-.51h1.43c.2,0,.31-.1.31-.31v-8.26c0-.2-.1-.31-.31-.31h-1.43c-.31,0-.51-.2-.51-.51v-7.04c0-.31.2-.51.51-.51h1.43c.2,0,.31-.1.31-.31v-.2c0-6.73,2.65-9.18,9.74-9.18h3.98Z"/><path d="M443.04,536.29c.31,0,.51.2.51.51v7.04c0,.31-.2.51-.51.51h-1.58c-.2,0-.31.1-.31.31v17.95c0,.2.1.31.31.31h1.58c.31,0,.51.2.51.51v7.04c0,.31-.2.51-.51.51h-14.33c-.31,0-.51-.2-.51-.51v-7.04c0-.31.2-.51.51-.51h1.58c.2,0,.31-.1.31-.31v-4.33c0-.2-.1-.31-.31-.31h-7.09c-.2,0-.31.1-.31.31v4.44c0,.15.1.2.31.2h1.58c.31,0,.51.2.51.51v7.04c0,.31-.2.51-.51.51h-14.33c-.31,0-.51-.2-.51-.51v-7.04c0-.31.2-.51.51-.51h1.58c.2,0,.31-.1.31-.31v-17.95c0-.2-.1-.31-.31-.31h-1.58c-.31,0-.51-.2-.51-.51v-7.04c0-.31.2-.51.51-.51h14.33c.31,0,.51.2.51.51v7.04c0,.31-.2.51-.51.51h-1.58c-.2,0-.31.1-.31.25v3.77c0,.2.1.31.31.31h7.09c.2,0,.31-.1.31-.31v-3.72c0-.2-.1-.31-.31-.31h-1.58c-.31,0-.51-.2-.51-.51v-7.04c0-.31.2-.51.51-.51h14.33Z"/><path d="M469.11,555.05v7.55c0,.2.1.31.31.31h1.27c.31,0,.51.2.51.51v7.04c0,.31-.2.51-.51.51h-10.71c-.31,0-.51-.2-.51-.51v-1.22h-.05c-1.38,1.43-3.31,2.35-6.48,2.35-4.13,0-7.96-2.24-7.96-7.7s4.74-8.36,10.96-8.36h3.26c.2,0,.31-.1.31-.31v-.71c0-1.12-.41-1.99-2.55-1.99-.61,0-1.07.1-1.27.15-.2.05-.31.15-.31.36v.76c0,.31-.2.51-.51.51h-7.65c-.31,0-.51-.2-.51-.51v-6.07c0-.31.05-.56.46-.71,2.45-.87,6.17-1.63,9.79-1.63,9.18,0,12.14,3.11,12.14,9.69ZM456.87,561.22c-1.53,0-2.4.71-2.4,1.79s.66,1.63,2.19,1.63c1.99,0,2.86-.56,2.86-1.79v-1.33c0-.2-.1-.31-.31-.31h-2.35Z"/><path d="M499.45,554.8v7.8c0,.2.1.31.31.31h1.28c.31,0,.51.2.51.51v7.04c0,.31-.2.51-.51.51h-12.65c-.31,0-.51-.2-.51-.51v-7.04c0-.31.2-.51.51-.51h.71c.2,0,.31-.1.31-.31v-6.32c0-1.63-.82-2.55-2.24-2.55-1.33,0-2.24.82-2.24,2.55v6.32c0,.2.1.31.31.31h.71c.31,0,.51.2.51.51v7.04c0,.31-.2.51-.51.51h-12.8c-.31,0-.51-.2-.51-.51v-7.04c0-.31.2-.51.51-.51h1.43c.2,0,.31-.1.31-.31v-8.26c0-.2-.1-.31-.31-.31h-1.43c-.31,0-.51-.2-.51-.51v-7.04c0-.31.2-.51.51-.51h11.27c.31,0,.51.2.51.51v1.84h.05c1.17-1.63,3.37-2.86,6.43-2.86,5.92,0,8.06,3.72,8.06,9.33Z"/><path d="M527.91,536.29c.31,0,.51.2.51.51v25.8c0,.2.1.31.31.31h1.43c.31,0,.51.2.51.51v7.04c0,.31-.2.51-.51.51h-11.27c-.31,0-.51-.2-.51-.51v-1.84h-.05c-1.07,1.79-3.16,2.86-6.22,2.86-4.23,0-6.68-2.04-7.9-5.86-.66-2.04-.87-4.23-.87-7.14s.2-5.1.87-7.14c1.22-3.83,3.67-5.86,7.9-5.86,3.06,0,5.15,1.07,6.22,2.86h.05v-3.67c0-.2-.1-.31-.31-.31h-1.43c-.31,0-.51-.2-.51-.51v-7.04c0-.31.2-.51.51-.51h11.27ZM513.78,554.95c-.2.66-.31,1.43-.31,3.52s.1,2.86.31,3.52c.36,1.07,1.12,1.43,2.14,1.43s1.78-.36,2.14-1.43c.2-.66.31-1.43.31-3.52s-.1-2.86-.31-3.52c-.36-1.07-1.12-1.43-2.14-1.43s-1.79.36-2.14,1.43Z"/><path d="M571.05,545.98c.31,0,.51.2.51.51v7.04c0,.31-.2.51-.51.51h-1.73c-.1,0-.15.05-.2.15l-5.61,16.27c-.1.36-.31.51-.61.51h-7.29c-.31,0-.51-.15-.61-.51l-3.06-11.17h-.1l-3.16,11.17c-.1.36-.31.51-.61.51h-7.29c-.31,0-.51-.15-.61-.51l-5.61-16.27c-.05-.1-.1-.15-.26-.15h-1.68c-.31,0-.51-.2-.51-.51v-7.04c0-.31.2-.51.51-.51h11.98c.31,0,.51.2.51.51v7.04c0,.31-.2.51-.51.51h-.92c-.1,0-.15.05-.1.2l1.33,4.59h.1l3.26-12.34c.1-.36.31-.51.71-.51h5.87c.41,0,.61.15.71.51l3.31,12.34h.1l1.28-4.59c.05-.15,0-.2-.1-.2h-.92c-.31,0-.51-.2-.51-.51v-7.04c0-.31.2-.51.51-.51h11.83Z"/><path d="M592.17,545.98c.41.1.56.2.56.66v8.92c0,.41-.46.46-.77.36-.71-.2-1.83-.51-2.86-.51-2.24,0-3.82,1.38-3.82,4.03v3.16c0,.2.1.31.31.31h1.58c.31,0,.51.2.51.51v7.04c0,.31-.2.51-.51.51h-13.67c-.31,0-.51-.2-.51-.51v-7.04c0-.31.2-.51.51-.51h1.43c.2,0,.31-.1.31-.31v-8.26c0-.2-.1-.31-.31-.31h-1.43c-.31,0-.51-.2-.51-.51v-7.04c0-.31.2-.51.51-.51h11.27c.31,0,.51.2.51.51v2.24h.05c.97-1.89,2.75-2.91,5.1-2.91.41,0,1.27.05,1.73.15Z"/><path d="M605.89,545.98c.31,0,.51.2.51.51v16.11c0,.2.1.31.31.31h1.43c.31,0,.51.2.51.51v7.04c0,.31-.2.51-.51.51h-13.51c-.31,0-.51-.2-.51-.51v-7.04c0-.31.2-.51.51-.51h1.43c.2,0,.31-.1.31-.31v-8.26c0-.2-.1-.31-.31-.31h-1.43c-.31,0-.51-.2-.51-.51v-7.04c0-.31.2-.51.51-.51h11.27ZM605.89,536.29c.31,0,.51.2.51.51v6.32c0,.31-.2.51-.51.51h-9.03c-.31,0-.51-.2-.51-.51v-6.32c0-.31.2-.51.51-.51h9.03Z"/><path d="M621.19,538.84c.31,0,.51.2.51.51v6.32c0,.2.1.31.31.31h3.06c.31,0,.51.2.51.51v7.04c0,.31-.2.51-.51.51h-3.06c-.2,0-.31.1-.31.31v5.76c0,2.14.51,2.8,2.35,2.8h1.02c.31,0,.51.2.51.51v7.14c0,.31-.2.51-.51.51h-3.06c-7.5,0-10.35-2.8-10.35-10.71v-6.02c0-.2-.1-.31-.31-.31h-1.33c-.31,0-.51-.2-.51-.51v-7.04c0-.31.2-.51.51-.51h1.33c.2,0,.31-.1.31-.31v-6.32c0-.31.2-.51.51-.51h9.03Z"/><path d="M638.78,545.98c.31,0,.51.2.51.51v16.11c0,.2.1.31.31.31h1.43c.31,0,.51.2.51.51v7.04c0,.31-.2.51-.51.51h-13.51c-.31,0-.51-.2-.51-.51v-7.04c0-.31.2-.51.51-.51h1.43c.2,0,.31-.1.31-.31v-8.26c0-.2-.1-.31-.31-.31h-1.43c-.31,0-.51-.2-.51-.51v-7.04c0-.31.2-.51.51-.51h11.27ZM638.78,536.29c.31,0,.51.2.51.51v6.32c0,.31-.2.51-.51.51h-9.03c-.31,0-.51-.2-.51-.51v-6.32c0-.31.2-.51.51-.51h9.03Z"/><path d="M669.79,554.8v7.8c0,.2.1.31.31.31h1.28c.31,0,.51.2.51.51v7.04c0,.31-.2.51-.51.51h-12.65c-.31,0-.51-.2-.51-.51v-7.04c0-.31.2-.51.51-.51h.71c.2,0,.31-.1.31-.31v-6.32c0-1.63-.82-2.55-2.24-2.55-1.33,0-2.24.82-2.24,2.55v6.32c0,.2.1.31.31.31h.71c.31,0,.51.2.51.51v7.04c0,.31-.2.51-.51.51h-12.8c-.31,0-.51-.2-.51-.51v-7.04c0-.31.2-.51.51-.51h1.43c.2,0,.31-.1.31-.31v-8.26c0-.2-.1-.31-.31-.31h-1.43c-.31,0-.51-.2-.51-.51v-7.04c0-.31.2-.51.51-.51h11.27c.31,0,.51.2.51.51v1.84h.05c1.17-1.63,3.37-2.86,6.43-2.86,5.92,0,8.06,3.72,8.06,9.33Z"/><path d="M688.35,548.32h.05v-1.84c0-.31.2-.51.51-.51h11.27c.31,0,.51.2.51.51v7.04c0,.31-.2.51-.51.51h-1.43c-.2,0-.31.1-.31.25v11.47c0,11.17-4.79,14.99-14.02,14.99-4.28,0-8.62-1.94-10.2-3.98-.2-.25-.15-.56.05-.76l5-5.2c.26-.25.51-.25.77-.05,1.43,1.12,2.7,1.84,4.59,1.84,2.65,0,3.77-1.33,3.77-4.59v-1.63h-.05c-1.07,1.79-3.26,2.86-6.22,2.86-4.08,0-6.68-1.94-7.96-5.81-.51-1.63-.82-3.52-.82-6.07s.31-4.44.82-6.07c1.27-3.88,3.88-5.81,7.96-5.81,2.96,0,5.15,1.07,6.22,2.86ZM683.76,555.1c-.15.46-.25.97-.25,2.24s.1,1.78.25,2.24c.36,1.12,1.02,1.58,2.19,1.58s1.84-.46,2.19-1.58c.15-.46.26-.97.26-2.24s-.1-1.79-.26-2.24c-.36-1.12-1.02-1.58-2.19-1.58s-1.84.46-2.19,1.58Z"/></svg>