<?xml version="1.0" encoding="UTF-8"?><svg id="Layer_1" xmlns="http://www.w3.org/2000/svg" viewBox="0 0 1044.04 586.02"><defs><style>.cls-1{fill:#183964;}.cls-2{fill:#f8b417;}.cls-3{fill:#231f20;}.cls-4{fill:#e02027;}.cls-5{fill:#0a6b37;}</style></defs><rect class="cls-5" x="84.06" y="382.4" width="363.98" height="5.78"/><path class="cls-1" d="M180.86,3.4v474.59h-36.69V3.4h36.69Z"/><path class="cls-1" d="M291,3.4h130.79c50.05,0,88.38,11.21,115,33.63,26.61,22.42,39.91,53,39.91,91.73s-13.42,70.21-40.25,93.08c-26.84,22.88-66.2,34.31-118.06,34.31h-90.7v221.84h-36.69V3.4ZM327.69,33.97v191.6h88.33c39.63,0,69.76-8.38,90.37-25.14,20.61-16.76,30.91-40.43,30.91-71s-10.08-52.43-30.23-69.64c-20.16-17.21-49.04-25.82-86.63-25.82h-92.74Z"/><path class="cls-1" d="M824.63,0l219.41,477.99h-38.49l-75.08-164.09h-232.1l-74.8,164.09h-38.5L804.47,0h20.16ZM916.48,283.33l-102.26-223.54-101.92,223.54h204.18Z"/><circle class="cls-2" cx="226.16" cy="120.59" r="41.98"/><circle class="cls-4" cx="486.58" cy="295.97" r="41.98"/><circle class="cls-5" cx="41.98" cy="385.29" r="41.98"/><circle class="cls-5" cx="234.82" cy="385.29" r="41.98"/><circle class="cls-5" cx="417.3" cy="385.29" r="41.98"/><circle class="cls-4" cx="629.96" cy="295.97" r="41.98"/><circle class="cls-4" cx="853.86" cy="295.97" r="41.98"/><circle class="cls-2" cx="428.06" cy="120.59" r="41.98"/><circle class="cls-2" cx="673.65" cy="120.59" r="41.98"/><rect class="cls-4" x="528.56" y="291.13" width="285.99" height="5.78"/><path class="cls-3" d="M218.09,519.43v7.36h-20.3v12.59h20.3v7.43h-20.3v21.35h-9.42v-48.73h29.72Z"/><path class="cls-3" d="M250.22,518.8c5.05,0,9.59,1.04,13.62,3.12,4.03,2.08,7.25,5.08,9.64,9,2.4,3.92,3.59,8.21,3.59,12.89s-1.17,8.79-3.51,12.68c-2.34,3.9-5.55,6.92-9.63,9.07-4.08,2.15-8.68,3.23-13.8,3.23s-9.63-1.09-13.76-3.28c-4.13-2.19-7.34-5.19-9.65-9.02-2.3-3.83-3.45-8.05-3.45-12.68s1.15-8.66,3.45-12.59,5.48-6.98,9.52-9.16c4.05-2.17,8.7-3.26,13.95-3.26ZM233.02,543.81c0,3.23.73,6.14,2.2,8.72,1.46,2.58,3.51,4.58,6.12,6,2.62,1.42,5.58,2.13,8.88,2.13,5,0,9.11-1.57,12.33-4.71,3.22-3.14,4.83-7.19,4.83-12.14,0-3.23-.73-6.14-2.18-8.74-1.45-2.59-3.5-4.6-6.14-6.02-2.64-1.42-5.61-2.13-8.91-2.13s-6.27.72-8.91,2.15c-2.64,1.43-4.67,3.43-6.09,6-1.42,2.57-2.13,5.48-2.13,8.74Z"/><path class="cls-3" d="M302.02,519.43c4.58,0,8.31,1.27,11.2,3.8,2.88,2.54,4.33,5.84,4.33,9.91,0,2.77-.72,5.18-2.15,7.24s-3.55,3.68-6.37,4.87c1.56.84,2.94,1.98,4.15,3.42,1.21,1.44,2.71,3.87,4.5,7.29,2.98,5.91,5.19,9.98,6.63,12.21h-10.5c-.72-1.07-1.7-2.78-2.93-5.13-2.7-5.19-4.67-8.68-5.93-10.48-1.26-1.8-2.47-3.08-3.63-3.84-1.16-.76-2.5-1.13-4.01-1.13h-3.42v20.58h-9.42v-48.73h17.55ZM299.89,540.22c2.46,0,4.4-.62,5.81-1.85,1.41-1.23,2.11-2.92,2.11-5.06s-.7-3.9-2.09-5.01c-1.4-1.1-3.38-1.66-5.96-1.66h-5.86v13.57h6Z"/><path class="cls-3" d="M385.03,519.43l21.52,48.73h-9.94l-5.06-11.86h-21.66l-4.71,11.86h-9.87l20.09-48.73h9.63ZM372.75,549.15h15.73l-8.23-19.29-7.5,19.29Z"/><path class="cls-3" d="M459.98,519.43c4.46,0,8.1,1.16,10.92,3.49,2.81,2.33,4.22,5.23,4.22,8.72,0,2.23-.59,4.2-1.76,5.9s-2.88,3.05-5.11,4.05v.42c3.4.77,6.04,2.29,7.94,4.55,1.9,2.27,2.84,4.92,2.84,7.97,0,2.7-.69,5.11-2.08,7.24-1.38,2.13-3.3,3.73-5.76,4.8-2.45,1.07-5.34,1.6-8.67,1.6h-20.41v-48.73h17.86ZM457.47,539.66c2.49,0,4.45-.59,5.9-1.78,1.44-1.19,2.16-2.84,2.16-4.95,0-1.88-.66-3.38-1.99-4.48-1.33-1.1-3.07-1.66-5.23-1.66h-6.77v12.87h5.93ZM459.66,560.8c3.19,0,5.59-.6,7.22-1.8,1.63-1.2,2.44-2.96,2.44-5.28,0-2.07-.81-3.7-2.42-4.9-1.62-1.2-3.78-1.8-6.51-1.8h-8.86v13.78h8.13Z"/><path class="cls-3" d="M503.09,519.43c4.58,0,8.31,1.27,11.2,3.8,2.88,2.54,4.33,5.84,4.33,9.91,0,2.77-.72,5.18-2.15,7.24s-3.55,3.68-6.37,4.87c1.56.84,2.94,1.98,4.15,3.42,1.21,1.44,2.71,3.87,4.5,7.29,2.98,5.91,5.19,9.98,6.63,12.21h-10.5c-.72-1.07-1.7-2.78-2.93-5.13-2.7-5.19-4.67-8.68-5.93-10.48-1.26-1.8-2.47-3.08-3.63-3.84-1.16-.76-2.5-1.13-4.01-1.13h-3.42v20.58h-9.42v-48.73h17.55ZM500.96,540.22c2.46,0,4.4-.62,5.81-1.85,1.41-1.23,2.11-2.92,2.11-5.06s-.7-3.9-2.09-5.01c-1.4-1.1-3.38-1.66-5.96-1.66h-5.86v13.57h6Z"/><path class="cls-3" d="M539.75,519.43v48.73h-9.42v-48.73h9.42Z"/><path class="cls-3" d="M574.85,518.8c6,0,11.95,1.34,17.86,4.01v8.62c-5.91-3-11.72-4.5-17.44-4.5-3.56,0-6.72.71-9.49,2.13-2.77,1.42-4.91,3.46-6.44,6.12-1.52,2.66-2.28,5.63-2.28,8.91,0,4.98,1.66,8.98,4.97,12.02,3.31,3.04,7.68,4.55,13.1,4.55,1.49,0,2.91-.13,4.27-.38s2.98-.74,4.87-1.46v-8.09h-8.06v-7.36h17.48v20.09c-2.4,1.67-5.27,2.98-8.63,3.92-3.36.94-6.85,1.41-10.48,1.41-5.14,0-9.8-1.06-13.97-3.17s-7.43-5.08-9.77-8.9c-2.34-3.81-3.51-8.07-3.51-12.77s1.18-9.08,3.54-12.94c2.36-3.86,5.65-6.86,9.87-9s8.92-3.21,14.11-3.21Z"/><path class="cls-3" d="M611.72,519.43v20.51h25.29v-20.51h9.42v48.73h-9.42v-20.58h-25.29v20.58h-9.42v-48.73h9.42Z"/><path class="cls-3" d="M696.17,519.43v7.36h-17.3v41.37h-9.42v-41.37h-17.3v-7.36h44.02Z"/><path class="cls-3" d="M765.75,519.43v7.36h-20.3v12.59h20.3v7.43h-20.3v21.35h-9.42v-48.73h29.72Z"/><path class="cls-3" d="M781.97,519.43v28.36c0,2.91.44,5.22,1.31,6.94.87,1.72,2.3,3.14,4.27,4.26s4.28,1.67,6.91,1.67c2.88,0,5.33-.53,7.34-1.59,2.01-1.06,3.48-2.5,4.41-4.33.93-1.83,1.4-4.35,1.4-7.59v-27.73h9.42v28.95c0,6.56-1.96,11.6-5.89,15.12-3.93,3.52-9.49,5.28-16.67,5.28-4.51,0-8.42-.8-11.74-2.41-3.31-1.6-5.84-3.92-7.59-6.96-1.74-3.04-2.62-6.6-2.62-10.69v-29.3h9.45Z"/><path class="cls-3" d="M866.42,519.43v7.36h-17.3v41.37h-9.42v-41.37h-17.3v-7.36h44.02Z"/><path class="cls-3" d="M881.21,519.43v28.36c0,2.91.44,5.22,1.31,6.94.87,1.72,2.3,3.14,4.27,4.26s4.28,1.67,6.91,1.67c2.88,0,5.33-.53,7.34-1.59,2.01-1.06,3.48-2.5,4.41-4.33.93-1.83,1.39-4.35,1.39-7.59v-27.73h9.42v28.95c0,6.56-1.97,11.6-5.9,15.12-3.93,3.52-9.49,5.28-16.67,5.28-4.51,0-8.42-.8-11.74-2.41s-5.84-3.92-7.59-6.96c-1.74-3.04-2.62-6.6-2.62-10.69v-29.3h9.45Z"/><path class="cls-3" d="M942.78,519.43c4.58,0,8.31,1.27,11.2,3.8,2.88,2.54,4.33,5.84,4.33,9.91,0,2.77-.72,5.18-2.15,7.24-1.43,2.06-3.55,3.68-6.37,4.87,1.56.84,2.94,1.98,4.15,3.42,1.21,1.44,2.71,3.87,4.5,7.29,2.98,5.91,5.19,9.98,6.63,12.21h-10.5c-.72-1.07-1.7-2.78-2.93-5.13-2.7-5.19-4.67-8.68-5.93-10.48-1.26-1.8-2.46-3.08-3.63-3.84s-2.5-1.13-4.01-1.13h-3.42v20.58h-9.42v-48.73h17.55ZM940.65,540.22c2.46,0,4.4-.62,5.81-1.85,1.41-1.23,2.11-2.92,2.11-5.06s-.7-3.9-2.09-5.01c-1.4-1.1-3.38-1.66-5.96-1.66h-5.86v13.57h6Z"/><path class="cls-3" d="M1001.31,519.43v7.36h-22.08v12.8h21.14v7.36h-21.14v13.85h22.57v7.36h-31.99v-48.73h31.5Z"/><rect class="cls-2" x="267.7" y="114.81" width="363.98" height="5.78"/></svg>