<?xml version="1.0" encoding="UTF-8"?><svg id="Layer_1" xmlns="http://www.w3.org/2000/svg" viewBox="0 0 1006.5 1006.5"><defs><style>.cls-1{fill:#fff;}.cls-2{fill:red;isolation:isolate;}</style></defs><g id="Layer_2"><g id="Layer_4"><circle class="cls-2" cx="503.25" cy="503.25" r="503.25"/></g><g id="Layer_3"><g><g><path class="cls-1" d="M549.04,421.58l-44.06-31.87-43.9,31.7c-17.59,12.7-41.11-4.65-34.18-25.21l17.07-50.63-43.4-31.4c-17.47-12.64-8.61-40.26,12.96-40.37l54.74-.28,17.49-51.87c6.89-20.44,35.89-20.16,42.39,.41l16.14,51.08,53.43-.27c21.69-.11,30.75,27.68,13.17,40.38l-43.9,31.7,16.39,51.85c6.47,20.49-16.92,37.38-34.33,24.79Z"/><g><path class="cls-1" d="M574.22,218.05c-3.42,0-6.75-1.28-8.66-3.61-12.81-15.64-35.18-24.98-59.84-24.98s-47.03,9.34-59.84,24.98c-2.9,3.54-9.12,4.67-13.9,2.52-4.78-2.15-6.3-6.76-3.4-10.3,16.52-20.16,45.35-32.19,77.14-32.19s60.63,12.04,77.14,32.19c2.9,3.54,1.38,8.15-3.4,10.3-1.64,.74-3.45,1.09-5.24,1.09Z"/><path class="cls-1" d="M400.25,201.45c-1.79,0-3.6-.35-5.24-1.09-4.78-2.15-6.3-6.76-3.4-10.3,24.43-29.82,67.09-47.62,114.1-47.62s89.67,17.8,114.1,47.61c2.9,3.54,1.38,8.15-3.4,10.3-4.77,2.15-11,1.02-13.9-2.52-20.73-25.3-56.92-40.4-96.81-40.4s-76.08,15.1-96.81,40.4c-1.9,2.32-5.24,3.61-8.66,3.61Z"/><path class="cls-1" d="M649,184.48c-3.42,0-6.75-1.28-8.66-3.61-28.82-35.18-79.15-56.19-134.62-56.19s-105.79,21-134.62,56.18c-2.9,3.54-9.12,4.67-13.9,2.52-4.78-2.15-6.3-6.76-3.4-10.3,32.53-39.7,89.32-63.4,151.91-63.4s119.39,23.7,151.92,63.4c2.9,3.54,1.38,8.15-3.4,10.3-1.64,.74-3.45,1.09-5.24,1.09Z"/></g></g><g><path class="cls-1" d="M169.13,590.32h-27.36v41.74c0,5.97-1.41,10.49-4.22,13.58-2.82,3.08-6.37,4.63-10.66,4.63s-8.11-1.53-10.86-4.58c-2.75-3.05-4.12-7.53-4.12-13.43v-113.65c0-6.57,1.51-11.26,4.53-14.08,3.02-2.82,7.81-4.22,14.38-4.22h38.32c11.33,0,20.05,.87,26.15,2.61,6.03,1.68,11.25,4.46,15.64,8.35,4.39,3.89,7.73,8.65,10.01,14.28,2.28,5.63,3.42,11.97,3.42,19.01,0,15.02-4.63,26.4-13.88,34.14s-23.03,11.62-41.33,11.62Zm-7.24-67.58h-20.11v45.06h20.11c7.04,0,12.92-.74,17.65-2.21,4.73-1.47,8.33-3.89,10.81-7.24,2.48-3.35,3.72-7.74,3.72-13.17,0-6.5-1.91-11.8-5.73-15.89-4.29-4.36-13.11-6.54-26.45-6.54Z"/><path class="cls-1" d="M276.29,514.48v40.73c3.49-4.02,6.89-7.21,10.21-9.55,3.32-2.35,6.99-4.11,11.01-5.28,4.02-1.17,8.35-1.76,12.97-1.76,6.97,0,13.16,1.48,18.55,4.43,5.4,2.95,9.64,7.24,12.72,12.87,1.94,3.29,3.25,6.96,3.92,11.01,.67,4.06,1.01,8.73,1.01,14.03v52.6c0,5.5-1.26,9.66-3.77,12.47-2.51,2.82-5.85,4.22-10.01,4.22-9.05,0-13.58-5.56-13.58-16.7v-46.36c0-8.78-1.31-15.54-3.92-20.26-2.62-4.73-7.58-7.09-14.88-7.09-4.9,0-9.3,1.39-13.23,4.17-3.92,2.78-6.86,6.59-8.8,11.42-1.48,4.09-2.21,11.36-2.21,21.82v36.31c0,5.43-1.22,9.57-3.67,12.42-2.45,2.85-5.85,4.27-10.21,4.27-9.05,0-13.58-5.56-13.58-16.7v-119.08c0-5.56,1.19-9.74,3.57-12.52,2.38-2.78,5.72-4.17,10.01-4.17s7.76,1.41,10.21,4.22c2.45,2.82,3.67,6.97,3.67,12.47Z"/><path class="cls-1" d="M478.69,594.44c0,8.18-1.27,15.72-3.82,22.63-2.55,6.91-6.24,12.84-11.06,17.8-4.83,4.96-10.59,8.77-17.3,11.42-6.71,2.65-14.25,3.97-22.63,3.97s-15.79-1.34-22.43-4.02c-6.64-2.68-12.39-6.52-17.25-11.52-4.86-4.99-8.55-10.89-11.06-17.7-2.51-6.8-3.77-14.33-3.77-22.58s1.27-15.92,3.82-22.83c2.55-6.91,6.2-12.81,10.96-17.7,4.76-4.89,10.53-8.67,17.3-11.31,6.77-2.65,14.25-3.97,22.43-3.97s15.86,1.34,22.63,4.02c6.77,2.68,12.57,6.5,17.4,11.46,4.83,4.96,8.5,10.86,11.01,17.7,2.51,6.84,3.77,14.38,3.77,22.63Zm-27.56,0c0-11.2-2.46-19.91-7.39-26.15s-11.55-9.35-19.86-9.35c-5.36,0-10.09,1.39-14.18,4.17-4.09,2.78-7.24,6.89-9.45,12.32-2.21,5.43-3.32,11.77-3.32,19.01s1.09,13.44,3.27,18.81c2.18,5.36,5.3,9.47,9.35,12.32,4.06,2.85,8.83,4.27,14.33,4.27,8.31,0,14.94-3.13,19.86-9.4,4.93-6.27,7.39-14.93,7.39-26Z"/><path class="cls-1" d="M527.31,553.81v3.32c4.83-6.37,10.11-11.05,15.84-14.03,5.73-2.98,12.32-4.48,19.76-4.48s13.71,1.58,19.41,4.73c5.7,3.15,9.96,7.61,12.77,13.38,1.81,3.35,2.98,6.97,3.52,10.86,.54,3.89,.8,8.85,.8,14.88v51.09c0,5.5-1.26,9.66-3.77,12.47-2.51,2.82-5.78,4.22-9.81,4.22s-7.41-1.44-9.96-4.33c-2.55-2.88-3.82-7-3.82-12.37v-45.76c0-9.05-1.26-15.97-3.77-20.77-2.51-4.79-7.53-7.19-15.04-7.19-4.9,0-9.35,1.46-13.38,4.38-4.02,2.92-6.97,6.92-8.85,12.02-1.34,4.09-2.01,11.73-2.01,22.93v34.4c0,5.57-1.29,9.74-3.87,12.52s-5.92,4.17-10.01,4.17-7.21-1.44-9.75-4.33c-2.55-2.88-3.82-7-3.82-12.37v-79.35c0-5.23,1.14-9.13,3.42-11.72,2.28-2.58,5.4-3.87,9.35-3.87,2.41,0,4.59,.57,6.54,1.71,1.94,1.14,3.5,2.85,4.68,5.13,1.17,2.28,1.76,5.06,1.76,8.35Z"/><path class="cls-1" d="M642.72,525.85c-3.82,0-7.09-1.17-9.81-3.52-2.72-2.35-4.07-5.67-4.07-9.96,0-3.89,1.39-7.09,4.17-9.6,2.78-2.51,6.02-3.77,9.71-3.77s6.7,1.14,9.45,3.42c2.75,2.28,4.12,5.6,4.12,9.96s-1.34,7.53-4.02,9.91c-2.68,2.38-5.87,3.57-9.55,3.57Zm13.58,28.36v79.35c0,5.5-1.31,9.66-3.92,12.47-2.62,2.82-5.93,4.22-9.96,4.22s-7.29-1.44-9.81-4.33-3.77-7-3.77-12.37v-78.55c0-5.43,1.26-9.52,3.77-12.27,2.51-2.75,5.78-4.12,9.81-4.12s7.34,1.38,9.96,4.12c2.61,2.75,3.92,6.57,3.92,11.46Z"/><path class="cls-1" d="M785.18,616.26c0,3.42-1.02,7.08-3.07,10.96-2.05,3.89-5.16,7.59-9.35,11.11-4.19,3.52-9.47,6.35-15.84,8.5-6.37,2.15-13.54,3.22-21.52,3.22-16.96,0-30.21-4.94-39.73-14.83-9.52-9.89-14.28-23.15-14.28-39.78,0-11.26,2.18-21.22,6.54-29.87,4.36-8.65,10.66-15.34,18.91-20.06,8.25-4.73,18.1-7.09,29.57-7.09,7.11,0,13.63,1.04,19.56,3.12,5.93,2.08,10.96,4.76,15.09,8.05,4.12,3.29,7.27,6.79,9.45,10.51,2.18,3.72,3.27,7.19,3.27,10.41s-1.22,6.07-3.67,8.35c-2.45,2.28-5.42,3.42-8.9,3.42-2.28,0-4.17-.59-5.68-1.76-1.51-1.17-3.2-3.07-5.08-5.68-3.35-5.09-6.86-8.92-10.51-11.46-3.66-2.55-8.3-3.82-13.93-3.82-8.11,0-14.65,3.17-19.61,9.5-4.96,6.34-7.44,15-7.44,26,0,5.16,.64,9.91,1.91,14.23,1.27,4.32,3.12,8.01,5.53,11.06,2.41,3.05,5.33,5.37,8.75,6.94,3.42,1.58,7.17,2.36,11.26,2.36,5.5,0,10.21-1.27,14.13-3.82,3.92-2.55,7.39-6.44,10.41-11.67,1.67-3.08,3.49-5.5,5.43-7.24,1.94-1.74,4.32-2.62,7.14-2.62,3.35,0,6.13,1.27,8.35,3.82,2.21,2.55,3.32,5.26,3.32,8.15Z"/><path class="cls-1" d="M899.58,614.35c0,7.58-1.84,14.06-5.53,19.46-3.69,5.4-9.14,9.49-16.34,12.27-7.21,2.78-15.97,4.17-26.3,4.17s-18.3-1.51-25.34-4.53c-7.04-3.02-12.24-6.79-15.59-11.31-3.35-4.53-5.03-9.07-5.03-13.63,0-3.02,1.07-5.6,3.22-7.74s4.86-3.22,8.15-3.22c2.88,0,5.09,.7,6.64,2.11,1.54,1.41,3.02,3.39,4.43,5.93,2.82,4.9,6.18,8.55,10.11,10.96,3.92,2.41,9.27,3.62,16.04,3.62,5.5,0,10.01-1.22,13.53-3.67,3.52-2.45,5.28-5.25,5.28-8.4,0-4.83-1.83-8.35-5.48-10.56-3.66-2.21-9.67-4.32-18.05-6.34-9.45-2.35-17.15-4.81-23.08-7.39-5.93-2.58-10.68-5.98-14.23-10.21-3.55-4.22-5.33-9.42-5.33-15.59,0-5.5,1.64-10.69,4.93-15.59,3.28-4.89,8.13-8.8,14.53-11.72,6.4-2.92,14.13-4.38,23.18-4.38,7.11,0,13.49,.74,19.16,2.21,5.67,1.48,10.39,3.45,14.18,5.93,3.79,2.48,6.67,5.23,8.65,8.25,1.98,3.02,2.97,5.97,2.97,8.85,0,3.15-1.06,5.73-3.17,7.74-2.11,2.01-5.11,3.02-9,3.02-2.82,0-5.21-.8-7.19-2.41-1.98-1.61-4.24-4.02-6.79-7.24-2.08-2.68-4.53-4.83-7.34-6.44-2.82-1.61-6.64-2.41-11.46-2.41s-9.09,1.06-12.37,3.17c-3.29,2.11-4.93,4.74-4.93,7.89,0,2.88,1.21,5.25,3.62,7.09,2.41,1.84,5.67,3.37,9.75,4.58,4.09,1.21,9.72,2.68,16.9,4.42,8.51,2.08,15.47,4.56,20.87,7.44,5.4,2.88,9.49,6.29,12.27,10.21,2.78,3.92,4.17,8.4,4.17,13.43Z"/><path class="cls-1" d="M415.81,774.23c0,8.92-2.3,16.93-6.89,24.04-4.59,7.11-11.31,12.67-20.17,16.69-8.85,4.02-19.34,6.04-31.48,6.04-14.55,0-26.55-2.75-36-8.25-6.71-3.96-12.15-9.24-16.34-15.84-4.19-6.6-6.29-13.02-6.29-19.26,0-3.62,1.26-6.72,3.77-9.3,2.51-2.58,5.72-3.87,9.61-3.87,3.15,0,5.82,1.01,8,3.02,2.18,2.01,4.04,5,5.58,8.95,1.88,4.69,3.9,8.62,6.08,11.77,2.18,3.15,5.25,5.75,9.2,7.79,3.96,2.05,9.15,3.07,15.59,3.07,8.85,0,16.04-2.06,21.57-6.19s8.3-9.27,8.3-15.44c0-4.89-1.49-8.87-4.48-11.92-2.98-3.05-6.84-5.38-11.57-6.99-4.73-1.61-11.05-3.32-18.96-5.13-10.59-2.48-19.46-5.38-26.6-8.7-7.14-3.32-12.81-7.84-17-13.58-4.19-5.73-6.29-12.86-6.29-21.37s2.21-15.32,6.64-21.62c4.43-6.3,10.83-11.15,19.21-14.53,8.38-3.39,18.24-5.08,29.57-5.08,9.05,0,16.88,1.12,23.48,3.37,6.6,2.25,12.08,5.23,16.44,8.95,4.36,3.72,7.54,7.63,9.55,11.72,2.01,4.09,3.02,8.08,3.02,11.97,0,3.55-1.26,6.76-3.77,9.6-2.51,2.85-5.65,4.27-9.4,4.27-3.42,0-6.02-.86-7.79-2.56-1.78-1.71-3.71-4.51-5.78-8.4-2.68-5.56-5.9-9.91-9.66-13.02-3.76-3.12-9.79-4.68-18.1-4.68-7.71,0-13.93,1.69-18.66,5.08-4.73,3.39-7.09,7.46-7.09,12.22,0,2.95,.8,5.5,2.41,7.64,1.61,2.15,3.82,3.99,6.64,5.53,2.82,1.54,5.67,2.75,8.55,3.62,2.88,.87,7.64,2.15,14.28,3.82,8.31,1.95,15.84,4.09,22.58,6.44,6.74,2.35,12.47,5.2,17.2,8.55,4.73,3.35,8.41,7.59,11.06,12.72,2.65,5.13,3.97,11.42,3.97,18.86Z"/><path class="cls-1" d="M442.81,711.78h3.02v-16.49c0-4.42,.12-7.89,.35-10.41,.23-2.51,.89-4.68,1.96-6.49,1.07-1.88,2.62-3.4,4.63-4.58,2.01-1.17,4.26-1.76,6.74-1.76,3.49,0,6.64,1.31,9.45,3.92,1.88,1.74,3.07,3.87,3.57,6.39,.5,2.51,.75,6.08,.75,10.71v18.71h10.06c3.89,0,6.85,.92,8.9,2.77,2.04,1.84,3.07,4.21,3.07,7.09,0,3.69-1.46,6.27-4.38,7.74-2.92,1.48-7.09,2.21-12.52,2.21h-5.13v50.49c0,4.29,.15,7.59,.45,9.91s1.11,4.19,2.41,5.63c1.31,1.44,3.43,2.16,6.39,2.16,1.61,0,3.79-.29,6.54-.86,2.75-.57,4.89-.85,6.44-.85,2.21,0,4.21,.89,5.98,2.67,1.78,1.78,2.67,3.97,2.67,6.59,0,4.42-2.41,7.81-7.24,10.16-4.83,2.35-11.77,3.52-20.82,3.52-8.58,0-15.09-1.44-19.51-4.33s-7.33-6.87-8.7-11.97c-1.38-5.09-2.06-11.9-2.06-20.42v-52.7h-3.62c-3.96,0-6.97-.94-9.05-2.82-2.08-1.88-3.12-4.26-3.12-7.14s1.09-5.25,3.27-7.09c2.18-1.84,5.35-2.77,9.5-2.77Z"/><path class="cls-1" d="M585.67,805.51c-6.64,5.16-13.06,9.04-19.26,11.62-6.2,2.58-13.16,3.87-20.87,3.87-7.04,0-13.23-1.39-18.56-4.17s-9.44-6.55-12.32-11.31c-2.88-4.76-4.32-9.92-4.32-15.49,0-7.51,2.38-13.91,7.14-19.21,4.76-5.3,11.3-8.85,19.61-10.66,1.74-.4,6.07-1.31,12.97-2.72,6.91-1.41,12.82-2.7,17.75-3.87,4.93-1.17,10.27-2.6,16.04-4.27-.34-7.24-1.79-12.55-4.38-15.94-2.58-3.38-7.93-5.08-16.04-5.08-6.97,0-12.22,.97-15.74,2.92-3.52,1.95-6.54,4.86-9.05,8.75-2.51,3.89-4.29,6.45-5.33,7.69-1.04,1.24-3.27,1.86-6.69,1.86-3.08,0-5.75-.99-8-2.97-2.25-1.98-3.37-4.51-3.37-7.59,0-4.83,1.71-9.52,5.13-14.08,3.42-4.56,8.75-8.31,15.99-11.26,7.24-2.95,16.26-4.43,27.05-4.43,12.07,0,21.56,1.43,28.46,4.27,6.9,2.85,11.78,7.36,14.63,13.53,2.85,6.17,4.27,14.35,4.27,24.54,0,6.44-.02,11.9-.05,16.39-.03,4.49-.08,9.49-.15,14.99,0,5.16,.85,10.54,2.56,16.14,1.71,5.6,2.56,9.2,2.56,10.81,0,2.82-1.32,5.38-3.97,7.69-2.65,2.31-5.65,3.47-9,3.47-2.82,0-5.6-1.33-8.35-3.97-2.75-2.65-5.67-6.49-8.75-11.52Zm-1.81-39.73c-4.02,1.48-9.87,3.04-17.55,4.68-7.68,1.64-12.99,2.85-15.94,3.62-2.95,.77-5.77,2.28-8.45,4.53-2.68,2.25-4.02,5.38-4.02,9.4s1.57,7.69,4.73,10.61c3.15,2.92,7.27,4.38,12.37,4.38,5.43,0,10.44-1.19,15.04-3.57,4.59-2.38,7.96-5.45,10.11-9.2,2.48-4.16,3.72-11,3.72-20.52v-3.92Z"/><path class="cls-1" d="M667.99,781.37v22.93c0,5.57-1.31,9.74-3.92,12.52-2.62,2.78-5.93,4.17-9.96,4.17s-7.21-1.41-9.75-4.22c-2.55-2.82-3.82-6.97-3.82-12.47v-76.43c0-12.34,4.46-18.51,13.38-18.51,4.56,0,7.84,1.44,9.86,4.33s3.12,7.14,3.32,12.77c3.29-5.63,6.65-9.89,10.11-12.77s8.06-4.33,13.83-4.33,11.36,1.44,16.8,4.33c5.43,2.88,8.15,6.71,8.15,11.46,0,3.35-1.16,6.12-3.47,8.3-2.31,2.18-4.81,3.27-7.49,3.27-1.01,0-3.44-.62-7.29-1.86-3.86-1.24-7.26-1.86-10.21-1.86-4.02,0-7.31,1.06-9.86,3.17-2.55,2.11-4.53,5.25-5.93,9.4-1.41,4.16-2.38,9.1-2.92,14.83-.54,5.73-.8,12.72-.8,20.97Z"/></g></g></g></g></svg>