<?xml version="1.0" encoding="UTF-8"?><svg id="Layer_1" xmlns="http://www.w3.org/2000/svg" viewBox="0 0 1006.5 1006.5"><defs><style>.cls-1{fill:red;isolation:isolate;}.cls-2{fill:#fff;}</style></defs><circle class="cls-1" cx="503.25" cy="503.25" r="503.25"/><path class="cls-2" d="M533.84,419.4l-35.8-25.9-35.68,25.76c-14.29,10.32-33.41-3.78-27.78-20.48l13.88-41.14-35.27-25.52c-14.2-10.27-7-32.71,10.53-32.8l44.48-.23,14.22-42.15c5.6-16.61,29.17-16.38,34.45.33l13.12,41.51,43.42-.22c17.63-.09,24.99,22.49,10.7,32.81l-35.68,25.76,13.32,42.13c5.26,16.65-13.75,30.38-27.9,20.14Z"/><path class="cls-2" d="M554.3,254c-2.78,0-5.49-1.04-7.04-2.93-10.41-12.71-28.59-20.3-48.63-20.3s-38.22,7.59-48.63,20.3c-2.36,2.88-7.41,3.79-11.29,2.05-3.88-1.75-5.12-5.49-2.76-8.37,13.42-16.38,36.86-26.16,62.69-26.16s49.27,9.78,62.69,26.16c2.36,2.88,1.12,6.62-2.76,8.37-1.33.6-2.81.89-4.26.89Z"/><path class="cls-2" d="M412.93,240.51c-1.45,0-2.93-.29-4.26-.89-3.88-1.75-5.12-5.49-2.76-8.37,19.85-24.23,54.52-38.69,92.72-38.69s72.87,14.46,92.72,38.69c2.36,2.88,1.12,6.62-2.76,8.37-3.88,1.74-8.94.83-11.29-2.05-16.85-20.56-46.26-32.83-78.67-32.83s-61.82,12.27-78.67,32.83c-1.55,1.89-4.26,2.93-7.04,2.93Z"/><path class="cls-2" d="M615.07,226.72c-2.78,0-5.49-1.04-7.04-2.93-23.42-28.59-64.32-45.66-109.4-45.66s-85.97,17.07-109.39,45.65c-2.36,2.88-7.41,3.79-11.29,2.05-3.88-1.75-5.12-5.49-2.76-8.37,26.43-32.26,72.58-51.52,123.45-51.52s97.02,19.26,123.46,51.52c2.36,2.88,1.12,6.62-2.76,8.37-1.33.6-2.81.89-4.26.89Z"/><path class="cls-2" d="M252.83,548.73h-20.19v30.8c0,4.4-1.04,7.74-3.12,10.02s-4.7,3.41-7.87,3.41-5.99-1.13-8.02-3.38c-2.03-2.25-3.04-5.55-3.04-9.91v-83.87c0-4.85,1.11-8.31,3.34-10.39s5.76-3.12,10.61-3.12h28.28c8.36,0,14.79.64,19.3,1.93,4.45,1.24,8.3,3.29,11.54,6.16,3.24,2.87,5.7,6.38,7.38,10.54,1.68,4.16,2.52,8.83,2.52,14.03,0,11.08-3.41,19.48-10.24,25.2s-17,8.57-30.5,8.57ZM247.48,498.86h-14.84v33.25h14.84c5.2,0,9.54-.54,13.03-1.63,3.49-1.09,6.15-2.87,7.98-5.34,1.83-2.47,2.75-5.71,2.75-9.72,0-4.8-1.41-8.71-4.23-11.73-3.17-3.22-9.67-4.82-19.52-4.82Z"/><path class="cls-2" d="M331.91,492.77v30.06c2.57-2.97,5.08-5.32,7.53-7.05,2.45-1.73,5.16-3.03,8.13-3.9,2.97-.87,6.16-1.3,9.57-1.3,5.15,0,9.71,1.09,13.69,3.27,3.98,2.18,7.11,5.34,9.39,9.5,1.43,2.42,2.4,5.13,2.89,8.13.49,2.99.74,6.45.74,10.35v38.82c0,4.06-.93,7.12-2.78,9.2s-4.32,3.12-7.38,3.12c-6.68,0-10.02-4.11-10.02-12.32v-34.21c0-6.48-.96-11.47-2.89-14.96s-5.59-5.23-10.98-5.23c-3.61,0-6.87,1.03-9.76,3.08-2.89,2.05-5.06,4.86-6.49,8.42-1.09,3.02-1.63,8.39-1.63,16.11v26.79c0,4.01-.9,7.06-2.71,9.17-1.81,2.1-4.32,3.15-7.53,3.15-6.68,0-10.02-4.11-10.02-12.32v-87.88c0-4.11.88-7.19,2.63-9.24,1.76-2.05,4.22-3.08,7.38-3.08s5.73,1.04,7.53,3.12c1.81,2.08,2.71,5.15,2.71,9.2Z"/><path class="cls-2" d="M481.27,551.77c0,6.04-.94,11.6-2.82,16.7-1.88,5.1-4.6,9.48-8.16,13.14-3.56,3.66-7.82,6.47-12.77,8.42-4.95,1.95-10.51,2.93-16.7,2.93s-11.65-.99-16.55-2.97-9.14-4.81-12.73-8.5c-3.59-3.69-6.31-8.04-8.16-13.06-1.86-5.02-2.78-10.58-2.78-16.66s.94-11.75,2.82-16.85c1.88-5.1,4.58-9.45,8.09-13.06,3.51-3.61,7.77-6.39,12.77-8.35,5-1.95,10.51-2.93,16.55-2.93s11.7.99,16.7,2.97c5,1.98,9.28,4.8,12.84,8.46,3.56,3.66,6.27,8.02,8.13,13.06s2.78,10.61,2.78,16.7ZM460.93,551.77c0-8.26-1.82-14.7-5.46-19.3s-8.52-6.9-14.66-6.9c-3.96,0-7.45,1.03-10.46,3.08-3.02,2.05-5.34,5.08-6.98,9.09s-2.45,8.68-2.45,14.03.8,9.92,2.41,13.88c1.61,3.96,3.91,6.99,6.9,9.09,2.99,2.1,6.52,3.15,10.58,3.15,6.13,0,11.02-2.31,14.66-6.94,3.64-4.63,5.46-11.02,5.46-19.19Z"/><path class="cls-2" d="M517.15,521.79v2.45c3.56-4.7,7.46-8.15,11.69-10.35,4.23-2.2,9.09-3.3,14.58-3.3s10.12,1.16,14.32,3.49c4.21,2.33,7.35,5.62,9.43,9.87,1.34,2.47,2.2,5.15,2.6,8.02.4,2.87.59,6.53.59,10.98v37.7c0,4.06-.93,7.12-2.78,9.2s-4.27,3.12-7.24,3.12-5.47-1.06-7.35-3.19c-1.88-2.13-2.82-5.17-2.82-9.13v-33.77c0-6.68-.93-11.79-2.78-15.33-1.86-3.54-5.55-5.31-11.1-5.31-3.61,0-6.9,1.08-9.87,3.23s-5.15,5.11-6.53,8.87c-.99,3.02-1.48,8.66-1.48,16.92v25.38c0,4.11-.95,7.19-2.86,9.24-1.91,2.05-4.37,3.08-7.38,3.08s-5.32-1.06-7.2-3.19c-1.88-2.13-2.82-5.17-2.82-9.13v-58.56c0-3.86.84-6.74,2.52-8.65,1.68-1.9,3.98-2.86,6.9-2.86,1.78,0,3.39.42,4.82,1.26,1.43.84,2.58,2.1,3.45,3.79.87,1.68,1.3,3.74,1.3,6.16Z"/><path class="cls-2" d="M602.32,501.16c-2.82,0-5.23-.87-7.24-2.6-2-1.73-3.01-4.18-3.01-7.35,0-2.87,1.03-5.23,3.08-7.09,2.05-1.86,4.44-2.78,7.16-2.78s4.95.84,6.98,2.52c2.03,1.68,3.04,4.13,3.04,7.35s-.99,5.55-2.97,7.31c-1.98,1.76-4.33,2.63-7.05,2.63ZM612.34,522.09v58.56c0,4.06-.96,7.12-2.89,9.2s-4.38,3.12-7.35,3.12-5.38-1.06-7.24-3.19-2.78-5.17-2.78-9.13v-57.96c0-4.01.93-7.03,2.78-9.05,1.86-2.03,4.27-3.04,7.24-3.04s5.42,1.01,7.35,3.04c1.93,2.03,2.89,4.85,2.89,8.46Z"/><path class="cls-2" d="M707.45,567.88c0,2.52-.75,5.22-2.26,8.09-1.51,2.87-3.81,5.6-6.9,8.2-3.09,2.6-6.99,4.69-11.69,6.27-4.7,1.58-10,2.38-15.88,2.38-12.52,0-22.29-3.65-29.32-10.95-7.03-7.3-10.54-17.08-10.54-29.35,0-8.31,1.61-15.66,4.82-22.04,3.22-6.38,7.87-11.32,13.95-14.81s13.36-5.23,21.82-5.23c5.24,0,10.06.77,14.44,2.3,4.38,1.53,8.09,3.51,11.13,5.94,3.04,2.42,5.37,5.01,6.98,7.76,1.61,2.75,2.41,5.31,2.41,7.68s-.9,4.48-2.71,6.16c-1.81,1.68-4,2.52-6.57,2.52-1.68,0-3.08-.43-4.19-1.3-1.11-.87-2.36-2.26-3.75-4.19-2.47-3.76-5.06-6.58-7.76-8.46-2.7-1.88-6.12-2.82-10.28-2.82-5.99,0-10.81,2.34-14.47,7.01-3.66,4.68-5.49,11.07-5.49,19.19,0,3.81.47,7.31,1.41,10.5.94,3.19,2.3,5.91,4.08,8.16,1.78,2.25,3.93,3.96,6.46,5.12,2.52,1.16,5.29,1.74,8.31,1.74,4.06,0,7.53-.94,10.43-2.82,2.89-1.88,5.46-4.75,7.68-8.61,1.24-2.28,2.57-4.06,4.01-5.34,1.43-1.29,3.19-1.93,5.27-1.93,2.47,0,4.53.94,6.16,2.82,1.63,1.88,2.45,3.88,2.45,6.01Z"/><path class="cls-2" d="M791.87,566.47c0,5.59-1.36,10.38-4.08,14.36-2.72,3.98-6.74,7-12.06,9.05-5.32,2.05-11.79,3.08-19.41,3.08s-13.51-1.11-18.7-3.34-9.03-5.01-11.5-8.35c-2.47-3.34-3.71-6.69-3.71-10.06,0-2.23.79-4.13,2.38-5.71s3.59-2.38,6.01-2.38c2.13,0,3.76.52,4.9,1.56,1.14,1.04,2.23,2.5,3.27,4.38,2.08,3.61,4.56,6.31,7.46,8.09s6.84,2.67,11.84,2.67c4.06,0,7.38-.9,9.98-2.71,2.6-1.81,3.9-3.87,3.9-6.2,0-3.56-1.35-6.16-4.04-7.79-2.7-1.63-7.14-3.19-13.32-4.68-6.98-1.73-12.65-3.55-17.03-5.46-4.38-1.9-7.88-4.42-10.5-7.53-2.62-3.12-3.93-6.95-3.93-11.5,0-4.06,1.21-7.89,3.64-11.5,2.42-3.61,6-6.49,10.72-8.65,4.72-2.15,10.43-3.23,17.11-3.23,5.24,0,9.96.54,14.14,1.63,4.18,1.09,7.67,2.55,10.46,4.38,2.79,1.83,4.92,3.86,6.38,6.09,1.46,2.23,2.19,4.4,2.19,6.53,0,2.33-.78,4.23-2.34,5.71s-3.77,2.23-6.64,2.23c-2.08,0-3.85-.59-5.31-1.78-1.46-1.19-3.13-2.97-5.01-5.34-1.53-1.98-3.34-3.56-5.42-4.75s-4.9-1.78-8.46-1.78-6.71.78-9.13,2.34c-2.42,1.56-3.64,3.5-3.64,5.83,0,2.13.89,3.87,2.67,5.23,1.78,1.36,4.18,2.49,7.2,3.38,3.02.89,7.17,1.98,12.47,3.27,6.28,1.53,11.42,3.37,15.4,5.49,3.98,2.13,7,4.64,9.05,7.53,2.05,2.89,3.08,6.2,3.08,9.91Z"/><path class="cls-2" d="M434.86,684.45c0,6.58-1.7,12.49-5.08,17.74-3.39,5.25-8.35,9.35-14.88,12.32s-14.28,4.45-23.23,4.45c-10.74,0-19.59-2.03-26.57-6.09-4.95-2.92-8.97-6.82-12.06-11.69-3.09-4.87-4.64-9.61-4.64-14.21,0-2.67.93-4.96,2.78-6.87,1.86-1.9,4.22-2.86,7.09-2.86,2.33,0,4.29.74,5.9,2.23,1.61,1.48,2.98,3.69,4.12,6.61,1.38,3.46,2.88,6.36,4.49,8.68,1.61,2.33,3.87,4.24,6.79,5.75,2.92,1.51,6.75,2.26,11.5,2.26,6.53,0,11.84-1.52,15.92-4.56s6.12-6.84,6.12-11.39c0-3.61-1.1-6.54-3.3-8.79-2.2-2.25-5.05-3.97-8.54-5.16s-8.15-2.45-13.99-3.79c-7.82-1.83-14.36-3.97-19.63-6.42s-9.45-5.79-12.54-10.02c-3.09-4.23-4.64-9.49-4.64-15.77s1.63-11.31,4.9-15.96c3.27-4.65,7.99-8.23,14.18-10.72,6.18-2.5,13.46-3.75,21.82-3.75,6.68,0,12.46.83,17.33,2.49,4.87,1.66,8.92,3.86,12.13,6.61,3.22,2.75,5.57,5.63,7.05,8.65,1.48,3.02,2.23,5.96,2.23,8.83,0,2.62-.93,4.99-2.78,7.09-1.86,2.1-4.17,3.15-6.94,3.15-2.52,0-4.44-.63-5.75-1.89-1.31-1.26-2.73-3.33-4.27-6.2-1.98-4.11-4.35-7.31-7.12-9.61-2.77-2.3-7.22-3.45-13.36-3.45-5.69,0-10.28,1.25-13.77,3.75-3.49,2.5-5.23,5.5-5.23,9.02,0,2.18.59,4.06,1.78,5.64,1.19,1.58,2.82,2.94,4.9,4.08,2.08,1.14,4.18,2.03,6.31,2.67,2.13.64,5.64,1.58,10.54,2.82,6.13,1.44,11.69,3.02,16.66,4.75,4.97,1.73,9.2,3.83,12.69,6.31,3.49,2.47,6.21,5.6,8.16,9.39,1.95,3.79,2.93,8.42,2.93,13.92Z"/><path class="cls-2" d="M454.79,638.36h2.23v-12.17c0-3.27.09-5.83.26-7.68.17-1.86.66-3.45,1.45-4.79.79-1.38,1.93-2.51,3.41-3.38,1.48-.87,3.14-1.3,4.97-1.3,2.57,0,4.9.96,6.98,2.89,1.38,1.29,2.26,2.86,2.63,4.71s.56,4.49.56,7.9v13.8h7.42c2.87,0,5.06.68,6.57,2.04,1.51,1.36,2.26,3.11,2.26,5.23,0,2.72-1.08,4.63-3.23,5.71-2.15,1.09-5.23,1.63-9.24,1.63h-3.79v37.26c0,3.17.11,5.6.33,7.31s.82,3.09,1.78,4.16c.96,1.06,2.54,1.6,4.71,1.6,1.19,0,2.79-.21,4.82-.63,2.03-.42,3.61-.63,4.75-.63,1.63,0,3.1.66,4.42,1.97,1.31,1.31,1.97,2.93,1.97,4.86,0,3.27-1.78,5.76-5.34,7.5s-8.68,2.6-15.36,2.6c-6.33,0-11.13-1.06-14.4-3.19s-5.41-5.07-6.42-8.83c-1.01-3.76-1.52-8.78-1.52-15.07v-38.89h-2.67c-2.92,0-5.15-.69-6.68-2.08-1.53-1.38-2.3-3.14-2.3-5.27s.8-3.87,2.41-5.23c1.61-1.36,3.95-2.04,7.01-2.04Z"/><path class="cls-2" d="M560.22,707.54c-4.9,3.81-9.64,6.67-14.21,8.57-4.58,1.9-9.71,2.86-15.4,2.86-5.2,0-9.76-1.03-13.69-3.08s-6.96-4.84-9.09-8.35c-2.13-3.51-3.19-7.32-3.19-11.43,0-5.54,1.76-10.27,5.27-14.18,3.51-3.91,8.34-6.53,14.47-7.87,1.29-.3,4.48-.96,9.57-2,5.1-1.04,9.46-1.99,13.1-2.86,3.64-.87,7.58-1.92,11.84-3.15-.25-5.34-1.32-9.26-3.23-11.76-1.91-2.5-5.85-3.75-11.84-3.75-5.15,0-9.02.72-11.62,2.15-2.6,1.44-4.82,3.59-6.68,6.46-1.86,2.87-3.17,4.76-3.93,5.68-.77.92-2.41,1.37-4.94,1.37-2.28,0-4.24-.73-5.9-2.19-1.66-1.46-2.49-3.33-2.49-5.6,0-3.56,1.26-7.03,3.79-10.39,2.52-3.36,6.46-6.13,11.8-8.31,5.34-2.18,12-3.27,19.96-3.27,8.91,0,15.91,1.05,21,3.15,5.1,2.1,8.7,5.43,10.8,9.98,2.1,4.55,3.15,10.59,3.15,18.11,0,4.75-.01,8.78-.04,12.1-.03,3.32-.06,7-.11,11.06,0,3.81.63,7.78,1.89,11.91,1.26,4.13,1.89,6.79,1.89,7.98,0,2.08-.98,3.97-2.93,5.68-1.96,1.71-4.17,2.56-6.64,2.56-2.08,0-4.13-.98-6.16-2.93-2.03-1.95-4.18-4.79-6.46-8.5ZM558.88,678.22c-2.97,1.09-7.29,2.24-12.95,3.45-5.67,1.21-9.59,2.1-11.76,2.67-2.18.57-4.26,1.68-6.23,3.34-1.98,1.66-2.97,3.97-2.97,6.94s1.16,5.68,3.49,7.83c2.33,2.15,5.37,3.23,9.13,3.23,4.01,0,7.71-.88,11.1-2.63,3.39-1.76,5.88-4.02,7.46-6.79,1.83-3.07,2.75-8.11,2.75-15.14v-2.89Z"/><path class="cls-2" d="M620.96,689.72v16.92c0,4.11-.96,7.19-2.89,9.24s-4.38,3.08-7.35,3.08-5.32-1.04-7.2-3.12c-1.88-2.08-2.82-5.15-2.82-9.2v-56.41c0-9.1,3.29-13.66,9.87-13.66,3.36,0,5.79,1.06,7.27,3.19,1.48,2.13,2.3,5.27,2.45,9.43,2.42-4.16,4.91-7.3,7.46-9.43,2.55-2.13,5.95-3.19,10.21-3.19s8.39,1.06,12.39,3.19c4.01,2.13,6.01,4.95,6.01,8.46,0,2.47-.85,4.52-2.56,6.12-1.71,1.61-3.55,2.41-5.53,2.41-.74,0-2.54-.46-5.38-1.37-2.85-.92-5.36-1.37-7.53-1.37-2.97,0-5.39.78-7.27,2.34-1.88,1.56-3.34,3.87-4.38,6.94-1.04,3.07-1.76,6.72-2.15,10.95-.4,4.23-.59,9.39-.59,15.47Z"/></svg>