<?xml version="1.0" encoding="UTF-8"?><svg id="Layer_1" xmlns="http://www.w3.org/2000/svg" viewBox="0 0 1495.03 1495.03"><defs><style>.cls-1{fill:#fff;}.cls-2{fill:#f7c32e;}.cls-3{fill:#24292d;}</style></defs><circle class="cls-1" cx="747.52" cy="747.52" r="747.52"/><g><g><g><g><path class="cls-3" d="M567.6,154.94c-.75,.46-55.38,57.05-123.16,57.32,.72-.61,25.51-65.05,123.16-57.32Z"/><path class="cls-3" d="M481.85,247.79c-3.74,.9-57.73,31.77-90.65-.15,3.04-2.37,11.58-12.45,27.07-16.7,17.25-5.14,40.1-5.57,63.58,16.85Z"/><path class="cls-3" d="M403.07,307.5c-1.19,.61-51.04,44.4-92.59,17.53,.78-.49,34.34-54.37,92.59-17.53Z"/><path class="cls-3" d="M337.41,380.79c-3.47,2.45-43.95,54.72-90.5,36.16,2.26-3.95,6.98-17.66,20.18-27.71,21.25-17.11,44.5-18.64,70.32-8.45Z"/><path class="cls-3" d="M286.75,464.52c-.87,1-32.74,64.05-84.85,54.57,10.83-43.37,44.18-62.24,84.85-54.57Z"/><path class="cls-3" d="M253.54,556c-17.2,34.67-33.41,71.8-75.13,72.12,5.1-50.29,32.86-72.03,75.13-72.12Z"/><path class="cls-3" d="M237.91,651.63c-5.41,17.44-11.81,78.14-62.33,88-.03-.74-3.88-16.49,2.11-37.94,6.95-23.68,27.47-43.98,60.22-50.06Z"/><path class="cls-3" d="M240.57,749.12c-1.74,42.31-7.87,85.22-47.94,100.65-.17-.74-7.03-15.49-4.69-38.88,3.01-21.92,15.58-47.68,52.63-61.77Z"/><path class="cls-3" d="M259.45,844.25c.61,18.08,17.26,79.76-29.38,110.29-.32-.72-10.36-13.29-12.51-38.36-1.39-22.64,6.77-51.17,41.89-71.93Z"/><path class="cls-3" d="M294.94,932.38c1.01,4.5,34.89,74.85-6.43,116.58-1.62-2.33-13.09-10.49-20.99-35.81-3.65-10.9-4-24.58-.46-38.39,3.42-13.77,12.39-28.5,27.88-42.38Z"/><path class="cls-3" d="M346.79,1009.75c1.1,2.94,50.95,67.34,19.66,118.09-45.83-40.08-48.38-78.57-19.66-118.09Z"/><path class="cls-3" d="M413.58,1073.27c1.25,1.92,67.63,57.55,46.38,114.37-2.75-2.19-81.87-32.05-46.38-114.37Z"/><path class="cls-3" d="M494.24,1121.89c38.88,27.81,79.44,60.87,67.22,111.82-.75-.32-23.1-5.24-40.24-21.1-26.95-24.15-33.99-55.2-26.98-90.72Z"/><path class="cls-3" d="M429.48,158.27c-.75,.75-65.92,43.95-38.91,88.56,.72-.93,49.88-26.9,38.91-88.56Z"/><path class="cls-3" d="M331.48,225.73c-.38,.74-59.99,56.95-22.5,98.04,.29-.75,46.73-37.17,22.5-98.04Z"/><path class="cls-3" d="M247.81,310.9s-3.24,4.29-7.47,11.25c-17.98,30.57-24.69,72.12,4.08,93.4,17.43-32.01,30.11-62.62,3.39-104.64Z"/><path class="cls-3" d="M181.08,410.55c-.14,.78-35.32,82.77,17.23,107.36,18.27-41.15,10.57-77.88-17.23-107.36Z"/><path class="cls-3" d="M134.81,521.78c.15,.74-21.51,90.46,38.97,105.8,5.47-38.11,3.01-75.43-38.97-105.8Z"/><path class="cls-3" d="M109.89,640.12c.12,.75-2.4,95.81,60.13,99.84-1.97-43.72-11.7-76.69-60.13-99.84Z"/><path class="cls-3" d="M107.51,760.41c.32,.75,12.57,98.33,78.81,90.92-9.9-43.9-25.85-76.46-78.81-90.92Z"/><path class="cls-3" d="M125.64,879.92c1.13,2.53,4.95,20.93,24.2,47.32,17.17,22.36,43.14,40.65,73.59,30.44-18.85-42.02-41.34-72.36-97.8-77.76Z"/><path class="cls-3" d="M166.28,995.75c.72,.77,54.6,94.38,115.72,58.29-27.13-36.8-57.73-64.27-115.72-58.29Z"/><path class="cls-3" d="M230.76,1102.26c.72,.53,75.94,84.22,129.93,32.7-38.42-32.31-74.26-50.75-129.93-32.7Z"/><path class="cls-3" d="M317.61,1192.89c.78,.33,94.12,65.34,137.66,3.63-2.03-.38-62.01-48.59-137.66-3.63Z"/><path class="cls-3" d="M420.13,1261.83c.75,.07,101.59,48.93,137.4-17.88-.75-.29-14.27-9.21-44.06-13.88-30.11-4.21-63.92,4.54-93.34,31.76Z"/><path class="cls-3" d="M785.52,1298.36c-11.21,2.83-21.62,5.32-31.02,7.7-8.94-2.6-17.78-5.21-26.61-7.81-184.54-55.02-348.35-121.02-450.47-241.82-10.64-12.57-20.61-25.59-29.78-39.4-12.12-17.89-22.98-36.91-32.49-57.17-7.02-15.06-13.47-30.79-19.02-47.21-6.57-19.25-12.11-39.51-16.53-60.91-2.72-13.25-5.09-27.06-6.9-41.21-2.95-22.53-4.76-46.08-5.32-70.87-.23-8.72-.23-17.55-.11-26.49,.22-27.28,2.04-55.93,5.32-85.93,.23-3.4,.68-6.68,1.02-10.08,.57-6.57,1.36-13.02,2.26-19.47,3.85-28.19,10.53-55.36,19.25-81.4v-.11c3.85-11.32,8.15-22.53,12.68-33.4,10.07-24.11,21.85-47.1,34.76-68.72,3.96-6.45,7.92-12.91,12-19.13,16.87-26.15,35.21-50.15,54-71.78,5.54-6.57,11.21-12.91,16.98-19.02,21.74-23.44,43.47-43.7,63.4-60.12,9.74-8.26,19.02-15.4,27.74-21.74,13.47-9.85,25.47-17.32,35.1-22.42,0,0,0-.11,.11-.11,13.81-7.59,22.87-9.96,24.57-6.68,2.04,3.96-.23,4.3-24,18.91-7.13,4.3-16.08,9.96-27.51,17.43-2.6,1.59-5.43,3.4-8.26,5.32-7.36,5.32-14.6,10.75-21.51,16.3-19.47,15.51-37.25,31.59-53.44,48-9.4,9.51-18.12,19.02-26.38,28.76-16.3,19.02-30.79,38.49-43.47,57.97-7.24,10.98-13.92,21.96-20.04,32.95-12.11,21.62-22.3,43.02-30.91,63.96-5.21,12.68-9.73,25.02-13.81,37.13-8.83,26.27-15.17,51.06-19.7,73.7-2.49,12.23-4.41,23.66-5.89,34.42-5.21,36.91-5.32,64.53-4.53,76.87,.45,8.72,1.47,9.96,1.47,1.93,.34,10.75,.91,21.4,1.7,31.81,1.7,23.89,4.53,46.76,8.38,68.61,2.49,13.92,5.32,27.4,8.72,40.53,5.55,22.76,12.34,44.15,20.15,64.53,5.21,13.59,10.87,26.61,17.09,39.17,9.39,19.7,19.92,38.27,31.36,55.59,8.49,13.02,17.44,25.47,26.83,37.25,13.92,17.55,28.76,33.74,44.26,48.79,10.53,10.3,21.51,20.04,32.61,29.21,17.55,14.38,35.55,27.62,54,39.62,12.34,8.04,24.79,15.51,37.36,22.53,21.85,12.34,43.93,23.21,65.78,32.83,11.89,5.32,23.55,10.19,35.21,14.72,78.68,30.79,151.25,46.87,196.65,58.76,10.53,2.72,19.59,5.32,26.94,7.7Z"/></g><g><path class="cls-3" d="M929.03,150.41c.72,.27,87.03-10.15,124.29,57.89-48.7-1.19-89.78-25.13-124.29-57.89Z"/><path class="cls-3" d="M1065.79,158.32c.55,.74,66.56,43.06,38.94,88.63-.67-.75-49.82-27.56-38.94-88.63Z"/><path class="cls-3" d="M1163.85,225.89c.38,.74,59.93,57.15,22.5,98.13-.52-.75-46.73-37.32-22.5-98.13Z"/><path class="cls-3" d="M1247.57,311.18c.2,.74,49.91,70.36,3.36,104.71-17.49-32.21-30.2-62.51-3.36-104.71Z"/><path class="cls-3" d="M1314.25,411.01c.12,.81,35.2,82.95-17.28,107.41-13.61-38.13-16.39-71.71,17.28-107.41Z"/><path class="cls-3" d="M1360.51,522.39c-.03,.74,22.44,90.28-39.08,105.83,.09-.74-18.36-64.37,39.08-105.83Z"/><path class="cls-3" d="M1385.32,640.84c-.17,.8,2.23,95.9-60.3,99.87,.78-2.91-9.12-66.91,60.3-99.87Z"/><path class="cls-3" d="M1387.52,761.25s-.67,6.12-2.64,15.33c-9.29,40.19-35.17,80.27-76.31,75.59,1.07-2.39,2.72-70.18,78.95-90.92Z"/><path class="cls-3" d="M1369.23,880.86c-.58,.74-31.79,100-97.97,77.7,1.68-2.34,19.11-70.22,97.97-77.7Z"/><path class="cls-3" d="M1328.35,996.75s-3.07,6.04-8.77,14.62c-6.22,8.31-15.14,19.18-25.85,28.89-24.9,20.64-53.44,31.16-81.27,14.65,.72-.71,37.11-66.28,115.89-58.16Z"/><path class="cls-3" d="M1263.61,1103.26c-34.22,39-92.47,68.53-130.11,32.48,1.45-.81,50.75-58.44,130.11-32.48Z"/><path class="cls-3" d="M1176.44,1193.79c-4.37,2.55-58.37,40.01-99.68,28.75-14.62-3.53-28-11.28-38.07-25.42,.72-.36,16.62-12.04,41.05-18.43,34.13-8.95,66.24-2.71,96.7,15.1Z"/><path class="cls-3" d="M1074.1,1262.28c-7.76,2.94-29.33,13.8-54.43,16.52-30.51,3.33-64.56-.98-82.37-32.34,.78-.17,70.7-45.44,136.79,15.82Z"/><path class="cls-3" d="M1013.39,247.85c3.44,.8,57.76,31.82,90.7-.09-.72-.28-43.14-45.32-90.7,.09Z"/><path class="cls-3" d="M1092.19,307.62c1.1,.58,51.07,44.45,92.64,17.65-.75-.23-35.35-53.73-92.64-17.65Z"/><path class="cls-3" d="M1157.91,381.02c3.42,2.43,43.98,54.82,90.53,36.29-2.34-4.12-7.18-17.89-20.18-27.75-21.19-17.07-44.41-18.75-70.35-8.54Z"/><path class="cls-3" d="M1208.55,464.88c21.28,31.08,44.73,61.95,84.86,54.72-.61-.74-13.17-68.15-84.86-54.72Z"/><path class="cls-3" d="M1241.72,556.48c15.23,35.45,35.61,71.91,75.07,72.29-.35-.74,3.13-72.02-75.07-72.29Z"/><path class="cls-3" d="M1257.27,652.19c8.42,40.49,21.45,80.21,62.22,88.17-.2-.74,14.16-73.7-62.22-88.17Z"/><path class="cls-3" d="M1254.52,749.81c1.59,40.53,6.89,84.91,47.77,100.82,14.53-40.43-.29-82.65-47.77-100.82Z"/><path class="cls-3" d="M1235.47,844.99c-5.96,43.08-7.87,86.07,29.15,110.45,.09-.75,43.11-67.54-29.15-110.45Z"/><path class="cls-3" d="M1199.8,933.13c-1.04,4.44-35.15,74.75,6.14,116.69,.29-.74,60.25-57.03-6.14-116.69Z"/><path class="cls-3" d="M1147.75,1010.52c-.78,2.79-51.59,66.47-20,118.09,.46-.74,72.93-44.88,20-118.09Z"/><path class="cls-3" d="M1080.76,1073.91c-1.27,2.32-68.58,56.73-46.81,114.34,.75-.48,19.92-6.15,36.51-24.9,22.73-25.72,24.15-57.77,10.31-89.44Z"/><path class="cls-3" d="M999.43,1122.66c-2.2,2.03-83.84,47.48-66.33,113.65,6.77-4.34,83.7-24.99,66.33-113.65Z"/><path class="cls-3" d="M1331.21,696.64c.23,14.27-.11,28.76-1.02,43.47-1.47,22.98-4.3,46.53-8.83,70.76-2.38,13.59-5.32,27.51-8.83,41.55-1.7,6.79-3.51,13.58-5.43,20.49-4.76,16.87-10.08,33.06-15.85,48.68,0,0,0,.11-.11,.11-4.87,13.13-10.19,25.81-15.96,38.04-10.53,22.76-22.53,44.15-35.89,64.19-7.25,11.32-15.17,22.19-23.55,32.72-15.4,19.7-32.38,38.04-50.72,55.13-9.51,8.83-19.36,17.43-29.55,25.7-18.68,15.06-38.49,29.1-59.55,42.23-11.21,7.13-22.87,13.92-34.75,20.49-20.15,11.21-41.21,21.74-63.17,31.59-12.68,5.89-25.81,11.55-39.17,16.98-.79,.34-1.59,.68-2.38,1.02-55.48,23.32-108.8,38.04-150.91,48.57-11.21,2.83-21.62,5.32-31.02,7.7-8.94-2.6-17.78-5.21-26.61-7.81,9.4-2.38,19.7-4.87,30.68-7.59,48.34-12.23,110.38-29.32,174.57-54.34l.11-.11c66.91-26.04,136.19-60.8,194.39-107.78,5.77-4.53,11.43-9.4,16.98-14.26,1.02-.91,1.93-1.7,2.94-2.6,21.4-19.13,40.87-39.85,58.08-62.04,5.66-7.13,11.09-14.38,16.19-21.85,16.08-22.98,30.11-47.32,42.11-72.68,3.73-7.7,7.24-15.51,10.53-23.43,0-.11,.11-.23,.11-.34,10.87-26.15,19.7-53.21,26.61-81.06,2.38-9.62,4.53-19.25,6.45-28.87v-.23c5.21-26.49,8.72-53.55,10.53-81.06,.34-4.76,.57-9.51,.79-14.38,.23-4.98,.23-9.96,.23-14.94,.22-28.64-1.47-55.93-4.87-81.97-1.36-12-3.17-23.66-5.32-35.1-4.87-25.93-11.21-50.38-18.79-73.59-3.51-10.75-7.25-21.17-11.21-31.36-9.96-25.13-21.28-48.57-33.51-70.31-5.54-9.96-11.32-19.59-17.21-28.76-.11-.11-.23-.11-.23-.11-14.6-22.98-30.23-43.7-46.08-62.49-6.45-7.92-13.13-15.4-19.7-22.64-20.49-21.96-40.64-40.53-59.1-55.81-5.55-4.75-10.98-9.06-16.07-13.13-14.49-11.21-27.4-20.27-37.93-27.28-17.89-11.77-28.98-17.43-28.98-17.55,1.59-2.94,11.89,.34,27.96,9.51,8.04,4.53,17.55,10.64,28.08,18.23,9.51,6.79,20.04,14.83,31.02,24.11,18.68,15.62,38.94,34.53,59.55,56.83,6.79,7.47,13.7,15.28,20.61,23.43,18.45,21.96,36.68,46.53,53.66,73.59,3.85,6,7.58,12.23,11.21,18.57,13.36,22.98,25.7,47.66,36.45,73.82,3.85,9.28,7.47,18.79,10.87,28.42,8.04,22.98,14.83,46.98,20.04,72.12,2.6,12.34,4.76,24.91,6.45,37.7,3.06,22.42,4.87,45.74,5.09,69.74Z"/></g></g><polygon class="cls-3" points="754.3 1311.24 698.31 1345.05 713.17 1281.36 663.7 1238.56 728.92 1232.99 754.3 1172.71 779.71 1232.99 844.95 1238.56 795.41 1281.36 810.34 1345.05 754.3 1311.24"/><g><polygon class="cls-2" points="753.89 981.11 770.12 1015.77 808.1 1020.49 780.15 1046.63 787.39 1084.22 753.89 1065.71 720.39 1084.22 727.64 1046.63 699.68 1020.49 737.66 1015.77 753.89 981.11"/><polygon class="cls-2" points="867.42 981.11 878.88 1005.6 905.72 1008.94 885.97 1027.41 891.09 1053.97 867.42 1040.89 843.74 1053.97 848.86 1027.41 829.11 1008.94 855.95 1005.6 867.42 981.11"/><polygon class="cls-2" points="640.37 981.11 651.83 1005.6 678.67 1008.94 658.92 1027.41 664.04 1053.97 640.37 1040.89 616.69 1053.97 621.81 1027.41 602.06 1008.94 628.9 1005.6 640.37 981.11"/></g></g><g><path class="cls-3" d="M554.6,459.8c-3.5,0-7.35-1.28-11.55-3.85-4.2-2.56-7.7-5.42-10.5-8.57-2.8-3.15-4.32-6-4.55-8.58-.24-2.57,1.75-3.85,5.95-3.85,2.1,0,5.19-1.69,9.28-5.07,4.08-3.38,8.45-7.7,13.12-12.95,4.66-5.25,9.39-11.03,14.17-17.33,4.78-6.3,8.92-12.37,12.42-18.2,3.5-5.83,6.18-10.96,8.05-15.4,1.86-4.43,2.1-7.46,.7-9.1-2.1-2.56-6.01-2.85-11.72-.88-5.72,1.99-12.25,5.49-19.6,10.5-7.35,5.02-15.11,11.26-23.27,18.73-8.17,7.47-15.75,15.34-22.75,23.62-7,8.29-12.95,16.75-17.85,25.38-4.9,8.63-7.82,16.57-8.75,23.8-.47,4.2,1.45,7.7,5.77,10.5,4.31,2.8,9.85,5.37,16.62,7.7,6.76,2.33,14.05,4.67,21.88,7,7.81,2.33,15.05,4.96,21.7,7.88,6.65,2.92,12.07,6.36,16.27,10.32,4.2,3.97,5.95,8.75,5.25,14.35-.7,5.6-4.55,12.54-11.55,20.83-7,8.29-15.75,16.27-26.25,23.97s-22.11,14.29-34.82,19.78c-12.72,5.48-25.02,8.22-36.93,8.22-6.3,0-11.38-1.63-15.22-4.9-3.85-3.27-6.65-7.29-8.4-12.07-1.75-4.78-2.56-10.03-2.45-15.75,.12-5.71,.81-10.96,2.1-15.75,1.28-4.78,3.03-8.8,5.25-12.08,2.21-3.26,4.72-4.9,7.52-4.9,1.16,0,.93,1.11-.7,3.33-1.64,2.22-2.69,5.54-3.15,9.97-.24,3.04,.93,5.72,3.5,8.05,2.56,2.33,5.48,3.5,8.75,3.5,9.8,0,19.25-1.4,28.35-4.2s17.15-6.12,24.15-9.98c7-3.85,12.71-7.81,17.15-11.9,4.43-4.08,6.77-7.41,7-9.98,0-1.16-2.27-2.39-6.82-3.67-4.55-1.28-10.27-2.92-17.15-4.9-6.88-1.98-14.35-4.38-22.4-7.18-8.05-2.8-15.4-6.35-22.05-10.67-6.65-4.31-11.96-9.56-15.93-15.75-3.97-6.18-5.48-13.47-4.55-21.88,.93-7.93,3.55-16.45,7.88-25.55,4.31-9.1,9.74-18.2,16.27-27.3,6.53-9.1,13.94-17.91,22.23-26.42,8.28-8.52,16.85-16.04,25.73-22.58,8.86-6.53,17.67-11.73,26.42-15.58s16.98-5.78,24.68-5.78c11.9,0,21.4,3.8,28.52,11.38,7.11,7.59,10.67,17.33,10.67,29.23,0,8.63-2.16,18.38-6.48,29.22-4.32,10.85-9.51,21.12-15.57,30.8-6.07,9.69-12.43,17.85-19.08,24.5-6.65,6.65-12.42,9.98-17.32,9.98Z"/><path class="cls-3" d="M627.75,407.65c4.67,0,9.04,.58,13.12,1.75,4.08,1.17,7.58,2.57,10.5,4.2,2.92,1.63,5.19,3.33,6.83,5.08,1.63,1.75,2.45,3.21,2.45,4.38s-.3,1.75-.88,1.75-1.23,.35-1.92,1.05c-2.1,2.1-5.14,7.47-9.1,16.1-3.97,8.64-8,18.67-12.08,30.1-4.08,11.43-7.58,23.22-10.5,35.35-2.92,12.14-4.38,22.87-4.38,32.2,0,4.67,.53,7.35,1.58,8.05s1.92,1.05,2.62,1.05c2.33,0,5.25-2.27,8.75-6.82,3.5-4.55,7.23-10.33,11.2-17.33,3.96-7,8.05-14.46,12.25-22.4,4.2-7.93,8.1-15.4,11.72-22.4,3.62-7,6.83-12.78,9.62-17.33,2.8-4.55,4.67-6.83,5.6-6.83,1.63,0,1.93,2.97,.88,8.92-1.05,5.95-3.1,13.3-6.12,22.05-3.04,8.75-6.89,18.32-11.55,28.7-4.67,10.39-9.75,19.97-15.23,28.75-5.49,8.79-11.2,16.2-17.15,22.22-5.95,6.03-11.85,9.05-17.68,9.05-9.8,0-17.91-3.72-24.32-11.17-6.42-7.45-9.62-19-9.62-34.68,0-6.53,.7-14.05,2.1-22.57,1.4-8.52,3.32-17.27,5.77-26.25,2.45-8.98,5.19-17.85,8.23-26.6,3.03-8.75,6.18-16.56,9.45-23.45,3.27-6.88,6.42-12.42,9.45-16.62,3.03-4.2,5.83-6.3,8.4-6.3Zm17.5-45.85c.46-4.2,1.58-8.87,3.33-14,1.75-5.13,3.67-10.09,5.77-14.88,2.1-4.78,4.14-8.92,6.12-12.42,1.98-3.5,3.55-5.83,4.73-7,1.63-1.63,4.78-2.28,9.45-1.93,4.67,.35,9.27,1.23,13.83,2.62,4.55,1.4,8.22,3.15,11.02,5.25,2.8,2.1,3.03,4.32,.7,6.65-.94,.94-2.28,2.8-4.03,5.6-1.75,2.8-3.62,6.01-5.6,9.62-1.99,3.62-4.03,7.47-6.12,11.55-2.1,4.08-4.09,7.82-5.95,11.2-1.87,3.39-3.45,6.25-4.73,8.58-1.29,2.33-2.05,3.62-2.27,3.85-1.17,.93-3.27,1.29-6.3,1.05-3.04-.23-6.07-.99-9.1-2.28-3.04-1.28-5.72-3.03-8.05-5.25-2.33-2.21-3.27-4.95-2.8-8.22Z"/><path class="cls-3" d="M727.84,425.85c0,1.87-1.23,6.36-3.68,13.47-2.45,7.12-5.31,15.58-8.57,25.38-3.27,9.8-6.71,20.36-10.33,31.68-3.62,11.32-6.6,22.22-8.92,32.72,3.26-7,7.23-14.88,11.9-23.62,4.67-8.75,9.62-17.55,14.88-26.42,5.25-8.87,10.67-17.62,16.28-26.25,5.6-8.63,11.02-16.21,16.27-22.75,5.25-6.53,10.15-11.84,14.7-15.92,4.55-4.08,8.46-6.12,11.73-6.12,4.9,0,9.33,.58,13.3,1.74,3.96,1.17,7.4,2.5,10.33,4.01,2.91,1.52,5.19,3.14,6.82,4.89,1.63,1.75,2.45,3.32,2.45,4.71,0,1.17-.24,1.69-.7,1.57-.47-.11-1.17,.3-2.1,1.23-2.1,2.09-5.13,7.45-9.1,16.06-3.97,8.61-7.94,18.62-11.9,30.02-3.97,11.41-7.41,23.16-10.33,35.26-2.92,12.1-4.38,22.81-4.38,32.12,0,4.42,.53,7.04,1.58,7.86,1.05,.81,1.92,1.22,2.62,1.22,2.33,0,5.25-2.27,8.75-6.82,3.5-4.55,7.23-10.33,11.2-17.33,3.96-7,8.05-14.46,12.25-22.4,4.2-7.93,8.1-15.4,11.72-22.4,3.62-7,6.76-12.78,9.45-17.33,2.68-4.55,4.6-6.83,5.78-6.83,1.63,0,1.86,2.97,.7,8.92-1.17,5.95-3.21,13.3-6.12,22.05-2.92,8.75-6.71,18.32-11.38,28.7-4.67,10.39-9.75,19.97-15.22,28.75-5.49,8.79-11.2,16.2-17.15,22.22-5.95,6.03-11.84,9.05-17.67,9.05-9.8,0-17.91-3.73-24.33-11.2-6.42-7.46-9.62-19.01-9.62-34.65,0-9.33,1.46-20.65,4.38-33.95,2.92-13.3,6.48-26.25,10.68-38.85-8.4,10.5-16.16,22.11-23.28,34.83-7.12,12.72-13.47,24.85-19.08,36.4-5.6,11.55-10.38,21.58-14.35,30.1-3.97,8.52-6.89,13.71-8.75,15.58-1.4,1.4-3.97,1.8-7.7,1.22-3.74-.58-7.47-2.1-11.2-4.55s-7.05-5.6-9.98-9.45c-2.91-3.85-4.38-8.22-4.38-13.12s.76-11.08,2.27-18.55c1.52-7.46,3.39-15.51,5.6-24.15,2.22-8.63,4.67-17.44,7.35-26.42,2.68-8.98,5.13-17.5,7.35-25.55,2.21-8.05,4.08-15.1,5.6-21.17,1.51-6.07,2.27-10.5,2.27-13.3,0-3.96,.58-6.71,1.75-8.23,1.16-1.51,3.73-2.27,7.7-2.27,1.87,0,4.61,.35,8.23,1.05,3.61,.7,7.23,1.75,10.85,3.15,3.62,1.4,6.76,3.21,9.45,5.43,2.68,2.22,4.03,4.96,4.03,8.22Z"/><path class="cls-3" d="M899.69,470.3c-1.17,0-1.46-.93-.88-2.8,.58-1.87,1.45-4.14,2.62-6.83,1.17-2.68,2.45-5.66,3.85-8.92,1.4-3.27,2.5-6.24,3.33-8.93,.81-2.68,.99-4.95,.53-6.82-.47-1.87-1.87-2.8-4.2-2.8-3.74,0-8.11,2.28-13.12,6.83-5.02,4.55-9.98,10.74-14.88,18.55-4.9,7.82-9.33,16.92-13.3,27.3-3.97,10.38-6.65,21.41-8.05,33.07-1.17,9.8-.29,17.91,2.62,24.33,2.92,6.42,7.05,9.62,12.43,9.62,6.53,0,12.71-2.39,18.55-7.17,5.83-4.78,11.25-10.79,16.27-18.03,5.02-7.23,9.68-14.99,14-23.27,4.32-8.28,8.23-16.04,11.73-23.28,3.5-7.23,6.59-13.24,9.27-18.02,2.68-4.78,4.96-7.18,6.83-7.18,.93,0,.88,2.98-.17,8.93-1.05,5.95-2.97,13.42-5.78,22.4-2.8,8.99-6.42,18.73-10.85,29.23-4.44,10.5-9.75,20.25-15.92,29.22-6.19,8.99-13.12,16.45-20.83,22.4-7.7,5.95-16.1,8.92-25.2,8.92-16.8,0-29.81-5.13-39.02-15.4-9.21-10.26-13.83-23.56-13.83-39.9,0-12.13,2.1-25.03,6.3-38.68,4.2-13.65,9.74-26.19,16.62-37.62,6.88-11.43,14.75-20.88,23.62-28.35,8.87-7.46,18.08-11.2,27.65-11.2,5.13,0,9.91,1.17,14.35,3.5,4.43,2.33,8.28,5.42,11.55,9.28,3.26,3.85,5.78,8.22,7.53,13.12,1.75,4.9,2.62,9.92,2.62,15.05,0,2.8-1.11,5.6-3.33,8.4-2.22,2.8-4.79,5.31-7.7,7.52-2.92,2.22-5.83,4.03-8.75,5.42-2.92,1.4-5.08,2.1-6.47,2.1Z"/><path class="cls-3" d="M963.04,518.95c-1.17,9.8-.29,17.91,2.62,24.33,2.92,6.42,7.05,9.62,12.43,9.62,6.53,0,12.71-2.39,18.55-7.17,5.83-4.78,11.25-10.79,16.27-18.03,5.02-7.23,9.68-14.99,14-23.27,4.32-8.28,8.23-16.04,11.73-23.28,3.5-7.23,6.59-13.24,9.27-18.02,2.68-4.78,4.96-7.18,6.83-7.18,.93,0,.88,2.98-.17,8.93-1.05,5.95-2.97,13.42-5.78,22.4-2.8,8.99-6.42,18.73-10.85,29.23-4.44,10.5-9.75,20.25-15.92,29.22-6.19,8.99-13.12,16.45-20.83,22.4-7.7,5.95-16.1,8.92-25.2,8.92-16.8,0-29.81-5.13-39.02-15.4-9.21-10.26-13.83-23.56-13.83-39.9,0-7,.88-14.7,2.62-23.1,1.75-8.4,4.2-16.92,7.35-25.55,3.15-8.63,6.94-16.97,11.38-25.03,4.43-8.05,9.39-15.22,14.88-21.52,5.48-6.3,11.43-11.32,17.85-15.05,6.41-3.73,13.12-5.6,20.12-5.6,6.53,0,12.19,1.58,16.97,4.73,4.78,3.15,8.69,7.17,11.72,12.07,3.03,4.9,5.19,10.27,6.48,16.1,1.28,5.83,1.58,11.55,.88,17.15-.94,7.47-2.92,14.41-5.95,20.83-3.04,6.42-7,11.9-11.9,16.45-4.9,4.55-10.62,8.11-17.15,10.67-6.54,2.57-13.65,3.85-21.35,3.85-3.73,0-7.7-.93-11.9-2.8-.47,2.34-.88,4.61-1.23,6.83-.35,2.22-.64,4.61-.88,7.17Zm52.85-75.6c.46-2.8,.4-5.19-.17-7.17-.59-1.98-1.7-2.98-3.33-2.98-2.57,0-5.66,1.29-9.28,3.85-3.62,2.57-7.29,6.12-11.02,10.67-3.74,4.55-7.47,9.92-11.2,16.1-3.74,6.19-7,12.9-9.8,20.12l-3.5,10.5c3.03,0,7.11-1.63,12.25-4.9,5.13-3.26,10.26-7.35,15.4-12.25,5.13-4.9,9.68-10.38,13.65-16.45,3.96-6.06,6.3-11.9,7-17.5Z"/></g><g><path class="cls-3" d="M359.09,903.54h.31c.2,0,.72-.41,1.55-1.24l.62-.93c.2-.2,.51-.72,.93-1.55,.41-.82,.82-1.44,1.24-1.86,.2-.2,.62-.57,1.24-1.08,.62-.51,1.03-.98,1.24-1.39l2.79-2.79,2.17-1.24c1.65-1.03,2.99-2.06,4.03-3.1l4.65-2.48c.2,0,.57-.26,1.08-.78,.51-.51,.98-.88,1.4-1.08h.93l.31-.62c.62-.41,1.55-.82,2.79-1.24l.62-.62c.62-.41,3.3-1.65,8.06-3.72l1.55-.62c2.06-1.03,5.78-2.17,11.16-3.41l5.27-.93h2.79c1.44,0,2.58-.1,3.41-.31l4.65-.93c1.24-.2,3.05-.36,5.42-.46,2.37-.1,3.98-.16,4.81-.16,1.44,0,3.2-.2,5.27-.62,.62,0,1.44-.05,2.48-.16,1.03-.1,1.75-.16,2.17-.16,.62,0,1.34,.05,2.17,.16,.82,.11,1.55,.16,2.17,.16,.82,0,1.65-.05,2.48-.16,.82-.1,1.81-.26,2.95-.46,1.13-.2,2.02-.31,2.63-.31,.2,0,.77-.1,1.71-.31,.93-.2,1.6-.31,2.02-.31h4.34l3.41-.93h2.79c.2,0,.41-.05,.62-.15,.2-.1,.41-.16,.62-.16l7.13-1.86c.82-.2,1.91-.41,3.25-.62,1.34-.2,2.12-.31,2.32-.31,3.51-1.03,5.37-1.55,5.58-1.55,1.24-.41,3.1-.82,5.58-1.24l2.79-.93c1.03,0,1.86-.1,2.48-.31,1.03-1.03,2.17-1.86,3.41-2.48,.2-.41,.57-.88,1.08-1.4,.51-.51,.88-.98,1.08-1.39,1.03-1.03,1.75-1.65,2.17-1.86,.41-.41,1.13-1.13,2.17-2.17,1.03-1.03,1.75-1.96,2.17-2.79,2.27-2.68,3.61-4.54,4.03-5.58,.2,0,.31-.2,.31-.62s.1-.72,.31-.93l.62-.62c0-.2,.36-.57,1.08-1.08,.72-.51,1.4-.78,2.02-.78,1.03,.21,1.65,1.04,1.86,2.48,.41,.21,.93,.93,1.55,2.17-.83,2.28-1.66,5.48-2.48,9.61l-.93,3.1c-.21,1.45-.31,3.52-.31,6.2,0,1.86-.11,3.31-.31,4.34-.21,.42-.31,1.04-.31,1.86l-.93,4.96c-.21,.42-.31,1.04-.31,1.86,0,.21-.11,.42-.31,.62-.21,.21-.42,.42-.62,.62v3.72c0,.21-.11,.62-.31,1.24-.21,.62-.31,1.14-.31,1.55l-.62,7.13c-.21,.83-.47,1.97-.77,3.41-.31,1.45-.47,2.48-.47,3.1-.21,1.86-.31,4.24-.31,7.13-.21,.83-.31,1.97-.31,3.41-.42,1.66-.62,2.69-.62,3.1s.05,1.14,.15,2.17c.1,1.04,.16,1.76,.16,2.17s-.11,1.14-.31,2.17c-.21,1.04-.31,1.86-.31,2.48v.62c0,.21,.05,.73,.15,1.55,.1,.83,.16,1.35,.16,1.55,0,.62-.21,1.76-.62,3.41l-8.06,.93c-.42,.21-1.04,.31-1.86,.31h-2.17c-.83,0-1.45,.1-1.86,.31-.42,0-.98,.05-1.7,.16-.73,.1-1.29,.16-1.71,.16-1.24,0-2.17-.11-2.79-.31h-9.3c-2.9-.21-6.82-.31-11.78-.31-.42,0-1.14,.05-2.17,.15-1.04,.1-1.86,.16-2.48,.16h-4.65c-.83,.2-2.07,.31-3.72,.31s-3-.11-4.03-.31c-.42,0-1.04-.05-1.86-.16-.83-.11-1.55-.15-2.17-.15-.83,0-1.86,.2-3.1,.62-1.24-.42-2.17-.62-2.79-.62-.42,0-1.04,.05-1.86,.15-.83,.1-1.55,.16-2.17,.16h-1.55l-3.72-.93c-2.9-.41-5.38-.62-7.44-.62l-8.99-1.24-4.65-.93-7.13-3.1h-1.55c-1.04,0-1.76-.1-2.17-.31-.62-.2-1.45-.67-2.48-1.39-1.04-.72-1.66-1.08-1.86-1.08l-4.34-.62c-.42,0-.83-.2-1.24-.62-1.04,0-2.38-.2-4.03-.62-.42-.41-.83-.62-1.24-.62-.62-.41-1.55-.72-2.79-.93-1.24-.2-2.07-.41-2.48-.62-1.24-.82-3-1.24-5.27-1.24h-.93c-.83,.21-2.07,.73-3.72,1.55-.42,.21-1.04,.46-1.86,.78-.83,.31-1.45,.57-1.86,.77-.62,.42-1.45,1.09-2.48,2.02-1.04,.93-1.76,1.5-2.17,1.71-1.86,1.24-3.41,2.48-4.65,3.72v.31c-.83,2.48-1.76,4.13-2.79,4.96-.62,.2-1.45,.31-2.48,.31-.42,0-1.19-.05-2.32-.16-1.14-.11-2.02-.15-2.64-.15-.42,0-1.19,.1-2.33,.31-1.14,.2-2.01,.31-2.63,.31-.83,0-1.45-.11-1.86-.31-.62-.42-1.14-1.75-1.55-4.03v-.31l-.31-.31c-.42-2.48-.62-4.34-.62-5.58v-6.2c0-.62,.2-1.65,.62-3.1,.41-1.44,.72-2.58,.93-3.41l.93-6.51c.2-1.65,.72-3.92,1.55-6.82,.2-.41,.46-1.34,.77-2.79,.31-1.44,.57-2.48,.78-3.1,.2-.41,.67-1.08,1.39-2.01,.72-.93,1.19-1.71,1.4-2.33l1.55-4.65c0-.2,.15-.51,.46-.93,.31-.41,.57-.82,.77-1.24,2.06-3.92,4.23-7.23,6.51-9.92,0-.2,.82-1.55,2.48-4.03,.62-1.44,1.96-2.99,4.03-4.65,.41-.41,1.29-1.55,2.64-3.41,1.34-1.86,2.53-3.2,3.56-4.03,.82-.82,1.34-1.44,1.55-1.86,.82-.82,1.34-1.44,1.55-1.86,.41,0,.72-.1,.93-.31,0-.2,.1-.31,.31-.31h.31l2.48-2.48c.41-.2,1.44-.93,3.1-2.17l3.1-2.17,.62-1.24c.41,0,.72-.1,.93-.31l1.55-1.24c.2-.2,.62-.47,1.24-.78,.62-.31,1.03-.57,1.24-.78l1.86-.93,.31-.62,6.51-3.72,.93-.93c.2,0,.62-.1,1.24-.31l2.17-1.55h.31c.2,0,.31-.1,.31-.31l1.24-1.24,2.17-1.24c.41-.41,.72-.62,.93-.62l1.24-.62c.41-.2,1.03-.93,1.86-2.17,.82-.62,2.12-1.5,3.88-2.63,1.75-1.13,3.15-2.12,4.19-2.95l1.86-1.24c.2-.2,.93-.62,2.17-1.24l2.79-3.1,3.1-2.79,2.17-2.48,.93-1.24c.82-.82,1.34-1.55,1.55-2.17l3.41-3.72,1.86-2.79,.31-.31,.31-.31c.62-.62,1.34-1.75,2.17-3.41,.2-.2,.41-.51,.62-.93,.2-.41,.41-.72,.62-.93l1.24-1.55c.2-.2,.41-.82,.62-1.86,.2-1.03,.51-1.75,.93-2.17,.62-1.03,1.03-1.75,1.24-2.17l.62-1.86,.62-.31c0-.2,.05-.51,.15-.93,.1-.41,.16-.72,.16-.93,.41-.82,.82-2.27,1.24-4.34,.62-1.03,.93-2.17,.93-3.41v-1.24c1.03-2.48,1.86-5.06,2.48-7.75l.62-8.06c1.03-8.26,1.55-14.15,1.55-17.67,0-2.68-.11-4.75-.31-6.2,0-.82-.21-2.06-.62-3.72l-.62-4.34c0-.62-.21-1.55-.62-2.79l-.31-.62-.62-3.72-1.24-2.48c-2.28-5.58-4.03-9.3-5.27-11.16l-1.55-1.55c-.21-.2-.52-.62-.93-1.24l-.31-.62-2.17-.93c-1.24-.62-3.1-1.75-5.58-3.41-1.04-.2-2.69-.31-4.96-.31-1.45,0-2.59,.11-3.41,.31-.42,.21-.93,.31-1.55,.31-.42,0-1.08-.05-2.02-.16-.93-.1-1.5-.15-1.71-.15l-2.17,.93-2.48,1.86c-1.04,1.04-1.86,1.66-2.48,1.86-1.66,2.28-3.31,4.24-4.96,5.89l-.93,2.48c-.21,.21-.42,.52-.62,.93-.21,.42-.42,.73-.62,.93-.21,.42-.62,.98-1.24,1.71-.62,.73-1.04,1.4-1.24,2.01-.21,.42-.31,1.14-.31,2.17-.42,.42-.62,.73-.62,.93-.42,2.07-.83,3.83-1.24,5.27l-.93,4.96c-.42,.42-.62,.73-.62,.93l.31,.93c0,.62-.21,1.35-.62,2.17-.42,2.07-.62,3.62-.62,4.65-.21,2.28-.31,5.89-.31,10.85v4.65c0,2.07,.1,3.52,.31,4.34,0,.42,.2,1.24,.62,2.48,.2,.42,.51,1.45,.93,3.1,.41,1.66,.93,2.79,1.55,3.41v.93c0,1.86,.72,3.72,2.17,5.58,0,.21,.05,.31,.15,.31s.15,.11,.15,.31l.93,1.55c.2,.42,.62,.98,1.24,1.71,.62,.73,1.03,1.19,1.24,1.4l.62,.93c.62,1.24,1.55,2.48,2.79,3.72,1.65,2.48,2.48,4.14,2.48,4.96v1.55c-.21,.62-.93,1.45-2.17,2.48h-.31c-.21,.21-.31,.42-.31,.62-.62,0-1.04,.11-1.24,.31-.21,.21-.42,.42-.62,.62-.21,.42-.42,.62-.62,.62-.42,0-.83,.11-1.24,.31-1.04,1.04-2.69,1.55-4.96,1.55h-.93c-.42,0-.88,.16-1.4,.46-.52,.31-.88,.46-1.08,.46-1.24,0-3.1,.21-5.58,.62-2.48,.42-4.45,.62-5.89,.62-.42,0-.98-.05-1.71-.16-.73-.1-1.4-.15-2.01-.15-2.48-.41-4.65-.82-6.51-1.24-5.17-1.03-8.89-1.96-11.16-2.79-.83-.41-1.86-.82-3.1-1.24l-3.41-1.55-.93-.93-6.51-4.34c-1.24-1.03-2.59-2.79-4.03-5.27-2.28-3.3-3.41-5.06-3.41-5.27-.21-.62-.62-2.06-1.24-4.34l-2.48-11.78v-2.17c0-2.27,.41-5.89,1.24-10.85,0-1.24,.1-2.06,.31-2.48l.93-2.48c.62-3.51,1.03-5.47,1.24-5.89v-.31l.31-.62c2.27-5.16,4.03-8.57,5.27-10.23l.93-.62c0-.2,.05-.41,.16-.62,.1-.2,.15-.41,.15-.62,.82-.41,1.34-.82,1.55-1.24l2.48-3.72,6.2-5.89,2.79-3.72h.31c.2-.2,.41-.31,.62-.31l2.17-2.48c2.89-1.65,5.06-2.99,6.51-4.03,.2,0,.41-.05,.62-.15,.2-.1,.41-.16,.62-.16v-.62h.62c.2-.2,.62-.51,1.24-.93,.62-.41,1.03-.72,1.24-.93l.93-.62c0-.2,.2-.41,.62-.62,.41-.2,.88-.41,1.4-.62,.51-.2,.88-.41,1.08-.62,3.92-1.65,6.09-2.68,6.51-3.1,1.03,0,2.79-.72,5.27-2.17,.62,0,1.13-.1,1.55-.31l.93-.93c.41-.2,1.03-.31,1.86-.31s1.44-.1,1.86-.31l2.79-.93c.82-.2,2.06-.31,3.72-.31l2.79-.93c.82-.2,2.06-.31,3.72-.31l2.79-1.24,6.2-1.55h7.13c.41,0,1.44-.05,3.1-.15,1.65-.1,2.89-.26,3.72-.47l.31-.31h.62c.2,0,.62,.16,1.24,.47,.62,.31,1.13,.46,1.55,.46h1.55c.82,.42,1.34,.62,1.55,.62s.62-.05,1.24-.16c.62-.1,1.03-.15,1.24-.15,.41,0,1.08,.15,2.01,.46,.93,.31,1.6,.47,2.02,.47h.62c.41,0,1.03-.1,1.86-.31,.82-.2,1.34-.31,1.55-.31,.82,0,1.86,.21,3.1,.62h3.41c.41,0,1.24,.21,2.48,.62l2.79,.62c1.44,.21,3.1,.73,4.96,1.55l4.96,1.24c1.24,1.04,2.37,1.66,3.41,1.86,.62,.42,1.6,.88,2.94,1.4,1.34,.52,2.33,.88,2.94,1.08,.2,0,.51,.21,.93,.62,.2,.21,.41,.31,.62,.31h.62l4.34,2.17c2.06,1.04,3.72,2.17,4.96,3.41,.2,0,.31,.11,.31,.31l.62,.31c.41,.21,1.44,.62,3.1,1.24l.31,.62,2.48,.93c.2,.21,.47,.57,.78,1.08,.31,.52,.67,.88,1.08,1.08l3.41,3.1c.2,.21,1.65,1.97,4.34,5.27,.41,.42,.82,1.04,1.24,1.86,2.48,3.1,3.82,4.76,4.03,4.96,.41,.83,.72,1.35,.93,1.55v.31l1.86,3.41,2.48,5.89c0,.21,.15,.47,.46,.78s.46,.57,.46,.77c.2,.42,.41,1.14,.62,2.17,.2,1.04,.41,1.86,.62,2.48l.31,.31v1.86c.41,.83,.62,1.55,.62,2.17,0,.42-.05,.93-.15,1.55-.11,.62-.16,1.14-.16,1.55l.93,5.58c0,.62-.15,1.66-.46,3.1-.31,1.45-.47,2.59-.47,3.41,0,.21,.05,.52,.16,.93,.1,.42,.15,.73,.15,.93v.62l.31,.31-.93,2.48v3.41c0,.21-.21,1.14-.62,2.79l-.93,2.48c-.42,2.48-.83,4.14-1.24,4.96-.21,.62-.73,1.55-1.55,2.79-.62,1.66-1.04,2.69-1.24,3.1,0,.21-.11,.42-.31,.62-.21,.21-.42,.42-.62,.62-.21,.21-.62,1.09-1.24,2.64-.62,1.55-1.24,2.63-1.86,3.25l-.31,.31c-.42,.42-.93,1.14-1.55,2.17-.62,1.04-1.04,1.76-1.24,2.17-.83,1.04-2.12,2.48-3.88,4.34-1.76,1.86-2.94,3.21-3.56,4.03l-1.24,1.24c-3.1,3.72-5.27,6-6.51,6.82-.21,.21-.52,.31-.93,.31l-.62,.93c-.42,.42-.73,.73-.93,.93-.21,.21-.46,.46-.77,.77-.31,.31-.67,.57-1.08,.78-.83,.83-2.28,1.86-4.34,3.1l-.93,1.24h-.62l-1.24,1.24h-.31l-.62,.31-1.24,.93h-.31c-.21,.21-.42,.31-.62,.31,0,.21-.42,.52-1.24,.93l-7.44,4.03-1.86,.62-3.41,3.1c-.83,.62-2.07,1.35-3.72,2.17-.42,.21-1.04,.62-1.86,1.24-.83,.62-1.45,1.04-1.86,1.24-.42,.21-1.14,.46-2.17,.78-1.04,.31-1.76,.57-2.17,.77-.42,.21-1.04,.73-1.86,1.55l-2.17,.62c-2.48,1.24-3.83,1.86-4.03,1.86l-8.68,3.72c-3.72,1.66-6.51,3.1-8.37,4.34l-4.03,1.86c-.42,.21-1.14,.46-2.17,.78-1.04,.31-1.76,.57-2.17,.77l-8.06,4.03c-2.69,1.04-4.14,1.66-4.34,1.86l-3.72,2.17c-.42,.21-1.24,.46-2.48,.77-1.24,.31-2.17,.67-2.79,1.08-.21,0-.73,.21-1.55,.62-.42,.21-1.45,.62-3.1,1.24-2.9,1.45-4.76,2.17-5.58,2.17-.42,.42-1.08,.88-2.02,1.4-.93,.52-1.5,.88-1.7,1.08l-1.24,.93c0,.21-.21,.31-.62,.31l-1.86,1.24c-.42,.21-.93,.42-1.55,.62-.62,.21-1.04,.42-1.24,.62l-1.55,1.24-1.24,1.24c-1.04,.62-2.38,1.76-4.03,3.41-1.66,1.66-3,2.79-4.03,3.41l-4.65,6.51c-.42,.42-.77,.98-1.08,1.71-.31,.73-.57,1.29-.77,1.71-.21,.42-.57,.93-1.08,1.55-.52,.62-.88,1.14-1.08,1.55-.21,.21-.42,.77-.62,1.7-.21,.93-.52,1.6-.93,2.02,0,.21-.36,1.04-1.08,2.48-.73,1.45-1.4,2.48-2.02,3.1,0,1.24-.21,2.48-.62,3.72-.62,1.24-.93,1.97-.93,2.17s.05,.31,.16,.31,.15,.11,.15,.31Z"/><path class="cls-3" d="M716.83,894.86c-.42,.42-1.14,1.24-2.17,2.48-1.04,1.24-1.76,2.28-2.17,3.1l-.62,1.24-.62,.62c-.42,.62-1.35,1.71-2.79,3.25-1.45,1.55-2.48,2.84-3.1,3.88-.62,.21-1.19,.47-1.71,.78-.52,.31-1.08,.78-1.71,1.39-.62,.62-1.14,1.04-1.55,1.24,0,.62-.31,.93-.93,.93h-.62l-2.79,2.48-2.79,2.79-2.79,1.24-2.48,1.86c-.21,.21-.52,.36-.93,.47-.42,.11-.83,.21-1.24,.31-.42,.11-.73,.16-.93,.16l-2.17,1.55c-.21,.21-.83,.46-1.86,.78-1.04,.31-1.86,.67-2.48,1.08-.42,.42-.73,.62-.93,.62s-.98,.16-2.33,.47c-1.35,.31-2.22,.67-2.63,1.08-.83,0-3.21,.72-7.13,2.17l-3.41,.93c-.42,.2-.98,.46-1.71,.78-.73,.31-1.19,.46-1.4,.46-.62,0-1.86,.05-3.72,.16-1.86,.1-3.31,.26-4.34,.46-.62,.2-1.76,.31-3.41,.31-1.04,0-1.86-.11-2.48-.31-2.9,.41-5.07,.62-6.51,.62h-2.48c-1.04,0-3-.42-5.89-1.24l-3.1-.62-1.24-.93h-.62c-.42,0-.62-.11-.62-.31l-5.58-1.86-1.24-.93h-1.55c-.83-.21-1.91-.72-3.26-1.55-1.35-.82-2.43-1.34-3.25-1.55-1.04-.41-2.74-.93-5.11-1.55-2.38-.62-4.08-1.13-5.12-1.55l-.62-.31c-.21-.2-.42-.31-.62-.31-.21-.2-.73-.31-1.55-.31-.21,0-.46-.2-.77-.62-.31-.41-.57-.62-.77-.62h-.93l-2.48-1.24c-1.24-.62-2.38-1.24-3.41-1.86-1.24-.62-2.07-1.13-2.48-1.55l-2.17-1.55-.62-.31-1.24-.93-2.48-1.55c-.21-.2-.46-.41-.77-.62-.31-.2-.57-.41-.78-.62-.62-.2-1.04-.62-1.24-1.24-.62-.62-1.71-1.39-3.25-2.33-1.55-.93-2.64-1.6-3.26-2.01l-2.79-2.48-3.1-3.1-1.24-2.17c-.83-1.24-1.35-2.17-1.55-2.79-.21-.41-.62-1.29-1.24-2.63-.62-1.34-1.04-2.22-1.24-2.64-.42-.62-1.08-1.55-2.02-2.79-.93-1.24-1.5-2.06-1.71-2.48l-.62-.62-1.55-1.86c-.21-.2-.31-.41-.31-.62s-.05-.36-.15-.47c-.11-.1-.16-.26-.16-.46l-.93-.93c-.42-.62-1.14-2.17-2.17-4.65-.21-.62-.62-1.39-1.24-2.32-.62-.93-1.04-1.6-1.24-2.02l-.62-1.86-.62-1.24-.31-.62c-.21-.41-.31-.72-.31-.93s-.31-.62-.93-1.24l-.62-1.86c-.42-2.06-.83-3.61-1.24-4.65-.21-.41-.83-3.61-1.86-9.61,0-.2-.05-.46-.15-.78-.11-.31-.16-.57-.16-.77-.21-.41-.31-1.13-.31-2.17v-2.48c0-.2-.11-.62-.31-1.24-.21-.62-.31-1.03-.31-1.24s-.11-1.03-.31-2.48c-.21-1.44-.42-2.58-.62-3.41,0-.2-.11-.51-.31-.93-.21-.41-.31-.82-.31-1.24-.21-.2-.31-.72-.31-1.55v-1.86c0-.62-.05-1.75-.15-3.41-.11-1.65-.16-2.89-.16-3.72-.42-1.24-.62-2.27-.62-3.1,0-.41,.05-1.03,.15-1.86,.1-.82,.15-1.44,.15-1.86s-.05-.98-.15-1.71c-.11-.72-.15-1.29-.15-1.71,0-.82-.11-2.02-.31-3.57-.21-1.55-.31-2.74-.31-3.56,0-.2,.1-1.71,.31-4.5,.2-2.79,.41-4.91,.62-6.36l.62-6.82,.93-6.51c.41-.82,.62-1.34,.62-1.55v-1.86l1.24-6.2,.93-3.1c0-.2,.05-.62,.15-1.24,.1-.62,.16-1.13,.16-1.55v-.62c.41-.62,1.13-2.37,2.17-5.27,1.24-2.06,1.86-3.82,1.86-5.27,.82-1.24,1.71-3.15,2.64-5.73,.93-2.58,1.7-4.39,2.32-5.42l.62-.62c0-.2,.1-.41,.31-.62,0-.2,.05-.46,.15-.78,.1-.31,.16-.57,.16-.77,1.03-1.44,1.55-2.27,1.55-2.48,.41-.62,.82-1.55,1.24-2.79l1.86-3.1,1.24-2.17c1.03-1.44,1.75-2.58,2.17-3.41l1.55-2.48c.2-.2,.46-.51,.77-.93,.31-.41,.62-.88,.93-1.4,.31-.51,.57-.88,.77-1.08l.93-.93c.2-.82,.72-1.65,1.55-2.48l.31-.62,.31-.62c0-.2,.15-.41,.46-.62,.31-.2,.46-.41,.46-.62l.62-1.24c.82-.82,1.44-1.34,1.86-1.55,0-.2,.2-.31,.62-.31l.93-1.24,2.79-2.48c1.03-1.44,2.27-2.58,3.72-3.41l.31-.31,.62-.31c.2,0,.46-.2,.77-.62,.31-.41,.57-.72,.77-.93l2.17-1.24c.62-.41,1.29-1.19,2.01-2.33,.72-1.13,1.29-1.91,1.71-2.32s1.19-.82,2.33-1.24c1.13-.41,1.91-.72,2.32-.93,.82-.82,1.44-1.34,1.86-1.55,2.68-1.03,4.34-1.75,4.96-2.17,.82-.41,1.44-.82,1.86-1.24,.62,0,1.03-.1,1.24-.31l.93-.93,.62-.31h.62c.41-.41,.72-.62,.93-.62l3.1-.62,1.55-.62c.82-.2,7.13-1.75,18.91-4.65,.2,0,.51-.1,.93-.31,.2,0,2.89-.31,8.06-.93h6.82c.62,0,3.15,.21,7.6,.62,4.44,.42,7.8,.83,10.07,1.24,1.03,.21,2.79,.62,5.27,1.24s4.23,1.04,5.27,1.24c6.2,1.66,9.5,2.59,9.92,2.79,1.86,.62,4.65,1.97,8.37,4.03l7.13,3.72,1.86,1.55,.62,.62c4.34,3.1,6.71,4.86,7.13,5.27l4.03,4.03c2.06,1.66,3.61,3.1,4.65,4.34l.93,1.24,1.86,2.48,3.1,3.72,1.55,1.55,1.24,2.17,.62,.62,.62,1.24,2.17,3.41,4.65,8.68,3.72,9.3c0,.21,.1,.73,.31,1.55l.93,1.24,.93,3.41c1.24,3.52,1.86,5.48,1.86,5.89,.2,.42,.31,.93,.31,1.55l.62,1.24c.41,1.24,.82,3.31,1.24,6.2l.62,6.51c.82,2.48,1.24,4.45,1.24,5.89,0,.62,.05,1.55,.16,2.79,.1,1.24,.15,2.17,.15,2.79s-.05,1.55-.15,2.79c-.11,1.24-.16,2.07-.16,2.48v21.08c0,.21-.11,1.29-.31,3.25-.21,1.97-.42,3.46-.62,4.5,0,.21-.05,.52-.16,.93-.11,.42-.16,.83-.16,1.24,0,.62-.05,1.81-.16,3.57-.11,1.76-.26,3.15-.46,4.18-.42,1.24-.62,2.38-.62,3.41-.42,.83-.62,1.35-.62,1.55v2.17c0,.21-.21,.73-.62,1.55,0,.83-.11,1.45-.31,1.86,0,.62-.21,1.76-.62,3.41,0,.21-.21,1.39-.62,3.56-.42,2.17-.83,3.88-1.24,5.12-.62,2.69-1.04,4.24-1.24,4.65l-.93,3.41-.62,3.1c-.21,.42-.47,.98-.78,1.71-.31,.73-.46,1.19-.46,1.39-.21,.42-.42,.98-.62,1.71-.21,.73-.42,1.19-.62,1.4,0,.21-.11,.46-.31,.77-.21,.31-.31,.57-.31,.78-.21,.21-.52,1.86-.93,4.96l-.62,.93c0,.62-.11,.93-.31,.93,0,.42-.21,.93-.62,1.55-.42,.62-.73,1.04-.93,1.24l-.93,1.24-.62,1.24-1.24,3.1-1.55,1.55-.31,.31v.31c-.21,.42-.67,1.29-1.4,2.63-.73,1.35-1.39,2.33-2.01,2.95-.42,0-.62,.11-.62,.31l-.31,.62v.31l-.31,.31c-.21,.21-.31,.52-.31,.93l-.31,.31c-.42,.21-.62,.42-.62,.62l-.62,1.55Zm-87.11-205.53c-1.24,1.24-2.28,2.07-3.1,2.48-.21,.42-.62,.93-1.24,1.55s-.93,1.04-.93,1.24l-.62,.62c-.21,.21-1.04,2.07-2.48,5.58-.62,.83-1.04,1.76-1.24,2.79-.21,.21-.31,.42-.31,.62s-.05,.36-.15,.46c-.11,.11-.16,.26-.16,.46s-.11,.42-.31,.62c-.21,.21-.31,.42-.31,.62-.21,.42-.31,.93-.31,1.55v1.24l-.93,2.17v2.48l-.93,2.17-.93,4.96c0,.62-.11,1.19-.31,1.71-.21,.52-.42,1.08-.62,1.71-.21,.62-.31,1.04-.31,1.24-.21,.42-.31,1.04-.31,1.86v1.55c0,1.66-.11,2.9-.31,3.72,0,.83-.11,2.01-.31,3.56-.21,1.55-.31,2.63-.31,3.25,0,1.04,.05,2.53,.15,4.5,.1,1.97,.16,3.36,.16,4.19v.93l.31,.62c0,.21-.11,.52-.31,.93v.31c0,1.45,.1,3.41,.31,5.89,.2,2.48,.31,4.45,.31,5.89,0,2.28-.11,3.83-.31,4.65,0,.21-.05,.46-.15,.77-.11,.31-.15,.57-.15,.78v3.1c0,.21-.05,.73-.16,1.55-.11,.83-.15,1.35-.15,1.55,0,.62,.05,1.45,.15,2.48,.1,1.04,.16,1.76,.16,2.17v4.96l-.62,7.75c0,.21-.11,.52-.31,.93-.21,.42-.31,.83-.31,1.24s.1,.93,.31,1.55c.2,.62,.31,1.04,.31,1.24v9.92c0,1.04-.05,2.79-.16,5.27-.11,2.48-.15,4.24-.15,5.27,0,.21,.05,.73,.15,1.55,.1,.83,.16,1.35,.16,1.55,0,.62-.21,1.35-.62,2.17,0,.21,.05,.57,.15,1.08,.1,.52,.16,.88,.16,1.08,0,.62-.05,1.45-.16,2.48-.11,1.04-.15,1.86-.15,2.48v4.65c.41,3.31,.62,5.69,.62,7.13,0,3.1,.1,5.48,.31,7.13v9.61c0,.42,.1,1.04,.31,1.86,.2,.83,.31,1.45,.31,1.86v5.58l.62,4.96c0,1.04,.2,2.59,.62,4.65l1.24,4.65c0,.42-.05,.98-.15,1.71-.11,.73-.15,1.29-.15,1.71,0,.62,.1,1.04,.31,1.24,0,.42,.1,1.04,.31,1.86,.2,.83,.31,1.45,.31,1.86v4.34c0,.62,.2,1.14,.62,1.55v1.86c.82,2.9,1.55,4.96,2.17,6.2,.2,.62,.72,1.55,1.55,2.79,.2,.42,.31,.93,.31,1.55,.82,.83,1.24,1.45,1.24,1.86l1.24,1.24c.41,.83,.82,1.35,1.24,1.55,1.44,1.86,2.48,3,3.1,3.41,.41,.21,1.24,.31,2.48,.31l.31,.62,3.41,.62c.41,.42,1.24,.83,2.48,1.24,.2,0,.93,.26,2.17,.78,1.24,.52,2.06,.78,2.48,.78s1.24-.2,2.48-.62c1.44,0,2.48-.1,3.1-.31,.2,0,.51-.2,.93-.62,.41-.41,1.08-.77,2.02-1.08,.93-.31,1.5-.57,1.71-.77l1.24-1.24c2.68-2.68,4.13-4.44,4.34-5.27,.82-.82,1.55-1.86,2.17-3.1,0-.2,.1-.31,.31-.31l.31-.62,.93-3.1,.93-3.1c.41-1.44,.82-3.82,1.24-7.13,0-.82,.1-1.44,.31-1.86,0-.2,.05-.41,.16-.62,.1-.2,.15-.41,.15-.62,.41-1.86,.93-6.92,1.55-15.19,0-.2,.05-.51,.16-.93,.1-.41,.15-.72,.15-.93s-.11-.51-.31-.93v-.62c.2-1.86,.31-4.54,.31-8.06,0-.2,.31-2.79,.93-7.75v-4.03c0-.41,.05-1.03,.15-1.86,.1-.82,.16-1.44,.16-1.86v-7.75c0-3.3,.1-5.68,.31-7.13v-.93l-.31-.31v-4.65c0-4.54-.11-8.06-.31-10.54v-8.68c0-.41-.05-1.03-.16-1.86-.11-.82-.15-1.44-.15-1.86,0-.2,.05-.51,.15-.93,.1-.41,.16-.72,.16-.93s-.05-.51-.16-.93c-.11-.41-.15-.72-.15-.93,0-3.51,.1-5.99,.31-7.44,0-.41,.15-1.55,.46-3.41,.31-1.86,.47-3.3,.47-4.34,0-.62-.11-1.4-.31-2.33-.21-.93-.31-1.5-.31-1.71,0-.41,.05-.88,.15-1.4,.1-.51,.16-.88,.16-1.08,.41-5.78,.62-10.54,.62-14.26v-3.41l-1.24-6.2c0-.62,.05-1.5,.15-2.64,.1-1.13,.16-2.01,.16-2.63,0-1.24-.05-2.99-.16-5.27-.11-2.27-.15-4.03-.15-5.27-.21-1.24-.31-3.1-.31-5.58l-.93-3.1c-.21-.82-.31-2.17-.31-4.03v-7.13c-.21-1.44-.67-3.67-1.4-6.67-.73-2.99-1.19-5.22-1.4-6.66-.21-.62-.52-1.24-.93-1.86-.42-.62-.88-1.29-1.4-2.01-.52-.72-.88-1.29-1.08-1.71l-1.55-2.79-2.79-2.48c-.42-.82-.83-1.44-1.24-1.86-.21-.41-.67-.88-1.4-1.39-.73-.51-1.19-.88-1.4-1.09l-1.55-1.24c-2.9-1.86-4.76-2.89-5.58-3.1-.21,0-3.1-.31-8.68-.93l-.31,.31c-.83,.21-1.76,.62-2.79,1.24-1.04,.62-1.76,1.04-2.17,1.24Z"/><path class="cls-3" d="M937.86,894.86c-.42,.42-1.14,1.24-2.17,2.48-1.04,1.24-1.76,2.28-2.17,3.1l-.62,1.24-.62,.62c-.42,.62-1.35,1.71-2.79,3.25-1.45,1.55-2.48,2.84-3.1,3.88-.62,.21-1.19,.47-1.71,.78-.52,.31-1.08,.78-1.71,1.39-.62,.62-1.14,1.04-1.55,1.24,0,.62-.31,.93-.93,.93h-.62l-2.79,2.48-2.79,2.79-2.79,1.24-2.48,1.86c-.21,.21-.52,.36-.93,.47-.42,.11-.83,.21-1.24,.31-.42,.11-.73,.16-.93,.16l-2.17,1.55c-.21,.21-.83,.46-1.86,.78-1.04,.31-1.86,.67-2.48,1.08-.42,.42-.73,.62-.93,.62s-.98,.16-2.33,.47c-1.35,.31-2.22,.67-2.63,1.08-.83,0-3.21,.72-7.13,2.17l-3.41,.93c-.42,.2-.98,.46-1.71,.78-.73,.31-1.19,.46-1.4,.46-.62,0-1.86,.05-3.72,.16-1.86,.1-3.31,.26-4.34,.46-.62,.2-1.76,.31-3.41,.31-1.04,0-1.86-.11-2.48-.31-2.9,.41-5.07,.62-6.51,.62h-2.48c-1.04,0-3-.42-5.89-1.24l-3.1-.62-1.24-.93h-.62c-.42,0-.62-.11-.62-.31l-5.58-1.86-1.24-.93h-1.55c-.83-.21-1.91-.72-3.26-1.55-1.35-.82-2.43-1.34-3.25-1.55-1.04-.41-2.74-.93-5.11-1.55-2.38-.62-4.08-1.13-5.12-1.55l-.62-.31c-.21-.2-.42-.31-.62-.31-.21-.2-.73-.31-1.55-.31-.21,0-.46-.2-.78-.62-.31-.41-.57-.62-.77-.62h-.93l-2.48-1.24c-1.24-.62-2.38-1.24-3.41-1.86-1.24-.62-2.07-1.13-2.48-1.55l-2.17-1.55-.62-.31-1.24-.93-2.48-1.55c-.21-.2-.46-.41-.77-.62-.31-.2-.57-.41-.78-.62-.62-.2-1.04-.62-1.24-1.24-.62-.62-1.71-1.39-3.25-2.33-1.55-.93-2.63-1.6-3.25-2.01l-2.79-2.48-3.1-3.1-1.24-2.17c-.83-1.24-1.35-2.17-1.55-2.79-.21-.41-.62-1.29-1.24-2.63-.62-1.34-1.04-2.22-1.24-2.64-.42-.62-1.08-1.55-2.01-2.79-.93-1.24-1.5-2.06-1.71-2.48l-.62-.62-1.55-1.86c-.21-.2-.31-.41-.31-.62s-.05-.36-.15-.47c-.11-.1-.16-.26-.16-.46l-.93-.93c-.42-.62-1.14-2.17-2.17-4.65-.21-.62-.62-1.39-1.24-2.32-.62-.93-1.04-1.6-1.24-2.02l-.62-1.86-.62-1.24-.31-.62c-.21-.41-.31-.72-.31-.93s-.31-.62-.93-1.24l-.62-1.86c-.42-2.06-.83-3.61-1.24-4.65-.21-.41-.83-3.61-1.86-9.61,0-.2-.05-.46-.16-.78-.11-.31-.16-.57-.16-.77-.21-.41-.31-1.13-.31-2.17v-2.48c0-.2-.11-.62-.31-1.24-.21-.62-.31-1.03-.31-1.24s-.11-1.03-.31-2.48c-.21-1.44-.42-2.58-.62-3.41,0-.2-.11-.51-.31-.93-.21-.41-.31-.82-.31-1.24-.21-.2-.31-.72-.31-1.55v-1.86c0-.62-.05-1.75-.15-3.41-.11-1.65-.16-2.89-.16-3.72-.42-1.24-.62-2.27-.62-3.1,0-.41,.05-1.03,.16-1.86,.1-.82,.15-1.44,.15-1.86s-.05-.98-.15-1.71c-.11-.72-.16-1.29-.16-1.71,0-.82-.11-2.02-.31-3.57-.21-1.55-.31-2.74-.31-3.56,0-.2,.1-1.71,.31-4.5,.2-2.79,.41-4.91,.62-6.36l.62-6.82,.93-6.51c.41-.82,.62-1.34,.62-1.55v-1.86l1.24-6.2,.93-3.1c0-.2,.05-.62,.15-1.24,.1-.62,.16-1.13,.16-1.55v-.62c.41-.62,1.13-2.37,2.17-5.27,1.24-2.06,1.86-3.82,1.86-5.27,.82-1.24,1.71-3.15,2.63-5.73,.93-2.58,1.71-4.39,2.33-5.42l.62-.62c0-.2,.1-.41,.31-.62,0-.2,.05-.46,.16-.78,.1-.31,.16-.57,.16-.77,1.03-1.44,1.55-2.27,1.55-2.48,.41-.62,.82-1.55,1.24-2.79l1.86-3.1,1.24-2.17c1.03-1.44,1.75-2.58,2.17-3.41l1.55-2.48c.2-.2,.46-.51,.78-.93,.31-.41,.62-.88,.93-1.4,.31-.51,.57-.88,.78-1.08l.93-.93c.2-.82,.72-1.65,1.55-2.48l.31-.62,.31-.62c0-.2,.16-.41,.46-.62,.31-.2,.46-.41,.46-.62l.62-1.24c.82-.82,1.44-1.34,1.86-1.55,0-.2,.2-.31,.62-.31l.93-1.24,2.79-2.48c1.03-1.44,2.27-2.58,3.72-3.41l.31-.31,.62-.31c.2,0,.46-.2,.77-.62,.31-.41,.57-.72,.78-.93l2.17-1.24c.62-.41,1.29-1.19,2.01-2.33,.72-1.13,1.29-1.91,1.71-2.32,.41-.41,1.19-.82,2.33-1.24,1.13-.41,1.91-.72,2.33-.93,.82-.82,1.44-1.34,1.86-1.55,2.68-1.03,4.34-1.75,4.96-2.17,.82-.41,1.44-.82,1.86-1.24,.62,0,1.03-.1,1.24-.31l.93-.93,.62-.31h.62c.41-.41,.72-.62,.93-.62l3.1-.62,1.55-.62c.82-.2,7.13-1.75,18.91-4.65,.2,0,.51-.1,.93-.31,.2,0,2.89-.31,8.06-.93h6.82c.62,0,3.15,.21,7.6,.62,4.44,.42,7.8,.83,10.07,1.24,1.03,.21,2.79,.62,5.27,1.24,2.48,.62,4.23,1.04,5.27,1.24,6.2,1.66,9.5,2.59,9.92,2.79,1.86,.62,4.65,1.97,8.37,4.03l7.13,3.72,1.86,1.55,.62,.62c4.34,3.1,6.71,4.86,7.13,5.27l4.03,4.03c2.06,1.66,3.61,3.1,4.65,4.34l.93,1.24,1.86,2.48,3.1,3.72,1.55,1.55,1.24,2.17,.62,.62,.62,1.24,2.17,3.41,4.65,8.68,3.72,9.3c0,.21,.1,.73,.31,1.55l.93,1.24,.93,3.41c1.24,3.52,1.86,5.48,1.86,5.89,.2,.42,.31,.93,.31,1.55l.62,1.24c.41,1.24,.82,3.31,1.24,6.2l.62,6.51c.82,2.48,1.24,4.45,1.24,5.89,0,.62,.05,1.55,.16,2.79,.1,1.24,.15,2.17,.15,2.79s-.05,1.55-.15,2.79c-.11,1.24-.16,2.07-.16,2.48v21.08c0,.21-.11,1.29-.31,3.25-.21,1.97-.42,3.46-.62,4.5,0,.21-.05,.52-.16,.93-.11,.42-.16,.83-.16,1.24,0,.62-.05,1.81-.16,3.57-.11,1.76-.26,3.15-.46,4.18-.42,1.24-.62,2.38-.62,3.41-.42,.83-.62,1.35-.62,1.55v2.17c0,.21-.21,.73-.62,1.55,0,.83-.11,1.45-.31,1.86,0,.62-.21,1.76-.62,3.41,0,.21-.21,1.39-.62,3.56-.42,2.17-.83,3.88-1.24,5.12-.62,2.69-1.04,4.24-1.24,4.65l-.93,3.41-.62,3.1c-.21,.42-.47,.98-.78,1.71-.31,.73-.46,1.19-.46,1.39-.21,.42-.42,.98-.62,1.71-.21,.73-.42,1.19-.62,1.4,0,.21-.11,.46-.31,.77-.21,.31-.31,.57-.31,.78-.21,.21-.52,1.86-.93,4.96l-.62,.93c0,.62-.11,.93-.31,.93,0,.42-.21,.93-.62,1.55-.42,.62-.73,1.04-.93,1.24l-.93,1.24-.62,1.24-1.24,3.1-1.55,1.55-.31,.31v.31c-.21,.42-.67,1.29-1.4,2.63-.73,1.35-1.39,2.33-2.01,2.95-.42,0-.62,.11-.62,.31l-.31,.62v.31l-.31,.31c-.21,.21-.31,.52-.31,.93l-.31,.31c-.42,.21-.62,.42-.62,.62l-.62,1.55Zm-87.11-205.53c-1.24,1.24-2.28,2.07-3.1,2.48-.21,.42-.62,.93-1.24,1.55s-.93,1.04-.93,1.24l-.62,.62c-.21,.21-1.04,2.07-2.48,5.58-.62,.83-1.04,1.76-1.24,2.79-.21,.21-.31,.42-.31,.62s-.05,.36-.16,.46-.16,.26-.16,.46-.11,.42-.31,.62c-.21,.21-.31,.42-.31,.62-.21,.42-.31,.93-.31,1.55v1.24l-.93,2.17v2.48l-.93,2.17-.93,4.96c0,.62-.11,1.19-.31,1.71-.21,.52-.42,1.08-.62,1.71-.21,.62-.31,1.04-.31,1.24-.21,.42-.31,1.04-.31,1.86v1.55c0,1.66-.11,2.9-.31,3.72,0,.83-.11,2.01-.31,3.56-.21,1.55-.31,2.63-.31,3.25,0,1.04,.05,2.53,.15,4.5,.1,1.97,.16,3.36,.16,4.19v.93l.31,.62c0,.21-.11,.52-.31,.93v.31c0,1.45,.1,3.41,.31,5.89,.2,2.48,.31,4.45,.31,5.89,0,2.28-.11,3.83-.31,4.65,0,.21-.05,.46-.15,.77-.11,.31-.16,.57-.16,.78v3.1c0,.21-.05,.73-.16,1.55-.11,.83-.15,1.35-.15,1.55,0,.62,.05,1.45,.15,2.48,.1,1.04,.16,1.76,.16,2.17v4.96l-.62,7.75c0,.21-.11,.52-.31,.93-.21,.42-.31,.83-.31,1.24s.1,.93,.31,1.55c.2,.62,.31,1.04,.31,1.24v9.92c0,1.04-.05,2.79-.16,5.27-.11,2.48-.15,4.24-.15,5.27,0,.21,.05,.73,.15,1.55,.1,.83,.16,1.35,.16,1.55,0,.62-.21,1.35-.62,2.17,0,.21,.05,.57,.16,1.08,.1,.52,.16,.88,.16,1.08,0,.62-.05,1.45-.16,2.48-.11,1.04-.16,1.86-.16,2.48v4.65c.41,3.31,.62,5.69,.62,7.13,0,3.1,.1,5.48,.31,7.13v9.61c0,.42,.1,1.04,.31,1.86,.2,.83,.31,1.45,.31,1.86v5.58l.62,4.96c0,1.04,.2,2.59,.62,4.65l1.24,4.65c0,.42-.05,.98-.16,1.71-.11,.73-.15,1.29-.15,1.71,0,.62,.1,1.04,.31,1.24,0,.42,.1,1.04,.31,1.86,.2,.83,.31,1.45,.31,1.86v4.34c0,.62,.2,1.14,.62,1.55v1.86c.82,2.9,1.55,4.96,2.17,6.2,.2,.62,.72,1.55,1.55,2.79,.2,.42,.31,.93,.31,1.55,.82,.83,1.24,1.45,1.24,1.86l1.24,1.24c.41,.83,.82,1.35,1.24,1.55,1.44,1.86,2.48,3,3.1,3.41,.41,.21,1.24,.31,2.48,.31l.31,.62,3.41,.62c.41,.42,1.24,.83,2.48,1.24,.2,0,.93,.26,2.17,.78,1.24,.52,2.06,.78,2.48,.78s1.24-.2,2.48-.62c1.44,0,2.48-.1,3.1-.31,.2,0,.51-.2,.93-.62,.41-.41,1.08-.77,2.02-1.08,.93-.31,1.5-.57,1.71-.77l1.24-1.24c2.68-2.68,4.13-4.44,4.34-5.27,.82-.82,1.55-1.86,2.17-3.1,0-.2,.1-.31,.31-.31l.31-.62,.93-3.1,.93-3.1c.41-1.44,.82-3.82,1.24-7.13,0-.82,.1-1.44,.31-1.86,0-.2,.05-.41,.16-.62,.1-.2,.16-.41,.16-.62,.41-1.86,.93-6.92,1.55-15.19,0-.2,.05-.51,.16-.93,.1-.41,.15-.72,.15-.93s-.11-.51-.31-.93v-.62c.2-1.86,.31-4.54,.31-8.06,0-.2,.31-2.79,.93-7.75v-4.03c0-.41,.05-1.03,.15-1.86,.1-.82,.16-1.44,.16-1.86v-7.75c0-3.3,.1-5.68,.31-7.13v-.93l-.31-.31v-4.65c0-4.54-.11-8.06-.31-10.54v-8.68c0-.41-.05-1.03-.16-1.86-.11-.82-.16-1.44-.16-1.86,0-.2,.05-.51,.16-.93,.1-.41,.16-.72,.16-.93s-.05-.51-.16-.93c-.11-.41-.16-.72-.16-.93,0-3.51,.1-5.99,.31-7.44,0-.41,.15-1.55,.46-3.41,.31-1.86,.46-3.3,.46-4.34,0-.62-.11-1.4-.31-2.33-.21-.93-.31-1.5-.31-1.71,0-.41,.05-.88,.16-1.4,.1-.51,.16-.88,.16-1.08,.41-5.78,.62-10.54,.62-14.26v-3.41l-1.24-6.2c0-.62,.05-1.5,.15-2.64,.1-1.13,.16-2.01,.16-2.63,0-1.24-.05-2.99-.16-5.27-.11-2.27-.15-4.03-.15-5.27-.21-1.24-.31-3.1-.31-5.58l-.93-3.1c-.21-.82-.31-2.17-.31-4.03v-7.13c-.21-1.44-.67-3.67-1.4-6.67-.73-2.99-1.19-5.22-1.39-6.66-.21-.62-.52-1.24-.93-1.86-.42-.62-.88-1.29-1.39-2.01-.52-.72-.88-1.29-1.08-1.71l-1.55-2.79-2.79-2.48c-.42-.82-.83-1.44-1.24-1.86-.21-.41-.67-.88-1.4-1.39-.73-.51-1.19-.88-1.39-1.09l-1.55-1.24c-2.9-1.86-4.76-2.89-5.58-3.1-.21,0-3.1-.31-8.68-.93l-.31,.31c-.83,.21-1.76,.62-2.79,1.24-1.04,.62-1.76,1.04-2.17,1.24Z"/><path class="cls-3" d="M1089.13,795.97c.41,.21,1.24,.31,2.48,.31h2.48l4.65,.93h.31c.41,.21,.72,.31,.93,.31l3.1,.93,4.65,.62,.62,.62c.2,0,2.79,1.14,7.75,3.41l.93,.62,4.34,2.17c.41,0,.93,.31,1.55,.93,.62,.42,1.7,1.08,3.25,2.01,1.55,.93,2.63,1.71,3.25,2.33,.41,.21,.98,.62,1.71,1.24,.72,.62,1.19,1.04,1.39,1.24,.41,.42,1.03,.78,1.86,1.08,.82,.31,1.34,.57,1.55,.78,1.44,2.07,2.37,3.21,2.79,3.41l.93,.62,.93,.62c.41,.42,.72,.73,.93,.93,.2,.21,.31,.52,.31,.93,.82,.42,1.55,1.14,2.17,2.17,0,.21,.1,.52,.31,.93,1.65,2.07,2.58,3.41,2.79,4.03l.62,2.48c0,.21,.1,.57,.31,1.08,.2,.52,.31,.88,.31,1.08,.2,.42,.36,1.14,.46,2.17,.1,1.04,.26,1.76,.46,2.17,0,.42,.2,1.08,.62,2.02,.41,.93,.72,1.7,.93,2.32l.62,1.24v3.1c0,1.45,.1,2.48,.31,3.1v.62c.2,.21,.31,.42,.31,.62,.2,.21,.31,.73,.31,1.55,.82,2.9,1.24,5.07,1.24,6.51,0,.62-.11,1.14-.31,1.55,0,.21,.1,.52,.31,.93v.62c0,.21-.05,.67-.16,1.4-.11,.73-.15,1.29-.15,1.71-.21,.83-.46,2.22-.78,4.18-.31,1.97-.57,3.36-.78,4.19-.21,.62-.57,1.45-1.08,2.48-.52,1.04-.77,1.66-.77,1.86l-.62,3.72-1.86,3.41-1.55,3.41c-.21,.42-.62,1.04-1.24,1.86-.62,.83-1.14,1.6-1.55,2.32-.42,.73-.73,1.5-.93,2.33-2.48,2.07-4.96,4.55-7.44,7.44-.21,.62-.62,1.04-1.24,1.24-.42,1.04-.73,1.55-.93,1.55-.21,.42-.73,.88-1.55,1.39-.83,.52-1.35,.88-1.55,1.08l-1.08,1.08-1.55,1.55-1.4,1.4c-3.1,1.24-6.2,2.79-9.3,4.65-.42,.21-.73,.31-.93,.31,0,.42-.11,.62-.31,.62h-.31l-4.34,2.79-.31,.31c-.21,0-.31,.11-.31,.31-.83,.42-1.35,.73-1.55,.93-.83,.83-2.17,1.45-4.03,1.86l-5.89,2.79c-1.24,.62-2.69,.93-4.34,.93-.42,.21-.93,.31-1.55,.31-1.24,.41-2.17,.82-2.79,1.24-1.24,.41-2.63,.78-4.18,1.08-1.55,.31-3.36,.62-5.42,.93-2.07,.31-3.62,.57-4.65,.78l-4.34,.93h-4.65c-.83,.41-1.45,.62-1.86,.62h-7.44c-.42,0-.93,.1-1.55,.31-.62,.2-1.14,.31-1.55,.31h-4.34c-.42,0-1.14,.05-2.17,.16-1.04,.1-1.86,.16-2.48,.16-1.04,0-2.43-.21-4.19-.62-1.76-.42-3.05-.73-3.88-.93h-4.34c-2.07,0-3.52-.11-4.34-.31-.21,0-.52-.11-.93-.31-.42-.21-.83-.31-1.24-.31-2.69,0-4.76-.11-6.2-.31-.62-.21-1.76-.62-3.41-1.24-1.66-.62-2.9-1.04-3.72-1.24-.21-.21-.73-.46-1.55-.78-.83-.31-1.45-.57-1.86-.77-.62,0-1.55-.41-2.79-1.24-.42-.2-1.04-.57-1.86-1.08-.83-.51-1.55-.98-2.17-1.39-.62-.41-1.14-.82-1.55-1.24-.42-.2-1.29-.82-2.63-1.86-1.35-1.03-2.43-1.65-3.25-1.86-.42-.41-1.66-1.55-3.72-3.41-2.07-1.86-3.31-3.61-3.72-5.27l-4.03-4.65c-.62-1.44-1.45-2.89-2.48-4.34-.21-.62-.62-1.34-1.24-2.17-.62-.82-1.04-1.44-1.24-1.86l-.31-.31v-.62c-.62-1.03-1.14-2.27-1.55-3.72l-1.86-3.1c0-.41-.21-.82-.62-1.24-.21-.82-.42-2.12-.62-3.88-.21-1.75-.42-3.05-.62-3.88,0-.41-.11-.82-.31-1.24v-.93c-.62-3.72-.93-5.68-.93-5.89v-6.82c.41-3.1,.82-5.16,1.24-6.2,.2-.82,.72-1.96,1.55-3.41,.82-1.44,1.34-2.58,1.55-3.41l.62-.31c0-.82,.1-1.34,.31-1.55,.2-.2,.62-.62,1.24-1.24s1.03-1.13,1.24-1.55l.62-1.24c.2-.2,.41-.31,.62-.31,.41-.62,1.13-1.6,2.17-2.95,1.03-1.34,1.65-2.22,1.86-2.63l3.41-3.41c.82-1.24,1.96-2.06,3.41-2.48,.2-.2,.41-.31,.62-.31,.41-.2,.72-.31,.93-.31l1.24-1.24c.41-.2,2.17-1.13,5.27-2.79,.41,0,1.03-.2,1.86-.62,.82-.41,1.44-.62,1.86-.62,.82-.2,2.17-.31,4.03-.31l8.06-.62c.41,0,1.03-.05,1.86-.16,.82-.1,1.34-.16,1.55-.16h.62l4.65,.93c.41,0,.82,.05,1.24,.15,.41,.11,.82,.16,1.24,.16,.82,.42,2.06,.93,3.72,1.55,1.65,.62,2.89,1.14,3.72,1.55l1.86,.93c1.86,.62,2.99,1.14,3.41,1.55l1.86,.93,1.86,.93,1.55,1.24c0,.62,.51,.93,1.55,.93,1.44,1.04,2.27,1.97,2.48,2.79,.2,.42,.31,.93,.31,1.55,0,1.04-.42,2.38-1.24,4.03l-2.17,4.34-.93,2.48-2.48,4.03-2.79,7.13-.93,5.27-1.24,4.96-.62,2.79c0,.42-.11,.83-.31,1.24-.21,.42-.31,.83-.31,1.24l.31,.93c0,.83-.11,2.43-.31,4.81-.21,2.38-.31,4.18-.31,5.42,0,1.66,.1,2.79,.31,3.41l1.24,5.89,.62,3.1c0,.42,.05,.98,.16,1.71,.1,.73,.15,1.19,.15,1.4,.41,1.24,1.08,2.69,2.02,4.34,.93,1.66,1.6,3,2.01,4.03,2.27,2.28,3.92,3.72,4.96,4.34,.62,0,1.13,.42,1.55,1.24l4.03,.93c.41,0,1.03,.21,1.86,.62,.82,.42,1.44,.62,1.86,.62h5.27c.2-.2,.82-.41,1.86-.62,1.03-.2,1.75-.51,2.17-.93,1.44-1.44,2.37-2.27,2.79-2.48l.31-.31,.31-.62c0-.2,.16-.51,.46-.93,.31-.41,.67-.88,1.08-1.39,.41-.51,.72-.88,.93-1.08l.62-1.24c0-.2,.1-.31,.31-.31s.31-.1,.31-.31v-.31c0-.2,.1-.41,.31-.62l2.48-4.03c1.03-2.48,1.75-4.54,2.17-6.2,0-1.03,.1-1.96,.31-2.79,.2-.62,.41-1.55,.62-2.79,.2-1.24,.41-2.17,.62-2.79l.93-5.27c0-2.89,.1-5.06,.31-6.51,0-2.48,.2-6.4,.62-11.78,.41-3.72,.62-6.2,.62-7.44,0-1.03-.21-2.58-.62-4.65v-.62c.62-3.1,.93-6.2,.93-9.3v-2.48c0-.2-.05-.67-.16-1.39-.11-.72-.16-1.4-.16-2.02v-4.34c0-.62-.21-1.29-.62-2.01-.42-.72-.62-1.4-.62-2.01v-3.41c0-.41-.11-.93-.31-1.55-.21-.62-.31-1.03-.31-1.24,0-1.24,.1-2.17,.31-2.79v-5.89c0-.41-.05-1.34-.16-2.79-.11-1.44-.26-2.48-.46-3.1-.21-1.44-.83-2.89-1.86-4.34-.83-1.03-2.48-2.37-4.96-4.03l-2.48-1.55c-.21,0-.42-.1-.62-.31l-1.86-1.24c-.42-.2-1.35-.51-2.79-.93-1.45-.41-2.48-.93-3.1-1.55h-1.24c-1.04,0-1.86-.1-2.48-.31-.42,0-.93-.05-1.55-.16-.62-.1-1.14-.16-1.55-.16-1.24-.2-2.9-.31-4.96-.31h-2.17l-4.65,.93-2.79,.93c-.21,0-.46,.15-.78,.46s-.67,.57-1.08,.77c-.21,0-.73,.11-1.55,.31-.83,.21-1.45,.42-1.86,.62-.42,.21-.77,.46-1.08,.77-.31,.31-.57,.46-.77,.46l-2.17,.62c-1.04,0-1.86,.11-2.48,.31v.31h-.93c-.62,.62-1.55,.93-2.79,.93l-2.48-.62c-.21-.2-.62-.31-1.24-.31-.21,0-.83-.05-1.86-.16-1.04-.1-1.76-.26-2.17-.46-1.04-1.03-1.55-1.65-1.55-1.86v-.31c0-.41,.36-1.08,1.08-2.01,.72-.93,1.08-1.5,1.08-1.71,.41-.41,.62-.82,.62-1.24l.93-.62c.41-.82,.82-1.44,1.24-1.86,.41-.62,1.03-1.5,1.86-2.64,.82-1.13,1.5-2.06,2.02-2.79,.51-.72,.98-1.29,1.39-1.7,.62,0,1.03-.1,1.24-.31l.93-.93c1.24-.62,1.96-.93,2.17-.93s.51-.05,.93-.15c.41-.1,.72-.16,.93-.16,.62,0,1.29,.05,2.01,.16,.72,.11,1.55,.26,2.48,.46,.93,.21,1.6,.31,2.01,.31,1.24,.42,1.96,.62,2.17,.62,.41,0,1.08-.05,2.02-.15,.93-.1,1.5-.16,1.7-.16,.82,0,1.86,.05,3.1,.16,1.24,.11,2.06,.15,2.48,.15,1.44-.2,3.41-.72,5.89-1.55l2.17-1.24c2.48,0,4.96-1.24,7.44-3.72l.62-.62,1.86-1.55c.2,0,.51-.2,.93-.62,1.24-.82,2.17-1.86,2.79-3.1,1.44-.62,2.58-1.96,3.41-4.03l1.24-3.41c0-.2,.1-.51,.31-.93,.2-.41,.31-.72,.31-.93v-2.17c0-1.65,.31-2.79,.93-3.41-.42-1.65-.62-2.99-.62-4.03,0-.62,.05-1.55,.16-2.79,.1-1.24,.16-2.17,.16-2.79v-4.96c0-2.06,.1-3.72,.31-4.96l.93-4.65c0-2.27-.11-3.92-.31-4.96,.2-.62,.46-1.4,.77-2.33,.31-.93,.47-1.5,.47-1.71v-2.17c.62-1.86,.93-3.2,.93-4.03,0-.2-.05-.51-.16-.93-.11-.41-.15-.72-.15-.93,0-.62-.05-1.96-.16-4.03-.11-2.06-.26-3.82-.46-5.27,0-1.44-.31-2.79-.93-4.03-.21-.41-.52-.93-.93-1.55-.42-.62-.62-1.13-.62-1.55,0-.2-.05-.46-.16-.77-.11-.31-.26-.57-.46-.78-.62-1.24-1.45-2.37-2.48-3.41-.62-.82-1.55-1.75-2.79-2.79-.21,0-.31-.1-.31-.31s-.11-.31-.31-.31c-1.24-.41-2.17-.62-2.79-.62l-2.79-1.24c-1.86-.62-3.83-.93-5.89-.93-.42,0-.98,.05-1.71,.16-.73,.11-1.29,.15-1.71,.15-.42,.21-1.45,.62-3.1,1.24-.21,.21-1.14,.83-2.79,1.86-1.66,1.04-3,1.55-4.03,1.55-.62,.62-1.4,1.71-2.33,3.25-.93,1.55-1.6,2.64-2.01,3.26l-1.55,2.48c-.21,.21-.62,1.35-1.24,3.41l-1.55,3.1c0,2.48-.31,4.14-.93,4.96,.2,.62,.31,1.45,.31,2.48,0,.42-.05,1.14-.15,2.17-.11,1.04-.16,1.76-.16,2.17v4.34c.41,4.55,.62,8.58,.62,12.09,0,.21-.05,.57-.16,1.08-.11,.52-.16,.88-.16,1.08l1.24,5.89c0,2.69,.41,4.55,1.24,5.58l-.93,2.79c0,.42,.1,.93,.31,1.55,.2,.62,.31,1.14,.31,1.55v.62l-.31,.62c-.21,.83-.83,1.55-1.86,2.17-.42,.42-1.04,.62-1.86,.62h-1.24l-3.41,1.86c-.42,0-1.55,.11-3.41,.31-1.86,.21-3.41,.42-4.65,.62-.42,0-1.04,.05-1.86,.16-.83,.11-1.45,.16-1.86,.16-2.69,0-4.86-.41-6.51-1.24h-.93c-.42,0-1.86-.31-4.34-.93-.83,0-1.45-.1-1.86-.31-.62,0-1.55-.31-2.79-.93l-2.79-.93-2.48-1.24-4.34-2.48-2.48-2.17c-.42-.41-.88-1.03-1.39-1.86-.52-.82-.88-1.44-1.08-1.86-.42-.41-1.04-.82-1.86-1.24-1.45-1.24-3-3.51-4.65-6.82l-.31-.31v-.62l-1.24-2.48c0-1.24-.11-2.27-.31-3.1l-.93-2.79c0-.41,.1-.82,.31-1.24,.2-.41,.31-.82,.31-1.24l.62-6.51c0-.62,.26-1.29,.78-2.02,.51-.72,.77-1.29,.77-1.71,.2-.2,.31-.72,.31-1.55l.62-3.1c0-.82,.1-1.34,.31-1.55,0-.2,.82-1.13,2.48-2.79,.41-2.27,1.34-4.34,2.79-6.2l1.24-1.55c1.86-2.48,2.99-3.92,3.41-4.34,.2-.2,.51-.46,.93-.77,.41-.31,.62-.57,.62-.77,.2-.2,.31-.51,.31-.93l1.24-1.24c.41-.2,1.29-.72,2.63-1.55,1.34-.82,2.33-1.55,2.94-2.17,2.27-.62,5.78-2.48,10.54-5.58,.2,0,2.99-.82,8.37-2.48l5.58-1.55c1.24-.41,2.06-.62,2.48-.62,2.89-.62,6.71-1.34,11.47-2.17,.41,0,1.24-.2,2.48-.62,1.24-.41,2.17-.72,2.79-.93h3.41c2.27,0,3.92-.1,4.96-.31,.62,0,1.34-.1,2.17-.31,.82-.2,1.55-.31,2.17-.31l3.72-.93c.82,0,2.27,.05,4.34,.16,2.06,.11,3.41,.15,4.03,.15h4.65c.82,.21,1.86,.31,3.1,.31,2.68,0,4.75,.21,6.2,.62,2.06,.42,3.72,.83,4.96,1.24h1.55c.2,.21,.51,.31,.93,.31h1.24l5.58,1.55h3.72c.41,.21,.93,.52,1.55,.93,.62,.42,1.13,.73,1.55,.93,.62,0,1.44,.31,2.48,.93,.2,0,.31,.11,.31,.31s.1,.31,.31,.31c.82,0,1.55,.42,2.17,1.24,1.44,.83,2.89,1.35,4.34,1.55,1.24,.42,2.89,.83,4.96,1.24,.2,.21,.51,.42,.93,.62,.62,.21,1.03,.42,1.24,.62,.82,.42,1.44,.83,1.86,1.24,.41,.21,.93,.31,1.55,.31l.62,.93c.41,0,.62,.11,.62,.31l.31,.31c0,.21,.1,.21,.31,0,.2,.21,.47,.42,.78,.62,.31,.21,.67,.42,1.08,.62,.41,.21,.72,.42,.93,.62l3.1,2.48,1.24,.62,1.24,1.86c.2,.21,.51,.42,.93,.62l.62,.31c.41,.42,1.03,1.55,1.86,3.41l.93,1.55c.62,1.24,1.34,2.28,2.17,3.1,0,.21,.31,.57,.93,1.08,.62,.52,.93,.88,.93,1.08l1.24,2.17c1.03,1.24,1.96,3.31,2.79,6.2,.62,1.45,.93,3.1,.93,4.96v.31c0,.42,.05,1.04,.16,1.86,.1,.83,.16,1.35,.16,1.55,0,.83-.21,1.86-.62,3.1,.41,1.66,.62,2.69,.62,3.1s-.21,1.66-.62,3.72l-.62,3.41c-.21,.42-.73,2.07-1.55,4.96v1.86c-.83,1.24-1.35,2.17-1.55,2.79l-.62,1.24c-.21,.42-.83,1.76-1.86,4.03l-1.24,2.48-.62,.31c-.62,.83-1.45,2.12-2.48,3.88-1.04,1.76-2.02,3.36-2.95,4.8-.93,1.45-2.01,2.69-3.25,3.72v.62h-.62l-.31,.31-3.1,2.79c-.83,.42-1.45,.83-1.86,1.24l-2.17,1.86-.31,.31h-.62l-.62,.62c-.21,.42-.42,.62-.62,.62-.42,.42-1.04,.83-1.86,1.24-.42,.21-1.45,.83-3.1,1.86l-.62,.62-.31,.31-.31,.31c-.42,0-.73,.11-.93,.31l-.62,.62c-.21,.21-.93,.52-2.17,.93-.21,.42-.62,.83-1.24,1.24-.62,.42-1.04,.73-1.24,.93l-1.24,.31c-.62,.21-1.04,.31-1.24,.31l-.31,.31-2.48,1.24c-1.24,.42-2.17,.83-2.79,1.24l-2.17,1.24-5.58,.62c-.42,.21-.73,.42-.93,.62-1.04,.42-1.86,1.04-2.48,1.86Z"/></g></g></svg>