<?xml version="1.0" encoding="UTF-8"?><svg id="Layer_1" xmlns="http://www.w3.org/2000/svg" xmlns:xlink="http://www.w3.org/1999/xlink" viewBox="0 0 412.19 120.64"><defs><style>.cls-1{fill:#b12d27;}.cls-2{fill:#fff;}.cls-3{fill:#b22d27;}.cls-4{fill:url(#linear-gradient);}</style><linearGradient id="linear-gradient" x1="57.83" y1="19.21" x2="57.83" y2="100.21" gradientUnits="userSpaceOnUse"><stop offset="0" stop-color="#f6c500"/><stop offset="1" stop-color="#f49200"/></linearGradient></defs><path d="M127.61,8.49h9.94l6.73,25.75,7.34-25.75h3.72l-9.89,34.01h-8.82l-9.03-34.01Z"/><path d="M177.59,34.45c-.2,2.6-.51,3.72-1.33,5-1.53,2.29-4.79,3.62-8.92,3.62s-7.7-1.38-9.79-3.77c-1.84-2.14-2.75-5.1-2.75-8.77,0-8.16,4.95-13.82,12.09-13.82,2.8,0,5.76,1.07,7.34,2.7,2.45,2.55,3.31,5.41,3.31,11.42h-13.26c.1,5.1.36,6.63,1.48,8.31.61.92,2.04,1.58,3.42,1.58,2.91,0,4.79-2.19,4.79-5.61,0-.56,0-1.07-.05-1.73l3.67,1.07ZM169.69,27.97c-.15-6.58-.76-8.72-2.65-8.72-.87,0-1.63.71-2.09,1.99-.36,1.07-.46,1.89-.66,6.73h5.41Z"/><path d="M194.83,40.37c-1.84,2.19-3.01,2.7-6.12,2.7-5.3,0-8.47-4.84-8.47-13,0-4.79,1.17-8.67,3.31-10.86,1.63-1.68,3.52-2.5,5.66-2.5,2.7,0,3.98.71,5.61,3.11v-11.32c4.23-.05,4.9-.1,9.13-.51v34.52h-9.13v-2.14ZM194.98,29.5c0-4.54-.2-6.48-.92-7.8-.36-.71-1.17-1.22-1.94-1.22-1.94,0-2.45,2.19-2.45,9.89,0,6.94.56,8.87,2.7,8.87s2.6-1.89,2.6-9.74Z"/><path d="M209.01,17.47c4.28-.05,4.95-.1,9.23-.71v25.75h-9.23v-25.04ZM209.36,10.89c0-2.04,1.58-3.26,4.23-3.26s4.28,1.22,4.28,3.26-1.58,3.31-4.28,3.31-4.23-1.22-4.23-3.31Z"/><path d="M245.06,33.58c0,6.02-3.77,9.49-10.4,9.49-4.79,0-8.11-1.33-10.05-4.03-1.53-2.14-2.4-5.3-2.4-8.52,0-4.84,1.58-8.62,4.54-10.91,2.4-1.89,5.51-2.91,8.67-2.91,3.52,0,6.38,1.27,7.75,3.42.76,1.17,1.02,2.24,1.07,4.49l-4.28,2.09c.05-.92.1-1.99.1-2.45,0-3.37-1.27-5.25-3.52-5.25-.97,0-1.99.46-2.7,1.17-1.48,1.63-2.09,4.44-2.09,9.64,0,5.66.51,8.31,1.83,9.84.61.71,1.63,1.12,2.7,1.12,1.79,0,3.37-1.02,4.28-2.75.61-1.07.82-2.19.82-4.03,0-.41-.1-1.68-.2-2.7l3.88,1.17v1.12Z"/><path d="M130.67,77.49h9.99l5.76,20.55,5.71-20.55h10.25v34.01h-9.64v-23.66l-6.53,23.66h-5.41l-6.73-23.25v23.25h-3.42v-34.01Z"/><path d="M193.25,110.59c-2.55,1.02-4.08,1.33-6.53,1.33-3.47,0-5-.77-5.76-2.91-1.68,2.19-3.42,3.01-6.43,3.01-5,0-8.06-2.8-8.06-7.39,0-4.08,1.94-6.22,7.24-7.85,3.11-.97,3.82-1.22,4.84-1.89,1.22-.77,1.84-1.89,1.84-3.37,0-2.24-1.48-3.67-3.82-3.67s-4.39,1.73-4.39,3.93c0,.71.15,1.53.66,2.96l-4.49-.87c-.15-.87-.2-1.58-.2-2.19,0-3.72,4.08-5.97,10.91-5.97s10.4,2.04,10.4,5.56v15.25c0,1.53.46,2.19,1.53,2.19.36,0,.71-.1,1.38-.36l.87,2.24ZM180.34,96.41c-.77.87-.92,1.02-1.99,1.63-1.17.71-1.68,1.12-2.04,1.84-.46.87-.76,2.45-.76,4.03,0,3.37.56,4.64,1.99,4.64,1.63,0,2.8-2.09,2.8-4.95v-7.19Z"/><path d="M195.34,89.33h-3.06v-2.86h3.06v-4.44c4.39-1.22,5.05-1.48,9.23-3.72v8.16h3.88v2.86h-3.88v17.75c0,1.07.36,1.63,1.02,1.63.51,0,.76-.36.92-1.12l2.5.25c-.46,1.58-.82,2.24-1.68,2.8-1.07.77-2.7,1.17-4.79,1.17-4.64,0-7.19-2.09-7.19-5.87v-16.62Z"/><path d="M211.3,77.49c4.23-.05,4.89-.1,9.13-.51v13.72c1.12-1.89,1.78-2.6,2.96-3.37,1.58-1.02,3.47-1.58,5.35-1.58,3.98,0,6.27,2.09,6.27,5.71v20.04h-8.97v-19.07c0-1.43-.46-1.99-1.63-1.99-1.94,0-3.98,4.44-3.98,8.57v12.49h-9.13v-34.01Z"/><path d="M261.69,103.45c-.2,2.6-.51,3.72-1.33,5-1.53,2.29-4.79,3.62-8.92,3.62s-7.7-1.38-9.79-3.77c-1.84-2.14-2.75-5.1-2.75-8.77,0-8.16,4.95-13.82,12.09-13.82,2.8,0,5.76,1.07,7.34,2.7,2.45,2.55,3.31,5.4,3.31,11.42h-13.26c.1,5.1.36,6.63,1.48,8.31.61.92,2.04,1.58,3.42,1.58,2.91,0,4.79-2.19,4.79-5.61,0-.56,0-1.07-.05-1.73l3.67,1.07ZM253.78,96.97c-.15-6.58-.77-8.72-2.65-8.72-.87,0-1.63.71-2.09,1.99-.36,1.07-.46,1.89-.66,6.73h5.41Z"/><path d="M265.72,86.32c4.28,0,4.9-.05,9.13-.61v4.33c1.22-1.63,1.89-2.29,3.01-2.96,1.48-.87,3.21-1.33,4.95-1.33,2.96,0,4.28.97,5.71,4.03,2.14-2.86,4.39-4.08,7.55-4.08,4.03,0,6.37,2.35,6.37,6.32v19.48h-9.18v-18.82c0-1.68-.41-2.4-1.38-2.4-1.99,0-3.37,2.91-3.37,6.99v14.23h-9.03v-18.46c0-2.09-.31-2.7-1.33-2.7-1.94,0-3.31,2.86-3.31,6.99v14.18h-9.13v-25.19Z"/><path d="M332.93,110.59c-2.55,1.02-4.08,1.33-6.53,1.33-3.47,0-5-.77-5.76-2.91-1.68,2.19-3.42,3.01-6.43,3.01-5,0-8.06-2.8-8.06-7.39,0-4.08,1.94-6.22,7.24-7.85,3.11-.97,3.82-1.22,4.84-1.89,1.22-.77,1.84-1.89,1.84-3.37,0-2.24-1.48-3.67-3.83-3.67s-4.39,1.73-4.39,3.93c0,.71.15,1.53.66,2.96l-4.49-.87c-.15-.87-.2-1.58-.2-2.19,0-3.72,4.08-5.97,10.91-5.97s10.4,2.04,10.4,5.56v15.25c0,1.53.46,2.19,1.53,2.19.36,0,.71-.1,1.38-.36l.87,2.24ZM320.03,96.41c-.76.87-.92,1.02-1.99,1.63-1.17.71-1.68,1.12-2.04,1.84-.46.87-.76,2.45-.76,4.03,0,3.37.56,4.64,1.99,4.64,1.63,0,2.8-2.09,2.8-4.95v-7.19Z"/><path d="M335.03,89.33h-3.06v-2.86h3.06v-4.44c4.38-1.22,5.05-1.48,9.23-3.72v8.16h3.88v2.86h-3.88v17.75c0,1.07.36,1.63,1.02,1.63.51,0,.76-.36.92-1.12l2.5.25c-.46,1.58-.82,2.24-1.68,2.8-1.07.77-2.7,1.17-4.79,1.17-4.64,0-7.19-2.09-7.19-5.87v-16.62Z"/><path d="M351.14,86.47c4.28-.05,4.95-.1,9.23-.71v25.75h-9.23v-25.04ZM351.5,79.89c0-2.04,1.58-3.26,4.23-3.26s4.28,1.22,4.28,3.26-1.58,3.32-4.28,3.32-4.23-1.22-4.23-3.32Z"/><path d="M387.2,102.58c0,6.02-3.77,9.48-10.4,9.48-4.79,0-8.11-1.32-10.05-4.03-1.53-2.14-2.4-5.3-2.4-8.52,0-4.85,1.58-8.62,4.54-10.91,2.4-1.89,5.51-2.91,8.67-2.91,3.52,0,6.38,1.28,7.75,3.42.76,1.17,1.02,2.24,1.07,4.49l-4.28,2.09c.05-.92.1-1.99.1-2.45,0-3.37-1.27-5.25-3.52-5.25-.97,0-1.99.46-2.7,1.17-1.48,1.63-2.09,4.44-2.09,9.64,0,5.66.51,8.31,1.83,9.84.61.71,1.63,1.12,2.7,1.12,1.79,0,3.37-1.02,4.28-2.75.61-1.07.82-2.19.82-4.03,0-.41-.1-1.68-.2-2.7l3.88,1.17v1.12Z"/><path d="M405.56,93.66c0-1.99-.31-2.91-1.22-3.82-.97-1.02-2.55-1.68-3.98-1.68-1.73,0-3.16,1.17-3.16,2.6s1.27,2.45,5.51,4.18c4.08,1.68,4.95,2.14,6.07,3.21,1.58,1.48,2.35,3.31,2.35,5.51,0,3.06-1.58,5.76-4.23,7.19-1.53.82-3.77,1.28-6.48,1.28-4.03,0-6.88-.87-9.03-2.7-1.73-1.48-2.35-2.96-2.45-5.81l4.69-.92c-.05.61-.1,1.17-.1,1.63,0,2.75,2.86,5.25,6.12,5.25,1.94,0,3.31-1.12,3.31-2.75s-.82-2.24-5.3-4.13c-5.46-2.35-8.01-5.15-8.01-8.82,0-4.69,4.54-8.06,10.96-8.06,3.26,0,5.41.71,7.14,2.35,1.43,1.28,1.94,2.4,2.24,4.69l-4.44.82Z"/><rect class="cls-3" y="3.13" width="115.67" height="113.67"/><circle class="cls-4" cx="57.83" cy="59.71" r="40.5"/><path class="cls-1" d="M61.05,59.68h-4.85v.07c.53.75.94,9.49.94,20.19s-.42,19.44-.94,20.19v.59h4.85v-.52c-.56,0-1.02-9.07-1.02-20.26s.46-20.26,1.02-20.26Z"/><path class="cls-1" d="M65.38,30.71c3.93.87,7.9,3.55,10.32,6.72,1.13,1.15,2.26,2.61,2.88,4.08.27.16.52.62.48.96,1.82,3.53,2.6,8.11,1.92,12-.86,6.51-4.67,12.34-8.64,17.4.14.02.26.05.26.07.08,5.75.07,11.64-.02,17.4,0,.06-.11.11-.24.17-2.65.46-6.26.44-9,0-.23.27-.45.03-.54-.3-.15-7.04-.19-14.15-.06-21.2.03-1.39.28-8.09,1.06-8.68,2.86-.14,6.88-.88,6.8-4.49-.1-4.7-6.02-4.14-7.62-.6,0,.51-.75,3.11-1.02,3.3s-6.36.1-6.71-.14l-.27-.47c-.68-5.78-9.15-7.83-7.84-.53.72,1.64,2.04,2.18,3.78,2.58,1.33.31,2.79-.35,3.12,1.44,1.62,8.85-.12,19.46.55,28.51.05.25-.17.83-.37.83h-7.56v-9s-.33-.36-.36-.36h-7.92c-.51,0-1.27-1.28-1.3-1.82l-1.01-12.19c-.28-.82-3.68-.87-4.52-1.36-.19-.26,2.06-5.25,2.39-5.99.83-1.92,1.7-3.86,2.61-5.81-.15-1.06-.62-2.08-1.4-3.08-.59-2.2,1.71-7.01,2.86-8.87.22-.71.81-1.8,1.44-2.16-.13-.28.2-.58.48-.72.71-1.15,1.91-2.69,3.12-3.12,6.05-5.3,14.63-7.1,22.32-4.56Z"/><path class="cls-2" d="M30.52,25.71c-.26.2-.68.09-.95-.25,0,0-4.15-5.28-4.15-5.28-.27-.34-.27-.78-.01-.98.26-.2.68-.09.95.25l4.15,5.28c.27.34.27.78.01.98Z"/><path class="cls-2" d="M38.71,20.64c-.3.14-.69-.06-.87-.45,0,0-2.88-6.07-2.88-6.07-.18-.39-.09-.82.2-.96.3-.14.69.06.87.45l2.88,6.07c.18.39.09.82-.2.96Z"/><path class="cls-2" d="M47.82,17.51c-.32.07-.65-.21-.75-.63,0,0-1.46-6.55-1.46-6.55-.09-.42.09-.82.41-.89.32-.07.65.21.75.63l1.46,6.55c.09.42-.09.82-.41.89Z"/><path class="cls-2" d="M57.39,16.47c-.33,0-.59-.35-.59-.78,0,0,.02-6.72.02-6.72,0-.43.27-.78.6-.78.33,0,.59.35.59.78l-.02,6.72c0,.43-.27.78-.6.78Z"/><path class="cls-2" d="M66.96,17.58c-.32-.07-.5-.47-.4-.89,0,0,1.51-6.54,1.51-6.54.1-.42.43-.7.75-.63.32.07.5.47.4.89l-1.51,6.54c-.1.42-.43.7-.75.63Z"/><path class="cls-2" d="M76.04,20.77c-.3-.14-.38-.57-.2-.96,0,0,2.92-6.05,2.92-6.05.19-.39.58-.59.87-.44.3.14.38.57.2.96l-2.92,6.05c-.19.39-.58.59-.87.44Z"/><path class="cls-2" d="M84.2,25.89c-.26-.2-.25-.64.02-.98,0,0,4.18-5.25,4.18-5.25.27-.34.69-.44.95-.24.26.2.25.64-.02.98l-4.18,5.25c-.27.34-.69.44-.95.24Z"/><path class="cls-2" d="M91.01,32.69c-.2-.26-.1-.68.24-.95,0,0,5.24-4.2,5.24-4.2.34-.27.77-.28.98-.02.2.26.1.68-.24.95l-5.24,4.2c-.34.27-.77.28-.98.02Z"/><path class="cls-2" d="M96.16,40.83c-.14-.29.05-.69.44-.87,0,0,6.04-2.94,6.04-2.94.39-.19.82-.1.96.19.14.29-.05.69-.44.87l-6.04,2.94c-.39.19-.82.1-.96-.19Z"/><path class="cls-2" d="M99.38,49.91c-.07-.32.2-.66.62-.75,0,0,6.54-1.53,6.54-1.53.42-.1.82.08.89.4.07.32-.2.66-.62.75l-6.54,1.53c-.42.1-.82-.08-.89-.4Z"/><path class="cls-2" d="M100.51,59.47c0-.33.35-.6.78-.6,0,0,6.72-.04,6.72-.04.43,0,.78.26.78.59,0,.33-.35.6-.78.6l-6.72.04c-.43,0-.78-.26-.78-.59Z"/><path class="cls-2" d="M99.5,69.05c.07-.32.47-.5.89-.41,0,0,6.56,1.44,6.56,1.44.42.09.7.43.63.75-.07.32-.47.5-.89.41l-6.56-1.44c-.42-.09-.7-.43-.63-.75Z"/><path class="cls-2" d="M96.4,78.16c.14-.3.57-.39.96-.2,0,0,6.08,2.86,6.08,2.86.39.18.59.57.45.87-.14.3-.57.39-.96.2l-6.08-2.86c-.39-.18-.59-.57-.45-.87Z"/><path class="cls-2" d="M91.35,86.37c.2-.26.64-.25.98.01,0,0,5.29,4.13,5.29,4.13.34.26.45.69.25.95-.2.26-.64.25-.98-.01l-5.29-4.13c-.34-.26-.45-.69-.25-.95Z"/><path class="cls-2" d="M84.62,93.25c.25-.21.68-.11.95.23,0,0,4.25,5.2,4.25,5.2.27.33.29.77.03.98-.25.21-.68.11-.95-.23l-4.25-5.2c-.27-.33-.29-.77-.03-.98Z"/><path class="cls-2" d="M76.53,98.48c.29-.15.69.05.88.43,0,0,2.99,6.01,2.99,6.01.19.39.11.82-.18.96-.29.15-.69-.05-.88-.43l-2.99-6.01c-.19-.39-.11-.82.18-.96Z"/><path class="cls-2" d="M67.49,101.78c.32-.08.66.2.76.62,0,0,1.59,6.53,1.59,6.53.1.42-.07.82-.39.9-.32.08-.66-.2-.76-.62l-1.59-6.53c-.1-.42.07-.82.39-.9Z"/><path class="cls-2" d="M57.94,103.01c.33,0,.6.34.61.77,0,0,.11,6.72.11,6.72,0,.43-.25.78-.58.79-.33,0-.6-.34-.61-.77l-.11-6.72c0-.43.25-.78.58-.79Z"/><path class="cls-2" d="M48.35,102.09c.32.07.51.46.42.88,0,0-1.38,6.57-1.38,6.57-.09.42-.42.71-.74.64-.32-.07-.51-.46-.42-.88l1.38-6.57c.09-.42.42-.71.74-.64Z"/><path class="cls-2" d="M39.2,99.07c.3.14.39.56.21.96,0,0-2.8,6.1-2.8,6.1-.18.39-.57.6-.86.46-.3-.14-.39-.56-.21-.96l2.8-6.1c.18-.39.57-.6.86-.46Z"/><path class="cls-2" d="M30.95,94.11c.26.2.26.64,0,.98,0,0-4.08,5.33-4.08,5.33-.26.34-.68.46-.94.26-.26-.2-.26-.64,0-.98l4.08-5.33c.26-.34.68-.46.94-.26Z"/><path class="cls-2" d="M24,87.44c.21.25.11.68-.22.95,0,0-5.16,4.3-5.16,4.3-.33.28-.77.29-.98.04-.21-.25-.11-.68.22-.95l5.16-4.3c.33-.28.77-.29.98-.04Z"/><path class="cls-2" d="M18.7,79.4c.15.29-.04.69-.42.88,0,0-5.98,3.05-5.98,3.05-.38.2-.81.12-.96-.17-.15-.29.04-.69.42-.88l5.98-3.05c.38-.2.81-.12.96.17Z"/><path class="cls-2" d="M15.3,70.39c.08.32-.19.66-.61.77,0,0-6.51,1.65-6.51,1.65-.42.11-.82-.07-.9-.38-.08-.32.19-.66.61-.77l6.51-1.65c.42-.11.82.07.9.38Z"/><path class="cls-2" d="M13.99,60.85c0,.33-.33.6-.76.61,0,0-6.71.17-6.71.17-.43.01-.79-.25-.79-.57,0-.33.33-.6.76-.61l6.71-.17c.43-.01.79.25.79.57Z"/><path class="cls-2" d="M14.81,51.26c-.06.32-.46.51-.88.43,0,0-6.59-1.32-6.59-1.32-.42-.08-.71-.41-.65-.73.06-.32.46-.51.88-.43l6.59,1.32c.42.08.71.41.65.73Z"/><path class="cls-2" d="M17.74,42.09c-.13.3-.56.4-.95.22,0,0-6.13-2.74-6.13-2.74-.39-.18-.6-.56-.47-.86.13-.3.56-.4.95-.22l6.13,2.74c.39.18.6.56.47.86Z"/><path class="cls-2" d="M22.62,33.79c-.2.26-.63.27-.98,0,0,0-5.37-4.03-5.37-4.03-.34-.26-.46-.68-.27-.94.2-.26.63-.27.98,0l5.37,4.03c.34.26.46.68.27.94Z"/></svg>