<?xml version="1.0" encoding="UTF-8"?><svg id="Layer_1" xmlns="http://www.w3.org/2000/svg" viewBox="0 0 323.6 424"><defs><style>.cls-1{fill:#dbd63c;}.cls-2{fill:#635549;}.cls-3{fill:#fff980;}.cls-4{fill:#de9858;}.cls-5{fill:#009458;}.cls-6{fill:#161210;}.cls-7{fill:#17181a;}.cls-8{fill:#985b25;}</style></defs><rect class="cls-3" x="-18.33" y="-20.78" width="352" height="452.89"/><rect class="cls-6" x="40.1" y="376.93" width="76.49" height="1.85" transform="translate(-1.71 .36) rotate(-.26)"/><rect class="cls-6" x="40.47" y="357.7" width="76.49" height="1.85" transform="translate(-1.62 .36) rotate(-.26)"/><rect class="cls-6" x="40.61" y="337.95" width="76.49" height="1.85" transform="translate(-1.53 .36) rotate(-.26)"/><rect class="cls-6" x="40.98" y="318.72" width="76.49" height="1.84" transform="translate(-1.45 .36) rotate(-.26)"/><rect class="cls-6" x="40.77" y="298.97" width="76.49" height="1.84" transform="translate(-1.36 .36) rotate(-.26)"/><rect class="cls-6" x="41.14" y="279.74" width="76.49" height="1.85" transform="translate(-1.27 .36) rotate(-.26)"/><rect class="cls-6" x="41.28" y="259.99" width="76.49" height="1.85" transform="translate(-1.18 .36) rotate(-.26)"/><rect class="cls-6" x="40.58" y="240.76" width="76.49" height="1.85" transform="translate(-1.09 .36) rotate(-.26)"/><rect class="cls-6" x="40.37" y="221.01" width="76.49" height="1.84" transform="translate(-1 .36) rotate(-.26)"/><rect class="cls-6" x="40.74" y="201.78" width="76.49" height="1.85" transform="translate(-.92 .36) rotate(-.26)"/><rect class="cls-6" x="40.88" y="182.03" width="76.49" height="1.85" transform="translate(-.83 .36) rotate(-.26)"/><rect class="cls-6" x="41.25" y="162.8" width="76.49" height="1.85" transform="translate(-.74 .36) rotate(-.26)"/><rect class="cls-6" x="41.27" y="143.05" width="76.49" height="1.85" transform="translate(-.65 .36) rotate(-.26)"/><rect class="cls-6" x="41.41" y="123.29" width="76.49" height="1.85" transform="translate(-.56 .36) rotate(-.26)"/><rect class="cls-6" x="40.71" y="104.07" width="76.49" height="1.84" transform="translate(-.47 .36) rotate(-.26)"/><path class="cls-4" d="M55.19,388.13s-13.21-9.48-.09-19.75l.09,19.75Z"/><path class="cls-8" d="M55.1,368.37s13.21,9.48.09,19.75l-.09-19.75Z"/><path class="cls-4" d="M111.37,387.58s-13.21-9.48-.09-19.75l.09,19.75Z"/><path class="cls-8" d="M111.28,367.83s13.21,9.48.09,19.75l-.09-19.75Z"/><path class="cls-4" d="M100.05,387.63s-13.21-9.48-.09-19.75l.09,19.75Z"/><path class="cls-8" d="M99.96,367.88s13.21,9.48.09,19.75l-.09-19.75Z"/><path class="cls-4" d="M89.09,387.97s-13.21-9.48-.09-19.75l.09,19.75Z"/><path class="cls-8" d="M89,368.22s13.21,9.48.09,19.75l-.09-19.75Z"/><path class="cls-4" d="M78.84,388.02s-13.21-9.48-.09-19.75l.09,19.75Z"/><path class="cls-8" d="M78.76,368.27s13.21,9.48.09,19.75l-.09-19.75Z"/><path class="cls-4" d="M54.49,368.9s-13.21-9.48-.09-19.75l.09,19.75Z"/><path class="cls-8" d="M54.4,349.15s13.21,9.48.09,19.75l-.09-19.75Z"/><path class="cls-4" d="M111.74,368.35s-13.21-9.48-.09-19.75l.09,19.75Z"/><path class="cls-8" d="M111.65,348.6s13.21,9.48.09,19.75l-.09-19.75Z"/><path class="cls-4" d="M100.42,368.4s-13.21-9.48-.09-19.75l.09,19.75Z"/><path class="cls-8" d="M100.33,348.65s13.21,9.48.09,19.75l-.09-19.75Z"/><path class="cls-4" d="M89.45,368.74s-13.21-9.48-.09-19.75l.09,19.75Z"/><path class="cls-8" d="M89.36,348.99s13.21,9.48.09,19.75l-.09-19.75Z"/><path class="cls-4" d="M79.21,368.79s-13.21-9.48-.09-19.75l.09,19.75Z"/><path class="cls-8" d="M79.12,349.04s13.21,9.48.09,19.75l-.09-19.75Z"/><path class="cls-4" d="M54.62,349.15s-13.21-9.48-.09-19.75l.09,19.75Z"/><path class="cls-8" d="M54.54,329.4s13.21,9.48.09,19.75l-.09-19.75Z"/><path class="cls-4" d="M111.87,348.6s-13.21-9.48-.09-19.75l.09,19.75Z"/><path class="cls-8" d="M111.78,328.85s13.21,9.47.09,19.75l-.09-19.75Z"/><path class="cls-4" d="M100.56,348.65s-13.21-9.48-.09-19.75l.09,19.75Z"/><path class="cls-8" d="M100.47,328.9s13.21,9.47.09,19.75l-.09-19.75Z"/><path class="cls-4" d="M89.59,348.99s-13.21-9.48-.09-19.75l.09,19.75Z"/><path class="cls-8" d="M89.5,329.24s13.21,9.48.09,19.75l-.09-19.75Z"/><path class="cls-4" d="M79.35,349.04s-13.21-9.48-.09-19.75l.09,19.75Z"/><path class="cls-8" d="M79.26,329.28s13.21,9.48.09,19.75l-.09-19.75Z"/><path class="cls-4" d="M54.99,329.92s-13.21-9.48-.09-19.75l.09,19.75Z"/><path class="cls-8" d="M54.9,310.17s13.21,9.48.09,19.75l-.09-19.75Z"/><path class="cls-4" d="M111.17,329.37s-13.21-9.48-.09-19.75l.09,19.75Z"/><path class="cls-8" d="M111.08,309.62s13.21,9.48.09,19.75l-.09-19.75Z"/><path class="cls-4" d="M100.93,329.42s-13.21-9.48-.09-19.75l.09,19.75Z"/><path class="cls-8" d="M100.84,309.67s13.21,9.48.09,19.75l-.09-19.75Z"/><path class="cls-4" d="M89.96,329.76s-13.21-9.48-.09-19.76l.09,19.76Z"/><path class="cls-8" d="M89.87,310.01s13.21,9.48.09,19.76l-.09-19.76Z"/><path class="cls-4" d="M79.72,329.81s-13.21-9.48-.09-19.76l.09,19.76Z"/><path class="cls-8" d="M79.63,310.05s13.21,9.48.09,19.76l-.09-19.76Z"/><path class="cls-4" d="M54.79,310.17s-13.21-9.48-.09-19.75l.09,19.75Z"/><path class="cls-8" d="M54.7,290.42s13.21,9.48.09,19.75l-.09-19.75Z"/><path class="cls-4" d="M110.96,309.62s-13.21-9.48-.09-19.75l.09,19.75Z"/><path class="cls-8" d="M110.88,289.87s13.21,9.48.09,19.75l-.09-19.75Z"/><path class="cls-4" d="M100.72,309.67s-13.21-9.48-.09-19.75l.09,19.75Z"/><path class="cls-8" d="M100.63,289.92s13.21,9.48.09,19.75l-.09-19.75Z"/><path class="cls-4" d="M89.76,310.01s-13.21-9.48-.09-19.75l.09,19.75Z"/><path class="cls-8" d="M89.67,290.26s13.21,9.48.09,19.75l-.09-19.75Z"/><path class="cls-4" d="M79.52,310.05s-13.21-9.48-.09-19.75l.09,19.75Z"/><path class="cls-8" d="M79.43,290.31s13.21,9.48.09,19.75l-.09-19.75Z"/><path class="cls-4" d="M55.16,290.94s-13.21-9.48-.09-19.75l.09,19.75Z"/><path class="cls-8" d="M55.07,271.19s13.21,9.48.09,19.75l-.09-19.75Z"/><path class="cls-4" d="M111.33,290.39s-13.21-9.48-.09-19.75l.09,19.75Z"/><path class="cls-8" d="M111.25,270.64s13.21,9.48.09,19.75l-.09-19.75Z"/><path class="cls-4" d="M101.1,290.44s-13.21-9.48-.09-19.75l.09,19.75Z"/><path class="cls-8" d="M101.01,270.69s13.21,9.48.09,19.75l-.09-19.75Z"/><path class="cls-4" d="M90.13,290.78s-13.21-9.48-.09-19.75l.09,19.75Z"/><path class="cls-8" d="M90.04,271.03s13.21,9.48.09,19.75l-.09-19.75Z"/><path class="cls-4" d="M79.89,290.83s-13.21-9.48-.09-19.75l.09,19.75Z"/><path class="cls-8" d="M79.8,271.08s13.21,9.48.09,19.75l-.09-19.75Z"/><path class="cls-4" d="M55.3,271.19s-13.21-9.48-.09-19.75l.09,19.75Z"/><path class="cls-8" d="M55.21,251.43s13.21,9.48.09,19.75l-.09-19.75Z"/><path class="cls-4" d="M111.47,270.64s-13.21-9.48-.09-19.75l.09,19.75Z"/><path class="cls-8" d="M111.38,250.89s13.21,9.48.09,19.75l-.09-19.75Z"/><path class="cls-4" d="M101.23,270.68s-13.21-9.48-.09-19.75l.09,19.75Z"/><path class="cls-8" d="M101.14,250.94s13.21,9.48.09,19.75l-.09-19.75Z"/><path class="cls-4" d="M90.27,271.03s-13.21-9.48-.09-19.75l.09,19.75Z"/><path class="cls-8" d="M90.18,251.28s13.21,9.48.09,19.75l-.09-19.75Z"/><path class="cls-4" d="M80.03,271.07s-13.21-9.48-.09-19.75l.09,19.75Z"/><path class="cls-8" d="M79.94,251.32s13.21,9.48.09,19.75l-.09-19.75Z"/><path class="cls-4" d="M54.59,251.97s-13.21-9.48-.09-19.76l.09,19.76Z"/><path class="cls-8" d="M54.5,232.21s13.21,9.48.09,19.76l-.09-19.76Z"/><path class="cls-4" d="M110.77,251.42s-13.21-9.48-.09-19.75l.09,19.75Z"/><path class="cls-8" d="M110.68,231.66s13.21,9.48.09,19.75l-.09-19.75Z"/><path class="cls-4" d="M100.53,251.46s-13.21-9.48-.09-19.75l.09,19.75Z"/><path class="cls-8" d="M100.44,231.71s13.21,9.48.09,19.75l-.09-19.75Z"/><path class="cls-4" d="M89.56,251.8s-13.21-9.48-.09-19.75l.09,19.75Z"/><path class="cls-8" d="M89.47,232.05s13.21,9.48.09,19.75l-.09-19.75Z"/><path class="cls-4" d="M79.32,251.85s-13.21-9.48-.09-19.75l.09,19.75Z"/><path class="cls-8" d="M79.23,232.1s13.21,9.48.09,19.75l-.09-19.75Z"/><path class="cls-4" d="M54.39,232.21s-13.21-9.47-.09-19.75l.09,19.75Z"/><path class="cls-8" d="M54.3,212.46s13.21,9.48.09,19.75l-.09-19.75Z"/><path class="cls-4" d="M110.57,231.67s-13.21-9.48-.09-19.75l.09,19.75Z"/><path class="cls-8" d="M110.48,211.91s13.21,9.48.09,19.75l-.09-19.75Z"/><path class="cls-4" d="M100.32,231.71s-13.21-9.48-.09-19.75l.09,19.75Z"/><path class="cls-8" d="M100.24,211.96s13.21,9.48.09,19.75l-.09-19.75Z"/><path class="cls-4" d="M89.36,232.05s-13.21-9.47-.09-19.75l.09,19.75Z"/><path class="cls-8" d="M89.27,212.3s13.21,9.48.09,19.75l-.09-19.75Z"/><path class="cls-4" d="M79.12,232.1s-13.21-9.47-.09-19.75l.09,19.75Z"/><path class="cls-8" d="M79.03,212.35s13.21,9.48.09,19.75l-.09-19.75Z"/><path class="cls-4" d="M54.76,212.98s-13.21-9.48-.09-19.75l.09,19.75Z"/><path class="cls-8" d="M54.67,193.23s13.21,9.48.09,19.75l-.09-19.75Z"/><path class="cls-4" d="M110.94,212.44s-13.21-9.48-.09-19.76l.09,19.76Z"/><path class="cls-8" d="M110.85,192.68s13.21,9.48.09,19.76l-.09-19.76Z"/><path class="cls-4" d="M100.69,212.48s-13.21-9.48-.09-19.76l.09,19.76Z"/><path class="cls-8" d="M100.61,192.73s13.21,9.48.09,19.76l-.09-19.76Z"/><path class="cls-4" d="M89.73,212.83s-13.21-9.48-.09-19.75l.09,19.75Z"/><path class="cls-8" d="M89.64,193.07s13.21,9.48.09,19.75l-.09-19.75Z"/><path class="cls-4" d="M79.49,212.87s-13.21-9.48-.09-19.75l.09,19.75Z"/><path class="cls-8" d="M79.4,193.12s13.21,9.48.09,19.75l-.09-19.75Z"/><path class="cls-4" d="M54.9,193.23s-13.21-9.48-.09-19.75l.09,19.75Z"/><path class="cls-8" d="M54.81,173.48s13.21,9.48.09,19.75l-.09-19.75Z"/><path class="cls-4" d="M111.07,192.68s-13.21-9.48-.09-19.75l.09,19.75Z"/><path class="cls-8" d="M110.98,172.93s13.21,9.48.09,19.75l-.09-19.75Z"/><path class="cls-4" d="M100.83,192.73s-13.21-9.48-.09-19.75l.09,19.75Z"/><path class="cls-8" d="M100.74,172.98s13.21,9.48.09,19.75l-.09-19.75Z"/><path class="cls-4" d="M89.87,193.07s-13.21-9.48-.09-19.75l.09,19.75Z"/><path class="cls-8" d="M89.78,173.32s13.21,9.48.09,19.75l-.09-19.75Z"/><path class="cls-4" d="M79.62,193.12s-13.21-9.48-.09-19.75l.09,19.75Z"/><path class="cls-8" d="M79.54,173.37s13.21,9.48.09,19.75l-.09-19.75Z"/><path class="cls-4" d="M55.27,174s-13.21-9.48-.09-19.75l.09,19.75Z"/><path class="cls-8" d="M55.18,154.25s13.21,9.48.09,19.75l-.09-19.75Z"/><path class="cls-4" d="M111.44,173.46s-13.21-9.48-.09-19.75l.09,19.75Z"/><path class="cls-8" d="M111.35,153.7s13.21,9.48.09,19.75l-.09-19.75Z"/><path class="cls-4" d="M101.2,173.5s-13.21-9.48-.09-19.75l.09,19.75Z"/><path class="cls-8" d="M101.11,153.75s13.21,9.48.09,19.75l-.09-19.75Z"/><path class="cls-4" d="M90.24,173.84s-13.21-9.48-.09-19.75l.09,19.75Z"/><path class="cls-8" d="M90.15,154.09s13.21,9.48.09,19.75l-.09-19.75Z"/><path class="cls-4" d="M79.99,173.89s-13.21-9.48-.09-19.75l.09,19.75Z"/><path class="cls-8" d="M79.91,154.14s13.21,9.48.09,19.75l-.09-19.75Z"/><path class="cls-4" d="M55.29,154.25s-13.21-9.48-.09-19.76l.09,19.76Z"/><path class="cls-8" d="M55.2,134.49s13.21,9.48.09,19.76l-.09-19.76Z"/><path class="cls-4" d="M111.47,153.7s-13.21-9.48-.09-19.75l.09,19.75Z"/><path class="cls-8" d="M111.38,133.95s13.21,9.48.09,19.75l-.09-19.75Z"/><path class="cls-4" d="M101.23,153.75s-13.21-9.48-.09-19.75l.09,19.75Z"/><path class="cls-8" d="M101.14,134s13.21,9.48.09,19.75l-.09-19.75Z"/><path class="cls-4" d="M90.26,154.09s-13.21-9.48-.09-19.75l.09,19.75Z"/><path class="cls-8" d="M90.17,134.34s13.21,9.48.09,19.75l-.09-19.75Z"/><path class="cls-4" d="M80.02,154.14s-13.21-9.48-.09-19.75l.09,19.75Z"/><path class="cls-8" d="M79.93,134.38s13.21,9.48.09,19.75l-.09-19.75Z"/><path class="cls-4" d="M55.43,134.49s-13.21-9.48-.09-19.75l.09,19.75Z"/><path class="cls-8" d="M55.34,114.74s13.21,9.48.09,19.75l-.09-19.75Z"/><path class="cls-4" d="M111.61,133.95s-13.21-9.47-.09-19.75l.09,19.75Z"/><path class="cls-8" d="M111.52,114.2s13.21,9.48.09,19.75l-.09-19.75Z"/><path class="cls-4" d="M101.36,133.99s-13.21-9.47-.09-19.75l.09,19.75Z"/><path class="cls-8" d="M101.27,114.24s13.21,9.48.09,19.75l-.09-19.75Z"/><path class="cls-4" d="M90.4,134.34s-13.21-9.48-.09-19.75l.09,19.75Z"/><path class="cls-8" d="M90.31,114.58s13.21,9.48.09,19.75l-.09-19.75Z"/><path class="cls-4" d="M80.16,134.38s-13.21-9.48-.09-19.75l.09,19.75Z"/><path class="cls-8" d="M80.07,114.63s13.21,9.48.09,19.75l-.09-19.75Z"/><path class="cls-4" d="M54.72,115.27s-13.21-9.48-.09-19.75l.09,19.75Z"/><path class="cls-8" d="M54.64,95.52s13.21,9.48.09,19.75l-.09-19.75Z"/><path class="cls-4" d="M110.9,114.72s-13.21-9.48-.09-19.75l.09,19.75Z"/><path class="cls-8" d="M110.81,94.97s13.21,9.48.09,19.75l-.09-19.75Z"/><path class="cls-4" d="M100.66,114.77s-13.21-9.48-.09-19.75l.09,19.75Z"/><path class="cls-8" d="M100.57,95.02s13.21,9.48.09,19.75l-.09-19.75Z"/><path class="cls-4" d="M89.69,115.11s-13.21-9.48-.09-19.75l.09,19.75Z"/><path class="cls-8" d="M89.6,95.36s13.21,9.48.09,19.75l-.09-19.75Z"/><path class="cls-4" d="M79.45,115.16s-13.21-9.48-.09-19.75l.09,19.75Z"/><path class="cls-8" d="M79.36,95.41s13.21,9.48.09,19.75l-.09-19.75Z"/><rect class="cls-6" x="59.87" y="88.4" width="2.41" height="306.6" transform="translate(-1.09 .28) rotate(-.26)"/><path class="cls-7" d="M120.44,85.41l1.41,312.04-84.06.38-1.41-312.04,84.06-.38ZM116.39,392.04l-1.36-301.15-73.17.33,1.36,301.15,73.17-.33Z"/><rect class="cls-5" x="-25.53" y="11.67" width="374.67" height="64"/><path class="cls-1" d="M80.07,21.75h7.45c1.34,0,2.34.16,3.01.49.67.33,1.23.8,1.66,1.41s.66,1.35.66,2.23c0,1.77-.96,2.95-2.88,3.55,1.11.25,1.94.75,2.5,1.49s.83,1.55.83,2.43c0,1.2-.45,2.23-1.36,3.1-.91.87-2.38,1.31-4.42,1.31h-7.45v-16ZM83.81,24.57v3.5h2.84c1.04,0,1.69-.21,1.96-.62s.4-.8.4-1.18c0-.41-.11-.76-.33-1.05s-.47-.48-.73-.55-.79-.11-1.57-.11h-2.57ZM83.81,30.92v3.86h2.88c.98,0,1.68-.17,2.08-.52.41-.34.61-.82.61-1.44,0-.52-.19-.96-.58-1.34-.39-.38-1.04-.56-1.94-.56h-3.04Z"/><path class="cls-1" d="M107.13,24.79h-7.62v3.28h5.99v3.01h-5.99v3.49h7.62v3.16h-11.43v-16h11.43v3.05Z"/><path class="cls-1" d="M121.69,21.75v16h-3.2l-6.26-10.8c0,.27.02.45.02.54.03.27.05.5.05.69v9.57h-2.92v-16h4.04l5.44,9.43c-.05-.47-.07-.82-.07-1.07v-8.37h2.89Z"/><path class="cls-1" d="M136.32,24.79h-7.62v3.28h5.99v3.01h-5.99v3.49h7.62v3.16h-11.43v-16h11.43v3.05Z"/><path class="cls-1" d="M149.95,24.91h-7.49v3.59h5.92v2.99h-5.92v6.26h-3.89v-16h11.38v3.16Z"/><path class="cls-1" d="M155.61,21.75v16h-3.74v-16h3.74Z"/><path class="cls-1" d="M168.96,21.75v3.16h-3.96v12.83h-3.8v-12.83h-3.98v-3.16h11.74Z"/><path class="cls-1" d="M181.91,25.26l-3.19,1.07c-.43-1.27-1.34-1.9-2.72-1.9-1.48,0-2.22.48-2.22,1.44,0,.38.14.71.42.97.28.27.9.5,1.88.69,1.63.33,2.82.66,3.58,1s1.39.88,1.91,1.62c.52.75.78,1.58.78,2.5,0,1.45-.56,2.69-1.67,3.75-1.11,1.05-2.76,1.58-4.95,1.58-1.64,0-3.03-.37-4.19-1.12s-1.91-1.85-2.28-3.32l3.47-.79c.39,1.49,1.47,2.24,3.25,2.24.86,0,1.5-.17,1.92-.5s.63-.73.63-1.19-.19-.83-.57-1.09c-.38-.26-1.12-.5-2.21-.73-2.04-.42-3.49-1-4.35-1.73s-1.3-1.8-1.3-3.2.52-2.62,1.55-3.6,2.44-1.46,4.21-1.46c3.14,0,5.16,1.25,6.05,3.76Z"/><path class="cls-1" d="M196.8,37.99c-2.15,0-3.82-.81-5-2.43s-1.77-3.57-1.77-5.87.6-4.29,1.79-5.85,2.9-2.34,5.11-2.34,3.92.83,5.05,2.5,1.7,3.58,1.7,5.72c0,2.32-.59,4.28-1.76,5.87s-2.88,2.39-5.13,2.39ZM196.9,24.56c-1.96,0-2.95,1.73-2.95,5.18s.98,5.19,2.95,5.19,2.85-1.73,2.85-5.18-.95-5.19-2.85-5.19Z"/><path class="cls-1" d="M217.51,24.91h-7.49v3.59h5.92v2.99h-5.92v6.26h-3.89v-16h11.38v3.16Z"/><path class="cls-1" d="M233.29,21.75l5.01,16h-4.03l-.99-3.29h-5.17l-1,3.29h-3.29l5.13-16h4.34ZM229.01,31.5h3.39l-1.68-5.61-1.71,5.61Z"/><path class="cls-1" d="M240.02,21.75h7.45c1.34,0,2.34.16,3.01.49.67.33,1.23.8,1.66,1.41s.66,1.35.66,2.23c0,1.77-.96,2.95-2.88,3.55,1.11.25,1.94.75,2.5,1.49s.83,1.55.83,2.43c0,1.2-.45,2.23-1.36,3.1-.91.87-2.38,1.31-4.42,1.31h-7.45v-16ZM243.76,24.57v3.5h2.84c1.04,0,1.69-.21,1.96-.62s.4-.8.4-1.18c0-.41-.11-.76-.33-1.05s-.47-.48-.73-.55-.79-.11-1.57-.11h-2.57ZM243.76,30.92v3.86h2.88c.98,0,1.68-.17,2.08-.52s.61-.82.61-1.44c0-.52-.2-.96-.58-1.34s-1.04-.56-1.94-.56h-3.04Z"/><path class="cls-1" d="M263.51,21.75l5.01,16h-4.03l-.99-3.29h-5.17l-1,3.29h-3.29l5.13-16h4.34ZM259.24,31.5h3.39l-1.68-5.61-1.71,5.61Z"/><path class="cls-1" d="M282.62,27.7l-3.93.25c-.05-2.26-.94-3.39-2.64-3.39-1.96,0-2.94,1.74-2.94,5.21,0,2.01.27,3.37.8,4.08s1.28,1.07,2.23,1.07c1.55,0,2.5-1.01,2.84-3.02l3.63.22c-.23,1.91-.95,3.37-2.14,4.37s-2.65,1.49-4.38,1.49c-2.12,0-3.84-.73-5.16-2.19s-1.99-3.48-1.99-6.06c0-2.41.64-4.39,1.92-5.93s3.03-2.31,5.25-2.31c3.84,0,6.01,2.07,6.49,6.2Z"/><path class="cls-1" d="M297.38,21.75v9.96c0,1.61-.18,2.81-.55,3.59s-1.04,1.43-2.03,1.93-2.25.76-3.79.76-2.76-.23-3.67-.68-1.59-1.1-2.04-1.93-.68-2.06-.68-3.67v-9.96h4.07v9.96c0,.86.07,1.49.22,1.9s.43.73.87.97.97.36,1.6.36c.7,0,1.28-.12,1.72-.35s.73-.54.88-.93.22-1.03.22-1.94v-9.96h3.21Z"/><path class="cls-1" d="M311.41,25.26l-3.19,1.07c-.43-1.27-1.34-1.9-2.72-1.9-1.48,0-2.22.48-2.22,1.44,0,.38.14.71.42.97.28.27.9.5,1.88.69,1.63.33,2.82.66,3.58,1s1.39.88,1.91,1.62c.52.75.78,1.58.78,2.5,0,1.45-.56,2.69-1.67,3.75-1.11,1.05-2.76,1.58-4.95,1.58-1.64,0-3.03-.37-4.19-1.12s-1.91-1.85-2.28-3.32l3.47-.79c.39,1.49,1.47,2.24,3.25,2.24.86,0,1.5-.17,1.92-.5s.63-.73.63-1.19-.19-.83-.57-1.09c-.38-.26-1.12-.5-2.21-.73-2.04-.42-3.49-1-4.35-1.73s-1.3-1.8-1.3-3.2.52-2.62,1.55-3.6,2.44-1.46,4.21-1.46c3.14,0,5.16,1.25,6.05,3.76Z"/><path class="cls-1" d="M146.22,63.38h6.36v3.16h-10.16v-16h3.8v12.83Z"/><path class="cls-1" d="M165.94,53.59h-7.62v3.28h5.99v3.01h-5.99v3.49h7.62v3.16h-11.43v-16h11.43v3.05Z"/><path class="cls-1" d="M176.04,50.55l5.01,16h-4.03l-.99-3.29h-5.17l-1,3.29h-3.29l5.13-16h4.34ZM171.77,60.3h3.39l-1.68-5.61-1.71,5.61Z"/><path class="cls-1" d="M186.55,60.2v6.34h-3.77v-16h7.03c1.3,0,2.34.15,3.12.45.79.3,1.44.85,1.95,1.66s.77,1.7.77,2.68c0,1.92-.93,3.3-2.78,4.13l2.95,7.07h-4.14l-2.46-6.34h-2.68ZM186.55,53.39v4.08h2.3c.75,0,1.29-.05,1.63-.16s.64-.34.91-.7.4-.78.4-1.25-.13-.84-.4-1.2-.55-.57-.87-.65-.9-.12-1.76-.12h-2.21Z"/><path class="cls-1" d="M210.85,50.55v16h-3.2l-6.26-10.8c0,.27.02.45.02.54.03.27.05.5.05.69v9.57h-2.92v-16h4.04l5.44,9.43c-.05-.47-.07-.82-.07-1.07v-8.37h2.89Z"/><path class="cls-1" d="M217.8,50.55v16h-3.74v-16h3.74Z"/><path class="cls-1" d="M233.32,50.55v16h-3.2l-6.26-10.8c0,.27.02.45.02.54.03.27.05.5.05.69v9.57h-2.92v-16h4.04l5.44,9.43c-.05-.47-.07-.82-.07-1.07v-8.37h2.89Z"/><path class="cls-1" d="M248.99,57.99v8.55h-1.71c-.12-.6-.3-1.21-.53-1.84-1.14,1.39-2.6,2.09-4.36,2.09-2.09,0-3.71-.75-4.87-2.24-1.16-1.49-1.74-3.42-1.74-5.79,0-2.55.62-4.59,1.86-6.14s2.92-2.32,5.04-2.32c1.78,0,3.22.5,4.31,1.5s1.76,2.33,2,4l-3.56.47c-.29-1.94-1.21-2.91-2.75-2.91-1.02,0-1.78.46-2.3,1.38s-.78,2.23-.78,3.93.28,2.89.84,3.76,1.36,1.3,2.4,1.3c.67,0,1.27-.22,1.8-.66s.79-1.14.79-2.1h-3.01v-2.99h6.57Z"/><path class="cls-7" d="M143.17,105.55l1-1.18c.85.79,1.97,1.32,3.18,1.32,1.41,0,2.19-.65,2.19-1.54,0-1.09-.81-1.39-1.92-1.86l-1.57-.69c-1.14-.45-2.38-1.27-2.38-2.91,0-1.73,1.56-3.05,3.76-3.05,1.38,0,2.63.55,3.5,1.4l-.88,1.09c-.74-.62-1.55-.99-2.69-.99s-1.96.54-1.96,1.45c0,.97.96,1.32,1.94,1.7l1.51.67c1.4.54,2.44,1.36,2.44,2.98,0,1.79-1.51,3.25-4.03,3.25-1.6,0-3.04-.62-4.09-1.64Z"/><path class="cls-7" d="M153.79,98.68h1.38l.13,1h.05c.74-.7,1.79-1.21,2.77-1.21,2.19,0,3.41,1.66,3.41,4.23,0,2.83-1.77,4.48-3.73,4.48-.76,0-1.65-.38-2.36-1.03h-.04l.08,1.51v2.71h-1.69v-11.7ZM159.81,102.71c0-1.74-.63-2.83-2.13-2.83-.68,0-1.44.34-2.19,1.11v3.93c.69.62,1.47.85,2,.85,1.32,0,2.32-1.1,2.32-3.06Z"/><path class="cls-7" d="M163.6,102.81c0-2.71,2.04-4.34,4.26-4.34,2.44,0,3.82,1.6,3.82,3.92,0,.36-.04.7-.08.92h-6.83v-1.24h5.78l-.37.41c0-1.8-.87-2.7-2.28-2.7s-2.65,1.07-2.65,3.03,1.28,3.05,3.06,3.05c.93,0,1.68-.28,2.43-.73l.59,1.07c-.85.56-1.96.99-3.23.99-2.52,0-4.51-1.6-4.51-4.37Z"/><path class="cls-7" d="M173.8,102.81c0-2.71,2.04-4.34,4.26-4.34,2.44,0,3.82,1.6,3.82,3.92,0,.36-.04.7-.08.92h-6.83v-1.24h5.78l-.37.41c0-1.8-.87-2.7-2.28-2.7s-2.65,1.07-2.65,3.03,1.28,3.05,3.06,3.05c.93,0,1.68-.28,2.43-.73l.59,1.07c-.85.56-1.96.99-3.23.99-2.52,0-4.51-1.6-4.51-4.37Z"/><path class="cls-7" d="M183.87,102.84c0-2.7,1.78-4.37,3.7-4.37.97,0,1.7.38,2.39,1.02h.04l-.08-1.46v-3.1h1.69v12.05h-1.38l-.13-1.03h-.05c-.66.67-1.62,1.23-2.61,1.23-2.15,0-3.57-1.59-3.57-4.34ZM189.92,104.66v-3.93c-.67-.62-1.31-.85-1.96-.85-1.29,0-2.36,1.12-2.36,2.94s.84,2.95,2.22,2.95c.75,0,1.44-.36,2.1-1.11Z"/><path class="cls-7" d="M204.58,104.79c0-1.86,1.69-2.78,5.88-3.09-.06-1.03-.61-1.85-2.09-1.85-1,0-1.99.46-2.81.94l-.65-1.13c.93-.58,2.31-1.18,3.75-1.18,2.29,0,3.48,1.31,3.48,3.51v5h-1.4l-.13-1.08h-.05c-.89.7-2.04,1.28-3.18,1.28-1.59,0-2.81-.93-2.81-2.4ZM210.46,104.72v-1.94c-3.26.23-4.23.89-4.23,1.88,0,.83.75,1.18,1.64,1.18s1.73-.42,2.59-1.12Z"/><path class="cls-7" d="M214.81,102.84c0-2.78,2.15-4.37,4.68-4.37,1.34,0,2.36.52,3.05,1.19l-.81,1.07c-.67-.55-1.35-.87-2.16-.87-1.79,0-3.02,1.19-3.02,2.98s1.21,2.95,2.97,2.95c.98,0,1.8-.44,2.46-.98l.73,1.09c-.94.83-2.12,1.28-3.33,1.28-2.6,0-4.57-1.59-4.57-4.34Z"/><path class="cls-7" d="M225,102.84c0-2.78,2.15-4.37,4.68-4.37,1.34,0,2.36.52,3.05,1.19l-.81,1.07c-.67-.55-1.35-.87-2.16-.87-1.79,0-3.02,1.19-3.02,2.98s1.21,2.95,2.97,2.95c.99,0,1.8-.44,2.46-.98l.73,1.09c-.94.83-2.12,1.28-3.33,1.28-2.6,0-4.57-1.59-4.57-4.34Z"/><path class="cls-7" d="M235.14,103.83v-5.15h1.69v4.93c0,1.44.48,2.12,1.73,2.12.87,0,1.5-.38,2.33-1.37v-5.68h1.69v8.31h-1.4l-.14-1.38h-.07c-.81.94-1.76,1.59-3.02,1.59-1.95,0-2.82-1.19-2.82-3.36Z"/><path class="cls-7" d="M246.44,98.68h1.4l.15,1.93h.04c.86-1.35,2.14-2.13,3.62-2.13.64,0,1.12.09,1.63.34l-.37,1.44c-.57-.18-.88-.27-1.52-.27-1.19,0-2.34.61-3.26,2.28v4.71h-1.69v-8.31Z"/><path class="cls-7" d="M255.58,104.79c0-1.86,1.69-2.78,5.88-3.09-.06-1.03-.61-1.85-2.09-1.85-1,0-1.99.46-2.81.94l-.65-1.13c.93-.58,2.31-1.18,3.75-1.18,2.29,0,3.48,1.31,3.48,3.51v5h-1.4l-.13-1.08h-.05c-.89.7-2.04,1.28-3.18,1.28-1.59,0-2.81-.93-2.81-2.4ZM261.46,104.72v-1.94c-3.26.23-4.23.89-4.23,1.88,0,.83.75,1.18,1.64,1.18s1.73-.42,2.59-1.12Z"/><path class="cls-7" d="M265.99,98.68h1.38l.13,1.32h.07c.83-.85,1.78-1.53,3.06-1.53,1.94,0,2.83,1.19,2.83,3.36v5.15h-1.69v-4.93c0-1.45-.49-2.12-1.72-2.12-.9,0-1.51.45-2.37,1.32v5.73h-1.69v-8.31Z"/><path class="cls-7" d="M276,102.84c0-2.78,2.15-4.37,4.68-4.37,1.34,0,2.36.52,3.05,1.19l-.81,1.07c-.67-.55-1.35-.87-2.16-.87-1.79,0-3.02,1.19-3.02,2.98s1.21,2.95,2.97,2.95c.98,0,1.8-.44,2.46-.98l.73,1.09c-.94.83-2.12,1.28-3.33,1.28-2.6,0-4.57-1.59-4.57-4.34Z"/><path class="cls-7" d="M286.04,110.3l.33-1.32c.22.07.48.12.72.12,1.11,0,1.76-.66,2.13-1.58l.22-.57-3.79-8.26h1.7l1.85,4.31c.32.75.65,1.61.97,2.43h.07c.27-.8.59-1.66.86-2.43l1.64-4.31h1.62l-3.57,8.83c-.67,1.76-1.67,2.96-3.62,2.96-.42,0-.83-.07-1.14-.17Z"/><path class="cls-7" d="M143.41,123.24c0-2.78,2.15-4.37,4.68-4.37,1.34,0,2.36.52,3.05,1.19l-.81,1.07c-.67-.55-1.35-.87-2.16-.87-1.79,0-3.02,1.19-3.02,2.98s1.21,2.95,2.97,2.95c.99,0,1.8-.44,2.46-.98l.73,1.09c-.94.83-2.12,1.28-3.33,1.28-2.6,0-4.57-1.59-4.57-4.34Z"/><path class="cls-7" d="M153.27,123.24c0-2.78,1.95-4.37,4.14-4.37s4.14,1.59,4.14,4.37-1.95,4.34-4.14,4.34-4.14-1.59-4.14-4.34ZM159.81,123.24c0-1.79-.93-2.98-2.4-2.98s-2.4,1.19-2.4,2.98.93,2.95,2.4,2.95,2.4-1.18,2.4-2.95Z"/><path class="cls-7" d="M163.99,119.08h1.38l.13,1.32h.07c.83-.85,1.78-1.53,3.06-1.53,1.94,0,2.83,1.19,2.83,3.36v5.15h-1.69v-4.93c0-1.45-.49-2.12-1.72-2.12-.9,0-1.51.45-2.37,1.32v5.73h-1.69v-8.31Z"/><path class="cls-7" d="M175.04,119.08h1.4l.15,1.93h.04c.86-1.35,2.14-2.13,3.62-2.13.64,0,1.12.09,1.63.34l-.37,1.44c-.57-.18-.88-.27-1.52-.27-1.19,0-2.34.61-3.26,2.28v4.71h-1.69v-8.31Z"/><path class="cls-7" d="M184,123.21c0-2.71,2.04-4.34,4.26-4.34,2.44,0,3.82,1.6,3.82,3.92,0,.36-.04.7-.08.92h-6.83v-1.24h5.78l-.37.41c0-1.8-.87-2.7-2.28-2.7s-2.65,1.07-2.65,3.03,1.28,3.05,3.06,3.05c.93,0,1.68-.28,2.43-.73l.59,1.07c-.85.56-1.96.99-3.23.99-2.52,0-4.51-1.6-4.51-4.37Z"/><path class="cls-7" d="M194.41,123.24c0-2.78,2.15-4.37,4.68-4.37,1.34,0,2.36.52,3.05,1.19l-.81,1.07c-.67-.55-1.35-.87-2.16-.87-1.79,0-3.02,1.19-3.02,2.98s1.21,2.95,2.97,2.95c.99,0,1.8-.44,2.46-.98l.73,1.09c-.94.83-2.12,1.28-3.33,1.28-2.6,0-4.57-1.59-4.57-4.34Z"/><path class="cls-7" d="M204.54,124.23v-5.15h1.69v4.93c0,1.44.48,2.12,1.73,2.12.87,0,1.5-.38,2.33-1.37v-5.68h1.69v8.31h-1.4l-.14-1.38h-.07c-.81.94-1.76,1.59-3.02,1.59-1.95,0-2.82-1.19-2.82-3.36Z"/><path class="cls-7" d="M218.7,120.43h-3.71v-1.35h5.41v8.31h-1.69v-6.95ZM218.14,116.25c0-.72.53-1.21,1.26-1.21s1.26.49,1.26,1.21-.53,1.2-1.26,1.2-1.26-.47-1.26-1.2Z"/><path class="cls-7" d="M227.06,124.1v-3.67h-2.29v-1.26l2.36-.09.22-2.63h1.4v2.63h3.92v1.35h-3.92v3.67c0,1.43.51,2.12,2.01,2.12.73,0,1.32-.15,1.89-.35l.34,1.24c-.75.26-1.57.48-2.63.48-2.48,0-3.31-1.41-3.31-3.49Z"/><path class="cls-7" d="M235.04,130.7l.33-1.32c.22.07.48.12.72.12,1.11,0,1.76-.66,2.13-1.58l.22-.57-3.79-8.26h1.7l1.85,4.31c.32.75.65,1.61.97,2.43h.07c.27-.8.59-1.66.86-2.43l1.64-4.31h1.62l-3.57,8.83c-.67,1.76-1.67,2.96-3.62,2.96-.42,0-.83-.07-1.14-.17Z"/><path class="cls-7" d="M144.07,172.98c0-3.63,1.78-5.72,4.33-5.72s4.33,2.09,4.33,5.72-1.78,5.82-4.33,5.82-4.33-2.13-4.33-5.82ZM150.96,172.98c0-2.67-1.02-4.23-2.57-4.23s-2.57,1.55-2.57,4.23,1.02,4.33,2.57,4.33,2.57-1.59,2.57-4.33Z"/><path class="cls-7" d="M154.26,170.29h1.72l1.75,4.49c.31.84.6,1.66.88,2.49h.07c.28-.82.54-1.65.86-2.49l1.75-4.49h1.63l-3.34,8.31h-1.91l-3.41-8.31Z"/><path class="cls-7" d="M164.79,174.43c0-2.71,2.04-4.34,4.26-4.34,2.44,0,3.82,1.6,3.82,3.92,0,.36-.04.7-.08.92h-6.83v-1.24h5.78l-.37.41c0-1.8-.87-2.7-2.28-2.7s-2.65,1.07-2.65,3.03,1.28,3.05,3.06,3.05c.93,0,1.68-.28,2.43-.73l.59,1.07c-.85.56-1.96.99-3.23.99-2.52,0-4.51-1.6-4.51-4.37Z"/><path class="cls-7" d="M176.23,170.29h1.4l.15,1.93h.04c.86-1.35,2.14-2.13,3.62-2.13.64,0,1.12.09,1.63.34l-.37,1.44c-.57-.18-.88-.27-1.52-.27-1.19,0-2.34.61-3.26,2.28v4.71h-1.69v-8.31Z"/><path class="cls-7" d="M185.37,176.4c0-1.86,1.69-2.78,5.88-3.09-.06-1.03-.61-1.85-2.09-1.85-1,0-2,.46-2.81.94l-.65-1.13c.93-.58,2.31-1.18,3.75-1.18,2.29,0,3.48,1.31,3.48,3.51v5h-1.4l-.13-1.08h-.05c-.89.7-2.04,1.28-3.18,1.28-1.59,0-2.81-.93-2.81-2.4ZM191.25,176.34v-1.94c-3.26.23-4.23.89-4.23,1.88,0,.83.75,1.18,1.64,1.18s1.73-.42,2.59-1.12Z"/><path class="cls-7" d="M198.3,175.69v-7.79h-2.85v-1.35h4.55v9.25c0,1.15.65,1.62,1.57,1.62.45,0,.94-.11,1.49-.35l.41,1.26c-.79.31-1.35.48-2.29.48-1.86,0-2.86-1.11-2.86-3.11Z"/><path class="cls-7" d="M208.5,175.69v-7.79h-2.85v-1.35h4.55v9.25c0,1.15.65,1.62,1.57,1.62.45,0,.94-.11,1.49-.35l.41,1.26c-.79.31-1.35.48-2.29.48-1.86,0-2.86-1.11-2.86-3.11Z"/><path class="cls-7" d="M229,167.47h1.99l3.68,11.13h-1.82l-1.79-6.06c-.36-1.21-.73-2.45-1.05-3.71h-.07c-.33,1.26-.68,2.5-1.04,3.71l-1.82,6.06h-1.75l3.68-11.13ZM227.39,174.05h5.16v1.36h-5.16v-1.36Z"/><path class="cls-7" d="M236.4,174.46c0-2.78,2.15-4.37,4.68-4.37,1.34,0,2.36.52,3.05,1.19l-.81,1.07c-.67-.55-1.35-.87-2.16-.87-1.79,0-3.02,1.19-3.02,2.98s1.21,2.95,2.97,2.95c.99,0,1.8-.44,2.46-.98l.73,1.09c-.94.83-2.12,1.28-3.33,1.28-2.6,0-4.57-1.59-4.57-4.34Z"/><path class="cls-7" d="M246.57,176.4c0-1.86,1.69-2.78,5.88-3.09-.06-1.03-.61-1.85-2.09-1.85-1,0-2,.46-2.81.94l-.65-1.13c.93-.58,2.31-1.18,3.75-1.18,2.29,0,3.48,1.31,3.48,3.51v5h-1.4l-.13-1.08h-.05c-.89.7-2.04,1.28-3.18,1.28-1.59,0-2.81-.93-2.81-2.4ZM252.45,176.34v-1.94c-3.26.23-4.23.89-4.23,1.88,0,.83.75,1.18,1.64,1.18s1.73-.42,2.59-1.12Z"/><path class="cls-7" d="M256.46,174.46c0-2.7,1.78-4.37,3.71-4.37.97,0,1.7.38,2.39,1.02h.04l-.08-1.46v-3.1h1.69v12.05h-1.38l-.13-1.03h-.05c-.66.67-1.62,1.23-2.61,1.23-2.14,0-3.57-1.59-3.57-4.34ZM262.51,176.28v-3.93c-.67-.62-1.31-.85-1.97-.85-1.29,0-2.36,1.12-2.36,2.94s.84,2.95,2.22,2.95c.75,0,1.44-.36,2.1-1.11Z"/><path class="cls-7" d="M266.79,174.43c0-2.71,2.04-4.34,4.26-4.34,2.44,0,3.82,1.6,3.82,3.92,0,.36-.04.7-.08.92h-6.83v-1.24h5.78l-.37.41c0-1.8-.87-2.7-2.28-2.7s-2.65,1.07-2.65,3.03,1.28,3.05,3.06,3.05c.93,0,1.68-.28,2.43-.73l.59,1.07c-.85.56-1.96.99-3.23.99-2.52,0-4.51-1.6-4.51-4.37Z"/><path class="cls-7" d="M276.78,170.29h1.32l.13,1.08h.04c.4-.74.91-1.28,1.87-1.28.79,0,1.31.48,1.54,1.42.43-.85.96-1.42,1.92-1.42,1.17,0,1.85.94,1.85,2.59v5.92h-1.65v-5.79c0-.84-.23-1.27-.77-1.27-.51,0-.79.38-1.18,1.16v5.91h-1.46v-5.79c0-.84-.21-1.27-.75-1.27-.51,0-.84.38-1.2,1.16v5.91h-1.65v-8.31Z"/><path class="cls-7" d="M291.29,171.64h-3.71v-1.35h5.41v8.31h-1.69v-6.95ZM290.73,167.46c0-.72.53-1.21,1.26-1.21s1.26.49,1.26,1.21-.53,1.2-1.26,1.2-1.26-.47-1.26-1.2Z"/><path class="cls-7" d="M297.6,174.46c0-2.78,2.15-4.37,4.68-4.37,1.34,0,2.36.52,3.05,1.19l-.81,1.07c-.67-.55-1.35-.87-2.16-.87-1.79,0-3.02,1.19-3.02,2.98s1.21,2.95,2.97,2.95c.98,0,1.8-.44,2.46-.98l.73,1.09c-.94.83-2.12,1.28-3.33,1.28-2.6,0-4.57-1.59-4.57-4.34Z"/><path class="cls-7" d="M144.91,187.87h3.51c2.45,0,4.18.84,4.18,3.35s-1.76,3.53-4.18,3.53h-1.8v4.25h-1.71v-11.13ZM148.26,193.38c1.79,0,2.65-.69,2.65-2.16s-.89-1.98-2.65-1.98h-1.64v4.14h1.64Z"/><path class="cls-7" d="M154.59,194.83c0-2.71,2.04-4.34,4.26-4.34,2.44,0,3.82,1.6,3.82,3.92,0,.36-.04.7-.08.92h-6.83v-1.24h5.78l-.37.41c0-1.8-.87-2.7-2.28-2.7s-2.65,1.07-2.65,3.03,1.28,3.05,3.06,3.05c.93,0,1.68-.28,2.43-.73l.59,1.07c-.85.56-1.96.99-3.23.99-2.52,0-4.51-1.6-4.51-4.37Z"/><path class="cls-7" d="M166.03,190.69h1.4l.15,1.93h.04c.86-1.35,2.14-2.13,3.62-2.13.64,0,1.12.09,1.63.34l-.37,1.44c-.57-.18-.88-.27-1.52-.27-1.19,0-2.34.61-3.26,2.28v4.71h-1.69v-8.31Z"/><path class="cls-7" d="M175.55,190.78l2.37-.09h4.94v1.35h-7.32v-1.26ZM177.88,190.12c0-1.99,1.07-3.38,3.45-3.38.85,0,1.66.17,2.42.47l-.36,1.26c-.64-.27-1.18-.38-1.88-.38-1.37,0-1.95.74-1.95,1.98v8.92h-1.68v-8.88Z"/><path class="cls-7" d="M185.06,194.86c0-2.78,1.95-4.37,4.14-4.37s4.14,1.59,4.14,4.37-1.95,4.34-4.14,4.34-4.14-1.59-4.14-4.34ZM191.6,194.86c0-1.79-.93-2.98-2.4-2.98s-2.4,1.19-2.4,2.98.93,2.95,2.4,2.95,2.4-1.18,2.4-2.95Z"/><path class="cls-7" d="M196.63,190.69h1.4l.15,1.93h.04c.86-1.35,2.14-2.13,3.62-2.13.64,0,1.12.09,1.63.34l-.37,1.44c-.57-.18-.88-.27-1.52-.27-1.19,0-2.34.61-3.26,2.28v4.71h-1.69v-8.31Z"/><path class="cls-7" d="M205.38,190.69h1.32l.13,1.08h.04c.4-.74.91-1.28,1.87-1.28.79,0,1.31.48,1.54,1.42.43-.85.96-1.42,1.92-1.42,1.17,0,1.85.94,1.85,2.59v5.92h-1.65v-5.79c0-.84-.23-1.27-.77-1.27s-.79.38-1.18,1.16v5.91h-1.46v-5.79c0-.84-.22-1.27-.75-1.27-.51,0-.84.38-1.2,1.16v5.91h-1.65v-8.31Z"/><path class="cls-7" d="M215.97,196.8c0-1.86,1.69-2.78,5.88-3.09-.06-1.03-.61-1.85-2.09-1.85-1,0-2,.46-2.81.94l-.65-1.13c.93-.58,2.31-1.18,3.75-1.18,2.29,0,3.48,1.31,3.48,3.51v5h-1.4l-.13-1.08h-.05c-.89.69-2.04,1.28-3.18,1.28-1.59,0-2.81-.93-2.81-2.4ZM221.85,196.74v-1.94c-3.26.23-4.23.89-4.23,1.88,0,.83.75,1.18,1.64,1.18s1.73-.42,2.59-1.12Z"/><path class="cls-7" d="M226.38,190.69h1.38l.13,1.32h.07c.83-.85,1.78-1.53,3.06-1.53,1.94,0,2.83,1.19,2.83,3.36v5.15h-1.69v-4.93c0-1.45-.49-2.12-1.72-2.12-.9,0-1.51.45-2.37,1.32v5.73h-1.69v-8.31Z"/><path class="cls-7" d="M236.4,194.86c0-2.78,2.15-4.37,4.68-4.37,1.34,0,2.36.52,3.05,1.19l-.81,1.07c-.67-.55-1.35-.87-2.16-.87-1.79,0-3.02,1.19-3.02,2.98s1.21,2.95,2.97,2.95c.99,0,1.8-.44,2.46-.98l.73,1.09c-.94.83-2.12,1.28-3.33,1.28-2.6,0-4.57-1.59-4.57-4.34Z"/><path class="cls-7" d="M246.39,194.83c0-2.71,2.04-4.34,4.26-4.34,2.44,0,3.82,1.6,3.82,3.92,0,.36-.04.7-.08.92h-6.83v-1.24h5.78l-.37.41c0-1.8-.87-2.7-2.28-2.7s-2.65,1.07-2.65,3.03,1.28,3.05,3.06,3.05c.93,0,1.68-.28,2.43-.73l.59,1.07c-.85.56-1.96.99-3.23.99-2.52,0-4.51-1.6-4.51-4.37Z"/><path class="cls-7" d="M147.07,239.76h1.69v9.69h5.36v1.44h-7.05v-11.13Z"/><path class="cls-7" d="M160.3,243.94h-3.71v-1.35h5.41v8.31h-1.69v-6.95ZM159.75,239.76c0-.72.53-1.21,1.26-1.21s1.26.49,1.26,1.21-.53,1.2-1.26,1.2-1.26-.47-1.26-1.2Z"/><path class="cls-7" d="M166.44,249.8l.75-1.1c.97.67,2.11,1.09,3.54,1.09,1.27,0,1.88-.51,1.88-1.13,0-.59-.35-.96-2.44-1.39-2.19-.46-3.22-1.21-3.22-2.47,0-1.39,1.25-2.42,3.55-2.42,1.32,0,2.58.52,3.41,1.08l-.79,1.06c-.79-.52-1.75-.85-2.77-.85-1.24,0-1.71.49-1.71,1.06,0,.65.66.91,2.29,1.25,2.7.59,3.38,1.29,3.38,2.59,0,1.39-1.35,2.53-3.8,2.53-1.59,0-3.06-.59-4.08-1.29Z"/><path class="cls-7" d="M178.87,247.6v-3.67h-2.29v-1.26l2.36-.09.22-2.63h1.4v2.63h3.92v1.35h-3.92v3.67c0,1.43.51,2.12,2.01,2.12.73,0,1.32-.15,1.89-.35l.34,1.24c-.75.26-1.57.48-2.63.48-2.48,0-3.31-1.41-3.31-3.49Z"/><path class="cls-7" d="M186.81,246.72c0-2.71,2.04-4.34,4.26-4.34,2.44,0,3.82,1.6,3.82,3.92,0,.36-.04.7-.08.92h-6.83v-1.24h5.78l-.37.41c0-1.8-.87-2.7-2.28-2.7s-2.65,1.07-2.65,3.03,1.28,3.04,3.06,3.04c.93,0,1.68-.28,2.43-.73l.59,1.07c-.85.56-1.96.99-3.23.99-2.52,0-4.51-1.6-4.51-4.37Z"/><path class="cls-7" d="M197.4,242.58h1.38l.13,1.32h.07c.83-.85,1.78-1.53,3.06-1.53,1.94,0,2.83,1.19,2.83,3.36v5.15h-1.69v-4.93c0-1.45-.49-2.12-1.72-2.12-.9,0-1.51.45-2.37,1.32v5.73h-1.69v-8.31Z"/><path class="cls-7" d="M211.3,243.94h-3.71v-1.35h5.41v8.31h-1.69v-6.95ZM210.75,239.76c0-.72.53-1.21,1.26-1.21s1.26.49,1.26,1.21-.53,1.2-1.26,1.2-1.26-.47-1.26-1.2Z"/><path class="cls-7" d="M217.8,242.58h1.38l.13,1.32h.07c.83-.85,1.78-1.53,3.06-1.53,1.94,0,2.83,1.19,2.83,3.36v5.15h-1.69v-4.93c0-1.45-.49-2.12-1.72-2.12-.9,0-1.51.45-2.37,1.32v5.73h-1.69v-8.31Z"/><path class="cls-7" d="M227.64,252.38c0-.67.47-1.31,1.35-1.8v-.07c-.45-.25-.85-.68-.85-1.38,0-.54.37-1.13.99-1.56v-.07c-.58-.42-1.05-1.16-1.05-2.15,0-1.86,1.55-2.98,3.34-2.98.48,0,.9.07,1.27.2h3.42v1.32h-2.03c.33.36.61.92.61,1.52,0,1.81-1.44,2.84-3.27,2.84-.4,0-.88-.09-1.33-.27-.37.24-.58.5-.58.87,0,.6.58.87,1.64.87h1.78c2.15,0,3.22.56,3.22,1.99,0,1.6-1.83,2.93-4.7,2.93-2.36,0-3.81-.79-3.81-2.26ZM234.52,251.99c0-.72-.6-.91-1.78-.91h-1.47c-.51,0-.92-.03-1.26-.13-.69.38-.94.8-.94,1.23,0,.81.91,1.29,2.56,1.29,1.78,0,2.9-.71,2.9-1.49ZM233.17,245.36c0-1.09-.78-1.79-1.74-1.79s-1.74.71-1.74,1.79.79,1.81,1.74,1.81,1.74-.69,1.74-1.81Z"/><path class="cls-7" d="M145.97,269.86l1-1.18c.85.79,1.97,1.32,3.18,1.32,1.41,0,2.19-.65,2.19-1.54,0-1.09-.81-1.39-1.92-1.86l-1.57-.69c-1.14-.45-2.38-1.27-2.38-2.91,0-1.74,1.56-3.05,3.76-3.05,1.38,0,2.63.54,3.5,1.4l-.88,1.09c-.74-.62-1.55-.99-2.69-.99s-1.96.54-1.96,1.45c0,.97.96,1.32,1.94,1.7l1.51.67c1.4.54,2.44,1.36,2.44,2.98,0,1.79-1.51,3.25-4.03,3.25-1.6,0-3.04-.62-4.09-1.64Z"/><path class="cls-7" d="M156.76,259.24h1.69v7.84h.07l4.09-4.09h1.9l-6.06,6.09v2.21h-1.69v-12.05ZM160.03,267.05l1-1.08,3.89,5.32h-1.86l-3.03-4.24Z"/><path class="cls-7" d="M170.5,264.34h-3.71v-1.35h5.41v8.31h-1.69v-6.95ZM169.95,260.16c0-.72.53-1.21,1.26-1.21s1.26.49,1.26,1.21-.53,1.2-1.26,1.2-1.26-.47-1.26-1.2Z"/><path class="cls-7" d="M179.51,268.38v-7.79h-2.85v-1.35h4.55v9.25c0,1.15.65,1.62,1.57,1.62.45,0,.94-.11,1.49-.35l.41,1.26c-.79.31-1.35.48-2.29.48-1.86,0-2.86-1.11-2.86-3.11Z"/><path class="cls-7" d="M189.71,268.38v-7.79h-2.85v-1.35h4.55v9.25c0,1.15.65,1.62,1.56,1.62.45,0,.94-.11,1.49-.35l.41,1.26c-.79.31-1.35.48-2.29.48-1.86,0-2.86-1.11-2.86-3.11Z"/><path class="cls-7" d="M197.04,270.2l.75-1.1c.97.67,2.11,1.09,3.54,1.09,1.27,0,1.88-.51,1.88-1.13,0-.59-.34-.96-2.44-1.39-2.19-.45-3.22-1.21-3.22-2.47,0-1.39,1.25-2.42,3.55-2.42,1.32,0,2.58.52,3.41,1.08l-.79,1.06c-.79-.52-1.75-.85-2.77-.85-1.24,0-1.71.49-1.71,1.06,0,.65.66.91,2.29,1.25,2.7.59,3.38,1.29,3.38,2.59,0,1.39-1.35,2.53-3.8,2.53-1.59,0-3.06-.59-4.08-1.29Z"/><path class="cls-7" d="M216.94,268.38c0-3.27,4.74-3.79,4.74-6.13,0-.61-.25-1.13-.94-1.13s-1.11.64-1.11,1.52c0,2,2.23,4.68,4.32,6.2.79.63,1.54,1.06,2.2,1.26l-.44,1.39c-.87-.25-1.79-.76-2.77-1.53-2.45-1.89-4.74-5.07-4.74-7.29,0-1.51,1-2.71,2.52-2.71s2.3.92,2.3,2.29c0,2.77-4.46,3.63-4.46,6.04,0,1.14.86,1.89,1.98,1.89.81,0,1.58-.52,2.22-1.26.81-.95,1.39-2.19,1.75-3.7h1.56c-.44,1.67-1.13,3.19-2.13,4.49-.92,1.07-2.06,1.79-3.61,1.79-2.06,0-3.39-1.34-3.39-3.11Z"/><path class="cls-7" d="M145.68,286.07c0-3.63,1.78-5.72,4.33-5.72s4.33,2.09,4.33,5.72-1.78,5.82-4.33,5.82-4.33-2.13-4.33-5.82ZM152.57,286.07c0-2.67-1.02-4.23-2.57-4.23s-2.57,1.55-2.57,4.23c0,2.86,1.02,4.41,2.57,4.41s2.57-1.55,2.57-4.41ZM149.14,291.68l1.77-.15c.32,1.08,1.26,1.57,2.41,1.57.34,0,.62-.08.85-.17l.3,1.33c-.36.15-.81.27-1.35.27-2.07,0-3.4-1.22-3.97-2.84Z"/><path class="cls-7" d="M156.35,288.54v-5.15h1.69v4.93c0,1.44.48,2.12,1.73,2.12.87,0,1.5-.38,2.33-1.37v-5.68h1.69v8.31h-1.4l-.14-1.38h-.07c-.81.94-1.76,1.59-3.02,1.59-1.95,0-2.82-1.19-2.82-3.36Z"/><path class="cls-7" d="M170.5,284.74h-3.71v-1.35h5.41v8.31h-1.69v-6.95ZM169.95,280.56c0-.72.53-1.21,1.26-1.21s1.26.49,1.26,1.21-.53,1.2-1.26,1.2-1.26-.47-1.26-1.2Z"/><path class="cls-7" d="M176.81,287.55c0-2.78,2.15-4.37,4.68-4.37,1.34,0,2.36.53,3.05,1.19l-.81,1.07c-.67-.55-1.35-.87-2.16-.87-1.79,0-3.02,1.19-3.02,2.98s1.21,2.95,2.97,2.95c.99,0,1.8-.44,2.46-.98l.73,1.09c-.94.83-2.12,1.28-3.33,1.28-2.6,0-4.57-1.59-4.57-4.34Z"/><path class="cls-7" d="M187.36,279.64h1.69v7.84h.07l4.09-4.09h1.9l-6.06,6.09v2.21h-1.69v-12.05ZM190.63,287.45l1-1.08,3.89,5.32h-1.86l-3.03-4.24Z"/><path class="cls-7" d="M207.66,280.56h3.6c2.28,0,4,.82,4,3.22s-1.72,3.39-4,3.39h-1.88v4.52h-1.72v-11.13ZM211.06,285.8c1.63,0,2.51-.68,2.51-2.01s-.89-1.85-2.51-1.85h-1.68v3.87h1.68ZM212.21,285.74l3.43,5.95h-1.92l-2.79-4.98,1.28-.97Z"/><path class="cls-7" d="M217.41,287.52c0-2.71,2.04-4.34,4.26-4.34,2.44,0,3.82,1.6,3.82,3.92,0,.36-.04.7-.08.92h-6.83v-1.24h5.78l-.37.41c0-1.8-.87-2.7-2.28-2.7s-2.65,1.07-2.65,3.03,1.28,3.04,3.06,3.04c.93,0,1.68-.28,2.43-.73l.59,1.07c-.85.56-1.96.99-3.23.99-2.52,0-4.51-1.6-4.51-4.37Z"/><path class="cls-7" d="M227.81,287.55c0-2.78,2.15-4.37,4.68-4.37,1.34,0,2.36.53,3.05,1.19l-.81,1.07c-.67-.55-1.35-.87-2.16-.87-1.79,0-3.02,1.19-3.02,2.98s1.21,2.95,2.97,2.95c.99,0,1.8-.44,2.46-.98l.73,1.09c-.94.83-2.12,1.28-3.33,1.28-2.6,0-4.57-1.59-4.57-4.34Z"/><path class="cls-7" d="M237.98,289.5c0-1.86,1.69-2.78,5.88-3.09-.06-1.03-.61-1.85-2.09-1.85-1,0-1.99.46-2.81.94l-.65-1.13c.93-.58,2.31-1.18,3.75-1.18,2.29,0,3.48,1.31,3.48,3.51v5h-1.4l-.13-1.08h-.05c-.89.7-2.04,1.28-3.18,1.28-1.59,0-2.81-.93-2.81-2.4ZM243.87,289.43v-1.95c-3.26.23-4.23.89-4.23,1.88,0,.83.75,1.18,1.64,1.18s1.73-.42,2.59-1.12Z"/><path class="cls-7" d="M250.91,288.78v-7.79h-2.85v-1.35h4.55v9.25c0,1.15.65,1.62,1.56,1.62.45,0,.94-.11,1.49-.35l.41,1.26c-.79.31-1.35.48-2.29.48-1.86,0-2.86-1.11-2.86-3.11Z"/><path class="cls-7" d="M261.11,288.78v-7.79h-2.85v-1.35h4.55v9.25c0,1.15.65,1.62,1.57,1.62.45,0,.94-.11,1.49-.35l.41,1.26c-.79.31-1.35.48-2.29.48-1.86,0-2.86-1.11-2.86-3.11Z"/><path class="cls-7" d="M145.68,342.78h3.51c2.45,0,4.18.84,4.18,3.35s-1.76,3.53-4.18,3.53h-1.8v4.25h-1.71v-11.13ZM149.03,348.29c1.79,0,2.65-.69,2.65-2.16s-.89-1.98-2.65-1.98h-1.64v4.14h1.64Z"/><path class="cls-7" d="M155.76,341.86h1.69v3.2l-.1,1.87h.05c.78-.85,1.73-1.52,3-1.52,1.94,0,2.82,1.19,2.82,3.36v5.15h-1.69v-4.93c0-1.45-.49-2.12-1.72-2.12-.9,0-1.51.45-2.37,1.32v5.73h-1.69v-12.05Z"/><path class="cls-7" d="M165.43,349.77c0-2.78,1.95-4.37,4.14-4.37s4.14,1.59,4.14,4.37-1.95,4.34-4.14,4.34-4.14-1.59-4.14-4.34ZM171.97,349.77c0-1.79-.93-2.98-2.4-2.98s-2.4,1.19-2.4,2.98.93,2.95,2.4,2.95,2.4-1.17,2.4-2.95Z"/><path class="cls-7" d="M178.03,350.62v-3.67h-2.29v-1.26l2.36-.09.22-2.63h1.4v2.63h3.92v1.35h-3.92v3.67c0,1.43.51,2.12,2.01,2.12.73,0,1.32-.15,1.89-.36l.34,1.24c-.75.26-1.57.48-2.63.48-2.48,0-3.31-1.41-3.31-3.49Z"/><path class="cls-7" d="M185.83,349.77c0-2.78,1.95-4.37,4.14-4.37s4.14,1.59,4.14,4.37-1.95,4.34-4.14,4.34-4.14-1.59-4.14-4.34ZM192.37,349.77c0-1.79-.93-2.98-2.4-2.98s-2.4,1.19-2.4,2.98.93,2.95,2.4,2.95,2.4-1.17,2.4-2.95Z"/><path class="cls-7" d="M196.2,355.4c0-.67.47-1.31,1.35-1.8v-.07c-.45-.25-.85-.68-.85-1.38,0-.54.37-1.13.99-1.56v-.07c-.58-.42-1.05-1.16-1.05-2.15,0-1.86,1.55-2.98,3.34-2.98.48,0,.9.07,1.27.2h3.42v1.32h-2.03c.33.36.61.92.61,1.52,0,1.81-1.44,2.83-3.27,2.83-.4,0-.88-.09-1.33-.27-.37.24-.58.5-.58.87,0,.59.58.87,1.64.87h1.78c2.15,0,3.22.56,3.22,1.99,0,1.6-1.83,2.93-4.7,2.93-2.36,0-3.81-.79-3.81-2.26ZM203.08,355.01c0-.72-.6-.91-1.78-.91h-1.47c-.51,0-.92-.03-1.26-.13-.69.38-.94.8-.94,1.23,0,.81.91,1.29,2.56,1.29,1.78,0,2.9-.71,2.9-1.49ZM201.73,348.38c0-1.09-.78-1.79-1.74-1.79s-1.74.71-1.74,1.79.79,1.81,1.74,1.81,1.74-.69,1.74-1.81Z"/><path class="cls-7" d="M207.6,345.6h1.4l.15,1.93h.04c.86-1.35,2.14-2.13,3.62-2.13.64,0,1.12.09,1.63.34l-.37,1.44c-.57-.18-.88-.27-1.52-.27-1.19,0-2.34.61-3.26,2.28v4.71h-1.69v-8.31Z"/><path class="cls-7" d="M216.74,351.72c0-1.86,1.69-2.78,5.88-3.09-.06-1.03-.61-1.85-2.09-1.85-1,0-2,.46-2.81.93l-.65-1.13c.93-.58,2.31-1.18,3.75-1.18,2.29,0,3.48,1.31,3.48,3.51v5h-1.4l-.13-1.08h-.05c-.89.7-2.04,1.28-3.18,1.28-1.59,0-2.81-.93-2.81-2.4ZM222.63,351.65v-1.94c-3.26.23-4.23.89-4.23,1.88,0,.83.75,1.18,1.64,1.18s1.73-.42,2.59-1.12Z"/><path class="cls-7" d="M227.15,345.6h1.38l.13,1h.05c.74-.7,1.79-1.21,2.77-1.21,2.2,0,3.41,1.66,3.41,4.23,0,2.83-1.77,4.48-3.73,4.48-.76,0-1.65-.38-2.36-1.03h-.04l.08,1.51v2.71h-1.69v-11.7ZM233.17,349.64c0-1.74-.63-2.83-2.13-2.83-.68,0-1.44.34-2.19,1.11v3.93c.69.62,1.47.85,2,.85,1.32,0,2.32-1.1,2.32-3.06Z"/><path class="cls-7" d="M237.35,341.86h1.69v3.2l-.1,1.87h.05c.78-.85,1.73-1.52,3-1.52,1.94,0,2.82,1.19,2.82,3.36v5.15h-1.69v-4.93c0-1.45-.49-2.12-1.72-2.12-.9,0-1.51.45-2.37,1.32v5.73h-1.69v-12.05Z"/><path class="cls-7" d="M251.26,346.96h-3.71v-1.35h5.41v8.31h-1.69v-6.95ZM250.71,342.78c0-.72.53-1.21,1.26-1.21s1.26.49,1.26,1.21-.53,1.2-1.26,1.2-1.26-.47-1.26-1.2Z"/><path class="cls-7" d="M257.57,349.77c0-2.78,2.15-4.37,4.68-4.37,1.34,0,2.36.52,3.05,1.19l-.81,1.07c-.67-.55-1.35-.87-2.16-.87-1.79,0-3.02,1.19-3.02,2.98s1.21,2.95,2.97,2.95c.99,0,1.8-.44,2.46-.98l.73,1.09c-.94.83-2.12,1.28-3.33,1.28-2.6,0-4.57-1.59-4.57-4.34Z"/><path class="cls-7" d="M145.23,363.18h1.97l1.44,4.54.5,1.73h.07l.49-1.73,1.45-4.54h1.97v11.13h-1.56v-5.02c0-1.13.18-3.24.26-4.25h-.05l-.69,2.38-1.41,3.94h-1.07l-1.39-3.94-.68-2.38h-.04c.11,1.02.26,3.12.26,4.25v5.02h-1.52v-11.13Z"/><path class="cls-7" d="M155.37,370.14c0-2.71,2.04-4.34,4.26-4.34,2.44,0,3.82,1.6,3.82,3.92,0,.36-.04.7-.08.92h-6.83v-1.24h5.78l-.37.41c0-1.8-.87-2.7-2.28-2.7s-2.65,1.07-2.65,3.03,1.28,3.04,3.06,3.04c.93,0,1.68-.28,2.43-.73l.59,1.07c-.85.56-1.96.99-3.23.99-2.52,0-4.51-1.6-4.51-4.37Z"/><path class="cls-7" d="M165.35,366h1.32l.13,1.08h.04c.4-.74.91-1.28,1.87-1.28.79,0,1.31.48,1.54,1.42.43-.85.96-1.42,1.92-1.42,1.17,0,1.85.94,1.85,2.59v5.92h-1.65v-5.79c0-.84-.23-1.27-.77-1.27-.51,0-.79.38-1.18,1.16v5.91h-1.46v-5.79c0-.84-.21-1.27-.75-1.27-.51,0-.84.38-1.2,1.16v5.91h-1.65v-8.31Z"/><path class="cls-7" d="M175.63,370.17c0-2.78,1.95-4.37,4.14-4.37s4.14,1.59,4.14,4.37-1.95,4.34-4.14,4.34-4.14-1.59-4.14-4.34ZM182.17,370.17c0-1.79-.93-2.98-2.4-2.98s-2.4,1.19-2.4,2.98.93,2.95,2.4,2.95,2.4-1.18,2.4-2.95Z"/><path class="cls-7" d="M187.2,366h1.4l.15,1.93h.04c.86-1.35,2.14-2.13,3.62-2.13.64,0,1.12.09,1.63.34l-.37,1.44c-.57-.18-.88-.27-1.52-.27-1.19,0-2.34.61-3.26,2.28v4.71h-1.69v-8.31Z"/><path class="cls-7" d="M196.2,377.63l.33-1.33c.22.07.48.12.72.12,1.11,0,1.76-.66,2.13-1.58l.22-.57-3.79-8.26h1.7l1.85,4.31c.32.75.65,1.61.97,2.43h.07c.27-.8.59-1.66.86-2.43l1.64-4.31h1.62l-3.57,8.83c-.67,1.75-1.67,2.96-3.62,2.96-.42,0-.83-.07-1.14-.17Z"/><rect class="cls-2" x="147.43" y="143.04" width="135.56" height="3.55"/><rect class="cls-2" x="147.43" y="219.06" width="135.56" height="3.55"/><rect class="cls-2" x="147.43" y="314.99" width="135.56" height="3.55"/><path class="cls-1" d="M12.29,58.64v-3.01h.67v3.01h-.67ZM12.8,56.2v-.57h1.57v.57h-1.57ZM12.8,57.45v-.57h1.5v.57h-1.5Z"/><path class="cls-1" d="M16.2,58.69c-.23,0-.44-.04-.63-.12s-.36-.19-.5-.33c-.15-.14-.26-.31-.34-.5-.08-.19-.12-.39-.12-.61s.04-.43.12-.61.19-.35.33-.49c.14-.14.31-.25.5-.33.19-.08.4-.12.63-.12s.43.04.62.12c.19.08.36.19.5.33s.26.3.33.49c.08.19.12.39.12.62s-.04.42-.12.61-.19.35-.33.49-.31.25-.5.33c-.19.08-.4.12-.62.12h0ZM16.19,58.08c.18,0,.34-.04.47-.12.13-.08.24-.19.31-.33s.11-.31.11-.5c0-.14-.02-.27-.06-.39-.04-.11-.1-.21-.18-.3-.08-.08-.17-.15-.28-.19-.11-.04-.23-.07-.36-.07-.18,0-.34.04-.47.12-.13.08-.24.19-.31.33s-.11.31-.11.5c0,.14.02.27.06.39s.1.22.18.3.17.15.28.19.23.07.37.07h0Z"/><path class="cls-1" d="M18.2,58.64v-3.01h.67v3.01h-.67ZM18.71,57.4v-.49h.63c.13,0,.24-.03.31-.1.07-.07.11-.16.11-.28,0-.11-.04-.2-.11-.27s-.17-.11-.31-.11h-.64v-.52h.72c.2,0,.37.04.52.11s.27.18.35.31c.09.13.13.29.13.46s-.04.33-.13.46-.2.24-.36.31c-.15.07-.33.11-.54.11h-.7ZM19.84,58.64l-.94-1.29.61-.17,1.12,1.46s-.79,0-.79,0Z"/><path class="cls-1" d="M23.06,58.64l1.19-3.01h.61l1.18,3.01h-.71l-.9-2.5h.24l-.92,2.5h-.7ZM23.74,58.09v-.55h1.64v.55h-1.64Z"/><path class="cls-1" d="M28.7,58.64v-3.01h.66v3.01h-.66ZM29.21,58.64v-.52h.71c.13,0,.23-.04.31-.11s.11-.17.11-.28c0-.08-.02-.15-.05-.2s-.08-.11-.14-.14-.14-.05-.22-.05h-.71v-.51h.65c.11,0,.2-.03.27-.08s.1-.14.1-.25-.03-.19-.1-.25-.16-.08-.27-.08h-.65v-.52h.78c.19,0,.36.04.49.11s.24.17.31.28.11.25.11.4c0,.18-.06.34-.18.47-.12.13-.3.22-.53.26l.02-.23c.25.05.45.15.59.29s.21.33.21.55c0,.16-.04.31-.12.45s-.2.24-.35.31c-.15.08-.33.11-.55.11h-.77,0Z"/><path class="cls-1" d="M31.43,58.64v-3.01h.67v3.01h-.67ZM31.95,57.4v-.49h.63c.13,0,.24-.03.31-.1s.11-.16.11-.28c0-.11-.04-.2-.11-.27s-.17-.11-.31-.11h-.64v-.52h.72c.2,0,.37.04.52.11.15.08.27.18.35.31.09.13.13.29.13.46s-.04.33-.13.46-.2.24-.36.31c-.15.07-.33.11-.54.11h-.69,0ZM33.07,58.64l-.94-1.29.61-.17,1.12,1.46h-.79Z"/><path class="cls-1" d="M34.15,58.64v-3.01h.67v3.01h-.67Z"/><path class="cls-1" d="M36.82,58.68c-.22,0-.42-.04-.62-.12s-.36-.19-.5-.33-.25-.3-.33-.49-.12-.39-.12-.61.04-.42.12-.61.2-.35.34-.49.32-.25.51-.33.41-.12.63-.12c.26,0,.49.05.71.14s.39.22.53.39l-.46.46c-.1-.13-.21-.22-.34-.28s-.28-.09-.44-.09c-.18,0-.33.04-.47.12-.14.08-.25.19-.33.33s-.12.3-.12.49.04.35.11.49.18.25.32.33.29.12.46.12.33-.03.45-.1c.12-.07.22-.16.29-.29s.1-.28.1-.46l.44.3-1.34-.02v-.57h1.58v.1c0,.36-.07.66-.19.91s-.31.43-.54.56c-.23.13-.49.19-.79.19h0Z"/><path class="cls-1" d="M38.74,58.64v-3.01h.67v3.01h-.67ZM39.15,57.38v-.58h1.68v.58h-1.68ZM40.61,58.64v-3.01h.67v3.01h-.67Z"/><path class="cls-1" d="M41.65,56.21v-.58h2.55v.58h-2.55ZM42.59,58.64v-2.97h.67v2.97h-.67Z"/><path class="cls-1" d="M46.94,58.64v-3.01h.67v3.01h-.67ZM47.45,56.2v-.57h1.57v.57h-1.57ZM47.45,57.45v-.57h1.5v.57h-1.5Z"/><path class="cls-1" d="M50.66,58.68c-.25,0-.47-.05-.65-.16s-.34-.25-.44-.44-.16-.4-.16-.64v-1.82h.67v1.86c0,.12.03.22.08.31s.12.16.21.2.19.07.3.07c.11,0,.21-.02.3-.07s.15-.11.2-.2.07-.19.07-.31v-1.87h.67v1.83c0,.24-.05.45-.16.63s-.25.33-.44.44c-.19.11-.4.16-.65.16h0Z"/><path class="cls-1" d="M52.22,56.21v-.58h2.55v.58h-2.55ZM53.16,58.64v-2.97h.67v2.97h-.67Z"/><path class="cls-1" d="M56.34,58.68c-.25,0-.47-.05-.65-.16-.19-.11-.34-.25-.44-.44s-.16-.4-.16-.64v-1.82h.67v1.86c0,.12.03.22.08.31s.12.16.21.2.19.07.3.07c.11,0,.21-.02.3-.07s.15-.11.2-.2.07-.19.07-.31v-1.87h.67v1.83c0,.24-.05.45-.16.63s-.25.33-.44.44c-.19.11-.4.16-.65.16h0Z"/><path class="cls-1" d="M58.12,58.64v-3.01h.67v3.01h-.67ZM58.64,57.4v-.49h.63c.13,0,.24-.03.31-.1s.11-.16.11-.28c0-.11-.04-.2-.11-.27-.07-.07-.17-.11-.31-.11h-.64v-.52h.72c.2,0,.37.04.52.11.15.08.27.18.35.31.09.13.13.29.13.46s-.04.33-.13.46-.2.24-.36.31c-.15.07-.33.11-.54.11h-.69,0ZM59.76,58.64l-.94-1.29.61-.17,1.12,1.46h-.79Z"/><path class="cls-1" d="M60.84,58.64v-3.01h.67v3.01h-.67ZM61.35,56.2v-.57h1.63v.57h-1.63ZM61.35,57.38v-.56h1.5v.56h-1.5ZM61.35,58.64v-.58h1.65v.58h-1.65Z"/><path class="cls-1" d="M12,28.64h2.56v25.66h-2.56v-25.66Z"/><path class="cls-1" d="M19.95,28.64h5.11c2.93,0,4.91.13,5.93.38,1.47.36,2.66,1.1,3.59,2.22.93,1.12,1.39,2.53,1.39,4.23s-.45,3.12-1.36,4.23c-.91,1.11-2.16,1.86-3.75,2.24-1.16.28-3.34.42-6.52.42h-1.83v11.93h-2.56v-25.66h0ZM22.52,31.16v8.7l4.34.05c1.76,0,3.04-.16,3.85-.48.81-.32,1.45-.84,1.92-1.55.46-.71.7-1.51.7-2.39s-.23-1.64-.7-2.36c-.47-.71-1.08-1.22-1.84-1.52-.76-.3-2.01-.45-3.74-.45h-4.53Z"/><path class="cls-1" d="M51.13,28.64l11.97,25.66h-2.77l-4.03-8.44h-11.05l-4,8.44h-2.86l12.12-25.66h.63ZM50.8,34.1l-4.4,9.29h8.77l-4.38-9.29h0Z"/><circle class="cls-1" cx="26.23" cy="48.73" r="2.27"/><circle class="cls-1" cx="17.16" cy="48.73" r="2.27"/><circle class="cls-1" cx="7.01" cy="48.73" r="2.27"/><circle class="cls-1" cx="39.83" cy="44.58" r="2.27"/><circle class="cls-1" cx="51.79" cy="44.58" r="2.27"/><circle class="cls-1" cx="30.4" cy="44.58" r="2.27"/><circle class="cls-1" cx="41.28" cy="35.68" r="2.27"/><circle class="cls-1" cx="27.68" cy="35.68" r="2.27"/><circle class="cls-1" cx="16.89" cy="35.68" r="2.27"/></svg>