<?xml version="1.0" encoding="UTF-8"?><svg xmlns="http://www.w3.org/2000/svg" viewBox="0 0 323.6 424"><defs><style>.cls-1{fill:#864738;}.cls-1,.cls-2,.cls-3,.cls-4,.cls-5,.cls-6,.cls-7,.cls-8,.cls-9,.cls-10,.cls-11,.cls-12,.cls-13,.cls-14,.cls-15,.cls-16,.cls-17,.cls-18,.cls-19,.cls-20,.cls-21,.cls-22,.cls-23,.cls-24,.cls-25,.cls-26,.cls-27,.cls-28,.cls-29,.cls-30,.cls-31,.cls-32,.cls-33,.cls-34,.cls-35,.cls-36,.cls-37,.cls-38,.cls-39,.cls-40,.cls-41,.cls-42,.cls-43,.cls-44,.cls-45,.cls-46,.cls-47,.cls-48,.cls-49,.cls-50,.cls-51,.cls-52,.cls-53,.cls-54{fill-rule:evenodd;}.cls-2{fill:#49b48c;}.cls-3{fill:#b42025;}.cls-4{fill:#ffa800;}.cls-5{fill:#004141;}.cls-55,.cls-26,.cls-27{stroke:#231f20;stroke-width:.57px;}.cls-55,.cls-26,.cls-27,.cls-46,.cls-50{stroke-miterlimit:22.93;}.cls-55,.cls-56,.cls-46,.cls-50{fill:none;}.cls-6{fill:#94c9ca;}.cls-7,.cls-8{fill:#7c7c7d;}.cls-7,.cls-13,.cls-14,.cls-16,.cls-17,.cls-24,.cls-39{mix-blend-mode:multiply;}.cls-57{fill:#dbd63c;}.cls-9,.cls-13{fill:#cdcea7;}.cls-10{fill:#b2d7ca;}.cls-11{fill:#dbebda;}.cls-12{fill:#de3b41;}.cls-14{fill:#c9c9c8;}.cls-15{fill:#2bb086;}.cls-16{fill:#ffa986;}.cls-17,.cls-43{fill:#191a31;}.cls-18{fill:#a12321;}.cls-19{fill:#231f20;}.cls-20,.cls-58{fill:#fcf6cc;}.cls-21{fill:#ffc7e7;}.cls-21,.cls-51{mix-blend-mode:soft-light;}.cls-22{fill:#9fd4dd;}.cls-23{fill:#c52426;}.cls-24{fill:#ffc385;}.cls-59{fill:#fff980;}.cls-25{fill:#ffa400;}.cls-26{fill:#135f95;}.cls-27,.cls-48{fill:#b0b0b0;}.cls-28{fill:#20244a;}.cls-60{isolation:isolate;}.cls-29{fill:#ff7d00;}.cls-30{fill:#fdc91c;}.cls-31{fill:#ff6903;}.cls-32{fill:#f7ad1d;}.cls-33{fill:#0b5252;}.cls-34{fill:#b1a9a9;}.cls-56{stroke:#5e9494;stroke-linecap:round;stroke-linejoin:round;}.cls-56,.cls-46{stroke-width:2px;}.cls-35{fill:#3e1a0e;}.cls-36{fill:#84be42;}.cls-37{fill:#d35225;}.cls-61{fill:#0f2323;}.cls-38{fill:#c4bd86;}.cls-39{fill:#ffc6c9;opacity:.45;}.cls-40{fill:#424242;}.cls-41{fill:#222d57;}.cls-42{fill:#020203;}.cls-44{fill:#f4f8f9;}.cls-45{fill:#beb7b9;}.cls-62{fill:#009458;}.cls-46{stroke:#e3e5e5;}.cls-47{fill:#ff9300;}.cls-49{fill:#001f1f;}.cls-63{fill:#cf4026;}.cls-50{stroke:#001f1f;stroke-width:1px;}.cls-51{fill:#ffa4b9;}.cls-52{fill:#323c63;}.cls-53{fill:#e11e2f;}.cls-54{fill:#959394;}</style></defs><g class="cls-60"><g id="Layer_1"><rect class="cls-59" x="-4.16" y="-6" width="331.56" height="433.33"/><rect class="cls-62" x="-4.16" y="11.67" width="331.56" height="64"/><path class="cls-57" d="M95.12,38.13l-5.03.32c-.07-2.89-1.2-4.34-3.39-4.34-2.51,0-3.76,2.23-3.76,6.68,0,2.57.34,4.32,1.02,5.23.68.92,1.63,1.37,2.86,1.37,1.99,0,3.2-1.29,3.64-3.87l4.65.29c-.3,2.45-1.21,4.32-2.74,5.59-1.53,1.28-3.4,1.91-5.61,1.91-2.71,0-4.92-.94-6.61-2.81s-2.54-4.46-2.54-7.76c0-3.09.82-5.62,2.46-7.6,1.64-1.97,3.88-2.96,6.73-2.96,4.92,0,7.7,2.65,8.32,7.94Z"/><path class="cls-57" d="M105.57,51.31c-2.76,0-4.9-1.04-6.41-3.11s-2.26-4.58-2.26-7.52.76-5.49,2.29-7.49c1.53-2,3.71-3,6.54-3s5.02,1.07,6.47,3.21c1.46,2.14,2.18,4.58,2.18,7.33,0,2.97-.75,5.48-2.25,7.52-1.5,2.04-3.69,3.06-6.57,3.06ZM105.71,34.11c-2.52,0-3.78,2.21-3.78,6.64s1.26,6.65,3.78,6.65,3.66-2.21,3.66-6.64-1.22-6.65-3.66-6.65Z"/><path class="cls-57" d="M133.69,30.5v12.76c0,2.06-.24,3.6-.71,4.6-.47,1.01-1.34,1.83-2.6,2.48-1.27.65-2.89.97-4.86.97s-3.54-.29-4.71-.87c-1.17-.58-2.04-1.41-2.62-2.48-.58-1.07-.87-2.64-.87-4.7v-12.76h5.21v12.76c0,1.1.09,1.91.28,2.43s.56.93,1.11,1.24,1.24.46,2.05.46c.9,0,1.63-.15,2.2-.45.56-.3.94-.7,1.13-1.19.18-.5.28-1.32.28-2.48v-12.76h4.11Z"/><path class="cls-57" d="M142.34,42.88v8.12h-4.83v-20.49h9.01c1.66,0,3,.19,4,.58s1.84,1.09,2.5,2.12c.66,1.03.99,2.18.99,3.44,0,2.46-1.19,4.23-3.56,5.3l3.78,9.06h-5.3l-3.15-8.12h-3.44ZM142.34,34.15v5.22h2.94c.96,0,1.66-.07,2.09-.2.44-.13.82-.44,1.16-.9.34-.47.51-1,.51-1.6s-.17-1.08-.51-1.53c-.34-.45-.71-.73-1.11-.83s-1.15-.16-2.25-.16h-2.84Z"/><path class="cls-57" d="M171.87,35.01l-4.08,1.37c-.55-1.62-1.71-2.43-3.49-2.43-1.9,0-2.85.62-2.85,1.85,0,.49.18.91.53,1.25.36.34,1.16.64,2.41.89,2.09.42,3.62.85,4.59,1.28s1.79,1.12,2.45,2.08c.67.96,1,2.02,1,3.2,0,1.85-.71,3.45-2.14,4.8-1.43,1.35-3.54,2.03-6.34,2.03-2.1,0-3.89-.48-5.36-1.43-1.48-.96-2.45-2.37-2.92-4.26l4.44-1.01c.5,1.91,1.89,2.87,4.17,2.87,1.1,0,1.92-.21,2.46-.64.54-.43.81-.93.81-1.52s-.25-1.07-.73-1.4c-.49-.33-1.43-.64-2.83-.93-2.61-.54-4.47-1.28-5.58-2.22-1.11-.94-1.66-2.3-1.66-4.11s.66-3.36,1.99-4.61,3.12-1.88,5.39-1.88c4.02,0,6.6,1.61,7.75,4.82Z"/><path class="cls-57" d="M190.2,34.41h-9.76v4.2h7.67v3.86h-7.67v4.47h9.76v4.05h-14.64v-20.49h14.64v3.9Z"/><path class="cls-57" d="M200.77,30.5h6.25c2.55,0,4.45.35,5.7,1.06s2.37,1.82,3.36,3.35c.99,1.53,1.49,3.46,1.49,5.79,0,2.93-.87,5.38-2.6,7.35-1.73,1.97-4.12,2.95-7.16,2.95h-7.05v-20.49ZM205.48,34.27v12.87h1.98c1.75,0,3.05-.65,3.89-1.96.85-1.31,1.27-2.84,1.27-4.6,0-1.24-.24-2.39-.73-3.45-.48-1.06-1.09-1.8-1.8-2.22-.72-.43-1.58-.64-2.59-.64h-2.02Z"/><path class="cls-57" d="M235.34,34.41h-9.76v4.2h7.67v3.86h-7.67v4.47h9.76v4.05h-14.64v-20.49h14.64v3.9Z"/><path class="cls-57" d="M251.21,30.5v4.05h-5.08v16.44h-4.86v-16.44h-5.1v-4.05h15.04Z"/><path class="cls-57" d="M261.9,30.5l6.42,20.49h-5.16l-1.26-4.22h-6.63l-1.29,4.22h-4.21l6.57-20.49h5.56ZM256.42,43h4.34l-2.15-7.19-2.19,7.19Z"/><path class="cls-57" d="M275.31,30.5v20.49h-4.79v-20.49h4.79Z"/><path class="cls-57" d="M284.29,46.94h8.15v4.05h-13.02v-20.49h4.86v16.44Z"/><path class="cls-57" d="M309.06,35.01l-4.08,1.37c-.55-1.62-1.71-2.43-3.49-2.43-1.9,0-2.85.62-2.85,1.85,0,.49.18.91.53,1.25.36.34,1.16.64,2.41.89,2.09.42,3.62.85,4.59,1.28s1.79,1.12,2.45,2.08c.67.96,1,2.02,1,3.2,0,1.85-.71,3.45-2.14,4.8-1.43,1.35-3.54,2.03-6.34,2.03-2.1,0-3.89-.48-5.36-1.43-1.48-.96-2.45-2.37-2.92-4.26l4.44-1.01c.5,1.91,1.89,2.87,4.17,2.87,1.1,0,1.92-.21,2.46-.64.54-.43.81-.93.81-1.52s-.25-1.07-.73-1.4c-.49-.33-1.43-.64-2.83-.93-2.61-.54-4.47-1.28-5.58-2.22-1.11-.94-1.66-2.3-1.66-4.11s.66-3.36,1.99-4.61,3.12-1.88,5.39-1.88c4.02,0,6.6,1.61,7.75,4.82Z"/><path class="cls-57" d="M12.29,58.64v-3.01h.67v3.01h-.67ZM12.8,56.2v-.57h1.57v.57h-1.57ZM12.8,57.45v-.57h1.5v.57h-1.5Z"/><path class="cls-57" d="M16.2,58.69c-.23,0-.44-.04-.63-.12s-.36-.19-.5-.33c-.15-.14-.26-.31-.34-.5-.08-.19-.12-.39-.12-.61s.04-.43.12-.61.19-.35.33-.49c.14-.14.31-.25.5-.33.19-.08.4-.12.63-.12s.43.04.62.12c.19.08.36.19.5.33s.26.3.33.49c.08.19.12.39.12.62s-.04.42-.12.61-.19.35-.33.49-.31.25-.5.33c-.19.08-.4.12-.62.12h0ZM16.19,58.08c.18,0,.34-.04.47-.12.13-.08.24-.19.31-.33s.11-.31.11-.5c0-.14-.02-.27-.06-.39-.04-.11-.1-.21-.18-.3-.08-.08-.17-.15-.28-.19-.11-.04-.23-.07-.36-.07-.18,0-.34.04-.47.12-.13.08-.24.19-.31.33s-.11.31-.11.5c0,.14.02.27.06.39s.1.22.18.3.17.15.28.19.23.07.37.07h0Z"/><path class="cls-57" d="M18.2,58.64v-3.01h.67v3.01h-.67ZM18.71,57.4v-.49h.63c.13,0,.24-.03.31-.1.07-.07.11-.16.11-.28,0-.11-.04-.2-.11-.27s-.17-.11-.31-.11h-.64v-.52h.72c.2,0,.37.04.52.11s.27.18.35.31c.09.13.13.29.13.46s-.04.33-.13.46-.2.24-.36.31c-.15.07-.33.11-.54.11h-.7ZM19.84,58.64l-.94-1.29.61-.17,1.12,1.46s-.79,0-.79,0Z"/><path class="cls-57" d="M23.06,58.64l1.19-3.01h.61l1.18,3.01h-.71l-.9-2.5h.24l-.92,2.5h-.7ZM23.74,58.09v-.55h1.64v.55h-1.64Z"/><path class="cls-57" d="M28.7,58.64v-3.01h.66v3.01h-.66ZM29.21,58.64v-.52h.71c.13,0,.23-.04.31-.11s.11-.17.11-.28c0-.08-.02-.15-.05-.2s-.08-.11-.14-.14-.14-.05-.22-.05h-.71v-.51h.65c.11,0,.2-.03.27-.08s.1-.14.1-.25-.03-.19-.1-.25-.16-.08-.27-.08h-.65v-.52h.78c.19,0,.36.04.49.11s.24.17.31.28.11.25.11.4c0,.18-.06.34-.18.47-.12.13-.3.22-.53.26l.02-.23c.25.05.45.15.59.29s.21.33.21.55c0,.16-.04.31-.12.45s-.2.24-.35.31c-.15.08-.33.11-.55.11h-.77,0Z"/><path class="cls-57" d="M31.43,58.64v-3.01h.67v3.01h-.67ZM31.95,57.4v-.49h.63c.13,0,.24-.03.31-.1s.11-.16.11-.28c0-.11-.04-.2-.11-.27s-.17-.11-.31-.11h-.64v-.52h.72c.2,0,.37.04.52.11.15.08.27.18.35.31.09.13.13.29.13.46s-.04.33-.13.46-.2.24-.36.31c-.15.07-.33.11-.54.11h-.69,0ZM33.07,58.64l-.94-1.29.61-.17,1.12,1.46h-.79Z"/><path class="cls-57" d="M34.15,58.64v-3.01h.67v3.01h-.67Z"/><path class="cls-57" d="M36.82,58.68c-.22,0-.42-.04-.62-.12s-.36-.19-.5-.33-.25-.3-.33-.49-.12-.39-.12-.61.04-.42.12-.61.2-.35.34-.49.32-.25.51-.33.41-.12.63-.12c.26,0,.49.05.71.14s.39.22.53.39l-.46.46c-.1-.13-.21-.22-.34-.28s-.28-.09-.44-.09c-.18,0-.33.04-.47.12-.14.08-.25.19-.33.33s-.12.3-.12.49.04.35.11.49.18.25.32.33.29.12.46.12.33-.03.45-.1c.12-.07.22-.16.29-.29s.1-.28.1-.46l.44.3-1.34-.02v-.57h1.58v.1c0,.36-.07.66-.19.91s-.31.43-.54.56c-.23.13-.49.19-.79.19h0Z"/><path class="cls-57" d="M38.74,58.64v-3.01h.67v3.01h-.67ZM39.15,57.38v-.58h1.68v.58h-1.68ZM40.61,58.64v-3.01h.67v3.01h-.67Z"/><path class="cls-57" d="M41.65,56.21v-.58h2.55v.58h-2.55ZM42.59,58.64v-2.97h.67v2.97h-.67Z"/><path class="cls-57" d="M46.94,58.64v-3.01h.67v3.01h-.67ZM47.45,56.2v-.57h1.57v.57h-1.57ZM47.45,57.45v-.57h1.5v.57h-1.5Z"/><path class="cls-57" d="M50.66,58.68c-.25,0-.47-.05-.65-.16s-.34-.25-.44-.44-.16-.4-.16-.64v-1.82h.67v1.86c0,.12.03.22.08.31s.12.16.21.2.19.07.3.07c.11,0,.21-.02.3-.07s.15-.11.2-.2.07-.19.07-.31v-1.87h.67v1.83c0,.24-.05.45-.16.63s-.25.33-.44.44c-.19.11-.4.16-.65.16h0Z"/><path class="cls-57" d="M52.22,56.21v-.58h2.55v.58h-2.55ZM53.16,58.64v-2.97h.67v2.97h-.67Z"/><path class="cls-57" d="M56.34,58.68c-.25,0-.47-.05-.65-.16-.19-.11-.34-.25-.44-.44s-.16-.4-.16-.64v-1.82h.67v1.86c0,.12.03.22.08.31s.12.16.21.2.19.07.3.07c.11,0,.21-.02.3-.07s.15-.11.2-.2.07-.19.07-.31v-1.87h.67v1.83c0,.24-.05.45-.16.63s-.25.33-.44.44c-.19.11-.4.16-.65.16h0Z"/><path class="cls-57" d="M58.12,58.64v-3.01h.67v3.01h-.67ZM58.64,57.4v-.49h.63c.13,0,.24-.03.31-.1s.11-.16.11-.28c0-.11-.04-.2-.11-.27-.07-.07-.17-.11-.31-.11h-.64v-.52h.72c.2,0,.37.04.52.11.15.08.27.18.35.31.09.13.13.29.13.46s-.04.33-.13.46-.2.24-.36.31c-.15.07-.33.11-.54.11h-.69,0ZM59.76,58.64l-.94-1.29.61-.17,1.12,1.46h-.79Z"/><path class="cls-57" d="M60.84,58.64v-3.01h.67v3.01h-.67ZM61.35,56.2v-.57h1.63v.57h-1.63ZM61.35,57.38v-.56h1.5v.56h-1.5ZM61.35,58.64v-.58h1.65v.58h-1.65Z"/><path class="cls-57" d="M12,28.64h2.56v25.66h-2.56v-25.66Z"/><path class="cls-57" d="M19.95,28.64h5.11c2.93,0,4.91.13,5.93.38,1.47.36,2.66,1.1,3.59,2.22.93,1.12,1.39,2.53,1.39,4.23s-.45,3.12-1.36,4.23c-.91,1.11-2.16,1.86-3.75,2.24-1.16.28-3.34.42-6.52.42h-1.83v11.93h-2.56v-25.66h0ZM22.52,31.16v8.7l4.34.05c1.76,0,3.04-.16,3.85-.48.81-.32,1.45-.84,1.92-1.55.46-.71.7-1.51.7-2.39s-.23-1.64-.7-2.36c-.47-.71-1.08-1.22-1.84-1.52-.76-.3-2.01-.45-3.74-.45h-4.53Z"/><path class="cls-57" d="M51.13,28.64l11.97,25.66h-2.77l-4.03-8.44h-11.05l-4,8.44h-2.86l12.12-25.66h.63ZM50.8,34.1l-4.4,9.29h8.77l-4.38-9.29h0Z"/><circle class="cls-57" cx="26.23" cy="48.73" r="2.27"/><circle class="cls-57" cx="17.16" cy="48.73" r="2.27"/><circle class="cls-57" cx="7.01" cy="48.73" r="2.27"/><circle class="cls-57" cx="39.83" cy="44.58" r="2.27"/><circle class="cls-57" cx="51.79" cy="44.58" r="2.27"/><circle class="cls-57" cx="30.4" cy="44.58" r="2.27"/><circle class="cls-57" cx="41.28" cy="35.68" r="2.27"/><circle class="cls-57" cx="27.68" cy="35.68" r="2.27"/><circle class="cls-57" cx="16.89" cy="35.68" r="2.27"/><polygon class="cls-40" points="170.18 328.2 170.18 307.83 157.4 307.83 157.4 328.2 86.46 328.2 86.46 334.2 241.12 334.2 241.12 328.2 170.18 328.2"/><path class="cls-48" d="M51.19,174.58l224.35-1.11c2.2-.01,4.01,1.75,4.01,3.92l.13,132.37c0,2.17-1.8,3.95-4,3.96l-224.35,1.11c-2.2.01-4.01-1.75-4.01-3.92l-.13-132.37c0-2.17,1.8-3.95,4-3.96Z"/><path class="cls-42" d="M51.19,176.13l224.35-1.11c1.34,0,2.43,1.06,2.43,2.38l.13,132.37c0,1.31-1.09,2.4-2.43,2.4l-224.35,1.11c-1.34,0-2.43-1.06-2.43-2.38l-.13-132.37c0-1.31,1.09-2.4,2.43-2.4Z"/><polygon class="cls-26" points="56.66 183.86 270.09 182.81 270.21 304.44 56.77 305.49 56.66 183.86"/><path class="cls-27" d="M163.37,177.04c1.31,0,2.38,1.04,2.38,2.33,0,1.29-1.06,2.35-2.38,2.35-1.31,0-2.38-1.04-2.38-2.33,0-1.29,1.06-2.35,2.38-2.35Z"/><path class="cls-40" d="M163.37,178c.77,0,1.4.61,1.4,1.37,0,.76-.62,1.38-1.39,1.38-.77,0-1.4-.61-1.4-1.37,0-.76.62-1.38,1.39-1.38Z"/><path class="cls-54" d="M163.37,178.83c.31,0,.55.24.56.54,0,.3-.25.55-.55.55-.31,0-.55-.24-.56-.54,0-.3.25-.55.55-.55Z"/><path class="cls-11" d="M69.39,188.99l63.77-.31c2.2-.01,3.98,1.75,3.94,3.92l-1.7,102.49c-.04,2.17-1.87,3.95-4.07,3.96l-63.77.31c-2.2.01-3.98-1.75-3.94-3.92l1.7-102.49c.04-2.17,1.87-3.95,4.07-3.96Z"/><path class="cls-2" d="M71.96,199.98l34.72-.17c.78,0,1.41.62,1.4,1.39h0c-.01.77-.66,1.4-1.44,1.4l-34.72.17c-.78,0-1.41-.62-1.4-1.39h0c.01-.77.66-1.4,1.44-1.4Z"/><path class="cls-2" d="M115.61,199.76l-3.26.02c-.78,0-1.43.64-1.44,1.4h0c-.01.77.62,1.39,1.4,1.39l3.26-.02c.78,0,1.43-.64,1.44-1.4h0c.01-.77-.62-1.39-1.4-1.39Z"/><path class="cls-2" d="M123.13,199.73l-3.26.02c-.78,0-1.43.64-1.44,1.4h0c-.01.77.62,1.39,1.4,1.39l3.26-.02c.78,0,1.43-.64,1.44-1.4h0c.01-.77-.62-1.39-1.4-1.39Z"/><path class="cls-2" d="M71.8,209.63l21.27-.11c.78,0,1.41.62,1.4,1.39h0c-.01.77-.66,1.4-1.44,1.4l-21.27.11c-.78,0-1.41-.62-1.4-1.39h0c.01-.77.66-1.4,1.44-1.4Z"/><path class="cls-2" d="M114.12,209.42l-12.6.06c-.78,0-1.43.64-1.44,1.4h0c-.01.77.62,1.39,1.4,1.39l12.6-.06c.78,0,1.43-.64,1.44-1.4h0c.01-.77-.62-1.39-1.4-1.39Z"/><path class="cls-2" d="M122.97,209.37l-3.26.02c-.78,0-1.43.64-1.44,1.4h0c-.01.77.62,1.39,1.4,1.39l3.26-.02c.78,0,1.43-.64,1.44-1.4h0c.01-.77-.62-1.39-1.4-1.39Z"/><path class="cls-2" d="M74.14,220.25l21.27-.11c.78,0,1.41.62,1.4,1.39h0c-.01.77-.66,1.4-1.44,1.4l-21.27.11c-.78,0-1.41-.62-1.4-1.39h0c.01-.77.66-1.4,1.44-1.4Z"/><path class="cls-2" d="M113.95,219.81l-8.01.04c-.78,0-1.43.63-1.44,1.4h0c-.01.77.62,1.39,1.4,1.39l8.01-.04c.78,0,1.43-.64,1.44-1.4h0c.01-.77-.62-1.39-1.4-1.39Z"/><path class="cls-2" d="M122.79,219.76l-3.26.02c-.78,0-1.43.63-1.44,1.4h0c-.01.77.62,1.39,1.4,1.39l3.26-.02c.78,0,1.43-.64,1.44-1.4h0c.01-.77-.62-1.39-1.4-1.39Z"/><line class="cls-56" x1="77.17" y1="258.34" x2="121.91" y2="258.12"/><path class="cls-7" d="M84.28,256.54c-.14-.1-.18-.29-.08-.43.1-.14.3-.18.44-.09.8.53,1.72,1.07,2.9.86.34-.06.7-.18,1.09-.37.07-1.48.21-3.15.46-4.8.29-1.95.72-3.88,1.36-5.48.86-2.17,2.44-3.59,3.81-4.03.49-.16.97-.2,1.38-.1.44.1.81.34,1.06.73.49.75.55,2.08-.17,4.04-.41,1.12-.99,2.3-1.57,3.36-.85,1.55-1.71,2.84-2.08,3.29-1.4,1.71-2.6,2.76-3.64,3.36-.03.71-.04,1.38-.05,1.96,0,.9.04,1.42.14,1.46.06.03.31-.36.78-1.24.34-.64.7-1.4,1.05-2.16.86-1.84,1.72-3.67,2.4-3.7.46-.02.75.56.78,2.06.01.72.06,1.2.18,1.26.12.05.45-.24,1.1-1.03.42-.51.87-1.01,1.47-1.13.61-.13,1.29.14,2.1,1.19.74.96.9,1.34.93,1.31.03-.03-.03-.15-.02-.38,0-.23.01-.49.05-.75.15-1.11.51-1.42,1.01-1.36.3.03.59.23.92.45.16.11.33.22.49.31.84.46,1.55.64,2.15.61.49-.02.91-.18,1.27-.45.37-.27.68-.65.94-1.09.17-.3.32-.62.45-.96-.65.24-1.27.39-1.8.35-1.11-.09-1.77-.95-1.51-3.39.19-1.78.81-2.89,1.52-3.4.32-.23.66-.34,1-.35.34,0,.67.1.96.32.59.43,1.03,1.32,1.06,2.59.02.82-.06,1.82-.28,2.81l.43-.2c.79-.36,1.58-.72,2.29-.91,1.19-.32,2.14-.18,2.47,1.12.04.17-.06.34-.23.38-.17.05-.34-.05-.38-.22-.21-.83-.87-.91-1.7-.68-.65.18-1.42.52-2.18.87-.3.14-.59.27-.89.4-.17.56-.39,1.09-.66,1.57-.3.52-.67.96-1.12,1.29-.46.33-1,.54-1.63.57-.72.03-1.54-.17-2.48-.69-.19-.11-.37-.23-.54-.34-.26-.17-.49-.33-.64-.35-.11-.01-.21.18-.3.81-.03.24-.04.48-.04.68-.01.4-.02.71-.23.87-.32.24-.79-.08-1.82-1.42-.63-.82-1.1-1.05-1.48-.97-.39.08-.75.49-1.1.91-.88,1.06-1.45,1.4-1.86,1.21-.4-.19-.52-.84-.54-1.8-.02-1.05-.07-1.46-.14-1.46-.29.01-1.07,1.67-1.84,3.33-.37.78-.74,1.57-1.07,2.19-.66,1.24-1.18,1.71-1.59,1.54-.37-.15-.52-.87-.52-2.03,0-.5.01-1.06.03-1.65-.34.14-.66.24-.97.29-1.41.25-2.46-.35-3.36-.95h0ZM89.28,256.14c.89-.58,1.91-1.53,3.11-3,.35-.43,1.19-1.68,2.01-3.19.57-1.04,1.13-2.19,1.53-3.28.65-1.76.63-2.89.23-3.5-.17-.25-.4-.41-.68-.47-.3-.07-.66-.04-1.05.09-1.22.39-2.62,1.67-3.41,3.65-.62,1.55-1.04,3.44-1.32,5.34-.22,1.49-.36,3-.43,4.36h0ZM107.65,252.49c.29-1.06.39-2.2.37-3.1-.03-1.07-.36-1.78-.81-2.11-.18-.13-.38-.2-.58-.2-.2,0-.42.08-.63.23-.58.42-1.09,1.38-1.26,2.95-.21,1.97.21,2.66.95,2.72.53.04,1.22-.18,1.97-.49Z"/><path class="cls-53" d="M225.84,291.69c13.86-.71,24.18-12.49,22.97-26.21-1.21-13.72-13.49-24.33-27.35-23.62-13.86.71-24.18,12.49-22.97,26.21,1.21,13.72,13.49,24.33,27.35,23.62Z"/><path class="cls-3" d="M225.62,289.24c12.49-.64,21.79-11.26,20.71-23.62-1.09-12.37-12.16-21.93-24.65-21.29-12.49.64-21.79,11.26-20.71,23.62,1.09,12.37,12.16,21.93,24.65,21.29Z"/><path class="cls-44" d="M225.51,287.92c11.76-.61,20.52-10.6,19.5-22.25-1.02-11.65-11.45-20.65-23.21-20.04-11.76.61-20.52,10.6-19.5,22.25,1.02,11.65,11.45,20.65,23.21,20.04Z"/><path class="cls-23" d="M223.79,268.34c.87-.04,1.51-.78,1.44-1.64-.08-.86-.84-1.52-1.71-1.48-.87.04-1.51.78-1.44,1.64.08.86.84,1.52,1.71,1.48Z"/><path class="cls-23" d="M230.39,249.71h0c.51.21.77.79.57,1.29l-5.07,12.84c-.2.5-.78.73-1.29.52h0c-.51-.21-.77-.79-.57-1.29l5.07-12.84c.2-.5.78-.73,1.29-.52Z"/><path class="cls-23" d="M237.07,273.32h0c-.23.48-.82.68-1.32.44l-9.2-4.47c-.5-.24-.72-.84-.49-1.32h0c.23-.48.82-.68,1.32-.44l9.2,4.47c.5.24.72.84.49,1.32Z"/><path class="cls-46" d="M146.26,281.38l12.85-.06c1.19,0,2.16.95,2.15,2.12l-.1,12.65c0,1.17-.99,2.14-2.19,2.15l-12.85.06c-1.19,0-2.16-.95-2.15-2.12l.1-12.65c0-1.17.99-2.14,2.19-2.15Z"/><path class="cls-46" d="M167.38,281.28l12.85-.06c1.19,0,2.16.95,2.15,2.12l-.1,12.65c0,1.17-.99,2.14-2.19,2.15l-12.85.06c-1.19,0-2.16-.95-2.15-2.12l.1-12.65c0-1.17.99-2.14,2.19-2.15Z"/><polygon class="cls-1" points="168.34 285.67 169.65 284.38 173.75 288.43 177.91 284.34 179.2 285.61 175.04 289.7 179.13 293.74 177.83 295.03 173.73 290.98 169.56 295.07 168.28 293.8 172.44 289.71 168.34 285.67"/><polygon class="cls-36" points="151.12 290.23 158.16 286.04 150.67 293.96 146.95 289.32 148.88 287.61 151.12 290.23"/><path class="cls-45" d="M63.46,344.02h67.41c.4,0,.74.22.9.59.16.36.1.77-.16,1.06l-47.75,53.5c-.19.22-.45.33-.74.33H15.71c-.4,0-.74-.22-.9-.59-.16-.36-.1-.77.16-1.06l47.75-53.5c.19-.22.45-.33.74-.33Z"/><path class="cls-37" d="M59.67,341.24l68.1-1.1c.53,0,.4,2.35.05,2.75l-47.75,53.5c-.19.22-.45.33-.74.33H11.91c-.4,0-.74-.22-.9-.59-.16-.36-.35-1.63-.08-1.93l48-52.63c.2-.22.45-.33.74-.33Z"/><path class="cls-23" d="M59.67,339.87h67.41c.4,0,.74.22.9.59.16.36.1.77-.16,1.06l-47.75,53.5c-.19.22-.45.33-.74.33H11.91c-.4,0-.74-.22-.9-.59-.16-.36-.1-.77.16-1.06l47.75-53.5c.19-.22.45-.33.74-.33Z"/><polygon class="cls-38" points="71.4 387.11 79.12 393.65 125.53 341.27 123.05 334.74 71.4 387.11"/><polygon class="cls-13" points="74.65 389.86 78.07 390.59 124.69 339.05 125.92 333.39 70.87 366.64 74.65 389.86"/><path class="cls-20" d="M14.82,385.41h64.3c-1.62,2.94-1.49,5.1,0,8.24H14.82v-8.24Z"/><path class="cls-9" d="M78.07,390.59H14.82v-5.18h64.3c-1.04,1.89-1.36,3.46-1.06,5.18Z"/><path class="cls-37" d="M59.67,333l68.1-1.1c.53,0,.4,2.35.05,2.75l-47.75,53.5c-.19.22-.45.33-.74.33H11.91c-.4,0-.74-.22-.9-.59-.16-.36-.35-1.64-.08-1.93l48-52.63c.2-.22.45-.33.74-.33Z"/><path class="cls-23" d="M59.67,331.63h67.41c.4,0,.74.22.9.59.16.36.1.77-.16,1.06l-47.75,53.5c-.19.22-.45.33-.74.33H11.91c-.4,0-.74-.22-.9-.59-.16-.36-.1-.77.16-1.06l47.75-53.5c.19-.22.45-.33.74-.33Z"/><path class="cls-12" d="M34.88,365.03c6.95-.12,13.64-2.43,20.16-4.64,19.83-6.73,40.48-14.91,61.71-14.71l11.06-12.39c.27-.3.33-.7.17-1.06-.16-.36-.5-.59-.9-.59H59.67c-.29,0-.54.11-.74.33l-29.21,32.73c1.71.27,3.44.37,5.16.34Z"/><path class="cls-35" d="M21.51,379.17c1.02,0,1.28.64.59,1.43-.69.79-2.08,1.43-3.1,1.43s-1.28-.64-.59-1.43c.69-.79,2.08-1.43,3.1-1.43h0ZM27.15,372.75c1.02,0,1.28.64.59,1.43-.69.79-2.08,1.43-3.1,1.43s-1.28-.64-.59-1.43c.69-.79,2.08-1.43,3.1-1.43h0ZM32.8,366.33c1.02,0,1.28.64.59,1.43-.69.79-2.08,1.43-3.1,1.43s-1.28-.64-.59-1.43c.69-.79,2.08-1.43,3.1-1.43h0ZM38.44,359.91c1.02,0,1.28.64.59,1.43-.69.79-2.08,1.43-3.1,1.43s-1.28-.64-.59-1.43c.69-.79,2.08-1.43,3.1-1.43h0ZM44.08,353.49c1.02,0,1.28.64.59,1.43-.69.79-2.08,1.43-3.1,1.43s-1.28-.64-.59-1.43c.69-.79,2.08-1.43,3.1-1.43h0ZM49.72,347.07c1.02,0,1.28.64.59,1.43-.69.79-2.08,1.43-3.1,1.43s-1.28-.64-.59-1.43c.69-.79,2.08-1.43,3.1-1.43h0ZM55.36,340.65c1.02,0,1.28.64.59,1.43-.69.79-2.08,1.43-3.1,1.43s-1.28-.64-.59-1.43c.69-.79,2.08-1.43,3.1-1.43h0ZM61.01,334.23c1.02,0,1.28.64.59,1.43-.69.79-2.08,1.43-3.1,1.43s-1.28-.64-.59-1.43c.69-.79,2.08-1.43,3.1-1.43Z"/><path class="cls-34" d="M54.71,332.21c2.8,0,5.27,1.38,6.78,3.49-.53.57-1.42,1.05-2.25,1.25-1.06-1.34-2.69-2.2-4.53-2.2-3.18,0-5.76,2.58-5.76,5.76,0,.76.15,1.49.42,2.15l-1.83,2.05c-.72-1.23-1.14-2.67-1.14-4.2,0-4.59,3.72-8.32,8.32-8.32Z"/><path class="cls-8" d="M54.71,332.82c2.61,0,4.92,1.3,6.31,3.29-.34.26-.75.48-1.16.64-1.16-1.58-3.03-2.61-5.15-2.61-3.52,0-6.38,2.86-6.38,6.38,0,.95.21,1.85.58,2.66l-.94,1.06c-.61-1.1-.96-2.37-.96-3.72,0-4.25,3.45-7.7,7.7-7.7Z"/><path class="cls-34" d="M49.09,338.51c2.8,0,5.27,1.38,6.78,3.49-.53.57-1.42,1.05-2.25,1.25-1.06-1.34-2.69-2.2-4.53-2.2-3.18,0-5.76,2.58-5.76,5.76,0,.76.15,1.49.42,2.15l-1.83,2.05c-.72-1.23-1.14-2.67-1.14-4.2,0-4.59,3.72-8.32,8.32-8.32Z"/><path class="cls-8" d="M49.09,339.13c2.61,0,4.92,1.3,6.31,3.29-.34.26-.75.48-1.16.64-1.16-1.58-3.03-2.61-5.15-2.61-3.52,0-6.38,2.86-6.38,6.38,0,.95.21,1.85.58,2.66l-.94,1.06c-.61-1.1-.96-2.37-.96-3.72,0-4.25,3.45-7.7,7.7-7.7Z"/><path class="cls-34" d="M43.31,344.98c2.8,0,5.27,1.38,6.78,3.49-.53.57-1.42,1.05-2.25,1.25-1.06-1.34-2.69-2.2-4.53-2.2-3.18,0-5.76,2.58-5.76,5.76,0,.76.15,1.49.42,2.15l-1.83,2.05c-.72-1.23-1.14-2.67-1.14-4.2,0-4.59,3.72-8.32,8.32-8.32Z"/><path class="cls-8" d="M43.31,345.6c2.61,0,4.92,1.3,6.31,3.29-.34.26-.75.48-1.16.64-1.16-1.58-3.03-2.61-5.15-2.61-3.52,0-6.38,2.86-6.38,6.38,0,.95.21,1.85.58,2.66l-.94,1.06c-.61-1.1-.96-2.37-.96-3.72,0-4.25,3.45-7.7,7.7-7.7Z"/><path class="cls-34" d="M37.74,351.45c2.8,0,5.27,1.38,6.78,3.49-.53.57-1.42,1.05-2.25,1.25-1.06-1.34-2.69-2.2-4.53-2.2-3.18,0-5.76,2.58-5.76,5.76,0,.76.08,1.32.35,1.99l-.14.15-1.71,1.92c-.72-1.23-1.06-2.53-1.06-4.06,0-4.59,3.72-8.32,8.32-8.32Z"/><path class="cls-8" d="M37.74,352.07c2.61,0,4.92,1.3,6.31,3.29-.34.26-.75.48-1.16.64-1.16-1.58-3.03-2.61-5.15-2.61-3.52,0-6.38,2.86-6.38,6.38,0,.89.18,1.74.51,2.5l-.95,1.07c-.56-1.07-.88-2.28-.88-3.57,0-4.25,3.45-7.7,7.7-7.7Z"/><path class="cls-34" d="M31.96,357.94c2.8,0,5.27,1.38,6.78,3.49-.53.57-1.42,1.05-2.25,1.25-1.06-1.34-2.69-2.2-4.53-2.2-3.18,0-5.76,2.58-5.76,5.76,0,.76.08,1.32.35,1.99l-.14.15-1.71,1.92c-.72-1.23-1.06-2.53-1.06-4.06,0-4.59,3.72-8.32,8.32-8.32Z"/><path class="cls-8" d="M31.96,358.56c2.61,0,4.92,1.3,6.31,3.29-.34.26-.75.48-1.16.64-1.16-1.58-3.03-2.61-5.15-2.61-3.52,0-6.38,2.86-6.38,6.38,0,.89.18,1.74.51,2.5l-.95,1.07c-.56-1.07-.88-2.28-.88-3.57,0-4.25,3.45-7.7,7.7-7.7Z"/><path class="cls-34" d="M26.53,364.33c2.8,0,5.27,1.38,6.78,3.49-.53.57-1.42,1.05-2.25,1.25-1.06-1.34-2.69-2.2-4.53-2.2-3.18,0-5.76,2.58-5.76,5.76,0,.68.07,1.2.27,1.77l-1.87,2.1c-.65-1.18-.95-2.41-.95-3.87,0-4.59,3.72-8.32,8.32-8.32Z"/><path class="cls-8" d="M26.53,364.95c2.61,0,4.92,1.3,6.31,3.29-.34.26-.75.48-1.16.64-1.16-1.58-3.03-2.61-5.15-2.61-3.52,0-6.38,2.86-6.38,6.38,0,.81.15,1.58.42,2.29l-.97,1.08c-.5-1.02-.78-2.16-.78-3.37,0-4.25,3.45-7.7,7.7-7.7Z"/><path class="cls-34" d="M20.84,370.71c2.8,0,5.27,1.38,6.78,3.49-.53.57-1.42,1.05-2.25,1.25-1.06-1.34-2.69-2.2-4.53-2.2-3.18,0-5.76,2.58-5.76,5.76,0,.68.07,1.2.27,1.77l-1.87,2.1c-.65-1.18-.95-2.41-.95-3.87,0-4.59,3.72-8.32,8.32-8.32Z"/><path class="cls-8" d="M20.84,371.33c2.61,0,4.92,1.3,6.31,3.29-.34.26-.75.48-1.16.64-1.16-1.58-3.03-2.61-5.15-2.61-3.52,0-6.38,2.86-6.38,6.38,0,.81.15,1.58.42,2.29l-.97,1.08c-.5-1.02-.78-2.16-.78-3.37,0-4.25,3.45-7.7,7.7-7.7Z"/><path class="cls-34" d="M15.26,377.17c2.8,0,5.27,1.38,6.78,3.49-.53.57-1.42,1.05-2.25,1.25-1.06-1.34-2.69-2.2-4.53-2.2-3.18,0-5.76,2.58-5.76,5.76,0,2.6,1.72,4.79,4.08,5.51l-1.81,2.03c-2.85-1.32-4.82-4.2-4.82-7.55,0-4.59,3.72-8.32,8.32-8.32Z"/><path class="cls-8" d="M15.26,377.79c2.61,0,4.92,1.3,6.31,3.29-.34.26-.75.48-1.16.64-1.16-1.58-3.03-2.61-5.15-2.61-3.52,0-6.38,2.86-6.38,6.38,0,2.78,1.77,5.14,4.25,6.02l-.93,1.05c-2.73-1.19-4.63-3.9-4.63-7.06,0-4.25,3.45-7.7,7.7-7.7Z"/><path class="cls-45" d="M188.33,355.99h0c.58,1.27.01,2.77-1.25,3.35l-58.78,26.77c-1.27.58-2.77.01-3.35-1.25h0c-.58-1.27-.01-2.77,1.25-3.35l58.78-26.77c1.27-.58,2.77-.01,3.35,1.25Z"/><path class="cls-49" d="M185.66,352.04h0c.58,1.27.01,2.77-1.25,3.35l-58.78,26.77c-1.27.58-2.77.01-3.35-1.25h0c-.58-1.27-.01-2.77,1.25-3.35l58.78-26.77c1.27-.58,2.77-.01,3.35,1.25Z"/><path class="cls-5" d="M184.98,352.35h0c.41.89,0,1.96-.89,2.37l-58.78,26.77c-.89.41-1.96,0-2.37-.89h0c-.41-.89,0-1.96.89-2.37l58.78-26.77c.89-.41,1.96,0,2.37.89Z"/><path class="cls-33" d="M183.69,352.94h0c.23.5,0,1.1-.5,1.33l-57.62,26.24c-.5.23-1.1,0-1.33-.5h0c-.23-.5,0-1.1.5-1.33l57.62-26.24c.5-.23,1.1,0,1.33.5Z"/><path class="cls-10" d="M182.75,353.37h0c.1.22,0,.49-.22.59l-12.8,5.83c-.22.1-.49,0-.59-.22h0c-.1-.22,0-.49.22-.59l12.8-5.83c.22-.1.49,0,.59.22Z"/><path class="cls-19" d="M154.34,369.08c-.53-.66-.98-1.38-1.34-2.17-.36-.79-.61-1.6-.76-2.44l.94-.43c.13.84.36,1.66.72,2.45.36.79.82,1.51,1.37,2.15l-.94.43Z"/><path class="cls-19" d="M153.88,368.47c-.34-.49-.63-1.01-.88-1.56-.25-.55-.45-1.12-.6-1.69l.92-.42c.14.58.33,1.15.58,1.7.25.55.55,1.07.9,1.55l-.92.42Z"/><path class="cls-19" d="M153.46,367.81c-.17-.29-.32-.59-.46-.89-.14-.31-.26-.62-.37-.93l.91-.41c.1.32.23.63.37.94s.3.6.47.89l-.91.41Z"/><path class="cls-6" d="M274.64,201.5c21.31,0,38.7-17.38,38.7-38.7s-17.38-38.7-38.7-38.7-38.7,17.38-38.7,38.7,17.38,38.7,38.7,38.7Z"/><path class="cls-10" d="M274.64,196.75c18.7,0,33.95-15.25,33.95-33.95s-15.25-33.95-33.95-33.95-33.95,15.25-33.95,33.95,15.25,33.95,33.95,33.95Z"/><rect class="cls-58" x="252.97" y="132.37" width="43.35" height="60.87"/><path class="cls-50" d="M256.62,134.25h36.04c0,1.12.92,2.04,2.04,2.04v53.01c-1.12,0-2.04.92-2.04,2.04h-36.04c0-1.12-.92-2.04-2.04-2.04v-53.01c1.12,0,2.04-.92,2.04-2.04Z"/><path class="cls-61" d="M260.8,141.84h.67c-.01.22-.07.41-.18.58-.11.17-.25.3-.45.4s-.42.14-.69.14c-.21,0-.4-.04-.56-.11-.17-.07-.31-.18-.42-.31-.12-.14-.21-.3-.27-.49-.06-.19-.09-.41-.09-.65v-.23c0-.24.03-.46.1-.65s.15-.36.27-.49c.12-.14.26-.24.43-.31.17-.07.35-.11.56-.11.27,0,.5.05.69.15.19.1.33.23.44.41.1.17.17.37.19.59h-.67c0-.13-.04-.24-.08-.33-.04-.09-.11-.16-.2-.21-.09-.05-.21-.07-.36-.07-.11,0-.21.02-.29.06-.08.04-.15.1-.21.19-.06.08-.1.19-.13.32-.03.13-.04.28-.04.45v.23c0,.17.01.32.04.44s.06.24.12.32c.05.09.12.15.21.2.08.04.19.07.31.07.14,0,.26-.02.35-.07s.16-.11.21-.2c.05-.09.08-.2.09-.33Z"/><path class="cls-61" d="M262.58,139.66v3.26h-.67v-3.26h.67ZM264.1,139.66v.53h-1.73v-.53h1.73ZM263.87,140.99v.51h-1.51v-.51h1.51ZM264.1,142.39v.52h-1.74v-.52h1.74Z"/><path class="cls-61" d="M264.49,139.66h1.22c.25,0,.46.04.64.11s.32.19.42.33c.1.15.15.33.15.54,0,.17-.03.32-.09.45-.06.12-.14.23-.25.31-.11.08-.23.15-.38.2l-.21.11h-1.06v-.52s.78,0,.78,0c.12,0,.22-.02.29-.06.08-.04.14-.1.18-.17.04-.07.06-.16.06-.26,0-.1-.02-.19-.06-.27s-.1-.13-.18-.17c-.08-.04-.18-.06-.3-.06h-.54v2.73h-.67v-3.26ZM266.31,142.92l-.74-1.45h.71s.75,1.42.75,1.42v.03h-.72Z"/><path class="cls-61" d="M269.76,139.66v.53h-2.66v-.53h2.66ZM268.75,139.66v3.26h-.67v-3.26h.67Z"/><path class="cls-61" d="M270.85,139.66v3.26h-.67v-3.26h.67Z"/><path class="cls-61" d="M272.15,139.66v3.26h-.67v-3.26h.67ZM273.61,139.66v.53h-1.64v-.53h1.64ZM273.45,141.05v.52h-1.48v-.52h1.48Z"/><path class="cls-61" d="M274.71,139.66v3.26h-.67v-3.26h.67Z"/><path class="cls-61" d="M277.23,141.84h.67c-.01.22-.07.41-.18.58-.11.17-.25.3-.45.4s-.42.14-.69.14c-.21,0-.4-.04-.56-.11-.17-.07-.31-.18-.42-.31-.12-.14-.21-.3-.27-.49-.06-.19-.09-.41-.09-.65v-.23c0-.24.03-.46.1-.65s.15-.36.27-.49c.12-.14.26-.24.43-.31.17-.07.35-.11.56-.11.27,0,.5.05.69.15.19.1.33.23.44.41.1.17.17.37.19.59h-.67c0-.13-.04-.24-.08-.33-.04-.09-.11-.16-.2-.21-.09-.05-.21-.07-.36-.07-.11,0-.21.02-.29.06-.08.04-.15.1-.21.19-.06.08-.1.19-.13.32-.03.13-.04.28-.04.45v.23c0,.17.01.32.04.44s.06.24.12.32c.05.09.12.15.21.2.08.04.19.07.31.07.14,0,.26-.02.35-.07s.16-.11.21-.2c.05-.09.08-.2.09-.33Z"/><path class="cls-61" d="M279.67,140.22l-.89,2.7h-.71l1.21-3.26h.46l-.07.56ZM280.36,141.71v.53h-1.72v-.53h1.72ZM280.4,142.92l-.89-2.7-.07-.56h.46l1.22,3.26h-.72Z"/><path class="cls-61" d="M283.61,139.66v.53h-2.66v-.53h2.66ZM282.6,139.66v3.26h-.67v-3.26h.67Z"/><path class="cls-61" d="M284.7,139.66v3.26h-.67v-3.26h.67Z"/><path class="cls-61" d="M288.01,141.21v.15c0,.25-.03.47-.1.67s-.16.36-.28.5c-.12.14-.27.24-.44.32-.17.07-.36.11-.56.11s-.39-.04-.56-.11-.32-.18-.44-.32-.22-.31-.29-.5c-.07-.2-.1-.42-.1-.67v-.15c0-.25.03-.47.1-.67.07-.2.16-.36.29-.5.12-.14.27-.24.44-.32.17-.07.36-.11.56-.11s.39.04.56.11c.17.07.32.18.44.32.12.14.22.31.29.5s.1.42.1.67ZM287.33,141.37v-.16c0-.17-.02-.33-.05-.46-.03-.13-.08-.24-.14-.33-.06-.09-.14-.16-.22-.2-.09-.05-.19-.07-.3-.07s-.21.02-.3.07c-.09.05-.16.11-.22.2-.06.09-.11.2-.14.33-.03.13-.05.28-.05.46v.16c0,.17.02.32.05.46.03.13.08.24.14.33.06.09.14.16.22.21s.19.07.3.07.21-.02.3-.07.16-.11.22-.21.11-.2.14-.33c.03-.13.05-.28.05-.46Z"/><path class="cls-61" d="M291.15,139.66v3.26h-.67l-1.31-2.19v2.19h-.67v-3.26h.67l1.31,2.19v-2.19h.67Z"/><path class="cls-50" d="M257.88,183.93h33.79M257.88,177.07h33.79"/><polygon class="cls-18" points="286.83 187.22 290.55 187.22 290.55 193.14 288.75 192.15 286.83 193.14 286.83 187.22"/><path class="cls-23" d="M287.94,177.73c.16-.24.44-.39.75-.39s.59.16.75.39c.22-.19.53-.27.83-.19.3.08.53.3.62.57.26-.12.58-.12.85.03.27.16.43.43.45.72.28-.05.59.03.81.25.22.22.3.52.25.81.29.02.56.18.72.45.16.27.16.59.03.85.27.1.49.32.57.62.08.3,0,.61-.19.83.24.16.39.44.39.75,0,.31-.16.59-.39.75.19.22.27.53.19.83-.08.3-.3.53-.57.62.12.26.12.58-.03.85-.16.27-.43.43-.72.45.05.28-.03.59-.25.81-.22.22-.52.3-.81.25-.02.29-.18.56-.45.72-.27.16-.59.16-.85.03-.1.27-.32.49-.62.57-.3.08-.61,0-.83-.19-.16.24-.44.39-.75.39s-.59-.16-.75-.39c-.22.19-.53.27-.83.19-.3-.08-.53-.3-.62-.57-.26.12-.58.12-.85-.03-.27-.16-.43-.43-.45-.72-.28.05-.59-.03-.81-.25-.22-.22-.3-.52-.25-.81-.29-.02-.56-.18-.72-.45-.16-.27-.16-.59-.03-.85-.27-.1-.49-.32-.57-.62-.08-.3,0-.61.19-.83-.24-.16-.39-.44-.39-.75,0-.31.16-.59.39-.75-.19-.22-.27-.53-.19-.83s.3-.53.57-.62c-.12-.26-.12-.58.03-.85.16-.27.43-.43.72-.45-.05-.28.03-.59.25-.81.22-.22.52-.3.81-.25.02-.29.18-.56.45-.72.27-.16.59-.16.85-.03.1-.27.32-.49.62-.57.3-.08.61,0,.83.19Z"/><circle class="cls-63" cx="288.69" cy="183.43" r="4.46" transform="translate(35.19 413.04) rotate(-74.6)"/><path class="cls-7" d="M261.93,176.2c-.09-.07-.08-.22.01-.33.1-.11.25-.14.34-.06.51.41,1.1.81,2.01.66.26-.04.55-.13.87-.28.3-1.12.69-2.38,1.15-3.63.54-1.47,1.19-2.93,1.93-4.14,1-1.64,2.41-2.7,3.51-3.03.39-.12.75-.14,1.05-.07.31.08.54.26.67.56.24.57.06,1.57-.8,3.06-.49.84-1.12,1.74-1.73,2.54-.89,1.17-1.75,2.14-2.1,2.48-1.33,1.29-2.4,2.08-3.27,2.53-.14.54-.26,1.04-.36,1.48-.15.68-.21,1.07-.14,1.11.04.02.29-.27.79-.94.36-.48.75-1.06,1.15-1.63.95-1.39,1.89-2.77,2.41-2.79.35-.01.47.43.24,1.56-.11.55-.16.91-.07.95.08.04.37-.18.99-.78.4-.38.82-.76,1.28-.85.47-.09.94.11,1.36.91.39.73.45,1.01.48.99.03-.02,0-.11.05-.29.04-.17.09-.37.16-.56.3-.84.62-1.07.98-1.03.22.03.4.18.61.34.1.08.21.17.31.24.55.35,1.04.49,1.5.47.37-.01.71-.14,1.02-.33.32-.2.62-.49.88-.82.18-.22.34-.47.49-.73-.53.18-1.01.29-1.39.26-.81-.07-1.16-.73-.56-2.57.44-1.34,1.09-2.18,1.7-2.57.28-.17.55-.26.8-.26.25,0,.48.08.66.24.37.33.54,1,.36,1.96-.12.62-.35,1.38-.68,2.13l.35-.15c.65-.27,1.3-.54,1.85-.68.94-.24,1.62-.13,1.65.86,0,.13-.1.25-.23.29-.13.03-.24-.04-.25-.17-.02-.63-.49-.69-1.15-.52-.52.13-1.14.39-1.77.65-.24.1-.49.2-.72.3-.22.42-.47.83-.76,1.18-.31.39-.66.73-1.05.97-.4.25-.83.41-1.3.42-.54.02-1.12-.14-1.73-.53-.13-.08-.24-.17-.34-.26-.16-.13-.31-.25-.42-.27-.08,0-.19.13-.36.61-.06.18-.11.36-.15.51-.07.3-.13.53-.32.65-.28.18-.57-.07-1.11-1.08-.33-.62-.65-.79-.94-.74-.3.06-.64.37-.97.68-.83.8-1.31,1.06-1.59.91-.27-.14-.24-.64-.1-1.36.16-.79.19-1.1.14-1.1-.22,0-1.07,1.26-1.93,2.51-.4.59-.81,1.19-1.16,1.65-.7.93-1.16,1.29-1.44,1.16-.25-.12-.24-.66-.05-1.53.08-.38.19-.8.3-1.25-.28.11-.53.18-.77.22-1.09.18-1.77-.27-2.34-.73h0ZM265.72,175.92c.76-.44,1.68-1.15,2.82-2.26.34-.32,1.16-1.27,2.03-2.41.6-.78,1.21-1.65,1.69-2.47.78-1.33.95-2.19.76-2.64-.08-.19-.23-.31-.43-.36-.21-.05-.49-.03-.79.06-.97.29-2.23,1.26-3.14,2.75-.72,1.17-1.35,2.6-1.88,4.04-.41,1.13-.77,2.26-1.05,3.29h0ZM279.98,173.22c.39-.8.66-1.66.79-2.34.16-.81.03-1.35-.25-1.6-.11-.1-.25-.15-.4-.15-.15,0-.32.06-.51.17-.5.31-1.04,1.04-1.43,2.23-.49,1.49-.29,2.01.25,2.06.38.03.94-.13,1.55-.36Z"/><line class="cls-55" x1="261.85" y1="176.8" x2="283.16" y2="176.8"/><path class="cls-14" d="M258.79,186.68h7.77c.28,0,.51.23.51.51h0c0,.28-.23.51-.51.51h-7.77c-.28,0-.51-.23-.51-.51h0c0-.28.23-.51.51-.51Z"/><path class="cls-14" d="M268.48,147.26h7.77c.28,0,.51.23.51.51h0c0,.28-.23.51-.51.51h-7.77c-.28,0-.51-.23-.51-.51h0c0-.28.23-.51.51-.51Z"/><path class="cls-14" d="M278.29,186.68h1.31c.28,0,.51.23.51.51h0c0,.28-.23.51-.51.51h-1.31c-.28,0-.51-.23-.51-.51h0c0-.28.23-.51.51-.51Z"/><path class="cls-14" d="M282.35,147.26h1.31c.28,0,.51.23.51.51h0c0,.28-.23.51-.51.51h-1.31c-.28,0-.51-.23-.51-.51h0c0-.28.23-.51.51-.51Z"/><path class="cls-14" d="M286.51,186.68h4.14c.28,0,.51.23.51.51h0c0,.28-.23.51-.51.51h-4.14c-.28,0-.51-.23-.51-.51h0c0-.28.23-.51.51-.51Z"/><path class="cls-14" d="M258.79,150.49h12.18c.28,0,.51.23.51.51h0c0,.28-.23.51-.51.51h-12.18c-.28,0-.51-.23-.51-.51h0c0-.28.23-.51.51-.51Z"/><path class="cls-14" d="M272.87,189.91h3.37c.28,0,.51.23.51.51h0c0,.28-.23.51-.51.51h-3.37c-.28,0-.51-.23-.51-.51h0c0-.28.23-.51.51-.51Z"/><path class="cls-14" d="M278.29,150.49h5.04c.28,0,.51.23.51.51h0c0,.28-.23.51-.51.51h-5.04c-.28,0-.51-.23-.51-.51h0c0-.28.23-.51.51-.51Z"/><path class="cls-14" d="M286.51,150.49h4.14c.28,0,.51.23.51.51h0c0,.28-.23.51-.51.51h-4.14c-.28,0-.51-.23-.51-.51h0c0-.28.23-.51.51-.51Z"/><path class="cls-14" d="M258.79,153.26h17.71c.28,0,.51.23.51.51h0c0,.28-.23.51-.51.51h-17.71c-.28,0-.51-.23-.51-.51h0c0-.28.23-.51.51-.51Z"/><path class="cls-14" d="M278.29,153.26h7.02c.28,0,.51.23.51.51h0c0,.28-.23.51-.51.51h-7.02c-.28,0-.51-.23-.51-.51h0c0-.28.23-.51.51-.51Z"/><path class="cls-14" d="M287.64,153.26h3c.28,0,.51.23.51.51h0c0,.28-.23.51-.51.51h-3c-.28,0-.51-.23-.51-.51h0c0-.28.23-.51.51-.51Z"/><path class="cls-14" d="M258.79,195.75h7.77c.28,0,.51.23.51.51h0c0,.28-.23.51-.51.51h-7.77c-.28,0-.51-.23-.51-.51h0c0-.28.23-.51.51-.51Z"/><path class="cls-14" d="M268.48,156.33h7.77c.28,0,.51.23.51.51h0c0,.28-.23.51-.51.51h-7.77c-.28,0-.51-.23-.51-.51h0c0-.28.23-.51.51-.51Z"/><path class="cls-14" d="M278.29,156.33h1.31c.28,0,.51.23.51.51h0c0,.28-.23.51-.51.51h-1.31c-.28,0-.51-.23-.51-.51h0c0-.28.23-.51.51-.51Z"/><path class="cls-14" d="M282.35,156.33h1.31c.28,0,.51.23.51.51h0c0,.28-.23.51-.51.51h-1.31c-.28,0-.51-.23-.51-.51h0c0-.28.23-.51.51-.51Z"/><path class="cls-14" d="M286.51,156.33h4.14c.28,0,.51.23.51.51h0c0,.28-.23.51-.51.51h-4.14c-.28,0-.51-.23-.51-.51h0c0-.28.23-.51.51-.51Z"/><path class="cls-14" d="M258.79,159.56h12.18c.28,0,.51.23.51.51h0c0,.28-.23.51-.51.51h-12.18c-.28,0-.51-.23-.51-.51h0c0-.28.23-.51.51-.51Z"/><path class="cls-14" d="M272.87,159.56h3.37c.28,0,.51.23.51.51h0c0,.28-.23.51-.51.51h-3.37c-.28,0-.51-.23-.51-.51h0c0-.28.23-.51.51-.51Z"/><path class="cls-14" d="M278.29,159.56h5.04c.28,0,.51.23.51.51h0c0,.28-.23.51-.51.51h-5.04c-.28,0-.51-.23-.51-.51h0c0-.28.23-.51.51-.51Z"/><path class="cls-14" d="M286.51,159.56h4.14c.28,0,.51.23.51.51h0c0,.28-.23.51-.51.51h-4.14c-.28,0-.51-.23-.51-.51h0c0-.28.23-.51.51-.51Z"/><path class="cls-14" d="M258.79,162.32h17.71c.28,0,.51.23.51.51h0c0,.28-.23.51-.51.51h-17.71c-.28,0-.51-.23-.51-.51h0c0-.28.23-.51.51-.51Z"/><path class="cls-14" d="M278.29,162.32h7.02c.28,0,.51.23.51.51h0c0,.28-.23.51-.51.51h-7.02c-.28,0-.51-.23-.51-.51h0c0-.28.23-.51.51-.51Z"/><path class="cls-14" d="M287.64,162.32h3c.28,0,.51.23.51.51h0c0,.28-.23.51-.51.51h-3c-.28,0-.51-.23-.51-.51h0c0-.28.23-.51.51-.51Z"/><path class="cls-6" d="M163.15,193.66c24.22,0,43.97-19.75,43.97-43.97s-19.75-43.97-43.97-43.97-43.97,19.75-43.97,43.97,19.75,43.97,43.97,43.97Z"/><path class="cls-10" d="M163.15,186.18c20.1,0,36.49-16.39,36.49-36.49s-16.39-36.49-36.49-36.49-36.49,16.39-36.49,36.49,16.39,36.49,36.49,36.49Z"/><path class="cls-6" d="M161.4,100.9c.71,0,1.29.58,1.29,1.29s-.58,1.29-1.29,1.29-1.29-.58-1.29-1.29.58-1.29,1.29-1.29h0ZM174.09,102.11c.69.18,1.1.89.91,1.58-.18.69-.89,1.1-1.58.91-.69-.18-1.1-.89-.91-1.58.18-.69.89-1.1,1.58-.91h0ZM186.03,106.56c.62.36.83,1.14.47,1.76-.36.62-1.14.83-1.76.47-.62-.36-.83-1.14-.47-1.76.36-.62,1.14-.83,1.76-.47h0ZM196.41,113.95c.5.5.5,1.32,0,1.82-.5.5-1.32.5-1.82,0-.5-.5-.5-1.32,0-1.82.5-.5,1.32-.5,1.82,0h0ZM204.53,123.78c.36.62.14,1.4-.47,1.76-.62.36-1.4.14-1.76-.47-.36-.62-.14-1.4.47-1.76.62-.36,1.4-.14,1.76.47h0ZM209.82,135.37c.18.69-.22,1.39-.91,1.58-.69.18-1.39-.22-1.58-.91-.18-.69.22-1.39.91-1.58.69-.18,1.39.22,1.58.91h0ZM211.94,147.94c0,.71-.58,1.29-1.29,1.29s-1.29-.58-1.29-1.29c0-.71.58-1.29,1.29-1.29s1.29.58,1.29,1.29h0ZM210.73,160.62c-.18.69-.89,1.1-1.58.91-.69-.18-1.1-.89-.91-1.58.18-.69.89-1.1,1.58-.91.69.18,1.1.89.91,1.58h0ZM206.28,172.56c-.36.62-1.14.83-1.76.47-.62-.36-.83-1.14-.47-1.76.36-.62,1.14-.83,1.76-.47.62.36.83,1.14.47,1.76h0ZM198.89,182.95c-.5.5-1.32.5-1.82,0-.5-.5-.5-1.32,0-1.82.5-.5,1.32-.5,1.82,0s.5,1.32,0,1.82h0ZM189.07,191.06c-.62.36-1.4.14-1.76-.47-.36-.62-.14-1.4.47-1.76.62-.36,1.4-.14,1.76.47.36.62.14,1.4-.47,1.76h0ZM177.47,196.36c-.69.18-1.39-.22-1.58-.91-.18-.69.22-1.39.91-1.58.69-.18,1.39.22,1.58.91.18.69-.22,1.39-.91,1.58h0ZM164.91,198.48c-.71,0-1.29-.58-1.29-1.29s.58-1.29,1.29-1.29c.71,0,1.29.58,1.29,1.29s-.58,1.29-1.29,1.29h0ZM152.22,197.27c-.69-.18-1.1-.89-.91-1.58.18-.69.89-1.1,1.58-.91.69.18,1.1.89.91,1.58-.18.69-.89,1.1-1.58.91h0ZM140.28,192.82c-.62-.36-.83-1.14-.47-1.76.36-.62,1.14-.83,1.76-.47.62.36.83,1.14.47,1.76-.36.62-1.14.83-1.76.47h0ZM129.9,185.43c-.5-.5-.5-1.32,0-1.82.5-.5,1.32-.5,1.82,0,.5.5.5,1.32,0,1.82-.5.5-1.32.5-1.82,0h0ZM121.78,175.6c-.36-.62-.14-1.4.47-1.76.62-.36,1.4-.14,1.76.47.36.62.14,1.4-.47,1.76-.62.36-1.4.14-1.76-.47h0ZM116.48,164.01c-.18-.69.22-1.39.91-1.58.69-.18,1.39.22,1.58.91.18.69-.22,1.39-.91,1.58-.69.18-1.39-.22-1.58-.91h0ZM114.37,151.44c0-.71.58-1.29,1.29-1.29s1.29.58,1.29,1.29c0,.71-.58,1.29-1.29,1.29s-1.29-.58-1.29-1.29h0ZM115.57,138.76c.18-.69.89-1.1,1.58-.91.69.18,1.1.89.91,1.58-.18.69-.89,1.1-1.58.91-.69-.18-1.1-.89-.91-1.58h0ZM120.03,126.82c.36-.62,1.14-.83,1.76-.47.62.36.83,1.14.47,1.76-.36.62-1.14.83-1.76.47-.62-.36-.83-1.14-.47-1.76h0ZM127.42,116.43c.5-.5,1.32-.5,1.82,0,.5.5.5,1.32,0,1.82-.5.5-1.32.5-1.82,0-.5-.5-.5-1.32,0-1.82h0ZM137.24,108.32c.62-.36,1.4-.14,1.76.47.36.62.14,1.4-.47,1.76-.62.36-1.4.14-1.76-.47-.36-.62-.14-1.4.47-1.76h0ZM148.83,103.02c.69-.18,1.39.22,1.58.91.18.69-.22,1.39-.91,1.58-.69.18-1.39-.22-1.58-.91-.18-.69.22-1.39.91-1.58h0ZM167.58,101.07c.71.09,1.21.74,1.12,1.44-.09.71-.74,1.21-1.44,1.12-.71-.09-1.21-.74-1.12-1.44.09-.71.74-1.21,1.44-1.12h0ZM180.01,103.87c.66.27.97,1.02.7,1.68-.27.66-1.02.97-1.68.7-.66-.27-.97-1.02-.7-1.68.27-.66,1.02-.97,1.68-.7h0ZM191.29,109.8c.57.43.68,1.24.25,1.81-.43.57-1.24.68-1.81.25-.57-.43-.68-1.24-.25-1.81.43-.57,1.24-.68,1.81-.25h0ZM200.66,118.44c.44.56.33,1.37-.23,1.81-.56.44-1.37.33-1.81-.23-.44-.56-.33-1.37.23-1.81.56-.44,1.37-.33,1.81.23h0ZM207.47,129.21c.28.66-.03,1.41-.69,1.69-.66.28-1.41-.03-1.69-.69-.28-.66.03-1.41.69-1.69.66-.28,1.41.03,1.69.69h0ZM211.26,141.38c.1.71-.4,1.35-1.1,1.45-.71.1-1.35-.4-1.45-1.1-.1-.71.4-1.35,1.1-1.45.71-.1,1.35.4,1.45,1.1h0ZM211.77,154.11c-.09.71-.74,1.21-1.44,1.12-.71-.09-1.21-.74-1.12-1.44.09-.71.74-1.21,1.44-1.12.71.09,1.21.74,1.12,1.44h0ZM208.97,166.55c-.27.66-1.02.97-1.68.7-.66-.27-.97-1.02-.7-1.68.27-.66,1.02-.97,1.68-.7.66.27.97,1.02.7,1.68h0ZM203.05,177.83c-.43.57-1.24.68-1.81.25-.57-.43-.68-1.24-.25-1.81.43-.57,1.24-.68,1.81-.25.57.43.68,1.24.25,1.81h0ZM194.4,187.2c-.56.44-1.37.33-1.81-.23-.44-.56-.33-1.37.23-1.81s1.37-.33,1.81.23c.44.56.33,1.37-.23,1.81h0ZM183.63,194.01c-.66.28-1.41-.03-1.69-.69-.28-.66.03-1.41.69-1.69.66-.28,1.41.03,1.69.69.28.66-.03,1.41-.69,1.69h0ZM171.46,197.8c-.71.1-1.35-.4-1.45-1.1-.1-.71.4-1.35,1.1-1.45.71-.1,1.35.4,1.45,1.1.1.71-.4,1.35-1.1,1.45h0ZM158.73,198.31c-.71-.09-1.21-.74-1.12-1.44.09-.71.74-1.21,1.44-1.12.71.09,1.21.74,1.12,1.44-.09.71-.74,1.21-1.44,1.12h0ZM146.3,195.51c-.66-.27-.97-1.02-.7-1.68.27-.66,1.02-.97,1.68-.7.66.27.97,1.02.7,1.68-.27.66-1.02.97-1.68.7h0ZM135.01,189.58c-.57-.43-.68-1.24-.25-1.81.43-.57,1.24-.68,1.81-.25.57.43.68,1.24.25,1.81-.43.57-1.24.68-1.81.25h0ZM125.65,180.94c-.44-.56-.33-1.37.23-1.81.56-.44,1.37-.33,1.81.23.44.56.33,1.37-.23,1.81-.56.44-1.37.33-1.81-.23h0ZM118.84,170.17c-.28-.66.03-1.41.69-1.69.66-.28,1.41.03,1.69.69.28.66-.03,1.41-.69,1.69-.66.28-1.41-.03-1.69-.69h0ZM115.05,158c-.1-.71.4-1.35,1.1-1.45.71-.1,1.35.4,1.45,1.1.1.71-.4,1.35-1.1,1.45-.71.1-1.35-.4-1.45-1.1h0ZM114.54,145.27c.09-.71.74-1.21,1.44-1.12.71.09,1.21.74,1.12,1.44-.09.71-.74,1.21-1.44,1.12-.71-.09-1.21-.74-1.12-1.44h0ZM117.34,132.83c.27-.66,1.02-.97,1.68-.7.66.27.97,1.02.7,1.68-.27.66-1.02.97-1.68.7-.66-.27-.97-1.02-.7-1.68h0ZM123.26,121.55c.43-.57,1.24-.68,1.81-.25.57.43.68,1.24.25,1.81-.43.57-1.24.68-1.81.25-.57-.43-.68-1.24-.25-1.81h0ZM131.9,112.18c.56-.44,1.37-.33,1.81.23.44.56.33,1.37-.23,1.81-.56.44-1.37.33-1.81-.23-.44-.56-.33-1.37.23-1.81h0ZM142.68,105.37c.66-.28,1.41.03,1.69.69.28.66-.03,1.41-.69,1.69-.66.28-1.41-.03-1.69-.69-.28-.66.03-1.41.69-1.69h0ZM154.84,101.58c.71-.1,1.35.4,1.45,1.1.1.71-.4,1.35-1.1,1.45-.71.1-1.35-.4-1.45-1.1-.1-.71.4-1.35,1.1-1.45Z"/><path class="cls-28" d="M123.07,144.47l38.7-22.61c.76-.44,2.09-.39,2.96.12l38.3,22.38c.87.51.96,1.29.2,1.73l-38.7,22.61c-.76.44-2.09.39-2.96-.12l-38.3-22.38c-.87-.51-.96-1.29-.2-1.73Z"/><path class="cls-43" d="M123.5,146.33l38.27-22.36c.76-.44,2.09-.39,2.96.12l38.07,22.24-38.27,22.36c-.76.44-2.09.39-2.96-.12l-38.07-22.24Z"/><path class="cls-28" d="M162.35,136.48c12.61,0,22.85,5.19,23.04,11.62h0v7.88h0c0-6.52-10.32-11.8-23.04-11.8s-23.04,5.28-23.04,11.8v-7.88h0c.19-6.43,10.43-11.62,23.04-11.62h0ZM139.3,155.98"/><path class="cls-52" d="M162.35,167.78c12.69,0,23.04-5.3,23.04-11.8s-10.35-11.8-23.04-11.8-23.04,5.3-23.04,11.8,10.35,11.8,23.04,11.8Z"/><path class="cls-43" d="M162.35,167.06c12.13,0,22.03-4.98,22.03-11.08s-9.9-11.08-22.03-11.08-22.03,4.98-22.03,11.08,9.9,11.08,22.03,11.08Z"/><path class="cls-17" d="M182.89,151.97c-3.19,4.14-11.19,7.07-20.55,7.07s-17.35-2.93-20.55-7.07c3.19-4.14,11.19-7.07,20.55-7.07s17.35,2.93,20.55,7.07Z"/><path class="cls-41" d="M173.7,138.01v7.7c-3.34-.97-7.19-1.53-11.3-1.53v-7.7c4.11,0,7.97.56,11.3,1.53Z"/><path class="cls-30" d="M193.99,139.39c0-.34.28-.62.62-.62s.62.28.62.62v25.34c.32.03.57.29.57.62s-.23.57-.54.62c.3.04.54.3.54.62s-.25.59-.57.62v.07c.32.03.57.29.57.62,0,.19-.09.36-.22.47.68.88,1.28,2.45,1.44,3.65.21,1.53-.36,1.93-1.18,2,.49-.18.8-.67.75-1.79-.04-1.07-.4-2.48-.9-3.44.44.94.72,2.3.72,3.37,0,1.81-.81,2.09-1.82,2.09s-1.82-.28-1.82-2.09c0-1.07.28-2.43.72-3.37-.5.96-.85,2.36-.9,3.44-.05,1.13.26,1.61.75,1.79-.82-.07-1.39-.47-1.18-2,.17-1.2.77-2.78,1.45-3.66-.13-.11-.21-.28-.21-.46,0-.32.24-.58.55-.62v-.08c-.31-.03-.55-.3-.55-.62s.23-.57.54-.62c-.3-.04-.54-.3-.54-.62s.24-.58.55-.62v-25.34Z"/><path class="cls-32" d="M194.39,139.35c0-.26.15-.47.37-.57.27.07.46.31.46.6v25.34c.32.03.57.29.57.62s-.23.57-.54.62c.3.04.54.3.54.62s-.25.59-.57.62v.07c.32.03.57.29.57.62,0,.19-.09.36-.22.47.42.54.8,1.34,1.08,2.15.11.55.17,1.12.17,1.62,0,1.05-.27,1.58-.7,1.84-.09.02-.19.03-.28.04.49-.18.8-.67.75-1.79-.04-1.07-.4-2.48-.9-3.44.44.94.72,2.3.72,3.37,0,1.49-.55,1.94-1.31,2.06-.03,0-.07,0-.1,0-1,0-1.82-.28-1.82-2.09,0-1.07.28-2.43.72-3.37-.5.96-.85,2.36-.9,3.44-.05,1.13.26,1.61.75,1.79-.15-.01-.29-.04-.42-.08-.35-.29-.56-.82-.56-1.75,0-.55.07-1.17.21-1.77.27-.78.65-1.55,1.05-2.06-.13-.11-.21-.28-.21-.46,0-.32.24-.58.55-.62v-.08c-.31-.03-.55-.3-.55-.62s.23-.57.54-.62c-.3-.04-.54-.3-.54-.62s.24-.58.55-.62v-25.34h0ZM196.56,173.8c.4-.25.6-.77.46-1.79-.02-.14-.05-.29-.08-.44.03.22.05.43.06.63.04.86-.14,1.35-.44,1.61h0ZM192.87,173.62c-.18-.29-.28-.73-.25-1.39.01-.25.04-.53.08-.81-.04.2-.08.39-.1.57-.12.85,0,1.35.27,1.64Z"/><path class="cls-22" d="M163.15,116.88c-.59-.79-1.06-1.88-1.29-3.08-1.04-5.57,3.62-5.57,2.58,0-.22,1.2-.7,2.29-1.29,3.08Z"/><path class="cls-22" d="M159.87,118.32c-.97-.14-2.08-.58-3.09-1.27-4.67-3.2-1.38-6.49,1.82-1.82.69,1.01,1.13,2.12,1.27,3.09Z"/><path class="cls-22" d="M166.49,118.18c.14-.97.58-2.08,1.27-3.09,3.2-4.67,6.49-1.38,1.82,1.82-1.01.69-2.12,1.13-3.09,1.27Z"/><path class="cls-6" d="M51.15,201.5c21.31,0,38.7-17.38,38.7-38.7s-17.38-38.7-38.7-38.7-38.7,17.38-38.7,38.7,17.38,38.7,38.7,38.7Z"/><path class="cls-10" d="M51.15,196.75c18.7,0,33.95-15.25,33.95-33.95s-15.25-33.95-33.95-33.95-33.95,15.25-33.95,33.95,15.25,33.95,33.95,33.95Z"/><path class="cls-15" d="M84.8,137.65c-.42.3-.33.94.16,1.1.18.06.38.03.54-.08,1.01-.7,2.04-1.37,3.1-2.01.58-.36.24-1.27-.45-1.14-.07.01-.14.04-.19.08-1.07.65-2.12,1.33-3.16,2.05h0ZM116.17,129.78c.24.01.47-.11.58-.33.21-.4-.06-.89-.51-.91-.65-.04-1.3-.07-1.95-.08-.21,0-.4.09-.52.26-.29.41,0,.97.49.98.64.01,1.27.04,1.91.08h0ZM111.81,129.7c.68-.02.84-.98.18-1.21-.07-.02-.14-.03-.21-.03-1.25.03-2.52.11-3.77.24-.66.08-.76.98-.14,1.2.1.03.17.04.27.03,1.22-.13,2.45-.21,3.67-.23h0ZM105.71,130.25c.15-.03.27-.09.37-.21.38-.45,0-1.11-.57-1.02-1.24.2-2.48.44-3.7.74-.63.15-.64,1.07.03,1.21.09.02.18.02.27,0,1.19-.29,2.39-.53,3.6-.72h0ZM99.74,131.62c.62-.19.57-1.1-.09-1.21-.1-.01-.18,0-.27.02-1.2.37-2.39.78-3.57,1.24-.65.26-.44,1.24.28,1.2.06,0,.12-.02.18-.04,1.13-.45,2.3-.86,3.47-1.21h0ZM94.02,133.79c.59-.27.43-1.16-.25-1.19-.09,0-.18.02-.26.06-1.13.52-2.29,1.08-3.37,1.69-.11.06-.19.14-.25.26-.27.55.31,1.12.85.83,1.07-.59,2.18-1.14,3.29-1.65Z"/><path class="cls-15" d="M242.27,137.65c.42.3.33.94-.16,1.1-.18.06-.38.03-.54-.08-1.01-.7-2.04-1.37-3.1-2.01-.58-.36-.24-1.27.45-1.14.07.01.14.04.19.08,1.07.65,2.12,1.33,3.16,2.05h0ZM210.89,129.78c-.24.01-.47-.11-.58-.33-.21-.4.06-.89.51-.91.65-.04,1.3-.07,1.95-.08.21,0,.4.09.52.26.29.41,0,.97-.49.98-.64.01-1.27.04-1.91.08h0ZM215.26,129.7c-.68-.02-.84-.98-.18-1.21.07-.02.14-.03.21-.03,1.25.03,2.52.11,3.77.24.66.08.76.98.14,1.2-.1.03-.17.04-.27.03-1.22-.13-2.45-.21-3.67-.23h0ZM221.35,130.25c-.15-.03-.27-.09-.37-.21-.38-.45,0-1.11.57-1.02,1.24.2,2.48.44,3.7.74.63.15.63,1.07-.03,1.21-.09.02-.18.02-.27,0-1.19-.29-2.39-.53-3.6-.72h0ZM227.32,131.62c-.62-.19-.57-1.1.09-1.21.1-.01.18,0,.27.02,1.2.37,2.39.78,3.57,1.24.65.26.44,1.24-.28,1.2-.06,0-.12-.02-.18-.04-1.13-.45-2.3-.86-3.47-1.21h0ZM233.05,133.79c-.59-.27-.43-1.16.25-1.19.09,0,.18.02.26.06,1.13.52,2.29,1.08,3.37,1.69.11.06.19.14.25.26.27.55-.31,1.12-.85.83-1.07-.59-2.18-1.14-3.29-1.65Z"/><path class="cls-39" d="M71.78,183.79c-.28,5.55-13.23,8.51-19.39,9.02-5.83.48-19.02-3.01-19.21-8.32-.18-5.29,14.35-6.93,19.36-6.99,4.76-.06,19.49,1.29,19.23,6.29Z"/><path class="cls-47" d="M50.05,190.14c5.8-.02,17.35-2.1,17.77-6.44.44-4.53-12.15-6.53-17.74-6.5-5.45.03-18.34,2.16-17.77,6.67.56,4.45,11.8,6.28,17.74,6.26Z"/><path class="cls-24" d="M49.97,189.17c5.64-.02,16.33-2.16,16.69-5.86.36-3.75-11.52-5.85-16.68-5.81-4.96.04-17.11,2.21-16.7,5.96.43,3.86,11.19,5.72,16.68,5.7Z"/><path class="cls-21" d="M49.08,177.81c-.62-.01-1.25,0-1.87.02,3.81.11,14.74,1.57,14.1,5.48-.62,3.83-9.7,5.14-13.73,5.56.53,0,1.07,0,1.61,0,3.96-.02,15.12-1.24,15.72-5.56.68-4.89-11.66-5.41-15.83-5.5Z"/><path class="cls-47" d="M50.07,185.55c4.69-.02,9.14-1.79,8.91-2.84-.48-2.21-5.84-2.76-8.89-2.75-3.05.01-8.41.62-8.91,2.83-.24,1.06,4.2,2.79,8.89,2.76Z"/><path class="cls-16" d="M50.13,184.96c-4.89.02-8.72-1.08-8.82-2.17-.11-1.09,3.68-2.22,8.84-2.24s8.94,1.07,8.82,2.16c-.11,1.09-3.94,2.23-8.84,2.25Z"/><path class="cls-47" d="M47.68,168.21c.97.04,1.45.06,2.41.05.97,0,1.45-.01,2.41-.06.38-.02.72.09.98.32.27.23.39.52.33.83-.64,3.68-2.01,8.6-.56,11.88.27.61,1.07.88,1.17,1.24.06.23-.11.95-.71,1.24-1.99.97-5.33.99-7.31.03-.59-.29-.76-1-.7-1.23.09-.36.9-.64,1.17-1.26,1.46-3.29.11-8.2-.52-11.89-.05-.31.07-.6.34-.84.27-.23.61-.34.99-.32Z"/><path class="cls-51" d="M50.07,183.86c-1.25,0-2.42-.21-3.24-.6-.21-.1-.33-.45-.33-.6.04-.05.16-.14.25-.21.27-.22.69-.53.89-.96,1.55-3.41.17-8.41-.55-12.2-.03-.13.02-.25.13-.35.11-.1.25-.14.41-.14,1.97.08,2.95.08,4.92,0,.17,0,.3.04.41.14.11.1.16.21.13.35-.73,3.78-2.12,8.8-.59,12.19.19.43.61.73.88.95.09.07.21.16.25.21,0,.15-.12.5-.33.6-.82.4-1.99.63-3.24.63Z"/><path class="cls-16" d="M49.08,182.99c-.62-.88-.17-2.04.06-2.95.54-2.2.14-4.3,0-6.5-.1-1.57.15-3.13.22-4.69-.69,0-1.03-.02-1.72-.05-.17,0-.3.04-.41.14-.11.1-.16.21-.13.35.72,3.78,2.1,8.79.55,12.2-.19.43-.62.74-.89.96-.09.07-.21.17-.25.21,0,.15.12.5.33.6.82.39,1.99.61,3.24.6.11,0,.22,0,.33,0-.55-.16-1.02-.43-1.32-.85Z"/><path class="cls-47" d="M50,171.84c2.78,0,5.06-1.18,5.06-2.58,0-1.4-2.27-2.53-5.06-2.53-2.79,0-5.07,1.14-5.06,2.54,0,1.41,2.28,2.57,5.06,2.57Z"/><path class="cls-51" d="M50,171.13c-2.45,0-4.35-1-4.35-1.85,0-.85,1.9-1.83,4.35-1.83,2.45,0,4.35.97,4.35,1.82,0,.85-1.91,1.86-4.35,1.86Z"/><path class="cls-16" d="M48.26,167.62c-1.55.32-2.61,1.02-2.61,1.66,0,.78,1.61,1.69,3.77,1.83-.8-.94-1.21-2.24-1.16-3.49Z"/><path class="cls-47" d="M34.95,139.05c9.89-.6,19.56-.57,29.44.09-3.19,5.48-1,13.61,1.95,18.64,2.68,8.43-10.89,11.47-16.66,11.9h0c-6.07-.29-18.83-3.46-16.66-11.92,2.96-5.05,5.12-13.21,1.92-18.7Z"/><path class="cls-4" d="M56.03,140.01c1.76.06,2.64.11,4.4.21-2.21,5.83.46,13.44,2.6,18.88.93,5.16-4.4,8.28-7.75,9.76-1.4.39-2.79.65-4.18.75,2.75-2.06,6.89-4.63,6.62-9.3-1.31-6.32-3.12-13.84-1.69-20.3Z"/><path class="cls-25" d="M49.68,143.69c8.26.01,14.89-1.88,14.71-4.67-.18-2.78-6.82-5.7-14.73-5.73-7.91-.02-14.54,2.86-14.71,5.66-.17,2.79,6.47,4.72,14.73,4.74Z"/><path class="cls-31" d="M49.68,142.91c7.55.01,13.63-1.59,13.49-3.97-.14-2.38-6.22-4.84-13.5-4.86-7.28-.02-13.35,2.42-13.48,4.8-.13,2.38,5.95,4.02,13.5,4.03Z"/><path class="cls-47" d="M61.82,147.22c1.13.05,2.09.21,2.87.6,5.87,2.92,3.04,8.8-.86,11.36-.33.81-.27,1.87-.05,2.57.14.46.48.84.91,1.13,8.3-4.29,11.51-18.78-1.25-19.47-.77-.05-1.15-.07-1.92-.12-.45-.03-.79.39-.76.91.04.81.05,1.22.09,2.04.02.52.46.96.99.98Z"/><path class="cls-29" d="M61.82,147.22c1.13.05,2.09.21,2.87.6,5.87,2.92,3.04,8.8-.86,11.36-.31.77-.27,1.76-.08,2.47,7.2-4.73,8.58-16.5-2.18-17.27-.33-.01-.49-.02-.82-.03.03.76.05,1.14.08,1.9.02.52.46.96.99.98Z"/><path class="cls-25" d="M63.88,162.01c.07.13.15.26.25.38,8.22-3.76,11.25-16.9-.36-18.09-.37-.02-.56-.03-.94-.05,11.08,1.1,8.59,13.59,1.04,17.77Z"/><path class="cls-47" d="M36.41,147.23c-1.13.05-2.09.21-2.87.6-5.87,2.92-3.05,8.8.86,11.35.33.81.27,1.87.05,2.57-.14.46-.48.84-.91,1.13-8.3-4.3-11.5-18.77,1.26-19.47.77-.05,1.15-.07,1.92-.12.45-.03.79.38.76.91-.04.81-.05,1.22-.09,2.04-.02.52-.46.96-.99.98Z"/><path class="cls-29" d="M36.41,147.23c-1.13.05-2.09.21-2.87.6-5.87,2.92-3.05,8.8.86,11.35.31.77.27,1.76.08,2.46-6.51-4.57-9.34-16.85,2.18-17.26.33-.01.49-.02.82-.03-.03.76-.05,1.14-.08,1.9-.02.52-.46.96-.99.98Z"/><path class="cls-25" d="M34.35,162.01c-.07.13-.15.26-.25.38-7.42-3.71-12.12-17.27.36-18.09.37-.02.56-.03.94-.05-11.87.73-7.86,13.69-1.05,17.76Z"/></g></g></svg>