<?xml version="1.0" encoding="UTF-8"?><svg id="Layer_1" xmlns="http://www.w3.org/2000/svg" viewBox="0 0 323.6 424"><defs><style>.cls-1{fill:#3d6aa5;}.cls-2{fill:#dbd63c;}.cls-3{fill:#fff;}.cls-4{fill:#fff980;}.cls-5{fill:#6eb36f;}.cls-6{fill:#e1b500;}.cls-7{fill:#009458;}.cls-8{fill:#cc5a83;}.cls-9{fill:#455d7f;}.cls-10{fill:#db7232;}</style></defs><rect class="cls-4" x="-4.16" y="-6" width="331.56" height="433.33"/><rect class="cls-7" x="-4.16" y="11.67" width="331.56" height="64"/><path class="cls-2" d="M151.58,32.12h7.16v3.56h-11.43v-18h4.27v14.44Z"/><path class="cls-2" d="M173.76,21.11h-8.57v3.69h6.74v3.39h-6.74v3.93h8.57v3.56h-12.85v-18h12.85v3.43Z"/><path class="cls-2" d="M189.67,17.68l-5.44,18h-4.53l-5.41-18h4.49l3.6,12.87,3.75-12.87h3.54Z"/><path class="cls-2" d="M204.14,21.11h-8.57v3.69h6.74v3.39h-6.74v3.93h8.57v3.56h-12.85v-18h12.85v3.43Z"/><path class="cls-2" d="M210.95,32.12h7.16v3.56h-11.43v-18h4.27v14.44Z"/><path class="cls-2" d="M137.99,50.08h5.49c2.24,0,3.91.31,5,.93,1.1.62,2.08,1.6,2.95,2.94s1.3,3.03,1.3,5.08c0,2.58-.76,4.73-2.28,6.45-1.52,1.73-3.61,2.59-6.28,2.59h-6.19v-18ZM142.13,53.39v11.3h1.74c1.54,0,2.68-.57,3.42-1.72.75-1.15,1.12-2.49,1.12-4.04,0-1.09-.21-2.1-.64-3.03-.43-.93-.95-1.58-1.59-1.95-.63-.37-1.39-.56-2.28-.56h-1.78Z"/><path class="cls-2" d="M168.36,53.51h-8.57v3.69h6.74v3.39h-6.74v3.93h8.57v3.56h-12.85v-18h12.85v3.43Z"/><path class="cls-2" d="M182.29,50.08v3.56h-4.46v14.44h-4.27v-14.44h-4.48v-3.56h13.21Z"/><path class="cls-2" d="M191.67,50.08l5.63,18h-4.53l-1.11-3.7h-5.82l-1.13,3.7h-3.7l5.77-18h4.88ZM186.86,61.05h3.81l-1.89-6.31-1.92,6.31Z"/><path class="cls-2" d="M203.45,50.08v18h-4.21v-18h4.21Z"/><path class="cls-2" d="M211.34,64.52h7.16v3.56h-11.43v-18h4.27v14.44Z"/><path class="cls-2" d="M233.09,54.04l-3.59,1.2c-.48-1.42-1.5-2.14-3.06-2.14-1.67,0-2.5.54-2.5,1.62,0,.43.16.8.47,1.09s1.02.56,2.11.78c1.83.37,3.18.74,4.03,1.12.85.38,1.57.99,2.15,1.83.58.84.88,1.78.88,2.81,0,1.63-.63,3.03-1.88,4.22-1.25,1.19-3.11,1.78-5.56,1.78-1.84,0-3.41-.42-4.71-1.26-1.29-.84-2.15-2.08-2.56-3.74l3.9-.88c.44,1.68,1.66,2.52,3.66,2.52.96,0,1.68-.19,2.16-.56.47-.37.71-.82.71-1.34s-.21-.94-.65-1.23c-.43-.29-1.26-.56-2.49-.82-2.29-.48-3.92-1.12-4.9-1.95-.97-.82-1.46-2.02-1.46-3.6s.58-2.95,1.75-4.05c1.16-1.1,2.74-1.65,4.73-1.65,3.53,0,5.8,1.41,6.81,4.23Z"/><path class="cls-2" d="M12.29,58.64v-3.01h.67v3.01h-.67ZM12.8,56.2v-.57h1.57v.57h-1.57ZM12.8,57.45v-.57h1.5v.57h-1.5Z"/><path class="cls-2" d="M16.2,58.69c-.23,0-.44-.04-.63-.12s-.36-.19-.5-.33c-.15-.14-.26-.31-.34-.5-.08-.19-.12-.39-.12-.61s.04-.43.12-.61.19-.35.33-.49c.14-.14.31-.25.5-.33.19-.08.4-.12.63-.12s.43.04.62.12c.19.08.36.19.5.33s.26.3.33.49c.08.19.12.39.12.62s-.04.42-.12.61-.19.35-.33.49-.31.25-.5.33c-.19.08-.4.12-.62.12h0ZM16.19,58.08c.18,0,.34-.04.47-.12.13-.08.24-.19.31-.33s.11-.31.11-.5c0-.14-.02-.27-.06-.39-.04-.11-.1-.21-.18-.3-.08-.08-.17-.15-.28-.19-.11-.04-.23-.07-.36-.07-.18,0-.34.04-.47.12-.13.08-.24.19-.31.33s-.11.31-.11.5c0,.14.02.27.06.39s.1.22.18.3.17.15.28.19.23.07.37.07h0Z"/><path class="cls-2" d="M18.2,58.64v-3.01h.67v3.01h-.67ZM18.71,57.4v-.49h.63c.13,0,.24-.03.31-.1.07-.07.11-.16.11-.28,0-.11-.04-.2-.11-.27s-.17-.11-.31-.11h-.64v-.52h.72c.2,0,.37.04.52.11s.27.18.35.31c.09.13.13.29.13.46s-.04.33-.13.46-.2.24-.36.31c-.15.07-.33.11-.54.11h-.7ZM19.84,58.64l-.94-1.29.61-.17,1.12,1.46s-.79,0-.79,0Z"/><path class="cls-2" d="M23.06,58.64l1.19-3.01h.61l1.18,3.01h-.71l-.9-2.5h.24l-.92,2.5h-.7ZM23.74,58.09v-.55h1.64v.55h-1.64Z"/><path class="cls-2" d="M28.7,58.64v-3.01h.66v3.01h-.66ZM29.21,58.64v-.52h.71c.13,0,.23-.04.31-.11s.11-.17.11-.28c0-.08-.02-.15-.05-.2s-.08-.11-.14-.14-.14-.05-.22-.05h-.71v-.51h.65c.11,0,.2-.03.27-.08s.1-.14.1-.25-.03-.19-.1-.25-.16-.08-.27-.08h-.65v-.52h.78c.19,0,.36.04.49.11s.24.17.31.28.11.25.11.4c0,.18-.06.34-.18.47-.12.13-.3.22-.53.26l.02-.23c.25.05.45.15.59.29s.21.33.21.55c0,.16-.04.31-.12.45s-.2.24-.35.31c-.15.08-.33.11-.55.11h-.77,0Z"/><path class="cls-2" d="M31.43,58.64v-3.01h.67v3.01h-.67ZM31.95,57.4v-.49h.63c.13,0,.24-.03.31-.1s.11-.16.11-.28c0-.11-.04-.2-.11-.27s-.17-.11-.31-.11h-.64v-.52h.72c.2,0,.37.04.52.11.15.08.27.18.35.31.09.13.13.29.13.46s-.04.33-.13.46-.2.24-.36.31c-.15.07-.33.11-.54.11h-.69,0ZM33.07,58.64l-.94-1.29.61-.17,1.12,1.46h-.79Z"/><path class="cls-2" d="M34.15,58.64v-3.01h.67v3.01h-.67Z"/><path class="cls-2" d="M36.82,58.68c-.22,0-.42-.04-.62-.12s-.36-.19-.5-.33-.25-.3-.33-.49-.12-.39-.12-.61.04-.42.12-.61.2-.35.34-.49.32-.25.51-.33.41-.12.63-.12c.26,0,.49.05.71.14s.39.22.53.39l-.46.46c-.1-.13-.21-.22-.34-.28s-.28-.09-.44-.09c-.18,0-.33.04-.47.12-.14.08-.25.19-.33.33s-.12.3-.12.49.04.35.11.49.18.25.32.33.29.12.46.12.33-.03.45-.1c.12-.07.22-.16.29-.29s.1-.28.1-.46l.44.3-1.34-.02v-.57h1.58v.1c0,.36-.07.66-.19.91s-.31.43-.54.56c-.23.13-.49.19-.79.19h0Z"/><path class="cls-2" d="M38.74,58.64v-3.01h.67v3.01h-.67ZM39.15,57.38v-.58h1.68v.58h-1.68ZM40.61,58.64v-3.01h.67v3.01h-.67Z"/><path class="cls-2" d="M41.65,56.21v-.58h2.55v.58h-2.55ZM42.59,58.64v-2.97h.67v2.97h-.67Z"/><path class="cls-2" d="M46.94,58.64v-3.01h.67v3.01h-.67ZM47.45,56.2v-.57h1.57v.57h-1.57ZM47.45,57.45v-.57h1.5v.57h-1.5Z"/><path class="cls-2" d="M50.66,58.68c-.25,0-.47-.05-.65-.16s-.34-.25-.44-.44-.16-.4-.16-.64v-1.82h.67v1.86c0,.12.03.22.08.31s.12.16.21.2.19.07.3.07c.11,0,.21-.02.3-.07s.15-.11.2-.2.07-.19.07-.31v-1.87h.67v1.83c0,.24-.05.45-.16.63s-.25.33-.44.44c-.19.11-.4.16-.65.16h0Z"/><path class="cls-2" d="M52.22,56.21v-.58h2.55v.58h-2.55ZM53.16,58.64v-2.97h.67v2.97h-.67Z"/><path class="cls-2" d="M56.34,58.68c-.25,0-.47-.05-.65-.16-.19-.11-.34-.25-.44-.44s-.16-.4-.16-.64v-1.82h.67v1.86c0,.12.03.22.08.31s.12.16.21.2.19.07.3.07c.11,0,.21-.02.3-.07s.15-.11.2-.2.07-.19.07-.31v-1.87h.67v1.83c0,.24-.05.45-.16.63s-.25.33-.44.44c-.19.11-.4.16-.65.16h0Z"/><path class="cls-2" d="M58.12,58.64v-3.01h.67v3.01h-.67ZM58.64,57.4v-.49h.63c.13,0,.24-.03.31-.1s.11-.16.11-.28c0-.11-.04-.2-.11-.27-.07-.07-.17-.11-.31-.11h-.64v-.52h.72c.2,0,.37.04.52.11.15.08.27.18.35.31.09.13.13.29.13.46s-.04.33-.13.46-.2.24-.36.31c-.15.07-.33.11-.54.11h-.69,0ZM59.76,58.64l-.94-1.29.61-.17,1.12,1.46h-.79Z"/><path class="cls-2" d="M60.84,58.64v-3.01h.67v3.01h-.67ZM61.35,56.2v-.57h1.63v.57h-1.63ZM61.35,57.38v-.56h1.5v.56h-1.5ZM61.35,58.64v-.58h1.65v.58h-1.65Z"/><path class="cls-2" d="M12,28.64h2.56v25.66h-2.56v-25.66Z"/><path class="cls-2" d="M19.95,28.64h5.11c2.93,0,4.91.13,5.93.38,1.47.36,2.66,1.1,3.59,2.22.93,1.12,1.39,2.53,1.39,4.23s-.45,3.12-1.36,4.23c-.91,1.11-2.16,1.86-3.75,2.24-1.16.28-3.34.42-6.52.42h-1.83v11.93h-2.56v-25.66h0ZM22.52,31.16v8.7l4.34.05c1.76,0,3.04-.16,3.85-.48.81-.32,1.45-.84,1.92-1.55.46-.71.7-1.51.7-2.39s-.23-1.64-.7-2.36c-.47-.71-1.08-1.22-1.84-1.52-.76-.3-2.01-.45-3.74-.45h-4.53Z"/><path class="cls-2" d="M51.13,28.64l11.97,25.66h-2.77l-4.03-8.44h-11.05l-4,8.44h-2.86l12.12-25.66h.63ZM50.8,34.1l-4.4,9.29h8.77l-4.38-9.29h0Z"/><circle class="cls-2" cx="26.23" cy="48.73" r="2.27"/><circle class="cls-2" cx="17.16" cy="48.73" r="2.27"/><circle class="cls-2" cx="7.01" cy="48.73" r="2.27"/><circle class="cls-2" cx="39.83" cy="44.58" r="2.27"/><circle class="cls-2" cx="51.79" cy="44.58" r="2.27"/><circle class="cls-2" cx="30.4" cy="44.58" r="2.27"/><circle class="cls-2" cx="41.28" cy="35.68" r="2.27"/><circle class="cls-2" cx="27.68" cy="35.68" r="2.27"/><circle class="cls-2" cx="16.89" cy="35.68" r="2.27"/><polygon class="cls-8" points="163.07 155.28 163.07 119.81 192.02 102.08 220.97 119.81 220.97 155.28 192.02 173.02 163.07 155.28"/><polygon class="cls-10" points="131.04 213.16 131.04 177.69 159.99 159.96 188.94 177.69 188.94 213.16 159.99 230.9 131.04 213.16"/><polygon class="cls-6" points="164.34 270.18 164.34 234.71 193.29 216.98 222.24 234.71 222.24 270.18 193.29 287.92 164.34 270.18"/><polygon class="cls-5" points="132.65 328.77 132.65 293.3 161.6 275.57 190.55 293.3 190.55 328.77 161.6 346.5 132.65 328.77"/><polygon class="cls-1" points="101.01 386.62 101.01 351.15 129.96 333.42 158.9 351.15 158.9 386.62 129.96 404.36 101.01 386.62"/><path class="cls-9" d="M214.24,210.95s.1.09.13.02l-.1-.13-.03.11Z"/><path class="cls-9" d="M214.74,210.74c-.01-.11-.06-.26-.21-.3.07.15.01.13.1.31-.03.07-.11.07-.15.03.02.04-.09.07-.03.15.15,0,.22-.09.21-.25.04,0,.06.04.08.06Z"/><path class="cls-9" d="M218.79,205.33l-.04.03s.03-.01.04-.03Z"/><path class="cls-9" d="M221.1,201.83s0,.05,0,.06c0-.03.01-.06,0-.06Z"/><path class="cls-9" d="M221.61,201.3s-.02.02-.03.03c.02,0,.04-.02.03-.03Z"/><path class="cls-9" d="M218.79,205.33l.1-.07s-.06.03-.1.07Z"/><path class="cls-9" d="M214.98,209.77s0,.05,0,.07c0-.02.01-.04.02-.06l-.02-.02Z"/><path class="cls-9" d="M217.87,206.93l-.02.03s.02.04.04.06l-.02-.09Z"/><path class="cls-9" d="M217.08,208.11s-.08-.11-.12-.15c.03.05.04.08.03.11.02.01.05.03.08.04Z"/><path class="cls-9" d="M215.6,209.82v.04s0-.03,0-.04Z"/><path class="cls-9" d="M218.46,206.11s.03.01.05.02c-.01,0-.03-.01-.05-.02Z"/><path class="cls-9" d="M226.88,169.01s.01,0,.02,0c-.02,0-.02,0-.02,0Z"/><polygon class="cls-9" points="226.64 167.33 226.66 167.35 226.72 167.31 226.64 167.33"/><path class="cls-9" d="M222.42,200.24s0,0,0,0c0,.04,0,.02,0,0Z"/><path class="cls-9" d="M227.25,189.15c-.15.1-.07-.26-.26-.1.05,0,.14.24.26.1Z"/><path class="cls-9" d="M215.02,209.75s.02-.03.03-.05c-.02.02-.03.03-.03.05Z"/><path class="cls-9" d="M226.99,189.05h0s-.02.02-.02.02c0,0,.01-.01.02-.02Z"/><path class="cls-9" d="M223.8,197.53s-.04,0-.07,0c.01,0,.03,0,.07,0Z"/><path class="cls-9" d="M222.57,199.44l.04-.04s-.03.03-.04.04Z"/><path class="cls-9" d="M224.15,196.4s.04-.02.05-.07c0,0-.01,0-.02,0,0,.02,0,.04-.03.06Z"/><path class="cls-9" d="M224.68,195.3s-.02,0-.03,0v.04s.03-.05.03-.05Z"/><path class="cls-9" d="M227.8,172.39s.07-.05.11-.07c-.09.03-.14-.14-.11.07Z"/><path class="cls-9" d="M215.04,209.81s-.03-.04-.02-.06l-.02.04s.03.03.04.03Z"/><path class="cls-9" d="M223.24,195.9l.1-.16s-.07.1-.1.16Z"/><path class="cls-9" d="M227.86,180.95v-.04s-.01.03,0,.04Z"/><path class="cls-9" d="M223.57,195.22c.06-.01.1-.03.13-.06,0-.01,0-.02-.02-.03l-.11.09Z"/><path class="cls-9" d="M227.91,172.32h0s0,0,0,0Z"/><path class="cls-9" d="M227.4,171.16c.03.17.18.05.29.07.09.2-.11.12-.18.21.07.12.24.19.25.29-.03.01-.03.03-.07.02.16.12.07.41.26.55-.01.01-.03.02-.04.03.08-.04.17-.05.23-.06.01.08.13.14.02.18,0-.05-.05-.05-.09-.07l.06.08c-.15.1-.07-.11-.19-.09.07.16.23.33.2.47-.15.04-.08-.29-.2-.11l.04-.2c-.23.18,0-.12-.25.05-.01.26.11.27.09.53.09.05.13-.03.22.02.19.35-.37.32-.14.57.11.06.31.08.22.27l-.18-.05c0,.25.26.13.16.4-.07-.04-.07-.19-.09-.15-.13.18.11.11.11.25l-.16.03c.04.26.16.56.2.85-.05-.02-.1-.06-.14,0,.09.37,0,.8-.09,1.16l.14.14s-.06.06-.09.03c-.05.14.09,0,.14.07.01.08-.08.11-.12.06.12.25.24.71.09.97l-.04-.05c-.06.2.27.23.14.42l-.02-.04c-.07.44.05.93-.17,1.26.2.08-.12.43.15.47-.16.24-.2.17-.32.51-.02.09.16.15.18.27h-.14s.14.16.14.16l-.18.07.03.11s.07-.09.11-.08c.05.18-.14.41-.21.4l.09.42c-.06-.02-.07-.09-.1-.14.13.23-.15.02-.04.23.04-.02.08.02.11.03-.1.09-.14.31-.12.48l-.09-.04c-.07.29-.05.63-.1.96.06-.11.23-.06.23.04h-.16c.08.09.07-.08.17.07-.04.12-.18.06-.22-.02l.03.16s-.06-.04-.12-.06c.08.08-.19.23-.04.35h-.05c-.05.33-.04.49-.09.76.13.03.08.13.16.23-.08.19-.23.39-.27.63.03.18.1.07.16.17-.12-.01-.16.23-.22.08-.04.29-.05.37-.04.75.06-.03.09-.07.12-.03,0,.07-.09.14-.14.11v-.02c.06.45-.6.83-.44,1.22v-.02s.03.37.03.37c-.06.15-.06-.12-.16-.02.09.41-.18.55-.15.88-.41.12-.24.8-.55,1.03h.08c.05.11-.08.09-.11.14.06.01.1-.06.12,0-.11.7-.61,1.31-.93,1.95-.11.23.34.3.04.53l-.11-.14c0,.57-.43.99-.48,1.53-.02-.04-.06-.06-.04-.11-.15.05-.17.37-.08.41-.04.07-.08-.02-.15,0-.1.07.02.31-.11.32-.02,0-.02-.04-.02-.06.02.09-.15.3,0,.29-.13.15-.1.36-.24.47.09.15-.21.27-.04.39-.18-.1-.3.23-.27.39-.04-.06-.11.07-.16-.01-.06.13-.08.26.03.29-.34.12-.05.56-.4.54-.08.43-.2.8-.33,1.15-.18-.11.18-.38-.03-.46-.09.35-.03.62-.24.91-.07.07-.06-.09-.07-.13-.09.35-.34.6-.39.93-.02-.01-.02-.05-.02-.09-.02.06-.1.11-.01.15v-.07c.18-.02.14.36.19.4-.19-.23-.22.24-.43-.08,0,.04,0,.11.07.13-.05.04-.09.04-.12-.05-.07.22.06.2-.04.38-.04-.02-.03-.07-.07-.11.03.13.05.27-.07.4-.02-.02-.06-.02-.03-.07-.13.26-.04.56-.28.79-.13-.18-.11.06-.27-.01l-.04.18.11-.02c-.08.13-.04.31-.16.39v-.13s-.12.26-.12.26l.14-.1c0,.18.2.1.05.25,0-.04-.08.13-.21.14h0c0,.09.02.19-.08.26-.06,0-.15-.12-.19-.12.09.14-.15.33-.07.49-.01-.05-.09-.1-.11-.1l.07.12c-.07.04-.09.04-.15,0-.13.17.22.06.01.22,0-.02-.02-.02-.01-.07-.17.19-.19.46-.36.62-.18-.04.07-.19-.09-.21-.15.3-.2.7-.41.95l.05-.04c.18.17-.23.14-.23.34,0-.04-.09-.12-.07-.09-.15.17-.2.41-.31.74l-.03-.07c-.12.08-.21.27-.32.37.03.07-.02.13.08.14-.54.16-.31.8-.77.95.03-.04.02-.12,0-.09l-.14.31c.1.04.08,0,.19,0,.03.07.02.18-.03.24.02-.16-.14-.1-.23-.08.03,0,.05.05.08.06-.25.03.16.15-.08.27l-.04-.04c-.03.09,0,.2-.08.27-.12-.04,0-.11-.08-.17-.07.11.04.35-.13.38,0-.07.05-.13.05-.2-.2.02-.17.06-.25.13h0s-.18.14-.18.14l.07-.02c.17.32-.15.31-.1.62-.04-.29-.07-.1-.18-.19-.06.02-.15.07-.17.03.03.15-.17.09-.12.31-.04-.02-.07.09-.15,0-.05.13.08.02.12.06,0,.26-.44.3-.44.68-.08.27.01.39-.07.64-.11.03-.09-.15-.09-.15-.13.07-.18.16-.21.29-.02-.04-.06-.04-.12-.04-.05.09.09.15-.04.22-.03-.05-.08-.12-.09-.19-.04.12-.04.27-.07.39-.08-.02-.05-.13-.07-.2-.05.13-.15.33-.07.44l.09-.05s-.1-.04-.1-.09c-.01-.15.14-.11.18-.09l-.03.09c.27.08.17-.31.29-.45l.11.17-.02-.24c.06,0,.17.04.14.13.15-.05,0-.13.16-.16.02,0,.02,0,.02.02l.03-.13s.12.06.06.11c.22-.12.09-.38.26-.36v.02c.13-.29-.1-.11-.1-.39l.38.08-.1-.11s.07-.07.11-.03c-.01-.15-.06-.02-.1-.13.19-.05.19-.38.4-.28-.06-.11-.15.07-.12-.11.23.1.07-.18.25-.23.08.11-.05.18.12.13-.13-.19.19-.2.23-.32-.14-.1.09-.25.16-.45.04.04.29-.25.44-.37l.02.02c-.12-.13.01-.27.06-.4.08.06.1.11.1.19l.07-.11c-.03-.06-.03-.11,0-.19l.09.1c.09-.15.07-.37.27-.51-.09-.08-.37-.04-.31-.28.06.03.15.08.14.15,0-.02,0-.09.04-.11l.04.14c.1-.06-.05-.09,0-.16.08.05.09-.01.14.04,0,.02-.07.04-.06.08.06-.07.17-.13.25-.12-.05-.02-.1-.07-.08-.13.09-.15.13.01.22-.05-.03-.07.09-.13-.03-.2.03-.04.09-.01.13,0,0-.11.22-.36.04-.36h-.02s0,0,0,0h0s0,0,0,0c.05-.32.4-.47.51-.75l.04.03c.05-.18.18-.34.17-.5.03-.04.14-.06.17,0,.04-.13,0-.17.18-.29,0,.16.09,0-.03.15.13-.12.21-.12.21-.34.06.12.2-.03.21-.12l-.14.06c.04-.09.09-.15.14-.22l.11.12c.35-.2.06-.72.47-.78-.04-.14-.17.12-.23-.01.1-.13.38-.16.41-.2.19-.15-.08-.3.09-.46-.06,0-.2-.06-.16-.23.1-.13.3-.05.29.06-.02.04-.04.04-.06.03-.01.06-.03.13.06.1l-.04-.05c.09-.04.2-.24.25-.14.02-.13-.05-.09-.12-.03.18-.14.17-.28.33-.44-.04.01-.12,0-.1-.02.22-.24-.02-.17.07-.37.13-.06.15.14.2-.08.12-.09.14.05.15.12,0-.22.24-.28.32-.37v.11c0-.07.02-.11.05-.16h-.13s.07-.09.11-.07c-.03-.09-.18-.05-.21-.21.09-.04.07-.24.21-.2-.17.2.14.05.05.25,0-.04.03-.09.08-.13.02,0,.02.02.02.04.24-.15-.09-.18.04-.4.06.07.17.03.17-.02-.05.09-.14-.02-.15-.14.14-.11.05-.18.09-.25l-.07.07c-.05-.07,0-.13.02-.25.06.02,0,.11.03.09-.07-.18.27-.18.26-.38.09-.04.14.07.21.02,0-.22.2-.13.22-.36-.13,0-.11.02-.13-.16l-.09.34-.04-.27c-.05.09-.04.22-.09.27-.03-.13-.01-.11-.12-.11.21-.04.05-.29.22-.38l.24.13c.22-.16.08-.45.29-.7l-.09.07c-.08-.09.08-.18.09-.29.08.05.14,0,.21,0-.06-.03.11-.2-.04-.31l.17-.07c.16-.21-.11-.38.03-.59.06.11.16.04.16.22.04-.07.08-.13.03-.16.07-.02-.01-.26.1-.29-.02-.05-.1-.1-.06-.18.02,0,.04.02.04.02-.04-.02,0-.16-.12-.13.37-.1.29-.64.61-.73.05-.18.1-.39.16-.54.02.02.04.02.02.04.17-.17-.19-.23,0-.43.19-.06.02.16.1.11.29.09.09-.3.32-.38v.05c.15-.08.02-.34.13-.53,0,0,.02.02.04.02-.08-.2-.01-.47.02-.67.09.1.02.11.15.12.02-.09-.19-.05-.15-.23.08-.03.18-.13.31-.1l-.06.17c.19-.02.08-.21.14-.29l.06.04c.07-.26-.09-.33.02-.59h-.06c-.11-.2.14-.08.07-.27l.19.02c0-.11-.04-.4,0-.58.09.14.08.37.1.53.04-.1.11-.33.05-.41,0,.04.03.11-.02.14-.09-.17-.1-.35-.02-.53.33.16.26-.47.56-.52-.01-.39.28-.67.39-1.07-.31.06.03-.12-.25-.18.01-.1.03-.13.05-.14l.26-.23c.1-.04.03.11.09.12.09-.2.15-.05.26-.17-.11,0-.12-.11-.05-.22l-.17.13c-.07-.33.3-.18.24-.52l.06.12c0-.17.16-.56-.02-.77.04-.02.12-.03.13.04.13-.35-.01-.86.19-1.11l.06.04c0-.07-.1-.15-.02-.22.03.01.06.04.07.01-.02-.04-.08-.21-.02-.29l.06.09c.17-.34-.07-.59-.05-.9.2.04.33-.22.39-.36h.03c.12-.4-.01-.73-.04-1.13.26-.2.22-.8.4-1.17-.05.05-.16-.03-.17-.1.06-.09-.1-.27.08-.23v.03c.18-.04.17-.24.19-.38l-.24-.05c.39-.35-.04-1.02.3-1.2-.05-.1-.04-.21-.1-.31l.13.02c.06-.26.08-.38.08-.7l.09.07c.03-.18-.36-.25-.36-.41l.2-.04c0-.31.18-.63.01-.94.03,0,.09.02.09.07,0-.15.15-.57-.13-.52.18,0,.02-.32-.05-.49l.13.03c-.16-.14-.21-.15-.25-.35.02-.05.1-.04.07.02.07-.16-.12-.12-.06-.31l.08.07c0-.16-.04-.15-.13-.23-.05-.1.03-.3.15-.33-.07-.02-.17-.11-.14-.2.04-.01.07.02.09.04.08-.27-.16-.4-.04-.58.04,0,.06-.02.08-.03,0,.21,0,.39-.01.37.12,0,.14-.18.3-.04-.09-.14-.29-.37-.24-.54.01,0,.02-.02.04-.02v.02s.01-.07,0-.11c.02-.05.03-.09.03-.14.1-.02.05-.2.05-.29-.13.01-.11-.1-.22,0,0-.01.02.02.02.07,0,.01,0,.03.01.04h-.01c0,.05,0,.13.02.21-.07-.07-.13-.14-.06-.23-.09-.04-.17-.09-.22-.11.18-.12.26-.36.37-.4-.08-.26-.09-.62-.34-.77-.04-.07.06-.09.1-.12.03.04.03.09.06.11-.07-.15-.06-.44-.24-.46.06-.2.17.09.11-.17l.06.03c.22-.55-.53-.77-.27-1.39-.01.04-.02.06-.05.08.04-.68-.39-1.28-.36-1.96,0-.19-.11-.18-.23-.26l.12-.08-.22-.12c-.2-.21.14-.58-.21-.8l-.07.08c-.03-.12-.23-.32-.13-.36-.02,0-.11.01-.09-.05l.06-.04-.26-.2c-.09-.23.27-.13.07-.43-.1-.1-.39-.18-.4-.11.03.04.04.14-.02.18l-.1-.07c-.18.11-.4.19-.38.49l.21.07-.05.11-.09-.12c-.03.13.07.12.16.14-.04.04-.06.08-.05.12l.26.05c-.06.06-.18.02-.17.14.12.02.12-.17.25-.08-.04.13-.13.14,0,.19-.04.04-.08.04-.13.01.11.04.14.19.26.19-.07.14.16.27-.03.35.06,0,.22.08.25.16-.28-.05.1.3-.16.36.25.03.23.35.4.51-.02,0-.06-.02-.06-.04.02.12-.04.17-.06.25.18-.04.26.13.4.2-.14.18-.23-.03-.38.05.14-.04.2.2.31.13-.08.13-.03.1-.16.19.23-.03.06.09.21.15-.08.18-.2.08-.1.24-.05.09-.16-.04-.16-.04ZM228.2,175.29h0s0-.07-.01-.09c0,.02,0,.04.01.09ZM228.21,175.64s0-.1,0-.16c.04-.01.09,0,.09.03-.03-.02-.05.07-.09.12ZM229.1,174.85c.02.06,0,.08-.03.09,0-.03,0-.06-.02-.1h-.02s.05,0,.07.01Z"/><path class="cls-9" d="M228.92,174.76s0-.01-.01-.02c-.01.01-.02.02-.03.04l.04.02v-.03Z"/><path class="cls-9" d="M218.75,205.36h0s-.02,0-.02,0c0,0,.01,0,.02,0Z"/><polygon class="cls-9" points="227.83 180.55 227.86 180.56 227.84 180.52 227.83 180.55"/><path class="cls-9" d="M217.27,206.75s-.03,0-.04,0c0,0,.02,0,.04,0Z"/><path class="cls-9" d="M216.76,207.44l-.11.07c.05-.03.08-.05.11-.07Z"/><path class="cls-9" d="M216.33,207.95s.03.03.04.04h0s-.04-.04-.04-.04Z"/><path class="cls-9" d="M221.78,199.05s0-.02,0-.03c0-.06,0-.02,0,.03Z"/><path class="cls-9" d="M220.48,201.89s0-.08,0-.12c-.04.04-.06.08,0,.12Z"/><polygon class="cls-9" points="223.23 195.92 223.23 195.92 223.24 195.9 223.23 195.92"/><path class="cls-9" d="M220.56,201.65c-.05.03-.07.08-.08.12.03-.03.07-.07.08-.12Z"/><path class="cls-9" d="M214.63,210.23l-.02.02s.01.01.01.02v-.04Z"/><path class="cls-9" d="M214.62,210.27v.04s0-.03,0-.04Z"/><path class="cls-9" d="M214.6,210.39l.02-.08s-.04.04-.02.08Z"/><path class="cls-9" d="M215.19,209.56l-.03-.04s.02.02.03.04Z"/><path class="cls-9" d="M215.33,209.34s-.17.07-.2.16l.03.03c-.03-.07.21-.09.18-.19Z"/><path class="cls-9" d="M216.45,208.78l-.16.16c.06,0,.15,0,.1.08.28-.14-.13-.02.06-.24Z"/><path class="cls-9" d="M216.9,208.25c-.05.11.06.04.08.06,0-.09,0-.11-.08-.06Z"/><path class="cls-9" d="M219.68,204.11l.09.07c.04-.09-.04-.03-.09-.07Z"/><polygon class="cls-9" points="219.67 202.98 219.56 203.01 219.63 203.11 219.67 202.98"/><polygon class="cls-9" points="220.69 202.94 220.68 202.99 220.72 202.83 220.69 202.94"/><path class="cls-9" d="M224.69,195.54l-.15-.04c0,.07.14.15.15.04Z"/><path class="cls-9" d="M225.98,192.14c.08-.01.16-.09.12-.17-.04.07-.12.13-.12.17Z"/><polygon class="cls-9" points="228.91 181.63 228.96 181.7 228.93 181.56 228.91 181.63"/><path class="cls-9" d="M213.23,201.18s-.13.02-.11.04h.15s-.05-.04-.05-.04Z"/><path class="cls-9" d="M212.98,201.4c.08.02.21.04.35,0-.15,0-.09-.03-.27-.03-.02-.02.04-.05.1-.06-.04,0,.03-.05-.07-.05-.11.05-.11.1,0,.13-.03.02-.07.01-.1.01Z"/><path class="cls-9" d="M213.03,204.05l.02-.02s-.01.01-.02.02Z"/><path class="cls-9" d="M213.05,205.69s-.02-.02-.03-.02c.01.01.02.02.03.02Z"/><path class="cls-9" d="M212.9,205.97s0-.01,0-.02c-.01,0-.02.01,0,.02Z"/><path class="cls-9" d="M213.03,204.05l-.05.05c.05,0,.04-.03.05-.05Z"/><path class="cls-9" d="M213.4,201.71s-.02-.01-.04-.02c0,0,.01.01.02.02h.02Z"/><path class="cls-9" d="M212.84,203.35h0s-.04-.02-.06-.02l.06.02Z"/><path class="cls-9" d="M212.77,202.8s.13,0,.18,0c-.05,0-.08,0-.09-.02-.02,0-.05,0-.09.02Z"/><path class="cls-9" d="M212.89,201.91h-.02s.01,0,.02,0Z"/><path class="cls-9" d="M212.85,203.74s-.04,0-.05,0c.02,0,.03,0,.05,0Z"/><path class="cls-9" d="M220.77,210.5s0-.01,0-.02c0,.01,0,.02,0,.02Z"/><polygon class="cls-9" points="220.25 210.38 220.24 210.37 220.18 210.34 220.25 210.38"/><path class="cls-9" d="M212.76,206.49h0s-.01,0,0,0Z"/><path class="cls-9" d="M213.28,211.22c.11-.07.16.06.28-.04-.05.02-.21-.04-.28.04Z"/><path class="cls-9" d="M213.38,201.73s0,.01,0,.02c0-.01,0-.02,0-.02Z"/><path class="cls-9" d="M213.56,211.18h0s.01-.01.01-.01c0,0,0,0-.01.01Z"/><path class="cls-9" d="M212.9,207.67s.04,0,.06-.02c-.01,0-.03,0-.06.02Z"/><path class="cls-9" d="M213.04,206.78l-.02.02s.02-.02.02-.02Z"/><path class="cls-9" d="M213.12,208.12s-.03.02,0,.03c0,0,.01,0,.02,0-.02,0-.03-.01,0-.03Z"/><path class="cls-9" d="M213.15,208.59s.02,0,.03-.01h0s-.02.01-.02.01Z"/><path class="cls-9" d="M219.22,209.83s.04.07.06.1c-.04-.08.01-.14-.06-.1Z"/><path class="cls-9" d="M213.33,201.72s.05,0,.06,0c0,0,0-.01,0-.01-.02,0-.04,0-.05,0Z"/><path class="cls-9" d="M214.15,208.07v.08s0-.05,0-.08Z"/><path class="cls-9" d="M216.06,211v-.02s0,0,0,.02Z"/><path class="cls-9" d="M214.17,208.36s-.07.03-.09.05c.01,0,.02,0,.03,0l.05-.05Z"/><path class="cls-9" d="M219.28,209.94h0s0,0,0,0Z"/><path class="cls-9" d="M219.65,209.47c-.07.02.03.17.04.27-.06.08-.08-.11-.14-.18-.04.06-.02.22-.06.23-.01-.03-.02-.03-.03-.07,0,.15-.16.07-.16.25,0-.01-.02-.03-.02-.04.04.08.07.16.09.22-.03.01-.02.12-.07.02.02,0,0-.05,0-.08v.06c-.1-.14,0-.07-.03-.18-.04.07-.07.22-.13.2-.07-.14.09-.09-.02-.2l.09.03c-.14-.21.05,0-.09-.23-.11,0-.08.12-.19.11,0,.09.05.12.06.21-.08.2-.25-.33-.27-.1.01.11.07.3-.04.23l-.04-.18c-.1.02.04.26-.1.19,0-.07.05-.08.03-.1-.11-.11,0,.11-.06.13l-.07-.14c-.09.06-.16.21-.26.28-.01-.05,0-.1-.05-.14-.11.13-.3.09-.47.05v.15s-.05-.05-.04-.08c-.07-.03.03.08.02.14-.03.02-.07-.06-.06-.1-.05.14-.17.33-.32.23v-.05c-.09-.02.02.29-.1.2v-.03c-.18,0-.32.19-.51.03.04.19-.19-.03-.11.23-.14-.1-.12-.15-.28-.2-.04,0,0,.18-.03.22l-.04-.14v.16s-.1-.15-.1-.15l-.03.05s.05.05.06.09c-.04.08-.18-.05-.21-.12l-.11.16c-.01-.06,0-.08.02-.12-.04.16-.06-.14-.09,0,.02.03.02.08.02.11-.06-.07-.14-.05-.2,0v-.1c-.13,0-.24.11-.36.14.06.03.09.2.05.23l-.05-.14c0,.1.05.05.03.17-.05,0-.07-.16-.06-.21l-.04.07s0-.07-.02-.13c0,.1-.13-.13-.13.04v-.04c-.14.03-.18.09-.28.12.02.13,0,.11,0,.21-.05-.03-.09-.13-.13-.11-.04.07-.03.12-.05.2.02-.12-.03-.11.02-.2-.04.03-.04.03-.15.15-.02.05-.03.08-.06.12-.03.02,0-.05.04-.12h.01s-.07.05-.07.02c.01-.04.04-.1.07-.15.06-.1.12-.15,0-.09h.01s-.08.02-.13.02c.02-.03.09-.03.15-.08-.2.03.02-.04-.13-.15.33-.14-.07-.32.13-.47l-.08.02c-.08-.02.04-.04.06-.07-.06.01-.07.04-.12.03-.13-.26.05-.57.09-.85.01-.1-.43-.01-.25-.16l.16.02c-.21-.19-.04-.42-.21-.6.04,0,.08,0,.08.02.11-.05,0-.16-.1-.15,0-.03.08-.01.13-.04.06-.05-.15-.1-.04-.13.02,0,.04,0,.05.02-.06-.02,0-.13-.12-.09.06-.08-.07-.14,0-.21-.15-.03.06-.13-.14-.13.21,0,.16-.14.06-.19.06.01.06-.05.15-.03,0-.05-.05-.1-.16-.08.24-.12-.22-.19.1-.27-.12-.16-.21-.3-.27-.45.21,0,.03.16.25.14-.1-.13-.28-.2-.24-.35.03-.04.09.02.13.03-.09-.13,0-.27-.12-.39.02,0,.04.01.06.02,0-.02.03-.06-.07-.05l.03.02c-.14.05-.29-.08-.37-.08.28.03.06-.13.41-.08-.02-.02-.07-.03-.13-.03.02-.02.05-.03.13-.01-.06-.08-.16-.05-.16-.13.05,0,.06.01.12.02-.09-.04-.18-.07-.15-.14.03,0,.06,0,.06.01-.02-.11-.25-.18-.17-.32.2.03.06-.05.24-.06l-.06-.07-.08.03c0-.06-.13-.11-.08-.16l.07.04-.04-.11-.06.07c-.09-.06-.22.02-.18-.06.02.02,0-.06.1-.1h0c-.06-.03-.12-.05-.08-.1.05-.01.19,0,.23-.01-.15-.02-.05-.14-.21-.17.04.01.13,0,.15,0l-.12-.02s.05-.04.13-.04c.02-.08-.22.04-.13-.06,0,0,.03,0,.05.02.04-.1-.09-.19-.03-.28.17-.04.05.08.19.04-.04-.13-.23-.26-.19-.39l-.02.03c-.25,0,.11-.1,0-.16.02.01.14.01.11,0,.03-.09-.07-.17-.16-.3h.06c.05-.04.02-.13.05-.18-.06-.01-.06-.04-.15-.02.35-.2-.22-.31.07-.49,0,.02.06.04.06.02l-.07-.12c-.11.02-.06.02-.14.06-.06-.01-.12-.04-.12-.07.08.05.17-.02.23-.05-.03,0-.07,0-.1,0,.18-.09-.22,0-.1-.1h.06s-.11-.06-.1-.1c.12-.03.06.03.16.02-.01-.05-.25-.08-.13-.14.04.02.04.05.08.07.14-.07.1-.07.12-.11h0s.06-.09.06-.09l-.04.03c-.33-.03-.07-.13-.29-.19.21.06.12,0,.26,0,.04-.03.08-.07.12-.06-.12-.03.08-.08-.09-.12.04,0,0-.05.11-.05-.04-.05-.08.02-.13.02-.16-.07.16-.22-.06-.31-.1-.09-.25-.09-.34-.18.07-.04.17,0,.17,0,.06-.06.04-.1-.02-.14.04,0,.07-.01.12-.03-.02-.04-.17,0-.11-.06.05,0,.13,0,.19.01-.05-.04-.14-.08-.19-.12.08-.02.12.01.18.02-.04-.05-.09-.13-.22-.13l-.04.04s.1-.03.13-.01c.1.03-.03.07-.08.08l-.03-.03c-.26.07.06.13.06.2h-.2s.17.05.17.05c-.05.02-.15.05-.19.02-.09.06.07.03-.02.09-.02,0-.03,0-.03,0l.06.04s-.13.03-.11,0c-.1.1.16.12.02.17h-.01c.08.11.14-.01.32.06l-.34.1h.14s-.01.03-.07.04c.1.03.06-.02.15,0-.12.07.08.16-.14.2.11,0,.08-.07.16-.01-.24.05.05.07-.05.14-.13,0-.07-.06-.17,0,.21,0-.04.11,0,.15.17-.02.08.09.14.16-.06,0-.08.15-.13.23h-.03c.17,0,.15.07.19.13-.1,0-.14,0-.19-.02v.05c.06,0,.09.02.11.05h-.13c.01.07.16.12.08.21.12,0,.32-.1.41-.01-.06,0-.17.02-.2,0,0,0,.06.02.03.04l-.11-.03s.09.01.08.05c-.09,0-.06.03-.14.03,0,0,.04-.03,0-.04-.01.04-.06.08-.13.1.05,0,.12-.01.14.01.01.07-.11.03-.15.07.06.01,0,.06.14.05,0,.02-.06.03-.1.04.06.03.03.16.17.11h0s0,0,0,0h0s0,0,0,0c.14.1-.06.24,0,.35h-.05c.06.07.04.15.14.19,0,.02-.08.05-.14.05.04.05.09.05.02.13-.08-.05-.07.02-.06-.05-.04.07-.11.09.02.15-.12-.02-.14.06-.11.09l.08-.05s.01.07,0,.1h-.16c-.18.14.34.22.03.34.11.03.07-.08.2-.05-.02.06-.24.14-.23.16-.08.09.23.07.18.16.05-.01.2-.03.26.03-.02.06-.23.09-.27.05,0-.01.01-.02.03-.02-.02-.02-.05-.04-.1-.02h.06c-.05.04-.04.13-.14.11.06.04.09.02.12-.02-.08.09,0,.13-.04.21.03-.02.09-.03.09-.02-.06.13.11.05.14.13-.08.05-.2,0-.13.07-.05.05-.15.02-.19,0,.11.07-.06.15-.08.19l-.05-.04s.03.04.03.06l.11-.03s-.02.04-.06.05c.07.02.18-.03.28.01-.05.03.07.09-.08.11.04-.1-.15.02-.17-.06.02.02.02.04,0,.06-.02,0-.03,0-.04,0-.13.1.17.03.17.13-.08,0-.16.03-.14.05,0-.04.14-.03.2,0-.06.07.05.07.05.1l.03-.04c.08,0,.07.04.1.08-.06,0-.05-.04-.07-.02.15.04-.14.12-.04.18-.05.03-.15.01-.19.04.11.07-.11.09-.02.17.11-.03.08-.03.19.02l-.09-.13.17.08s-.07-.08-.06-.11c.09.04.06.03.16,0-.16.06.1.1,0,.17h-.27c-.12.12.15.17.09.3l.05-.04c.11,0,.02.08.07.11-.09,0-.12.03-.18.05.07,0,0,.09.18.09l-.12.06c-.04.1.27.1.24.19-.1-.02-.16.03-.24-.03,0,.03-.01.06.05.06-.06.02.13.08.05.12.04.01.14,0,.13.04-.02,0-.05,0-.05,0,.05,0,.07.05.16.01-.28.12.04.27-.2.38.04.07.07.15.08.21-.03,0-.05,0-.04,0-.08.09.27.03.18.14-.14.06-.08-.05-.14,0-.3.04.05.12-.12.2h-.02c-.1.05.12.1.11.19,0,0-.03,0-.05,0,.16.04.22.15.27.22-.12-.01-.07-.03-.18,0,.02.03.19-.03.23.04-.06.03-.11.09-.24.11v-.07c-.18.05,0,.09-.02.13h-.07c.03.11.22.09.21.2l.05-.02c.19.04-.1.06.04.11l-.18.04s.19.12.24.19c-.14-.02-.22-.1-.31-.14,0,.04.03.14.12.14-.02-.01-.07-.03-.04-.05.15.03.23.09.23.17-.36.03-.06.22-.33.31.15.12-.01.29.03.45.26-.1.02.05.29,0,.02.04.02.05,0,.06l-.15.14c-.08.04-.07-.03-.13-.01,0,.09-.11.06-.17.16.1-.04.15.02.13.12.03-.05.07-.1.11-.15.18.14-.2.25-.01.4l-.1-.02c.07.08.08.43.29.34-.03.04-.09.13-.11.1,0,.14.09.23.15.3.13-.03.28-.11.33-.04l-.06.08c.06-.03.15-.15.17-.09-.02.03-.05.08-.03.08.04-.03.17-.15.21-.11l-.08.09c.23.06.39-.26.54-.33,0,.21.18.24.28.26v.03c.21-.02.26-.23.4-.34.15.19.34,0,.53.09-.03-.03-.04-.15-.02-.18.05.03.06-.16.1.02h-.01c.08.17.14.1.19.09l-.06-.24c.25.3.34-.24.52.04.02-.07.06-.08.08-.15l.04.13c.11,0,.16,0,.27-.07v.1c.08-.01-.03-.39.03-.42l.08.18c.12-.04.29.08.35-.13,0,.03.02.08,0,.1.06-.01.26.05.15-.2.06.16.12-.03.16-.12l.03.13c0-.17-.02-.22.04-.29.02,0,.05.09.02.07.08.04,0-.13.1-.09v.09c.07-.01.05-.05.04-.16.02-.06.12-.01.17.1-.02-.07-.02-.17.03-.15.02.04.02.07.02.09.13.05.09-.2.21-.1.02.04.03.06.04.07-.08.03-.14.04-.14.03.04.11.11.11.12.28.02-.1.04-.32.12-.29,0,0,.01.02.02.04h0s.03,0,.03-.02c.03.01.04.02.06.01.04.09.09.02.12.01-.05-.12,0-.12-.08-.2,0,0,0,.02-.02.03,0,0,0,0,0,.02h0s-.05.01-.08.03c0-.07,0-.13.07-.08-.01-.08-.03-.17-.03-.21.11.15.23.21.28.32.07-.1.21-.13.18-.38.02-.04.06.05.08.09,0,.03-.03.03-.02.07.03-.08.15-.08.1-.25.1.05.02.16.1.1v.05c.29.19.15-.52.48-.27-.02-.02-.03-.02-.05-.05.29.06.43-.31.75-.16.08.02.05-.08.07-.17l.06.13.02-.18c.02-.05.06-.03.11,0l-.11-.42c-.08-.07-.21-.19-.29,0l.06.07c-.08,0-.16.18-.23.1,0,.02.06.08,0,.08l-.06-.04c0,.09.02.17.05.22-.04.05-.11.03-.17.02-.07-.01-.13,0-.15.03.04-.02.18.12.23.13.01-.01.06-.02.13,0,0,.02.01.03.02.05.2.08.37.25.59.13-.02-.08-.05-.13-.09-.18h.11s0,.05-.01.09c.11-.05.03-.1-.03-.13.06,0,.1,0,.12,0-.04-.01-.22-.05-.27-.07-.02,0,.06.02-.03-.01-.01,0-.02,0-.03-.01-.02-.01,0,0,0,0,0,0,0,0,0,0,0,0,.03.03.04.05.03.04.05.08.05.09.04.11.02-.04.08.16,0-.04,0-.12,0-.16l-.21-.84s-.01.02-.02.02c-.02-.25-.13.03-.2-.23.02.22-.13.15-.18.29,0-.02,0-.05,0-.05-.05,0-.09-.06-.13-.09.05.17,0,.24,0,.36-.11-.15-.04-.21-.11-.37.05.14-.05.17.01.28-.08-.09-.05-.04-.13-.17.07.22-.03.05-.01.19-.1-.08-.09-.2-.13-.11-.06-.05-.02-.15-.02-.15ZM218.21,210.43h0s.02-.02.03-.02c0,0-.01.01-.03.02ZM218.08,210.48s.04,0,.06-.02c.02.04.03.09.02.09,0-.03-.04-.04-.08-.07ZM218.68,211.23s-.03,0-.04-.02c0,0,.02-.01.03-.03v-.02s0,.05.01.06Z"/><path class="cls-9" d="M218.65,211.05s0,0,0-.01c0,0-.02-.02-.02-.02v.04s.02,0,.02,0Z"/><path class="cls-9" d="M213.05,204.03h0s0,0,.02,0c0,0-.01,0-.02,0Z"/><polygon class="cls-9" points="216.18 210.89 216.19 210.92 216.19 210.89 216.18 210.89"/><path class="cls-9" d="M213.43,203.22s.02,0,.03-.01c0,0-.02,0-.03.01Z"/><path class="cls-9" d="M213.42,202.88l.04-.05s-.04.04-.04.05Z"/><path class="cls-9" d="M213.46,202.61s-.04,0-.06,0h0s.06,0,.06,0Z"/><path class="cls-9" d="M213.91,206.71s0,0,0,0c.03.02.02,0,0,0Z"/><path class="cls-9" d="M213.54,205.51s.05.02.06.04c0-.02.01-.04-.06-.04Z"/><polygon class="cls-9" points="214.15 208.06 214.15 208.06 214.15 208.07 214.15 208.06"/><path class="cls-9" d="M213.6,205.6s.02-.04,0-.06c0,.02-.02.04,0,.06Z"/><path class="cls-9" d="M213.38,201.48h0s-.02-.01-.02-.01h.02Z"/><path class="cls-9" d="M213.36,201.47h-.02s0,0,.02,0Z"/><path class="cls-9" d="M213.3,201.43l.04.02s0-.02-.04-.02Z"/><path class="cls-9" d="M213.37,201.83h.05s-.03,0-.05,0Z"/><path class="cls-9" d="M213.39,201.93s.09-.08.06-.11h-.04c.07,0-.1.09-.02.11Z"/><path class="cls-9" d="M212.87,202.44l.03-.09s-.11.05-.13.01c-.14.13.11-.04.1.08Z"/><path class="cls-9" d="M212.82,202.71s-.07,0-.1,0c.05.02.06.03.1,0Z"/><path class="cls-9" d="M212.99,204.64h-.12s.05,0,.12,0Z"/><polygon class="cls-9" points="213.62 204.97 213.7 204.93 213.59 204.92 213.62 204.97"/><polygon class="cls-9" points="212.79 205.25 212.77 205.23 212.82 205.29 212.79 205.25"/><path class="cls-9" d="M213.03,208.52l.15-.02s-.19-.02-.15.02Z"/><path class="cls-9" d="M213.31,209.93c-.07.02-.11.07-.04.09,0-.03.06-.07.04-.09Z"/><polygon class="cls-9" points="216.17 212.12 216.15 212.18 216.2 212.12 216.17 212.12"/><path class="cls-9" d="M110.75,311.87c.06-.01.06-.09-.08-.13l-.14.07.22.06Z"/><path class="cls-9" d="M110.05,311.23c-.16-.05-.37-.08-.36.07.2,0,.2.07.42.06.12.06.18.16.14.18.06,0,.17.14.27.09-.06-.08-.13-.15-.22-.21-.09-.06-.2-.09-.31-.14-.02-.05.03-.05.06-.06Z"/><path class="cls-9" d="M103.52,300.36l.02.08s-.01-.05-.02-.08Z"/><path class="cls-9" d="M100.65,293.05c.02.06.04.08.05.08-.02-.05-.04-.09-.05-.08Z"/><path class="cls-9" d="M100.41,291.72s0,.05.01.08c0-.03,0-.06-.01-.08Z"/><path class="cls-9" d="M103.52,300.36l-.06-.21s.02.11.06.21Z"/><path class="cls-9" d="M108.59,310.15s.06.06.1.07c-.03-.03-.05-.05-.08-.08,0,0-.01,0-.02,0Z"/><path class="cls-9" d="M105.22,303.39l.03.06s.04.02.07.02l-.1-.08Z"/><path class="cls-9" d="M106.58,305.68c-.03-.05-.13-.02-.18-.01.05,0,.1.03.13.08.02,0,.03-.03.05-.06Z"/><path class="cls-9" d="M108.58,309.41l.05.05s-.04-.04-.05-.05Z"/><path class="cls-9" d="M104.34,301.7s.02-.03.02-.04c-.01,0-.02.02-.02.04Z"/><path class="cls-9" d="M118.49,235.26s0,.01,0,.02c0-.02,0-.03,0-.02Z"/><path class="cls-9" d="M121.07,234.67l.03-.03s-.02-.03-.04-.05v.08Z"/><path class="cls-9" d="M99.93,289.32s0,0,0,.01c.03.06.02.02,0-.01Z"/><path class="cls-9" d="M98.94,266.98c-.12.24-.07-.43-.22-.06.04-.03.12.37.22.06Z"/><path class="cls-9" d="M108.56,310.09l-.07-.09s.05.07.07.09Z"/><path class="cls-9" d="M98.72,266.92h0s-.01.04-.01.04c0-.02.01-.02.02-.04Z"/><path class="cls-9" d="M98.87,283.78s-.03.04-.04.06c.01,0,.02-.02.04-.06Z"/><path class="cls-9" d="M99.41,287.96v-.1s0,.08,0,.1Z"/><path class="cls-9" d="M98.48,281.62c0-.06.01-.08,0-.15,0,0,0,.02-.01.02.02.03.03.06.02.13Z"/><path class="cls-9" d="M98.3,279.35s-.01.03-.02.04c0,.02,0,.05.01.07v-.11Z"/><path class="cls-9" d="M112.59,239.06c.06,0,.1,0,.14.01-.07-.04.18-.26-.14-.01Z"/><path class="cls-9" d="M108.63,310.12s-.05,0-.08-.03c.02.02.03.04.05.06.02,0,.03-.01.03-.03Z"/><path class="cls-9" d="M97.64,281.61l-.02-.37c0,.1,0,.24.02.37Z"/><path class="cls-9" d="M102.36,251.97l.03-.08s-.03.06-.03.08Z"/><path class="cls-9" d="M97.53,280.16c.03-.07.05-.14.06-.21,0-.01-.02-.03-.03-.04l-.03.25Z"/><path class="cls-9" d="M112.74,239.07h0s0,0,0,0Z"/><path class="cls-9" d="M114.58,237.47c-.3.19-.06.2-.08.31-.33.26-.22.02-.38.04-.2.18-.3.39-.45.5-.02,0-.06,0-.04-.04-.16.25-.66.49-.84.79-.03,0-.04,0-.05,0,.08.02.13.07.15.12-.13.09-.18.24-.28.21.08-.06.06-.09.08-.14l-.1.13c-.19,0,.15-.18.09-.25-.23.23-.45.55-.66.68-.12-.07.42-.39.09-.28l.33-.2c-.35.03.19-.13-.15-.13-.41.29-.4.4-.81.69-.04.12.1.06.05.18-.45.56-.63.13-.91.6-.05.15.02.31-.31.49v-.19c-.37.32-.06.34-.49.62.03-.1.24-.3.18-.26-.31.15-.11.22-.29.4l-.13-.05c-.36.37-.69.85-1.06,1.28,0-.05.03-.15-.09-.08-.23.28-.49.57-.75.85-.26.28-.55.54-.79.79l-.08.28s-.11.06-.08,0c-.2.19.05.05,0,.18-.09.13-.17.12-.14.02-.11.22-.29.51-.47.8-.18.29-.38.57-.58.75l.03-.1c-.26.3-.08.48-.36.73l.02-.07c-.25.34-.48.73-.71,1.08-.22.36-.43.69-.67.93.04.09-.09.26-.2.43-.1.17-.2.34-.11.42-.32.38-.29.23-.68.81-.1.16,0,.31-.08.52l-.11-.05-.03.33-.19.09-.07.2c.04-.07.12-.14.15-.11-.1.32-.42.69-.48.68l-.23.76s0-.16.02-.27c-.06.43-.14.02-.2.42.04-.04.05.05.07.07-.15.15-.31.55-.4.86l-.05-.09c-.23.53-.42,1.16-.62,1.77.11-.21.22-.11.17.07l-.14.03c.03.14.11-.17.11.1-.09.22-.18.11-.18-.04l-.06.29s-.04-.07-.07-.1c.03.14-.28.44-.22.65h-.04c-.22.62-.24.92-.39,1.43.1.04.02.23.05.41-.14.36-.36.75-.45,1.21-.03.33.06.12.09.28-.1,0-.2.46-.21.2-.12.55-.16.7-.25,1.41.06-.07.09-.15.12-.1-.02.13-.11.28-.15.25v-.04c-.02.81-.66,1.75-.58,2.41v-.04s0,.67,0,.67c-.07.3-.04-.19-.14.02.04.73-.21,1.11-.19,1.7-.34.41-.18,1.6-.44,2.19l.07-.03c.05.16-.06.19-.08.3.05-.01.07-.17.1-.06-.02.67-.1,1.36-.2,2.05-.09.69-.17,1.39-.24,2.08-.04.5.32.3.16.92l-.12-.18c.14,1.02-.05,2.08.12,3.07-.03-.06-.07-.06-.07-.16-.08.21.02.78.09.78,0,.15-.06.04-.1.13-.05.21.13.52.04.64-.01.02-.03-.06-.04-.1.04.14.03.64.12.5-.03.37.09.71.05,1.01.13.19-.01.64.15.69-.08,0-.11.16-.1.35.02.2.07.42.12.53-.06-.07-.03.21-.11.12.03.27.09.51.17.45-.15.51.26.97.04,1.28.2.78.37,1.5.51,2.21-.17,0-.13-.78-.3-.73.08.33.17.59.25.85.09.26.16.51.2.85,0,.18-.09-.08-.13-.14.2.66.21,1.3.43,1.87-.02,0-.05-.06-.07-.12.03.12.04.28.11.25l-.05-.11c.07-.21.33.41.39.42-.26-.15.08.59-.26.34.03.07.09.16.13.13.01.12,0,.16-.09.06.13.41.18.24.26.62-.04,0-.07-.07-.12-.09.12.17.22.35.28.67-.03-.01-.04.03-.07-.06.16.54.44.87.53,1.49-.2-.13,0,.22-.12.29l.13.31.03-.15c.07.28.25.5.28.75l-.12-.19.18.51-.04-.31c.15.26.16-.08.24.3-.04-.07.09.28.06.44h0c.09.12.18.25.21.46-.02.07-.16,0-.18.05.16.1.26.63.43.76-.05-.05-.12-.02-.12,0l.13.08c.02.14.01.16-.05.16.12.38.12-.18.22.29-.02-.03-.03-.01-.07-.08.13.47.39.85.51,1.27-.08.17-.17-.35-.23-.16.26.59.66,1.16.87,1.74l-.03-.11c.21,0,.09.46.31.71-.05-.06-.14-.05-.11-.04.14.4.4.77.74,1.31l-.08-.05c.07.24.27.6.37.85.08.05.14.19.17.07.12.87.86,1.33,1.01,2.09-.04-.08-.14-.16-.11-.1l.34.53c.05-.09,0-.1,0-.24.08.04.2.18.28.31-.19-.22-.12.07-.1.2.01-.03.06,0,.08-.03.03.36.18-.04.31.4h-.05c.1.14.23.24.31.4-.05.11-.13-.13-.21-.1.13.22.42.33.45.58-.08-.08-.16-.21-.23-.29.03.27.07.28.14.45v-.02s.17.39.17.39l-.03-.11c.39.14.37.53.73.8-.35-.27-.11-.01-.23.02.03.11.08.27.03.24.18.13.1.32.36.51-.03.03.1.19,0,.19.15.21.03-.08.08-.09.3.29.33.9.78,1.32.32.4.47.41.78.76.04.16-.18-.03-.18-.03.1.24.21.4.39.56-.05-.02-.05.04-.03.12.12.15.18.02.3.25-.06,0-.15-.01-.24-.06.17.16.37.29.56.44,0,.09-.17-.04-.26-.08.1.09.23.21.35.3.13.09.24.15.31.14l-.1-.14c.07.06-.02.1-.09.06-.23-.1-.21-.26-.19-.3l.13.11c.02-.14-.1-.25-.25-.37-.14-.12-.33-.25-.42-.39l.21.02c-.11-.06-.2-.13-.31-.2-.01-.08.03-.17.15-.05-.08-.24-.17-.14-.22-.36,0-.03.01-.02.03,0l-.17-.17c.05.02.07-.09.13.04-.16-.39-.46-.5-.45-.7l.03.02c-.34-.47-.13.01-.47-.3l.1-.39h-.13s-.08-.15-.03-.16c-.18-.16-.02.06-.15-.02-.05-.3-.43-.67-.31-.82-.13-.05.08.27-.13.03.13-.17-.2-.3-.26-.57.13.02.21.27.15,0-.22-.05-.23-.47-.37-.64-.12.06-.3-.38-.53-.68.05,0-.29-.64-.42-.97h.02c-.15,0-.31-.32-.46-.53.08-.03.13,0,.23.1l-.12-.21c-.07-.03-.12-.08-.21-.22h.12c-.16-.28-.43-.51-.56-.91-.1.02-.08.42-.34.06.04-.04.11-.09.18,0-.02-.03-.1-.1-.12-.18l.16.12c-.06-.19-.11-.05-.18-.19.07-.03,0-.12.05-.13.02.03.04.13.09.17-.07-.16-.13-.36-.11-.45-.03.03-.09.05-.15-.06-.15-.29.03-.14-.03-.33-.08-.05-.13-.26-.23-.21-.04-.08,0-.12,0-.17-.12-.13-.36-.7-.38-.48v.04s0-.01,0-.02h0s0,0,0,0c-.34-.45-.45-1.06-.71-1.54h.03c-.18-.29-.32-.67-.49-.85-.04-.09-.03-.24.03-.22-.13-.22-.17-.23-.26-.59.16.21.02-.1.14.22-.1-.31-.07-.4-.3-.69.13.07.02-.27-.06-.4l.02.24c-.08-.16-.12-.3-.17-.45l.15.03c-.1-.67-.67-1.03-.6-1.59-.14-.14.06.36-.09.25-.09-.29-.02-.65-.05-.74-.07-.42-.29-.31-.39-.74-.02.07-.12.15-.26-.15-.07-.3.07-.42.16-.24.02.07.02.11,0,.11.04.09.1.21.11.08l-.05-.02c0-.16-.13-.56-.03-.49-.11-.21-.1-.07-.07.1-.06-.39-.17-.59-.24-.99,0,.07-.04.14-.06.08-.1-.59-.15-.23-.27-.61,0-.24.18.04.02-.34-.02-.25.1-.08.16,0-.18-.33-.13-.68-.16-.88.02.06.06.12.08.18-.05-.11-.07-.2-.09-.29l-.06.13c-.01-.11-.03-.21,0-.21-.08-.1-.12.12-.25-.09.01-.16-.15-.44-.05-.52.07.47.1-.08.21.31-.03-.07-.05-.17-.06-.28,0-.02.03.01.04.04,0-.47-.18-.17-.28-.64.08.04.1-.13.07-.21.04.19-.09.11-.18-.05-.02-.31-.11-.31-.14-.47l.02.18c-.08-.05-.11-.2-.16-.4.05-.03.07.18.08.1-.16-.21.02-.55-.11-.85.02-.16.12-.04.13-.17-.15-.35.02-.41-.12-.77-.07.12-.04.14-.18-.11l.18.61-.2-.38c.03.19.13.39.13.5-.11-.18-.08-.16-.14-.06.08-.28-.17-.5-.14-.81l.22-.03c.02-.46-.23-.78-.26-1.37v.19c-.11-.07-.07-.36-.14-.54.08,0,.08-.11.12-.2-.05.02-.06-.43-.21-.46.02-.09.04-.18.07-.27,0-.48-.26-.52-.29-.98.09.13.12-.08.21.22-.01-.15-.02-.29-.07-.29.04-.09-.14-.41-.09-.56-.04-.06-.12-.08-.13-.25.01-.02.04,0,.04,0-.04,0-.08-.26-.14-.11.18-.49-.11-1.32.06-1.74-.04-.33-.1-.73-.11-1.04.02.02.04,0,.03.06.06-.42-.22-.25-.15-.73.11-.25.07.25.11.1.24-.07-.05-.57.08-.9l.02.08c.08-.25-.12-.6-.09-1,0,0,.02.02.04,0-.12-.27-.16-.79-.19-1.18.09.12.05.18.15.1-.01-.17-.16.05-.18-.3.05-.11.1-.36.2-.39v.33c.14-.16,0-.42.03-.59l.06.02c0-.5-.14-.51-.11-1.05l-.05.05c-.13-.3.09-.24,0-.54l.15-.08c-.02-.19-.11-.69-.11-1.03.09.2.13.61.18.87.01-.19.02-.65-.05-.75,0,.08.04.18.01.25-.11-.24-.13-.56-.1-.94.28.09.16-.99.4-1.24-.05-.68.2-1.32.28-2.1-.25.25.02-.23-.21-.21,0-.18.02-.25.04-.27.06-.18.14-.35.22-.53.09-.12.02.18.07.17.08-.39.12-.15.23-.4-.09.04-.09-.16-.02-.37l-.16.3c-.03-.57.27-.45.24-1.02l.04.19c0-.29.18-1.05.06-1.36.04-.05.11-.1.1.03.17-.67.11-1.55.35-2.05l.04.06c.02-.13-.05-.24.05-.39.02.01.04.06.06,0,0-.07-.01-.36.06-.51l.03.16c.24-.63.09-1.04.22-1.6.16.04.36-.45.46-.69l.02.02c.24-.74.24-1.32.43-2.02.32-.37.55-1.43.93-2.06-.07.09-.11-.06-.08-.19.09-.15.07-.48.2-.4l-.02.06c.18-.07.28-.4.39-.65l-.16-.12c.28-.27.43-.71.59-1.11.16-.4.3-.76.5-.88.03-.18.13-.37.17-.54l.09.06c.25-.41.37-.61.63-1.14v.14c.18-.28-.05-.51.1-.78h.18c.15-.25.32-.48.49-.72.17-.23.33-.48.42-.76.01.02.04.06,0,.14.08-.11.24-.32.36-.5.12-.18.2-.33.08-.35.12.07.36-.48.49-.77l.06.1c.05-.29.02-.33.22-.64.06-.06.11-.01.02.07.22-.2.06-.24.32-.48l-.03.14c.19-.23.15-.23.19-.41.08-.18.38-.43.48-.4-.02-.07.03-.24.17-.36.04,0,.02.07,0,.1.38-.33.39-.65.7-.84.03.02.06.01.09,0-.28.29-.48.54-.47.51.07.06.29-.17.23.11.11-.25.29-.68.54-.87.02,0,.03,0,.05,0v.03s.08-.1.11-.15c.08-.06.13-.1.2-.17.08.03.28-.24.4-.35-.08-.06.08-.2-.12-.12.02-.01-.01.03-.09.11-.01.02-.03.04-.04.06h0c-.07.06-.16.17-.27.28.05-.13.11-.26.27-.35,0-.11.03-.22.04-.28.26-.05.62-.29.72-.27.3-.39.81-.81.91-1.17.09-.11.16-.06.22-.08-.05.07-.12.13-.13.18.17-.22.6-.56.57-.7.31-.17-.07.22.29-.1l-.02.07c.44-.21.68-.53.95-.83.27-.3.57-.6,1.07-.8-.07.03-.1.04-.13.03.53-.29,1.03-.66,1.54-1.01.52-.33,1.03-.66,1.61-.88.31-.14.3-.23.44-.39l.12.06.24-.29c.39-.33.89-.19,1.35-.66l-.11-.03c.21-.1.61-.39.62-.29.01-.02.03-.1.13-.11l.03.05.45-.35c.4-.14.05.22.6,0,.04-.02.1-.06.13-.08,0,0,0,0,0,0,0-.02-.02-.1-.02-.15-.02-.08.02-.16.02-.15,0,0-.02,0-.05,0-.02,0-.03,0-.04-.02-.02,0-.04-.02-.06-.03-.11-.07-.07-.04-.07-.03-.01.09-.06.19,0,.17.03-.03.08-.06.11-.09.04-.03.05-.02.09,0,0,.03-.05.11-.09.16.05.07.07.17.15.22.04.02.08.03.16,0,.04-.02.08-.03.15-.1.01-.01.04-.05.06-.08,0,0,.03-.07.04-.11.01-.02.02-.15-.01-.24-.01-.04-.05-.11-.1-.16-.02-.02-.05-.05-.08-.06-.02-.01-.03-.02-.05-.03-.03-.02-.07-.03-.11-.04-.04,0-.04,0-.06-.01-.09,0-.11,0-.16,0-.21.08-.29.17-.4.25l-.15-.02c.1-.05.2-.09.31-.14-.22,0-.3.12-.39.22-.05-.03-.11-.03-.18-.01l-.25.32c-.07-.04.08-.2-.15-.11-.12.15.22.06-.01.24-.19.01-.18-.07-.33.09-.05-.03-.02-.07.04-.13-.14.14-.42.26-.46.38-.21,0-.53.33-.6.18-.03.06-.22.27-.36.36.17-.33-.56.31-.59.08-.11.27-.68.49-.98.78.01-.02.04-.07.07-.08-.2.1-.28.09-.43.14.05.14-.24.36-.36.53-.32.02.06-.24-.09-.31.07.09-.36.35-.23.39-.23.04-.18.06-.34.01.06.17-.16.13-.24.33-.31.1-.16-.1-.42.14-.17.04.05-.18.05-.18ZM108.54,243h0c.05-.05.09-.1.11-.13-.02.03-.05.06-.11.13ZM108.07,243.5c.06-.06.13-.14.2-.22.04,0,.05.05,0,.1,0-.04-.12.06-.21.12ZM109.58,242.94c-.06.09-.1.1-.13.1.03-.04.07-.08.12-.14,0,0,0-.01,0-.02,0,.02.01.04,0,.07Z"/><path class="cls-9" d="M109.61,242.71s.01-.02.03-.04c-.02,0-.04.02-.06.03,0,.02,0,.03,0,.05.01-.01.03-.03.04-.04Z"/><path class="cls-9" d="M103.55,300.46h0s0,.01,0,.02c0-.01,0-.01,0-.02Z"/><polygon class="cls-9" points="102.64 251.26 102.67 251.27 102.67 251.2 102.64 251.26"/><path class="cls-9" d="M104.99,303.94s0,.03,0,.06c0,0,0-.03,0-.06Z"/><path class="cls-9" d="M105.78,305.35l.09.22c-.03-.1-.06-.16-.09-.22Z"/><path class="cls-9" d="M106.37,306.44s.04,0,.05,0h0s-.05,0-.05,0Z"/><path class="cls-9" d="M98.74,288.18s0-.03-.02-.05c-.04-.11-.02-.03.02.05Z"/><path class="cls-9" d="M100.49,293.84c-.04-.05-.07-.11-.11-.17.03.1.05.18.11.17Z"/><polygon class="cls-9" points="97.65 281.65 97.65 281.65 97.64 281.61 97.65 281.65"/><path class="cls-9" d="M100.3,293.41c.01.11.04.19.08.26-.02-.08-.04-.18-.08-.26Z"/><path class="cls-9" d="M109.35,311.03l.04.05s.01,0,.02,0l-.06-.04Z"/><path class="cls-9" d="M109.41,311.07l.06.04s-.04-.04-.06-.04Z"/><path class="cls-9" d="M109.59,311.19l-.13-.08s.08.08.13.08Z"/><path class="cls-9" d="M108.3,309.68h-.04s.03,0,.04,0Z"/><path class="cls-9" d="M108,309.27c.06.11.1.3.22.43h.03c-.09-.04-.14-.36-.25-.43Z"/><path class="cls-9" d="M107.34,307.22l.18.38c0-.08,0-.19.1-.03-.15-.52-.03.14-.28-.35Z"/><path class="cls-9" d="M106.75,306.06c.13.19.05-.03.07-.03-.11-.11-.13-.13-.07.03Z"/><path class="cls-9" d="M102.4,297.77l.1-.02c-.08-.15-.03.01-.1.02Z"/><polygon class="cls-9" points="101.26 296.29 101.27 296.47 101.38 296.51 101.26 296.29"/><polygon class="cls-9" points="101.52 295.06 101.56 295.12 101.43 294.87 101.52 295.06"/><path class="cls-9" d="M98.42,279.75l-.11.06c.03.12.16.13.11-.06Z"/><path class="cls-9" d="M98.23,272.98c.06-.07.11-.26.06-.38-.02.15-.07.3-.06.38Z"/><polygon class="cls-9" points="102.73 253.29 102.71 253.43 102.78 253.19 102.73 253.29"/><path class="cls-9" d="M103.02,307.33s-.07.08-.03.09l.09-.09h-.05Z"/><path class="cls-9" d="M103.03,307.63c.06-.03.16-.09.21-.19-.1.07-.07.03-.19.12-.03,0-.02-.06.02-.09-.03.02-.02-.05-.08,0-.03.1,0,.13.09.1,0,.03-.04.05-.05.06Z"/><path class="cls-9" d="M105.05,309.49v-.02s0,.02,0,.02Z"/><path class="cls-9" d="M106.34,310.61s-.02,0-.03,0c.01,0,.03,0,.03,0Z"/><path class="cls-9" d="M106.48,310.9s0-.01,0-.02c0,.01,0,.02,0,.02Z"/><path class="cls-9" d="M105.05,309.49v.06s.01-.04,0-.06Z"/><path class="cls-9" d="M103.51,307.62s-.02,0-.04.01c0,0,.02,0,.03,0h.01Z"/><path class="cls-9" d="M104.41,309.1h-.01s-.03.01-.04.02l.05-.02Z"/><path class="cls-9" d="M103.95,308.75s.08-.07.11-.1c-.03.03-.05.04-.07.04-.01.02-.03.03-.04.06Z"/><path class="cls-9" d="M103.36,308.04h-.02s.01,0,.02,0Z"/><path class="cls-9" d="M104.71,309.37s-.02.02-.02.03c0-.01.01-.02.02-.03Z"/><path class="cls-9" d="M109.62,304.99s.01,0,.02,0c-.01,0-.02,0-.02,0Z"/><polygon class="cls-9" points="110.11 304.29 110.12 304.3 110.18 304.3 110.11 304.29"/><path class="cls-9" d="M106.83,311.33h0s-.01,0,0,0Z"/><path class="cls-9" d="M111.8,313.71c-.1-.04-.09-.28-.2-.29.06.07.07.23.2.29Z"/><path class="cls-9" d="M103.52,307.64s.01,0,.02.01c0,0-.01-.01-.02-.01Z"/><path class="cls-9" d="M111.6,313.41h0s0,0,0,0c0,0,0,0,.01,0Z"/><path class="cls-9" d="M107.89,312s.01-.03.01-.05c0,0-.01.02-.01.05Z"/><path class="cls-9" d="M107.21,311.34v.02s0-.02,0-.02Z"/><path class="cls-9" d="M108.37,312.13s0,.03.02.03c0,0,0,0,0-.01-.01,0-.02.01-.03-.01Z"/><path class="cls-9" d="M108.81,312.39s0-.02,0-.02h-.02s.01.02.01.02Z"/><path class="cls-9" d="M109.88,306.52s.06-.03.09-.04c-.07.02-.11-.05-.09.04Z"/><path class="cls-9" d="M103.48,307.67s.03-.03.04-.03c0,0-.01,0-.02,0-.01.01-.02.02-.02.03Z"/><path class="cls-9" d="M108.83,311.44l.06.05s-.03-.04-.06-.05Z"/><path class="cls-9" d="M110.74,309.96h-.02s0,0,.02,0Z"/><path class="cls-9" d="M109.08,311.6s0,.06,0,.08c0,0,.01,0,.02-.02l-.02-.06Z"/><path class="cls-9" d="M109.97,306.48h0s0,0,0,0Z"/><path class="cls-9" d="M109.63,306c0,.08.14.01.22.02.05.08-.09.06-.16.1.05.05.18.07.18.11-.02,0-.03.02-.06.01.12.04.04.18.19.22-.01,0-.02.01-.03.02.07-.02.13-.04.18-.05,0,.03.1.04.01.07,0-.02-.04-.02-.07-.02l.04.03c-.12.06-.05-.04-.15-.02.05.06.18.12.15.18-.12.04-.07-.11-.16-.02l.03-.09c-.18.1,0-.05-.19.05-.01.11.09.11.08.22.07,0,.1-.03.17-.02.16.12-.28.19-.1.26.09,0,.25-.02.18.08h-.15c.01.11.21.02.15.14-.06,0-.07-.07-.08-.05-.09.09.09.03.1.08l-.12.04c.05.1.16.2.22.31-.04,0-.08,0-.11.03.1.13.07.32.03.49l.12.03s-.04.04-.07.03c-.03.07.07-.01.12,0,.02.03-.05.06-.09.05.12.07.27.23.18.36h-.04c-.02.08.24.02.16.12h-.02c0,.18.14.35.02.52.16-.01-.03.19.19.15-.08.13-.13.11-.17.26,0,.04.15.02.18.07l-.11.03.13.04-.13.06.04.04s.04-.05.07-.05c.07.06-.04.18-.1.2l.13.14s-.07-.02-.1-.03c.13.06-.12.04,0,.1.02-.02.07,0,.09-.01-.06.05-.04.14,0,.2h-.08c0,.12.08.24.1.37.03-.05.17-.07.19-.03l-.12.04c.08.01.04-.05.14-.01,0,.05-.13.05-.17.03l.05.05s-.06,0-.1,0c.08.01-.1.12.03.14h-.04c.01.14.06.19.08.3.1,0,.09.03.17.06-.02.08-.1.18-.08.27.06.06.09.01.15.04-.09.01-.08.11-.15.06.02.11.03.14.11.29.04-.02.06-.04.09-.03.02.03-.04.06-.09.06h0c.07.07,0,.18-.06.25-.06.03-.12,0-.02.07h0s.07.06.1.1c-.02.01-.07-.06-.13-.09.08.07.07.1.05.1-.01,0-.03,0,.02.08-.14-.17-.14-.18-.14-.16,0,.02-.02.05-.04-.06v.07c.02.07,0-.04,0-.06,0,.06.01.07.01.11-.01.08-.33-.21-.53-.37-.08-.06-.19.29-.24.09l.08-.1c-.25.05-.38-.18-.61-.17.02-.02.04-.05.06-.04,0-.1-.14-.08-.17-.01-.02-.02.03-.06.03-.1-.01-.07-.15.05-.13-.04,0-.01.02-.02.03-.02-.05.02-.11-.08-.14.03-.04-.08-.15-.04-.17-.12-.09.08-.09-.11-.18.02.09-.14-.05-.18-.13-.14.04-.03,0-.07.05-.12-.05-.03-.11-.03-.15.05.02-.23-.26.02-.17-.22-.19-.01-.35-.05-.5-.1.1-.14.15.08.24-.07-.16-.02-.31.05-.4-.07-.02-.04.06-.05.09-.06-.16-.02-.22-.17-.37-.17,0-.01.03-.02.05-.02-.02-.01-.03-.05-.08,0h.03c-.03.11-.22.13-.26.17.16-.15-.07-.12.15-.3-.02,0-.06.02-.09.06-.01-.03,0-.06.06-.09-.1-.02-.12.06-.18.01.02-.03.04-.03.08-.06-.08.03-.15.07-.19,0,.02-.02.03-.04.04-.03-.1-.06-.28.03-.34-.11.13-.1,0-.07.08-.18h-.08s-.02.06-.02.06c-.05-.04-.15,0-.17-.06l.07-.02-.11-.05.02.08c-.09.02-.1.14-.14.06.02,0-.05-.04-.02-.12h0c-.05.02-.1.03-.12-.02.02-.04.1-.11.11-.14-.1.07-.13-.06-.24,0,.03-.01.07-.07.08-.09l-.08.06s0-.06.04-.1c-.06-.07-.09.15-.12.03.01,0,.02-.01.04-.02-.06-.09-.19-.08-.24-.17.07-.13.09.03.13-.09-.12-.07-.32-.05-.41-.16v.03c-.13.14,0-.14-.12-.11.02,0,.09-.07.07-.06-.05-.08-.17-.08-.32-.12l.05-.03c-.01-.07-.09-.11-.12-.16-.05.03-.07,0-.1.07.05-.34-.36-.09-.33-.38.01.01.06,0,.05-.02l-.13-.05c-.05.07-.02.05-.04.12-.05.03-.1.04-.13.01.08,0,.09-.11.1-.16-.01.02-.04.04-.05.06.04-.16-.12.13-.13-.01l.03-.03s-.11.02-.13-.01c.05-.09.06-.01.11-.07-.05-.03-.2.08-.18-.03.04,0,.06.01.1,0,.03-.12,0-.11-.01-.14h0s-.04-.09-.04-.09v.04c-.22.16-.14-.05-.32.02.17-.07.07-.06.15-.15,0-.04,0-.09.02-.11-.09.04-.01-.1-.14-.04.02-.03-.03-.03.03-.1-.06-.01-.03.06-.06.09-.15.04-.07-.24-.27-.19-.13-.01-.22.07-.34.06,0-.07.1-.09.1-.09,0-.08-.05-.09-.11-.09.03-.02.04-.05.05-.09-.04-.02-.1.09-.11.01.03-.03.08-.07.12-.09-.06,0-.14.02-.2.02.03-.06.08-.06.12-.08-.06-.01-.15-.04-.23.03v.05s.05-.08.07-.08c.09-.03.03.07.01.1h-.04c-.1.19.14.06.19.11l-.12.1.14-.06s-.06.12-.1.11c0,.09.07-.02.05.08,0,.01-.01.02-.02.02h.07s-.06.09-.07.05c.02.13.19,0,.14.11h-.01c.13.04.08-.08.24-.13l-.12.26.08-.08s.02.03,0,.07c.09-.03.02-.04.09-.08-.02.12.16.07.06.22.07-.05,0-.09.08-.09-.11.16.08.02.07.13-.08.07-.08,0-.1.1.13-.11.06.1.12.1.09-.1.12.02.21.04-.03.03.07.15.1.24l-.02.02c.1-.1.14-.03.2-.01-.05.06-.08.08-.13.09l.04.03s.06-.03.1-.02l-.07.07c.06.04.19,0,.21.11.06-.07.11-.25.23-.24-.03.04-.08.11-.12.11.01,0,.05-.01.05.01l-.08.04c0,.06.06-.04.08-.02-.05.06-.01.06-.06.1-.01,0,0-.04-.03-.03.02.03.03.1,0,.15.02-.03.06-.08.09-.07.06.04-.04.08-.03.14.05-.03.05.04.12-.04.02.01-.01.06-.03.08.06-.01.14.1.18-.02h0s0-.01,0-.01h0s0,0,0,0c.16,0,.15.21.27.24l-.02.03c.08.01.14.08.23.05.02.01,0,.08-.04.11.06.01.09-.02.11.08-.08.02-.02.06-.07,0,.03.07.01.12.13.09-.08.06-.03.13.01.12v-.08s.06.04.08.07l-.09.09c.02.21.36-.04.29.23.08-.04-.02-.1.07-.15.04.05-.01.24,0,.25.03.11.18-.09.22,0,.02-.04.08-.14.16-.13.04.05-.05.2-.1.2-.01,0-.01-.02,0-.03-.03,0-.06,0-.07.05l.03-.03c0,.06.07.11.01.15.07,0,.06-.04.05-.09.03.1.1.08.15.17,0-.03.03-.08.04-.07.07.12.1-.03.18,0,0,.08-.11.12,0,.13.02.07-.06.1-.1.12.12-.02.09.14.11.18h-.06s.05.01.07.03l.03-.09s.03.04,0,.07c.06-.03.07-.13.16-.16,0,.06.11.02.05.12-.06-.09-.06.1-.14.06.02,0,.04.01.05.04,0,.01-.02.02-.03.02.02.14.12-.08.2-.02-.05.05-.05.12-.03.11-.03-.03.05-.1.11-.12.02.08.08.01.11.04l-.02-.04s.07-.02.12,0c-.03.04-.05,0-.05.03.11-.06.02.17.13.14,0,.06-.07.1-.06.14.12-.02.02.12.13.11.03-.09.01-.07.11-.11l-.15-.03.15-.05s-.1,0-.12-.03c.08-.04.06-.02.09-.09-.03.14.14,0,.14.11l-.13.18c.03.14.21,0,.29.13v-.06c.05-.06.06.04.11.03-.04.06-.04.1-.05.14.03-.05.08.06.17-.06v.11c.06.09.21-.11.28-.04-.07.05-.06.12-.15.13.03.02.05.05.07,0,0,.05.13-.03.12.04.03-.02.07-.08.1-.06,0,.01-.02.03-.02.03.02-.03.08-.01.09-.1-.03.25.26.13.23.35.08.02.16.04.22.07-.01.02-.02.03-.03.02.05.11.15-.16.21-.04,0,.13-.08.03-.07.09-.1.22.13.03.12.19h-.02c.01.1.16-.02.23.04,0,0-.01.02-.02.03.11-.08.23-.07.32-.06-.06.07-.06.03-.08.12.04,0,.06-.14.14-.14,0,.06.03.12,0,.22l-.07-.02c-.02.14.09.03.11.07l-.03.05c.11.03.17-.1.27-.05v-.05c.12-.11.02.1.12.02l-.04.14c.05-.02.19-.08.27-.08-.08.09-.18.11-.26.15.04.02.14.04.19-.02-.02,0-.05.03-.06,0,.09-.09.17-.12.25-.09-.06.13,0,.17.08.21.09.04.18.07.24.2.11-.02.22.02.35.08.13.06.28.13.41.16-.26-.3.07.01-.13-.28.02,0,.03,0,.05,0,0,0,0-.01.01,0,.05,0,.09,0,.14-.01.06.02.04.11.09.17.03-.13.09.04.16,0-.08-.06-.1-.17-.07-.23-.04.01-.07.02-.11.03-.1-.3.19-.02.1-.33l.06.12c-.03-.14.04-.45-.14-.58.03-.01.09-.03.1.02,0-.06,0-.14-.02-.2-.01-.04-.04-.09-.06-.13-.04-.08-.06-.16-.01-.22h.06s-.11-.04-.05-.08c.02,0,.06,0,.06,0-.02-.01-.1-.07-.07-.11l.06.03c.06-.16-.17-.23-.21-.35.17-.01.2-.14.22-.2h.02c0-.18-.17-.29-.26-.44.16-.13.02-.35.09-.53-.02.03-.13.02-.15,0,.03-.04-.13-.08.02-.1h0c.14-.04.08-.11.08-.17l-.19.03c.25-.21-.19-.38.04-.52-.06-.03-.07-.07-.12-.1l.1-.02c0-.11,0-.16-.05-.28h.08c-.01-.07-.32,0-.34-.07l.15-.06c-.03-.12.07-.28-.1-.37.02,0,.07-.01.08,0-.01-.06.05-.25-.16-.17.14-.04-.02-.13-.1-.18l.1-.02c-.14-.02-.18-.01-.23-.08,0-.02.08-.04.06,0,.04-.07-.11-.02-.07-.11h.07c0-.05-.04-.04-.13-.06-.05-.03,0-.13.08-.16-.06,0-.14,0-.12-.05.03-.01.06,0,.07,0,.04-.12-.16-.13-.08-.22.03,0,.05-.02.06-.03.02.08.03.15.02.15.09-.02.09-.1.23-.07-.08-.04-.26-.09-.23-.17,0,0,.02-.01.03-.02h.01s0-.02-.03-.03c.01-.02.02-.04.01-.06.07-.03.02-.09.02-.12-.1.03-.1-.02-.17.04,0,0,.01,0,.02.02,0,0,0,0,.01.01h0s.02.05.03.08c-.06-.01-.11-.03-.06-.08-.07,0-.14,0-.18,0,.13-.08.19-.19.27-.22-.08-.09-.09-.23-.3-.25-.03-.02.05-.05.08-.06.02.01.02.03.05.04-.06-.05-.06-.17-.19-.15.04-.09.13.01.09-.08h.04c.17-.24-.41-.25-.17-.52-.01.02-.02.03-.04.03.07-.27-.2-.51-.04-.78.03-.07-.05-.07-.12-.11l.11-.03-.14-.06c-.1-.1.26-.2.07-.32l-.08.02s-.05-.15.04-.15c-.01,0-.08-.01-.04-.03h.06s-.1-.12-.1-.12c.04-.09.23,0,.24-.12-.02-.05-.17-.14-.21-.12,0,.02-.04.05-.09.05l-.03-.05c-.17,0-.35-.05-.47.07l.11.08-.08.03v-.07c-.09.04-.01.07.03.09-.04,0-.08.02-.09.04l.17.08c-.07.01-.14-.03-.17.02.08.04.15-.04.2.02-.08.04-.14.03-.07.08-.04,0-.07,0-.09-.02.05.04.03.11.12.13-.1.05.04.14-.13.14.04.01.13.06.14.1-.2-.05,0,.14-.21.14.18.03.09.18.2.26-.01,0-.04,0-.04-.02,0,.05-.06.07-.09.11.15-.01.19.06.29.09-.13.08-.18-.01-.31.02.12-.02.13.09.23.06-.08.06-.04.05-.15.09.18-.02.04.04.15.06-.08.08-.17.04-.1.11-.05.05-.12-.01-.12-.01ZM110.31,307.68h0s-.01-.03-.01-.03c0,0,0,.02.02.03ZM110.35,307.82s0-.04-.01-.06c.03-.01.07-.02.07,0-.03,0-.04.04-.06.07ZM110.98,307.34s0,.03-.02.04c0-.01-.01-.02-.02-.04h-.01s.04,0,.05,0Z"/><path class="cls-9" d="M110.84,307.34s0,0,0,0c0,0-.01.01-.02.02h.03s0-.01,0-.01Z"/><path class="cls-9" d="M105.04,309.47h0s0,0,0-.01c0,0,0,0,0,.01Z"/><polygon class="cls-9" points="110.65 309.82 110.67 309.81 110.65 309.8 110.65 309.82"/><path class="cls-9" d="M104.65,308.68s0-.02,0-.03c0,0,0,.02,0,.03Z"/><path class="cls-9" d="M104.39,308.44v-.06s0,.05,0,.06Z"/><path class="cls-9" d="M104.22,308.23s-.02.02-.03.03h0s.03-.03.03-.03Z"/><path class="cls-9" d="M107.61,310.77s0,0,.01,0c.03,0,.01,0-.01,0Z"/><path class="cls-9" d="M106.46,310.2s.04-.01.06-.01c-.01-.02-.03-.03-.06.01Z"/><polygon class="cls-9" points="108.82 311.44 108.82 311.44 108.83 311.44 108.82 311.44"/><path class="cls-9" d="M106.57,310.23s-.02-.04-.04-.04c.01.02.02.04.04.04Z"/><path class="cls-9" d="M103.33,307.47h0s0,0-.01,0h.02Z"/><path class="cls-9" d="M103.31,307.47h-.02s.01,0,.02,0Z"/><path class="cls-9" d="M103.25,307.48h.04s-.02-.02-.04,0Z"/><path class="cls-9" d="M103.58,307.73l.03-.03s-.02.01-.03.03Z"/><path class="cls-9" d="M103.67,307.78s0-.1-.04-.11l-.02.02s0,.12.07.09Z"/><path class="cls-9" d="M103.74,308.43l-.05-.08s-.03.1-.07.08c.01.16.04-.09.12,0Z"/><path class="cls-9" d="M103.92,308.65s-.04.05-.05.06c.05,0,.06-.01.05-.06Z"/><path class="cls-9" d="M105.48,309.93l-.06.07s.02-.03.06-.07Z"/><polygon class="cls-9" points="106.09 309.79 106.1 309.72 106.03 309.78 106.09 309.79"/><polygon class="cls-9" points="105.85 310.46 105.83 310.46 105.9 310.47 105.85 310.46"/><path class="cls-9" d="M108.68,312.42l.05-.11s-.1.12-.05.11Z"/><path class="cls-9" d="M110.08,313c0,.06.02.11.06.07-.03-.02-.04-.08-.06-.07Z"/><polygon class="cls-9" points="111.65 309.99 111.7 310.02 111.65 309.97 111.65 309.99"/><path class="cls-3" d="M171.98,138.72v-4.39h-1.61v-.76h2.56v5.2c0,.65.37.91.88.91.25,0,.53-.06.84-.2l.23.71c-.45.18-.76.27-1.29.27-1.05,0-1.61-.62-1.61-1.75Z"/><path class="cls-3" d="M176.07,138.01c0-1.52,1.15-2.44,2.4-2.44,1.37,0,2.15.9,2.15,2.21,0,.2-.02.4-.04.52h-3.85v-.7h3.25l-.21.23c0-1.01-.49-1.52-1.28-1.52s-1.49.6-1.49,1.71.72,1.71,1.73,1.71c.52,0,.94-.16,1.37-.41l.33.6c-.48.32-1.1.55-1.82.55-1.42,0-2.54-.9-2.54-2.46Z"/><path class="cls-3" d="M181.91,139.12c0-1.05.95-1.56,3.31-1.74-.03-.58-.34-1.04-1.18-1.04-.56,0-1.12.26-1.58.53l-.36-.64c.52-.32,1.3-.66,2.11-.66,1.29,0,1.96.74,1.96,1.97v2.82h-.79l-.08-.61h-.03c-.5.39-1.15.72-1.79.72-.89,0-1.58-.53-1.58-1.35ZM185.22,139.09v-1.09c-1.84.13-2.38.5-2.38,1.06,0,.47.42.66.92.66s.97-.23,1.46-.63Z"/><path class="cls-3" d="M187.36,135.68h.97l.99,2.53c.17.47.34.94.49,1.4h.04c.16-.46.3-.93.49-1.4l.99-2.53h.92l-1.88,4.67h-1.08l-1.92-4.67Z"/><path class="cls-3" d="M193.28,138.01c0-1.52,1.15-2.44,2.4-2.44,1.37,0,2.15.9,2.15,2.21,0,.2-.02.4-.04.52h-3.85v-.7h3.25l-.21.23c0-1.01-.49-1.52-1.28-1.52s-1.49.6-1.49,1.71.72,1.71,1.73,1.71c.52,0,.94-.16,1.37-.41l.33.6c-.48.32-1.1.55-1.82.55-1.42,0-2.54-.9-2.54-2.46Z"/><path class="cls-3" d="M200.65,138.72v-4.39h-1.61v-.76h2.56v5.2c0,.65.37.91.88.91.25,0,.53-.06.84-.2l.23.71c-.45.18-.76.27-1.29.27-1.05,0-1.61-.62-1.61-1.75Z"/><path class="cls-3" d="M204.91,136.85h4.19v.7h-4.19v-.7Z"/><path class="cls-3" d="M210.76,139.57h1.73v-4.23h-1.36v-.61c.74-.1,1.2-.25,1.61-.48h.71v5.31h1.54v.78h-4.22v-.78Z"/><path class="cls-3" d="M139.2,197.36v-4.39h-1.61v-.76h2.56v5.2c0,.65.37.91.88.91.25,0,.53-.06.84-.2l.23.71c-.45.18-.76.27-1.29.27-1.05,0-1.61-.62-1.61-1.75Z"/><path class="cls-3" d="M143.3,196.65c0-1.52,1.15-2.44,2.4-2.44,1.37,0,2.15.9,2.15,2.21,0,.2-.02.4-.04.52h-3.85v-.7h3.25l-.21.23c0-1.01-.49-1.52-1.28-1.52s-1.49.6-1.49,1.71.72,1.71,1.73,1.71c.52,0,.94-.16,1.37-.41l.33.6c-.48.32-1.1.55-1.82.55-1.42,0-2.54-.9-2.54-2.46Z"/><path class="cls-3" d="M149.14,197.76c0-1.05.95-1.56,3.31-1.74-.03-.58-.34-1.04-1.18-1.04-.56,0-1.12.26-1.58.53l-.36-.64c.52-.32,1.3-.66,2.11-.66,1.29,0,1.96.74,1.96,1.97v2.82h-.79l-.08-.61h-.03c-.5.39-1.15.72-1.79.72-.89,0-1.58-.53-1.58-1.35ZM152.45,197.72v-1.09c-1.84.13-2.38.5-2.38,1.06,0,.47.42.66.92.66s.97-.23,1.46-.63Z"/><path class="cls-3" d="M154.59,194.32h.97l.99,2.53c.17.47.34.94.49,1.4h.04c.16-.46.3-.93.49-1.4l.99-2.53h.92l-1.88,4.67h-1.08l-1.92-4.67Z"/><path class="cls-3" d="M160.51,196.65c0-1.52,1.15-2.44,2.4-2.44,1.37,0,2.15.9,2.15,2.21,0,.2-.02.4-.04.52h-3.85v-.7h3.25l-.21.23c0-1.01-.49-1.52-1.28-1.52s-1.49.6-1.49,1.71.72,1.71,1.73,1.71c.52,0,.94-.16,1.37-.41l.33.6c-.48.32-1.1.55-1.82.55-1.42,0-2.54-.9-2.54-2.46Z"/><path class="cls-3" d="M167.88,197.36v-4.39h-1.61v-.76h2.56v5.2c0,.65.37.91.88.91.25,0,.53-.06.84-.2l.23.71c-.45.18-.76.27-1.29.27-1.05,0-1.61-.62-1.61-1.75Z"/><path class="cls-3" d="M172.14,195.49h4.19v.7h-4.19v-.7Z"/><path class="cls-3" d="M177.76,198.44c1.98-1.73,3.12-2.79,3.12-3.77,0-.67-.41-1.12-1.24-1.12-.55,0-1.02.32-1.4.7l-.54-.53c.58-.58,1.18-.94,2.06-.94,1.24,0,2.03.73,2.03,1.83s-1.12,2.24-2.65,3.62c.37-.03.78-.05,1.13-.05h1.86v.81h-4.37v-.56Z"/><path class="cls-3" d="M172.62,254.76v-4.39h-1.61v-.76h2.56v5.2c0,.65.37.91.88.91.25,0,.53-.06.84-.2l.23.71c-.45.18-.76.27-1.29.27-1.05,0-1.61-.62-1.61-1.75Z"/><path class="cls-3" d="M176.72,254.05c0-1.52,1.15-2.44,2.4-2.44,1.37,0,2.15.9,2.15,2.21,0,.2-.02.39-.04.52h-3.85v-.7h3.25l-.21.23c0-1.01-.49-1.52-1.28-1.52s-1.49.6-1.49,1.71.72,1.71,1.73,1.71c.52,0,.94-.16,1.37-.41l.33.6c-.48.32-1.1.55-1.82.55-1.42,0-2.54-.9-2.54-2.46Z"/><path class="cls-3" d="M182.56,255.16c0-1.05.95-1.56,3.31-1.74-.03-.58-.34-1.04-1.18-1.04-.56,0-1.12.26-1.58.53l-.36-.64c.52-.32,1.3-.66,2.11-.66,1.29,0,1.96.74,1.96,1.97v2.82h-.79l-.08-.61h-.03c-.5.39-1.15.72-1.79.72-.89,0-1.58-.53-1.58-1.35ZM185.87,255.13v-1.09c-1.84.13-2.38.5-2.38,1.06,0,.47.42.66.92.66s.97-.23,1.46-.63Z"/><path class="cls-3" d="M188.01,251.72h.97l.99,2.53c.17.47.34.94.49,1.4h.04c.16-.46.3-.93.49-1.4l.99-2.53h.92l-1.88,4.67h-1.08l-1.92-4.67Z"/><path class="cls-3" d="M193.93,254.05c0-1.52,1.15-2.44,2.4-2.44,1.37,0,2.15.9,2.15,2.21,0,.2-.02.39-.04.52h-3.85v-.7h3.25l-.21.23c0-1.01-.49-1.52-1.28-1.52s-1.49.6-1.49,1.71.72,1.71,1.73,1.71c.52,0,.94-.16,1.37-.41l.33.6c-.48.32-1.1.55-1.82.55-1.42,0-2.54-.9-2.54-2.46Z"/><path class="cls-3" d="M201.3,254.76v-4.39h-1.61v-.76h2.56v5.2c0,.65.37.91.88.91.25,0,.53-.06.84-.2l.23.71c-.45.18-.76.27-1.29.27-1.05,0-1.61-.62-1.61-1.75Z"/><path class="cls-3" d="M205.56,252.89h4.19v.7h-4.19v-.7Z"/><path class="cls-3" d="M211.03,255.65l.47-.61c.4.38.96.69,1.68.69.79,0,1.37-.39,1.37-1.01,0-.68-.56-1.12-2.11-1.12v-.7c1.38,0,1.91-.46,1.91-1.05,0-.54-.47-.88-1.15-.88-.55,0-1.04.24-1.45.59l-.5-.59c.53-.45,1.2-.77,1.98-.77,1.2,0,2.08.57,2.08,1.58,0,.71-.52,1.17-1.27,1.43v.04c.8.18,1.47.7,1.47,1.53,0,1.09-1.03,1.75-2.26,1.75-1.05,0-1.76-.39-2.22-.86Z"/><path class="cls-3" d="M139.85,313.52v-4.39h-1.61v-.76h2.56v5.2c0,.65.37.91.88.91.25,0,.53-.06.84-.2l.23.71c-.45.18-.76.27-1.29.27-1.05,0-1.61-.62-1.61-1.75Z"/><path class="cls-3" d="M143.95,312.81c0-1.52,1.15-2.44,2.4-2.44,1.37,0,2.15.9,2.15,2.21,0,.2-.02.39-.04.52h-3.85v-.7h3.25l-.21.23c0-1.01-.49-1.52-1.28-1.52s-1.49.6-1.49,1.71.72,1.71,1.73,1.71c.52,0,.94-.16,1.37-.41l.33.6c-.48.32-1.1.55-1.82.55-1.42,0-2.54-.9-2.54-2.46Z"/><path class="cls-3" d="M149.78,313.92c0-1.05.95-1.56,3.31-1.74-.03-.58-.34-1.04-1.18-1.04-.56,0-1.12.26-1.58.53l-.36-.64c.52-.32,1.3-.66,2.11-.66,1.29,0,1.96.74,1.96,1.97v2.82h-.79l-.08-.61h-.03c-.5.39-1.15.72-1.79.72-.89,0-1.58-.53-1.58-1.35ZM153.1,313.89v-1.09c-1.84.13-2.38.5-2.38,1.06,0,.47.42.66.92.66s.97-.23,1.46-.63Z"/><path class="cls-3" d="M155.23,310.48h.97l.99,2.53c.17.47.34.94.49,1.4h.04c.16-.46.3-.93.49-1.4l.99-2.53h.92l-1.88,4.67h-1.08l-1.92-4.67Z"/><path class="cls-3" d="M161.16,312.81c0-1.52,1.15-2.44,2.4-2.44,1.37,0,2.15.9,2.15,2.21,0,.2-.02.39-.04.52h-3.85v-.7h3.25l-.21.23c0-1.01-.49-1.52-1.28-1.52s-1.49.6-1.49,1.71.72,1.71,1.73,1.71c.52,0,.94-.16,1.37-.41l.33.6c-.48.32-1.1.55-1.82.55-1.42,0-2.54-.9-2.54-2.46Z"/><path class="cls-3" d="M168.53,313.52v-4.39h-1.61v-.76h2.56v5.2c0,.65.37.91.88.91.25,0,.53-.06.84-.2l.23.71c-.45.18-.76.27-1.29.27-1.05,0-1.61-.62-1.61-1.75Z"/><path class="cls-3" d="M172.78,311.65h4.19v.7h-4.19v-.7Z"/><path class="cls-3" d="M181.2,311.13c0-.35.03-.8.05-1.15h-.05c-.2.31-.43.62-.63.93l-1.46,1.87h3.88v.75h-4.88v-.64l2.91-3.83h1.07v6.1h-.89v-4.03Z"/><path class="cls-3" d="M109.74,372.19v-4.39h-1.61v-.76h2.56v5.2c0,.65.37.91.88.91.25,0,.53-.06.84-.2l.23.71c-.45.18-.76.27-1.29.27-1.05,0-1.61-.62-1.61-1.75Z"/><path class="cls-3" d="M113.83,371.48c0-1.52,1.15-2.44,2.4-2.44,1.37,0,2.15.9,2.15,2.21,0,.2-.02.4-.04.52h-3.85v-.7h3.25l-.21.23c0-1.01-.49-1.52-1.28-1.52s-1.49.6-1.49,1.71.72,1.71,1.73,1.71c.52,0,.94-.16,1.37-.41l.33.6c-.48.32-1.1.55-1.82.55-1.42,0-2.54-.9-2.54-2.46Z"/><path class="cls-3" d="M119.67,372.59c0-1.05.95-1.56,3.31-1.74-.03-.58-.34-1.04-1.18-1.04-.56,0-1.12.26-1.58.53l-.36-.64c.52-.32,1.3-.66,2.11-.66,1.29,0,1.96.74,1.96,1.97v2.82h-.79l-.08-.61h-.03c-.5.39-1.15.72-1.79.72-.89,0-1.58-.53-1.58-1.35ZM122.98,372.55v-1.09c-1.84.13-2.38.5-2.38,1.06,0,.47.42.66.92.66s.97-.24,1.46-.63Z"/><path class="cls-3" d="M125.12,369.15h.97l.99,2.53c.17.47.34.94.49,1.4h.04c.16-.46.3-.93.49-1.4l.99-2.53h.92l-1.88,4.67h-1.08l-1.92-4.67Z"/><path class="cls-3" d="M131.04,371.48c0-1.52,1.15-2.44,2.4-2.44,1.37,0,2.15.9,2.15,2.21,0,.2-.02.4-.04.52h-3.85v-.7h3.25l-.21.23c0-1.01-.49-1.52-1.28-1.52s-1.49.6-1.49,1.71.72,1.71,1.73,1.71c.52,0,.94-.16,1.37-.41l.33.6c-.48.32-1.1.55-1.82.55-1.42,0-2.54-.9-2.54-2.46Z"/><path class="cls-3" d="M138.41,372.19v-4.39h-1.61v-.76h2.56v5.2c0,.65.37.91.88.91.25,0,.53-.06.84-.2l.23.71c-.45.18-.76.27-1.29.27-1.05,0-1.61-.62-1.61-1.75Z"/><path class="cls-3" d="M142.67,370.32h4.19v.7h-4.19v-.7Z"/><path class="cls-3" d="M148.14,373.1l.46-.62c.41.36.9.68,1.65.68.81,0,1.45-.48,1.45-1.28s-.56-1.23-1.39-1.23c-.48,0-.76.11-1.19.35l-.47-.3.19-2.97h3.52v.82h-2.69l-.15,1.63c.33-.14.62-.22,1.04-.22,1.15,0,2.09.59,2.09,1.91s-1.1,2.08-2.29,2.08c-1.08,0-1.74-.4-2.22-.84Z"/><path d="M283.47,138.22v6.68h-4.28v-18h7.09c1.58,0,2.79.17,3.63.51.84.34,1.59.94,2.25,1.81.66.87.99,1.94.99,3.2,0,.89-.18,1.75-.53,2.6s-.85,1.51-1.49,1.99-1.26.8-1.87.96c-.6.16-1.54.24-2.83.24h-2.97ZM283.33,134.95h2.74c1.05,0,1.78-.24,2.2-.72s.63-1.04.63-1.66c0-.73-.24-1.31-.71-1.74-.47-.43-1.18-.65-2.14-.65h-2.73v4.77Z"/><path d="M282.71,170.17v7.13h-4.24v-18h7.91c1.46,0,2.63.17,3.51.51.88.34,1.62.96,2.2,1.86s.87,1.91.87,3.02c0,2.16-1.04,3.71-3.12,4.65l3.32,7.96h-4.66l-2.76-7.13h-3.02ZM282.71,162.51v4.59h2.58c.84,0,1.46-.06,1.84-.18.38-.12.72-.38,1.02-.79.3-.41.45-.88.45-1.4s-.15-.95-.45-1.34-.62-.64-.98-.73c-.35-.09-1.01-.14-1.98-.14h-2.49Z"/><path d="M287.97,191.7l5.63,18h-4.53l-1.11-3.71h-5.82l-1.13,3.71h-3.7l5.77-18h4.88ZM283.16,202.67h3.81l-1.89-6.31-1.92,6.31Z"/><path d="M293.38,230.8l-4.42.28c-.06-2.54-1.05-3.81-2.97-3.81-2.2,0-3.3,1.96-3.3,5.87,0,2.26.3,3.79.9,4.59.6.8,1.44,1.21,2.51,1.21,1.74,0,2.81-1.13,3.2-3.4l4.09.25c-.26,2.15-1.07,3.79-2.41,4.91-1.34,1.12-2.98,1.68-4.92,1.68-2.38,0-4.32-.82-5.81-2.47-1.49-1.64-2.23-3.92-2.23-6.82,0-2.72.72-4.94,2.16-6.67,1.44-1.73,3.41-2.6,5.91-2.6,4.32,0,6.76,2.33,7.3,6.97Z"/><path d="M292.14,256.5v3.56h-4.46v14.44h-4.27v-14.44h-4.48v-3.56h13.21Z"/><path d="M287.63,288.9v18h-4.21v-18h4.21Z"/><path d="M293.38,328l-4.42.28c-.06-2.54-1.05-3.81-2.97-3.81-2.2,0-3.3,1.96-3.3,5.87,0,2.26.3,3.79.9,4.59.6.8,1.44,1.21,2.51,1.21,1.74,0,2.81-1.13,3.2-3.4l4.09.25c-.26,2.15-1.07,3.79-2.41,4.91-1.34,1.12-2.98,1.68-4.92,1.68-2.38,0-4.32-.82-5.81-2.47-1.49-1.64-2.23-3.92-2.23-6.82,0-2.72.72-4.94,2.16-6.67,1.44-1.73,3.41-2.6,5.91-2.6,4.32,0,6.76,2.33,7.3,6.97Z"/><path d="M292.5,357.13h-8.57v3.69h6.74v3.39h-6.74v3.93h8.57v3.56h-12.85v-18h12.85v3.43Z"/><path d="M29.68,136.91h7.16v3.56h-11.43v-18h4.27v14.44Z"/><path d="M37.37,158.3h-8.57v3.69h6.74v3.39h-6.74v3.93h8.57v3.56h-12.85v-18h12.85v3.43Z"/><path d="M38.09,187.27l-5.44,18h-4.53l-5.41-18h4.49l3.6,12.87,3.75-12.87h3.53Z"/><path d="M37.37,223.1h-8.57v3.69h6.74v3.39h-6.74v3.93h8.57v3.56h-12.85v-18h12.85v3.43Z"/><path d="M29.68,266.51h7.16v3.56h-11.43v-18h4.27v14.44Z"/></svg>