<?xml version="1.0" encoding="UTF-8"?><svg id="Layer_1" xmlns="http://www.w3.org/2000/svg" viewBox="0 0 323.6 424"><defs><style>.cls-1{fill:#d8deea;}.cls-2{fill:#dbd63c;}.cls-3{fill:#ec6261;}.cls-4{fill:#40c1a3;}.cls-5{fill:#fff;}.cls-6{fill:#183e41;}.cls-7{fill:#cecddb;}.cls-8{opacity:.4;}.cls-9{fill:#fff980;}.cls-10{fill:#a9e1d4;}.cls-11{fill:#5f5e7d;}.cls-12{fill:#b1b0c5;}.cls-13{fill:#009458;}.cls-14{fill:#123233;}.cls-15{fill:#198794;}.cls-16{opacity:.5;}</style></defs><rect class="cls-9" x="-4.16" y="-6" width="331.56" height="433.33"/><rect class="cls-13" x="-4.16" y="11.67" width="331.56" height="64"/><path class="cls-2" d="M158.59,25.26l-3.19,1.07c-.43-1.27-1.34-1.9-2.72-1.9-1.48,0-2.22.48-2.22,1.44,0,.38.14.71.42.97.28.27.9.5,1.88.69,1.63.33,2.82.66,3.58,1s1.39.88,1.91,1.62c.52.75.78,1.58.78,2.5,0,1.45-.56,2.69-1.67,3.75s-2.76,1.58-4.95,1.58c-1.64,0-3.03-.37-4.19-1.12s-1.91-1.85-2.28-3.32l3.47-.79c.39,1.49,1.47,2.24,3.25,2.24.86,0,1.5-.17,1.92-.5s.63-.73.63-1.19-.19-.83-.57-1.09c-.38-.26-1.12-.5-2.21-.73-2.04-.42-3.49-1-4.35-1.73s-1.3-1.8-1.3-3.21.52-2.62,1.55-3.6,2.44-1.46,4.21-1.46c3.14,0,5.16,1.25,6.05,3.76Z"/><path class="cls-2" d="M172.9,24.79h-7.62v3.28h5.99v3.01h-5.99v3.49h7.62v3.16h-11.43v-16h11.43v3.05Z"/><path class="cls-2" d="M186.2,25.26l-3.19,1.07c-.43-1.27-1.34-1.9-2.72-1.9-1.48,0-2.22.48-2.22,1.44,0,.38.14.71.42.97.28.27.9.5,1.88.69,1.63.33,2.82.66,3.58,1s1.39.88,1.91,1.62c.52.75.78,1.58.78,2.5,0,1.45-.56,2.69-1.67,3.75s-2.76,1.58-4.95,1.58c-1.64,0-3.03-.37-4.19-1.12s-1.91-1.85-2.28-3.32l3.47-.79c.39,1.49,1.47,2.24,3.25,2.24.86,0,1.5-.17,1.92-.5s.63-.73.63-1.19-.19-.83-.57-1.09c-.38-.26-1.12-.5-2.21-.73-2.04-.42-3.49-1-4.35-1.73s-1.3-1.8-1.3-3.21.52-2.62,1.55-3.6,2.44-1.46,4.21-1.46c3.14,0,5.16,1.25,6.05,3.76Z"/><path class="cls-2" d="M200.14,25.26l-3.19,1.07c-.43-1.27-1.34-1.9-2.72-1.9-1.48,0-2.22.48-2.22,1.44,0,.38.14.71.42.97.28.27.9.5,1.88.69,1.63.33,2.82.66,3.58,1s1.39.88,1.91,1.62c.52.75.78,1.58.78,2.5,0,1.45-.56,2.69-1.67,3.75s-2.76,1.58-4.95,1.58c-1.64,0-3.03-.37-4.19-1.12s-1.91-1.85-2.28-3.32l3.47-.79c.39,1.49,1.47,2.24,3.25,2.24.86,0,1.5-.17,1.92-.5s.63-.73.63-1.19-.19-.83-.57-1.09c-.38-.26-1.12-.5-2.21-.73-2.04-.42-3.49-1-4.35-1.73s-1.3-1.8-1.3-3.21.52-2.62,1.55-3.6,2.44-1.46,4.21-1.46c3.14,0,5.16,1.25,6.05,3.76Z"/><path class="cls-2" d="M206.76,21.75v16h-3.74v-16h3.74Z"/><path class="cls-2" d="M215.98,37.99c-2.15,0-3.82-.81-5-2.43s-1.77-3.57-1.77-5.87.6-4.29,1.79-5.85,2.9-2.34,5.11-2.34,3.92.83,5.05,2.5,1.7,3.58,1.7,5.72c0,2.32-.59,4.28-1.76,5.87s-2.88,2.39-5.13,2.39ZM216.08,24.56c-1.96,0-2.95,1.73-2.95,5.18s.98,5.19,2.95,5.19,2.85-1.73,2.85-5.18-.95-5.19-2.85-5.19Z"/><path class="cls-2" d="M237.61,21.75v16h-3.2l-6.26-10.8c0,.27.02.45.02.54.03.27.05.5.05.69v9.57h-2.92v-16h4.04l5.44,9.43c-.05-.47-.07-.82-.07-1.07v-8.37h2.89Z"/><path class="cls-2" d="M153.48,50.55h4.88c1.99,0,3.47.28,4.45.83s1.85,1.42,2.62,2.61c.77,1.19,1.16,2.7,1.16,4.52,0,2.29-.68,4.2-2.03,5.74-1.35,1.54-3.21,2.3-5.58,2.3h-5.5v-16ZM157.16,53.49v10.04h1.54c1.36,0,2.38-.51,3.04-1.53.66-1.02.99-2.22.99-3.59,0-.97-.19-1.87-.57-2.69s-.85-1.4-1.41-1.73-1.24-.5-2.02-.5h-1.58Z"/><path class="cls-2" d="M180.47,53.59h-7.62v3.28h5.99v3.01h-5.99v3.49h7.62v3.16h-11.43v-16h11.43v3.05Z"/><path class="cls-2" d="M192.85,50.55v3.16h-3.96v12.83h-3.8v-12.83h-3.98v-3.16h11.74Z"/><path class="cls-2" d="M201.19,50.55l5.01,16h-4.03l-.99-3.29h-5.17l-1,3.29h-3.29l5.13-16h4.34ZM196.92,60.3h3.39l-1.68-5.61-1.71,5.61Z"/><path class="cls-2" d="M211.66,50.55v16h-3.74v-16h3.74Z"/><path class="cls-2" d="M218.67,63.38h6.36v3.16h-10.16v-16h3.8v12.83Z"/><path class="cls-2" d="M238.01,54.06l-3.19,1.07c-.43-1.27-1.34-1.9-2.72-1.9-1.48,0-2.22.48-2.22,1.44,0,.38.14.71.42.97.28.27.9.5,1.88.69,1.63.33,2.82.66,3.58,1s1.39.88,1.91,1.62c.52.75.78,1.58.78,2.5,0,1.45-.56,2.69-1.67,3.75s-2.76,1.58-4.95,1.58c-1.64,0-3.03-.37-4.19-1.12s-1.91-1.85-2.28-3.32l3.47-.79c.39,1.49,1.47,2.24,3.25,2.24.86,0,1.5-.17,1.92-.5s.63-.73.63-1.19-.19-.83-.57-1.09c-.38-.26-1.12-.5-2.21-.73-2.04-.42-3.49-1-4.35-1.73s-1.3-1.8-1.3-3.21.52-2.62,1.55-3.6,2.44-1.46,4.21-1.46c3.14,0,5.16,1.25,6.05,3.76Z"/><path class="cls-2" d="M12.29,58.64v-3.01h.67v3.01h-.67ZM12.8,56.2v-.57h1.57v.57h-1.57ZM12.8,57.45v-.57h1.5v.57h-1.5Z"/><path class="cls-2" d="M16.2,58.69c-.23,0-.44-.04-.63-.12s-.36-.19-.5-.33c-.15-.14-.26-.31-.34-.5-.08-.19-.12-.39-.12-.61s.04-.43.12-.61.19-.35.33-.49c.14-.14.31-.25.5-.33.19-.08.4-.12.63-.12s.43.04.62.12c.19.08.36.19.5.33s.26.3.33.49c.08.19.12.39.12.62s-.04.42-.12.61-.19.35-.33.49-.31.25-.5.33c-.19.08-.4.12-.62.12h0ZM16.19,58.08c.18,0,.34-.04.47-.12.13-.08.24-.19.31-.33s.11-.31.11-.5c0-.14-.02-.27-.06-.39-.04-.11-.1-.21-.18-.3-.08-.08-.17-.15-.28-.19-.11-.04-.23-.07-.36-.07-.18,0-.34.04-.47.12-.13.08-.24.19-.31.33s-.11.31-.11.5c0,.14.02.27.06.39s.1.22.18.3.17.15.28.19.23.07.37.07h0Z"/><path class="cls-2" d="M18.2,58.64v-3.01h.67v3.01h-.67ZM18.71,57.4v-.49h.63c.13,0,.24-.03.31-.1.07-.07.11-.16.11-.28,0-.11-.04-.2-.11-.27s-.17-.11-.31-.11h-.64v-.52h.72c.2,0,.37.04.52.11s.27.18.35.31c.09.13.13.29.13.46s-.04.33-.13.46-.2.24-.36.31c-.15.07-.33.11-.54.11h-.7ZM19.84,58.64l-.94-1.29.61-.17,1.12,1.46s-.79,0-.79,0Z"/><path class="cls-2" d="M23.06,58.64l1.19-3.01h.61l1.18,3.01h-.71l-.9-2.5h.24l-.92,2.5h-.7ZM23.74,58.09v-.55h1.64v.55h-1.64Z"/><path class="cls-2" d="M28.7,58.64v-3.01h.66v3.01h-.66ZM29.21,58.64v-.52h.71c.13,0,.23-.04.31-.11s.11-.17.11-.28c0-.08-.02-.15-.05-.2s-.08-.11-.14-.14-.14-.05-.22-.05h-.71v-.51h.65c.11,0,.2-.03.27-.08s.1-.14.1-.25-.03-.19-.1-.25-.16-.08-.27-.08h-.65v-.52h.78c.19,0,.36.04.49.11s.24.17.31.28.11.25.11.4c0,.18-.06.34-.18.47-.12.13-.3.22-.53.26l.02-.23c.25.05.45.15.59.29s.21.33.21.55c0,.16-.04.31-.12.45s-.2.24-.35.31c-.15.08-.33.11-.55.11h-.77,0Z"/><path class="cls-2" d="M31.43,58.64v-3.01h.67v3.01h-.67ZM31.95,57.4v-.49h.63c.13,0,.24-.03.31-.1s.11-.16.11-.28c0-.11-.04-.2-.11-.27s-.17-.11-.31-.11h-.64v-.52h.72c.2,0,.37.04.52.11.15.08.27.18.35.31.09.13.13.29.13.46s-.04.33-.13.46-.2.24-.36.31c-.15.07-.33.11-.54.11h-.69,0ZM33.07,58.64l-.94-1.29.61-.17,1.12,1.46h-.79Z"/><path class="cls-2" d="M34.15,58.64v-3.01h.67v3.01h-.67Z"/><path class="cls-2" d="M36.82,58.68c-.22,0-.42-.04-.62-.12s-.36-.19-.5-.33-.25-.3-.33-.49-.12-.39-.12-.61.04-.42.12-.61.2-.35.34-.49.32-.25.51-.33.41-.12.63-.12c.26,0,.49.05.71.14s.39.22.53.39l-.46.46c-.1-.13-.21-.22-.34-.28s-.28-.09-.44-.09c-.18,0-.33.04-.47.12-.14.08-.25.19-.33.33s-.12.3-.12.49.04.35.11.49.18.25.32.33.29.12.46.12.33-.03.45-.1c.12-.07.22-.16.29-.29s.1-.28.1-.46l.44.3-1.34-.02v-.57h1.58v.1c0,.36-.07.66-.19.91s-.31.43-.54.56c-.23.13-.49.19-.79.19h0Z"/><path class="cls-2" d="M38.74,58.64v-3.01h.67v3.01h-.67ZM39.15,57.38v-.58h1.68v.58h-1.68ZM40.61,58.64v-3.01h.67v3.01h-.67Z"/><path class="cls-2" d="M41.65,56.21v-.58h2.55v.58h-2.55ZM42.59,58.64v-2.97h.67v2.97h-.67Z"/><path class="cls-2" d="M46.94,58.64v-3.01h.67v3.01h-.67ZM47.45,56.2v-.57h1.57v.57h-1.57ZM47.45,57.45v-.57h1.5v.57h-1.5Z"/><path class="cls-2" d="M50.66,58.68c-.25,0-.47-.05-.65-.16s-.34-.25-.44-.44-.16-.4-.16-.64v-1.82h.67v1.86c0,.12.03.22.08.31s.12.16.21.2.19.07.3.07c.11,0,.21-.02.3-.07s.15-.11.2-.2.07-.19.07-.31v-1.87h.67v1.83c0,.24-.05.45-.16.63s-.25.33-.44.44c-.19.11-.4.16-.65.16h0Z"/><path class="cls-2" d="M52.22,56.21v-.58h2.55v.58h-2.55ZM53.16,58.64v-2.97h.67v2.97h-.67Z"/><path class="cls-2" d="M56.34,58.68c-.25,0-.47-.05-.65-.16-.19-.11-.34-.25-.44-.44s-.16-.4-.16-.64v-1.82h.67v1.86c0,.12.03.22.08.31s.12.16.21.2.19.07.3.07c.11,0,.21-.02.3-.07s.15-.11.2-.2.07-.19.07-.31v-1.87h.67v1.83c0,.24-.05.45-.16.63s-.25.33-.44.44c-.19.11-.4.16-.65.16h0Z"/><path class="cls-2" d="M58.12,58.64v-3.01h.67v3.01h-.67ZM58.64,57.4v-.49h.63c.13,0,.24-.03.31-.1s.11-.16.11-.28c0-.11-.04-.2-.11-.27-.07-.07-.17-.11-.31-.11h-.64v-.52h.72c.2,0,.37.04.52.11.15.08.27.18.35.31.09.13.13.29.13.46s-.04.33-.13.46-.2.24-.36.31c-.15.07-.33.11-.54.11h-.69,0ZM59.76,58.64l-.94-1.29.61-.17,1.12,1.46h-.79Z"/><path class="cls-2" d="M60.84,58.64v-3.01h.67v3.01h-.67ZM61.35,56.2v-.57h1.63v.57h-1.63ZM61.35,57.38v-.56h1.5v.56h-1.5ZM61.35,58.64v-.58h1.65v.58h-1.65Z"/><path class="cls-2" d="M12,28.64h2.56v25.66h-2.56v-25.66Z"/><path class="cls-2" d="M19.95,28.64h5.11c2.93,0,4.91.13,5.93.38,1.47.36,2.66,1.1,3.59,2.22.93,1.12,1.39,2.53,1.39,4.23s-.45,3.12-1.36,4.23c-.91,1.11-2.16,1.86-3.75,2.24-1.16.28-3.34.42-6.52.42h-1.83v11.93h-2.56v-25.66h0ZM22.52,31.16v8.7l4.34.05c1.76,0,3.04-.16,3.85-.48.81-.32,1.45-.84,1.92-1.55.46-.71.7-1.51.7-2.39s-.23-1.64-.7-2.36c-.47-.71-1.08-1.22-1.84-1.52-.76-.3-2.01-.45-3.74-.45h-4.53Z"/><path class="cls-2" d="M51.13,28.64l11.97,25.66h-2.77l-4.03-8.44h-11.05l-4,8.44h-2.86l12.12-25.66h.63ZM50.8,34.1l-4.4,9.29h8.77l-4.38-9.29h0Z"/><circle class="cls-2" cx="26.23" cy="48.73" r="2.27"/><circle class="cls-2" cx="17.16" cy="48.73" r="2.27"/><circle class="cls-2" cx="7.01" cy="48.73" r="2.27"/><circle class="cls-2" cx="39.83" cy="44.58" r="2.27"/><circle class="cls-2" cx="51.79" cy="44.58" r="2.27"/><circle class="cls-2" cx="30.4" cy="44.58" r="2.27"/><circle class="cls-2" cx="41.28" cy="35.68" r="2.27"/><circle class="cls-2" cx="27.68" cy="35.68" r="2.27"/><circle class="cls-2" cx="16.89" cy="35.68" r="2.27"/><path class="cls-1" d="M153.52,345.62s-31.96-181.65-75.28-167.3c-43.32,14.35,45.3,114.89,53.12,168.19l22.16-.89Z"/><path class="cls-7" d="M140.3,353.19S68.46,197.37,23.94,228.13c-44.52,30.76,72.9,88.45,92.27,134.81l24.09-9.75Z"/><g class="cls-8"><path class="cls-5" d="M126.85,358.78c-12.86-32.37-36.62-60.72-54.28-78.81-19.15-19.61-35.46-31.69-35.62-31.81l.75-1.3c.16.12,16.54,12.26,35.75,31.93,17.74,18.17,41.61,46.66,54.55,79.23l-1.15.76Z"/></g><path class="cls-10" d="M116.61,412.78c-13.98-2.34-3.33,2.46-20.18.43-4.02,6.58-23.53-1.87-29.12-12.45-7.13-13.49-7.31-10.5-31.55-9.81-17.38.49-17.16-14.72-22.75-26.59-.1-.22-.21-.43-.31-.65-2.18-4.41-5.25-8.3-10.43-10.65-5.5-2.5-11-5.89-15.67-9.79-.39-.32-.77-.65-1.15-.98-9.21-8.1-14.74-18.19-9.65-27.03.12-.21.25-.42.38-.62.92-1.45,2.14-2.87,3.69-4.23,16.08-14.2,29.1-6.38,44.73-1.51,8.65,2.69,22.94-6.7,36.13-10.22.19-.05.38-.1.57-.15,10.46-2.66,20.16-1.44,25.72,12.65,0,0,0,0,0,0,.11.29.23.57.34.85,12.49,31.06,22.29,22,45.05,30.78,4.23,1.64,8.01,3.31,10.27,6.03,21.07,25.3.32,52.92-26.08,63.94Z"/><path class="cls-5" d="M122.78,385.18l1-.96c-.42-.44-43.65-44.51-147.8-69.63l-.33,1.35c103.76,25.03,146.71,68.81,147.13,69.25Z"/><path class="cls-5" d="M66.4,330.65c16.5-9.44,21.07-18.77,21.25-19.17l-1.26-.6c-.04.09-4.61,9.36-20.69,18.56l.69,1.21Z"/><path class="cls-5" d="M60.84,344.78c5.36-6,7.13-15.93,5.11-28.72-1.51-9.58-4.64-17.51-4.67-17.59l-1.29.51c.12.31,12.14,31.09-.19,44.88l1.04.93Z"/><path class="cls-5" d="M33.8,336.45c1.94-1.02,3.02-1.72,3.07-1.75l-.77-1.16c-.23.15-23.03,14.9-50.48,8.08l-.33,1.35c22.12,5.5,41.28-2.72,48.51-6.51Z"/><path class="cls-5" d="M13.42,364.92c7.83-5.67,11.15-12.31,12.56-16.88,1.53-4.98,1.2-8.58,1.19-8.73l-1.38.13c.01.14,1.16,13.97-13.18,24.35l.82,1.13Z"/><ellipse class="cls-1" cx="186.02" cy="408.66" rx="198.07" ry="27.61"/><path class="cls-6" d="M280.47,396.46H121c-6.54,0-11.89-5.2-12.08-11.73l-7.93-270.53c-.2-6.81,5.27-12.44,12.08-12.44h174.41c6.8,0,12.26,5.61,12.08,12.4l-7.02,270.53c-.17,6.55-5.53,11.77-12.08,11.77Z"/><path class="cls-7" d="M114.3,363.4l-3.86-241.82c-.1-6.2,4.9-11.29,11.11-11.29h159.84c6.26,0,11.29,5.17,11.1,11.43l-7.07,241.82c-.18,6.01-5.1,10.78-11.1,10.78H125.41c-6.07,0-11.01-4.87-11.11-10.93Z"/><g class="cls-16"><path class="cls-12" d="M140.93,222.84l109.28,1.91c3.14.05,5.7-2.47,5.7-5.6v-63.07c0-3.14-2.57-5.75-5.7-5.8l-109.28-1.91c-3.14-.05-5.7,2.47-5.7,5.6v63.07c0,3.14,2.57,5.75,5.7,5.8Z"/></g><path class="cls-4" d="M165.16,202.76l109.28,1.91c3.14.05,5.7-2.47,5.7-5.6v-63.07c0-3.14-2.57-5.75-5.7-5.8l-109.28-1.91c-3.14-.05-5.7,2.47-5.7,5.6v63.07c0,3.14,2.57,5.75,5.7,5.8Z"/><path class="cls-1" d="M262.49,320.42l-124.25-4.94c-4.39-.17-7.8-2.24-7.8-4.73v-22.64c0-2.57,3.63-4.68,8.18-4.74l125.14-1.69c4.76-.06,8.66,2.13,8.58,4.82l-.89,29.27c-.08,2.72-4.18,4.84-8.97,4.65Z"/><path class="cls-1" d="M268.34,367.34l-50.55-4.94c-1.79-.17-3.17-2.24-3.17-4.73v-22.64c0-2.57,1.48-4.68,3.33-4.74l50.91-1.69c1.94-.06,3.52,2.13,3.49,4.82l-.36,29.27c-.03,2.72-1.7,4.84-3.65,4.65Z"/><path class="cls-1" d="M197.74,365.3l-50.55-4.94c-1.79-.17-3.17-2.24-3.17-4.73v-22.64c0-2.57,1.48-4.68,3.33-4.74l50.91-1.69c1.94-.06,3.52,2.13,3.49,4.82l-.36,29.27c-.03,2.72-1.7,4.84-3.65,4.65Z"/><path class="cls-1" d="M268.34,273.55l-50.55-4.94c-1.79-.17-3.17-2.24-3.17-4.73v-22.64c0-2.57,1.48-4.68,3.33-4.74l50.91-1.69c1.94-.06,3.52,2.13,3.49,4.82l-.36,29.27c-.03,2.72-1.7,4.84-3.65,4.65Z"/><path class="cls-1" d="M197.74,271.51l-50.55-4.94c-1.79-.17-3.17-2.24-3.17-4.73v-22.64c0-2.57,1.48-4.68,3.33-4.74l50.91-1.69c1.94-.06,3.52,2.13,3.49,4.82l-.36,29.27c-.03,2.72-1.7,4.84-3.65,4.65Z"/><rect class="cls-3" x="195.96" y="193.79" width="3.52" height="10.48" rx=".33" ry=".33" transform="translate(290.98 463.63) rotate(-154.61)"/><rect class="cls-3" x="193.31" y="191.39" width="3.52" height="10.92" rx=".33" ry=".33" transform="translate(286.9 458.32) rotate(-154.61)"/><path class="cls-3" d="M188.43,208.03l.5-.12c.94-.22,1.53-1.17,1.31-2.11l-2.14-9.17c-.22-.94-1.47-2.37-2.41-2.15-1.55.37-1.74,2.12-1.52,3.06l2.14,9.17c.22.94,1.17,1.53,2.11,1.31Z"/><path class="cls-3" d="M189.25,200.43l.28.13c.82.39,1.82.04,2.21-.79l5.01-10.56c.39-.82.96-2.77-.57-3.33-1.12-.41-2.22,1.56-2.85,2.82-1.26,2.53-4.87,9.51-4.87,9.51-.39.82-.04,1.82.79,2.21Z"/><path class="cls-3" d="M195.04,210.99s7.18-6.31,7.58-12.2c.14-2.04-8.93-6.33-10.72-4.9-1.79,1.43-5.61,10.04-5.61,10.04l8.74,7.06Z"/><path class="cls-3" d="M198.15,204.66l.75.35c.67.32.12,1.62.58,1.04,3.15-3.98,4.06-7.67,4.06-7.67.32-.67.03-1.88-.64-2.2l-.67-.2c-.67-.32-1.55.22-1.86.89l-2.85,6c-.32.67-.03,1.47.64,1.79Z"/><path class="cls-14" d="M144.32,400.39s.25,4.88,3.59,6.17c3.34,1.29,12.94,2.27,9.45,5.51-2,1.86-11.7.95-14.43,1.03-2.73.07-5.26,1.33-7.34-.44-2.29-1.95-.32-12.02-.32-12.02,0,0,2.39,1.16,4.51,1.05,3.05-.16,4.55-1.3,4.55-1.3Z"/><path class="cls-11" d="M168.28,277.43c-.64,10.13-1.84,23.27-4.07,39.35-4.25,30.64-9.41,61.55-11.96,76.36-.91,5.3-5.24,9.27-10.49,9.63l-2.82.19c-5.68.38-10.42-4.38-10.16-10.19l4.44-99.9.42-15.89s35.68-16.16,34.64.45Z"/><path class="cls-14" d="M113.04,401.23s.25,4.88,3.59,6.17c3.34,1.29,12.94,2.27,9.45,5.51-2,1.86-11.7.95-14.43,1.03-2.73.07-5.26,1.33-7.34-.44-2.29-1.95-.32-12.02-.32-12.02,0,0,2.39,1.16,4.51,1.05,3.05-.16,4.55-1.3,4.55-1.3Z"/><path class="cls-11" d="M137.57,253.16s1.25,22.01-4.64,64.46c-4.25,30.64-9.41,61.55-11.96,76.36-.91,5.3-5.24,9.27-10.49,9.63l-2.82.19c-5.68.38-10.42-4.38-10.16-10.19l4.44-99.9.87-32.86,34.75-7.69Z"/><path class="cls-6" d="M131.55,326.26c-.02-.18-2.43-18.19-4.24-24.64-1.79-6.39-10.1-11.94-10.19-12l.24-.36c.09.06,8.53,5.7,10.36,12.24,1.82,6.48,4.23,24.52,4.25,24.7l-.42.06Z"/><path class="cls-3" d="M131.42,185.5l2.2-6.59.64-1.92,3.76-11.27.49,11.21.3,6.73.09,2.13c.06,1.45,1.01,1.75,2.17,3.01.47.51,3.46,3.6.06,4.99-4.24,1.74-12.15-.89-15.16-4.34.02,0,4.74-1.83,5.45-3.96Z"/><ellipse class="cls-3" cx="137.45" cy="169.93" rx="10.77" ry="12.11" transform="translate(-32.85 32.94) rotate(-12.22)"/><path class="cls-6" d="M143.52,165.72c6.17.22,9.16-3.09,9.23-6.15.09-3.92-2.57-7.4-5.67-5.94-3.1,1.46-1.77-2.12-4.75-2.5-5.57-.71-6.61,2.97-11.17,3.15-6.01.24-12.86,9.54-7.83,16.32,0,0,15.31-5.05,20.18-4.88Z"/><path class="cls-6" d="M149.01,161.76s-6.59,5.89-5.72,9.21c.87,3.32.65,4.61-3.2,6.38-3.85,1.77-.45,4.64-5.58,4.85-5.13.21-11.41-5.42-11.41-14.68,0-5.16,3.19-8.54,3.19-8.54l22.72,2.77Z"/><path class="cls-3" d="M146.62,170.82c-.75-.98-2.12-1.28-3.07-.66-.95.62-1.11,1.92-.36,2.9.75.98,2.12,1.28,3.07.66.95-.62,1.11-1.92.36-2.9Z"/><path class="cls-6" d="M120.87,173.15s-.02,0-.04,0c-.08-.02-.13-.1-.11-.18.33-1.38,1.69-2.13,1.74-2.16.07-.04.17-.01.21.06.04.07.01.17-.06.21-.01,0-1.3.72-1.59,1.97-.02.07-.08.12-.15.12Z"/><path class="cls-6" d="M122.54,170.37s0,0,0,0c-.08,0-1.92-.13-2.21-1.55-.02-.08.04-.16.12-.18.08-.02.16.04.18.12.24,1.19,1.91,1.31,1.92,1.31.08,0,.15.08.14.16,0,.08-.07.14-.15.14Z"/><path class="cls-6" d="M146.15,153.4c-.21,0-.41-.06-.59-.19-.79-.54-.96-2.09-.97-2.16,0-.08.05-.16.14-.17.09-.01.16.05.17.14,0,.01.16,1.48.83,1.94.2.13.41.17.67.1.47-.13.83-.36,1.18-.59.69-.44,1.4-.9,2.83-.47.08.02.13.11.1.19-.02.08-.11.13-.19.1-1.29-.39-1.89,0-2.57.44-.37.24-.75.48-1.26.62-.11.03-.22.05-.33.05Z"/><path class="cls-6" d="M131.64,153.79c-.23,0-.46-.02-.7-.05-.08-.01-.14-.09-.13-.17.01-.08.09-.14.17-.13,2.36.35,4.39-1.39,4.41-1.41.06-.06.16-.05.22.01.06.06.05.16-.01.22-.08.07-1.77,1.54-3.95,1.54Z"/><path class="cls-6" d="M144.97,174.16c-.52,0-1.42-.21-2.09-1.46-.02-.04,0-.08.03-.1.04-.02.08,0,.1.03.95,1.75,2.29,1.36,2.34,1.34.04-.01.08,0,.09.05.01.04,0,.08-.05.09,0,0-.17.05-.42.05Z"/><path class="cls-6" d="M168.28,277.43s-44.74-2.44-65.98,2.67l-.32-6.05,29.77-8.82,24.04.59,7.38,1.58,5.21,8.05-.11,1.98Z"/><path class="cls-15" d="M106.28,203.7s3.94-16.93,28.03-16.93c41.98,0,30.21,34.24,34.09,88.68,0,0-27.07-5.87-66.23,1.94,0,0-3.81-29.48,1.11-54.41,1.3-6.58,1.07-13.56,3-19.28Z"/><path class="cls-15" d="M139.14,186.76s13.47.2,23.48,9.65c10.01,9.45,22.91,22.47,25.65,29.96,3.37,9.22-2.83,18.48-10.71,18.68-7.88.2-14.94-5.51-14.94-5.51l-23.48-52.77Z"/><path class="cls-15" d="M79.5,236.58c3.94-29.14,37.13-45.6,37.13-45.6l7.08,36.55-13.82,4.39c-7.11,2.26-10.02,10.78-5.71,16.87,5.5,7.77,8.72,18.2,3.04,16.28-9.71-3.28-29.68-15.69-27.71-28.49Z"/><path class="cls-6" d="M100.92,264.11c-1.17-21.39,2.62-43.28,2.65-43.5l.29.05c-.04.22-3.82,22.08-2.65,43.43l-.29.02Z"/><path class="cls-6" d="M167.29,242.61c-7.96-4.69-18.29-17.03-18.39-17.16l.23-.19c.1.12,10.4,12.42,18.32,17.09l-.15.25Z"/><path class="cls-15" d="M170.86,212.76s10.18-10.61,13.73-11.33c3.56-.72,24.06,4.93,1.56,39.08l-15.29-27.75Z"/></svg>