<?xml version="1.0" encoding="UTF-8"?>
<svg id="Layer_1" xmlns="http://www.w3.org/2000/svg" version="1.1" viewBox="0 0 384 384">
  <!-- Generator: Adobe Illustrator 29.5.0, SVG Export Plug-In . SVG Version: 2.1.0 Build 137)  -->
  <defs>
    <style>
      .st0 {
        fill: #e2a57b;
      }

      .st1 {
        fill: #d89668;
      }

      .st2 {
        fill: #d89568;
      }

      .st3 {
        fill: #e2a67b;
      }

      .st4 {
        fill: #848484;
      }

      .st5 {
        fill: #f1b890;
      }

      .st6 {
        fill: #6e6e6e;
      }

      .st7 {
        fill: #d5976c;
      }

      .st8 {
        fill: #fefefd;
      }

      .st9 {
        fill: #595959;
      }

      .st10 {
        fill: #fefdfd;
      }

      .st11 {
        fill: #fefefe;
      }

      .st12 {
        fill: #fdfdfd;
      }
    </style>
  </defs>
  <path class="st11" d="M86.25,346.5c87.61.36,175.25-.26,262.86-.01,17.88-2.05,30.79-15.12,34.89-32.24v69.75H0v-69.75c3.84,16.83,17.12,30.76,34.85,32.28,15.76,1.35,35.19-.09,51.4-.03Z"/>
  <path class="st11" d="M0,69.75V0h384v70.5l-4.36-12.51c-6.53-11.25-17.37-19.09-30.52-20.48-87.87.23-175.76-.35-263.61-.01-15.97.06-35.13-1.35-50.65-.03C17.21,38.98,3.65,52.9,0,69.75Z"/>
  <g>
    <path class="st3" d="M384,70.62v243.63c-4.09,17.12-17,30.19-34.89,32.24-87.62-.25-175.26.37-262.86.01-15.66-5.9-15.93-23.9-.75-30.75,1.75,0,3.5,0,5.25,0,3.49.01,7.01,0,10.5,0,28.49.07,57.01-.02,85.5,0,3.49,0,7.01,0,10.5,0,28.49-.02,57.01.07,85.5,0,3.49,0,7.01,0,10.5,0,15.57-.04,37.44,1.78,52.14.02,3.37-.4,6.61-5.47,6.61-5.47v-134.05l1-30.75-.36-71.12c-1.2-3.5-3.88-5.6-7.57-6.04-14.82-1.78-36.87.06-52.57.02-3.52,0-7.07,0-10.59,0-28.72-.07-57.48.02-86.2,0-3.52,0-7.07,0-10.59,0-28.72.02-57.48-.07-86.2,0-3.52,0-7.07,0-10.59,0-1.76,0-3.53,0-5.29,0-15.09-6.97-15.01-24.01,0-31,88.57-.34,177.17.24,265.76.01,13.26,1.4,24.19,9.3,30.77,20.64l4.4,12.61Z"/>
    <path class="st1" d="M83.5,37.95c-14.54,6.77-14.62,23.28,0,30.03-13.7.05-32.86-1.57-45.79-.02-5.11.61-7.49,4.17-7.7,9.14v68.39l1,31.5-.03,129.24c.52,5.92,2.64,8.74,8.72,9.42,13.49,1.5,32.35-.05,46.5,0-15.3,6.9-15.03,25.05.76,31-16.35-.07-35.94,1.39-51.82.03-17.87-1.53-31.26-15.57-35.13-32.54V69.45c3.56-16.45,16.8-30.05,34.03-31.52,15.16-1.3,33.87.09,49.47.03Z"/>
    <g>
      <path class="st5" d="M90,145.5c3.99-.01,8.01,0,12,0,27.99-.05,56.01.02,84,0,3.99,0,8.01,0,12,0,27.99.02,56.01-.06,84,0,3.99,0,8.01-.01,12,0,18.77.05,40.96-1.5,59.25,0,20.02,1.64,20.6,29.47,0,30.75-18.9,1.17-40.07-.05-59.25,0-3.99,0-8.01,0-12,0-27.99.06-56.01-.07-84,0-3.99.01-8.01,0-12,0-27.99.04-56.01-.14-84,0-3.74.02-7.51-.01-11.25,0l-5.25.75-7.08-5.3c-6.05-7.16-5.51-17.54,2.2-23.21,1.69-1.25,4.36-.88,4.13-2.99,1.75,0,3.5,0,5.25,0Z"/>
      <path class="st0" d="M30.75,145.5c17.06-1.18,36.63.05,54,0,.23,2.12-2.44,1.75-4.13,2.99-7.7,5.67-8.25,16.05-2.2,23.21l7.08,5.3c-17.63-1.21-37.38,1.62-54.75,0-20.77-1.93-20.63-30.07,0-31.5Z"/>
    </g>
  </g>
  <g>
    <g>
      <path class="st10" d="M282,176.25v23.25c-.1,0-.85.73-1.82.78-7.25.41-13.11-1.86-18.92,3.99-8.93,9-2.97,23.93,8.73,26.73-17.13,1.77-16.77,28.26-.75,30-9.11,4.17-14.89,11.51-11.09,21.97,3.98,10.97,14.55,9.32,23.84,9.53l.75,23.25c-28.49.07-57.01-.02-85.5,0l.75-23.25c1.25-.03,2.5.04,3.75,0,8.43-.25,18.26-.89,20.68-11.2,2.4-10.24-3.56-16.71-12.43-20.3,4.48-1.05,6.84-1.65,9.75-5.63,7.21-9.86,1.79-21.72-9.75-24.37,10.73-3.35,16.97-14.61,10.08-24.7-4.44-6.5-10.51-6.48-17.58-6.8-1.49-.07-3.01,0-4.5,0v-23.25c27.99-.07,56.01.06,84,0Z"/>
      <path class="st10" d="M186,176.25v23.25c-.1,0-.85.73-1.82.78-7.25.41-13.11-1.86-18.92,3.99-8.93,9-2.97,23.93,8.73,26.73-17.13,1.77-16.77,28.26-.75,30-9.11,4.17-14.89,11.51-11.09,21.97,3.98,10.97,14.55,9.32,23.84,9.53l.75,23.25c-28.49-.02-57.01.07-85.5,0l.75-23.25c1.25-.03,2.5.04,3.75,0,8.43-.25,18.26-.89,20.68-11.2,2.4-10.24-3.56-16.71-12.43-20.3,4.48-1.05,6.84-1.65,9.75-5.63,7.21-9.86,1.79-21.72-9.75-24.37,10.73-3.35,16.97-14.61,10.08-24.7-4.44-6.5-10.51-6.48-17.58-6.8-1.49-.07-3.01,0-4.5,0v-23.25c27.99-.14,56.01.04,84,0Z"/>
      <path class="st10" d="M353,176.55l-.58,133.48c-1.18,3.18-3.89,5.04-7.25,5.45-14.64,1.76-36.42-.06-51.92-.02l.75-23.15c1.24-.03,2.49.04,3.73,0,5.11-.15,7.86.58,12.72-1.84,9.86-4.89,11.34-19.01,2.58-25.79-2.32-1.8-5-1.88-7.09-3.74,4.53-.98,6.76-1.58,9.71-5.6,7.19-9.81,1.78-21.63-9.71-24.27,10.68-3.33,16.9-14.56,10.03-24.6-4.56-6.67-10.31-6.46-17.5-6.77-1.48-.06-2.99,0-4.48,0v-23.15c19.1-.05,40.18,1.17,59,0Z"/>
      <path class="st12" d="M91,176.29v23.24c-.43.02-1.49.69-2.58.75-6.4.36-11.47-1.58-16.92,2.6-11.37,8.72-6.11,24.67,6.76,28.13-16.97,1.75-16.84,28.24-.75,29.98-9.11,4.17-14.88,11.51-11.09,21.95,3.98,10.96,14.54,9.32,23.83,9.53l.75,23.24c-1.75,0-3.5,0-5.25,0-14.03-.05-32.73,1.49-46.1,0-6.03-.67-8.13-3.47-8.65-9.34l.03-129.34c17.36,1.62,37.11-1.2,54.72,0l5.25-.75Z"/>
    </g>
    <g>
      <path class="st8" d="M186.75,68.25l-.75,23.25c-7.05.15-13.63-1.42-19.44,3.43-9.54,7.96-5.73,25.42,6.36,27.27,3.11.48,9.76.78,13.08.8v22.5c-27.99.02-56.01-.05-84,0v-23.25c1.5-.01,3,.02,4.5,0,2.38-.04,5.46.51,8.45-.18,12.33-2.82,16.34-19.09,6.37-27.01-5.26-4.18-9.42-3.38-15.57-3.56-1.25-.04-2.5.03-3.75,0l-.75-23.25c28.49-.07,57.01.02,85.5,0Z"/>
      <path class="st8" d="M282.75,68.25l-.75,23.25c-7.05.15-13.63-1.42-19.44,3.43-7.96,6.64-7.17,19.81,1.67,25.21,4.37,2.67,12.53,2.87,17.77,2.86v22.5c-27.99-.06-56.01.02-84,0v-23.25c1.5-.04,3,.02,4.5,0,2.39-.03,5.46.51,8.45-.18,12.33-2.82,16.34-19.09,6.37-27.01-5.26-4.18-9.42-3.38-15.57-3.56-1.25-.04-2.5.03-3.75,0l-.75-23.25c28.49.02,57.01-.07,85.5,0Z"/>
      <path class="st10" d="M353.35,145.57c-18.32-1.5-40.56.05-59.35,0v-23.29c1.5-.04,3.01.02,4.51,0,2.39-.03,5.47.51,8.46-.18,12.35-2.83,16.37-19.13,6.38-27.06-5.27-4.19-9.44-3.38-15.59-3.57-1.25-.04-2.51.03-3.76,0l-.75-23.29c15.59.04,37.51-1.79,52.23-.02,3.66.44,6.33,2.53,7.52,6.01l.35,71.4Z"/>
      <path class="st10" d="M85.52,68.41c1.74,0,3.49,0,5.23,0l-.75,23.15c-7.14.15-13.8-1.47-19.66,3.68-7,6.14-7.11,16.98-.2,23.22,5.88,5.31,12.87,3.57,19.86,3.72v23.15c-1.74,0-3.49,0-5.23,0-17.3.05-36.79-1.17-53.77,0l-.03-67.62c.22-5.07,2.64-8.7,7.85-9.32,13.19-1.59,32.73.07,46.69.02Z"/>
    </g>
    <path class="st2" d="M294,292.5l-.75,23.25c-3.49,0-7.01,0-10.5,0l-.75-23.25c3.97.09,8.03.08,12,0Z"/>
    <path class="st2" d="M293.25,68.25l.75,23.25c-3.97-.08-8.03-.08-12,0l.75-23.25c3.49,0,7.01,0,10.5,0Z"/>
    <path class="st1" d="M294,176.25v23.25c-3.97-.02-8.04-.18-12,0v-23.25c3.99,0,8.01,0,12,0Z"/>
    <path class="st7" d="M294,122.25v23.25c-3.99-.01-8.01,0-12,0v-22.5c3.3-.01,8.16-.64,12-.75Z"/>
    <g>
      <path class="st2" d="M198,292.5l-.75,23.25c-3.49,0-7.01,0-10.5,0l-.75-23.25c3.97.09,8.03.08,12,0Z"/>
      <path class="st2" d="M197.25,68.25l.75,23.25c-3.97-.08-8.03-.08-12,0l.75-23.25c3.49,0,7.01,0,10.5,0Z"/>
      <path class="st1" d="M198,176.25v23.25c-3.97-.02-8.04-.18-12,0v-23.25c3.99,0,8.01.01,12,0Z"/>
      <path class="st7" d="M198,122.25v23.25c-3.99,0-8.01,0-12,0v-22.5c3.23.01,8.18-.65,12-.75Z"/>
    </g>
    <g>
      <path class="st2" d="M102,292.5l-.75,23.25c-3.49,0-7.01.01-10.5,0l-.75-23.25c3.97.09,8.03.08,12,0Z"/>
      <path class="st2" d="M101.25,68.25l.75,23.25c-3.97-.08-8.03-.08-12,0l.75-23.25c3.49,0,7.01,0,10.5,0Z"/>
      <path class="st7" d="M102,122.25v23.25c-3.99,0-8.01-.01-12,0v-23.25c3.98.08,8.02.03,12,0Z"/>
      <path class="st1" d="M102,176.51v22.73c-3.64-.01-7.37-.16-11,0v-22.73c3.66-.01,7.34.02,11,0Z"/>
    </g>
  </g>
  <g>
    <path class="st6" d="M90,91.5c3.97-.08,8.03-.08,12,0,1.25.03,2.5-.04,3.75,0l-7.38,7.25c-5.57,9.07-.89,19.17,8.13,23.5-1.5.02-3-.01-4.5,0-3.98.03-8.02.08-12,0-6.18-.13-12.35,1.2-17.77-2.11-8.84-5.4-9.63-18.57-1.67-25.21,5.81-4.85,12.39-3.29,19.44-3.43Z"/>
    <path class="st4" d="M106.5,122.25c-9.02-4.33-13.7-14.43-8.13-23.5l7.38-7.25c6.14.18,10.3-.62,15.57,3.56,9.97,7.92,5.96,24.19-6.37,27.01-2.98.68-6.06.14-8.45.18Z"/>
  </g>
  <g>
    <path class="st6" d="M186,91.5c3.97-.08,8.03-.08,12,0,1.25.03,2.5-.04,3.75,0l-7.38,7.25c-5.57,9.07-.89,19.17,8.13,23.5-1.5.02-3-.04-4.5,0-3.82.1-8.77.76-12,.75s-9.97-.32-13.08-.8c-12.09-1.85-15.9-19.31-6.36-27.27,5.81-4.85,12.39-3.29,19.44-3.43Z"/>
    <path class="st4" d="M202.5,122.25c-9.02-4.33-13.7-14.43-8.13-23.5l7.38-7.25c6.14.18,10.3-.62,15.57,3.56,9.97,7.92,5.96,24.19-6.37,27.01-2.98.68-6.06.14-8.45.18Z"/>
  </g>
  <g>
    <path class="st6" d="M198,199.5c1.49,0,3.01-.07,4.5,0-.33,2.07-3.44,2.58-5.25,4.12-7.13,6.05-7.05,17.16.06,23.2,4.59,3.9,7.56,3.01,12.69,4.18,11.54,2.65,16.96,14.51,9.75,24.37-2.91,3.98-5.27,4.58-9.75,5.63-2.49.59-5.31.51-7.92,1.45-8.68,3.13-12.72,13.71-8.24,21.83l7.91,8.21c-1.25.04-2.5-.03-3.75,0-3.97.08-8.03.09-12,0-9.29-.21-19.86,1.43-23.84-9.53-3.8-10.45,1.98-17.8,11.09-21.97,8.91.97,19.41-.71,28.5,0l-7.38-6.49c-5.43-8.47-1.21-19.93,8.14-23.13-9.19.01-19.38-1.32-28.51-.38-11.71-2.81-17.66-17.74-8.73-26.73,5.81-5.85,11.66-3.58,18.92-3.99.97-.05,1.71-.78,1.82-.78,3.96-.18,8.03-.02,12,0Z"/>
    <path class="st4" d="M210,261c8.86,3.59,14.82,10.06,12.43,20.3-2.41,10.31-12.24,10.95-20.68,11.2l-7.91-8.21c-4.48-8.13-.44-18.71,8.24-21.83,2.61-.94,5.43-.87,7.92-1.45Z"/>
    <path class="st4" d="M210,231c-5.13-1.18-8.1-.28-12.69-4.18-7.11-6.04-7.19-17.14-.06-23.2,1.81-1.54,4.92-2.05,5.25-4.12,7.07.31,13.13.29,17.58,6.8,6.89,10.09.65,21.36-10.08,24.7Z"/>
    <path class="st9" d="M174,231c9.13-.94,19.31.39,28.51.38-9.35,3.2-13.56,14.65-8.14,23.13l7.38,6.49c-9.09-.7-19.59.97-28.5,0-16.02-1.74-16.38-28.23.75-30Z"/>
  </g>
  <g>
    <path class="st6" d="M102,199.5c1.49,0,3.01-.07,4.5,0-.33,2.07-3.44,2.58-5.25,4.12-7.13,6.05-7.05,17.16.06,23.2,4.59,3.9,7.56,3.01,12.69,4.18,11.54,2.65,16.96,14.51,9.75,24.37-2.91,3.98-5.27,4.58-9.75,5.63-2.49.59-5.31.51-7.92,1.45-8.68,3.13-12.72,13.71-8.24,21.83l7.91,8.21c-1.25.04-2.5-.03-3.75,0-3.97.08-8.03.09-12,0-9.29-.21-19.86,1.43-23.84-9.53-3.8-10.45,1.98-17.8,11.09-21.97,8.91.97,19.41-.71,28.5,0l-7.38-6.49c-5.43-8.47-1.21-19.93,8.14-23.13-9.19.01-19.38-1.32-28.51-.38-12.88-3.46-18.14-19.42-6.77-28.14,5.46-4.19,10.53-2.25,16.93-2.6,1.1-.06,2.15-.74,2.59-.75,3.71-.16,7.53-.01,11.25,0Z"/>
    <path class="st4" d="M114,261c8.86,3.59,14.82,10.06,12.43,20.3-2.41,10.31-12.24,10.95-20.68,11.2l-7.91-8.21c-4.48-8.13-.44-18.71,8.24-21.83,2.61-.94,5.43-.87,7.92-1.45Z"/>
    <path class="st9" d="M78,231c9.13-.94,19.31.39,28.51.38-9.35,3.2-13.56,14.65-8.14,23.13l7.38,6.49c-9.09-.7-19.59.97-28.5,0-16.1-1.74-16.23-28.25.75-30Z"/>
    <path class="st4" d="M114,231c-5.13-1.18-8.1-.28-12.69-4.18-7.11-6.04-7.19-17.14-.06-23.2,1.81-1.54,4.92-2.05,5.25-4.12,7.07.31,13.13.29,17.58,6.8,6.89,10.09.65,21.36-10.08,24.7Z"/>
  </g>
  <g>
    <path class="st6" d="M282,91.5c3.97-.08,8.03-.08,12,0,1.25.03,2.5-.04,3.75,0l-7.38,7.25c-5.57,9.07-.89,19.17,8.13,23.5-1.5.02-3-.04-4.5,0-3.84.11-8.7.74-12,.75-5.24.02-13.4-.19-17.77-2.86-8.84-5.4-9.63-18.57-1.67-25.21,5.81-4.85,12.39-3.29,19.44-3.43Z"/>
    <path class="st4" d="M298.5,122.25c-9.02-4.33-13.7-14.43-8.13-23.5l7.38-7.25c6.14.18,10.3-.62,15.57,3.56,9.97,7.92,5.96,24.19-6.37,27.01-2.98.68-6.06.14-8.45.18Z"/>
  </g>
  <g>
    <path class="st6" d="M294,199.5c1.49,0,3.01-.06,4.5,0-.33,2.07-3.44,2.58-5.25,4.12-7.13,6.05-7.05,17.16.06,23.2,4.59,3.9,7.56,3.01,12.69,4.18,11.53,2.65,16.96,14.52,9.75,24.37-2.96,4.04-5.2,4.64-9.75,5.63-2.54.55-5.32.52-7.92,1.45-8.68,3.13-12.72,13.71-8.24,21.83l7.91,8.21c-1.25.04-2.5-.03-3.75,0-3.97.08-8.03.09-12,0-9.29-.21-19.86,1.43-23.84-9.53-3.8-10.45,1.98-17.8,11.09-21.97,8.91.97,19.41-.71,28.5,0l-7.38-6.49c-5.43-8.47-1.21-19.93,8.14-23.13-9.19.01-19.38-1.32-28.51-.38-11.71-2.81-17.66-17.74-8.73-26.73,5.81-5.85,11.66-3.58,18.92-3.99.97-.05,1.71-.78,1.82-.78,3.96-.18,8.03-.02,12,0Z"/>
    <path class="st9" d="M270,231c9.13-.94,19.31.39,28.51.38-9.35,3.2-13.56,14.65-8.14,23.13l7.38,6.49c-9.09-.7-19.59.97-28.5,0-16.02-1.74-16.38-28.23.75-30Z"/>
    <path class="st4" d="M306,261c2.1,1.86,4.79,1.95,7.12,3.75,8.79,6.81,7.31,20.98-2.6,25.9-4.89,2.43-7.64,1.7-12.78,1.85l-7.91-8.21c-4.48-8.13-.44-18.71,8.24-21.83,2.6-.94,5.38-.9,7.92-1.45Z"/>
    <path class="st4" d="M306,231c-5.13-1.18-8.1-.28-12.69-4.18-7.11-6.04-7.19-17.14-.06-23.2,1.81-1.54,4.92-2.05,5.25-4.12,7.23.31,13,.1,17.58,6.8,6.9,10.08.65,21.36-10.08,24.7Z"/>
  </g>
</svg>