<?xml version="1.0" encoding="UTF-8"?>
<svg xmlns="http://www.w3.org/2000/svg" version="1.1" xmlns:xlink="http://www.w3.org/1999/xlink" viewBox="0 0 468 291">
  <!-- Generator: Adobe Illustrator 29.5.0, SVG Export Plug-In . SVG Version: 2.1.0 Build 137)  -->
  <defs>
    <style>
      .st0 {
        fill: #85b8ed;
      }

      .st1 {
        fill: #3dc19a;
      }

      .st2 {
        stroke-width: 2.1px;
      }

      .st2, .st3, .st4, .st5, .st6, .st7 {
        fill: none;
      }

      .st2, .st3, .st5, .st6 {
        stroke-linecap: round;
      }

      .st2, .st3, .st5, .st6, .st7 {
        stroke-miterlimit: 10;
      }

      .st2, .st7 {
        stroke: #274d79;
      }

      .st3 {
        stroke: #001c45;
        stroke-width: 1.71px;
      }

      .st8 {
        fill: #ff9a8d;
      }

      .st9 {
        fill: #ba5964;
      }

      .st10 {
        fill: #001c45;
      }

      .st5 {
        stroke: #aaeeed;
        stroke-width: .92px;
      }

      .st6 {
        stroke: #3b55ce;
        stroke-width: 1.57px;
      }

      .st7 {
        stroke-width: .78px;
      }

      .st11 {
        fill: #91dbac;
      }

      .st12 {
        fill: #03aa99;
      }

      .st13 {
        fill: #638be2;
      }

      .st14 {
        fill: #8fc9c6;
      }

      .st15 {
        fill: #1e4174;
      }

      .st16 {
        fill: #faba50;
      }

      .st17 {
        fill: #3ed9c7;
      }

      .st18 {
        fill: #e09b36;
      }

      .st19 {
        fill: #4e7eac;
      }

      .st20 {
        clip-path: url(#clippath);
      }

      .st21 {
        fill: #aaeeed;
      }

      .st22 {
        fill: #3b55ce;
      }

      .st23 {
        fill: #000e5b;
      }
    </style>
    <clipPath id="clippath">
      <path class="st4" d="M311.36,227.79s-39.65-13.68-54.35-19.06c-14.7-5.39-36.24-16.16-44.75-7.11-8.51,9.05-1.4,22.52,19.07,29.85,20.47,7.33,78.27,9.58,78.27,9.58,1.77-4.3,2.34-8.72,1.76-13.26Z"/>
    </clipPath>
  </defs>
  <g id="Layer_15">
    <path class="st7" d="M334.9,83.4s13.71-16.54,39.98-6c26.28,10.54,52,53.8,28.09,106.15"/>
  </g>
  <g id="Layer_14">
    <path class="st12" d="M337.58,94.93c-1.2,3.09-13.15-1.56-11.95-4.65l1.67-4.3c1.28-3.3,5-4.93,8.3-3.65h0c3.3,1.28,4.93,5,3.65,8.3l-1.67,4.3Z"/>
  </g>
  <g id="Layer_13">
    <path class="st22" d="M325.63,90.28c-1.36,3.02,10.74,7.74,11.95,4.65.91-2.39-10.97-6.83-11.95-4.65Z"/>
  </g>
  <g id="Layer_12">
    <path class="st23" d="M330.35,92.6c-.13.39-.7.54-1.28.35-.58-.19-.94-.66-.81-1.05.13-.39.7-.54,1.28-.35.58.19.94.66.81,1.05Z"/>
  </g>
  <g id="Layer_11">
    <path class="st23" d="M334.59,94.17c-.13.39-.7.54-1.28.35-.58-.19-.94-.66-.81-1.05.13-.39.7-.54,1.28-.35.58.19.94.66.81,1.05Z"/>
  </g>
  <g id="Layer_10">
    <g>
      <path class="st1" d="M401.07,245.1s-5.17-1.42-8.53-6.15c-3.37-4.73-1.57-16.01,4.27-19.24,5.84-3.23,10.33-7.05,9.43-15.81-.9-8.76,2.02-15.72,9.43-16.62,7.41-.9,10.33-1.01,17.74-7.69,7.41-6.68,13.48-7.74,16.4-3.96,2.92,3.79.67,8.9-.9,13.42s4.04,9.13,5.17,13.67c1.12,4.55.22,10.41-5.62,13.65-5.84,3.24-9.88,5.84-9.21,11.73.67,5.89-2.7,14.83-15.27,16.99h-22.91Z"/>
      <path class="st6" d="M440.38,185.09s-27.36,21.47-32.21,60.01"/>
    </g>
  </g>
  <g id="Layer_9">
    <g>
      <path class="st11" d="M375.47,169.08c-4.31,2.71-4.04,7.41-3.82,13.37s-1.48,8.13-4.9,12.1c-3.41,3.97-1.57,10.03,4.36,12.73,5.93,2.7,11.1,6.86,7.95,13.87-3.14,7.01-2.02,19.78,13.48,23.95l19.93.05s13.99-8.15,15.78-23.01c1.8-14.86-10.11-16.18-13.48-21.13-3.37-4.96-2.37-11.72-2.31-18.56.06-6.84-5.1-10.3-12.07-9.92-6.96.38-9.68,0-13.27-2.47-3.59-2.46-8.06-3.24-11.66-.98Z"/>
      <path class="st6" d="M382.4,177.9c.04.2,24.24,16.64,23.05,67.12"/>
    </g>
  </g>
  <g id="Layer_8">
    <path class="st13" d="M438.34,248.02H25.9c-.87,0-1.57-.71-1.57-1.57h0c0-.87.71-1.58,1.57-1.58h412.44c.87,0,1.57.71,1.57,1.58h0c0,.87-.71,1.57-1.57,1.57Z"/>
  </g>
  <g id="Layer_6">
    <g>
      <g>
        <path class="st15" d="M231.33,231.47c3.37,2.71,12.99,13.6,49.73,13.6,10.25,0,21.32.43,30.31-2.01,23.24-6.31,38.46-14.76,38.46-14.76l-44.95-15.3-40.3.23-33.24,18.24Z"/>
        <g>
          <polygon class="st8" points="262.26 225.05 244.68 228.4 245.31 237.97 265.02 237.48 262.26 225.05"/>
          <path class="st15" d="M262.26,225.05s42.61-12.05,55.86-15.42c15.17-3.86,38.19-14.32,45.94-4.62,7.76,9.7-1.71,22.62-22.69,28.29-20.99,5.66-78.42,5.11-78.42,5.11l-.69-13.35Z"/>
          <g>
            <path class="st14" d="M228.14,222.54s-.69,2.2-.58,6.86c.11,4.66,2.47,8.2,2.71,15,0,0,2.64-4.34,2.51-11.39-.13-7.05-4.64-10.47-4.64-10.47Z"/>
            <path class="st12" d="M253.63,238.18c-2.75.29-7.36,2.44-10.18,3.94-2.82,1.49-4.33,3.06-9.37,3.02,0,0-.02-13.32-.56-17.44-.54-4.12-1.37-4.83-1.37-4.83,0,0,4.67.3,6.99,1.54,2.32,1.24,2.58,1.81,6.67,1.97,4.09.16,5.77.38,7.56.35,2.72,4.25,1.63,9.4.26,11.44Z"/>
            <path class="st5" d="M241.71,239.76s1.56-6.91-.73-11.64"/>
            <path class="st5" d="M244.6,238.95s1.52-5.26-.71-10.29"/>
            <path class="st5" d="M247.85,237.65s1.37-3.51-.45-8.7"/>
            <path class="st21" d="M234.08,245.14c-1.59-.03-3.54-.07-3.81-.74-.27-.67,1.59-4.64.85-12.52-.4-4.23-3.37-9.2-2.98-9.34s2.71-1.01,4.01.34c1.3,1.35,7.88,9.99,1.93,22.26Z"/>
          </g>
        </g>
        <path class="st8" d="M339.69,137.01c5.54-3.92,17.49-13.04,23.77-32.63,1.99-6.22,2.17-10.48,2.12-13.33-3.24-2.73-2.9-7.89-5.86-11.09-4.16-4.5-7.88-10.22.25-10.22,4.53,0,8.7.18,10.93,2.34,1.77,1.71,5.11,6.77,5.72,8.53,1.39,3.98-.22,9-.4,15.06-.17,6.06-4.16,43.99-33.42,59.92l-3.12-18.59Z"/>
        <path class="st8" d="M276.26,122.72s-.13,4.85-.55,6.86c-.42,2,0,3.06-6.12,4.11,0,0,2.49,8.02,13.09,9.39,10.6,1.37,14.93-6.96,14.61-6.96s-3.27-1.21-4.22-1.83c-.95-.61-.25-12.31-.25-12.31l-16.56.74Z"/>
        <path class="st9" d="M292.68,124.94s-1.3,4.11-7.73,4.53c-6.44.42-8.83-3.64-8.83-3.64l.15-3.12,16.56-.74-.14,2.96Z"/>
        <g>
          <g>
            <g>
              <path class="st8" d="M266.14,105.1s-3.33-.52-4.79,1.93c-1.46,2.45.37,7.02,3.83,7.78,3.32.73,4.41-1.13,4.41-1.13l-3.45-8.58Z"/>
              <path class="st9" d="M263.23,107.55c.76-.4,1.97-.51,2.72-.06.28.17-.1.64-.35.58-1.43-.32-3.1-.17-3.56,1.51-.02.09-.1,0-.09-.05.06-.9.46-1.56,1.28-1.98Z"/>
              <path class="st9" d="M263.88,107.59c.14-.09.54.24.52.35-.21.13-.53.43-.65.75-.22.55-.24,1-.12,1.58.29,1.34,1.18,2.21,2.55,2.34.02,0,.07.07.04.08-1.11.44-2.58-.57-2.98-1.57-.45-1.1-.59-2.73.65-3.53Z"/>
            </g>
            <g>
              <path class="st8" d="M298.31,98.93s2.9-1.72,5.16.01c2.26,1.73,2.26,6.66-.67,8.65-2.81,1.91-4.51.58-4.51.58l.02-9.24Z"/>
              <path class="st9" d="M301.92,100.12c-.85-.08-2.02.25-2.55.95-.2.26.33.56.54.41,1.21-.83,2.82-1.31,3.86.09.06.07.09-.03.07-.08-.39-.82-1.01-1.28-1.92-1.37Z"/>
              <path class="st9" d="M301.33,100.4c-.17-.03-.41.42-.35.51.24.05.65.21.89.46.41.43.6.84.69,1.43.22,1.35-.28,2.49-1.5,3.12-.02.01-.04.09,0,.09,1.2,0,2.18-1.49,2.19-2.56,0-1.19-.47-2.76-1.91-3.04Z"/>
            </g>
            <path class="st8" d="M286.39,82.8c-2.58-.89-5.34-1.17-7.99-.66-2.65.51-5.26,1.69-7.33,3.47-4.83,4.15-6.7,10.72-5.52,16.88,0,0,0,.02,0,.03.34,1.76.78,3.5,1.32,5.21l.76,2.39c.59,1.87,1.93,5.45,4.06,8.72,4.23,6.49,11.11,7.55,15.06,6.79,3.96-.76,9.95-4.3,11.47-11.89.77-3.83.69-7.64.54-9.6l-.18-2.5c-.13-1.79-.37-3.57-.71-5.33,0,0,0-.02,0-.03-1.19-6.15-5.46-11.41-11.49-13.48Z"/>
            <g>
              <path class="st10" d="M288.77,101.22c-.18-.93.43-1.84,1.37-2.02.93-.18,1.84.43,2.02,1.37.18.93-.43,1.84-1.37,2.02-.93.18-1.84-.43-2.02-1.37Z"/>
              <path class="st10" d="M289.19,94.98l8.11,1.54s-.58-2.23-3.46-3.4c-1.26-.51-2.68-.46-3.54.01-1.25.69-1.11,1.84-1.11,1.84Z"/>
              <path class="st10" d="M275.26,97.45l-5.93,5.74s-.74-2.18,1.03-4.74c.77-1.12,1.98-1.86,2.97-1.93,1.42-.11,1.94.93,1.94.93Z"/>
              <path class="st10" d="M277.95,103.54c-.18-.93-1.08-1.55-2.02-1.37s-1.55,1.08-1.37,2.02c.18.93,1.08,1.55,2.02,1.37.93-.18,1.55-1.08,1.37-2.02Z"/>
            </g>
          </g>
          <path class="st9" d="M283.94,101.85c-.78.21-1.35,8.21-.27,9.35.45.47,1.57.81,2.19.63.64-.06,1.55-.79,1.8-1.4.59-1.46-2.91-8.68-3.71-8.59Z"/>
          <g>
            <path class="st3" d="M257.02,87.45s6.16-1.2,8.5,1.96"/>
            <path class="st3" d="M256.84,81.39s7.64,1.29,8.79,8.59"/>
          </g>
          <path class="st10" d="M268.08,89.42s4.31,6.48,11.39,8.4c7.08,1.92,11.08-6.28,10.36-10.01,0,0,6.92,11.14,8.48,11.11,0,0,1.69-4.49,1.14-9.51-.55-5.02-2.93-7.52-5.49-9.37-2.44-1.76-4.82-.7-5.8-.06-1.29-2.43-5.08-7.56-12.55-6.72-8.36.94-11.6,6.71-10.39,15.51,0,0-3.14-.89-5.01,2.76-1.88,3.64.21,10.71,2.71,14.07,0,0,2.18-.69,3.22-.49,0,0-1.47-5.82-.09-10.93,1.12-4.16,2.04-4.75,2.04-4.75Z"/>
        </g>
        <path class="st17" d="M272.21,133.14c.75,3.02,5.02,7.81,11.23,8.1,6.21.29,11.34-3.88,12.18-5.72,5.18.48,11.77,1.89,13.98,2.29,3.13.57,6.17,3.36,5.05,12.18-1.09,8.56-7.88,62.66-7.88,62.66,0,0-17.95,6.97-42.21.58,0,0-14.68-58.72-15.99-63.8-1.31-5.08-2.9-10.45,1.74-12.05s21.89-4.24,21.89-4.24Z"/>
        <path class="st12" d="M292.25,195.61c.34.07.69.12,1.03.15,3.42.36,1.86-3.51.79-5.03-1.64-2.33-13.02-11.14-13.02-11.14l-8.84.75-9.96,4.1-4.09,3.18c.83,3.31,1.63,6.51,2.37,9.48,3.72-2.33,12.73-7.86,14.72-8.05,1.25-.12,2.38.32,3.5.8,1.62.7,3.25,1.33,4.91,1.94.75.27,1.51.55,2.23.9,1.3.63,2.48,1.49,3.8,2.1.82.38,1.68.65,2.56.82Z"/>
        <line class="st2" x1="330.46" y1="177.1" x2="336.9" y2="180.17"/>
        <line class="st2" x1="327.73" y1="182.44" x2="334.18" y2="185.52"/>
        <path class="st7" d="M237.78,205.01c8.47,1.24,23.49,1.54,36.75-10.47,10.68-9.67,20.43-28.12,45.24-20.01"/>
        <path class="st12" d="M331.45,173.61c2.93,1.55-3.07,12.88-6,11.33l-4.08-2.16c-3.13-1.66-4.32-5.53-2.67-8.66h0c1.66-3.13,5.53-4.32,8.66-2.67l4.08,2.16Z"/>
        <path class="st8" d="M243.76,146.26s-20.07,36.28-23.72,42.4c-3.65,6.12-2.9,12.99-2.15,14.71s11.16,2.9,20.72-.75c9.55-3.65,34.15-16.15,35.98-17.11,0,0,2.34,1.54,4.69,2.65,3.28,1.56,5.94,1.62,8.07,3.23,2.13,1.61,4.46,4.68,8.57,2.69,2.45-1.18-2.98-8.79-5.41-13-2.38-2.03-10.86-5.55-15.11-4.94-6.01.86-36.23,11.14-36.23,11.14l10.95-18.89-6.34-22.13Z"/>
        <path class="st17" d="M251.36,137.05c-4.93,1.55-6.83,3.96-11.65,12.73-4.82,8.77-11.2,19.44-11.2,19.44,0,0,5.18,8.08,16.6,10.38l7.75-13.1-1.51-29.44Z"/>
        <path class="st17" d="M309.6,137.82c5.9.96,20.9,5.36,30.08-.81,0,0,6.06,9.24,5.02,20.84,0,0-12.44,11.09-31.88,6.64l-3.22-26.68Z"/>
        <g>
          <polygon class="st8" points="311.36 227.79 328.62 232.53 327.22 242.02 307.62 239.96 311.36 227.79"/>
          <path class="st0" d="M311.36,227.79s-39.65-13.68-54.35-19.06c-14.7-5.39-36.24-16.16-44.75-7.11-8.51,9.05-1.4,22.52,19.07,29.85,20.47,7.33,78.27,9.58,78.27,9.58,1.77-4.3,2.34-8.72,1.76-13.26Z"/>
          <g>
            <path class="st14" d="M345.57,228.02s.51,2.25.03,6.89c-.48,4.64-3.12,7.97-3.9,14.73,0,0-2.28-4.54-1.59-11.55s5.47-10.06,5.47-10.06Z"/>
            <path class="st12" d="M318.91,241.57c2.72.51,7.14,3.02,9.83,4.74,2.69,1.72,4.07,3.4,9.1,3.76,0,0,1.09-13.27,1.95-17.34.87-4.06,1.75-4.7,1.75-4.7,0,0-4.67-.08-7.09.98-2.41,1.05-2.72,1.6-6.81,1.43s-5.78-.08-7.56-.26c-3.05,4.02-2.38,9.24-1.18,11.38Z"/>
            <path class="st5" d="M330.66,244.09s-1.01-7.02,1.66-11.55"/>
            <path class="st5" d="M327.85,243.06s-1.09-5.36,1.53-10.2"/>
            <path class="st5" d="M324.71,241.5s-1.09-3.61,1.15-8.64"/>
            <path class="st21" d="M337.84,250.07c1.59.1,3.54.21,3.86-.43.32-.64-1.22-4.75.15-12.55.74-4.19,4.09-8.9,3.72-9.07-.37-.17-2.62-1.23-4.03.02-1.4,1.24-8.65,9.33-3.71,22.04Z"/>
          </g>
        </g>
        <path class="st19" d="M311.31,234.9h-.89s-25.84-1.68-53.52-6.24c-27.19-4.48-45.57-13.63-48.03-20.35-1.21,8.13,6.62,17.49,22.46,23.15,20.47,7.33,78.27,9.58,78.27,9.58.74-1.78,1.34-3.79,1.71-6.14Z"/>
        <g class="st20">
          <path class="st7" d="M306.23,225.46c-.03,3.58-.77,11.62-2.34,16.56"/>
        </g>
      </g>
      <path class="st12" d="M252.87,166.49s3.08-8.17.98-20.23c0,0,3.86,14.71-.33,22.81l-.65-2.58Z"/>
      <path class="st12" d="M312.82,164.49s1.13-9.29-.89-17.96c0,0,2.45,4.98,2.32,18.26l-1.43-.3Z"/>
    </g>
    <path class="st10" d="M281.73,121s-.6-3.58,3.64-4.52c4.57-1.01,5.79,2.4,5.79,2.4,0,0-2.31-.89-5.36-.14-2.23.55-4.07,2.26-4.07,2.26Z"/>
  </g>
  <g id="Layer_5">
    <g>
      <path class="st18" d="M189.56,212.16c3.59-.72,9.88-1.36,14.34,2.55,2.85,2.5,1.5,2.93-1.05,2.88-4.29-.08-7.71,3.53-7.71,3.53,0,0-5.58.64-6.95-3.8-1.99-6.43,1.37-5.16,1.37-5.16Z"/>
      <path class="st16" d="M175.91,244.85h27.57c6.29.14,10.59-.34,13.68-3.08,3.59-3.18,4.21-8.84,3.64-13.17-.67-1.74-4.48-.45-9.18-1.25-4.26-.72-6.73-2.64-9.16-5.89-2.42-3.23-3.72-4.52-8.51-6.86-2.63-1.28-4.76-1.15-4.76-1.15,0,0,1.69-3.7,4.26-6.07,3.1-2.86-2.43-4-8.72-1.17-3.74,1.68-7.66,4.97-10.41,8.1-1.79,2.03-6.45,1.73-11.51-2.16-5.06-3.89-22.8-20.01-42.23-17.3-19.43,2.71-32.92,18.62-34.9,30.06-1.98,11.44,1.83,17.93,5.13,19.96l85.12-.02Z"/>
      <path class="st16" d="M87.32,225c-5.41-2.93-19.23-3.12-29.65,5.18-10.16,8.09-14.39,24.97-6.02,37.71,8.37,12.74,24.92,13.14,27.06,11.34,2.14-1.8-8.83-8.31-11.8-16.61,0,0,5.93,3.77,9.31,4.13,3.38.36-5.16-8.37-6.05-17.63s3.68-19.41,14.92-18.96l2.23-5.16Z"/>
      <path class="st10" d="M220.49,234.78c-.61.12-.38-3.22-1.12-2.9-.73.32.45,2.03.45,2.03-2.09-.51-5.03-3.51-3.85-5.36,1.21-1.91,4.59-1.04,5.39-.71,1.21.51,2.04,4.53-.87,6.94Z"/>
      <path class="st18" d="M117.23,209.44s7.45.61,10.31,8.67-.32,12.9-2.67,15.5c0,0,10.57-1.01,15.27,2.1,4.7,3.11,4.28,9.15,4.28,9.15h2.56s.11-7.38-4.84-10.49c-4.95-3.11-9.13-3.49-11.9-3.3,0,0,2.91-6.28-.42-13.66-3.33-7.38-9.65-8.39-12.59-7.97Z"/>
      <path class="st18" d="M156.13,233.18s11.01-1.22,15.67,2.29c4.66,3.52,4.11,9.38,4.11,9.38l2.61.02s.69-6.27-4.05-10.09c-4.74-3.82-15.21-2.68-18.34-1.61Z"/>
      <path class="st10" d="M187.77,228.09s-.46-2.74,2.79-3.46c3.5-.78,4.44,1.84,4.44,1.84,0,0-1.77-.68-4.1-.11-1.71.42-3.12,1.73-3.12,1.73Z"/>
    </g>
  </g>
  <g id="Layer_4">
    <path class="st22" d="M201,45.82l21.24,22.01-7.12,8.03-23.55-19.41,9.42-10.63ZM229.23,73.4c.64.56,1.12,1.21,1.45,1.95.33.73.52,1.49.57,2.27.05.78-.05,1.55-.3,2.31-.25.76-.65,1.45-1.2,2.07-.56.64-1.21,1.12-1.94,1.46-.73.34-1.48.53-2.25.58-.78.05-1.55-.05-2.31-.3-.76-.25-1.46-.65-2.1-1.22-.62-.55-1.11-1.2-1.46-1.93-.35-.74-.55-1.5-.6-2.27-.05-.78.05-1.55.29-2.32.24-.77.64-1.47,1.21-2.11.55-.62,1.19-1.1,1.93-1.43.73-.33,1.49-.52,2.27-.57.78-.05,1.56.06,2.34.31.78.25,1.48.66,2.1,1.21Z"/>
  </g>
  <g id="Layer_3">
    <path class="st22" d="M245.05,53.35l-9.51,2.37c-.63-1.95-.93-3.65-.91-5.08.02-1.43.23-2.67.61-3.71.39-1.04.89-1.94,1.51-2.68.62-.74,1.24-1.41,1.86-1.99.62-.58,1.16-1.13,1.62-1.64.46-.51.72-1.08.79-1.69.05-.37-.01-.77-.18-1.2-.17-.43-.46-.8-.89-1.11-.43-.31-1-.52-1.71-.63-.71-.11-1.59-.04-2.62.22-.67.17-1.46.43-2.36.78-.9.35-1.82.78-2.77,1.29-.95.51-1.87,1.06-2.76,1.68-.89.61-1.67,1.25-2.34,1.91l-3.99-10.72c.59-.59,1.27-1.21,2.03-1.87.76-.66,1.62-1.29,2.59-1.9.96-.61,2.04-1.18,3.22-1.71,1.18-.53,2.48-.98,3.91-1.33,2.31-.58,4.57-.8,6.78-.68,2.21.13,4.24.61,6.09,1.47,1.85.85,3.45,2.07,4.8,3.66,1.35,1.58,2.32,3.55,2.91,5.89.44,1.78.55,3.27.31,4.48-.24,1.2-.66,2.25-1.28,3.14-.61.89-1.35,1.69-2.21,2.4s-1.68,1.46-2.47,2.25c-.79.78-1.47,1.68-2.05,2.68-.58,1-.9,2.24-.97,3.71ZM248.31,60.42c.21.83.24,1.63.1,2.43-.14.79-.41,1.52-.81,2.19-.4.67-.92,1.25-1.55,1.73s-1.36.83-2.16,1.03c-.83.21-1.63.24-2.42.11s-1.52-.4-2.19-.8c-.67-.4-1.24-.92-1.73-1.55-.49-.63-.83-1.36-1.04-2.19-.2-.81-.24-1.61-.11-2.42.13-.81.39-1.55.79-2.21.4-.67.92-1.25,1.55-1.75.63-.5,1.36-.85,2.19-1.05.81-.2,1.6-.23,2.4-.09.79.14,1.52.41,2.19.81.67.4,1.25.93,1.75,1.58.5.65.85,1.38,1.05,2.19Z"/>
  </g>
</svg>