<?xml version="1.0" encoding="UTF-8"?><svg id="Layer_1" xmlns="http://www.w3.org/2000/svg" viewBox="0 0 48 48"><defs><style>.cls-1{fill:#995a25;}.cls-2{fill:#de9858;}.cls-3{fill:#18181a;}.cls-4{fill:#171210;}</style></defs><rect class="cls-4" x="17.27" y="41.37" width="10.19" height=".25" transform="translate(-.19 .1) rotate(-.26)"/><rect class="cls-4" x="17.31" y="38.8" width="10.19" height=".25" transform="translate(-.18 .1) rotate(-.26)"/><rect class="cls-4" x="17.33" y="36.17" width="10.19" height=".25" transform="translate(-.16 .1) rotate(-.26)"/><rect class="cls-4" x="17.38" y="33.61" width="10.19" height=".25" transform="translate(-.15 .1) rotate(-.26)"/><rect class="cls-4" x="17.35" y="30.98" width="10.19" height=".25" transform="translate(-.14 .1) rotate(-.26)"/><rect class="cls-4" x="17.4" y="28.42" width="10.19" height=".25" transform="translate(-.13 .1) rotate(-.26)"/><rect class="cls-4" x="17.42" y="25.79" width="10.19" height=".25" transform="translate(-.12 .1) rotate(-.26)"/><rect class="cls-4" x="17.33" y="23.22" width="10.19" height=".25" transform="translate(-.11 .1) rotate(-.26)"/><rect class="cls-4" x="17.3" y="20.59" width="10.19" height=".25" transform="translate(-.09 .1) rotate(-.26)"/><rect class="cls-4" x="17.35" y="18.03" width="10.19" height=".25" transform="translate(-.08 .1) rotate(-.26)"/><rect class="cls-4" x="17.37" y="15.4" width="10.19" height=".25" transform="translate(-.07 .1) rotate(-.26)"/><rect class="cls-4" x="17.42" y="12.84" width="10.19" height=".25" transform="translate(-.06 .1) rotate(-.26)"/><rect class="cls-4" x="17.42" y="10.21" width="10.19" height=".25" transform="translate(-.05 .1) rotate(-.26)"/><rect class="cls-4" x="17.44" y="7.57" width="10.19" height=".25" transform="translate(-.03 .1) rotate(-.26)"/><rect class="cls-4" x="17.35" y="5.01" width="10.19" height=".25" transform="translate(-.02 .1) rotate(-.26)"/><path class="cls-2" d="M19.28,42.86s-1.76-1.26-.01-2.63v2.63Z"/><path class="cls-1" d="M19.26,40.23s1.76,1.26.01,2.63v-2.63Z"/><path class="cls-2" d="M26.76,42.79s-1.76-1.26-.01-2.63v2.63Z"/><path class="cls-1" d="M26.75,40.15s1.76,1.26.01,2.63v-2.63Z"/><path class="cls-2" d="M25.25,42.79s-1.76-1.26-.01-2.63v2.63Z"/><path class="cls-1" d="M25.24,40.16s1.76,1.26.01,2.63v-2.63Z"/><path class="cls-2" d="M23.79,42.84s-1.76-1.26-.01-2.63v2.63Z"/><path class="cls-1" d="M23.78,40.21s1.76,1.26.01,2.63v-2.63Z"/><path class="cls-2" d="M22.43,42.84s-1.76-1.26-.01-2.63v2.63Z"/><path class="cls-1" d="M22.42,40.21s1.76,1.26.01,2.63v-2.63Z"/><path class="cls-2" d="M19.18,40.3s-1.76-1.26-.01-2.63v2.63Z"/><path class="cls-1" d="M19.17,37.67s1.76,1.26.01,2.63v-2.63Z"/><path class="cls-2" d="M26.81,40.22s-1.76-1.26-.01-2.63v2.63Z"/><path class="cls-1" d="M26.8,37.59s1.76,1.26.01,2.63v-2.63Z"/><path class="cls-2" d="M25.3,40.23s-1.76-1.26-.01-2.63v2.63Z"/><path class="cls-1" d="M25.29,37.6s1.76,1.26.01,2.63v-2.63Z"/><path class="cls-2" d="M23.84,40.28s-1.76-1.26-.01-2.63v2.63Z"/><path class="cls-1" d="M23.83,37.64s1.76,1.26.01,2.63v-2.63Z"/><path class="cls-2" d="M22.48,40.28s-1.76-1.26-.01-2.63v2.63Z"/><path class="cls-1" d="M22.46,37.65s1.76,1.26.01,2.63v-2.63Z"/><path class="cls-2" d="M19.2,37.67s-1.76-1.26-.01-2.63v2.63Z"/><path class="cls-1" d="M19.19,35.03s1.76,1.26.01,2.63v-2.63Z"/><path class="cls-2" d="M26.83,37.59s-1.76-1.26-.01-2.63v2.63Z"/><path class="cls-1" d="M26.82,34.96s1.76,1.26.01,2.63v-2.63Z"/><path class="cls-2" d="M25.32,37.6s-1.76-1.26-.01-2.63v2.63Z"/><path class="cls-1" d="M25.31,34.97s1.76,1.26.01,2.63v-2.63Z"/><path class="cls-2" d="M23.86,37.64s-1.76-1.26-.01-2.63v2.63Z"/><path class="cls-1" d="M23.85,35.01s1.76,1.26.01,2.63v-2.63Z"/><path class="cls-2" d="M22.5,37.65s-1.76-1.26-.01-2.63v2.63Z"/><path class="cls-1" d="M22.48,35.02s1.76,1.26.01,2.63v-2.63Z"/><path class="cls-2" d="M19.25,35.1s-1.76-1.26-.01-2.63v2.63Z"/><path class="cls-1" d="M19.24,32.47s1.76,1.26.01,2.63v-2.63Z"/><path class="cls-2" d="M26.73,35.03s-1.76-1.26-.01-2.63v2.63Z"/><path class="cls-1" d="M26.72,32.4s1.76,1.26.01,2.63v-2.63Z"/><path class="cls-2" d="M25.37,35.04s-1.76-1.26-.01-2.63v2.63Z"/><path class="cls-1" d="M25.36,32.4s1.76,1.26.01,2.63v-2.63Z"/><path class="cls-2" d="M23.91,35.08s-1.76-1.26-.01-2.63v2.63Z"/><path class="cls-1" d="M23.9,32.45s1.76,1.26.01,2.63v-2.63Z"/><path class="cls-2" d="M22.54,35.09s-1.76-1.26-.01-2.63v2.63Z"/><path class="cls-1" d="M22.53,32.46s1.76,1.26.01,2.63v-2.63Z"/><path class="cls-2" d="M19.22,32.47s-1.76-1.26-.01-2.63v2.63Z"/><path class="cls-1" d="M19.21,29.84s1.76,1.26.01,2.63v-2.63Z"/><path class="cls-2" d="M26.71,32.4s-1.76-1.26-.01-2.63v2.63Z"/><path class="cls-1" d="M26.7,29.77s1.76,1.26.01,2.63v-2.63Z"/><path class="cls-2" d="M25.34,32.41s-1.76-1.26-.01-2.63v2.63Z"/><path class="cls-1" d="M25.33,29.77s1.76,1.26.01,2.63v-2.63Z"/><path class="cls-2" d="M23.88,32.45s-1.76-1.26-.01-2.63v2.63Z"/><path class="cls-1" d="M23.87,29.82s1.76,1.26.01,2.63v-2.63Z"/><path class="cls-2" d="M22.52,32.46s-1.76-1.26-.01-2.63v2.63Z"/><path class="cls-1" d="M22.51,29.83s1.76,1.26.01,2.63v-2.63Z"/><path class="cls-2" d="M19.27,29.91s-1.76-1.26-.01-2.63v2.63Z"/><path class="cls-1" d="M19.26,27.28s1.76,1.26.01,2.63v-2.63Z"/><path class="cls-2" d="M26.76,29.84s-1.76-1.26-.01-2.63v2.63Z"/><path class="cls-1" d="M26.74,27.21s1.76,1.26.01,2.63v-2.63Z"/><path class="cls-2" d="M25.39,29.84s-1.76-1.26-.01-2.63v2.63Z"/><path class="cls-1" d="M25.38,27.21s1.76,1.26.01,2.63v-2.63Z"/><path class="cls-2" d="M23.93,29.89s-1.76-1.26-.01-2.63v2.63Z"/><path class="cls-1" d="M23.92,27.26s1.76,1.26.01,2.63v-2.63Z"/><path class="cls-2" d="M22.57,29.89s-1.76-1.26-.01-2.63v2.63Z"/><path class="cls-1" d="M22.55,27.26s1.76,1.26.01,2.63v-2.63Z"/><path class="cls-2" d="M19.29,27.28s-1.76-1.26-.01-2.63v2.63Z"/><path class="cls-1" d="M19.28,24.65s1.76,1.26.01,2.63v-2.63Z"/><path class="cls-2" d="M26.77,27.2s-1.76-1.26-.01-2.63v2.63Z"/><path class="cls-1" d="M26.76,24.57s1.76,1.26.01,2.63v-2.63Z"/><path class="cls-2" d="M25.41,27.21s-1.76-1.26-.01-2.63v2.63Z"/><path class="cls-1" d="M25.4,24.58s1.76,1.26.01,2.63v-2.63Z"/><path class="cls-2" d="M23.95,27.26s-1.76-1.26-.01-2.63v2.63Z"/><path class="cls-1" d="M23.94,24.63s1.76,1.26.01,2.63v-2.63Z"/><path class="cls-2" d="M22.58,27.26s-1.76-1.26-.01-2.63v2.63Z"/><path class="cls-1" d="M22.57,24.63s1.76,1.26.01,2.63v-2.63Z"/><path class="cls-2" d="M19.2,24.72s-1.76-1.26-.01-2.63v2.63Z"/><path class="cls-1" d="M19.18,22.08s1.76,1.26.01,2.63v-2.63Z"/><path class="cls-2" d="M26.68,24.64s-1.76-1.26-.01-2.63v2.63Z"/><path class="cls-1" d="M26.67,22.01s1.76,1.26.01,2.63v-2.63Z"/><path class="cls-2" d="M25.32,24.65s-1.76-1.26-.01-2.63v2.63Z"/><path class="cls-1" d="M25.3,22.02s1.76,1.26.01,2.63v-2.63Z"/><path class="cls-2" d="M23.86,24.7s-1.76-1.26-.01-2.63v2.63Z"/><path class="cls-1" d="M23.84,22.06s1.76,1.26.01,2.63v-2.63Z"/><path class="cls-2" d="M22.49,24.7s-1.76-1.26-.01-2.63v2.63Z"/><path class="cls-1" d="M22.48,22.07s1.76,1.26.01,2.63v-2.63Z"/><path class="cls-2" d="M19.17,22.08s-1.76-1.26-.01-2.63v2.63Z"/><path class="cls-1" d="M19.16,19.45s1.76,1.26.01,2.63v-2.63Z"/><path class="cls-2" d="M26.65,22.01s-1.76-1.26-.01-2.63v2.63Z"/><path class="cls-1" d="M26.64,19.38s1.76,1.26.01,2.63v-2.63Z"/><path class="cls-2" d="M25.29,22.02s-1.76-1.26-.01-2.63v2.63Z"/><path class="cls-1" d="M25.28,19.39s1.76,1.26.01,2.63v-2.63Z"/><path class="cls-2" d="M23.83,22.06s-1.76-1.26-.01-2.63v2.63Z"/><path class="cls-1" d="M23.82,19.43s1.76,1.26.01,2.63v-2.63Z"/><path class="cls-2" d="M22.46,22.07s-1.76-1.26-.01-2.63v2.63Z"/><path class="cls-1" d="M22.45,19.44s1.76,1.26.01,2.63v-2.63Z"/><path class="cls-2" d="M19.22,19.52s-1.76-1.26-.01-2.63v2.63Z"/><path class="cls-1" d="M19.21,16.89s1.76,1.26.01,2.63v-2.63Z"/><path class="cls-2" d="M26.7,19.45s-1.76-1.26-.01-2.63v2.63Z"/><path class="cls-1" d="M26.69,16.82s1.76,1.26.01,2.63v-2.63Z"/><path class="cls-2" d="M25.34,19.46s-1.76-1.26-.01-2.63v2.63Z"/><path class="cls-1" d="M25.33,16.82s1.76,1.26.01,2.63v-2.63Z"/><path class="cls-2" d="M23.88,19.5s-1.76-1.26-.01-2.63v2.63Z"/><path class="cls-1" d="M23.87,16.87s1.76,1.26.01,2.63v-2.63Z"/><path class="cls-2" d="M22.51,19.51s-1.76-1.26-.01-2.63v2.63Z"/><path class="cls-1" d="M22.5,16.88s1.76,1.26.01,2.63v-2.63Z"/><path class="cls-2" d="M19.24,16.89s-1.76-1.26-.01-2.63v2.63Z"/><path class="cls-1" d="M19.22,14.26s1.76,1.26.01,2.63v-2.63Z"/><path class="cls-2" d="M26.72,16.82s-1.76-1.26-.01-2.63v2.63Z"/><path class="cls-1" d="M26.71,14.19s1.76,1.26.01,2.63v-2.63Z"/><path class="cls-2" d="M25.36,16.82s-1.76-1.26-.01-2.63v2.63Z"/><path class="cls-1" d="M25.35,14.19s1.76,1.26.01,2.63v-2.63Z"/><path class="cls-2" d="M23.9,16.87s-1.76-1.26-.01-2.63v2.63Z"/><path class="cls-1" d="M23.88,14.24s1.76,1.26.01,2.63v-2.63Z"/><path class="cls-2" d="M22.53,16.88s-1.76-1.26-.01-2.63v2.63Z"/><path class="cls-1" d="M22.52,14.24s1.76,1.26.01,2.63v-2.63Z"/><path class="cls-2" d="M19.29,14.33s-1.76-1.26-.01-2.63v2.63Z"/><path class="cls-1" d="M19.27,11.7s1.76,1.26.01,2.63v-2.63Z"/><path class="cls-2" d="M26.77,14.26s-1.76-1.26-.01-2.63v2.63Z"/><path class="cls-1" d="M26.76,11.63s1.76,1.26.01,2.63v-2.63Z"/><path class="cls-2" d="M25.41,14.26s-1.76-1.26-.01-2.63v2.63Z"/><path class="cls-1" d="M25.39,11.63s1.76,1.26.01,2.63v-2.63Z"/><path class="cls-2" d="M23.95,14.31s-1.76-1.26-.01-2.63v2.63Z"/><path class="cls-1" d="M23.93,11.68s1.76,1.26.01,2.63v-2.63Z"/><path class="cls-2" d="M22.58,14.31s-1.76-1.26-.01-2.63v2.63Z"/><path class="cls-1" d="M22.57,11.68s1.76,1.26.01,2.63v-2.63Z"/><path class="cls-2" d="M19.29,11.7s-1.76-1.26-.01-2.63v2.63Z"/><path class="cls-1" d="M19.28,9.07s1.76,1.26.01,2.63v-2.63Z"/><path class="cls-2" d="M26.77,11.63s-1.76-1.26-.01-2.63v2.63Z"/><path class="cls-1" d="M26.76,8.99s1.76,1.26.01,2.63v-2.63Z"/><path class="cls-2" d="M25.41,11.63s-1.76-1.26-.01-2.63v2.63Z"/><path class="cls-1" d="M25.4,9s1.76,1.26.01,2.63v-2.63Z"/><path class="cls-2" d="M23.95,11.68s-1.76-1.26-.01-2.63v2.63Z"/><path class="cls-1" d="M23.94,9.04s1.76,1.26.01,2.63v-2.63Z"/><path class="cls-2" d="M22.58,11.68s-1.76-1.26-.01-2.63v2.63Z"/><path class="cls-1" d="M22.57,9.05s1.76,1.26.01,2.63v-2.63Z"/><path class="cls-2" d="M19.31,9.07s-1.76-1.26-.01-2.63v2.63Z"/><path class="cls-1" d="M19.3,6.43s1.76,1.26.01,2.63v-2.63Z"/><path class="cls-2" d="M26.79,8.99s-1.76-1.26-.01-2.63v2.63Z"/><path class="cls-1" d="M26.78,6.36s1.76,1.26.01,2.63v-2.63Z"/><path class="cls-2" d="M25.43,9s-1.76-1.26-.01-2.63v2.63Z"/><path class="cls-1" d="M25.42,6.37s1.76,1.26.01,2.63v-2.63Z"/><path class="cls-2" d="M23.97,9.04s-1.76-1.26-.01-2.63v2.63Z"/><path class="cls-1" d="M23.95,6.41s1.76,1.26.01,2.63v-2.63Z"/><path class="cls-2" d="M22.6,9.05s-1.76-1.26-.01-2.63v2.63Z"/><path class="cls-1" d="M22.59,6.42s1.76,1.26.01,2.63v-2.63Z"/><path class="cls-2" d="M19.21,6.5s-1.76-1.26-.01-2.63v2.63Z"/><path class="cls-1" d="M19.2,3.87s1.76,1.26.01,2.63v-2.63Z"/><path class="cls-2" d="M26.7,6.43s-1.76-1.26-.01-2.63v2.63Z"/><path class="cls-1" d="M26.69,3.8s1.76,1.26.01,2.63v-2.63Z"/><path class="cls-2" d="M25.33,6.44s-1.76-1.26-.01-2.63v2.63Z"/><path class="cls-1" d="M25.32,3.81s1.76,1.26.01,2.63v-2.63Z"/><path class="cls-2" d="M23.87,6.48s-1.76-1.26-.01-2.63v2.63Z"/><path class="cls-1" d="M23.86,3.85s1.76,1.26.01,2.63v-2.63Z"/><path class="cls-2" d="M22.51,6.49s-1.76-1.26-.01-2.63v2.63Z"/><path class="cls-1" d="M22.5,3.86s1.76,1.26.01,2.63v-2.63Z"/><rect class="cls-4" x="19.9" y="2.93" width=".32" height="40.85" transform="translate(-.11 .09) rotate(-.26)"/><path class="cls-3" d="M27.97,2.53l.19,41.57-11.2.05-.19-41.57,11.2-.05ZM27.43,43.38l-.18-40.12-9.75.04.18,40.12,9.75-.04Z"/></svg>