<?xml version="1.0" encoding="UTF-8"?><svg id="Layer_1" xmlns="http://www.w3.org/2000/svg" viewBox="0 0 11.39 41.62"><defs><style>.cls-1{fill:#995a25;}.cls-2{fill:#de9858;}.cls-3{fill:#18181a;}.cls-4{fill:#171210;}</style></defs><rect class="cls-4" x=".49" y="38.84" width="10.19" height=".25" transform="translate(-.18 .03) rotate(-.26)"/><rect class="cls-4" x=".54" y="36.28" width="10.19" height=".25" transform="translate(-.16 .03) rotate(-.26)"/><rect class="cls-4" x=".56" y="33.65" width="10.19" height=".25" transform="translate(-.15 .03) rotate(-.26)"/><rect class="cls-4" x=".61" y="31.08" width="10.19" height=".25" transform="translate(-.14 .03) rotate(-.26)"/><rect class="cls-4" x=".58" y="28.45" width="10.19" height=".25" transform="translate(-.13 .03) rotate(-.26)"/><rect class="cls-4" x=".63" y="25.89" width="10.19" height=".25" transform="translate(-.12 .03) rotate(-.26)"/><rect class="cls-4" x=".65" y="23.26" width="10.19" height=".25" transform="translate(-.11 .03) rotate(-.26)"/><rect class="cls-4" x=".56" y="20.7" width="10.19" height=".25" transform="translate(-.09 .03) rotate(-.26)"/><rect class="cls-4" x=".53" y="18.07" width="10.19" height=".25" transform="translate(-.08 .03) rotate(-.26)"/><rect class="cls-4" x=".58" y="15.5" width="10.19" height=".25" transform="translate(-.07 .03) rotate(-.26)"/><rect class="cls-4" x=".6" y="12.87" width="10.19" height=".25" transform="translate(-.06 .03) rotate(-.26)"/><rect class="cls-4" x=".65" y="10.31" width="10.19" height=".25" transform="translate(-.05 .03) rotate(-.26)"/><rect class="cls-4" x=".65" y="7.68" width="10.19" height=".25" transform="translate(-.04 .03) rotate(-.26)"/><rect class="cls-4" x=".67" y="5.05" width="10.19" height=".25" transform="translate(-.02 .03) rotate(-.26)"/><rect class="cls-4" x=".58" y="2.49" width="10.19" height=".25" transform="translate(-.01 .03) rotate(-.26)"/><path class="cls-2" d="M2.51,40.33s-1.76-1.26-.01-2.63v2.63Z"/><path class="cls-1" d="M2.49,37.7s1.76,1.26.01,2.63v-2.63Z"/><path class="cls-2" d="M9.99,40.26s-1.76-1.26-.01-2.63v2.63Z"/><path class="cls-1" d="M9.98,37.63s1.76,1.26.01,2.63v-2.63Z"/><path class="cls-2" d="M8.48,40.27s-1.76-1.26-.01-2.63v2.63Z"/><path class="cls-1" d="M8.47,37.63s1.76,1.26.01,2.63v-2.63Z"/><path class="cls-2" d="M7.02,40.31s-1.76-1.26-.01-2.63v2.63Z"/><path class="cls-1" d="M7.01,37.68s1.76,1.26.01,2.63v-2.63Z"/><path class="cls-2" d="M5.66,40.32s-1.76-1.26-.01-2.63v2.63Z"/><path class="cls-1" d="M5.65,37.69s1.76,1.26.01,2.63v-2.63Z"/><path class="cls-2" d="M2.41,37.77s-1.76-1.26-.01-2.63v2.63Z"/><path class="cls-1" d="M2.4,35.14s1.76,1.26.01,2.63v-2.63Z"/><path class="cls-2" d="M10.04,37.7s-1.76-1.26-.01-2.63v2.63Z"/><path class="cls-1" d="M10.03,35.07s1.76,1.26.01,2.63v-2.63Z"/><path class="cls-2" d="M8.53,37.7s-1.76-1.26-.01-2.63v2.63Z"/><path class="cls-1" d="M8.52,35.07s1.76,1.26.01,2.63v-2.63Z"/><path class="cls-2" d="M7.07,37.75s-1.76-1.26-.01-2.63v2.63Z"/><path class="cls-1" d="M7.06,35.12s1.76,1.26.01,2.63v-2.63Z"/><path class="cls-2" d="M5.71,37.76s-1.76-1.26-.01-2.63v2.63Z"/><path class="cls-1" d="M5.69,35.12s1.76,1.26.01,2.63v-2.63Z"/><path class="cls-2" d="M2.43,35.14s-1.76-1.26-.01-2.63v2.63Z"/><path class="cls-1" d="M2.42,32.51s1.76,1.26.01,2.63v-2.63Z"/><path class="cls-2" d="M10.06,35.07s-1.76-1.26-.01-2.63v2.63Z"/><path class="cls-1" d="M10.05,32.43s1.76,1.26.01,2.63v-2.63Z"/><path class="cls-2" d="M8.55,35.07s-1.76-1.26-.01-2.63v2.63Z"/><path class="cls-1" d="M8.54,32.44s1.76,1.26.01,2.63v-2.63Z"/><path class="cls-2" d="M7.09,35.12s-1.76-1.26-.01-2.63v2.63Z"/><path class="cls-1" d="M7.08,32.49s1.76,1.26.01,2.63v-2.63Z"/><path class="cls-2" d="M5.72,35.12s-1.76-1.26-.01-2.63v2.63Z"/><path class="cls-1" d="M5.71,32.49s1.76,1.26.01,2.63v-2.63Z"/><path class="cls-2" d="M2.48,32.58s-1.76-1.26-.01-2.63v2.63Z"/><path class="cls-1" d="M2.47,29.95s1.76,1.26.01,2.63v-2.63Z"/><path class="cls-2" d="M9.96,32.5s-1.76-1.26-.01-2.63v2.63Z"/><path class="cls-1" d="M9.95,29.87s1.76,1.26.01,2.63v-2.63Z"/><path class="cls-2" d="M8.6,32.51s-1.76-1.26-.01-2.63v2.63Z"/><path class="cls-1" d="M8.59,29.88s1.76,1.26.01,2.63v-2.63Z"/><path class="cls-2" d="M7.14,32.56s-1.76-1.26-.01-2.63v2.63Z"/><path class="cls-1" d="M7.13,29.92s1.76,1.26.01,2.63v-2.63Z"/><path class="cls-2" d="M5.77,32.56s-1.76-1.26-.01-2.63v2.63Z"/><path class="cls-1" d="M5.76,29.93s1.76,1.26.01,2.63v-2.63Z"/><path class="cls-2" d="M2.45,29.95s-1.76-1.26-.01-2.63v2.63Z"/><path class="cls-1" d="M2.44,27.31s1.76,1.26.01,2.63v-2.63Z"/><path class="cls-2" d="M9.94,29.87s-1.76-1.26-.01-2.63v2.63Z"/><path class="cls-1" d="M9.92,27.24s1.76,1.26.01,2.63v-2.63Z"/><path class="cls-2" d="M8.57,29.88s-1.76-1.26-.01-2.63v2.63Z"/><path class="cls-1" d="M8.56,27.25s1.76,1.26.01,2.63v-2.63Z"/><path class="cls-2" d="M7.11,29.92s-1.76-1.26-.01-2.63v2.63Z"/><path class="cls-1" d="M7.1,27.29s1.76,1.26.01,2.63v-2.63Z"/><path class="cls-2" d="M5.75,29.93s-1.76-1.26-.01-2.63v2.63Z"/><path class="cls-1" d="M5.73,27.3s1.76,1.26.01,2.63v-2.63Z"/><path class="cls-2" d="M2.5,27.38s-1.76-1.26-.01-2.63v2.63Z"/><path class="cls-1" d="M2.49,24.75s1.76,1.26.01,2.63v-2.63Z"/><path class="cls-2" d="M9.99,27.31s-1.76-1.26-.01-2.63v2.63Z"/><path class="cls-1" d="M9.97,24.68s1.76,1.26.01,2.63v-2.63Z"/><path class="cls-2" d="M8.62,27.32s-1.76-1.26-.01-2.63v2.63Z"/><path class="cls-1" d="M8.61,24.69s1.76,1.26.01,2.63v-2.63Z"/><path class="cls-2" d="M7.16,27.36s-1.76-1.26-.01-2.63v2.63Z"/><path class="cls-1" d="M7.15,24.73s1.76,1.26.01,2.63v-2.63Z"/><path class="cls-2" d="M5.8,27.37s-1.76-1.26-.01-2.63v2.63Z"/><path class="cls-1" d="M5.78,24.74s1.76,1.26.01,2.63v-2.63Z"/><path class="cls-2" d="M2.52,24.75s-1.76-1.26-.01-2.63v2.63Z"/><path class="cls-1" d="M2.51,22.12s1.76,1.26.01,2.63v-2.63Z"/><path class="cls-2" d="M10,24.68s-1.76-1.26-.01-2.63v2.63Z"/><path class="cls-1" d="M9.99,22.05s1.76,1.26.01,2.63v-2.63Z"/><path class="cls-2" d="M8.64,24.68s-1.76-1.26-.01-2.63v2.63Z"/><path class="cls-1" d="M8.63,22.05s1.76,1.26.01,2.63v-2.63Z"/><path class="cls-2" d="M7.18,24.73s-1.76-1.26-.01-2.63v2.63Z"/><path class="cls-1" d="M7.17,22.1s1.76,1.26.01,2.63v-2.63Z"/><path class="cls-2" d="M5.81,24.74s-1.76-1.26-.01-2.63v2.63Z"/><path class="cls-1" d="M5.8,22.1s1.76,1.26.01,2.63v-2.63Z"/><path class="cls-2" d="M2.43,22.19s-1.76-1.26-.01-2.63v2.63Z"/><path class="cls-1" d="M2.41,19.56s1.76,1.26.01,2.63v-2.63Z"/><path class="cls-2" d="M9.91,22.12s-1.76-1.26-.01-2.63v2.63Z"/><path class="cls-1" d="M9.9,19.49s1.76,1.26.01,2.63v-2.63Z"/><path class="cls-2" d="M8.55,22.12s-1.76-1.26-.01-2.63v2.63Z"/><path class="cls-1" d="M8.53,19.49s1.76,1.26.01,2.63v-2.63Z"/><path class="cls-2" d="M7.08,22.17s-1.76-1.26-.01-2.63v2.63Z"/><path class="cls-1" d="M7.07,19.54s1.76,1.26.01,2.63v-2.63Z"/><path class="cls-2" d="M5.72,22.17s-1.76-1.26-.01-2.63v2.63Z"/><path class="cls-1" d="M5.71,19.54s1.76,1.26.01,2.63v-2.63Z"/><path class="cls-2" d="M2.4,19.56s-1.76-1.26-.01-2.63v2.63Z"/><path class="cls-1" d="M2.39,16.93s1.76,1.26.01,2.63v-2.63Z"/><path class="cls-2" d="M9.88,19.49s-1.76-1.26-.01-2.63v2.63Z"/><path class="cls-1" d="M9.87,16.85s1.76,1.26.01,2.63v-2.63Z"/><path class="cls-2" d="M8.52,19.49s-1.76-1.26-.01-2.63v2.63Z"/><path class="cls-1" d="M8.51,16.86s1.76,1.26.01,2.63v-2.63Z"/><path class="cls-2" d="M7.06,19.54s-1.76-1.26-.01-2.63v2.63Z"/><path class="cls-1" d="M7.05,16.91s1.76,1.26.01,2.63v-2.63Z"/><path class="cls-2" d="M5.69,19.54s-1.76-1.26-.01-2.63v2.63Z"/><path class="cls-1" d="M5.68,16.91s1.76,1.26.01,2.63v-2.63Z"/><path class="cls-2" d="M2.45,17s-1.76-1.26-.01-2.63v2.63Z"/><path class="cls-1" d="M2.44,14.36s1.76,1.26.01,2.63v-2.63Z"/><path class="cls-2" d="M9.93,16.92s-1.76-1.26-.01-2.63v2.63Z"/><path class="cls-1" d="M9.92,14.29s1.76,1.26.01,2.63v-2.63Z"/><path class="cls-2" d="M8.57,16.93s-1.76-1.26-.01-2.63v2.63Z"/><path class="cls-1" d="M8.56,14.3s1.76,1.26.01,2.63v-2.63Z"/><path class="cls-2" d="M7.11,16.98s-1.76-1.26-.01-2.63v2.63Z"/><path class="cls-1" d="M7.1,14.34s1.76,1.26.01,2.63v-2.63Z"/><path class="cls-2" d="M5.74,16.98s-1.76-1.26-.01-2.63v2.63Z"/><path class="cls-1" d="M5.73,14.35s1.76,1.26.01,2.63v-2.63Z"/><path class="cls-2" d="M2.47,14.36s-1.76-1.26-.01-2.63v2.63Z"/><path class="cls-1" d="M2.45,11.73s1.76,1.26.01,2.63v-2.63Z"/><path class="cls-2" d="M9.95,14.29s-1.76-1.26-.01-2.63v2.63Z"/><path class="cls-1" d="M9.94,11.66s1.76,1.26.01,2.63v-2.63Z"/><path class="cls-2" d="M8.59,14.3s-1.76-1.26-.01-2.63v2.63Z"/><path class="cls-1" d="M8.57,11.67s1.76,1.26.01,2.63v-2.63Z"/><path class="cls-2" d="M7.13,14.34s-1.76-1.26-.01-2.63v2.63Z"/><path class="cls-1" d="M7.11,11.71s1.76,1.26.01,2.63v-2.63Z"/><path class="cls-2" d="M5.76,14.35s-1.76-1.26-.01-2.63v2.63Z"/><path class="cls-1" d="M5.75,11.72s1.76,1.26.01,2.63v-2.63Z"/><path class="cls-2" d="M2.52,11.8s-1.76-1.26-.01-2.63v2.63Z"/><path class="cls-1" d="M2.5,9.17s1.76,1.26.01,2.63v-2.63Z"/><path class="cls-2" d="M10,11.73s-1.76-1.26-.01-2.63v2.63Z"/><path class="cls-1" d="M9.99,9.1s1.76,1.26.01,2.63v-2.63Z"/><path class="cls-2" d="M8.64,11.74s-1.76-1.26-.01-2.63v2.63Z"/><path class="cls-1" d="M8.62,9.1s1.76,1.26.01,2.63v-2.63Z"/><path class="cls-2" d="M7.17,11.78s-1.76-1.26-.01-2.63v2.63Z"/><path class="cls-1" d="M7.16,9.15s1.76,1.26.01,2.63v-2.63Z"/><path class="cls-2" d="M5.81,11.79s-1.76-1.26-.01-2.63v2.63Z"/><path class="cls-1" d="M5.8,9.16s1.76,1.26.01,2.63v-2.63Z"/><path class="cls-2" d="M2.52,9.17s-1.76-1.26-.01-2.63v2.63Z"/><path class="cls-1" d="M2.51,6.54s1.76,1.26.01,2.63v-2.63Z"/><path class="cls-2" d="M10,9.1s-1.76-1.26-.01-2.63v2.63Z"/><path class="cls-1" d="M9.99,6.47s1.76,1.26.01,2.63v-2.63Z"/><path class="cls-2" d="M8.64,9.1s-1.76-1.26-.01-2.63v2.63Z"/><path class="cls-1" d="M8.63,6.47s1.76,1.26.01,2.63v-2.63Z"/><path class="cls-2" d="M7.18,9.15s-1.76-1.26-.01-2.63v2.63Z"/><path class="cls-1" d="M7.17,6.52s1.76,1.26.01,2.63v-2.63Z"/><path class="cls-2" d="M5.81,9.16s-1.76-1.26-.01-2.63v2.63Z"/><path class="cls-1" d="M5.8,6.52s1.76,1.26.01,2.63v-2.63Z"/><path class="cls-2" d="M2.54,6.54s-1.76-1.26-.01-2.63v2.63Z"/><path class="cls-1" d="M2.53,3.91s1.76,1.26.01,2.63v-2.63Z"/><path class="cls-2" d="M10.02,6.47s-1.76-1.26-.01-2.63v2.63Z"/><path class="cls-1" d="M10.01,3.83s1.76,1.26.01,2.63v-2.63Z"/><path class="cls-2" d="M8.66,6.47s-1.76-1.26-.01-2.63v2.63Z"/><path class="cls-1" d="M8.65,3.84s1.76,1.26.01,2.63v-2.63Z"/><path class="cls-2" d="M7.2,6.52s-1.76-1.26-.01-2.63v2.63Z"/><path class="cls-1" d="M7.18,3.89s1.76,1.26.01,2.63v-2.63Z"/><path class="cls-2" d="M5.83,6.52s-1.76-1.26-.01-2.63v2.63Z"/><path class="cls-1" d="M5.82,3.89s1.76,1.26.01,2.63v-2.63Z"/><path class="cls-2" d="M2.44,3.98s-1.76-1.26-.01-2.63v2.63Z"/><path class="cls-1" d="M2.43,1.35s1.76,1.26.01,2.63V1.35Z"/><path class="cls-2" d="M9.93,3.91s-1.76-1.26-.01-2.63v2.63Z"/><path class="cls-1" d="M9.92,1.27s1.76,1.26.01,2.63V1.27Z"/><path class="cls-2" d="M8.56,3.91s-1.76-1.26-.01-2.63v2.63Z"/><path class="cls-1" d="M8.55,1.28s1.76,1.26.01,2.63V1.28Z"/><path class="cls-2" d="M7.1,3.96s-1.76-1.26-.01-2.63v2.63Z"/><path class="cls-1" d="M7.09,1.33s1.76,1.26.01,2.63V1.33Z"/><path class="cls-2" d="M5.74,3.96s-1.76-1.26-.01-2.63v2.63Z"/><path class="cls-1" d="M5.73,1.33s1.76,1.26.01,2.63V1.33Z"/><rect class="cls-4" x="3.13" y=".4" width=".32" height="40.85" transform="translate(-.09 .02) rotate(-.26)"/><path class="cls-3" d="M11.2,0l.19,41.57-11.2.05L0,.05l11.2-.05ZM10.66,40.85l-.18-40.12-9.75.04.18,40.12,9.75-.04Z"/></svg>