<?xml version="1.0" encoding="UTF-8"?><svg id="Business_plan" xmlns="http://www.w3.org/2000/svg" viewBox="0 0 530 530"><defs><style>.cls-1{fill:#a5dff9;}.cls-2{fill:#225378;}.cls-3{fill:#fcbc89;}.cls-4{fill:#bdbdbd;}.cls-5{fill:#fee6d0;}.cls-6{fill:#d99159;}.cls-7{fill:#fed1a7;}.cls-8{fill:#fdd1b0;}.cls-9{fill:#ac1e23;}.cls-10{fill:#4f4f4f;}.cls-11{fill:#e7f6fd;}.cls-12{fill:#007396;}.cls-13{fill:#ffdabd;}.cls-14{fill:#76b8bf;}.cls-15{fill:#e1f4fd;}.cls-16{fill:#d9d9d9;}</style></defs><rect class="cls-14" x="0" width="530" height="530"/><g id="clipboard"><path class="cls-4" d="M285.88,64.35l-16.07-10.83h-32.25s-6.72,10.28-6.72,10.28l9.36,29.07,55.04-.03-9.36-28.5Z"/><path class="cls-12" d="M380.29,452.43l-230.4,.1c-11.53,0-20.89-9.34-20.89-20.87l-.15-327c0-11.53,9.34-20.89,20.88-20.89l230.4-.1c11.53,0,20.89,9.34,20.89,20.87l.15,327c0,11.53-9.34,20.89-20.88,20.89Z"/><rect class="cls-11" x="145.45" y="97.05" width="239.32" height="342.08"/><polygon class="cls-16" points="296.47 92.85 240.08 92.87 221.74 97.89 221.75 110.04 313.53 110 313.53 97.85 296.47 92.85"/><path class="cls-16" d="M298.16,47.73l-32.42,.02-16.15,12.43-9.38,32.69,55.33-.03,9.38-33.34-6.76-11.77Z"/><g><path class="cls-12" d="M200.07,125.42h9.31c4.6,0,5.77,2.89,5.77,4.81,0,2.7-1.51,3.51-2.29,3.9,2.31,.86,2.89,2.68,2.89,4.52,0,1.61-.6,5.64-7.57,5.64h-8.11v-18.88Zm3.93,7.38h4.6c1.56,0,2.78-.6,2.78-2.11s-1.09-2.03-2.89-2.03h-4.5v4.13Zm0,8.24h4.78c1.92,0,3.04-.86,3.04-2.78,0-1.64-1.4-2.29-2.83-2.29h-4.99v5.07Z"/><path class="cls-12" d="M222.66,125.42v12.27c0,2.63,1.51,3.77,3.35,3.77,2.7,0,3.8-1.3,3.8-3.59v-12.45h3.93v12.22c0,4.97-2.89,7.15-7.64,7.15-3.2,0-7.36-1.25-7.36-6.89v-12.48h3.93Z"/><path class="cls-12" d="M240.34,138.47c0,1.07,.57,3.07,4,3.07,1.87,0,3.95-.47,3.95-2.44,0-1.48-1.43-1.85-3.43-2.34l-3.8-.94c-2.68-.65-4.21-2.24-4.21-5.1,0-2.08,1.14-5.8,7.25-5.8,5.77,0,7.33,3.8,7.33,6.11h-3.77c-.1-.86-.42-2.86-3.85-2.86-1.51,0-3.3,.57-3.3,2.26,0,1.48,1.22,1.79,2,1.98l4.6,1.12c2.57,.65,4.94,1.69,4.94,5.07,0,5.69-5.77,6.19-7.44,6.19-6.86,0-8.06-3.98-8.06-6.32h3.77Z"/><path class="cls-12" d="M258.8,144.29h-3.93v-18.88h3.93v18.88Z"/><path class="cls-12" d="M266.6,125.42l7.49,13.13h.05v-13.13h3.67v18.88h-3.95l-7.67-13.47h-.08v13.47h-3.67v-18.88h4.16Z"/><path class="cls-12" d="M295.38,125.42v3.25h-10.01v3.9h9.18v3.25h-9.18v5.23h10.43v3.25h-14.35v-18.88h13.94Z"/><path class="cls-12" d="M301.75,138.47c0,1.07,.57,3.07,4,3.07,1.87,0,3.95-.47,3.95-2.44,0-1.48-1.43-1.85-3.43-2.34l-3.8-.94c-2.68-.65-4.21-2.24-4.21-5.1,0-2.08,1.14-5.8,7.25-5.8,5.77,0,7.33,3.8,7.33,6.11h-3.77c-.1-.86-.42-2.86-3.85-2.86-1.51,0-3.3,.57-3.3,2.26,0,1.48,1.22,1.79,2,1.98l4.6,1.12c2.57,.65,4.94,1.69,4.94,5.07,0,5.69-5.77,6.19-7.44,6.19-6.86,0-8.06-3.98-8.06-6.32h3.77Z"/><path class="cls-12" d="M319.25,138.47c0,1.07,.57,3.07,4,3.07,1.87,0,3.95-.47,3.95-2.44,0-1.48-1.43-1.85-3.43-2.34l-3.8-.94c-2.68-.65-4.21-2.24-4.21-5.1,0-2.08,1.14-5.8,7.25-5.8,5.77,0,7.33,3.8,7.33,6.11h-3.77c-.1-.86-.42-2.86-3.85-2.86-1.51,0-3.3,.57-3.3,2.26,0,1.48,1.22,1.79,2,1.98l4.6,1.12c2.57,.65,4.94,1.69,4.94,5.07,0,5.69-5.77,6.19-7.44,6.19-6.86,0-8.06-3.98-8.06-6.32h3.77Z"/><path class="cls-12" d="M235.19,171.29h-3.93v-18.88h8.63c3.64,0,5.82,2.31,5.82,6.03,0,1.69-.94,6.03-6.01,6.03h-4.52v6.81Zm0-10.06h3.67c2.6,0,2.94-1.77,2.94-2.94,0-1.85-1.01-2.63-3.46-2.63h-3.15v5.56Z"/><path class="cls-12" d="M252.64,168.04h9.41v3.25h-13.34v-18.88h3.93v15.63Z"/><path class="cls-12" d="M274.58,152.42l6.63,18.88h-4.26l-1.22-3.9h-6.94l-1.33,3.9h-4.13l6.71-18.88h4.55Zm-4.76,11.73h5.04l-2.57-7.46h-.05l-2.42,7.46Z"/><path class="cls-12" d="M287.74,152.42l7.49,13.13h.05v-13.13h3.67v18.88h-3.95l-7.67-13.47h-.08v13.47h-3.67v-18.88h4.16Z"/></g><g><g><path class="cls-1" d="M226.32,238.77l-61.07,.03-.02-48.92,61.07-.03,.02,48.92Zm-53.78-7.27l46.49-.02-.02-34.34-46.49,.02,.02,34.34Z"/><polygon class="cls-9" points="196.87 226.74 178.79 208.95 183.9 203.75 194.69 214.36 213.28 175.3 219.86 178.43 196.87 226.74"/></g><g><path class="cls-1" d="M226.32,314.95l-61.07,.03-.02-48.92,61.07-.03,.02,48.92Zm-53.78-7.27l46.49-.02-.02-34.34-46.49,.02,.02,34.34Z"/><polygon class="cls-9" points="196.87 302.92 178.79 285.13 183.9 279.93 194.69 290.55 213.28 251.48 219.86 254.61 196.87 302.92"/></g><g><path class="cls-1" d="M226.32,391.13l-61.07,.03-.02-48.92,61.07-.03,.02,48.92Zm-53.78-7.27l46.49-.02-.02-34.34-46.49,.02,.02,34.34Z"/><polygon class="cls-9" points="196.87 379.11 178.79 361.32 183.9 356.12 194.69 366.73 213.28 327.66 219.86 330.79 196.87 379.11"/></g><g><rect class="cls-1" x="245.33" y="189.45" width="119.87" height="8.45"/><rect class="cls-1" x="245.33" y="229.24" width="119.87" height="8.45"/><rect class="cls-1" x="245.33" y="266.74" width="119.87" height="8.45"/><rect class="cls-1" x="245.33" y="306.35" width="119.87" height="8.45"/><rect class="cls-1" x="245.33" y="341.21" width="119.87" height="8.45"/><rect class="cls-1" x="245.33" y="382.4" width="119.87" height="8.45"/></g></g></g><g id="Hands"><g><path class="cls-7" d="M355.49,368.24h0c9.46-3.36,19.95,1.62,23.31,11.08l4.96,15.54c3.36,9.46-1.6,19.96-11.08,23.31-8.04,2.84-19.95-1.62-23.31-11.08l-4.96-15.54c-3.36-9.46,1.62-19.95,11.08-23.31Z"/><path class="cls-8" d="M166.05,417.79s7.03,9.84,18.28,11.25c11.25,1.41,60.94,8.44,60.94,8.44l28.6-58.13-33.75-16.88-74.07,55.32Z"/><g><path class="cls-3" d="M380.44,286.22s-22.66,7.34-43.75,4.06c-21.1-3.28-61.88-22.03-77.35-18.28-15.47,3.75-45.63,20.63-52.19,21.1-2.33,.17-4.29,16.78,4.06,21.88,15.18,9.26,46.72,9.53,46.72,9.53,0,0-19.69,9.84-31.41,19.69-9.98,8.38-64.83,53.78-72.19,61.88-9.38,10.31,3.28,28.6,15.94,22.97,6.71-2.98,39.38-29.06,44.07-32.35,4.69-3.28,13.59-1.41,13.59-1.41,0,0-27.03,25.31-31.72,31.88-4.69,6.56-4.06,13.44,1.56,19.38,6.11,6.45,21.25,.78,21.25,.78,0,0-.47,6.09,6.56,11.72s15.94,2.5,15.94,2.5c0,0,4.07,8.58,11.56,9.69,16.88,2.5,68.13-45.94,88.29-57.66,20.16-11.72,58.13-41.25,62.82-44.53,4.69-3.28-23.75-82.82-23.75-82.82Z"/><path class="cls-3" d="M149.81,424.23h0c-5.91-8.12-4.1-19.59,4.02-25.5l62.81-45.7c8.12-5.91,19.59-4.1,25.5,4.02h0c5.91,8.12,4.1,19.59-4.02,25.5l-62.81,45.7c-8.12,5.91-19.59,4.1-25.5-4.02Z"/><path class="cls-3" d="M192.95,442.23h0c-5.91-8.12-4.1-19.59,4.02-25.5l62.81-45.7c8.12-5.91,19.59-4.1,25.5,4.02h0c5.91,8.12,4.1,19.59-4.02,25.5l-62.81,45.7c-8.12,5.91-19.59,4.1-25.5-4.02Z"/><path class="cls-3" d="M218.87,455.56h0c-5.91-8.12-4.1-19.59,4.02-25.5l62.81-45.7c8.12-5.91,19.59-4.1,25.5,4.02h0c5.91,8.12,4.1,19.59-4.02,25.5l-62.81,45.7c-8.12,5.91-19.59,4.1-25.5-4.02Z"/><path class="cls-3" d="M242.49,466.96h0c-5.91-8.12-4.1-19.59,4.02-25.5l62.81-45.7c8.12-5.91,19.59-4.1,25.5,4.02h0c5.91,8.12,4.1,19.59-4.02,25.5l-62.81,45.7c-8.12,5.91-19.59,4.1-25.5-4.02Z"/></g><path class="cls-3" d="M203.53,321.22s-10.89-1.08-26.22-4.73c-15.98-3.81-15.04-24.7-15.04-24.7,0,0,34.79-.21,48.89,.05,14.1,.26-7.63,29.38-7.63,29.38Z"/><path class="cls-7" d="M99.64,300.75c1.88,.94,77.66,19.06,77.66,19.06,0,0,55.79-26.25,63.29-28.13,7.5-1.88,47.35-6.56,53.44-2.34,6.09,4.22,32.82,37.03,32.82,37.03,0,0-18.91,17.81-35.32,3.28-5.04-4.46-14.53-10.31-14.53-10.31l-30.63,11.41-95.79,70.94-28.44-11.41-82.04-8.44,59.54-81.1Z"/><path class="cls-13" d="M194.45,291.74l-.02,.43c-.04,5.06-4.21,9.18-9.28,9.14l-13.46-.1c-5.06-.04-6.48-4.19-6.45-9.26v-.17s29.2-.04,29.2-.04Z"/><g><path class="cls-7" d="M280.76,418.81h0c6.77-7.41,18.37-7.94,25.79-1.17l14.75,14.46c7.41,6.77,7.66,19.14,1.17,25.79-5.96,6.11-18.37,7.94-25.79,1.17l-14.75-14.46c-7.41-6.77-7.94-18.37-1.17-25.79Z"/><path class="cls-5" d="M307.46,442.32h0c-4.02,4.5-10.99,4.9-15.49,.88l-8.77-7.83c-2.57-2.3-2.8-6.28-.5-8.85l6.26-7.02c2.3-2.57,6.28-2.8,8.85-.5l8.77,7.83c4.5,4.02,4.9,10.99,.88,15.49Z"/></g><path class="cls-5" d="M306.2,301.8l-.4,.19c-3.83,3.32-4.24,9.16-.93,12.99l8.82,10.17c3.32,3.83,7.4,2.21,11.23-1.11l.03,.09-18.75-22.33Z"/><g><path class="cls-7" d="M307.58,397.96h0c6.77-7.41,18.37-7.94,25.79-1.17l11.68,11.38c7.41,6.77,7.5,19.06,1.17,25.79-5.85,6.21-18.37,7.94-25.79,1.17l-11.68-11.38c-7.41-6.77-7.94-18.37-1.17-25.79Z"/><path class="cls-5" d="M334.28,421.48h0c-4.02,4.5-10.99,4.9-15.49,.88l-8.77-7.83c-2.57-2.3-2.8-6.28-.5-8.85l6.26-7.02c2.3-2.57,6.28-2.8,8.85-.5l8.77,7.83c4.5,4.02,4.9,10.99,.88,15.49Z"/></g><polygon class="cls-3" points="349.5 291.37 524 263.51 524 370.85 404.2 369.03 349.5 291.37"/><polygon class="cls-7" points="178.4 319.66 0 277.18 0 382.51 122.14 389.66 178.4 319.66"/><path class="cls-6" d="M215.78,448.47l37.03-30.31s-9.37,11.09-19.06,18.75c-4.52,3.57-17.11,14.83-17.11,14.83l-.86-3.26Z"/><path class="cls-6" d="M239.93,462.07c2.93-1.23,17.23-14.04,27.7-23.19,0,0-2.72,5.27-11.8,13.52-4.18,3.79-12.23,11.11-14.92,11.99-.7-1.35-.98-2.32-.98-2.32Z"/><g><path class="cls-7" d="M259.83,442.83h0c7.22-6.98,18.83-6.78,25.81,.44l7.37,8.51c6.98,7.22,6.43,19.38-.44,25.81-6.23,5.83-18.83,6.78-25.81-.44l-7.37-8.51c-6.98-7.22-6.78-18.83,.44-25.81Z"/><path class="cls-5" d="M285.01,467.97h0c-4.29,4.24-11.27,4.2-15.51-.09l-8.26-8.36c-2.42-2.45-2.4-6.44,.05-8.87l6.69-6.61c2.45-2.42,6.44-2.4,8.87,.05l8.26,8.36c4.24,4.29,4.2,11.27-.09,15.51Z"/></g><polygon class="cls-3" points="328.17 439.12 302.94 412.16 301.9 412.77 300.91 414.12 326.61 441.07 325.63 438.32 328.17 439.12"/><path class="cls-3" d="M299.91,461.23c.35-.12-23.38-25.55-23.38-25.55l-1.17,.76,.23,1.5s21.94,24.24,22.19,24.38c.25,.14-.33-2.56-.33-2.56,0,0,2.11,1.58,2.46,1.47Z"/></g><path class="cls-15" d="M455.86,259.56l-52.94,9.86s-7.63,15.67-.43,50.78c7.2,35.12,27.14,61.98,27.14,61.98l62.04-10.81-35.81-111.81Z"/><path class="cls-10" d="M530,233.68l-100.5,24.09s-5.02,20.56,1.97,55.72c10.83,54.48,31.66,74.13,31.66,74.13l66.87-10.27V233.68Z"/><path class="cls-15" d="M78.84,276.26l50.35,13.38s7.53,16.23-2.1,50.76c-9.62,34.53-32.38,59.87-32.38,59.87l-59.21-13.95,43.34-110.06Z"/><path class="cls-2" d="M0,247.35l103.47,28.83s3.58,20.86-5.84,55.45c-14.59,53.59-36.73,71.75-36.73,71.75L0,390.68V247.35Z"/></g></svg>