<?xml version="1.0" encoding="UTF-8"?>
<svg id="Layer_1" xmlns="http://www.w3.org/2000/svg" version="1.1" viewBox="0 0 231.85 231.85">
  <!-- Generator: Adobe Illustrator 29.5.0, SVG Export Plug-In . SVG Version: 2.1.0 Build 137)  -->
  <defs>
    <style>
      .st0 {
        fill: #1b1914;
      }

      .st1 {
        fill: #feca2a;
      }

      .st2 {
        fill: #f8c0c1;
      }

      .st3 {
        fill: #0e0b0b;
      }

      .st4 {
        fill: #020202;
      }

      .st5 {
        fill: #ed607c;
      }

      .st6 {
        fill: #211a1a;
      }

      .st7 {
        fill: #171717;
      }

      .st8 {
        fill: #feca2e;
      }

      .st9 {
        fill: #59486c;
      }

      .st10 {
        fill: #fef9e8;
      }

      .st11 {
        fill: #150b0d;
      }

      .st12 {
        fill: #050406;
      }

      .st13 {
        fill: #fec929;
      }

      .st14 {
        fill: #fdf4e7;
      }

      .st15 {
        fill: #edafb2;
      }

      .st16 {
        fill: #3a2b66;
      }

      .st17 {
        fill: #150d0f;
      }

      .st18 {
        fill: #fbf2e6;
      }

      .st19 {
        fill: #57466b;
      }

      .st20 {
        fill: #56456a;
      }

      .st21 {
        fill: #0c0a10;
      }

      .st22 {
        fill: #f7c0c1;
      }

      .st23 {
        fill: #fbefe4;
      }

      .st24 {
        fill: #fef5e8;
      }
    </style>
  </defs>
  <path class="st14" d="M132.51,66.07c.41,3.75,3.93,7.88,7.32,9.35,1.91.83,3.19.63,4.95,1.01.51.11,3.79,1.54,3.99,1.83l4.61,7.86c-.62,1.83.2,3.8.27,5.69l-2.3-2.71c-2.98-2.37-7.26-.78-6.62,3.37.26,1.68,2.66,4.13,4.05,5.03-8.01,6.94-6.62,21.06,4.34,24.12-.17.87-.15,1.87-.27,2.71-.07.51-.27,2.42-.52,2.59-2.03-.05-3.84.67-5.71,1.2-.95.27-1.97.39-2.9.76-6.1,2.41-10.89,7.07-14.72,12.25-.04-.05-.41-.21-.54-.27-.05-1.53.07-3.08,0-4.61.62-.19.53-.7.56-1.2.26-4.56.51-13.29,0-17.64-.05-.39-.03-.7-.42-.93h-13.41c1.04-2.45,3.51-3.37,3.19-6.56-.73-7.42-12.15-6.78-11.32,1.28.26,2.53,2.24,3.18,2.98,5.28h-13.55v13.55c-1.66-.14-2.24-1.9-3.79-2.58-5.26-2.3-10.34,3.87-7.05,8.4,2.31,3.18,5.68,3.13,8.67.95.11,1.46.95,2.97,2.17,3.79.03,1.6.17,3.11.27,4.61.07,1.07-.05,2.18,0,3.25,1.8,0,3.62-.01,5.42,0,.03,1.75.85,3.53,1.5,5.14,2.4,5.98,7.97,15.85,14.55,17.7,4.94,1.39,9.65-1.5,13.76-3.87.28.13,1.26.02,1.37.45l-.55,12.56c-20.1.15-40.21-.2-60.31-.01-.74,0-1.38.28-2.02.28.16-.78-.39-.49-.86-.62-13.46-3.55-23.97-15.2-19.66-29.79,2.57-8.72,10.31-11.69,17.81-15.25-2.97-2.15-5.02-5.09-6.23-8.54,7.18.43,14.83-.1,21.95-.27,2.97-.07,5.97.05,8.94,0v-13.82c-2.8.84-3.34,3.52-6.87,3.23-6.73-.55-6.42-11.38,1.32-10.55,2.79.3,3,2.8,5.55,2.98v-13.28c.31.05.25-.27.27-.27,4.51-.07,9.04.06,13.55,0-.5-2.93-3.48-3.37-3.23-6.87.5-7.08,11.59-6.39,10.53,1.29-.35,2.5-2.7,3.3-3.23,5.58h13.82v-11.11c.92-4.8.63-11.03.54-16.26,2.52-.91,5.18-1.25,7.86-1.08ZM73.7,171.22c-1.74,1.42,1.35,3.56,2.87,3.77,5.15.7,7.69-4.24,4.95-8.34-.32-.19-.75.08-1.04.23-3.67-4.19-.06-9.27-.57-13.93-.82-7.44-8.6-11.38-15.42-9.24-9.62,3.01-12.8,16.04-3.77,21.66,4.12,2.56,9.94,1.01,12.99,5.85Z"/>
  <path class="st14" d="M168.28,118.1c.57,1.38,4.44,1.19,5.69.81l-1.08,10.03c-2.24-.89-4.04-1.05-6.23-1.63-.28-.07-1.02-.14-1.1-.45.77-2.75-.44-7.54,2.73-8.76Z"/>
  <path class="st24" d="M60.42,122.98c-2.99-8.44-3.66-18.8,0-27.1.07,9.03-.09,18.07,0,27.1Z"/>
  <path class="st18" d="M180.21,170.41c.53-5.13-.26-11.13.54-16.13.23-1.41,1.13-2.89,1.36-3.93,1.86,6.58,1.54,14.07-1.9,20.05Z"/>
  <path class="st22" d="M94.3,136.8c.18-.13,1.77-2.07,2.17-1.62.03,1.8-.03,3.62,0,5.42-1.22-.82-2.05-2.34-2.17-3.79Z"/>
  <path class="st23" d="M117.87,142.49c-1.8-1.61-2.27-4.07-5.15-3.79v-1.9c3.47.05,5.18,2.38,5.15,5.69Z"/>
  <path class="st22" d="M112.72,136.8v1.9c-1.87.18-3.57,1.57-5.15,2.44.48-2.76,2.29-4.38,5.15-4.34Z"/>
  <g>
    <g>
      <path class="st20" d="M172.89,128.94c10.26,4.07,11.44,11.49,9.21,21.41-.23,1.04-1.13,2.52-1.36,3.93-.8,5,0,11-.54,16.13l-.81,10.03h-45.8s.55-12.2.55-12.2c5.3,2.28,10.7,4.51,16.26,6.1,9.31,2.66,15.64,4.06,22.48-4.07.35-.41,2.23-2.75,1.9-3.11-1.21.26-1.78,1.84-2.57,2.71-7.05,7.77-12.47,6.34-21.82,3.65-5.88-1.69-19.65-6.59-24.21-10.21-1.29-1.03-1.12-1.7-.99-3.34.23-2.94,3.61-11.95,6.9-12.35,2.85-.34,11.66,3.79,14.69,5.12,3.39,1.49,8.76,4.74,12,5.61.4.11.77.23,1.18.09,1.06-.35,6.54-14.41,7.23-16.5l-.89.34-6.6,15.4-23.92-10.07,2.14-13.8c-.68-.8-1.43,2.98-1.49,3.25-.76,3.29-.9,6.69-1.52,10-1.72-.02-2.67-.67-4.3.3-.4-1.37-.95-5.24-1.63-6.23,3.83-5.18,8.62-9.84,14.72-12.25.93-.37,1.95-.49,2.9-.76.39,11.7,18.84,9.53,20.05-.81,2.19.58,3.99.74,6.23,1.63Z"/>
      <path class="st12" d="M130.61,147.37c1.64-.98,2.59-.32,4.3-.3.62-3.31.76-6.71,1.52-10,.06-.26.81-4.05,1.49-3.25l-2.14,13.8,23.92,10.07,6.6-15.4.89-.34c-.69,2.08-6.17,16.14-7.23,16.5-.41.14-.78.02-1.18-.09-3.24-.87-8.61-4.13-12-5.61-3.03-1.33-11.84-5.46-14.69-5.12-3.29.39-6.67,9.41-6.9,12.35-.13,1.64-.3,2.31.99,3.34,4.55,3.62,18.33,8.52,24.21,10.21,9.35,2.68,14.77,4.11,21.82-3.65.79-.87,1.36-2.45,2.57-2.71.33.35-1.55,2.69-1.9,3.11-6.84,8.13-13.17,6.74-22.48,4.07-5.56-1.59-10.96-3.82-16.26-6.1l-.55,12.2h45.8s3.79.27,3.79.27v.54s-134.15,0-134.15,0l.4-.54c7-.05,14.01.07,21.01,0,.64,0,1.28-.28,2.02-.28,20.1-.18,40.21.16,60.31.01l.55-12.56c-.1-.43-1.08-.32-1.37-.45-1.37-.63-6.24-3.24-7.05-4.2-1-1.17-.46-2.64-.27-3.93.48-3.23,3.09-10.21,5.96-11.92Z"/>
    </g>
    <path class="st19" d="M112.72,138.7c2.88-.28,3.35,2.18,5.15,3.79,0,.27,0,.54,0,.81-5.23.33-7.68,7-4.08,10.72,1.34,1.38,6.49,3.62,8.5,4.51.73.32,1.54.7,2.35.77-.19,1.29-.73,2.76.27,3.93.81.96,5.68,3.56,7.05,4.2-4.11,2.37-8.82,5.26-13.76,3.87-6.58-1.85-12.15-11.72-14.55-17.7-.65-1.61-1.47-3.4-1.5-5.14,2.8.01,5.6,0,8.4,0,.13-1.35-1.22-1.95-1.89-2.85-1.21-1.63-1.43-2.52-1.09-4.46,1.58-.87,3.28-2.26,5.15-2.44Z"/>
    <g>
      <path class="st22" d="M148.77,97.51c2.38,1.55,7.21,3.51,9.96,4.54,2.43.91,5.1,1.83,7.66,2.24-.42,2-1.71,3.94-.74,6.02s2.18-.53,3.36-1.1c4.61-2.24,8.67,3.26,5.62,6.98-1.63,1.99-4.5,2.11-6.49.57.09.34.07,1.18.14,1.35-3.17,1.22-1.95,6.01-2.73,8.76.08.31.82.38,1.1.45-1.22,10.34-19.66,12.51-20.05.81,1.87-.53,3.68-1.25,5.71-1.2.25-.17.45-2.08.52-2.59l7.04-1.9c.06-.47-.62-.26-.94-.27-2.26-.09-3.57.09-5.83-.54-10.95-3.06-12.35-17.18-4.34-24.12ZM147.71,101.06c-1.14,2.01,1.93,1.93,3.14,2.91,3-1.21-2.47-3.39-3.14-2.91ZM155.45,104.04c-.28.08-.67.71-.69.97-.07.77,2.77,1.37,3.4,1.94l.77-.5c.78-1.15-2.95-2.57-3.49-2.41ZM147.88,104.32c-1.28.36-.8,2.51.7,2.09,1.28-.36.8-2.51-.7-2.09ZM152.56,104.82c-.63-.07-.7-.05-1.02.46-.35.55-2.12,4.16-2.17,4.61-.1,1.01,1.32,2.89,2.24,3.06.35.06.56-.05.41-.41-.27-.63-1.92-1.4-1.88-2.44l2.42-5.28ZM155.47,107.57c-1.28.36-.8,2.51.7,2.09,1.28-.36.8-2.51-.7-2.09ZM173.16,112.14c.09-.52-.22-.73-.68-.82-1.86-.34-4.06,1.31-3.92,3.25,1.1-.31,1.03-1.75,2.24-2.23.79-.32,1.56-.2,2.37-.21ZM156.9,115.12c-1.25-.07-.88,1.11-2.32,1.34-.53.08-1.31.08-1.83-.04-.16-.04-2.24-1.42-1.81-.35.8,1.98,5.91,1.61,5.96-.94Z"/>
      <path class="st2" d="M128.44,140.87c.13.06.51.22.54.27.67,1,1.22,4.86,1.63,6.23-2.87,1.71-5.48,8.69-5.96,11.92-.81-.06-1.62-.44-2.35-.77-2.01-.88-7.16-3.12-8.5-4.51-3.61-3.71-1.15-10.39,4.08-10.72,2.83-.18,5.62,1.97,8,3.25-.71-2.28-1.63-7.58,2.57-5.69Z"/>
      <path class="st15" d="M153.11,121.63c2.26.63,3.57.46,5.83.54.33.01,1.01-.2.94.27l-7.04,1.9c.12-.84.1-1.84.27-2.71Z"/>
      <path class="st3" d="M147.71,101.06c.67-.47,6.13,1.7,3.14,2.91-1.2-.98-4.27-.9-3.14-2.91Z"/>
      <path class="st7" d="M152.56,104.82l-2.42,5.28c-.05,1.05,1.61,1.81,1.88,2.44.15.36-.06.47-.41.41-.93-.17-2.34-2.04-2.24-3.06.04-.46,1.82-4.06,2.17-4.61.32-.52.4-.53,1.02-.46Z"/>
      <path class="st3" d="M155.45,104.04c.54-.16,4.27,1.26,3.49,2.41l-.77.5c-.63-.57-3.47-1.17-3.4-1.94.02-.26.41-.89.69-.97Z"/>
      <path class="st6" d="M156.9,115.12c-.04,2.56-5.16,2.92-5.96.94-.43-1.07,1.65.32,1.81.35.52.12,1.3.12,1.83.04,1.44-.23,1.07-1.41,2.32-1.34Z"/>
      <path class="st6" d="M173.16,112.14c-.81,0-1.58-.11-2.37.21-1.21.49-1.14,1.92-2.24,2.23-.13-1.94,2.06-3.59,3.92-3.25.46.08.77.3.68.82Z"/>
      <path class="st3" d="M155.47,107.57c1.5-.42,1.98,1.73.7,2.09-1.5.42-1.98-1.73-.7-2.09Z"/>
      <path class="st3" d="M147.88,104.32c1.5-.42,1.98,1.73.7,2.09-1.5.42-1.98-1.73-.7-2.09Z"/>
    </g>
    <path class="st4" d="M153.38,86.12c.58-1.72,3.62-2.6,5.13-1.74,1.99,1.14,1.16,4.14,3.42,4.98,2.05.76,7.3-1.34,9.78-1.58,10.32-1.01,11.34,10.73,4.17,15.68,3.35,1.16,4.19,6.53,3.45,9.56-.55,2.28-3.09,5.22-5.35,5.89-1.25.38-5.12.57-5.69-.81-.07-.17-.05-1.01-.14-1.35,1.99,1.54,4.86,1.42,6.49-.57,3.04-3.72-1.01-9.22-5.62-6.98-1.19.57-2.42,3.14-3.36,1.1s.32-4.03.74-6.02c-2.55-.41-5.23-1.33-7.66-2.24-2.75-1.03-7.58-2.99-9.96-4.54-1.39-.9-3.79-3.35-4.05-5.03-.64-4.15,3.64-5.74,6.62-3.37l2.3,2.71c-.07-1.89-.89-3.86-.27-5.69Z"/>
  </g>
  <g>
    <path class="st11" d="M94.3,136.8c-2.99,2.18-6.36,2.23-8.67-.95-3.29-4.54,1.79-10.7,7.05-8.4,1.55.68,2.13,2.43,3.79,2.58v-13.55h13.55c-.74-2.1-2.72-2.75-2.98-5.28-.83-8.05,10.59-8.69,11.32-1.28.32,3.19-2.16,4.11-3.19,6.56h13.41c.39.24.37.54.42.93.51,4.35.26,13.09,0,17.64-.03.51.06,1.02-.56,1.2,0-.05-.28-.43-.29-.92-.19-6,.18-12.05.02-18.05h-13.82c-.1-3.27,3.62-3.76,3.24-7.42-.7-6.65-11.52-5.44-9.61,2.01.47,1.85,2.99,3.12,3.08,4.79.01.23-.2.62-.37.62h-13.41v13.41c0,.16-.39.38-.62.37-1.68-.09-2.94-2.61-4.79-3.08-7.37-1.88-8.82,8.9-2.01,9.61,3.66.38,4.15-3.33,7.42-3.24-.1,3.29.13,6.61,0,9.91-.02.52.28,1.09-.54.94-.1-1.5-.24-3.01-.27-4.61-.03-1.8.03-3.62,0-5.42-.39-.45-1.99,1.49-2.17,1.62Z"/>
    <path class="st5" d="M96.74,145.2c.82.15.52-.41.54-.94.13-3.29-.1-6.61,0-9.91-3.27-.1-3.76,3.62-7.42,3.24-6.81-.72-5.35-11.49,2.01-9.61,1.85.47,3.12,2.99,4.79,3.08.23.01.62-.2.62-.37v-13.41h13.41c.16,0,.38-.39.37-.62-.09-1.68-2.61-2.94-3.08-4.79-1.9-7.45,8.91-8.66,9.61-2.01.39,3.66-3.33,4.16-3.24,7.42h13.82c.16,6-.21,12.05-.02,18.05.02.48.29.87.29.92.07,1.53-.05,3.08,0,4.61-4.2-1.9-3.28,3.41-2.57,5.69-2.38-1.28-5.17-3.42-8-3.25,0-.27,0-.54,0-.81.03-3.31-1.68-5.64-5.15-5.69-2.86-.04-4.67,1.57-5.15,4.34-.34,1.94-.12,2.84,1.09,4.46.67.9,2.02,1.5,1.89,2.85-2.8,0-5.6.02-8.4,0-1.8,0-3.62,0-5.42,0-.05-1.08.07-2.18,0-3.25Z"/>
  </g>
  <g>
    <g>
      <g>
        <path class="st21" d="M92.4,93.98l.27.54s.04.32-.27.27h-31.17v30.89c6.87.36,14.2-.47,21.02-.02.5.03,1.01-.06,1.2.56-7.13.17-14.77.71-21.95.27-.36-.02-.73.02-1.09,0,0-1.17.01-2.35,0-3.52-.09-9.03.07-18.07,0-27.1l.27-1.9h31.71Z"/>
        <path class="st16" d="M92.4,94.8v13.28c-2.55-.18-2.77-2.68-5.55-2.98-7.74-.83-8.05,10-1.32,10.55,3.53.29,4.07-2.39,6.87-3.23v13.82c-2.97.05-5.97-.07-8.94,0-.19-.62-.7-.52-1.2-.56-6.81-.46-14.15.37-21.02.02v-30.89h31.17Z"/>
      </g>
      <g>
        <path class="st5" d="M92.4,62.82v13.82c-2.4-.64-2.95-2.99-5.55-3.25-8.24-.83-7.86,11.26-.31,10.54,2.78-.27,3.42-2.57,5.86-3.22v13.28s-31.71,0-31.71,0c.2-4.27-.27-8.77,0-13.01,0-.05.75-.97-.1-.79-2.01.44-2.83,2.6-4.77,3.1-7.46,1.91-8.65-8.9-2.01-9.61,3.58-.38,4.22,3.27,7.42,3.23v-13.82c7.1-.06,14.21.07,21.31.02.5,0,.87-.29.92-.29,2.98-.01,5.97-.01,8.94,0Z"/>
        <path class="st17" d="M83.46,62.82s-.42.29-.92.29c-7.1.05-14.21-.08-21.31-.02v13.82c-3.2.04-3.85-3.62-7.42-3.23-6.64.71-5.44,11.52,2.01,9.61,1.93-.49,2.75-2.66,4.77-3.1.85-.19.11.73.1.79-3.12,1.88-4.9,4.69-9.03,2.66-6.54-3.21-1.52-13.68,5.43-10.03,1.2.63,1.86,2.34,3.33,2.49v-13.41c.24-.39.54-.37.93-.42,6.43-.75,14.31.6,20.9,0l1.2.56Z"/>
      </g>
    </g>
    <g>
      <path class="st13" d="M99.45,62.82s.31.27.66.28c2.22.06,4.45-.06,6.66-.01-.11-2.59-2.9-3.4-3.23-5.85-.96-7.35,9.4-7.58,9.74-1.32.2,3.62-3.1,4.05-3.26,7.17h13.82l.27,20.33v11.11h-13.82c.53-2.28,2.88-3.08,3.23-5.58,1.07-7.68-10.03-8.37-10.53-1.29-.25,3.5,2.73,3.94,3.23,6.87-4.51.06-9.04-.07-13.55,0l-.27-.54v-13.28c-2.44.65-3.07,2.96-5.86,3.22-7.56.72-7.93-11.37.31-10.54,2.61.26,3.16,2.61,5.55,3.25v-13.82c2.35,0,4.71-.05,7.05,0Z"/>
      <path class="st0" d="M99.45,62.82c.19-.62.7-.53,1.2-.56,1.66-.1,3.36.1,5.03.01-.47-1.71-2.4-2.56-2.85-4.33-1.92-7.55,8.65-10.17,10.91-3.59,1.25,3.62-1.05,5.33-2.91,7.92h13.41c.74,1.25.38,3.34.41,4.88.08,5.23.38,11.46-.54,16.26l-.27-20.33h-13.82c.16-3.12,3.46-3.55,3.26-7.17-.34-6.25-10.71-6.03-9.74,1.32.32,2.45,3.11,3.26,3.23,5.85-2.21-.05-4.44.07-6.66.01-.35,0-.62-.28-.66-.28Z"/>
    </g>
  </g>
  <g>
    <path class="st1" d="M80.47,166.88c-.5.26-1.59.99-2.17,1.36l-8.57-10.84.02-.54c1.26-.95,5.32-5.87,2.4-6.72-2.13-.62-3.47.9-3.81,2.85-.36,2.11,1.25,4.22-1.56,4.95-1.23-.73-2.42-1.8-3.99-1.57s-2.58,1.82-1.28,3.05c1.92,1.8,4.46-.58,5.4,0l7.86,11.25c-.39.27-1.04.5-1.08.54-3.04-4.84-8.87-3.29-12.99-5.85-9.03-5.62-5.85-18.65,3.77-21.66,6.82-2.13,14.6,1.81,15.42,9.24.51,4.66-3.1,9.74.57,13.93Z"/>
    <path class="st9" d="M80.47,166.88c.3-.15.72-.42,1.04-.23,2.74,4.1.2,9.04-4.95,8.34-1.52-.21-4.61-2.35-2.87-3.77.05-.04.69-.27,1.08-.54.27-.19.45-.48.54-.54.6-.4,1.67-.86,2.44-1.36.29-.18.45-.48.54-.54.58-.36,1.66-1.1,2.17-1.36Z"/>
    <path class="st10" d="M78.31,168.24c-.09.06-.26.36-.54.54-3.06-3.69-6.52-7.13-8.81-11.38l-1.38,1.08v.55s7.74,11.11,7.74,11.11c-.09.06-.27.35-.54.54l-7.86-11.25c-.95-.59-3.48,1.79-5.4,0-1.31-1.23-.29-2.82,1.28-3.05s2.76.84,3.99,1.57c2.82-.72,1.2-2.84,1.56-4.95.33-1.95,1.68-3.47,3.81-2.85,2.93.85-1.14,5.77-2.4,6.72l-.02.54,8.57,10.84ZM70.36,150.95c-1.6.49-1.56,5.11-.86,5.09,1.54-.87,4.97-6.35.86-5.09ZM62.51,157.18c-.19.06-.35.18-.49.33-1.09,2.46,2.95,2.06,4.08.84-.95-.75-2.36-1.54-3.6-1.16Z"/>
    <path class="st8" d="M77.76,168.78c-.77.49-1.84.95-2.44,1.36l-7.75-11.11v-.55s1.39-1.08,1.39-1.08c2.28,4.25,5.75,7.69,8.81,11.38Z"/>
    <path class="st8" d="M70.36,150.95c4.1-1.26.67,4.22-.86,5.09-.7.01-.73-4.6.86-5.09Z"/>
    <path class="st8" d="M62.51,157.18c1.23-.37,2.65.41,3.6,1.16-1.13,1.23-5.17,1.62-4.08-.84.13-.15.29-.27.49-.33Z"/>
  </g>
</svg>