<?xml version="1.0" encoding="UTF-8"?>
<svg id="Layer_1" xmlns="http://www.w3.org/2000/svg" version="1.1" viewBox="0 0 384 384">
  <!-- Generator: Adobe Illustrator 29.5.0, SVG Export Plug-In . SVG Version: 2.1.0 Build 137)  -->
  <defs>
    <style>
      .st0 {
        fill: #c2c5c6;
      }

      .st1 {
        fill: #248156;
      }

      .st2 {
        fill: #50575a;
      }

      .st3 {
        fill: #248256;
      }

      .st4 {
        fill: #41474a;
      }

      .st5 {
        fill: #3dc184;
      }

      .st6 {
        fill: #2e85cb;
      }

      .st7 {
        fill: #2e9063;
      }

      .st8 {
        fill: #2e9162;
      }

      .st9 {
        fill: #35a771;
      }

      .st10 {
        fill: #4f5659;
      }

      .st11 {
        fill: #e8edf1;
      }

      .st12 {
        fill: #df9f2c;
      }

      .st13 {
        fill: #2d84ca;
      }

      .st14 {
        fill: #35a772;
      }

      .st15 {
        fill: #feb532;
      }

      .st16 {
        fill: #fe8e26;
      }

      .st17 {
        fill: #eaa72e;
      }
    </style>
  </defs>
  <g>
    <path class="st4" d="M286.8,138.68c-.06-.34-1.44-2.97-1.76-3.42-5.98-8.49-21.22-8.53-27.62-.54-.33.42-2.16,3.27-2.21,3.47-15.93-4-32.18-7.62-48.63-8.88-28.91-2.21-58.09,2.95-85.57,11.42-.1,6.55-.1,13.13-.07,19.68-7.72-7.25-15.87-14.09-23.69-21.23-2.56-2.34-5.45-4.66-7.9-6.91-.06-.05.07-.6-.16-.81l-11.18-10.3,114.24-23.95,113.32,23.45c.78.63.32.5,0,1-.61.92-2.75,2.82-3.69,3.72-4.85,4.59-10.08,8.88-15.07,13.32Z"/>
    <path class="st10" d="M255.21,157.93c-.04,6.08.02,12.18,0,18.26h-83.92c-12.6-10.45-32.86-10.49-45.41,0h-4.94c-.01-5.26.03-10.54,0-15.8,31.02-9.64,62.97-14.22,95.45-10.3,13.11,1.58,26.04,4.64,38.81,7.84Z"/>
    <path class="st13" d="M255.21,138.18c-.25,1.04.05,3.17,0,4.44-.18,5.07.03,10.22,0,15.3-12.77-3.19-25.7-6.26-38.81-7.84-32.49-3.91-64.43.66-95.45,10.3-.03-6.55-.03-13.13.07-19.68,27.48-8.47,56.66-13.63,85.57-11.42,16.45,1.26,32.7,4.88,48.63,8.88Z"/>
  </g>
  <g>
    <g>
      <path class="st11" d="M286.8,215.68c-.01,23.69,0,47.4,0,71.09-10.52,0-21.07-.02-31.6,0v-71.08h31.59Z"/>
      <path class="st11" d="M286.31,144.11c.56,18.47.46,37.18.49,55.78h-31.59c0-2.63,0-5.27,0-7.9,0-5.26-.02-10.54,0-15.8.02-6.08-.04-12.18,0-18.26.03-5.08-.18-10.23,0-15.3,5.05,12.78,24.53,13.24,31.1,1.48Z"/>
      <path class="st0" d="M286.8,138.68c.37,1.99-.54,3.97-.49,5.43-6.57,11.76-26.05,11.3-31.1-1.48.05-1.28-.25-3.4,0-4.44.05-.2,1.88-3.05,2.21-3.47,6.41-7.99,21.64-7.95,27.62.54.32.45,1.7,3.08,1.76,3.42Z"/>
      <path class="st15" d="M286.8,199.89c0,5.26,0,10.54,0,15.8h-31.59c0-1.31,0-2.64,0-3.95,0-2.63,0-5.27,0-7.9,0-1.31,0-2.63,0-3.95h31.59Z"/>
    </g>
    <g>
      <g>
        <path class="st17" d="M178.2,254.68v.49c4.9,1.88,7.63,6.89,4.94,11.85-1.17,2.16-2.7,2.94-4.94,3.46-.99.23-2.17.45-3.19.51-17.14,1.15-35.72-1.2-52.86-.04-1.01.07-2.2.29-3.19.51l-4.67-3.97c-2.8-4.91-.93-10.51,4.67-11.82.93-.22,1.69-.44,2.69-.51,17.24-1.26,36.07,1.2,53.36.04,1.01-.07,2.2-.29,3.19-.51Z"/>
        <path class="st12" d="M178.2,270.48c-.15,1.37,1.61,1.18,2.72,1.97.68.49,1.81,1.72,2.22,2.47,2.7,4.96-.04,9.97-4.94,11.85-19.75-.03-39.52.21-59.26-.22-7.73-2.2-8.13-13.21.03-15.08.99-.23,2.17-.45,3.19-.51,17.14-1.16,35.72,1.2,52.86.04,1.01-.07,2.2-.29,3.19-.51Z"/>
        <g>
          <path class="st15" d="M171.29,176.19c4.34,3.6,9.04,10.43,10.86,15.8,1.29,3.8,1.98,7.81,1.97,11.85,0,1.95-.12,6.14-.49,7.9-.63,2.98-3.67,9.22-5.43,11.85-2.9,4.33-7.75,8.85-12.34,11.35l-12.34,4.44h24.43c1.44,0,4.46,2.61,5.18,3.95,2.58,4.75.27,10.16-4.94,11.35-.99.23-2.17.45-3.19.51-17.29,1.16-36.12-1.3-53.36-.04-1,.07-1.76.29-2.69.51l-4.67-3.97c-2.34-3.6-1.41-8.71,2.22-11.06.39-.25,2.49-1.26,2.69-1.26h23.94l-8.73-2.87c-24.15-10.59-28.99-43.23-8.55-60.31,12.55-10.49,32.82-10.45,45.41,0ZM144.63,207.78v7.9h-9.13c-2.71,0-4.56,7.08.52,7.87,1.48.23,8.16-.27,8.56.08.48.42.06,3.47,3.31,3.88,4.55.58,3.93-3.21,4.7-3.88.26-.22,4.79.02,6-.17,4.39-.69,8.93-5.22,9.62-9.62,1.47-9.26-7-15.41-15.68-13.95v-7.9h9.13c2.71,0,4.56-7.08-.52-7.87-1.48-.23-8.16.27-8.56-.08-.48-.42-.06-3.47-3.31-3.88-4.55-.58-3.93,3.21-4.7,3.88-.26.22-4.79-.02-6,.17-4.39.69-8.93,5.22-9.62,9.62-1.47,9.26,7,15.41,15.68,13.95Z"/>
          <g>
            <path class="st16" d="M144.63,207.78c-8.67,1.46-17.14-4.69-15.68-13.95.7-4.4,5.23-8.94,9.62-9.62,1.21-.19,5.74.05,6-.17.77-.67.15-4.46,4.7-3.88,3.24.41,2.83,3.46,3.31,3.88.4.35,7.07-.15,8.56.08,5.08.79,3.23,7.87.52,7.87h-9.13v7.9c8.67-1.46,17.14,4.69,15.68,13.95-.7,4.4-5.23,8.94-9.62,9.62-1.21.19-5.74-.05-6,.17-.77.67-.15,4.46-4.7,3.88-3.24-.41-2.83-3.46-3.31-3.88-.4-.35-7.07.15-8.56-.08-5.08-.79-3.23-7.87-.52-7.87h9.13v-7.9ZM144.63,191.99c-10.7-1.9-10.71,9.79,0,7.9v-7.9ZM152.53,215.68c10.71,1.9,10.7-9.8,0-7.9v7.9Z"/>
            <path class="st15" d="M152.53,215.68v-7.9c10.7-1.9,10.71,9.79,0,7.9Z"/>
          </g>
          <path class="st15" d="M144.63,191.99v7.9c-10.71,1.9-10.7-9.8,0-7.9Z"/>
        </g>
      </g>
      <g>
        <path class="st11" d="M231.51,255.17v31.59c-7.89,0-15.8,0-23.69,0v-31.59h23.69Z"/>
        <path class="st5" d="M207.82,274.92v11.85c-9.86,0-19.75.02-29.62,0,4.9-1.88,7.63-6.89,4.94-11.85h24.68Z"/>
        <path class="st5" d="M255.21,274.92v11.85c-7.89.01-15.8,0-23.69,0v-11.85h23.69Z"/>
        <path class="st3" d="M207.82,176.19v15.8h-25.67c-1.82-5.36-6.52-12.19-10.86-15.8h36.53Z"/>
        <path class="st3" d="M207.82,223.58v11.85l-41.96-.49c4.59-2.51,9.44-7.02,12.34-11.35h29.62Z"/>
        <path class="st5" d="M207.82,211.73v11.85h-29.62c1.76-2.63,4.8-8.86,5.43-11.85h24.19Z"/>
        <path class="st8" d="M207.82,235.28v8.04h-24.68c-.73-1.34-3.75-3.95-5.18-3.95h-24.43l12.34-4.61,41.96.51Z"/>
        <path class="st3" d="M207.82,243.33v11.85h-29.62v-.49c5.21-1.19,7.52-6.61,4.94-11.35h24.68Z"/>
        <path class="st5" d="M207.82,191.99v11.85h-23.69c0-4.04-.68-8.05-1.97-11.85h25.67Z"/>
        <path class="st9" d="M207.82,203.83v7.9h-24.19c.37-1.75.49-5.95.49-7.9h23.69Z"/>
        <rect class="st0" x="207.82" y="176.19" width="23.69" height="15.8"/>
        <path class="st1" d="M255.21,176.19c-.02,5.26,0,10.54,0,15.8h-23.69v-15.8h23.69Z"/>
        <path class="st5" d="M255.21,211.73c0,1.31,0,2.64,0,3.95v7.9h-23.69v-11.85h23.69Z"/>
        <rect class="st1" x="231.51" y="223.58" width="23.69" height="11.85"/>
        <rect class="st1" x="231.51" y="243.33" width="23.69" height="11.85"/>
        <rect class="st5" x="231.51" y="255.17" width="23.69" height="11.85"/>
        <rect class="st7" x="231.51" y="235.43" width="23.69" height="7.9"/>
        <rect class="st14" x="231.51" y="267.02" width="23.69" height="7.9"/>
        <path class="st5" d="M255.21,191.99c0,2.63,0,5.27,0,7.9,0,1.31,0,2.63,0,3.95h-23.69v-11.85h23.69Z"/>
        <path class="st5" d="M207.82,255.17v11.85h-24.68c2.7-4.96-.04-9.97-4.94-11.85h29.62Z"/>
        <path class="st9" d="M207.82,267.02v7.9h-24.68c-.41-.75-1.54-1.99-2.22-2.47-1.11-.79-2.87-.6-2.72-1.97,2.24-.51,3.76-1.3,4.94-3.46h24.68Z"/>
        <polygon class="st0" points="231.51 223.58 231.51 235.43 231.51 243.33 231.51 255.17 207.82 255.17 207.82 243.33 207.82 235.43 207.82 223.58 231.51 223.58"/>
        <path class="st14" d="M255.21,203.83c0,2.63,0,5.27,0,7.9h-23.69v-7.9h23.69Z"/>
        <polygon class="st11" points="231.51 191.99 231.51 203.83 231.51 211.73 231.51 223.58 207.82 223.58 207.82 211.73 207.82 203.83 207.82 191.99 231.51 191.99"/>
      </g>
    </g>
  </g>
  <g>
    <path class="st10" d="M97.24,139.17v53.31c-2.23-.67-5.68-.72-7.9,0v-60.22c2.45,2.25,5.34,4.57,7.9,6.91Z"/>
    <path class="st6" d="M97.24,192.48c4.51,1.36,8.02,6.95,7.93,11.61s-3.62,9.8-7.93,11.1c-2.23.67-5.68.72-7.9,0-10.36-3.39-10.36-19.32,0-22.71,2.21-.72,5.67-.67,7.9,0Z"/>
    <path class="st2" d="M97.24,215.19c-.67,5.07.95,12.68-.11,17.42-.85,3.79-6.84,3.78-7.69,0-1.06-4.74.57-12.35-.11-17.42,2.21.72,5.67.67,7.9,0Z"/>
  </g>
</svg>