<?xml version="1.0" encoding="UTF-8"?><svg id="Layer_1" xmlns="http://www.w3.org/2000/svg" viewBox="0 0 383.49 383.27"><defs><style>.cls-1{fill:#a5d02c;}.cls-2{fill:#f4f6f8;}.cls-3{fill:#90bc04;}.cls-4{fill:#466288;}.cls-5{fill:#354a67;}.cls-6{fill:#4bbffe;}.cls-7{fill:#0591fc;}</style></defs><path class="cls-1" d="M0,226.8c3.24-6.47,8.61-8.16,15.6-8.24,46.55-.56,90.63-12.13,132.81-31.21,14.72-6.66,28.82-14.67,43.21-22.07,.03,8.5,.06,17,.09,25.51-22.87,13.07-46.89,23.57-71.86,31.89-33.74,11.24-68.29,17.91-103.96,18.57-6.96,.13-12.47-1.25-15.89-7.7v-6.74Z"/><path class="cls-5" d="M191.7,360.93c3.74-.08,7.47-.16,11.21-.24,22.47,0,44.93,0,67.4,0,7.48,0,14.97,0,22.45,0,22.47,0,44.93,0,67.4,0,3.85,.04,7.7,.09,11.55,.12,5.8,.05,10.25,3.41,11.49,8.68,1.21,5.16-1.43,10.4-6.5,12.91-.54,.27-1.05,.58-1.57,.87H191.68c0-7.45,.01-14.89,.02-22.34Z"/><path class="cls-4" d="M191.7,360.93c0,7.45-.01,14.89-.02,22.34H8.99c-4.46-1.53-7.46-4.52-8.99-8.98v-5.24c2.97-6.43,8.04-8.94,15-8.28,2.7,.25,5.46-.03,8.19-.07,22.48,0,44.95,0,67.43,0,7.47,0,14.95,0,22.42,0,22.48,0,44.95,0,67.43,0,3.74,.08,7.49,.16,11.23,.24Z"/><path class="cls-2" d="M0,374.28c1.53,4.46,4.52,7.46,8.99,8.98H0v-8.98Z"/><path class="cls-7" d="M360.16,360.69c-22.47,0-44.93,0-67.4,0,0-72.96,0-145.92,0-218.89,0-9.74,4.09-13.81,13.86-13.81,13.47,0,26.94,0,40.42,0,8.74,0,13.11,4.35,13.11,13.06,0,73.21,0,146.42,0,219.64Z"/><path class="cls-7" d="M270.31,360.69c-22.47,0-44.93,0-67.4,0,0-48.14,0-96.27,0-144.41,0-9.22,4.23-13.43,13.48-13.43,13.72,0,27.44-.01,41.16,0,8.23,0,12.74,4.48,12.74,12.68,.01,48.38,0,96.77,.01,145.15Z"/><path class="cls-3" d="M191.7,190.78c-.03-8.5-.06-17-.09-25.51,10.67-7.09,21.57-13.86,31.98-21.32,37.82-27.09,70.89-58.98,97.24-97.52,3.51-5.14,6.68-10.5,10-15.77,.24-.38,.36-.84,.75-1.75-10.35,2.76-20.28,5.41-30.21,8.05-4.44,1.18-8.87,2.41-13.33,3.48-6.18,1.47-12.3-1.97-13.86-7.65-1.72-6.28,1.7-12.33,8.3-14.14,15.57-4.29,31.17-8.45,46.76-12.64,6.84-1.84,13.68-3.64,20.53-5.43,7.43-1.93,12.97,.96,14.98,8.29,6.21,22.63,12.3,45.29,18.31,67.98,1.71,6.44-2.06,12.35-8.52,14.02-5.86,1.52-11.75-2.19-13.55-8.74-3.32-12.09-6.52-24.21-9.77-36.32-.25-.95-.58-1.88-.8-2.59-7.35,10.51-14.32,21.28-22.1,31.45-31.79,41.57-70.62,75.43-114.72,103.38-7.13,4.52-14.6,8.5-21.91,12.72Z"/><path class="cls-6" d="M180.47,360.69c-22.48,0-44.95,0-67.43,0,0-34.41,.01-68.83,.02-103.24,0-9.16,4.29-13.43,13.49-13.43,13.72,0,27.44-.01,41.15,0,8.21,0,12.73,4.5,12.73,12.68,.02,34.66,.02,69.32,.03,103.99Z"/><path class="cls-6" d="M90.62,360.69c-22.48,0-44.95,0-67.43,0,0-25.56,.01-51.11,.02-76.67,0-8.66,4.41-13.04,13.12-13.05,13.97,0,27.93-.02,41.9,0,7.74,.01,12.36,4.6,12.36,12.29,.03,25.81,.02,51.61,.03,77.42Z"/></svg>