<?xml version="1.0" encoding="UTF-8"?>
<svg id="Layer_1" xmlns="http://www.w3.org/2000/svg" version="1.1" viewBox="0 0 384 384">
  <!-- Generator: Adobe Illustrator 29.5.0, SVG Export Plug-In . SVG Version: 2.1.0 Build 137)  -->
  <defs>
    <style>
      .st0 {
        fill: #fbc4ae;
      }

      .st1 {
        fill: #f1ad97;
      }

      .st2 {
        fill: #eeab94;
      }

      .st3 {
        fill: #a54bf2;
      }

      .st4 {
        fill: #8f4411;
      }

      .st5 {
        fill: #fca81e;
      }

      .st6 {
        fill: #985121;
      }

      .st7 {
        fill: #e59279;
      }

      .st8 {
        fill: #fdc71f;
      }

      .st9 {
        fill: #8a3cdc;
      }

      .st10 {
        fill: #cecfd2;
      }

      .st11 {
        fill: #f69119;
      }

      .st12 {
        fill: #6e3005;
      }

      .st13 {
        fill: #9c5728;
      }

      .st14 {
        fill: #fed1bf;
      }

      .st15 {
        fill: #ec7918;
      }

      .st16 {
        fill: #58595b;
      }

      .st17 {
        fill: #424143;
      }

      .st18 {
        fill: #f0ad97;
      }

      .st19 {
        fill: #eff0f0;
      }

      .st20 {
        fill: #fed0be;
      }

      .st21 {
        fill: #a54df2;
      }

      .st22 {
        fill: #893bdb;
      }

      .st23 {
        fill: #fbc3ae;
      }

      .st24 {
        fill: #8c3f0b;
      }

      .st25 {
        fill: #7c3209;
      }
    </style>
  </defs>
  <g>
    <path class="st19" d="M175.59,235.4c-2.93,3.43-6.22,6.57-9.47,9.7-.62.59-.72,1.64-.82,1.73-.11.11-.95.14-1.42.55-1.39,1.21-2,2.78-4.29,2.3-4.26-11.57-9.09-23.02-12.57-34.85l16-7.43c.07,2.6-.39,5.3.44,7.85,1.21,3.72,8.62,13.18,11.12,17.45.52.88,1.21,1.5,1.02,2.7Z"/>
    <path class="st19" d="M205.3,214.83c-3.48,11.82-8.3,23.29-12.57,34.85-2.29.47-2.9-1.1-4.29-2.3-.48-.42-1.31-.44-1.42-.55-.1-.09-.2-1.13-.82-1.73-3.25-3.13-6.53-6.27-9.47-9.7-.19-1.2.5-1.81,1.02-2.7,2.55-4.34,9.86-13.59,11.12-17.45.83-2.54.37-5.25.44-7.85l16,7.43Z"/>
  </g>
  <path class="st22" d="M181.87,251.77l2.29,20.57-7.43,21.71h-1.14l-7.43-21.71,2.29-20.57c5.69,5.27,5.73,5.27,11.43,0Z"/>
  <g>
    <path class="st3" d="M279.57,182.84c1.32,4.04,3.84,8.12,4.42,12.43,3.08,22.71-14.39,40.4-37.11,37.68-4.93-.59-8.41-3.17-13.01-4.41-2.55-2.81-6.26-7.86-7.43-11.43-10.19-31.03,27.66-57.07,53.13-34.28ZM247.57,214.26l-1.03.95c-.03,2.28-4.22,8.98-.85,9.83,2.26.58,9.11-6.66,11.87-7.33,2.15-.07,8.82,6.99,10.99,7.33,5.68.89-1.76-11.89-1-14.94.21-.84,8.6-5.63,9.72-6.99,4.23-5.14-7.73-3.6-10.27-3.71-1.19-.05-2.81.38-3.73-.55-1.17-1.17-2.51-9.47-3.79-11.63-.97-1.62-2.59-1.23-3.59.21-1.36,1.99-2.81,10.79-4.3,11.69-2.64,1.21-14.33-1.49-14.31,2.28.01,2.36,9.65,6.69,10.61,8.87.56,1.27-.54,2.65-.31,3.98Z"/>
    <path class="st9" d="M263.57,238.82c-1.3.25-4.35.56-5.71.57-1.61.02-4.1-.29-5.71-.57-.19-.03-.39.04-.57,0-7.08-1.4-12.95-5.05-17.71-10.28,4.6,1.24,8.08,3.82,13.01,4.41,22.72,2.72,40.19-14.97,37.11-37.68-.58-4.31-3.11-8.39-4.42-12.43,20.16,18.04,9.97,51.02-16,55.99Z"/>
    <g>
      <path class="st15" d="M263.76,239.02l-.07,32.2-.8.86c-1.48.2-2.98.06-4.46.08-1.77.03-3.63.21-5.37-.25-.87-.65-.47-4.63-.5-6.03h5.87s0-26.28,0-26.28c1.27-.02,4.12-.32,5.33-.57Z"/>
      <path class="st11" d="M257.67,239.58v26.28s-6.28,0-6.28,0c-.18-8.74.13-17.53,0-26.28l.57-.57c1.62.28,4.1.59,5.71.57Z"/>
      <path class="st15" d="M251.57,239.4v-.57c.18.04.39-.03.57,0l-.57.57Z"/>
    </g>
    <g>
      <path class="st8" d="M267,199.41c-.18,2.58-4.79,3.35-5.17,5.44-.6,2.86,3.84,11.1,3.37,13.01-.13.53-.64.96-1.06,1.29-.62.44-1.06.22-1.68-.02-3.09-1.2-8.11-7.98-11.48-6.92-1.21.38-1.94,2-3.4,2.05-.23-1.33.87-2.71.31-3.98-.96-2.19-10.6-6.51-10.61-8.87-.02-3.77,11.67-1.06,14.31-2.28,1.49-.9,2.94-9.7,4.3-11.69.99-1.45,2.62-1.83,3.59-.21,1.29,2.16,2.62,10.46,3.79,11.63.93.93,2.55.5,3.73.55Z"/>
      <path class="st5" d="M267,199.41c2.55.11,14.5-1.43,10.27,3.71-1.12,1.35-9.51,6.14-9.72,6.99-.76,3.05,6.68,15.83,1,14.94-2.17-.34-8.84-7.4-10.99-7.33-2.77.67-9.61,7.91-11.87,7.33-3.36-.86.83-7.56.85-9.83l1.03-.95c1.47-.06,2.19-1.67,3.4-2.05,3.37-1.06,8.4,5.72,11.48,6.92.62.24,1.06.47,1.68.02.43-.33.93-.76,1.06-1.29.47-1.91-3.96-10.15-3.37-13.01.38-2.09,4.99-2.86,5.17-5.44Z"/>
    </g>
  </g>
  <path class="st10" d="M192.73,249.68c-2.82,7.62-5.25,15.42-8.57,22.85l-2.29-20.57c1.65-1.53,3.04-3.96,5.14-5.14.11.11.95.14,1.42.55,1.39,1.21,2,2.78,4.29,2.3Z"/>
  <path class="st10" d="M165.31,246.82c2.1,1.18,3.49,3.62,5.14,5.14l-2.29,20.57c-3.4-7.4-5.76-15.23-8.57-22.85,2.29.47,2.9-1.1,4.29-2.3.48-.42,1.31-.44,1.42-.55Z"/>
  <g>
    <g>
      <path class="st24" d="M151.98,116.57c-1.59-3.62-11.45-18.53-9.46-21.72.36-.58,6.87-3.03,8.06-3.38,32.07-9.44,62.36,13.77,68.24,45.1,1.33-.55,3.36-.71,4.56-1.14v8c-.95-.4-3.92-.43-5.14-.57-.04-1.9.03-3.81,0-5.71-.54-.57-5.36,1.55-6.28,1.71-22.96,3.98-44.95-5.55-59.99-22.28ZM152,103.53c-2.24.67-1.93,3.53.48,3.9,3.83.6,3.57-5.11-.48-3.9ZM157.1,110.92c-3.99,1.34,3.22,7.95,4.47,9.09,11.81,10.78,28,16.13,44,14.83,2.34-.19,7.45-.6,5.74-3.99-1.15-2.27-4.94-.59-6.85-.54-15.24.36-28.67-3.25-40.03-13.72-2.07-1.9-4.47-6.63-7.33-5.66Z"/>
      <path class="st25" d="M224.72,134.28c-.67.31-1.48,1.06-1.71,1.14-1.2.43-3.23.6-4.56,1.14-5.88-31.33-36.17-54.53-68.24-45.1-1.2.35-7.7,2.81-8.06,3.38-1.99,3.19,7.87,18.1,9.46,21.72-2.48,5.06-7.27,9.65-11.42,13.43-1.65,1.51-4.79,2.67-5.15,4.85-2.06-.58-4.11,1.98-5.71,2.29-10.19,1.94-7.14-10.49-5.67-16.24,2.1-8.23,9.72-23.86,17.1-28.32,3.87-2.34,11.22-5.56,15.7-6.86,33.18-9.65,64.15,16.03,68.28,48.57Z"/>
      <path class="st12" d="M224.72,134.28c-4.13-32.54-35.1-58.22-68.28-48.57-4.48,1.3-11.83,4.53-15.7,6.86.26-1.53,2.31-2.74,3.49-3.65,27.2-21.17,63.8-10.88,79.65,18.5,2.66,4.93,7.66,17.12,6.43,22.46-.68,2.96-3.42,3.39-5.59,4.4Z"/>
      <path class="st4" d="M135.41,135.23c-.35,2.15.03,5.62,0,8h-.57c-1.62.02-3.67.54-5.14,1.14v-6.86c1.61-.31,3.65-2.87,5.71-2.29Z"/>
      <path class="st6" d="M157.1,110.92c2.86-.96,5.27,3.76,7.33,5.66,11.36,10.47,24.79,14.08,40.03,13.72,1.91-.05,5.7-1.73,6.85.54,1.71,3.39-3.4,3.8-5.74,3.99-16,1.3-32.18-4.05-44-14.83-1.25-1.14-8.46-7.75-4.47-9.09Z"/>
      <path class="st6" d="M152,103.53c4.05-1.2,4.31,4.5.48,3.9-2.41-.37-2.72-3.24-.48-3.9Z"/>
    </g>
    <g>
      <path class="st14" d="M211.39,138.85c.65,13.79.23,26.07-8.85,37.14-13.5,16.47-35.08,19.87-53.47,9.47-.55-.31-1.86-1.55-2.24-.34-4.4-4.37-8.25-9.91-9.72-16-15.25,3.43-22.46-19.18-7.99-25.13,1.47-.61,3.52-1.12,5.14-1.14l-.02,5.69c-10.63.94-9.16,15.92,1.17,15.15-.97-6.69-.67-14.01-.58-20.84.03-2.38-.35-5.85,0-8s3.5-3.34,5.15-4.85c4.15-3.79,8.94-8.37,11.42-13.43,15.04,16.73,37.03,26.26,59.99,22.28ZM156.03,145.24c-6.7.82-5.36,11.06,1.51,10.17,6.31-.82,5.36-11-1.51-10.17ZM194.88,145.24c-6.5.79-5.45,11.07,1.51,10.17,6.3-.81,5.5-11.02-1.51-10.17ZM168.57,170.96c-4.9,1.46,2.05,9.11,6.81,9.57,4.34.42,11.25-4.1,9.41-8.88-.4-.49-.9-.67-1.5-.79-1.53-.29-13.47-.27-14.72.1Z"/>
      <path class="st0" d="M211.58,138.85c.92-.16,5.74-2.28,6.28-1.71.04,1.9-.04,3.81,0,5.71,0,.19,0,.38,0,.57-.95.59-.57,2.17-.58,3.13-.04,3.56.73,15.06,0,17.43-.05.16-1.92,1.26-1.14,2.85,10.07-.49,14.43-9.73,11.42-18.85,9,9.28-.82,23.03-12.49,21.78-3.57,11.37-14.54,21.85-25.78,25.63-7.19,2.42-19.1,2.41-26.28,0-5.25-1.77-12.05-6.36-16-10.28.37-1.21,1.68.02,2.24.34,18.4,10.4,39.97,7,53.47-9.47,9.07-11.07,9.5-23.35,8.85-37.14Z"/>
      <g>
        <path class="st23" d="M189.3,201.12c0,2.09.05,4.2,0,6.28-.07,2.6.39,5.3-.44,7.85-1.26,3.86-8.57,13.11-11.12,17.45-.52.88-1.21,1.5-1.02,2.7h-1.14c.19-1.2-.5-1.81-1.02-2.7-2.5-4.27-9.9-13.73-11.12-17.45-.83-2.54-.37-5.25-.44-7.85-.05-2.09,0-4.2,0-6.28,9.03,2.24,17.24,2.11,26.28,0Z"/>
        <path class="st1" d="M189.11,195.35v5.8c-9.17,2.14-17.5,2.27-26.66,0v-5.8c7.29,2.45,19.36,2.45,26.66,0Z"/>
      </g>
      <path class="st7" d="M168.57,170.96c1.25-.37,13.19-.39,14.72-.1.6.12,1.1.3,1.5.79,1.84,4.78-5.07,9.3-9.41,8.88-4.76-.46-11.71-8.11-6.81-9.57Z"/>
      <path class="st2" d="M134.86,143.23c-.09,6.84-.39,14.16.58,20.84-10.33.76-11.81-14.21-1.17-15.15l.02-5.69h.57Z"/>
      <path class="st13" d="M194.88,145.24c7.01-.85,7.81,9.35,1.51,10.17-6.96.9-8.01-9.38-1.51-10.17Z"/>
      <path class="st13" d="M156.03,145.24c6.87-.84,7.82,9.35,1.51,10.17-6.87.89-8.21-9.35-1.51-10.17Z"/>
      <g>
        <path class="st20" d="M223.01,143.42c1.09.46,4.14,3.28,4.57,4.57,3.01,9.12-1.36,18.36-11.42,18.85-.78-1.59,1.09-2.7,1.14-2.85,10.02-.8,10.9-14.18.63-15.48-.16-1.69-.03-3.4-.06-5.09,0-.19,0-.38,0-.57,1.22.14,4.19.18,5.14.57Z"/>
        <path class="st18" d="M217.87,143.42c.03,1.69-.1,3.4.06,5.09,10.27,1.3,9.4,14.68-.63,15.48.72-2.37-.05-13.87,0-17.43.01-.97-.37-2.54.58-3.13Z"/>
      </g>
    </g>
  </g>
  <path class="st21" d="M176.73,235.4c2.93,3.43,6.22,6.57,9.47,9.7.62.59.72,1.64.82,1.73-2.1,1.18-3.49,3.62-5.14,5.14-5.69,5.27-5.73,5.27-11.43,0-1.65-1.53-3.04-3.96-5.14-5.14.1-.09.2-1.13.82-1.73,3.25-3.13,6.53-6.27,9.47-9.7h1.14Z"/>
  <g>
    <path class="st16" d="M140.74,214.83l-7.46,23.13c.35,2.92,8.89,1.46,10.9,2.85,3.85,2.66-9.22,8.55-7.34,11.89l38.75,41.35h1.14l38.75-41.35c1.92-3.5-11.24-9.2-7.34-11.89,2.01-1.39,10.55.07,10.9-2.85l-7.46-23.13c3.26.32,6.48.61,9.71,1.14,2.92,4.75,6.63,8.36,9.06,13.51,5.66,11.99,5.98,40.18,4.65,53.61-.65,6.54-4.9,11.42-11.69,11.72H94.47c-1.03-11.12-.89-35.92,1.88-46.4,5.76-21.8,23.26-31.49,44.4-33.58Z"/>
    <path class="st17" d="M226.33,216.78c1.18,3.58,4.89,8.65,7.46,11.48,4.78,5.26,10.68,8.93,17.79,10.33v.57c.13,8.78-.18,17.61,0,26.39.03,1.41-.4,5.41.54,6.06,1.87.46,3.87.28,5.77.25-1.55,11.55,5.47,30.76-10.09,34.38l-143.4.05c-6.12-.96-10.05-5.37-10.61-11.48l129.41.02c6.82-.32,11.09-5.22,11.74-11.79,1.34-13.49,1.02-41.81-4.67-53.85-2.44-5.17-6.16-8.8-9.1-13.57,1.76.29,3.45.68,5.16,1.15Z"/>
    <path class="st17" d="M211.58,214.83l7.46,23.13c-.35,2.92-8.89,1.46-10.9,2.85-3.89,2.69,9.27,8.4,7.34,11.89l-38.75,41.54,7.43-21.71c3.32-7.43,5.75-15.23,8.57-22.85,4.27-11.56,9.09-23.02,12.57-34.85,2.04.14,4.28-.2,6.28,0Z"/>
    <path class="st17" d="M147.03,214.83c3.47,11.83,8.31,23.28,12.57,34.85,2.81,7.62,5.17,15.46,8.57,22.85l7.43,21.71-38.75-41.54c-1.88-3.34,11.19-9.24,7.34-11.89-2.01-1.39-10.55.07-10.9-2.85l7.46-23.13c2-.2,4.24.14,6.28,0Z"/>
  </g>
</svg>