<?xml version="1.0" encoding="UTF-8"?><svg id="Layer_1" xmlns="http://www.w3.org/2000/svg" viewBox="0 0 323.29 368.34"><defs><style>.cls-1{fill:#333e50;}.cls-2{fill:#343e50;}.cls-3{fill:#f8f8f9;}.cls-4{fill:#f9f9fa;}.cls-5{fill:#323c4e;}.cls-6{fill:#1470fe;}.cls-7{fill:#303b4d;}.cls-8{fill:#f9f9f9;}.cls-9{fill:#fafbfc;}.cls-10{fill:#f8f9f9;}.cls-11{fill:#313c4e;}</style></defs><path class="cls-7" d="M193.11,298.54H103.81c0-11.13-.17-22.07,.04-33.02,.33-17.62-5.12-32.99-16.8-46.25-15.8-17.93-25.93-38.4-26.27-62.73-.5-35.62,23.67-69.3,58.1-80.75,29.17-9.71,57.97-8.8,85.52,5.66,16.83,8.83,28.82,22.15,33.14,41.15,1.34,5.91,1.69,12.1,1.93,18.18,.36,8.91,3.32,16.51,9.73,22.75,2.95,2.87,5.9,5.74,8.7,8.76,6.89,7.44,6.11,12.81-2.42,18.12-1.57,.98-3.11,2.11-4.4,3.43-2.46,2.51-2.7,5.43-.27,8.01,4.59,4.87,4.76,9.94,1.87,15.77-1.01,2.04-1.22,4.88-.77,7.15,.92,4.65,.41,8.77-1.83,12.97-.94,1.76-1.08,4.2-.9,6.27,.24,2.82,1.43,5.57,1.7,8.39,.73,7.49-3.57,12.89-10.97,13.67-3.45,.36-6.96,.04-10.45,.08-6.47,.08-13-.27-19.4,.42-11.1,1.2-16.82,7.97-16.94,19.07-.05,4.22,0,8.44,0,12.9Zm-69.05-109.83c-.22,5.26,3.77,7.8,8.05,5.49,6.36-3.42,12.54-7.15,18.92-10.51,1.15-.6,3.16-.61,4.3,0,6.28,3.29,12.32,7.04,18.65,10.22,1.69,.85,4.8,1.06,6.04,.06,1.42-1.16,2.27-4.1,1.99-6.06-.99-6.89-2.7-13.67-3.84-20.54-.23-1.37,.43-3.39,1.42-4.37,4.6-4.56,9.44-8.87,14.22-13.25,2.05-1.88,4.19-3.65,3.26-6.94-.99-3.5-3.89-3.83-6.78-4.17-6.56-.77-13.13-1.4-19.66-2.37-1.27-.19-2.88-1.36-3.45-2.51-3.06-6.25-5.64-12.74-8.85-18.91-.92-1.77-3.21-3.42-5.18-3.93-2.58-.66-4.16,1.48-5.22,3.84-2.79,6.24-5.76,12.41-8.5,18.67-.83,1.89-1.74,2.86-3.99,3.05-6.7,.56-13.37,1.47-20.05,2.24-2.57,.29-5.05,.86-6,3.65-.99,2.89,.44,4.95,2.56,6.84,4.93,4.4,9.69,8.98,14.64,13.36,1.67,1.48,2.26,2.79,1.72,5.12-1.65,7.15-2.95,14.38-4.28,21.03Zm83.4-44.55c6.15-2.09,11.64-3.68,16.84-5.92,1.13-.49,2.11-3.56,1.64-4.93-.47-1.36-3.1-3.16-4.33-2.87-5.39,1.27-10.71,3.02-15.85,5.12-1.12,.46-2.14,3.23-1.81,4.62,.36,1.54,2.31,2.71,3.51,3.97Zm-108.84,1.19c1.19-1.29,3.39-2.62,3.53-4.14,.15-1.56-1.33-4.25-2.75-4.82-4.68-1.9-9.6-3.38-14.56-4.34-1.44-.28-4.21,1.38-4.75,2.78-.52,1.35,.61,4.61,1.81,5.1,5.13,2.1,10.55,3.49,16.73,5.41Zm123.94,38.73c1.22-1.36,3.2-2.6,3.4-4.08,.21-1.53-.89-4.26-2.14-4.79-4.87-2.08-9.97-3.76-15.12-4.98-1.33-.31-3.99,1.27-4.56,2.61-.57,1.32,.24,4.57,1.3,5.03,5.29,2.33,10.86,4.02,17.12,6.22Zm-96.3,19.87c-1.15-1.14-2.25-3.12-3.62-3.33-1.58-.25-4.03,.57-5.02,1.79-2.93,3.66-5.37,7.73-7.92,11.68-1.6,2.48-1.27,4.87,1.22,6.45,2.33,1.48,4.59,.83,6.16-1.44,2.67-3.87,5.26-7.81,7.82-11.76,.52-.8,.73-1.79,1.35-3.4Zm-1-93.93c-.2-1.33-.12-1.93-.37-2.3-3.21-4.73-6.3-9.57-9.87-14.01-.71-.88-3.79-.87-4.96-.07-1.15,.78-2.24,3.66-1.67,4.64,2.86,4.94,6.13,9.66,9.6,14.19,.67,.88,3.12,1.13,4.34,.64,1.34-.54,2.21-2.27,2.93-3.09Zm73.31,107.23c-.11-1.27-.01-1.73-.2-2-3.33-4.93-6.53-9.96-10.21-14.61-.64-.82-3.95-.68-4.91,.21-1.12,1.03-1.95,3.92-1.29,5.08,2.63,4.64,5.73,9.05,9.04,13.25,.79,1,3.24,1.41,4.6,1.01,1.34-.4,2.26-2.19,2.97-2.93Zm-10.87-102.7c.44-.21,1.75-.43,2.34-1.19,3.32-4.31,6.73-8.61,9.5-13.26,.69-1.15-.33-4.27-1.56-5.31-.99-.84-4.3-.62-5.16,.36-3.55,4.11-6.77,8.54-9.68,13.13-1.75,2.76,.65,6.24,4.55,6.28Zm-103.96,68.64c6.21-2.07,11.7-3.64,16.9-5.86,1.12-.48,2.07-3.63,1.57-4.99-.5-1.36-3.16-3.09-4.44-2.8-5.29,1.2-10.51,2.87-15.52,4.94-1.21,.5-2.26,3.35-1.99,4.87,.26,1.47,2.31,2.63,3.48,3.84Zm65.1,38.34c0,2.49-.06,4.99,.02,7.48,.08,2.7,1.86,4.52,4.23,4.17,1.66-.24,4.24-2.19,4.37-3.57,.52-5.3,.52-10.72,.02-16.02-.13-1.4-2.66-3.36-4.32-3.63-2.38-.39-4.18,1.4-4.29,4.1-.1,2.49-.02,4.98-.03,7.48Zm8.94-129.8s-.03,0-.04,0c0-2.49,.2-5.01-.06-7.47-.28-2.68-1.91-4.37-4.78-4.15-2.63,.2-4.04,1.83-4.07,4.45-.06,4.74-.04,9.48-.02,14.21,.01,2.79,1.37,4.57,4.22,4.69,3.08,.13,4.55-1.77,4.72-4.63,.15-2.36,.03-4.74,.03-7.11Z"/><path class="cls-2" d="M284.47,276.8c1.52,2.61,2.89,4.96,4.52,7.76-34.54,19.94-69.18,39.94-103.99,60.03-1.52-2.59-2.95-5.01-4.55-7.73,34.62-19.99,69.3-40.02,104.02-60.07Z"/><path class="cls-1" d="M34.33,284.54c1.53-2.66,2.89-5.01,4.48-7.77,34.62,19.98,69.28,39.99,104.04,60.05-1.53,2.62-2.94,5.03-4.52,7.74-34.61-19.97-69.18-39.93-104-60.03Z"/><path class="cls-1" d="M288.99,83.77c-1.6,2.75-2.97,5.1-4.51,7.75-34.67-20.02-69.34-40.04-104.01-60.05,1.51-2.6,2.86-4.94,4.5-7.75,34.6,19.97,69.23,39.96,104.03,60.05Z"/><path class="cls-1" d="M38.82,91.56c-1.56-2.7-2.91-5.06-4.47-7.76,34.57-19.96,69.23-39.98,103.98-60.05,1.52,2.59,2.88,4.93,4.53,7.74-34.52,19.93-69.16,39.93-104.04,60.07Z"/><path class="cls-5" d="M19.79,244.12H11.31V124.2h8.49v119.92Z"/><path class="cls-11" d="M311.97,244.16h-8.45V124.22h8.45v119.94Z"/><path class="cls-6" d="M161.54,337.5c8.56-.04,15.58,6.83,15.62,15.28,.04,8.46-6.95,15.51-15.41,15.56-8.48,.05-15.48-6.84-15.61-15.36-.13-8.39,6.88-15.44,15.4-15.48Z"/><path class="cls-6" d="M15.44,84.43c8.61-.03,15.46,6.71,15.53,15.32,.08,8.47-6.88,15.48-15.4,15.52C7.11,115.31,.06,108.35,0,99.88c-.06-8.49,6.86-15.42,15.44-15.45Z"/><path class="cls-6" d="M307.88,84.43c8.57,.04,15.49,6.99,15.4,15.48-.08,8.47-7.13,15.41-15.61,15.36-8.5-.05-15.45-7.09-15.37-15.55,.09-8.58,6.96-15.32,15.57-15.29Z"/><path class="cls-6" d="M161.43,30.82c-8.51-.07-15.5-7.2-15.29-15.59C146.35,6.67,153.34-.1,161.86,0c8.47,.1,15.44,7.22,15.31,15.66-.13,8.47-7.15,15.24-15.74,15.16Z"/><path class="cls-6" d="M15.54,283.87C6.95,283.89,0,277.04,0,268.54c0-8.45,7.01-15.47,15.47-15.49,8.52-.02,15.5,6.93,15.5,15.42,0,8.57-6.83,15.39-15.44,15.4Z"/><path class="cls-6" d="M307.76,283.87c-8.6,0-15.46-6.84-15.45-15.39,0-8.48,7-15.44,15.5-15.43,8.47,.01,15.48,7.03,15.48,15.48,0,8.51-6.93,15.35-15.53,15.34Z"/><path class="cls-9" d="M124.05,188.71c1.33-6.65,2.63-13.88,4.28-21.03,.54-2.33-.06-3.65-1.72-5.12-4.95-4.38-9.71-8.96-14.64-13.36-2.11-1.89-3.55-3.95-2.56-6.84,.95-2.79,3.43-3.35,6-3.65,6.68-.76,13.35-1.67,20.05-2.24,2.25-.19,3.16-1.16,3.99-3.05,2.74-6.26,5.71-12.43,8.5-18.67,1.05-2.36,2.63-4.5,5.22-3.84,1.97,.5,4.25,2.15,5.18,3.93,3.21,6.17,5.79,12.66,8.85,18.91,.57,1.15,2.18,2.33,3.45,2.51,6.53,.96,13.1,1.59,19.66,2.37,2.89,.34,5.79,.67,6.78,4.17,.93,3.29-1.21,5.06-3.26,6.94-4.78,4.37-9.63,8.69-14.22,13.25-.99,.98-1.64,3-1.42,4.37,1.14,6.87,2.85,13.65,3.84,20.54,.28,1.97-.57,4.91-1.99,6.06-1.23,1-4.34,.79-6.04-.06-6.33-3.17-12.38-6.92-18.65-10.22-1.15-.6-3.16-.6-4.3,0-6.38,3.37-12.57,7.1-18.92,10.51-4.29,2.3-8.27-.24-8.05-5.49Zm47.81-6.18c-1.28-6.43-2.23-12.05-3.57-17.58-.61-2.52-.13-4.06,1.85-5.74,4.41-3.76,8.57-7.82,13.33-12.21-6.75-.8-12.78-1.37-18.75-2.33-1.37-.22-3.03-1.53-3.68-2.8-2.73-5.37-5.13-10.92-7.87-16.86-2.61,5.71-5.15,10.72-7.19,15.92-1.13,2.87-2.91,3.9-5.75,4.16-5.51,.51-11,1.22-17.28,1.94,4.69,4.31,8.69,8.19,12.92,11.81,2.14,1.83,2.88,3.54,2.15,6.42-1.39,5.46-2.26,11.05-3.48,17.32,5.81-3.25,10.96-6,15.95-9,1.95-1.17,3.41-1.26,5.4-.06,4.89,2.96,9.94,5.65,15.97,9.04Z"/><path class="cls-3" d="M207.45,144.17c-1.2-1.27-3.15-2.43-3.51-3.97-.33-1.38,.69-4.16,1.81-4.62,5.13-2.1,10.45-3.85,15.85-5.12,1.23-.29,3.86,1.51,4.33,2.87,.47,1.36-.51,4.44-1.64,4.93-5.21,2.24-10.69,3.83-16.84,5.92Z"/><path class="cls-3" d="M98.61,145.35c-6.18-1.92-11.6-3.31-16.73-5.41-1.2-.49-2.32-3.76-1.81-5.1,.54-1.4,3.31-3.06,4.75-2.78,4.96,.96,9.88,2.43,14.56,4.34,1.42,.58,2.9,3.26,2.75,4.82-.15,1.52-2.35,2.85-3.53,4.14Z"/><path class="cls-4" d="M222.55,184.08c-6.27-2.19-11.83-3.89-17.12-6.22-1.06-.46-1.86-3.71-1.3-5.03,.57-1.34,3.24-2.92,4.56-2.61,5.16,1.22,10.25,2.9,15.12,4.98,1.24,.53,2.35,3.26,2.14,4.79-.21,1.48-2.19,2.72-3.4,4.08Z"/><path class="cls-3" d="M126.25,203.95c-.63,1.61-.84,2.6-1.35,3.4-2.56,3.95-5.15,7.89-7.82,11.76-1.56,2.27-3.83,2.92-6.16,1.44-2.5-1.58-2.83-3.97-1.22-6.45,2.56-3.95,4.99-8.02,7.92-11.68,.98-1.23,3.43-2.04,5.02-1.79,1.37,.21,2.47,2.2,3.62,3.33Z"/><path class="cls-10" d="M125.25,110.02c-.73,.82-1.59,2.55-2.93,3.09-1.22,.49-3.67,.23-4.34-.64-3.47-4.53-6.74-9.25-9.6-14.19-.57-.98,.52-3.85,1.67-4.64,1.17-.8,4.25-.81,4.96,.07,3.58,4.44,6.66,9.28,9.87,14.01,.25,.37,.17,.97,.37,2.3Z"/><path class="cls-8" d="M198.56,217.25c-.7,.75-1.63,2.54-2.97,2.93-1.36,.41-3.82-.01-4.6-1.01-3.31-4.19-6.41-8.61-9.04-13.25-.66-1.17,.17-4.05,1.29-5.08,.97-.89,4.27-1.03,4.91-.21,3.68,4.65,6.88,9.69,10.21,14.61,.18,.27,.09,.73,.2,2Z"/><path class="cls-4" d="M187.68,114.55c-3.9-.04-6.3-3.52-4.55-6.28,2.91-4.59,6.13-9.03,9.68-13.13,.85-.98,4.17-1.2,5.16-.36,1.23,1.04,2.25,4.16,1.56,5.31-2.77,4.66-6.18,8.95-9.5,13.26-.59,.77-1.9,.98-2.34,1.19Z"/><path class="cls-4" d="M83.73,183.19c-1.17-1.21-3.22-2.37-3.48-3.84-.27-1.52,.78-4.37,1.99-4.87,5.01-2.07,10.24-3.74,15.52-4.94,1.29-.29,3.94,1.44,4.44,2.8,.5,1.36-.45,4.51-1.57,4.99-5.21,2.22-10.69,3.78-16.9,5.86Z"/><path class="cls-3" d="M148.83,221.53c0-2.49-.07-4.99,.02-7.48,.11-2.7,1.91-4.49,4.29-4.1,1.66,.27,4.19,2.23,4.32,3.63,.51,5.31,.5,10.72-.02,16.02-.14,1.38-2.71,3.33-4.37,3.57-2.37,.35-4.15-1.47-4.23-4.17-.07-2.49-.02-4.99-.01-7.48Z"/><path class="cls-8" d="M157.77,91.73c0,2.37,.12,4.75-.03,7.11-.18,2.87-1.65,4.76-4.72,4.63-2.85-.12-4.2-1.9-4.22-4.69-.02-4.74-.04-9.48,.02-14.21,.03-2.62,1.45-4.25,4.07-4.45,2.87-.22,4.5,1.47,4.78,4.15,.26,2.47,.06,4.98,.06,7.47,.01,0,.03,0,.04,0Z"/><path class="cls-6" d="M171.86,182.53c-6.04-3.39-11.09-6.08-15.97-9.04-1.99-1.2-3.45-1.11-5.4,.06-5,3-10.14,5.75-15.95,9,1.23-6.27,2.1-11.86,3.48-17.32,.73-2.88,0-4.59-2.15-6.42-4.23-3.62-8.24-7.5-12.92-11.81,6.28-.72,11.77-1.43,17.28-1.94,2.84-.26,4.62-1.29,5.75-4.16,2.04-5.2,4.58-10.21,7.19-15.92,2.73,5.95,5.13,11.49,7.87,16.86,.64,1.26,2.31,2.58,3.68,2.8,5.97,.96,12,1.53,18.75,2.33-4.75,4.39-8.91,8.45-13.33,12.21-1.98,1.69-2.46,3.23-1.85,5.74,1.34,5.53,2.29,11.14,3.57,17.58Z"/></svg>