<?xml version="1.0" encoding="UTF-8"?>
<svg id="Layer_1" xmlns="http://www.w3.org/2000/svg" version="1.1" viewBox="0 0 384 384">
  <!-- Generator: Adobe Illustrator 29.5.0, SVG Export Plug-In . SVG Version: 2.1.0 Build 137)  -->
  <defs>
    <style>
      .st0 {
        fill: #fca43e;
      }

      .st1 {
        fill: #2d4489;
      }

      .st2 {
        fill: #04c0fb;
      }

      .st3 {
        fill: #69d6f8;
      }

      .st4 {
        fill: #fc3f98;
      }

      .st5 {
        fill: #03bffb;
      }

      .st6 {
        fill: #fdf056;
      }

      .st7 {
        fill: #afe3f3;
      }

      .st8 {
        fill: #435ba2;
      }

      .st9 {
        fill: #02b7a0;
      }

      .st10 {
        fill: #2d4389;
      }

      .st11 {
        fill: #2e4489;
      }

      .st12 {
        fill: #40cd8f;
      }

      .st13 {
        fill: #3fcc8d;
      }

      .st14 {
        fill: #ace8f6;
      }

      .st15 {
        fill: #3ecc8d;
      }

      .st16 {
        fill: #e7f7fb;
      }

      .st17 {
        fill: #ace7f6;
      }

      .st18 {
        fill: #fd3f98;
      }

      .st19 {
        fill: #3f57a0;
      }

      .st20 {
        fill: #1e2f79;
      }

      .st21 {
        fill: #fec142;
      }
    </style>
  </defs>
  <path class="st18" d="M180.67,87.61c11.97-1.96,12.01,12.49,0,10.35.75,4.26-.95,10.18-6.34,9.23-5.97-1.05-3.13-8.04-4.5-9-3.59-.33-7.92.44-8.75-4.24-.95-5.37,4.93-7.09,9.23-6.34-2.13-12.02,12.32-11.96,10.36,0Z"/>
  <g>
    <path class="st17" d="M143.67,59.12c-3.95,6.82-5.03,14.17-1.04,21.28-2.13.23-4.27,2.04-5.05,4.03-4.66,14.67-12.31,29.36-16.76,43.97-1.06,3.49-1.94,8.03,2.99,8.98,6.34,1.22,7.21-6.97,9.03-11.23l20.9-.11c2.25,4.01,2.38,11.97,8.63,11.45v17.65c-6.49.89-6.49,10.01,0,10.9v12.46c-6.67.7-6.07,9.56,0,10.9v16.61c-6.31.92-6.58,10.21,0,10.9v12.46c-6.58.69-6.32,10.04,0,10.9v16.61c-6.61,1.43-6.27,9.73,0,11.42v11.94c-6.45.87-6.41,10.41,0,10.9.65,11.94,5.48,23.5,12.98,32.7-36.43-4.83-67.08-24.12-87.74-53.97.07-48.08-.09-96.19,0-144.28.04-19.63-.03-39.27,0-58.9.4-3.96,1.87-5.59,5.19-7.53h50.88ZM122.11,175.15c-2.58-1.36-6.33-7.29-8.78-8.05-5.56-1.74-9.6,3.74-6.48,8.55,1.67,2.58,8.01,8.07,10.6,10.38,2.82,2.53,3.54,4.55,8.25,2.29,5.67-6.71,14.79-13.11,20.01-19.89,4.94-6.43-1.3-13.25-8.57-7.53-3.72,2.93-11.71,10.77-15.02,14.25ZM122.11,226.43c-2.12-1.95-6.05-7.34-8.51-8.32-5.34-2.13-10.01,3.26-6.75,8.3,1.67,2.58,8.02,8.07,10.6,10.38s3.49,4.52,7.97,2.52c5.77-6.74,15.01-13.27,20.29-20.12,4.05-5.26.48-10.97-5.75-9.37-5.72,4.95-10.99,10.46-16.27,15.87-.54.56-1.48.65-1.57.74ZM122.11,277.2c-2.28-2.24-6.66-8.11-9.71-8.7-4.76-.92-8.41,4.28-5.85,8.45,1.53,2.49,8.38,8.18,10.9,10.6.23.22.36,1.07.81,1.5,2.06,1.96,4.58,2.18,7.16,1.02l21.45-21.55c2.37-5.74-3.09-10.64-8.44-6.88-3.97,2.8-10.98,10.92-14.75,14.8-.54.56-1.48.65-1.57.74Z"/>
    <path class="st4" d="M162.53,137.57c-6.23.52-6.36-7.43-8.61-11.43l-20.86.11c-1.82,4.25-2.68,12.43-9.01,11.21-4.92-.94-4.05-5.48-2.98-8.96,4.44-14.58,12.08-29.24,16.73-43.88.78-1.99,2.92-3.79,5.04-4.02,2.24-.24,5.32,1.16,6.32,3.27l18.07,48.79c-.09,2.16-2.54,4.75-4.7,4.93ZM150.1,115.78l-6.48-17.1-6.48,17.1h12.96Z"/>
    <g>
      <path class="st15" d="M117.45,287.56c-1.95-4.03,1.79-6.53,4.16-9.07.39-.42.4-1.18.5-1.29.08-.09,1.02-.18,1.57-.74,3.77-3.88,10.78-12.01,14.75-14.8,5.34-3.76,10.8,1.14,8.44,6.88l-21.45,21.55c-2.58,1.16-5.1.94-7.16-1.02-.45-.43-.58-1.28-.81-1.5Z"/>
      <path class="st9" d="M122.11,277.2c-.1.11-.11.87-.5,1.29-2.37,2.54-6.11,5.04-4.16,9.07-2.51-2.42-9.37-8.11-10.9-10.6-2.56-4.17,1.09-9.37,5.85-8.45,3.05.59,7.43,6.46,9.71,8.7Z"/>
    </g>
    <g>
      <path class="st12" d="M117.45,186.03c-1.91-4.19,1.71-6.91,4.16-9.59.39-.42.4-1.18.5-1.29,3.31-3.48,11.3-11.32,15.02-14.25,7.26-5.72,13.51,1.1,8.57,7.53-5.21,6.78-14.34,13.18-20.01,19.89-4.71,2.26-5.43.24-8.25-2.29Z"/>
      <path class="st9" d="M122.11,175.15c-.1.11-.11.87-.5,1.29-2.45,2.68-6.07,5.4-4.16,9.59-2.59-2.32-8.93-7.8-10.6-10.38-3.12-4.81.93-10.29,6.48-8.55,2.44.77,6.2,6.69,8.78,8.05Z"/>
    </g>
    <polygon class="st7" points="150.1 115.78 137.14 115.78 143.62 98.68 150.1 115.78"/>
    <g>
      <path class="st13" d="M117.45,236.79c-1.97-4.23,1.69-6.45,4.16-9.07.39-.42.4-1.18.5-1.29.08-.09,1.02-.18,1.57-.74,5.28-5.41,10.55-10.92,16.27-15.87,6.23-1.6,9.8,4.11,5.75,9.37-5.27,6.85-14.51,13.38-20.29,20.12-4.48,2-5.34-.17-7.97-2.52Z"/>
      <path class="st9" d="M122.11,226.43c-.1.11-.11.87-.5,1.29-2.47,2.62-6.13,4.84-4.16,9.07-2.58-2.31-8.93-7.8-10.6-10.38-3.26-5.04,1.41-10.43,6.75-8.3,2.46.98,6.39,6.37,8.51,8.32Z"/>
    </g>
  </g>
  <path class="st20" d="M87.91,269.43c-29.92-43.21-30.59-98.19-1.65-142.28.47-.71.76-1.4,1.65-1.72-.09,47.99.06,96.01,0,144Z"/>
  <g>
    <path class="st16" d="M255.8,59.12l-14.01,3.88c-4.71,1.88-8.96,4.45-12.99,7.48-43.54,32.79-19.98,101.24,33.74,101.24v130.96c-14.08,9.44-27.38,15.61-44.18,19.2l-18.42,2.89c-5.9-.26-12.01.35-17.89,0-2.15-.13-5.49-.73-7.89-1.05-7.6-9.31-12.5-21.03-13.15-33.13l70.88-.4c4.74-2.79,3.51-10.09-2.22-10.66h-67.32s0-11.75,0-11.75l36.02-.03c6.47-1.17,6.4-10.19,0-11.18-10.57-1.63-25.03,1.15-36.02-.03v-16.39h68.67c6.55-.48,6.92-10.3.53-11.06h-69.19s0-12.2,0-12.2c11.75,1.23,25.6-.89,37.58-.03,6.16-1.55,5.73-10.01-.53-10.98-10.88-1.68-25.75,1.18-37.06-.03v-16.83h68.67c6.79-.81,6.73-10.32.52-11.06h-69.19s0-12.44,0-12.44l37.09-.03c5.77-1.79,5.85-9.14,0-10.79-11.48,1.07-25.97-1.54-37.09-.03v-17.56c2.16-.18,4.62-2.76,4.7-4.91l-18.1-48.65c-1-2.1-4.09-3.5-6.33-3.26-4-7.08-2.91-14.39,1.04-21.18h112.13ZM180.67,87.61c1.96-11.96-12.49-12.02-10.36,0-4.31-.75-10.18.97-9.23,6.34.82,4.68,5.16,3.91,8.75,4.24,1.38.96-1.47,7.95,4.5,9,5.4.95,7.09-4.97,6.34-9.23,12.01,2.13,11.97-12.31,0-10.35Z"/>
    <path class="st5" d="M162.02,229.09h69.19c6.39.74,6.02,10.56-.53,11.06h-68.66c-6.4-.88-6.66-10.36,0-11.06Z"/>
    <path class="st5" d="M162.93,279.53h66.86c5.58.54,6.77,7.65,2.16,10.36l-69.02.39c-6.32-.48-6.37-9.89,0-10.75Z"/>
    <path class="st2" d="M162.03,177.96h69.18c6.2.72,6.26,10.23-.52,11.06h-68.65c-6.15-1.37-6.76-10.35,0-11.06Z"/>
    <path class="st8" d="M162.53,267.82c-6.26-1.68-6.6-9.97,0-11.4,11.14,1.2,25.79-1.62,36.5.03,6.48,1,6.56,10.14,0,11.33l-36.5.03Z"/>
    <path class="st19" d="M162.53,154.68c11.09-1.51,25.56,1.11,37.02.03,5.84,1.65,5.76,9.03,0,10.82l-37.02.03c-6.48-.88-6.48-9.99,0-10.88Z"/>
    <path class="st19" d="M162.53,205.71c11.14,1.2,25.79-1.62,36.5.03,6.16.95,6.59,9.29.52,10.82-11.81-.85-25.44,1.24-37.02.03-6.57-.69-6.29-9.96,0-10.88Z"/>
    <g>
      <path class="st3" d="M296.23,217.11c-.02,17.43.01,34.89,0,52.32-8.32,13.67-20.5,24.31-33.68,33.15v-85.47c8.34,7.62,18.05,10.43,28.15,4.05,1.94-1.22,3.42-3.26,5.53-4.05Z"/>
      <path class="st14" d="M296.23,161.17c-.01,18.64.02,37.3,0,55.94-2.12.79-3.6,2.83-5.53,4.05-10.1,6.38-19.81,3.57-28.15-4.05v-45.07c7.61,0,16.39-2.09,23.32-5.18,2.8-1.25,7.97-3.93,10.36-5.7Z"/>
      <path class="st20" d="M296.23,269.43c.01-17.43-.02-34.89,0-52.32.02-18.64-.01-37.3,0-55.94,3.38-2.49,10.59-10,12.96-13.47,16.32,39.44,12.46,87.14-12.96,121.73Z"/>
      <g>
        <path class="st21" d="M268.77,59.12c6.59,1.46,13.11,2.94,19.19,5.93,1.05.51,1.77,1.38,2.57,1.84-8.89,6.42-10.57,17.78-6.22,27.45-6.7.02-18.8,7.55-11.15,13.99,5.63,4.74,8.19-2.28,11.37-2.07,2.17.14,3.75,3.75,7.55,3.62,3.67,10.65,13.5,19.59,25.39,18.13-1.4,6.28-4.66,14.38-8.29,19.68-2.37,3.47-9.58,10.98-12.96,13.47-2.39,1.76-7.56,4.45-10.36,5.7-2.48-1.57-4.92-1.9-7.42-3.72-6.27-4.54-8.25-11.56-7.6-19.08,3.78-.9,13.23-5.97,15.54-9.07,4.34-5.82-1.81-12.24-7.85-8.88-7.23,4.02-8.33,7.4-18.33,6.58-7.27-.6-8.65-4.01-13.71-6.75-1.2-5.54.25-10.61,1.04-16.06,2.5.21,4.64-1.12,5.8-3.26,4.16-7.63-8.25-13.04-14.61-12.28-7.08-6.01-15.04-13.81-9.85-23.83,4.02-3.04,8.26-5.62,12.96-7.5l13.98-3.89h12.96Z"/>
        <path class="st0" d="M238.71,94.35c-6.78.81-16.93,9.83-8.25,14.72,5.34,3,7.6-2.99,10.54-2.8,2.06.13,3.64,3.38,6.51,3.62-.78,5.45-2.24,10.51-1.04,16.06-3.58-1.94-7.94-.31-8.97,3.72-1.1,4.25,1.85,6.15,4.89,8.39,8.1,5.99,18.59,8.36,28.44,6.01-.65,7.52,1.33,14.54,7.6,19.08,2.5,1.81,4.95,2.15,7.42,3.72-6.93,3.09-15.71,5.18-23.32,5.18-53.63,0-77.15-68.64-33.68-101.53-5.19,10.02,2.76,17.82,9.85,23.83Z"/>
        <path class="st6" d="M317.48,128.01c-11.89,1.46-21.72-7.48-25.39-18.13,2.83-.09,5.66-3.17,5.73-5.98.14-5.78-8.54-9.58-13.5-9.56-4.35-9.68-2.68-21.03,6.22-27.45,21.78,12.39,32.48,36.36,26.95,61.12Z"/>
        <path class="st10" d="M246.48,125.94c5.06,2.74,6.45,6.15,13.71,6.75,10,.83,11.1-2.55,18.33-6.58,6.04-3.36,12.19,3.07,7.85,8.88-2.31,3.1-11.76,8.17-15.54,9.07-9.85,2.34-20.35-.02-28.44-6.01-3.04-2.25-5.98-4.14-4.89-8.39,1.04-4.03,5.39-5.66,8.97-3.72Z"/>
        <path class="st11" d="M238.71,94.35c6.36-.76,18.77,4.65,14.61,12.28-1.17,2.14-3.31,3.47-5.8,3.26-2.87-.24-4.45-3.49-6.51-3.62-2.94-.19-5.21,5.8-10.54,2.8-8.69-4.89,1.47-13.91,8.25-14.72Z"/>
        <path class="st1" d="M284.31,94.35c4.95-.02,13.64,3.78,13.5,9.56-.07,2.82-2.9,5.89-5.73,5.98-3.8.13-5.38-3.48-7.55-3.62-3.18-.21-5.74,6.81-11.37,2.07-7.66-6.44,4.45-13.97,11.15-13.99Z"/>
      </g>
    </g>
  </g>
</svg>