<?xml version="1.0" encoding="utf-8"?>
<!-- Generator: Adobe Illustrator 26.5.0, SVG Export Plug-In . SVG Version: 6.00 Build 0)  -->
<svg version="1.1" id="Layer_1" xmlns="http://www.w3.org/2000/svg" xmlns:xlink="http://www.w3.org/1999/xlink" x="0px" y="0px"
	 viewBox="0 0 642.8 320" style="enable-background:new 0 0 642.8 320;" xml:space="preserve">
<style type="text/css">
	.st0{fill:#4285F4;}
	.st1{fill:#34A853;}
	.st2{fill:#FBBC05;}
	.st3{fill:#EA4335;}
	.st4{fill:#6F7073;}
</style>
<g id="Google_Color">
	<path class="st0" d="M201.6,162.3c0-6.5-0.5-13-1.6-19.5h-97v38.7h55.5c-2.5,12.6-9.9,23.7-20.6,30.7V238H171
		C190.4,220.1,201.6,193.6,201.6,162.3z"/>
	<path class="st1" d="M103,263c27.8,0,51.1-9.3,68.1-25l-33.1-25.8c-9.3,6.2-21,10-34.9,10c-26.9,0-49.6-18.1-57.8-42.6H11.1v26.5
		C28.5,241,64.1,263,103,263z"/>
	<path class="st2" d="M45.2,179.6c-2.2-6.3-3.3-13-3.2-19.6c0-6.7,1.1-13.3,3.3-19.6v-26.5H11.1c-14.8,29-14.8,63.3,0,92.3
		L45.2,179.6z"/>
	<path class="st3" d="M103,97.8c15.2,0,28.8,5.2,39.5,15.4l29.3-29.3C154,67.2,130.8,57,103,57c-38.9,0-74.5,22-91.9,56.8l34.2,26.5
		C53.4,115.9,76.1,97.8,103,97.8z"/>
	<path class="st4" d="M270,237h-9.5v-73.6h25c6-0.1,11.9,2.1,16.3,6.3c8.2,7.7,9,20.5,1.8,29.1c-3.2,3.9-7.7,6.5-12.6,7.5l-0.2,0.3
		l20.6,29.9v0.5h-11.2l-19.8-29.8H270V237z M270,172.5v25.9h15.2c3.6,0.1,7.1-1.3,9.8-3.8c2.6-2.4,4.1-5.8,4-9.3
		c-0.1-7.2-6-12.9-13.1-12.8H270z M339.8,238.6c-6.9,0.2-13.6-2.6-18.3-7.6c-4.8-5.1-7.2-11.5-7.2-19.2c0-7.7,2.3-14.1,7-19.1
		c4.5-5.1,11-7.9,17.8-7.7c7.5,0,13.4,2.4,17.8,7.2c4.4,4.8,6.6,11.6,6.6,20.3l-0.1,1H324c-0.1,4.5,1.7,8.8,4.9,11.9
		c3,3,7,4.6,11.2,4.6c6,0,10.7-3,14.2-9l8.4,4.1c-2.1,4.1-5.4,7.6-9.4,10C349.2,237.5,344.5,238.7,339.8,238.6L339.8,238.6z
		 M324.7,205.8h28.8c-0.2-3.3-1.7-6.5-4.3-8.7c-2.6-2.3-6-3.4-10.3-3.4c-3.4-0.1-6.6,1.1-9.2,3.3
		C327.2,199.2,325.4,202.3,324.7,205.8L324.7,205.8z M395.6,237h-9.5l-20.3-50.3h10.3l14.8,39h0.2l15-39h10.1L395.6,237z
		 M434.5,169.3c0,3.7-3,6.7-6.7,6.6c-3.7,0-6.7-3-6.6-6.7c0-3.7,3-6.7,6.7-6.6c1.8,0,3.5,0.7,4.7,2
		C433.8,165.8,434.5,167.5,434.5,169.3L434.5,169.3z M432.6,186.7V237h-9.4v-50.4L432.6,186.7z M467,238.7
		c-6.9,0.2-13.6-2.6-18.3-7.6c-4.8-5.1-7.2-11.5-7.2-19.2c0-7.7,2.3-14.1,7-19.1c4.5-5.1,11-7.9,17.8-7.8c7.5,0,13.4,2.4,17.8,7.2
		c4.4,4.8,6.6,11.6,6.6,20.3l-0.1,1h-39.5c-0.1,4.5,1.7,8.8,4.9,11.9c3,3,7.1,4.6,11.3,4.5c6,0,10.7-3,14.2-9l8.5,4.1
		c-2.1,4.1-5.4,7.6-9.4,10c-4.1,2.4-8.8,3.7-13.6,3.6L467,238.7z M451.9,205.8h28.9c-0.2-3.3-1.7-6.5-4.3-8.7
		c-2.6-2.3-6-3.4-10.3-3.4c-3.4-0.1-6.6,1.1-9.2,3.3C454.3,199.3,452.6,202.3,451.9,205.8L451.9,205.8z M569.6,186.7L553.4,237h-9.7
		l-12.5-38.6L518.8,237h-9.5L493,186.6h9.9l11.2,38h0.1l12.4-38h9.8l12.4,38h0.1l11.1-38L569.6,186.7z M614.3,223
		c0,4.4-1.9,8.1-5.8,11.1c-3.8,3-8.7,4.5-14.5,4.5c-4.8,0.1-9.4-1.3-13.3-4c-3.8-2.5-6.6-6.2-8.2-10.4l8.4-3.6c1.1,2.8,3,5.2,5.4,7
		c2.3,1.6,5,2.5,7.8,2.5c2.7,0.1,5.3-0.6,7.5-1.9c2-1.3,3-2.9,3-4.6c0-3.2-2.5-5.6-7.4-7.1l-8.6-2.2c-9.8-2.5-14.7-7.2-14.7-14.2
		c-0.1-4.4,2-8.5,5.6-11c3.7-2.8,8.5-4.2,14.3-4.2c4.2-0.1,8.4,1,12.1,3.2c3.4,1.9,6.1,4.9,7.5,8.5l-8.4,3.5c-1-2.1-2.6-3.9-4.7-5
		c-2.2-1.2-4.7-1.8-7.2-1.8c-2.3,0-4.6,0.6-6.6,1.9c-2,1.2-2.9,2.7-2.9,4.5c0,2.9,2.7,4.9,8.1,6.2l7.6,1.9
		C609.3,210.3,614.3,215.4,614.3,223z"/>
	<path class="st2" d="M280.4,63.5l8.4,25.9H316l-22,16l8.4,25.9l-22-16l-22.1,16l8.4-25.9l-22.1-16H272L280.4,63.5z M353.6,89.4
		h-27.3l22.1,16l-8.4,25.9l22.1-16l22,16l-8.4-25.9l22-16h-27.3L362,63.6L353.6,89.4z M435.3,89.4h-27.3l22,16l-8.4,25.9l22-16
		l22.1,16l-8.4-25.9l22.1-16h-27.3l-8.4-25.9L435.3,89.4z M517,89.4h-27.3l22,16l-8.4,25.9l22-16l22.1,16l-8.4-25.9l22-16h-27.2
		l-8.4-25.9L517,89.4z M598.7,89.4h-27.3l22.1,16l-8.4,25.9l22.1-16l22,16l-8.4-25.9l22-16h-27.3l-8.4-25.9L598.7,89.4z"/>
</g>
</svg>
