<svg xmlns="http://www.w3.org/2000/svg" id="Layer_1" data-name="Layer 1" viewBox="0 0 642.84 320"><g id="Google_Color" data-name="Google Color"><path d="M201.58,162.32A119.24,119.24,0,0,0,200,142.84H103v38.7H158.5a47.8,47.8,0,0,1-20.59,30.72V238H171C190.42,220.07,201.58,193.64,201.58,162.32Z" style="fill:#4285f4"></path><path d="M103,263c27.8,0,51.06-9.27,68.05-25l-33.12-25.75c-9.27,6.18-21,10-34.93,10-26.86,0-49.6-18.11-57.76-42.57H11.07v26.52A102.83,102.83,0,0,0,103,263Z" style="fill:#34a853"></path><path d="M45.22,179.65A59.87,59.87,0,0,1,42,160a62.33,62.33,0,0,1,3.26-19.65V113.83H11.07a101.82,101.82,0,0,0,0,92.34Z" style="fill:#fbbc05"></path><path d="M103,97.78c15.19,0,28.75,5.24,39.47,15.45L171.8,83.88C154,67.23,130.78,57,103,57a102.83,102.83,0,0,0-91.91,56.81l34.15,26.52C53.38,115.89,76.12,97.78,103,97.78Z" style="fill:#ea4335"></path><path d="M270,237h-9.45V163.44h25.05a22.9,22.9,0,0,1,16.27,6.32,21.08,21.08,0,0,1,1.75,29.05A22.07,22.07,0,0,1,291,206.35l-.2.31,20.63,29.88V237H300.24l-19.81-29.77H270Zm0-64.47v25.87h15.19a13.77,13.77,0,0,0,9.76-3.75,12.25,12.25,0,0,0,4-9.29,13,13,0,0,0-13.14-12.83Zm69.81,66.11a24.06,24.06,0,0,1-18.28-7.6q-7.19-7.59-7.18-19.19t7-19.15A23.1,23.1,0,0,1,339.15,185q11.19,0,17.81,7.24t6.62,20.27l-.1,1H324a16.36,16.36,0,0,0,4.93,11.91A15.75,15.75,0,0,0,340.18,230q9,0,14.17-9l8.41,4.11a25.11,25.11,0,0,1-9.39,10A26,26,0,0,1,339.77,238.59Zm-15.09-32.85h28.84a12.52,12.52,0,0,0-4.26-8.68q-3.84-3.44-10.31-3.44a13.69,13.69,0,0,0-9.19,3.29A15.65,15.65,0,0,0,324.68,205.74ZM395.62,237h-9.45l-20.33-50.31h10.27l14.78,39h.21l15-39h10.06Zm38.9-67.66a6.66,6.66,0,1,1-1.95-4.72A6.45,6.45,0,0,1,434.52,169.29Zm-1.95,17.35V237h-9.44V186.64Zm34.4,52a24,24,0,0,1-18.28-7.6q-7.19-7.59-7.18-19.19t7-19.15A23.08,23.08,0,0,1,466.35,185q11.19,0,17.81,7.24t6.62,20.27l-.1,1H451.16a16.35,16.35,0,0,0,4.92,11.91,15.79,15.79,0,0,0,11.3,4.52q9,0,14.16-9L490,225a25.18,25.18,0,0,1-9.39,10A26,26,0,0,1,467,238.59Zm-15.1-32.85h28.85a12.52,12.52,0,0,0-4.26-8.68q-3.84-3.44-10.32-3.44a13.66,13.66,0,0,0-9.18,3.29A15.72,15.72,0,0,0,451.87,205.74Zm117.76-19.1L553.41,237h-9.65l-12.53-38.6L518.81,237h-9.55L493,186.64h9.86l11.19,38h.1l12.42-38h9.76l12.42,38h.1l11.09-38ZM614.29,223q0,6.57-5.75,11.08t-14.48,4.52a23,23,0,0,1-13.34-4,21.84,21.84,0,0,1-8.22-10.42l8.42-3.6a15.61,15.61,0,0,0,5.39,7,13.13,13.13,0,0,0,7.75,2.51,13.69,13.69,0,0,0,7.55-1.95q3-2,3-4.62c0-3.21-2.47-5.58-7.39-7.08l-8.63-2.16q-14.68-3.69-14.68-14.17a13.06,13.06,0,0,1,5.6-11q5.58-4.16,14.32-4.16a23.29,23.29,0,0,1,12.06,3.18,17.4,17.4,0,0,1,7.55,8.52l-8.42,3.49a10.59,10.59,0,0,0-4.67-5,14.64,14.64,0,0,0-7.24-1.8,12.05,12.05,0,0,0-6.62,1.85c-1.95,1.23-2.93,2.74-2.93,4.51q0,4.32,8.11,6.16l7.6,1.95Q614.29,211.6,614.29,223Z" style="fill:#6f7073"></path><path d="M280.35,63.52l8.42,25.92H316l-22,16,8.42,25.92-22-16-22.06,16,8.43-25.92-22.06-16h27.26Zm73.27,25.92H326.36l22.06,16L340,131.39l22.06-16,22.05,16-8.42-25.92,22.05-16H370.47l-8.42-25.92Zm81.71,0H408.07l22.05,16-8.42,25.92,22.05-16,22.06,16-8.43-25.92,22.06-16H452.18l-8.43-25.92Zm81.7,0H489.77l22.05,16-8.42,25.92,22.05-16,22.06,16-8.42-25.92,22-16H533.88l-8.43-25.92Zm81.7,0H571.47l22.06,16-8.43,25.92,22.06-16,22.05,16-8.42-25.92,22.05-16H615.58l-8.42-25.92Z" style="fill:#fbbc05"></path></g></svg>