<?xml version="1.0" encoding="UTF-8"?>
<svg id="Layer_1" xmlns="http://www.w3.org/2000/svg" version="1.1" viewBox="0 0 2500 1163">
  <!-- Generator: Adobe Illustrator 30.5.1, SVG Export Plug-In . SVG Version: 2.1.4 Build 3)  -->
  <defs>
    <style>
      .st0 {
        fill: #ea4335;
      }

      .st1 {
        fill: #4285f4;
      }

      .st2 {
        fill: #34a853;
      }

      .st3 {
        fill: #6f7073;
      }

      .st4 {
        fill: #fbbc05;
      }
    </style>
  </defs>
  <g id="Google_Color">
    <path class="st1" d="M787.25,590.38c0-25.11-1.93-50.21-6.18-75.32h-374.68v149.49h214.38c-9.66,48.67-38.24,91.55-79.57,118.58v99.66h127.85c74.94-69.14,118.2-171.5,118.2-292.4Z"/>
    <path class="st2" d="M406.39,979.36c107.38,0,197.38-35.92,263.05-96.57l-127.85-99.66c-35.92,23.95-81.12,38.63-134.81,38.63-103.91,0-191.59-69.91-223.26-164.55H51.41v102.36c67.21,134.81,204.72,219.79,354.98,219.79Z"/>
    <path class="st4" d="M183.13,657.21c-8.5-24.33-12.75-50.21-12.36-75.71,0-25.88,4.25-51.37,12.75-75.71v-102.36H51.41c-57.17,112.02-57.17,244.51,0,356.52l131.72-102.75Z"/>
    <path class="st0" d="M406.39,341.24c58.71,0,111.25,20.09,152.58,59.49l113.18-113.18c-68.76-64.51-158.37-103.91-265.75-103.91-150.26,0-287.77,84.98-354.98,219.4l132.1,102.36c31.29-94.25,118.97-164.16,222.88-164.16Z"/>
    <path class="st3" d="M1051.46,878.93h-36.7v-284.29h96.57c23.18-.39,45.97,8.11,62.96,24.33,31.67,29.74,34.76,79.18,6.95,112.4-12.36,15.06-29.74,25.11-48.67,28.97l-.77,1.16,79.57,115.49v1.93h-43.26l-76.48-115.11h-40.17v115.11ZM1051.46,629.78v100.04h58.71c13.91.39,27.43-5.02,37.85-14.68,10.04-9.27,15.84-22.4,15.45-35.92-.39-27.81-23.18-49.83-50.6-49.44h-61.42ZM1321.07,885.11c-26.65.77-52.53-10.04-70.69-29.36-18.54-19.7-27.81-44.42-27.81-74.16s8.88-54.46,27.04-73.78c17.38-19.7,42.49-30.52,68.76-29.74,28.97,0,51.76,9.27,68.76,27.81,17,18.54,25.49,44.81,25.49,78.41l-.39,3.86h-152.19c-.39,17.38,6.57,33.99,18.93,45.97,11.59,11.59,27.04,17.77,43.26,17.77,23.18,0,41.33-11.59,54.85-34.76l32.45,15.84c-8.11,15.84-20.86,29.36-36.31,38.63-15.84,9.27-33.99,13.91-52.15,13.52h0ZM1262.75,758.41h111.24c-.77-12.75-6.57-25.11-16.61-33.61-10.04-8.88-23.18-13.13-39.79-13.13-13.13-.39-25.49,4.25-35.54,12.75-9.66,8.5-16.61,20.47-19.31,33.99h0ZM1536.61,878.93h-36.7l-78.41-194.29h39.79l57.17,150.64h.77l57.94-150.64h39.01l-79.57,194.29ZM1686.87,617.42c0,14.29-11.59,25.88-25.88,25.49-14.29,0-25.88-11.59-25.49-25.88,0-14.29,11.59-25.88,25.88-25.49,6.95,0,13.52,2.7,18.15,7.73,4.64,4.64,7.34,11.2,7.34,18.15h0ZM1679.53,684.63v194.29h-36.31v-194.68l36.31.39ZM1812.41,885.49c-26.65.77-52.53-10.04-70.69-29.36-18.54-19.7-27.81-44.42-27.81-74.16s8.88-54.46,27.04-73.78c17.38-19.7,42.49-30.52,68.76-30.13,28.97,0,51.76,9.27,68.76,27.81,17,18.54,25.49,44.81,25.49,78.41l-.39,3.86h-152.58c-.39,17.38,6.57,33.99,18.93,45.97,11.59,11.59,27.43,17.77,43.65,17.38,23.18,0,41.33-11.59,54.85-34.76l32.83,15.84c-8.11,15.84-20.86,29.36-36.31,38.63-15.84,9.27-33.99,14.29-52.53,13.91v.39ZM1754.08,758.41h111.63c-.77-12.75-6.57-25.11-16.61-33.61-10.04-8.88-23.18-13.13-39.79-13.13-13.13-.39-25.49,4.25-35.54,12.75-10.43,8.88-17,20.47-19.7,33.99h0ZM2208.72,684.63l-62.58,194.29h-37.47l-48.28-149.1-47.9,149.1h-36.7l-62.96-194.68h38.24l43.26,146.78h.39l47.9-146.78h37.85l47.9,146.78h.39l42.88-146.78,37.08.39ZM2381.38,824.85c0,17-7.34,31.29-22.4,42.88-14.68,11.59-33.61,17.38-56.01,17.38-18.54.39-36.31-5.02-51.37-15.45-14.68-9.66-25.49-23.95-31.67-40.17l32.45-13.91c4.25,10.82,11.59,20.09,20.86,27.04,8.88,6.18,19.31,9.66,30.13,9.66,10.43.39,20.47-2.32,28.97-7.34,7.73-5.02,11.59-11.2,11.59-17.77,0-12.36-9.66-21.63-28.58-27.43l-33.22-8.5c-37.85-9.66-56.78-27.81-56.78-54.85-.39-17,7.73-32.83,21.63-42.49,14.29-10.82,32.83-16.22,55.24-16.22,16.22-.39,32.45,3.86,46.74,12.36,13.13,7.34,23.56,18.93,28.97,32.83l-32.45,13.52c-3.86-8.11-10.04-15.06-18.15-19.31-8.5-4.64-18.15-6.95-27.81-6.95-8.88,0-17.77,2.32-25.49,7.34-7.73,4.64-11.2,10.43-11.2,17.38,0,11.2,10.43,18.93,31.29,23.95l29.36,7.34c38.63,9.66,57.94,29.36,57.94,58.71Z"/>
    <path class="st4" d="M1091.63,208.75l32.45,100.04h105.06l-84.98,61.8,32.45,100.04-84.98-61.8-85.37,61.8,32.45-100.04-85.37-61.8h105.84l32.45-100.04ZM1374.38,308.8h-105.45l85.37,61.8-32.45,100.04,85.37-61.8,84.98,61.8-32.45-100.04,84.98-61.8h-105.45l-32.45-99.66-32.45,99.66ZM1689.96,308.8h-105.45l84.98,61.8-32.45,100.04,84.98-61.8,85.37,61.8-32.45-100.04,85.37-61.8h-105.45l-32.45-100.04-32.45,100.04ZM2005.54,308.8h-105.45l84.98,61.8-32.45,100.04,84.98-61.8,85.37,61.8-32.45-100.04,84.98-61.8h-105.06l-32.45-100.04-32.45,100.04ZM2321.12,308.8h-105.45l85.37,61.8-32.45,100.04,85.37-61.8,84.98,61.8-32.45-100.04,84.98-61.8h-105.45l-32.45-100.04-32.45,100.04Z"/>
  </g>
</svg>