<?xml version="1.0" encoding="UTF-8"?>
<svg id="Layer_1" xmlns="http://www.w3.org/2000/svg" version="1.1" xmlns:xlink="http://www.w3.org/1999/xlink" viewBox="0 0 2122 2122">
  <!-- Generator: Adobe Illustrator 29.5.0, SVG Export Plug-In . SVG Version: 2.1.0 Build 137)  -->
  <defs>
    <style>
      .st0 {
        fill: url(#linear-gradient2);
      }

      .st1 {
        fill: #fff;
      }

      .st2 {
        fill: url(#linear-gradient1);
      }

      .st3 {
        fill: none;
      }

      .st4 {
        fill: url(#linear-gradient3);
      }

      .st5 {
        fill: url(#linear-gradient);
      }

      .st6 {
        clip-path: url(#clippath);
      }
    </style>
    <linearGradient id="linear-gradient" x1="1067.16" y1="778.1" x2="1067.16" y2="1489.02" gradientUnits="userSpaceOnUse">
      <stop offset=".42" stop-color="#004280"/>
      <stop offset="1" stop-color="#002f5c"/>
    </linearGradient>
    <clipPath id="clippath">
      <circle class="st3" cx="1067.16" cy="1030.56" r="367.24" transform="translate(-416.15 1056.44) rotate(-45)"/>
    </clipPath>
    <linearGradient id="linear-gradient1" x1="-156.01" y1="772.99" x2="1740.23" y2="772.99" gradientUnits="userSpaceOnUse">
      <stop offset=".38" stop-color="#ffd800"/>
      <stop offset=".46" stop-color="#ffcf00"/>
      <stop offset=".59" stop-color="#ffb900"/>
      <stop offset=".74" stop-color="#ff9400"/>
      <stop offset=".92" stop-color="#ff6200"/>
      <stop offset="1" stop-color="#ff4800"/>
    </linearGradient>
    <linearGradient id="linear-gradient2" x1="204.77" y1="1280.87" x2="1705.65" y2="1280.87" gradientUnits="userSpaceOnUse">
      <stop offset=".29" stop-color="#51b700"/>
      <stop offset=".42" stop-color="#4db100"/>
      <stop offset=".57" stop-color="#45a000"/>
      <stop offset=".75" stop-color="#378600"/>
      <stop offset=".95" stop-color="#236000"/>
      <stop offset="1" stop-color="#1d5500"/>
    </linearGradient>
    <linearGradient id="linear-gradient3" x1="1067.16" y1="952.86" x2="1067.16" y2="1183" xlink:href="#linear-gradient"/>
  </defs>
  <polygon class="st5" points="1673.97 1076.5 1693.06 1043.95 1675.41 1010.63 1690.87 976.2 1669.69 944.98 1681.3 909.08 1656.88 880.33 1664.57 843.41 1637.18 817.43 1640.82 779.9 1610.79 757.07 1610.33 719.36 1578.04 699.9 1573.53 662.44 1539.29 646.59 1530.75 609.85 1495.04 597.79 1482.57 562.19 1445.72 554.06 1429.48 520.02 1391.99 515.92 1372.14 483.85 1334.46 483.84 1311.22 454.08 1273.75 458.14 1247.48 431.06 1210.64 439.15 1181.64 415.09 1145.89 427.1 1114.41 406.32 1080.16 422.12 1046.64 404.86 1014.31 424.29 979.08 410.75 949.05 433.56 912.59 423.9 885.21 449.83 847.93 444.16 823.48 472.9 785.81 471.31 764.64 502.5 726.98 505.01 709.32 538.31 672.17 544.86 658.18 579.9 621.96 590.43 611.85 626.77 576.97 641.13 570.86 678.34 537.76 696.42 535.68 734.05 504.72 755.61 506.73 793.26 478.29 818.03 484.35 855.27 458.77 882.94 468.82 919.28 446.35 949.59 460.32 984.62 441.27 1017.19 458.92 1050.51 443.47 1084.92 464.64 1116.16 453.01 1152.04 477.41 1180.8 469.76 1217.72 497.11 1243.69 493.44 1281.22 523.52 1304.06 523.95 1341.78 556.26 1361.24 560.8 1398.69 594.98 1414.54 603.57 1451.26 639.28 1463.34 651.77 1498.92 688.6 1507.05 704.84 1541.11 742.33 1545.19 762.14 1577.27 799.87 1577.29 823.06 1607.05 860.57 1602.99 886.8 1630.07 923.67 1621.98 952.65 1646.05 988.42 1634.02 1019.9 1654.82 1054.15 1638.99 1087.68 1656.26 1119.99 1636.83 1155.23 1650.38 1185.26 1627.56 1221.69 1637.23 1249.11 1611.29 1286.39 1616.96 1310.82 1588.24 1348.49 1589.82 1369.7 1558.61 1407.32 1556.13 1425.02 1522.81 1462.15 1516.24 1476.12 1481.23 1512.36 1470.72 1522.43 1434.36 1557.33 1419.98 1563.47 1382.8 1596.55 1364.71 1598.62 1327.05 1629.57 1305.52 1627.56 1267.85 1656.03 1243.1 1649.96 1205.87 1675.53 1178.16 1665.46 1141.82 1687.93 1111.54 1673.97 1076.5"/>
  <path class="st1" d="M1465.35,1030.56c0,219.92-178.31,398.17-398.22,398.17s-398.13-178.25-398.13-398.17,178.28-398.19,398.13-398.19,398.22,178.28,398.22,398.19Z"/>
  <g>
    <g>
      <path class="st1" d="M1522.74,1236.12l-12.08,24.87-8.32-4.04,12.08-24.87,8.32,4.04Z"/>
      <path class="st1" d="M1517.55,1322.23l-12.09,16.54-39.42-17.06,27.76,33-11.65,15.93-59.04-41.31,8.01-10.95,39.64,27-32.78-36.39,7.12-9.74,45.29,19.89-38.23-29.53,8.13-11.12,57.27,43.73Z"/>
      <path class="st1" d="M1437.4,1417.86l-16.04,14.73-60.6-42.17,12.98-11.91,12.41,9.25,9.35-8.59-8.09-13.22,13.29-12.2,36.71,64.1ZM1393.91,1393.55l22.39,17.6-15.63-23.81-6.76,6.21Z"/>
      <path class="st1" d="M1372.22,1471.65l-18.54,11.61c-6.33,3.96-11.69,6.41-16.06,7.33-4.38.92-8.18.45-11.4-1.41-3.22-1.87-6.3-5.14-9.23-9.81l-13.87-22.16c-2.96-4.73-4.58-8.96-4.87-12.7-.28-3.74.91-7.39,3.6-10.95,2.68-3.57,7.15-7.32,13.42-11.24l18.72-11.72,38.24,61.06ZM1321.11,1431.66c-2.35,1.47-3.91,2.85-4.66,4.13-.76,1.27-.94,2.55-.57,3.82.37,1.27,1.22,2.96,2.55,5.07l16.67,26.61c1.22,1.96,2.33,3.35,3.3,4.17.98.82,2.18,1.14,3.61.94,1.43-.2,3.32-1.03,5.68-2.5l2.45-1.53-26.48-42.29-2.53,1.58Z"/>
      <path class="st1" d="M1285.04,1520.37l-35.99,14.64-4.09-10.05,18.28-7.44-6.73-16.57-13.94,5.68-4.16-10.22,13.94-5.67-8.11-19.94-18.49,7.52-4.06-9.97,36.19-14.72,27.14,66.73Z"/>
      <path class="st1" d="M1145.99,1560.56l-18.95,2.45-9.25-71.45,18.95-2.45,9.25,71.45Z"/>
      <path class="st1" d="M1078.14,1566.65l-13.44-.31-16.92-35.09-.79,34.69-15.8-.37,1.65-72.02,12.91.3,16.85,37.76.86-37.35,16.32.37-1.65,72.02Z"/>
      <path class="st1" d="M922.14,1546.46l-18.3-5.49,20.71-69,18.3,5.49-20.71,69Z"/>
      <path class="st1" d="M857.37,1524.17l-12.13-5.8-1.01-38.94-14.98,31.29-14.25-6.82,31.1-64.99,11.65,5.57-.15,41.35,16.13-33.69,14.73,7.05-31.1,64.98Z"/>
      <path class="st1" d="M771.21,1477.83l-17.66-12.92c-6.03-4.41-10.28-8.48-12.76-12.2-2.47-3.73-3.45-7.43-2.91-11.11.54-3.68,2.43-7.75,5.69-12.21l15.44-21.1c3.29-4.5,6.62-7.57,9.98-9.22,3.37-1.65,7.21-1.89,11.51-.73,4.31,1.17,9.44,3.93,15.41,8.3l17.83,13.05-42.54,58.14ZM789.4,1415.54c-2.24-1.64-4.09-2.57-5.56-2.8-1.46-.23-2.71.06-3.75.88-1.04.82-2.29,2.24-3.76,4.24l-18.54,25.34c-1.37,1.86-2.24,3.4-2.65,4.62-.4,1.21-.25,2.45.46,3.7.71,1.26,2.19,2.7,4.43,4.34l2.32,1.7,29.46-40.27-2.41-1.76Z"/>
      <path class="st1" d="M694.26,1415.28l-13.48-13.54,51.06-50.83,13.48,13.54-51.06,50.83Z"/>
      <path class="st1" d="M640.98,1355.34l-12.85-17.57,48.62-55.55,10.39,14.21-10.57,11.31,7.5,10.25,14.04-6.57,10.65,14.56-67.79,29.36ZM669.97,1314.82l-19.98,20.3,25.39-12.89-5.42-7.41Z"/>
      <path class="st1" d="M603.29,1216.66l-9.59-25.92,8.68-3.21,9.58,25.92-8.68,3.21Z"/>
    </g>
    <g>
      <path class="st1" d="M611.6,824.99l12.08-24.87,8.32,4.04-12.08,24.87-8.32-4.04Z"/>
      <path class="st1" d="M616.78,738.88l12.1-16.54,39.42,17.06-27.76-33,11.65-15.93,59.04,41.32-8.01,10.94-39.64-27,32.78,36.39-7.12,9.74-45.29-19.89,38.23,29.53-8.13,11.12-57.27-43.73Z"/>
      <path class="st1" d="M696.94,643.25l16.04-14.73,60.59,42.17-12.97,11.91-12.41-9.25-9.36,8.59,8.08,13.22-13.29,12.2-36.7-64.1ZM740.42,667.56l-22.39-17.6,15.63,23.81,6.76-6.21Z"/>
      <path class="st1" d="M762.11,589.46l18.55-11.61c6.33-3.96,11.68-6.41,16.06-7.33,4.37-.92,8.17-.45,11.4,1.41,3.22,1.87,6.29,5.14,9.22,9.81l13.88,22.16c2.96,4.73,4.57,8.96,4.86,12.7.29,3.74-.91,7.39-3.59,10.96-2.68,3.57-7.16,7.32-13.42,11.24l-18.73,11.72-38.24-61.06ZM813.22,629.45c2.35-1.47,3.9-2.85,4.65-4.13.76-1.27.94-2.55.57-3.82-.37-1.27-1.22-2.96-2.55-5.07l-16.66-26.61c-1.23-1.96-2.33-3.35-3.31-4.17-.98-.82-2.18-1.14-3.61-.94-1.43.2-3.32,1.03-5.68,2.5l-2.44,1.53,26.48,42.29,2.53-1.58Z"/>
      <path class="st1" d="M849.29,540.74l35.99-14.64,4.09,10.05-18.28,7.44,6.73,16.57,13.94-5.68,4.16,10.22-13.94,5.67,8.11,19.94,18.49-7.52,4.06,9.97-36.19,14.72-27.14-66.73Z"/>
      <path class="st1" d="M988.35,500.54l18.95-2.45,9.25,71.45-18.95,2.45-9.25-71.45Z"/>
      <path class="st1" d="M1056.19,494.46l13.44.31,16.92,35.09.8-34.69,15.79.37-1.65,72.02-12.91-.29-16.85-37.76-.86,37.35-16.33-.37,1.65-72.02Z"/>
      <path class="st1" d="M1212.19,514.64l18.3,5.49-20.71,69-18.3-5.49,20.71-69Z"/>
      <path class="st1" d="M1276.96,536.94l12.13,5.8,1.01,38.94,14.97-31.29,14.25,6.82-31.1,64.99-11.65-5.58.14-41.34-16.13,33.69-14.73-7.05,31.1-64.98Z"/>
      <path class="st1" d="M1363.13,583.28l17.66,12.92c6.03,4.41,10.28,8.48,12.76,12.2,2.47,3.73,3.45,7.43,2.91,11.11-.54,3.68-2.43,7.75-5.69,12.21l-15.44,21.1c-3.29,4.5-6.62,7.57-9.98,9.22-3.37,1.65-7.21,1.89-11.51.73-4.31-1.17-9.44-3.93-15.41-8.3l-17.83-13.05,42.54-58.14ZM1344.93,645.56c2.24,1.64,4.09,2.58,5.56,2.8,1.46.23,2.71-.06,3.75-.88,1.04-.82,2.3-2.24,3.76-4.24l18.54-25.34c1.37-1.86,2.24-3.4,2.65-4.62.4-1.21.25-2.45-.46-3.7-.71-1.26-2.19-2.7-4.43-4.34l-2.32-1.71-29.46,40.27,2.41,1.76Z"/>
      <path class="st1" d="M1440.07,645.83l13.48,13.54-51.06,50.83-13.48-13.54,51.06-50.83Z"/>
      <path class="st1" d="M1493.35,705.77l12.85,17.57-48.63,55.55-10.4-14.21,10.57-11.31-7.5-10.25-14.04,6.57-10.65-14.56,67.79-29.36ZM1464.36,746.29l19.98-20.3-25.39,12.89,5.42,7.41Z"/>
      <path class="st1" d="M1531.04,844.45l9.58,25.92-8.68,3.21-9.59-25.92,8.68-3.21Z"/>
    </g>
  </g>
  <g class="st6">
    <g>
      <rect class="st1" x="586.88" y="845.37" width="960.57" height="369.93"/>
      <rect class="st2" x="586.88" y="651.7" width="960.57" height="242.57"/>
      <rect class="st0" x="586.88" y="1159.58" width="960.57" height="242.57"/>
    </g>
  </g>
  <path class="st4" d="M1067.17,851.19c-99.06,0-179.37,80.3-179.37,179.37s80.31,179.37,179.37,179.37,179.37-80.31,179.37-179.37-80.31-179.37-179.37-179.37ZM1233.74,1041.67c-4.58.09-8.22,3.89-8.11,8.48.08,3.81,2.73,6.93,6.25,7.83-.68,4.08-1.5,8.11-2.47,12.08l-83.78-26.72-56.67-9.55c.15-.97.27-1.96.3-2.97l57.2,6.01,87.69-6.14c0,3.69-.16,7.34-.41,10.97ZM1225.67,1083.1c-.16-.04-.31-.12-.48-.16-4.45-1.09-8.95,1.66-10.01,6.13-.94,3.89,1.03,7.81,4.52,9.45-1.75,3.91-3.59,7.75-5.62,11.49l-74.38-47.19-52.31-23.58c.43-.98.74-2.02,1.04-3.07l54.03,19.71,86.7,15.34c-1.01,4.03-2.19,7.98-3.48,11.88ZM1141.03,1179.43c-2.42-3.9-7.56-5.07-11.45-2.63-3.41,2.13-4.74,6.34-3.36,9.97-3.55,1.34-7.16,2.57-10.83,3.68l-19.72-86.07-20.57-53.48c.94-.36,1.81-.82,2.7-1.3l23.85,52.19,50.11,72.72c-3.38,1.99-6.84,3.87-10.37,5.63-.12-.24-.21-.49-.36-.72ZM1097.41,1193.95c-1.35-4.38-6.01-6.83-10.39-5.46-3.73,1.15-6.03,4.7-5.81,8.43-4.24.36-8.53.58-12.86.61l5.28-88.12-4.69-57.15c1.31-.11,2.6-.3,3.83-.62l10.51,56.37,31.04,82.75c-5.47,1.61-11.05,2.94-16.74,3.99-.06-.26-.08-.53-.16-.79ZM1004.52,1176.59c-3.91-.85-7.76,1.18-9.34,4.69-3.02-1.44-5.98-3-8.91-4.62l47.72-74.24,23.85-52.11c.97.46,1.99.8,3.04,1.11l-20.03,53.77-15.99,86.95c-4.88-1.28-9.68-2.78-14.39-4.47.15-.39.3-.78.39-1.2.99-4.47-1.86-8.91-6.34-9.88ZM920.58,1092.22c-2.17-3.31-6.3-4.54-9.86-3.2-1.3-3.49-2.48-7.03-3.55-10.61l85.73-19.74,53.58-20.67c.36.98.81,1.9,1.3,2.81l-52.12,24.21-72.27,50.46c-2.18-3.67-4.22-7.42-6.12-11.27.32-.15.63-.29.92-.48,3.84-2.51,4.91-7.66,2.39-11.51ZM900.77,1016.9c.4.03.81.07,1.23.04,4.58-.28,8.05-4.24,7.76-8.82-.25-3.89-3.16-6.97-6.84-7.62.63-3.5,1.35-6.95,2.2-10.37l83.57,26.66,56.71,9.56c-.16.96-.25,1.96-.29,2.97l-57.24-6.02-87.67,6.14c.03-4.22.24-8.4.57-12.54ZM909.35,975.95c.39.13.77.28,1.19.36,4.5.9,8.87-2.04,9.75-6.55.75-3.86-1.3-7.62-4.75-9.17,1.6-3.46,3.28-6.87,5.11-10.2l73.97,46.93,52.49,23.66c-.46.98-.79,2-1.11,3.04l-54.14-19.75-86.48-15.31c1.13-4.42,2.49-8.75,3.96-13.01ZM994.29,881.96c2.58,3.79,7.77,4.74,11.54,2.14,3.29-2.26,4.45-6.49,2.97-10.04,3.39-1.26,6.83-2.41,10.33-3.45l19.51,85.16,20.7,53.84c-.93.36-1.81.8-2.68,1.27l-24.01-52.53-49.63-72.03c3.44-2.01,6.94-3.91,10.54-5.68.2.45.43.9.73,1.32ZM903,1061.07c.37-.07.74-.13,1.1-.25,4.35-1.44,6.7-6.16,5.24-10.51-1.23-3.69-4.82-5.92-8.54-5.62-.39-4.63-.63-9.31-.63-14.05l87.65,5.59,57.34-4.48c.09,1.35.27,2.66.6,3.93l-56.52,10.59-82.4,31.01c-1.53-5.3-2.82-10.7-3.83-16.19ZM1061.63,1008.91l-10.59-56.78-30.71-81.87c4.68-1.36,9.43-2.55,14.26-3.5.08.5.2,1.01.37,1.52,1.53,4.31,6.31,6.56,10.61,5.01,3.76-1.35,5.95-5.13,5.43-8.94,4.91-.47,9.88-.72,14.9-.76l-5.22,87.15,4.73,57.55c-1.3.11-2.57.29-3.8.61ZM1088.21,872.24c3.82,0,7-2.59,7.97-6.11,4.02.7,7.98,1.51,11.89,2.5l-27.11,83.06-9.98,56.83c-1.04-.19-2.1-.29-3.18-.33l5.81-57.44-6.44-87.18c4.29,0,8.52.22,12.73.53.09,4.51,3.76,8.15,8.29,8.15ZM1127.87,882.85c3.71.98,7.47-.72,9.29-3.9,3.55,1.64,7.03,3.37,10.43,5.25l-47.26,73.54-24,52.44c-.97-.44-1.99-.77-3.02-1.07l20.16-54.13,15.83-86.03c4.29,1.11,8.5,2.43,12.64,3.87-1.1,4.4,1.53,8.89,5.93,10.04ZM1163.51,903.24c3.35,1.9,7.45,1.2,10.02-1.42,3.89,3.21,7.63,6.62,11.21,10.17l-65.73,57.69-37.54,43.81c-.95-.81-1.95-1.54-3.02-2.18l33.18-47.25,37.07-79.23c3.98,2.23,7.9,4.61,11.68,7.15-2.22,3.98-.83,9.02,3.14,11.27ZM1192.76,932.05c2.76,2.7,6.91,3.06,10.06,1.17,2.5,3.47,4.89,7.01,7.11,10.67l-77.86,40.13-46.96,33.36c-.58-.8-1.21-1.57-1.89-2.29l44.86-36.23,57.53-66c2.4,2.42,4.71,4.94,6.98,7.5-3.17,3.28-3.1,8.5.16,11.69ZM1213.69,967.38c1.98,3.35,5.95,4.76,9.52,3.67,1.34,3.53,2.6,7.11,3.7,10.75l-85.47,19.67-53.69,20.71c-.38-.97-.87-1.87-1.38-2.77l52.31-24.3,71.88-50.18c2.15,3.59,4.15,7.28,6.03,11.03,0,0-.01,0-.02.01-3.94,2.34-5.23,7.45-2.87,11.39ZM1230.93,997.79c-.13.03-.25.03-.36.07-4.41,1.26-6.96,5.87-5.69,10.28,1.1,3.81,4.67,6.21,8.46,5.99.49,5.06.76,10.19.79,15.38l-87.63-5.58-57.37,4.49c-.12-1.35-.33-2.64-.68-3.91l56.63-10.61,82.15-30.91c1.44,4.85,2.69,9.79,3.69,14.82ZM958.74,903.59c.3.35.6.69.95.99,3.47,3,8.72,2.6,11.72-.87,2.54-2.97,2.61-7.21.43-10.25,3.28-2.29,6.65-4.47,10.1-6.52l39.56,77.94,33.08,47.19c-.9.61-1.74,1.34-2.53,2.09l-36.64-44.55-66.52-56.95c3.15-3.15,6.46-6.16,9.84-9.06ZM948.05,913.55l58.27,65.22,44.11,37.14c-.8.93-1.53,1.9-2.16,2.95l-47.38-32.86-79.63-36.68c2.33-4.18,4.82-8.27,7.48-12.22.37.26.75.52,1.18.72,4.11,2.02,9.09.29,11.09-3.84,1.73-3.56.68-7.76-2.31-10.12,2.98-3.57,6.09-7.01,9.35-10.32ZM939.4,1138.05c.37-.3.73-.61,1.06-.97,3.07-3.4,2.79-8.66-.63-11.73-2.99-2.68-7.37-2.81-10.48-.5-1.87-2.73-3.67-5.52-5.39-8.37l78.29-40.36,46.74-33.21c.57.82,1.23,1.57,1.9,2.3l-44.66,36.07-57.97,66.51c-3.08-3.13-6.04-6.38-8.87-9.74ZM949.06,1148.62l66.26-58.16,37.34-43.56c.95.82,1.94,1.58,3.01,2.23l-32.97,46.96-37.42,80c-4.7-2.65-9.25-5.52-13.66-8.6.25-.35.5-.7.71-1.1,2.1-4.08.48-9.09-3.6-11.17-3.55-1.82-7.77-.84-10.2,2.11-3.26-2.8-6.44-5.68-9.48-8.71ZM1053.21,1196.93c.02-.29.06-.57.05-.87-.18-4.57-4.06-8.14-8.65-7.93-3.89.16-7.02,2.98-7.75,6.64-3.68-.68-7.33-1.44-10.91-2.35l27.41-83.95,9.89-56.42c1.05.19,2.14.29,3.23.32l-5.77,57.03,6.5,88.15h-.04c-4.7,0-9.35-.25-13.96-.62ZM1176.55,1156.68c-.25-.3-.48-.61-.77-.88-3.34-3.15-8.61-2.97-11.74.38-2.82,3.01-2.95,7.54-.51,10.72-3.5,2.48-7.09,4.85-10.78,7.06l-39.94-78.69-32.9-46.91c.9-.64,1.76-1.35,2.56-2.11l36.43,44.31,67.02,57.39c-3.01,3.04-6.14,5.94-9.37,8.74ZM1186.72,1147.1l-58.72-65.72-43.9-36.97c.78-.94,1.5-1.94,2.12-3.01l47.22,32.74,80.07,36.88c-2.45,4.46-5.1,8.81-7.94,13.01-.26-.19-.53-.4-.83-.57-4.03-2.19-9.07-.67-11.25,3.37-1.94,3.59-.96,7.96,2.14,10.42-2.83,3.4-5.81,6.67-8.9,9.85Z"/>
</svg>