<?xml version="1.0" encoding="UTF-8"?><svg id="Layer_1" xmlns="http://www.w3.org/2000/svg" viewBox="0 0 47.1 47.91"><defs><style>.cls-1{fill:#fefdfb;}.cls-2{fill:#b63317;}.cls-3{fill:#d0d7f9;}.cls-4{fill:#5c5b5a;}.cls-5{fill:#446ac3;}.cls-6{fill:#f8980f;}.cls-7{fill:#b53219;}.cls-8{fill:#8a9be8;}.cls-9{fill:#62804e;}.cls-10{fill:#9ca6e2;}.cls-11{fill:#fbfcf8;}.cls-12{fill:#f9ac3e;}.cls-13{fill:#b53216;}.cls-14{fill:#b83618;}.cls-15{fill:#f9990f;}.cls-16{fill:#fdfdfc;}.cls-17{fill:#f9ae44;}.cls-18{fill:#8a9be9;}.cls-19{fill:#545351;}.cls-20{fill:#b53016;}.cls-21{fill:#255298;}.cls-22{fill:#f9aa3d;}.cls-23{fill:#2d2d2e;}.cls-24{fill:#3a3a3c;}.cls-25{fill:#41622e;}.cls-26{fill:#cad4f9;}.cls-27{fill:#4269c3;}.cls-28{fill:#aec46f;}.cls-29{fill:#f9ab3e;}</style></defs><path class="cls-18" d="M12.9,30.53c-.03-3.64-.08-7.28-.07-10.93,.01-2.78,.1-5.56,.2-8.34,.09-2.56,.24-5.12,.39-7.68,.09-1.61,1.06-3.09,3.49-3.18,2.48-.09,4.96-.24,7.44-.31,2.38-.07,4.77-.13,7.15-.06,3.14,.09,6.28,.28,9.41,.47,1.44,.09,2.65,1.39,2.72,2.83,.11,2.35,.23,4.69,.3,7.04,.09,3.06,.15,6.12,.21,9.18,.04,1.9,.07,3.81,.06,5.71-.01,2.48-.06,4.97-.1,7.45,0,.43-.05,.86-.07,1.29-.74-.39-1.47-.78-2.21-1.17,.04-1.54,.1-3.08,.1-4.61-.01-4.14-.05-8.28-.09-12.41,0-.92-.06-1.85-.09-2.77-.07-2.1-.14-4.2-.21-6.29-.03-.99-.06-1.98-.11-2.97-.03-.69-.36-1.02-1.05-1.07-.43-.03-.85-.07-1.28-.09-2.23-.1-4.45-.28-6.68-.28-3.8,0-7.61,.09-11.41,.17-1.44,.03-2.87,.13-4.31,.2-.59,.03-.95,.34-1.01,.89-.04,.41-.07,.82-.1,1.23-.1,1.98-.22,3.96-.29,5.94-.09,2.31-.19,4.63-.19,6.94,0,5.03,.06,10.06,.09,15.1-.51,0-1.02,0-1.52,0,.07-.34,.15-.67,.21-1.01q.18-1.02-.85-1.2s-.09-.03-.14-.05Z"/><path class="cls-12" d="M19.46,47.57c-.42,.11-.84,.32-1.26,.32-3.91,.02-7.83,0-11.74,0,0-.06-.02-.12-.02-.18-.07-.65-.13-1.3-.22-1.95-.21-1.54-.44-3.08-.66-4.62-.19-1.31-.38-2.62-.56-3.94-.12-.88-.22-1.75-.32-2.63,.06,.15,.14,.3,.19,.45,.51,1.48,1.01,2.97,1.51,4.45,.25,.73,.71,1.07,1.48,1.07,1.14,0,2.28,0,3.42,0,.07,.28,.09,.77,.21,.8,.48,.11,1.01,.14,1.5,.04,.16-.03,.22-.54,.33-.83,1.01,0,2.02,0,3.03,0,1.04,0,1.59-.54,1.64-1.57,.07-1.57,.15-3.14,.22-4.71,.02,.08,.06,.15,.07,.23,.22,1.51,.43,3.02,.64,4.54,.29,2.09,.59,4.18,.88,6.27,.02,.18,.04,.36,.07,.54,.11,.63,.08,1.22-.4,1.71Z"/><path class="cls-20" d="M18.19,34.29c-.07,1.57-.15,3.14-.22,4.71-.05,1.03-.6,1.56-1.64,1.57-1.01,0-2.02,0-3.03,0q-.14-.99-.9-1.01c-1.01-.02-1.03-.01-1.14,1-1.14,0-2.28,.01-3.42,0-.77,0-1.23-.34-1.48-1.07-.51-1.48-1.01-2.97-1.51-4.45-.05-.15-.13-.3-.19-.45,.02-.82-.28-1.45-1.09-1.76,1.38-.01,2.77-.03,4.15-.04,.11,0,.21,0,.32,0,1.63,0,3.26,0,4.89,0h.42c.11,0,.22,0,.33,0,.51,0,1.02,0,1.52,0,.49,0,.98,.04,1.47,0,.79-.06,1.64,.7,1.52,1.49Z"/><path class="cls-7" d="M41.82,32.82c.74,.39,1.47,.78,2.21,1.17,1.53,1.26,2.55,2.83,2.93,4.8,.83,4.22-2.25,8.5-6.51,9.04-1.16,.15-2.27,.03-3.39-.24-1.26-.45-2.38-1.11-3.32-2.07-.2-.24-.4-.48-.59-.73-1.13-1.49-1.55-3.2-1.56-5.04,.03-.23,.06-.45,.1-.68,.56-3.05,2.26-5.15,5.19-6.21,1.63-.59,3.28-.49,4.92-.05Zm-2.11,1.28c-.23,0-.45,0-.68,0-1.46,.02-2.7,.57-3.76,1.56l-.42,.42c-1.01,1.06-1.53,2.32-1.58,3.78,0,.22-.01,.45-.02,.67,.11,1.43,.57,2.7,1.6,3.74,.15,.17,.3,.35,.46,.52,1.08,.9,2.31,1.4,3.71,1.52,.23,0,.46,0,.69,0,1.41-.13,2.68-.59,3.72-1.57,.14-.15,.28-.31,.42-.46,.14-.15,.31-.29,.43-.46,.73-.97,1.09-2.08,1.19-3.29,0-.22,0-.44,0-.66-.1-1.42-.6-2.69-1.56-3.75-.16-.14-.31-.29-.47-.43-1.04-1-2.29-1.51-3.74-1.57Z"/><path class="cls-28" d="M2.76,6.77c1.03-.07,2.06-.22,3.08-.2,1.44,.03,2.87,.17,4.3,.3,.76,.07,1.15,.53,1.17,1.29,.04,1.06,.06,2.12,.09,3.17-.21,.23-.4,.48-.63,.68-.42,.38-.86,.75-1.29,1.12-2.16-.51-4.31-.5-6.61,0,.24,.09,.34,.15,.45,.16,1.02,.1,2.03,.23,3.05,.28,.66,.03,1.32-.05,1.98-.08-.9,.52-1.9,.61-2.9,.69-1.47,.12-2.89-.2-4.27-.69-.22-1.54-.15-3.08-.04-4.63,.08-1.12,.35-1.97,1.62-2.11Zm6.68,2.13c-1.34-.53-5.09-.54-6.41,0,1.12,.58,5.17,.58,6.41,0Zm-6.52,2.11c1.36,.56,4.76,.57,6.52,.03-2.13-.55-4.26-.53-6.52-.03Z"/><path class="cls-15" d="M3.57,32.83c.81,.31,1.11,.94,1.09,1.76,.11,.88,.2,1.76,.32,2.63,.18,1.31,.37,2.63,.56,3.94,.22,1.54,.45,3.08,.66,4.62,.09,.65,.15,1.3,.22,1.95-.67-.84-1.35-1.67-2.01-2.51-.47-.6-.86-.67-1.48-.24-.65,.45-1.29,.91-1.94,1.36,.1-1.7,.2-3.4,.31-5.1,.15-2.26,.31-4.52,.45-6.78,.08-1.2,.61-1.69,1.81-1.63Z"/><path class="cls-8" d="M33.75,45.51c.94,.96,2.06,1.62,3.32,2.07-5.87,.42-11.74,.44-17.61,0,.48-.49,.51-1.08,.4-1.71-.03-.18-.05-.36-.07-.54,4.65,.38,9.31,.4,13.97,.18Z"/><path class="cls-9" d="M9.48,13.14c.43-.37,.87-.73,1.29-1.12,.23-.21,.42-.45,.63-.68-.03,1.02-.04,2.04-.1,3.06-.03,.57-.42,.97-.98,1.1-.19,.05-.38,.08-.66,.14,0,.23,.04,.48-.01,.71-.05,.24-.13,.54-.3,.66-.12,.08-.42-.1-.64-.17-.06-.02-.12-.03-.18-.05-.32-.71-.7-.92-1.64-.89-1.48-.1-2.96-.2-4.44-.3-.13,0-.25-.06-.38-.09-.38-.24-.73-.5-.8-.98-.05-.34-.07-.68-.1-1.01,1.38,.49,2.79,.81,4.27,.69,1-.08,2-.17,2.9-.69,.02-.01,.04-.02,.06-.02,.08-.02,.16-.04,.23-.07,.28-.1,.56-.19,.84-.29Z"/><path class="cls-13" d="M1,46.34c.65-.45,1.29-.91,1.94-1.36,.62-.43,1-.35,1.48,.24,.67,.84,1.34,1.67,2.01,2.51,0,.06,.02,.12,.02,.18-1.32,0-2.65,.01-3.97,0-.97,0-1.52-.59-1.49-1.57Z"/><path class="cls-17" d="M13.68,32.79c-.11,0-.22,0-.33,0-.05-.29-.08-.58-.16-.86-.03-.1-.18-.17-.28-.26h-4.65c-.07,.38-.15,.75-.22,1.12-.11,0-.21,0-.32,0-.1-.48-.21-.97-.3-1.45-.09-.5,.04-.7,.54-.71,1.65-.05,3.3-.07,4.94-.1,.05,.02,.09,.04,.14,.05q1.03,.18,.85,1.2c-.06,.34-.14,.67-.21,1.01Z"/><path class="cls-25" d="M1.18,13.51c.03,.34,.06,.68,.1,1.01,.07,.48,.42,.75,.8,.98-.32-.05-.66-.07-.97-.16-.45-.12-.74-.43-.82-.9-.37-2.18-.38-4.37-.01-6.55,.09-.53,.39-.88,.92-.97,.52-.09,1.04-.11,1.57-.17-1.27,.15-1.54,1-1.62,2.11-.11,1.55-.18,3.09,.04,4.63Z"/><path class="cls-25" d="M6.9,15.91c.93-.03,1.32,.18,1.64,.89-.24,.3-.5,.25-.75,.01-.3-.29-.59-.6-.89-.9Z"/><path class="cls-27" d="M41.82,32.82c-1.64-.45-3.29-.54-4.92,.05-2.93,1.06-4.64,3.16-5.19,6.21-.04,.22-.07,.45-.1,.68-.11,.01-.23,.02-.34,.03-1.45,.16-2.9,.34-4.35,.45-.67,.05-1.35-.02-2.02-.09-.95-.09-1.9-.18-2.83-.35-1.06-.2-2.11-.49-3.16-.74-.21-1.51-.43-3.02-.64-4.54-.01-.08-.05-.15-.07-.23,.12-.79-.72-1.55-1.52-1.49-.49,.04-.98,0-1.47,0-.03-5.03-.09-10.06-.09-15.1,0-2.31,.1-4.63,.19-6.94,.07-1.98,.19-3.96,.29-5.94,.02-.41,.05-.82,.1-1.23,.06-.55,.41-.86,1.01-.89,1.43-.07,2.87-.17,4.31-.2,3.8-.08,7.61-.18,11.41-.17,2.23,0,4.45,.18,6.68,.28,.43,.02,.86,.06,1.28,.09,.68,.05,1.02,.38,1.05,1.07,.05,.99,.08,1.98,.11,2.97,.07,2.1,.14,4.2,.21,6.29,.03,.92,.08,1.85,.09,2.77,.04,4.14,.08,8.28,.09,12.41,0,1.54-.06,3.07-.1,4.61ZM27.43,4.45c-1.41,1.28-2.63,2.72-3.53,4.41-.62,.09-1.24,.17-1.85,.28-.76,.13-1.31,.66-1.36,1.43-.12,1.78-.18,3.56-.27,5.34,.09,1.15,.15,2.31,.27,3.45,.07,.67,.67,1.21,1.38,1.31,1.34,.18,2.68,.38,4.03,.48,3.16,.23,6.31,.04,9.43-.48,.64-.11,1.22-.43,1.33-1.1,.23-1.41,.36-2.83,.53-4.25,.06-1.71-.11-3.4-.52-5.06-.17-.68-.69-1.02-1.37-1.12-.75-.1-1.5-.2-2.26-.29-.93-1.61-2.11-3.03-3.44-4.31,.05-.53,0-1.03-.5-1.35-.39-.25-.81-.29-1.22-.07-.53,.29-.69,.77-.64,1.34Zm-6.77,18.61c-.16-.19-.31-.39-.49-.56-.6-.54-1.29-.64-2.03-.33-.68,.28-1.08,.81-1.16,1.55-.08,.81,.2,1.47,.92,1.89,1.02,.6,1.96,.32,2.77-.78,.63,0,1.26,.02,1.88-.04,.49-.05,.8-.46,.78-.88-.03-.48-.4-.83-.93-.84-.58-.01-1.16,0-1.74,0Z"/><path class="cls-21" d="M18.9,39.05c1.05,.25,2.1,.55,3.16,.74,.93,.17,1.88,.26,2.83,.35,.67,.06,1.35,.14,2.02,.09,1.45-.11,2.9-.3,4.35-.45,.11-.01,.23-.02,.34-.03,0,1.84,.43,3.55,1.56,5.03,.19,.25,.39,.48,.59,.73-4.66,.21-9.32,.19-13.97-.18-.29-2.09-.59-4.18-.88-6.27Z"/><path class="cls-3" d="M11.27,40.55c.11-1.02,.12-1.03,1.14-1q.76,.02,.9,1.01c-.11,.29-.17,.8-.33,.83-.48,.1-1.01,.06-1.5-.04-.12-.03-.14-.52-.21-.8Z"/><path class="cls-1" d="M8.04,32.79c.07-.37,.14-.74,.22-1.12,1.57,0,3.11,0,4.65,0,0,.37,.01,.74,.02,1.12-1.63,0-3.26,0-4.89,0Z"/><path class="cls-10" d="M12.92,32.79c0-.37-.01-.74-.02-1.12,.1,.08,.25,.15,.28,.26,.08,.28,.11,.57,.16,.86-.14,0-.28,0-.42,0Z"/><path class="cls-16" d="M35.27,35.66c1.06-.99,2.3-1.54,3.76-1.56-.11,.4-.02,.72,.32,1,.36-.27,.43-.61,.36-1.01,1.44,.05,2.69,.56,3.74,1.57-.38,.19-.55,.48-.5,.9,.47,.1,.74-.16,.97-.47,.96,1.07,1.46,2.33,1.56,3.75-.41-.07-.79-.07-1.03,.35,.28,.35,.64,.41,1.04,.32-.1,1.2-.46,2.31-1.19,3.29-.13,.17-.29,.31-.43,.46-.17-.41-.48-.53-.91-.5-.06,.47,.15,.75,.49,.97-1.05,.98-2.31,1.45-3.72,1.57,.06-.41,.03-.78-.36-1.03-.38,.28-.4,.65-.33,1.04-1.4-.11-2.64-.62-3.71-1.52,.21-.32,.62-.55,.41-1.06-.4,.02-.71,.14-.87,.53-1.03-1.03-1.49-2.31-1.6-3.74,.39,.06,.76,.03,1.03-.35-.26-.36-.6-.43-1.01-.32,.05-1.46,.57-2.72,1.58-3.78,.16,.41,.47,.55,.92,.5,.04-.44-.11-.75-.5-.92Zm3.67,3.38c-.7,.44-.93,.98-.68,1.59,.26,.61,.83,.84,1.61,.63,.59,.47,1.17,.94,1.76,1.41l.12-.14c-.46-.58-.92-1.16-1.38-1.73,.36-.85,.15-1.37-.72-1.8-.08-1.07-.15-2.14-.23-3.21-.08,0-.16,0-.24,0-.08,1.08-.16,2.17-.25,3.25Z"/><path class="cls-4" d="M39.02,46.3c-.07-.39-.05-.76,.33-1.04,.4,.25,.42,.63,.36,1.03-.23,0-.46,0-.69,0Z"/><path class="cls-4" d="M33.27,39.86c.4-.11,.75-.04,1.01,.32-.27,.38-.63,.41-1.03,.35,0-.22,.01-.45,.02-.67Z"/><path class="cls-4" d="M45.48,40.51c-.4,.09-.76,.03-1.04-.32,.25-.42,.63-.42,1.03-.35,0,.22,0,.44,0,.66Z"/><path class="cls-4" d="M34.85,44.26c.15-.39,.47-.51,.87-.53,.21,.5-.2,.74-.41,1.06-.15-.17-.3-.35-.46-.52Z"/><path class="cls-4" d="M43.44,44.73c-.34-.22-.55-.5-.49-.97,.43-.03,.75,.1,.91,.5-.14,.16-.28,.31-.42,.47Z"/><path class="cls-4" d="M39.71,34.1c.07,.39,0,.73-.36,1.01-.34-.27-.43-.6-.32-1,.23,0,.45,0,.68,0Z"/><path class="cls-4" d="M35.27,35.66c.39,.18,.54,.48,.5,.92-.45,.05-.76-.09-.92-.5,.14-.14,.28-.28,.42-.42Z"/><path class="cls-19" d="M43.92,36.1c-.23,.32-.49,.57-.97,.47-.05-.43,.12-.72,.5-.9,.16,.14,.31,.29,.47,.43Z"/><path class="cls-11" d="M9.48,13.14c-.28,.1-.56,.19-.84,.29-.08,.02-.16,.04-.23,.07-.02,0-.04,0-.06,.02-.66,.03-1.32,.11-1.98,.08-1.02-.05-2.03-.18-3.05-.28-.11-.01-.21-.07-.45-.16,2.3-.51,4.45-.52,6.61,0Z"/><path class="cls-11" d="M9.43,8.9c-1.24,.58-5.29,.58-6.41,0,1.32-.53,5.07-.53,6.41,0Z"/><path class="cls-11" d="M2.92,11.01c2.26-.5,4.39-.52,6.52,.03-1.76,.54-5.16,.53-6.52-.03Z"/><path class="cls-28" d="M8.41,13.5c.08-.02,.16-.04,.23-.07-.08,.02-.16,.04-.23,.07Z"/><path class="cls-29" d="M33.24,8.85c.75,.1,1.5,.19,2.26,.29,.68,.09,1.2,.44,1.37,1.12,.41,1.66,.59,3.35,.52,5.06-.57,.36-1.14,.72-1.7,1.08,.06-.63-.05-1.19-.65-1.54,.06-.1,.08-.16,.12-.22,.61-1.01,.19-2.04-.97-2.23-.71-.12-1.45-.07-2.17-.05-.34,0-.44,.28-.44,.6,0,1.34-.01,2.68,.02,4.01,0,.2,.21,.4,.32,.6-.41,.09-.81,.24-1.23,.27-1.02,.07-2.05,.18-3.06,.12-1.14-.07-2.28-.31-3.42-.47,.47-.36,.76-.83,.77-1.43,.02-1.06,.03-2.12,.02-3.18,0-.3-.16-.56-.52-.55-.37,.01-.52,.25-.52,.6,0,.93,0,1.85,0,2.78,0,.88-.24,1.04-1.1,.87-.22-.04-.47,.08-.71,.13-.58-.27-1.16-.53-1.74-.8,.09-1.78,.15-3.56,.27-5.34,.05-.77,.6-1.3,1.36-1.43,.62-.1,1.24-.18,1.85-.28,.14,0,.29-.01,.43-.02,1.25-.06,2.51-.16,3.76-.15,1.57,0,3.14,.09,4.7,.15,.15,0,.3,.01,.45,.02Zm-4.97,8.76c1.55,0,2.63-1.1,2.62-2.68,0-1.49-1.16-2.67-2.62-2.67-1.51,0-2.63,1.14-2.64,2.7,0,1.59,1.06,2.66,2.63,2.66Z"/><path class="cls-6" d="M20.41,15.9c.58,.27,1.16,.53,1.74,.8-.09,.49,.17,.78,.61,.83,.48,.05,.97-.03,1.45-.05,1.14,.17,2.27,.4,3.42,.47,1.01,.06,2.04-.04,3.06-.12,.41-.03,.82-.18,1.23-.27,.61,0,1.22,.04,1.83,0,.85-.04,1.66-.19,1.94-1.18,.57-.36,1.14-.72,1.7-1.08-.17,1.42-.3,2.84-.53,4.25-.11,.67-.69,.99-1.33,1.1-3.13,.52-6.27,.71-9.43,.48-1.35-.1-2.69-.3-4.03-.48-.71-.09-1.3-.64-1.38-1.31-.12-1.15-.18-2.3-.27-3.45Z"/><path class="cls-24" d="M20.67,24.82c-.8,1.11-1.74,1.38-2.77,.78-.72-.42-1-1.08-.92-1.89,.08-.74,.48-1.26,1.16-1.55,.73-.31,1.43-.2,2.03,.33,.18,.16,.33,.37,.49,.56,.24,.59,.27,1.17,0,1.76Z"/><path class="cls-24" d="M27.43,4.45c-.05-.57,.12-1.05,.64-1.34,.41-.23,.83-.19,1.22,.07,.5,.32,.56,.82,.5,1.35-.17,.24-.34,.47-.52,.71-.47,.16-.93,.2-1.37-.08-.16-.24-.32-.47-.48-.71Z"/><path class="cls-23" d="M20.67,24.82c.27-.59,.24-1.18,0-1.76,.58,0,1.16-.01,1.74,0,.53,.01,.9,.37,.93,.84,.02,.42-.29,.83-.78,.88-.62,.06-1.25,.03-1.88,.04Z"/><path class="cls-26" d="M27.43,4.45c.16,.24,.32,.47,.48,.71-1.37,1.06-2.6,2.25-3.58,3.68-.14,0-.29,.01-.43,.02,.91-1.68,2.12-3.13,3.53-4.4Z"/><path class="cls-26" d="M29.28,5.24c.17-.24,.34-.47,.52-.71,1.33,1.29,2.51,2.7,3.44,4.31-.15,0-.3-.01-.45-.02-1.01-1.36-2.19-2.54-3.51-3.59Z"/><path class="cls-19" d="M39.87,41.27c-.78,.21-1.35-.02-1.61-.63-.25-.61-.02-1.15,.68-1.59,.24-.01,.48-.03,.72-.04,.87,.43,1.08,.96,.72,1.8-.17,.15-.34,.31-.5,.47Z"/><path class="cls-17" d="M39.66,39c-.24,.01-.48,.03-.72,.04,.08-1.08,.16-2.17,.25-3.25,.08,0,.16,0,.24,0,.08,1.07,.15,2.14,.23,3.21Z"/><path class="cls-17" d="M39.87,41.27c.17-.16,.34-.31,.5-.47,.46,.58,.92,1.16,1.38,1.74l-.12,.14c-.59-.47-1.17-.94-1.76-1.41Z"/><path class="cls-5" d="M29.28,5.24c1.32,1.05,2.5,2.23,3.51,3.59-1.57-.05-3.14-.14-4.7-.15-1.25,0-2.51,.1-3.76,.15,.98-1.43,2.21-2.62,3.58-3.68,.44,.28,.91,.24,1.37,.08Z"/><path class="cls-2" d="M35.69,16.39c-.29,.98-1.1,1.14-1.94,1.18-.61,.03-1.22,0-1.83,0-.11-.2-.32-.4-.32-.6-.03-1.34,0-2.68-.02-4.01,0-.33,.1-.59,.44-.6,.72-.02,1.46-.06,2.17,.05,1.16,.19,1.58,1.22,.97,2.23-.03,.05-.06,.11-.12,.22,.59,.35,.7,.92,.65,1.54Zm-3.07-.97v1.2c.55-.03,1.06-.06,1.56-.1,.32-.03,.51-.2,.51-.55,0-.36-.25-.52-.53-.55-.5-.04-1.01-.01-1.54-.01Zm0-2.09v1.08c.45,0,.89,.06,1.29-.02,.21-.04,.37-.33,.56-.51-.18-.18-.34-.47-.55-.52-.41-.08-.84-.02-1.3-.02Z"/><path class="cls-2" d="M28.27,17.6c-1.57,0-2.64-1.07-2.63-2.66,0-1.56,1.12-2.7,2.64-2.7,1.46,0,2.62,1.18,2.62,2.67,0,1.58-1.07,2.68-2.62,2.68Zm-1.63-2.7c-.01,1.03,.67,1.78,1.6,1.77,.95-.01,1.62-.69,1.65-1.69,.03-.98-.68-1.76-1.62-1.76-.95,0-1.63,.69-1.64,1.68Z"/><path class="cls-14" d="M24.21,17.47c-.48,.02-.97,.09-1.45,.05-.44-.04-.7-.33-.61-.83,.24-.05,.49-.17,.71-.13,.85,.17,1.09,0,1.1-.87,0-.93,0-1.85,0-2.78,0-.34,.16-.58,.52-.6,.36-.01,.52,.25,.52,.55,.01,1.06,0,2.12-.02,3.18-.01,.6-.3,1.07-.77,1.43Z"/><path class="cls-22" d="M32.62,15.42c.53,0,1.04-.03,1.54,.01,.29,.02,.53,.18,.53,.55,0,.35-.19,.52-.51,.55-.51,.04-1.01,.07-1.56,.1v-1.2Z"/><path class="cls-22" d="M32.61,13.32c.46,0,.89-.06,1.3,.02,.21,.04,.37,.34,.55,.52-.18,.18-.35,.47-.56,.51-.41,.08-.84,.02-1.29,.02v-1.08Z"/><path class="cls-22" d="M26.63,14.9c.01-.99,.69-1.69,1.64-1.68,.94,0,1.65,.78,1.62,1.76-.03,.99-.7,1.67-1.65,1.69-.94,.01-1.61-.74-1.6-1.77Z"/></svg>