<?xml version="1.0" encoding="UTF-8"?><svg id="Layer_1" xmlns="http://www.w3.org/2000/svg" xmlns:xlink="http://www.w3.org/1999/xlink" viewBox="0 0 351.72 351.72"><defs><style>.cls-1{fill:#fdfdfe;}.cls-2{fill:url(#linear-gradient);}</style><linearGradient id="linear-gradient" x1="-24.2" y1="60.36" x2="375.91" y2="291.36" gradientUnits="userSpaceOnUse"><stop offset="0" stop-color="#7bbfd7"/><stop offset=".5" stop-color="#2f75d6"/></linearGradient></defs><rect class="cls-2" width="351.72" height="351.72" rx="25.21" ry="25.21"/><path class="cls-1" d="M100.24,15.71c4.82,.07,9.64,.34,14.45,.13,2.62-.12,3.68,.98,4.56,3.17,1.73,4.32,3.68,8.56,5.54,12.84,3.79,9.24,7.58,18.48,11.37,27.72,5.19,12.77,10.38,25.53,15.57,38.3,5.85,14.24,11.7,28.49,17.55,42.73,6.91,16.76,13.82,33.52,20.73,50.27,4.23,10.32,8.47,20.63,12.7,30.95,3.55,8.69,7.09,17.37,10.64,26.06,5.46,13.28,10.92,26.55,16.38,39.83,4.11,10.24,8.18,20.48,12.33,30.7,1.54,3.79,3.24,7.5,4.87,11.25,.59,1.85,1.19,3.69,2.04,6.35-3.72,0-6.97,0-10.23,0-3.6-.07-7.21-.41-10.78-.13-3.49,.27-5.19-.92-6.5-4.25-4.82-12.24-10-24.34-15.04-36.49-5.87-14.29-11.73-28.57-17.6-42.86-5.51-13.55-11.01-27.1-16.55-40.64-1.21-2.96-2.53-5.88-3.79-8.82-3.36-9.6-13.63-13.62-22.79-8.59-14.18,7.78-28.22,15.79-42.31,23.74-11.05,6.24-22.06,12.52-33.09,18.79-17.28,9.66-34.55,19.32-51.83,28.97-1.04,.58-2.13,1.09-3.71,1.9,0-9.17-.05-17.75,.08-26.33,.01-.82,.98-1.94,1.79-2.4,16.93-9.57,33.9-19.05,50.85-28.57,2.97-1.67,5.89-3.44,8.83-5.16,6.82-3.78,13.65-7.56,20.47-11.35,14.33-7.97,28.71-15.86,42.98-23.94,7.27-4.12,10.15-11.81,7.43-19.53-1.45-4.1-3.38-8.02-5.1-12.02-2.88-7.03-5.77-14.06-8.65-21.09-4.82-11.73-9.65-23.45-14.47-35.18-4.41-10.78-8.82-21.56-13.23-32.34-3.22-7.82-6.44-15.63-9.66-23.45-.79-1.93-1.56-3.86-2.34-5.8-.35-1.27-.7-2.55-1.18-4.27,2.73-.18,5.21-.34,7.68-.49Z"/></svg>