<?xml version="1.0" encoding="UTF-8"?><svg id="Layer_1" xmlns="http://www.w3.org/2000/svg" viewBox="0 0 383.38 384"><defs><style>.cls-1{fill:#ec3f21;}.cls-2{fill:#fcbe00;}.cls-3{fill:#ec3e1f;}.cls-4{fill:#f1f1fb;}.cls-5{fill:#fad72f;}.cls-6{fill:#485789;}.cls-7{fill:#f9d62e;}.cls-8{fill:#707ba2;}.cls-9{fill:#f8d52f;}.cls-10{fill:#2d3c70;}.cls-11{fill:#fdf061;}.cls-12{fill:#f7eb62;}.cls-13{fill:#627399;}.cls-14{fill:#8391af;}.cls-15{fill:#a2a3cd;}.cls-16{fill:#f6ea62;}.cls-17{fill:#fcd82e;}.cls-18{fill:#868d95;}.cls-19{fill:#3f4c7e;}.cls-20{fill:#fef161;}.cls-21{fill:#fbef61;}.cls-22{fill:#fb6932;}.cls-23{fill:#f7d530;}.cls-24{fill:#d7d8fa;}.cls-25{fill:#fb672f;}</style></defs><path class="cls-6" d="M181.89,384h-.75c-1.31-.24-2.63-.67-3.94-.68-24.07-.04-48.13-.04-72.2,0-1.32,0-2.63,.44-3.95,.68h-11.23c.04-.25,.03-.49-.01-.74-.02-22.8-.05-45.61-.07-68.41,.02-7.44,.03-14.87,.05-22.31-.02-7.56-.03-15.13-.05-22.69,.02-7.44,.03-14.87,.05-22.31-.02-7.56-.03-15.13-.05-22.69l.05-22.31c-.02-7.57-.04-15.13-.05-22.7-.02-7.46-.03-14.93-.05-22.39,.08-7.23,.16-14.45,.24-21.68,16.21,0,32.42-.02,48.63,0,18.2,.02,36.4,.08,54.6,.13,0,7.09,0,14.17,0,21.26-3.79,0-7.58,0-11.35,0v22.92h11.31c.01,7.36,.03,14.72,.04,22.09-3.79,0-7.58,0-11.35,0v22.91h11.31c0,6.96,0,13.93-.01,20.89-3.77,.18-7.54,.35-11.35,.53v22.15h11.32c.04,.18,.08,.36,.13,.53-.03,7.26-.07,14.53-.1,21.79-3.77,.18-7.54,.35-11.35,.53v22.15h11.32c.04,.18,.08,.36,.13,.53,.01,7.83,.02,15.65,.04,23.48-.01,.19-.06,.36-.14,.53h-11.54c0,7.26-.04,14.21,.01,21.16,.07,8.21,.22,16.42,.33,24.63Zm-45.19-70.49h22.14v-21.92h-22.14v21.92Zm.16-67.02v22.11h21.95v-22.11h-21.95Zm21.96-66.69v-22.21h-21.98v22.21h21.98Zm-.02,45.01v-22.19h-21.94v22.19h21.94Z"/><path class="cls-10" d="M193.1,245.98c0-6.96,0-13.93,.01-20.89,0,0,.02-.25,.02-.25h10.89v-22.34h-10.86l-.02-.32c-.01-7.36-.03-14.72-.04-22.09l.02-.26h10.9v-22.35h-10.86l-.02-.32c0-7.09,0-14.17,0-21.26l4.45-.25c.74,.05,1.49,.15,2.23,.15,31.17,0,62.33,0,93.5-.02,.08,7.21,.16,14.41,.24,21.62-.01,7.48-.03,14.96-.04,22.45-.02,7.56-.04,15.13-.06,22.69,.02,7.43,.03,14.87,.05,22.3-.02,7.57-.03,15.13-.05,22.7l.05,22.3c-.02,7.57-.03,15.13-.05,22.7,.02,7.43,.03,14.87,.05,22.3-.02,22.81-.04,45.62-.06,68.44-.05,.24-.06,.48-.03,.72h-8.98c-1.69-.25-3.37-.71-5.06-.72-24.99-.06-49.99-.05-74.98-.06v-45.55h-11.17c-.01-7.83-.02-15.65-.04-23.48,2.84-.04,5.7,.07,8.53-.2,.89-.08,2.39-1.15,2.4-1.8,.18-6.9,.11-13.81,.11-20.9h-11.11l-.03-.31c.03-7.26,.07-14.53,.1-21.79,2.84-.04,5.7,.07,8.53-.2,.89-.08,2.38-1.16,2.4-1.81,.18-6.9,.11-13.81,.11-20.89h-11.11l-.03-.31Zm33.57,22.52h22v-22.04h-22v22.04Zm21.98,45.11v-22.13h-21.96v22.13h21.96Zm-22-88.85h22.03v-22.2h-22.03v22.2Zm.06-67.24v22.18h21.92v-22.18h-21.92Z"/><path class="cls-13" d="M89.74,314.85c.02,22.8,.05,45.61,.07,68.41-20.65-.01-41.3-.03-61.94,0-1.31,0-2.61,.48-3.91,.74h-1.5c.03-1.25,.09-2.49,.09-3.74,0-66.75,.01-133.49,.02-200.24,1.74-.04,3.48-.11,5.22-.11,20.65-.03,41.3-.05,61.95-.07,.02,7.57,.04,15.13,.05,22.7-7.15,0-14.29,0-21.44,0v22.31h21.39c.02,7.56,.03,15.13,.05,22.69-7.15,0-14.29,0-21.44,0v22.31h21.39c.02,7.56,.03,15.13,.05,22.69-7.15,0-14.29,0-21.44,0v22.31h21.39Z"/><path class="cls-24" d="M22.56,180.03c-7.52,0-15.04-.02-22.56-.03v-22.5c29.9-.01,59.79-.03,89.69-.04,.02,7.46,.03,14.93,.05,22.39-20.65,.02-41.3,.04-61.95,.07-1.74,0-3.48,.07-5.22,.11Z"/><path class="cls-5" d="M193.23,337.68h11.17c0,15.64,0,30.59,0,45.55-.02,.26-.03,.52-.05,.78h-11.23c0-15.26-.02-30.53-.03-45.79,.08-.17,.13-.35,.14-.53Z"/><path class="cls-20" d="M193.09,338.21c0,15.26,.02,30.53,.03,45.79h-11.23c-.12-8.21-.27-16.42-.33-24.63-.06-6.95-.01-13.9-.01-21.16h11.54Z"/><path class="cls-2" d="M207.35,0c-.01,7.24-.02,14.48-.04,21.72-3.23,.09-6.46,.17-9.69,.26-.5-.09-.99-.17-1.49-.26,0-7.24,0-14.48,0-21.71h11.23Z"/><path class="cls-17" d="M196.12,0c0,7.24,0,14.48,0,21.71l-11.22,.03c0-7.25-.01-14.49-.02-21.74h11.23Z"/><path class="cls-18" d="M101.05,384c1.32-.24,2.63-.67,3.95-.68,24.07-.04,48.13-.04,72.2,0,1.32,0,2.63,.44,3.94,.68H101.05Z"/><path class="cls-19" d="M204.35,384c.02-.26,.03-.52,.05-.78,24.99,0,49.99,0,74.98,.06,1.69,0,3.37,.47,5.06,.72h-80.09Z"/><path class="cls-8" d="M360.54,383.19l.25,.81h-67.37c-.03-.24-.02-.48,.03-.72,22.36-.03,44.72-.06,67.09-.09Z"/><path class="cls-14" d="M23.95,384c1.3-.26,2.61-.73,3.91-.74,20.65-.04,41.3-.01,61.94,0,.05,.24,.05,.49,.01,.74H23.95Z"/><path class="cls-4" d="M184.91,21.74l11.22-.03c.5,.09,.99,.17,1.49,.26,0,37.89,0,75.79-.01,113.68l-4.45,.25c-18.2-.04-36.4-.1-54.6-.13-16.21-.02-32.42,0-48.63,0-15.45-.01-30.91-.12-46.36,.04-3.54,.04-4.72-.98-4.71-4.63,.12-34.96,.12-69.93,0-104.89-.01-3.68,1.21-4.62,4.73-4.61,47.11,.09,94.22,.06,141.32,.06ZM103.51,96.12c11.17,.13,19.22-7.11,19.29-17.34,.06-10.27-7.95-17.82-18.92-17.83-10.79-.01-18.8,7.37-18.96,17.46-.15,10.07,7.74,17.6,18.59,17.72Zm39.73-25.69h15.65v-8.48h-26.93v33.19h11.19v-10.48h13.76v-8.75h-13.66v-5.48Zm51.34-8.46h-26.78v33.12h11.24v-10.59h13.61v-8.55h-13.58v-5.58h15.5v-8.39Z"/><path class="cls-16" d="M136.7,313.51v-21.92h22.14v21.92h-22.14Z"/><path class="cls-16" d="M136.86,246.48h21.95v22.11h-21.95v-22.11Z"/><path class="cls-12" d="M158.83,179.79h-21.98v-22.21h21.98v22.21Z"/><path class="cls-12" d="M158.81,224.8h-21.94v-22.19h21.94v22.19Z"/><path class="cls-11" d="M89.74,314.85h-21.39v-22.31c7.15,0,14.29,0,21.44,0-.02,7.44-.03,14.87-.05,22.31Z"/><path class="cls-11" d="M89.74,224.85h-21.39v-22.31c7.15,0,14.3,0,21.44,0-.02,7.44-.03,14.87-.05,22.31Z"/><path class="cls-11" d="M89.74,269.85h-21.39v-22.31c7.15,0,14.29,0,21.44,0-.02,7.44-.03,14.87-.05,22.31Z"/><path class="cls-21" d="M193.07,313.66h-11.32v-22.15c3.81-.18,7.58-.36,11.35-.53,0,0,.03,.31,.03,.31-.02,7.46-.04,14.91-.06,22.37Z"/><path class="cls-21" d="M193.07,268.66h-11.32v-22.15c3.81-.18,7.58-.35,11.35-.53,0,0,.03,.31,.02,.31-.02,7.46-.04,14.91-.05,22.37Z"/><path class="cls-23" d="M193.07,268.66c.02-7.46,.04-14.91,.05-22.37,3.55,0,7.09,0,11.11,0,0,7.08,.07,13.99-.11,20.89-.02,.65-1.51,1.72-2.4,1.81-2.82,.27-5.68,.16-8.53,.2-.05-.18-.09-.35-.13-.53Z"/><path class="cls-23" d="M193.07,313.66c.02-7.46,.04-14.91,.06-22.37,3.55,0,7.09,0,11.11,0,0,7.09,.07,14-.11,20.9-.02,.65-1.52,1.72-2.4,1.8-2.82,.27-5.68,.16-8.53,.2-.05-.18-.09-.35-.13-.53Z"/><path class="cls-11" d="M193.11,225.09h-11.31v-22.91c3.77,0,7.56,0,11.35,0,0,0,.02,.32,.02,.32-.01,7.45-.02,14.9-.03,22.34l-.02,.25Z"/><path class="cls-11" d="M193.11,180.09h-11.31v-22.92c3.77,0,7.56,0,11.35,0,0,0,.02,.32,.02,.32-.01,7.45-.02,14.9-.03,22.35l-.02,.26Z"/><path class="cls-24" d="M197.6,135.65c0-37.89,0-75.79,.01-113.68,3.23-.09,6.46-.17,9.7-.26,43.87,.02,87.74,.03,131.62,.05q5.37,0,5.38,5.28c0,34.59,0,69.18,0,103.78,0,4.91-.01,4.92-4.98,4.93-15.33,.02-30.66,.02-45.99,.04-31.17,0-62.33,.02-93.5,.02-.74,0-1.49-.1-2.23-.15Zm79.25-65.32h15.64v-8.44h-27.21v33.33h27.94v-8.41h-16.29v-4.4h13.63v-8.32h-13.71v-3.77Zm-26.51,12.78c-5.56,4.48-9.5,4.94-12.88,1.71-2.94-2.8-3.28-8.32-.74-11.7,2.84-3.76,6.94-3.56,13.85,.75,2.18-1.97,4.39-3.96,6.57-5.92-4.34-6.34-13.26-8.78-21.59-6.07-7.56,2.46-12.43,9.19-12.26,16.94,.18,8.07,5.1,14.41,13.08,16.65,6.59,1.86,17.06,.54,20.73-6.31-2.17-1.95-4.39-3.94-6.76-6.06Zm-47.09-21.4v33.55h11.26V61.72h-11.26Z"/><path class="cls-6" d="M360.54,383.19c-22.36,.03-44.73,.06-67.09,.09,.02-22.81,.04-45.62,.06-68.44,7.06,0,14.13,0,21.39,0v-22.3h-21.43c.02-7.57,.03-15.13,.05-22.7,7.06,0,14.13,0,21.39,0v-22.3h-21.43c.02-7.57,.03-15.13,.05-22.7,7.06,0,14.13,0,21.39,0v-22.3h-21.43c.02-7.56,.04-15.13,.06-22.69,22.39,.05,44.78,.1,67.17,.15,0,66.11,0,132.22,0,198.33,0,1.62-.1,3.24-.15,4.86Z"/><path class="cls-15" d="M360.7,180c-22.39-.05-44.78-.1-67.17-.15,.01-7.48,.03-14.96,.04-22.45,28.3,0,56.6,.08,84.9-.05,3.61-.02,5.21,.67,4.86,4.68-.38,4.34-.31,8.75-.02,13.1,.25,3.66-.69,5.11-4.67,4.88-5.96-.35-11.96-.04-17.95-.02Z"/><path class="cls-9" d="M226.67,268.49v-22.04h22v22.04h-22Z"/><path class="cls-9" d="M248.65,313.61h-21.96v-22.13h21.96v22.13Z"/><path class="cls-7" d="M226.66,224.75v-22.2h22.03v22.2h-22.03Z"/><path class="cls-7" d="M226.71,157.51h21.92v22.18h-21.92v-22.18Z"/><path class="cls-17" d="M293.48,247.54h21.43v22.3c-7.26,0-14.32,0-21.39,0-.02-7.43-.03-14.87-.05-22.3Z"/><path class="cls-17" d="M293.48,202.54h21.43v22.3c-7.26,0-14.32,0-21.39,0-.02-7.43-.03-14.87-.05-22.3Z"/><path class="cls-17" d="M293.48,292.54h21.43v22.3c-7.26,0-14.32,0-21.39,0-.01-7.43-.03-14.87-.05-22.3Z"/><path class="cls-5" d="M193.13,179.83c.01-7.45,.02-14.9,.03-22.35,3.56,0,7.11,0,10.86,0v22.35h-10.9Z"/><path class="cls-5" d="M193.14,224.83c.01-7.45,.02-14.9,.03-22.34,3.56,0,7.11,0,10.86,0v22.34h-10.89Z"/><path class="cls-25" d="M103.51,96.12c-10.85-.12-18.75-7.65-18.59-17.72,.16-10.09,8.17-17.47,18.96-17.46,10.97,.01,18.98,7.56,18.92,17.83-.06,10.23-8.11,17.47-19.29,17.34Zm-7.06-17.55c0,5.01,3.06,8.46,7.5,8.42,4.34-.04,7.57-3.72,7.49-8.54-.08-4.76-3.12-8.1-7.42-8.15-4.56-.06-7.56,3.22-7.57,8.28Z"/><path class="cls-22" d="M143.24,70.43v5.48h13.66v8.75h-13.76v10.48h-11.19V61.95h26.93v8.48h-15.65Z"/><path class="cls-22" d="M194.57,61.97v8.39h-15.5v5.58h13.58v8.55h-13.61v10.59h-11.24V61.97h26.78Z"/><path class="cls-3" d="M276.85,70.34v3.77h13.71v8.32h-13.63v4.4h16.29v8.41h-27.94V61.89h27.21v8.44h-15.64Z"/><path class="cls-3" d="M250.34,83.11c2.37,2.13,4.58,4.11,6.76,6.06-3.67,6.84-14.13,8.16-20.73,6.31-7.98-2.25-12.91-8.58-13.08-16.65-.17-7.75,4.7-14.48,12.26-16.94,8.33-2.71,17.25-.27,21.59,6.07-2.18,1.97-4.38,3.95-6.57,5.92-6.91-4.3-11.01-4.51-13.85-.75-2.55,3.37-2.2,8.89,.74,11.7,3.38,3.23,7.32,2.76,12.88-1.71Z"/><path class="cls-1" d="M203.25,61.72h11.26v33.55h-11.26V61.72Z"/></svg>