<?xml version="1.0" encoding="UTF-8"?><svg xmlns="http://www.w3.org/2000/svg" xmlns:xlink="http://www.w3.org/1999/xlink" viewBox="0 0 500 500"><defs><style>.cls-1,.cls-2{opacity:.33;}.cls-1,.cls-3,.cls-4,.cls-5,.cls-6{mix-blend-mode:multiply;}.cls-1,.cls-7,.cls-4{fill:#512626;}.cls-8{fill:#131a2b;}.cls-9{fill:#f1766b;}.cls-10{fill:#fff;}.cls-11{fill:#7396c0;}.cls-12{fill:#ffa08c;}.cls-2,.cls-13{fill:#fefefe;mix-blend-mode:overlay;}.cls-14{opacity:.61;}.cls-14,.cls-15,.cls-16{fill:#072847;}.cls-3{fill:#f87e76;}.cls-3,.cls-16{opacity:.51;}.cls-17,.cls-18{fill:#2d0101;}.cls-19{isolation:isolate;}.cls-20{fill:#e37427;}.cls-21{fill:#b4d1ed;}.cls-22{stroke:#7a0000;}.cls-22,.cls-23,.cls-24,.cls-25,.cls-26{fill:none;}.cls-22,.cls-23,.cls-25,.cls-26{stroke-miterlimit:10;}.cls-27{fill:#374c7f;}.cls-28{fill:#ff4747;}.cls-15{opacity:.57;}.cls-29{fill:#f5ad49;}.cls-30{fill:#163c7a;}.cls-31{fill:#1c2c48;}.cls-23{stroke:#842115;stroke-linecap:round;stroke-width:.85px;}.cls-5{opacity:.54;}.cls-32{fill:#2a3b5e;}.cls-18{opacity:.42;}.cls-33{fill:#091a33;}.cls-34{fill:#d8eeff;}.cls-13{opacity:.46;}.cls-35{fill:#7a0000;}.cls-36{clip-path:url(#clippath);}.cls-37{fill:#a4bdda;}.cls-38{fill:#ba645b;}.cls-6{fill:#394c77;opacity:.45;}.cls-25{stroke:#512626;stroke-width:.58px;}.cls-39{fill:#bc3535;}.cls-26{stroke:#721c1f;stroke-width:.71px;}</style><clipPath id="clippath"><rect class="cls-24" x="122.59" y="52.51" width="260" height="154.25"/></clipPath></defs><g class="cls-19"><g id="OBJECTS"><g><rect class="cls-34" width="500" height="391.82"/><rect class="cls-21" y="391.82" width="500" height="108.18"/><g><rect class="cls-10" x="99.65" y="278.46" width="306.9" height="134.01"/><rect class="cls-37" x="99.65" y="278.46" width="306.9" height="9.31"/><rect class="cls-10" x="60.44" y="268.16" width="383.45" height="10.3" rx="5.1" ry="5.1"/><g><path class="cls-11" d="M413.54,247.79s-6.95-9.24-4.8-22.29c5.51,3.02,15.28,15.77,12.69,27.39l-7.89-5.1Z"/><path class="cls-6" d="M412.63,228.6c1.38,13.37,8.95,23.15,8.95,23.15,.03-.03,.05-.07,.08-.1,1.31-8.81-4.08-18.05-9.03-23.05Z"/><g><path class="cls-11" d="M429.78,250.38s8.9-6.79,12.86-20.06c3.96-13.27,.28-19.85,1.98-30.83-9.04,15.3-19.55,40.64-19.53,52.99,1.44,.76,4.69-2.1,4.69-2.1Z"/><path class="cls-6" d="M426.59,251.74c2.6-2.95,5.56-14.62,6.98-29.92-4.29,10.25-7.63,20.65-8.34,27.95,.82,1.27,1.36,1.97,1.36,1.97Z"/></g><path class="cls-37" d="M424.27,251.74s-11.02-14.2-8.9-31.79c2.12-17.59,15.02-31.25,14.41-45.52,5.8,33.96-.53,71.66-5.51,77.31Z"/><path class="cls-6" d="M423.59,249.25s6.14-35.5,4.63-47.97c-1.41,14.36-6.5,46.77-6.5,46.77l1.87,1.2Z"/><path class="cls-6" d="M413.54,247.79l7.89,5.1c.09-.41,.16-.83,.23-1.24h0c.08-.52,.13-1.04,.16-1.57,0-.05,0-.1,0-.15,.03-.53,.04-1.06,.02-1.6h0c0-.07,0-.13,0-.2l.11,.07c1.33,2.26,2.32,3.55,2.32,3.55,.3-.34,.61-.8,.91-1.37-.06,.74-.09,1.45-.09,2.11,1.44,.76,4.69-2.1,4.69-2.1,0,0,4.17-3.19,8.08-9.45-7.63,3.52-20.75,3.2-26.58,2.85,1.18,2.56,2.27,4.01,2.27,4.01Z"/><polygon class="cls-28" points="422.72 245.83 408.49 245.83 413.72 265.32 422.72 265.32 431.73 265.32 436.95 245.83 422.72 245.83"/><rect class="cls-28" x="413.72" y="265.32" width="18.01" height="2.48"/><polygon class="cls-39" points="419.73 267.81 419.73 265.32 416.53 245.83 408.49 245.83 413.72 265.32 413.72 267.81 419.73 267.81"/><line class="cls-26" x1="413.72" y1="265.32" x2="431.73" y2="265.32"/></g><g><rect class="cls-10" x="112.35" y="261.88" width="47.79" height="6.28"/><rect class="cls-37" x="78.45" y="261.88" width="33.89" height="6.28"/><polygon class="cls-37" points="80.54 217.35 46.65 217.35 80.54 261.88 114.44 261.88 80.54 217.35"/><polygon class="cls-10" points="78.45 217.35 44.56 217.35 78.45 261.88 112.35 261.88 78.45 217.35"/><path class="cls-37" d="M79.34,238.58c3.25,1.39,5.22,4.07,4.4,5.99-.82,1.92-4.12,2.35-7.37,.97-3.25-1.39-5.22-4.07-4.4-5.99,.82-1.92,4.12-2.35,7.37-.97Z"/><rect class="cls-37" x="116.75" y="263.4" width="10.95" height="3.01"/><rect class="cls-37" x="130.77" y="263.4" width="10.95" height="3.01"/></g></g><path class="cls-8" d="M306.13,435.12c0,2.73-24.8,4.94-55.39,4.94s-55.39-2.21-55.39-4.94,24.8-4.94,55.39-4.94,55.39,2.21,55.39,4.94Z"/><g><rect class="cls-11" x="105.21" y="213.09" width="295.69" height="8.74" rx="4.32" ry="4.32"/><path class="cls-37" d="M389.05,213.09H116.12V50.86c0-2.22,1.8-4.02,4.02-4.02H385.04c2.22,0,4.02,1.8,4.02,4.02V213.09Z"/><rect class="cls-10" x="122.59" y="52.51" width="260" height="154.25"/><g class="cls-36"><path class="cls-34" d="M151.81,62.93l6.74,.22c.14,0,.28-.04,.38-.14h0c1.25-1.11,3.04-1.37,4.55-.66l1.59,.75c.07,.03,.15,.05,.23,.05h9.71c.18,0,.35-.09,.45-.23l1.76-2.54c.17-.24,.11-.57-.13-.75l-2.99-2.19c-.17-.13-.26-.34-.21-.55l.57-2.68c.05-.25,.28-.43,.53-.43h3.08c.25,0,.47,.17,.53,.42l.87,3.69c.01,.06,.04,.11,.07,.16l1.98,3.17c.21,.33,.68,.34,.91,.02l.56-.8c.27-.38,.87-.27,.98,.19l.69,2.92c.11,.44,.67,.57,.96,.21l2.06-2.58c.12-.16,.15-.37,.08-.55l-.65-1.56c-.18-.43,.23-.87,.67-.73l4.51,1.5c.42,.14,.51,.7,.14,.96l-.46,.33c-.22,.16-.29,.46-.16,.7l1.05,1.92c.12,.22,.07,.49-.11,.66l-2.87,2.66c-.17,.16-.22,.4-.13,.61l.93,2.23c.09,.22,.03,.48-.16,.63l-1.84,1.47c-.19,.15-.44,.16-.64,.03l-1.6-1.07c-.17-.12-.27-.32-.24-.53l.16-1.14c.08-.55-.62-.85-.96-.42l-.67,.83s-.09,.09-.14,.12l-2.66,1.64c-.26,.16-.34,.5-.18,.75l.37,.59c.24,.38-.06,.87-.51,.83l-1.65-.14c-.15-.01-.29,.04-.4,.13l-3.54,3.1c-.14,.13-.21,.32-.18,.5l.54,3.07c.07,.39,.51,.58,.84,.36h0c.35-.23,.82,0,.85,.42l.15,2.37c.02,.33,.34,.57,.66,.5l1.46-.32c.09-.02,.19-.02,.28,.01l9.91,3.07c.19,.06,.34,.22,.38,.43l.64,3.64c.03,.14,.11,.27,.22,.35l3.03,2.14c.38,.27,.91-.03,.87-.5l-.38-3.99,3.35-2.9c.2-.18,.25-.47,.1-.7l-2.48-3.92c-.14-.22-.1-.5,.08-.68l1.35-1.35c.18-.18,.21-.47,.07-.69l-2.31-3.47c-.2-.3-.06-.71,.29-.82l5.26-1.68c.14-.04,.29-.03,.42,.04l6.57,3.4c.22,.12,.34,.37,.28,.62l-.58,2.31c-.04,.15,0,.31,.08,.43l1.1,1.64c.15,.22,.43,.3,.67,.2l2.83-1.21c.13-.06,.24-.17,.29-.31l.69-1.78c.17-.45,.8-.47,1-.03l3.32,7.27c.06,.12,.15,.22,.28,.27l3.76,1.64,5.66,4.11c.3,.22,.3,.65,.01,.88l-3.25,2.53c-.05,.04-.11,.07-.18,.09l-4.83,1.47s-.1,.04-.14,.07l-4.56,2.97c-.22,.14-.31,.42-.21,.66l.76,1.99c.09,.25,.35,.39,.61,.34l3.91-.68c.34-.06,.64,.2,.64,.54v1.31c0,.25-.17,.47-.42,.53l-3.79,.95c-.09,.02-.17,.07-.24,.13l-2.75,2.57c-.29,.27-.77,.15-.9-.23l-.3-.91c-.05-.14-.03-.3,.04-.43l.75-1.39c.24-.44-.19-.94-.66-.78l-4.29,1.43c-.16,.05-.29,.18-.35,.34l-1.13,3.2c-.05,.15-.17,.27-.32,.33l-3.4,1.32c-.17,.07-.3,.21-.34,.39l-1.62,7.08c-.04,.15-.13,.28-.27,.36l-6.17,3.38c-.21,.11-.32,.35-.28,.58l1.41,7.45c.02,.13,0,.27-.07,.38l-.88,1.5c-.23,.39-.8,.36-.98-.05l-2.05-4.6c-.08-.17-.24-.3-.43-.32l-8.08-1.1c-.46-.06-.79,.45-.54,.84h0c.28,.45-.16,1-.66,.81l-3.37-1.26c-.19-.07-.39-.03-.55,.09l-6.2,5.2c-.18,.15-.24,.39-.17,.6l2.81,8.04c.06,.18,.22,.32,.41,.36l4.58,.95c.2,.04,.42-.03,.55-.2l2.05-2.61c.08-.1,.2-.17,.32-.2l3.42-.68c.36-.07,.69,.22,.66,.59l-.53,5.66c-.03,.31,.2,.58,.51,.6l4.48,.34c.33,.03,.56,.33,.5,.65l-.97,5.26,1.74,2.83,6.23,.37c.73,.04,1.45-.25,1.94-.79l1.47-1.61c.46-.51,1.11-.79,1.8-.79h3.37c.48,0,.95,.14,1.35,.41l.84,.56c.59,.4,1.33,.51,2.02,.32l3.59-1.02c.59-.17,1.21-.11,1.76,.16l13.51,6.75c.51,.25,.91,.68,1.14,1.2l1.97,4.5c.29,.67,.88,1.18,1.59,1.37l17.41,4.78c1.06,.29,1.79,1.25,1.79,2.35v4.08c0,.78-.37,1.5-.99,1.96l-4.18,3.06c-.52,.38-.86,.94-.96,1.58l-1.6,9.89c-.15,.91-.79,1.65-1.66,1.93l-7.51,2.4c-.65,.21-1.19,.68-1.47,1.31l-5.33,11.66c-.37,.81-1.14,1.35-2.03,1.41l-1.5,.12c-1.27,.1-2.25,1.16-2.25,2.43h0c0,.83-.42,1.6-1.12,2.05l-8.14,5.21c-.45,.29-.8,.72-.98,1.22l-4.62,12.79c-.18,.5-.19,1.05-.03,1.56l1.12,3.51c.6,1.88-1.17,3.65-3.05,3.06l-1.7-.54c-.86-.27-1.5-.99-1.66-1.88l-2.85-15.3c-.05-.27-.05-.54-.01-.81l3.13-20.72,2.14-13.58c.15-.95-.28-1.91-1.09-2.43l-3.78-2.43c-.31-.2-.57-.46-.76-.78l-6.96-11.36c-.21-.34-.33-.72-.35-1.12l-.28-4.44c-.05-.83,.32-1.62,.99-2.12l3.91-2.87c.63-.46,.99-1.19,.99-1.96v-2.31c0-1.34-1.09-2.43-2.43-2.43h-2.17c-.38,0-.75-.09-1.09-.26l-5.07-2.53-2.79-4.38h-4.78l-3.91-3.13c-.05-.04-.11-.07-.17-.09l-12.87-4.29c-.12-.04-.23-.12-.3-.24l-7.2-11.81c-.34-.56-1.21-.16-.99,.47l.83,2.39c.2,.59-.57,1.01-.96,.52l-7.51-9.72-9.17-12.35,1.99-12.75-11.56-6.77-6.77-9.56-11.58-3.86c-.24-.08-.5-.08-.75,0l-11.8,3.81c-.12,.04-.24,.06-.37,.06h-3.84c-.23,0-.46-.07-.65-.19l-7.35-4.79c-.72-.47-.72-1.52-.01-2l5.11-3.4c.77-.52,.69-1.68-.15-2.08l-1.69-.8c-1.15-.55-.76-2.28,.51-2.28h0c1.26,0,1.66-1.7,.53-2.27l-3.18-1.59c-.96-.48-.85-1.89,.18-2.21l7.18-2.26c2.59-.81,5.34-1,8.01-.55l16.98,2.87c3.16,.53,6.41,.11,9.32-1.23h0c3.3-1.51,7.01-1.86,10.53-.98l11.76,2.94c.21,.05,.37,.22,.4,.43l.23,1.29c.05,.25,.26,.44,.52,.45Zm32.53-12.4l-.27,.77c-.47,1.35,.28,2.82,1.66,3.23l9.6,2.82c.3,.09,.58,.23,.83,.43l3.17,2.47c.57,.44,.92,1.11,.96,1.82l.34,5.67c.05,.84,.52,1.6,1.25,2.02l7.95,4.57c1.31,.75,2.99,.18,3.56-1.22l.96-2.34c.12-.29,.29-.55,.5-.78l1.94-2.04c1.25-1.31,.73-3.48-.98-4.08l-3.07-1.09c-1-.35-1.67-1.3-1.67-2.36h0c0-.89-.47-1.71-1.24-2.16l-7.27-4.24c-.24-.14-.46-.33-.65-.54l-3.17-3.73c-.48-.56-1.17-.88-1.91-.88h-10.14c-1.06,0-2.01,.67-2.36,1.68Zm-5.76-1.68h-1.62c-.78,0-1.41,.63-1.41,1.41v.64c0,.78,.63,1.41,1.41,1.41h1.05c.4,0,.78-.17,1.05-.47l.57-.64c.81-.91,.17-2.34-1.05-2.34Zm-6.48,5.76l1.44-1.68c.33-.38,.43-.91,.26-1.39l-.53-1.49c-.24-.68-.96-1.07-1.66-.89l-3.26,.82c-1.06,.27-1.43,1.59-.65,2.36l2.35,2.35c.58,.58,1.53,.54,2.06-.08Zm-19.18-4.14l-11.73-2.66c-1.11-.25-2.26,.29-2.77,1.31l-.72,1.44c-.51,1.03-.25,2.28,.63,3.01l.48,.4c.61,.51,1.42,.69,2.19,.5l1.8-.45c.6-.15,1.23-.07,1.77,.22l2.56,1.37c.2,.11,.38,.24,.54,.39l3.92,3.73c.63,.6,1.53,.83,2.37,.59l5.09-1.4c.46-.13,.96-.12,1.42,.03l4.39,1.4c.68,.22,1.43,.13,2.04-.24h0c1.49-.9,1.61-3.03,.22-4.09l-2.23-1.71c-.45-.34-.76-.82-.9-1.37l-.46-1.84c-.32-1.27-1.56-2.07-2.85-1.84l-6.78,1.22c-.33,.06-.66,.05-.99-.02Zm-10.03-7.15l9.12,3.91c.23,.1,.48,.12,.72,.07l6.49-1.39c1.25-.27,1.27-2.05,.02-2.34l-5.71-1.34c-.09-.02-.18-.05-.26-.09l-5.37-2.66c-.31-.15-.67-.17-.99-.03l-4.02,1.66c-.98,.41-.99,1.79-.01,2.21Zm9.65-4.13l.29,.34c.35,.42,.92,.6,1.45,.45l2.97-.83c.61-.17,1.03-.72,1.03-1.35v-.42c0-.93-.88-1.6-1.78-1.36l-3.26,.9c-.99,.27-1.36,1.48-.7,2.26Zm14.13,3.4l3.01,3.21c.21,.22,.49,.37,.79,.42l4.28,.73c1.09,.19,1.96-.91,1.53-1.93l-.36-.85c-.22-.52-.73-.86-1.29-.86h-1.21c-.51,0-.98-.27-1.23-.72l-.92-1.65c-.25-.44-.72-.72-1.23-.72h-2.35c-1.23,0-1.87,1.47-1.03,2.37Zm13.7,4.79h14.91c.28,0,.51-.23,.51-.51v-2.61c0-.26-.2-.48-.45-.5l-4.13-.43c-.07,0-.14,0-.2,.02l-6.19,1.89c-.22,.07-.46-.02-.58-.22l-.74-1.23c-.15-.25-.06-.58,.21-.72l2.09-1.04c.09-.04,.19-.06,.29-.05l10.63,1.27c.3,.04,.57-.2,.57-.5v-2.29c0-.14,.06-.28,.17-.38l4.04-3.65c.34-.31,.12-.88-.34-.88h0c-.56,0-.71-.77-.19-.98l3.7-1.48s.04-.02,.05-.02l6.37-3.43s.03-.02,.05-.02l6.89-2.84c.46-.19,.4-.85-.08-.96l-14.62-3.32c-.07-.02-.14-.02-.21,0l-22.04,4.22c-.42,.08-.56,.61-.23,.88l2.27,1.92c.08,.07,.18,.11,.28,.12l8.14,.72c.06,0,.12,0,.18-.02l1.68-.47c.58-.16,.91,.65,.38,.93l-2.29,1.23c-.06,.04-.14,.06-.21,.06l-3.98,.23c-.07,0-.13,0-.19-.03l-6.99-2.41s-.09-.04-.13-.07l-2.42-1.76c-.14-.1-.33-.13-.5-.06l-5.48,2.32c-.33,.14-.41,.56-.17,.82l4.1,4.32c.05,.06,.12,.1,.19,.12l5.86,2.23c.13,.05,.27,.04,.4-.02l4.12-1.98c.48-.23,.94,.33,.63,.76l-1.91,2.58c-.05,.06-.1,.11-.17,.15l-4.37,2.3c-.13,.07-.29,.08-.43,.02l-5-2.08c-.33-.14-.7,.11-.7,.47v1.55c0,.23,.16,.44,.39,.49l3.9,.93c.17,.04,.31,.17,.37,.34l1.16,3.71c.07,.21,.26,.36,.48,.36Zm-17.18-9.88h0c.21,.25,.5,.42,.82,.48l3.87,.71c1.18,.22,2.07-1.04,1.47-2.08l-.24-.42c-.23-.4-.64-.66-1.11-.7l-3.63-.29c-1.24-.1-1.99,1.35-1.19,2.31Zm8.81-.68l.06,.15c.21,.55,.73,.91,1.32,.91h.11c1.16,0,1.82-1.32,1.13-2.25l-.11-.15c-.27-.36-.68-.57-1.13-.57h-.06c-.98,0-1.66,.98-1.32,1.9Zm37.87,6.53l8.85,.41c.48,.02,.94,.22,1.29,.56l9.57,9.25c.31,.3,.51,.69,.58,1.12l3,19.04c.06,.37,.22,.72,.47,1.01l2.65,3.01c.95,1.07,2.68,.82,3.29-.47l3.55-7.54c.33-.7,1.03-1.14,1.8-1.14h3.57c.56,0,1.1-.24,1.47-.65l3.94-4.35c.22-.24,.5-.43,.81-.54l9.23-3.27c.46-.16,.84-.49,1.07-.91l5.94-10.74c.27-.48,.32-1.05,.15-1.57l-2.78-8.66c-.28-.88,.08-1.84,.87-2.31l8.13-4.88c1.54-.93,1.16-3.26-.6-3.64l-7.3-1.6c-.05-.01-.1-.02-.15-.03l-21.11-2.93c-.21-.03-.42-.02-.62,.01l-24.59,4.36c-.3,.05-.59,.18-.83,.36l-7.76,5.74c-.17,.13-.37,.23-.58,.29l-7.19,2.3c-1.28,.41-1.79,1.94-1.02,3.04l2.75,3.9c.35,.5,.92,.81,1.53,.84Zm54.61,22.94l5.99,4.49h7.49l3.65-5.56-10.49-1.5-6.63,2.57Zm19.28,56.59l-2.05,2.39c-.07,.08-.13,.16-.19,.24l-6.62,8.72c-1.14,1.5-1.35,3.52-.55,5.23l.38,.81c.66,1.4,.64,3.03-.05,4.41h0c-.97,1.96-.58,4.33,.98,5.87l7.66,7.56c.95,.94,2.23,1.47,3.57,1.47h6.45c.75,0,1.5-.17,2.17-.49l4.6-2.18c.31-.15,.67-.1,.93,.11l2.88,2.35c.16,.13,.35,.2,.55,.2h2.36c.48,0,.88,.39,.88,.88v6.25c0,.41,.09,.81,.28,1.17l4.41,8.82c.31,.61,.36,1.32,.15,1.97l-2.26,7.03c-.2,.63-.16,1.32,.13,1.92l2.21,4.66c.17,.35,.25,.73,.25,1.12v4.75c0,.52,.15,1.02,.44,1.45l6.53,9.79c.48,.73,1.3,1.16,2.18,1.16h7.58c.84,0,1.63-.4,2.12-1.09l4.53-6.29c.32-.44,.49-.98,.49-1.53v-2.02c0-1.17,.77-2.19,1.9-2.51l.72-.21c1.12-.32,1.9-1.35,1.9-2.51v-2.75c0-.69,.28-1.36,.77-1.85l4.92-4.92c.49-.49,.77-1.16,.77-1.85v-6.61c0-.46-.12-.9-.34-1.3l-1.23-2.16c-.59-1.03-.41-2.34,.45-3.17l10.28-10.01c.34-.34,.59-.76,.71-1.23l1.03-4.03c.62-2.43-1.56-4.64-4-4.05h0c-1.84,.44-3.76-.24-4.92-1.74l-1.33-1.73-3.55-1.94-5.59-15.29c-.11-.29,.27-.51,.47-.27l7.05,8.47,3.58,7.31c1.08,2.21,3.66,3.24,5.97,2.38l9.93-3.69c.33-.12,.61-.36,.79-.68l2.81-5.12c.28-.52,.24-1.15-.12-1.62l-2.77-3.62c-.47-.62-1.34-.77-1.99-.35l-2.95,1.91c-.74,.48-1.73,.21-2.13-.57l-2.96-5.73c-.51-.99,.21-2.17,1.32-2.17h0c.49,0,.95,.24,1.22,.64l1.98,2.87c.29,.43,.79,.67,1.31,.64l4.31-.24c.42-.02,.84,.13,1.13,.43l1.67,1.67c.28,.28,.66,.44,1.05,.44h7.76c.42,0,.81,.18,1.09,.49l5.53,6.12c.1,.11,.19,.24,.25,.38l6.12,13.58c.5,1.1,2.04,1.17,2.63,.12l4.23-7.52c.1-.17,.23-.32,.38-.44l11.04-8.56c.8-.62,1.97-.27,2.3,.68l1.83,5.28c.23,.67,.91,1.08,1.62,.98l1.6-.25c.77-.12,1.51,.39,1.67,1.15l.97,4.53c.02,.1,.03,.2,.03,.31v3.81c0,.21,.04,.41,.13,.6l2.34,5.27c.07,.17,.18,.32,.31,.44l.86,.86c1.08,1.08,2.89,0,2.46-1.46l-.84-2.85c-.06-.19-.15-.36-.27-.52l-2.38-2.91c-.22-.26-.33-.59-.33-.94h0c0-1.47,1.91-2.04,2.71-.81l1.82,2.79c.5,.76,1.56,.9,2.23,.28l4.51-4.12c.42-.39,.66-.93,.66-1.5v-2.66c0-.74-.4-1.42-1.04-1.78l-2.16-1.22c-1.05-.59-1.36-1.96-.67-2.94l.11-.16c.51-.73,1.43-1.04,2.28-.78l2.78,.87c.61,.19,1.26,.09,1.78-.28l9.5-6.71c.41-.29,.7-.72,.81-1.22l1.94-8.61c.09-.41,.06-.84-.1-1.22l-1.65-4c-.23-.56-.2-1.2,.09-1.74l1.02-1.89c.46-.85,1.44-1.26,2.37-.99l2.88,.85c.64,.19,1.15,.68,1.36,1.31l.65,1.96c.45,1.36,2.14,1.84,3.24,.92h0c.87-.72,.98-2.02,.25-2.88l-1.18-1.4c-.61-.72-.64-1.76-.09-2.52l1.99-2.71c.38-.52,.99-.83,1.64-.83h4.21c.75,0,1.43-.41,1.79-1.07l5.33-9.82c.14-.27,.22-.56,.22-.87v-4.82c0-1-.81-1.82-1.82-1.82h0c-1.65,0-2.45-2.03-1.23-3.15l6.08-5.62c.34-.31,.78-.48,1.23-.48h9.69c.37,0,.73-.11,1.03-.32l7.13-4.94c.3-.21,.66-.32,1.03-.32h2.51c1.66,0,2.45,2.04,1.23,3.15l-7.47,6.84c-.44,.4-.66,1-.57,1.6l.92,6.46c.22,1.53,2.13,2.11,3.16,.95l6.94-7.84c.29-.33,.46-.76,.46-1.2v-3.03c0-.8,.52-1.5,1.29-1.74l6.46-1.97,7.74-3.23h3.23l8.99-8.52c1.06-1.01,.7-2.77-.67-3.28l-16.79-6.25c-.56-.21-1.18-.15-1.69,.15l-4.16,2.44c-.34,.2-.73,.29-1.12,.27l-9.62-.57c-.48-.03-.94-.23-1.28-.57l-6.31-6.28c-.37-.37-.87-.58-1.39-.58h-15.18c-.5,0-.98,.19-1.35,.53l-3.84,3.57c-.47,.44-1.13,.62-1.77,.48l-7.76-1.69c-.91-.2-1.55-1-1.55-1.93v-1.37c0-.91-.63-1.71-1.51-1.92l-5.2-1.25c-.81-.19-1.65,.14-2.11,.83l-.98,1.48c-.49,.75-1.43,1.07-2.28,.78l-6.07-2.04c-1.6-.54-1.83-2.72-.37-3.57l.67-.4c.66-.39,1.03-1.12,.97-1.88l-.06-.66c-.09-.95-.84-1.71-1.8-1.79l-20.05-1.74c-.37-.03-.74,.04-1.07,.21l-14.87,7.58c-.66,.34-1.08,1.02-1.08,1.76v.11c0,.77-.45,1.47-1.14,1.79l-6.79,3.15c-.68,.31-1.47,.22-2.06-.24l-1.36-1.08c-.56-.45-1.32-.55-1.98-.27l-7.51,3.13c-.83,.35-1.32,1.21-1.2,2.1h0c.2,1.41-1.12,2.57-2.49,2.18l-5.53-1.56c-1.04-.29-2.12,.3-2.43,1.33l-.03,.09c-.23,.77-.91,1.33-1.71,1.4l-8.83,.8c-.32,.03-.62,.13-.89,.31l-13.63,8.81c-.47,.31-1.09,.27-1.52-.1l-1.67-1.41c-.78-.65-.52-1.9,.45-2.2l4.66-1.43c.13-.04,.25-.1,.36-.17h0c.8-.56,.71-1.76-.16-2.2l-17.44-8.66c-.39-.19-.86-.18-1.23,.05l-15.68,9.47c-.11,.07-.22,.15-.3,.25l-10.53,12.08c-.37,.43-.42,1.06-.11,1.54l2.49,3.84c.32,.49,.93,.7,1.48,.52l4.17-1.39c.72-.24,1.49,.19,1.65,.93l.72,3.17c.15,.65,.77,1.08,1.43,.98l2.65-.38c.43-.06,.8-.34,.98-.74l2.73-6.02c.13-.28,.15-.61,.06-.91l-.91-2.96c-.14-.47,0-.98,.36-1.32l6.13-5.64c.24-.22,.55-.34,.87-.34h.95c1.14,0,1.71,1.37,.91,2.18l-4.29,4.34c-.39,.39-.48,.98-.23,1.47l.83,1.66c.23,.45,.7,.73,1.21,.71l4.85-.24c.47-.02,.92,.21,1.16,.62l.05,.09c.51,.85-.1,1.94-1.1,1.94h-2.04c-.67,0-1.22,.51-1.28,1.18l-.17,2.14c-.04,.48-.34,.89-.78,1.08l-9.67,4.1c-.17,.07-.36,.11-.55,.1l-8.39-.3c-.23,0-.46,.05-.67,.16l-5.44,3.02s-.08,.05-.11,.07l-6.01,4.65c-2.15,1.66-2.48,4.78-.72,6.86h0c.2,.24,.26,.57,.15,.87l-.91,2.49c-.13,.35-.46,.58-.82,.58h-2.91c-2.45,0-4.37,2.09-4.18,4.53l.24,2.96c.03,.35,.26,.65,.6,.76l4.95,1.65c.2,.07,.42,.06,.61-.02l4.64-1.91c.33-.14,.54-.46,.54-.81v-1.47c0-2.28,1.34-4.35,3.42-5.28l4.73-2.12c1.99-.89,4.25,.47,4.4,2.65h0c.02,.23,.12,.44,.29,.6l5.03,4.47c.3,.26,.74,.3,1.07,.07l.7-.47c.38-.25,.5-.76,.28-1.16l-3.88-6.94c-.15-.26-.15-.58,0-.84l1.04-1.94c.37-.68,1.38-.59,1.61,.15l.95,3.02c.03,.1,.08,.19,.14,.27l3.1,4.03s.04,.06,.06,.09l3.71,6.28c.25,.42,.8,.56,1.22,.3l1.32-.82c.3-.19,.46-.54,.4-.9h0c-.17-.97,1.13-1.44,1.62-.59l1.72,2.98c.38,.66,1.13,1.03,1.89,.92l5.48-.76c2.32-.32,4.22,1.82,3.62,4.09l-.63,2.38c-.22,.83-.96,1.4-1.82,1.4h-5.47c-.12,0-.23-.01-.34-.03l-9.29-1.73c-1.11-.21-2.23,.28-2.83,1.23h0c-.73,1.14-2.17,1.59-3.41,1.05l-8.43-3.61c-.41-.17-.62-.62-.5-1.05l.74-2.58c.17-.58-.3-1.16-.9-1.12l-13.27,.88-.76,.07c-3.86,.37-7.43,2.22-9.95,5.16Zm60.1-19.9l.07,.35c.14,.69,.59,1.27,1.22,1.57l3.89,1.86c1.29,.62,1.67,2.27,.78,3.39h0c-.51,.64-1.34,.95-2.14,.8l-8.81-1.65c-.13-.03-.27-.04-.41-.04h-4.2c-1.67,0-2.74-1.77-1.97-3.25l1.88-3.62c.38-.74,1.14-1.2,1.97-1.2h5.54c1.06,0,1.97,.75,2.18,1.79Zm19.32,6.39v5.41c0,1.23-.99,2.22-2.22,2.22h-1.04c-1.23,0-2.22-.99-2.22-2.22v-3.06c0-.34-.08-.68-.23-.99l-2.24-4.49c-.58-1.16-.05-2.56,1.15-3.05l2.49-1.02c1.26-.51,2.68,.21,3,1.53l1.26,5.14c.04,.17,.06,.35,.06,.53Zm-8.01,74.03l-3.01,3.29c-.38,.42-.63,.94-.72,1.5l-.96,6.15c-.27,1.74,1.07,3.31,2.84,3.31h.99c1.25,0,2.36-.81,2.74-2.01l2.98-9.44c.17-.53,.18-1.1,.03-1.63h0c-.6-2.17-3.36-2.83-4.88-1.17Zm64.51-19.39l2.41,4.39c.08,.15,.19,.28,.32,.38l4.49,3.49c.59,.46,1.45,.29,1.82-.36l1.31-2.3c.32-.56,.15-1.27-.38-1.63l-8.05-5.46s-.05-.04-.08-.06h0c-1.05-.84-2.49,.37-1.84,1.55Zm11.92,8.21h0c-.54,1.2,.03,2.61,1.25,3.09l3.96,1.55c.75,.29,1.6,.17,2.23-.32l.8-.62c1.19-.92,1.19-2.72,0-3.64l-1.21-.93c-.4-.31-.89-.48-1.4-.48h-3.55c-.9,0-1.72,.53-2.09,1.34Zm2.09-7.04l2.41,3.34c.2,.27,.48,.48,.79,.58l4.04,1.35c.74,.25,1.55-.07,1.92-.76l3.15-5.82c.25-.46,.26-1.02,.02-1.48l-1.37-2.73c-.31-.62-.19-1.37,.3-1.86h0c.73-.73,.59-1.96-.29-2.51l-.9-.56c-.83-.51-1.91-.17-2.31,.71l-1.98,4.39c-.12,.26-.3,.48-.52,.64l-2.27,1.64c-.19,.14-.41,.23-.64,.28l-1.37,.26c-1.15,.22-1.69,1.57-1,2.52Zm14.05-32.01l-.85,.7c-.29,.23-.38,.63-.22,.97l.85,1.86c.13,.29,.42,.47,.74,.47h0c.45,0,.81-.36,.81-.81v-2.56c0-.68-.79-1.06-1.32-.63Zm-.24,8.84l-.96,2.95c-.09,.28-.06,.58,.08,.83l.47,.85c.33,.6,1.13,.73,1.63,.27h0c.22-.2,.34-.48,.34-.78v-1.27c0-.21,.06-.41,.18-.58l.91-1.37c.47-.7-.04-1.64-.88-1.64h-.78c-.46,0-.86,.29-1,.73Zm1.49,12.5h0c-.08,.72,.58,1.3,1.28,1.14l.19-.04c.46-.11,.94,.11,1.16,.53l.72,1.35c.31,.59,1.08,.74,1.59,.32l1.71-1.41c.31-.26,.45-.67,.35-1.07l-.52-2.09c-.14-.56-.71-.91-1.28-.76l-4.43,1.12c-.42,.11-.74,.47-.79,.9Zm1.15-6.28l.98,.97c.09,.09,.15,.19,.19,.31l.67,2.17c.1,.32,.39,.53,.72,.53h.29c.42,0,.76-.34,.76-.76v-1.35c0-.2-.08-.38-.21-.52l-2.32-2.42c-.35-.36-.94-.29-1.2,.14h0c-.18,.3-.13,.68,.12,.92Zm-2.12,15.59l-2.13,4.65c-.04,.08-.05,.17-.04,.26l.51,3.98c.03,.24,.24,.42,.48,.42h.42c.27,0,.48-.22,.48-.48v-2.24c0-.48,.63-.67,.89-.27l.87,1.32c.13,.2,.39,.28,.61,.17l1.13-.52c.27-.12,.36-.46,.2-.7l-1.52-2.33c-.11-.17-.1-.4,.03-.57l.68-.85c.25-.32,.03-.79-.38-.79h-1.07c-.07,0-.13,.01-.19,.04h0c-.42,.18-.83-.26-.62-.67l.27-.51c.09-.18,.29-.29,.5-.26l3.09,.45c.17,.02,.34-.04,.45-.18l1.47-1.89c.2-.26,.09-.65-.22-.75l-1-.35c-.24-.08-.5,.03-.6,.26l-.46,1.06c-.07,.17-.23,.28-.42,.29l-3.01,.17c-.18,.01-.34,.12-.41,.28Zm21.14,3.62l-2.98,1.27c-.21,.09-.45,.04-.61-.13l-.28-.31c-.09-.1-.14-.23-.14-.36v-1.63c0-.24-.16-.45-.38-.51l-3.03-.91s-.1-.02-.15-.02h-1c-.3,0-.54,.24-.54,.54v.18c0,.2,.11,.38,.29,.48l1.46,.75c.09,.04,.16,.11,.21,.19l.45,.72c.09,.14,.24,.23,.41,.25l.72,.07c.28,.03,.49,.26,.49,.53v.18c0,.09-.02,.17-.06,.25l-.39,.73c-.23,.42,.18,.91,.64,.76l.28-.09c.09-.03,.18-.03,.27-.01l2.39,.49c.06,.01,.12,.03,.17,.07l3.08,1.85c.3,.18,.35,.6,.09,.85l-.8,.76c-.35,.33-.11,.92,.37,.92h2.33c.14,0,.28,.06,.38,.16l1.53,1.54c.19,.19,.48,.21,.69,.06l2.7-1.96c.17-.12,.4-.14,.58-.03l1.31,.75c.17,.1,.27,.27,.27,.47v.64c0,.24,.16,.45,.39,.52l3.91,1.1c.52,.15,.91-.49,.53-.88l-3.13-3.31c-.14-.15-.18-.36-.11-.56l.42-1.12c.13-.35-.13-.72-.5-.72h-1.24c-.24,0-.45-.16-.52-.39l-.48-1.71c-.05-.19-.21-.34-.4-.38l-9.32-2.05c-.11-.02-.22-.01-.33,.03Zm-21.73,22.95l-6.83,2.75c-.75,.3-1.19,1.09-1.06,1.89l2.42,14.09c.14,.83,.86,1.43,1.7,1.43h7.65c.27,0,.54-.07,.79-.19l7.02-3.6c.57-.29,1.26-.24,1.78,.13l4.24,3c.57,.4,1.32,.42,1.91,.06l.74-.46c.89-.55,2.06-.2,2.48,.75l2.34,5.19c.28,.62,.89,1.02,1.57,1.02h4.78c.24,0,.47-.05,.69-.14l4.09-1.79c.33-.14,.61-.39,.79-.7l4.4-7.43c.16-.27,.24-.57,.24-.88v-8.31c0-.49-.21-.95-.57-1.28l-7.87-7.13c-.12-.11-.23-.24-.31-.38l-3.76-6.14c-.77-1.26-2.66-1.03-3.11,.37l-1.14,3.54c-.38,1.17-1.81,1.58-2.75,.79l-1.94-1.64c-.44-.37-.67-.95-.6-1.52l.27-2.29c.12-1.03-.68-1.93-1.71-1.93h-2.93c-.43,0-.85,.16-1.17,.46l-4.49,4.13c-.56,.51-1.38,.6-2.03,.22h0c-.75-.44-1.71-.24-2.24,.45l-1.5,1.97c-.06,.07-.12,.14-.18,.21l-3.17,3.02c-.16,.15-.34,.27-.55,.35Zm66.64,21.45l1.55,4.18c.1,.27,.07,.57-.08,.82l-.51,.85c-.21,.34-.18,.78,.07,1.09l1.29,1.6c.49,.61,1.46,.4,1.66-.35l.58-2.13c.07-.27,.27-.5,.52-.62l1.82-.83c.34-.16,.56-.49,.56-.87v-.32c0-.6-.55-1.05-1.14-.94l-2.08,.42c-.43,.09-.87-.14-1.05-.54l-1.41-3.09c-.16-.34-.49-.56-.87-.56h0c-.66,0-1.13,.66-.89,1.29Zm-.39,9.57l-1.01-.25c-.29-.07-.6,0-.83,.18l-5.57,4.52c-.59,.48-.41,1.43,.33,1.65l2.79,.84c.43,.13,.89-.06,1.11-.45l1.64-2.96c.05-.09,.11-.17,.18-.23l1.79-1.67c.55-.52,.31-1.44-.42-1.62Z"/></g></g><g><path class="cls-30" d="M235.99,413.65s-6.01,11.18-9.28,22.79h20.59c3,0,5.43-2.43,5.43-5.43v-13.37l-16.74-3.99Z"/><path class="cls-31" d="M269.47,413.65s6.01,11.18,9.28,22.79h-20.59c-3,0-5.43-2.43-5.43-5.43v-13.37l16.74-3.99Z"/><path class="cls-12" d="M252.73,338.54v79.11s-8.1,10.3-16.53,10.77c-8.43,.47,2.85-21.53,2.85-21.53,0,0-9.36-51.96-10.32-68.34h24Z"/><path class="cls-9" d="M252.73,338.54v79.11s8.1,10.3,16.53,10.77c8.43,.47-2.85-21.53-2.85-21.53,0,0,9.36-51.96,10.32-68.34h-24Z"/><line class="cls-22" x1="252.73" y1="417.64" x2="252.73" y2="347.9"/><path class="cls-4" d="M228.73,338.54c.25,4.3,1.08,11.05,2.17,18.67,21.36,1.82,38.66-7.16,45.11-11.11,.34-2.95,.59-5.52,.71-7.55h-47.99Z"/><path class="cls-12" d="M276.44,148.23s10.08,4.61,12,19.22c1.46,11.13,1.19,37.9,.98,50.02-.07,4.02-1.04,7.96-2.85,11.55l-13.84,27.55s-9.33-65.53-5.6-82.52c3.73-16.99,9.31-25.82,9.31-25.82Z"/><path class="cls-39" d="M269.04,179.98s10.94-4.61,20.16-2.67c-.17-3.87-.42-7.28-.76-9.85-1.92-14.61-12-19.22-12-19.22,0,0-4.55,7.23-8.18,21.13l.77,10.61Z"/><path class="cls-35" d="M270.1,180.81h-34.74V110.26c0-9.5,7.7-17.2,17.2-17.2h.35c9.5,0,17.2,7.7,17.2,17.2v70.55Z"/><rect class="cls-17" x="240.12" y="115.06" width="25.22" height="35.62"/><path class="cls-10" d="M265.34,121.94h-25.22v-10.81c0-6.9,5.59-12.49,12.49-12.49h.25c6.9,0,12.49,5.59,12.49,12.49v10.81Z"/><path class="cls-27" d="M276.44,213.44l-23.85,3.86-23.85-3.86s-17.98,50.2-9.92,125.09c15.09,9.36,28.15,9.36,33.77,9.36s18.68,0,33.77-9.36c8.07-74.89-9.92-125.09-9.92-125.09Z"/><path class="cls-33" d="M236.2,251.27c0,14.3,2.34,68.55,3.97,34.38,1.63-34.17,9.83-68.76,9.83-68.76h0l-21.27-3.44s-17.98,50.2-9.92,125.09c1.34-59.45,17.38-101.57,17.38-87.27Z"/><path class="cls-13" d="M276.44,213.44l-9.05,1.47c1.66,9.61,10.66,64.79,5.66,108.65-1.28,8.89-8.77-.99-9.24-10.09-.4-7.71-9.22,6.91-.92,33.77,6.38-.93,14.56-3.18,23.47-8.71,8.07-74.89-9.92-125.09-9.92-125.09Z"/><g><circle class="cls-38" cx="265.23" cy="121.94" r="3.81"/><path class="cls-12" d="M269.04,121.94c0-1.91-1.42-3.48-3.26-3.76-.35,.57-.56,1.24-.56,1.96,0,1.91,1.42,3.48,3.26,3.76,.35-.57,.56-1.24,.56-1.96Z"/></g><path class="cls-28" d="M276.44,148.23l-21.55-6.33-2.3,.31-2.3-.31-21.55,6.33s5.36,37.83,0,65.21c10.16,10.45,23.85,10.16,23.85,10.16,0,0,13.69,.28,23.85-10.16-5.36-27.38,0-65.21,0-65.21Z"/><path class="cls-12" d="M252.78,152.96h-.11c-2.89,0-5.23-2.34-5.23-5.23v-16.26h10.57v16.26c0,2.89-2.34,5.23-5.23,5.23Z"/><path class="cls-4" d="M247.45,131.47v11.34c6.47-1.68,10.57-9.54,10.57-9.54v-1.8h-10.57Z"/><path class="cls-12" d="M228.73,148.23s-5.65,2.54-8.19,7.34-10.45,27.18-10.45,27.18l-25.12-26.9-5.9,6.57c-2.71,3.02-2.65,7.61,.15,10.55l28.52,29.96c4.59,4.84,12.67,3.18,14.98-3.09l8.29-22.52s3.65-20.34-2.28-29.09Z"/><line class="cls-23" x1="210.1" y1="182.76" x2="215.75" y2="188.6"/><path class="cls-39" d="M220.55,155.57c2.54-4.8,8.19-7.34,8.19-7.34,5.93,8.75,2.28,29.09,2.28,29.09l-.98,2.65c-1.55-3.6-5.35-8.6-14.64-11.77,2-5.34,4.06-10.58,5.15-12.63Z"/><path class="cls-3" d="M207.75,202.93l-.38-.4c2-2.79,5.26-4.61,8.95-4.61,2.37,0,4.57,.76,6.37,2.04-2.36,6.17-10.36,7.79-14.93,2.97Z"/><path class="cls-9" d="M190.69,161.97l-9.96-10.55c-.96-1.02-2.59-.98-3.51,.07l-.03,.03c-.73,.84-.78,2.07-.11,2.96l4.64,6.25s-1.66,6.96,4.49,11.98c6.14,5.02,9.14-5.76,9.14-5.76l-4.66-4.99Z"/><path class="cls-12" d="M262.13,144.03l-7.24-2.12-2.3,.31-2.3-.31-6.96,2.04c.21,5.01,4.34,9.01,9.4,9.01s9.14-3.96,9.4-8.93Z"/><g><path class="cls-38" d="M236.38,121.94c0,2.1,1.71,3.81,3.81,3.81s3.81-1.71,3.81-3.81-1.71-3.81-3.81-3.81-3.81,1.71-3.81,3.81Z"/><path class="cls-12" d="M236.38,121.94c0-1.91,1.42-3.48,3.26-3.76,.35,.57,.56,1.24,.56,1.96,0,1.91-1.42,3.48-3.26,3.76-.35-.57-.56-1.24-.56-1.96Z"/></g><path class="cls-12" d="M253.98,102.5h-2.55c-5.7,0-10.32,4.62-10.32,10.32v7.14c0,5.35,2.41,10.51,6.74,13.66,1.54,1.12,3.21,1.92,4.85,1.92s3.31-.79,4.85-1.92c4.33-3.15,6.74-8.3,6.74-13.66v-7.14c0-5.7-4.62-10.32-10.32-10.32Z"/><path class="cls-2" d="M256.45,102.81l-.37,1.7c.59,2.12,3.67,17.29,.64,29.67,.28-.18,.56-.36,.83-.56,4.33-3.15,6.74-8.3,6.74-13.66v-7.14c0-4.85-3.35-8.9-7.85-10.01Z"/><path class="cls-10" d="M249.57,126.46c-.72,0-1.02,.9-.47,1.36,.98,.82,2.25,1.32,3.64,1.32s2.65-.5,3.64-1.32c.55-.46,.25-1.36-.47-1.36h-6.33Z"/><polyline class="cls-25" points="251.53 123.96 253.65 123.96 253.65 117.83"/><path class="cls-23" d="M256.08,118.13s2.44-1.38,5.33,0"/><path class="cls-23" d="M256.08,110.42s3.27-.72,5.98,.81"/><path class="cls-23" d="M249.33,118.13s-2.44-1.38-5.33,0"/><path class="cls-23" d="M249.34,111.27s-3.27-.72-5.98,.81"/><path class="cls-1" d="M210.1,182.46c.93-2.62,7.97-22.41,10.34-26.89,2.54-4.8,8.19-7.34,8.19-7.34l14.32-4.2s-19.52,8.86-21.93,23.5c-2.4,14.65-5.27,21.07-5.27,21.07l-5.65-6.14Z"/><path class="cls-35" d="M259.59,104.16c-1.61-1.05-3.54-1.66-5.6-1.66h-2.55c-5.7,0-10.32,4.62-10.32,10.32v3.1c9.53-.72,16.46-9.04,18.48-11.76Z"/><path class="cls-3" d="M282.36,221.73c0,3.11,1.71,5.81,4.25,7.23,1.78-3.57,2.74-7.49,2.81-11.48,.02-1.18,.04-2.5,.06-3.94-4.02,.56-7.12,4.01-7.12,8.19Z"/><path class="cls-39" d="M252.73,152.96l10.74,8.73s1.75-12.09-1.34-17.66l-9.4,8.93Z"/><path class="cls-39" d="M252.73,152.96l-10.74,8.73s-1.75-12.09,1.34-17.66l9.4,8.93Z"/><path class="cls-2" d="M241.11,112.99c5.97-1.69,10.45-6.94,12.88-10.49,0,0,0,0-.01,0h-2.55c-5.7,0-10.32,4.62-10.32,10.32v.17Z"/><circle class="cls-10" cx="239.9" cy="125.77" r="1.21"/><circle class="cls-10" cx="265.34" cy="125.77" r="1.21"/><line class="cls-22" x1="252.78" y1="152.96" x2="252.78" y2="223.61"/><path class="cls-2" d="M276.44,148.23l-18.43-5.41h0s7.81,9.4,15.88,12.35c8.08,2.95,9.27,31.15,8.46,44.62-.58,9.74,1.68,20.58,5.84,25.2,.76-2.43,1.18-4.96,1.22-7.52,.21-12.11,.48-38.89-.98-50.02-1.92-14.61-12-19.22-12-19.22Z"/><g class="cls-5"><polygon class="cls-7" points="229.53 208.75 229.53 208.75 229.53 208.76 229.53 208.75"/><path class="cls-7" d="M256.08,188.6c-13.65,1.57-24.96-4.69-24.96-4.69h0c.01,6.25-.22,12.77-.86,19.09,1.24-3.84,4.45-8.14,12.7-7.88,14.75,.45,26.78-8.08,13.13-6.51Z"/></g></g><g><path class="cls-8" d="M436.59,456.11c0,2.9-29.74,5.26-66.43,5.26s-66.43-2.35-66.43-5.26,29.74-5.26,66.43-5.26,66.43,2.35,66.43,5.26Z"/><path class="cls-37" d="M420.51,456.11h-.08c-2.09,0-3.78-1.69-3.78-3.78v-92.22h7.64v92.22c0,2.09-1.69,3.78-3.78,3.78Z"/><rect class="cls-14" x="416.65" y="360.11" width="7.64" height="13.28"/><path class="cls-37" d="M319.65,456.11h-.08c-2.09,0-3.78-1.69-3.78-3.78v-92.22h7.64v92.22c0,2.09-1.69,3.78-3.78,3.78Z"/><rect class="cls-14" x="315.79" y="360.11" width="7.64" height="13.28"/><rect class="cls-28" x="385.67" y="443.98" width="20.88" height="12.14"/><path class="cls-32" d="M394.93,368.98h-9.26v75h20.88v-63.38c0-6.42-5.2-11.62-11.62-11.62Z"/><rect class="cls-28" x="332.41" y="443.98" width="20.88" height="12.14"/><path class="cls-32" d="M344.03,368.98h9.26v75h-20.88v-63.38c0-6.42,5.2-11.62,11.62-11.62Z"/><rect class="cls-37" x="308.57" y="351.83" width="123.03" height="9.27" rx="4.59" ry="4.59"/><rect class="cls-15" x="344.45" y="351.83" width="50.6" height="9.27"/><path class="cls-12" d="M335.39,327.57l-.94,17.59c-.19,3.62,2.69,6.67,6.32,6.67h7.97v-24.26h-13.34Z"/><path class="cls-12" d="M403.58,327.57l.94,17.59c.19,3.62-2.69,6.67-6.32,6.67h-7.97v-24.26h13.34Z"/><path class="cls-12" d="M389.39,272.45c0,2.37-1.92,4.28-4.28,4.28s-4.28-1.92-4.28-4.28,1.92-4.28,4.28-4.28,4.28,1.92,4.28,4.28Z"/><path class="cls-12" d="M358.51,272.45c0,2.37-1.92,4.28-4.28,4.28s-4.28-1.92-4.28-4.28,1.92-4.28,4.28-4.28,4.28,1.92,4.28,4.28Z"/><rect class="cls-12" x="362.74" y="287.77" width="13.49" height="7.1"/><path class="cls-35" d="M354.22,258.16s-3.91,19.08,8.52,29.6h12.43s11.01-2.3,11.01-29.6c0-3.29-1.78-5.59-1.78-5.59,0,0,8.52-2.17,4.97-3.55-3.55-1.38-16.33-5.87-25.92,2.89-2.84-5.92-6.39-8.22-5.33,.99-4.62-4.93-13.49,0-3.91,5.26Z"/><path class="cls-2" d="M389.37,249.02c-3.55-1.38-16.33-5.87-25.92,2.89-2.84-5.92-6.39-8.22-5.33,.99-4.62-4.93-13.49,0-3.91,5.26,0,0-3.91,19.08,8.52,29.6,0,0-6.71-23.43-3.68-27.38-2.93-2.95-2.14-4.85,1.8-3.16-.34-3.38,.9-3.72,3.27-.9,3.72-2.82,12.29-1.58,16.69,1.84,4.4,3.42,5.35,0,5.35,0,0-3.29-1.78-5.59-1.78-5.59,0,0,8.52-2.17,4.97-3.55Z"/><path class="cls-18" d="M375.16,287.77s8.36-1.76,10.51-20.28c-2.62-1.98-8.07-5.45-11.22-2.96-3.57,2.82-.17,17.63-3.76,23.24h4.47Z"/><path class="cls-29" d="M398.81,304.04c-1.72-2.97-5.37-5.34-9.52-7.2-12.56-5.61-27.05-5.61-39.61,0-4.15,1.86-7.8,4.23-9.52,7.2-5.36,9.23-7.75,26.21-7.75,26.21h16.32v38.73h41.5v-38.73h16.32s-2.38-16.98-7.75-26.21Z"/><path class="cls-20" d="M390.23,297.28v32.97h16.32s-2.38-16.98-7.75-26.21c-1.59-2.74-4.82-4.97-8.58-6.76Z"/><path class="cls-20" d="M348.73,297.28v32.97h-16.32s2.38-16.98,7.75-26.21c1.59-2.74,4.82-4.97,8.58-6.76Z"/><path class="cls-27" d="M380.96,390.02h-22.96c-5.12,0-9.27-4.15-9.27-9.27v-11.78h41.5v11.78c0,5.12-4.15,9.27-9.27,9.27Z"/><rect class="cls-11" x="338.06" y="387.36" width="62.85" height="8.92" rx="4.42" ry="4.42"/><rect class="cls-11" x="338.8" y="303.79" width="61.62" height="43.94" rx="5.34" ry="5.34"/><path class="cls-13" d="M395.09,303.79h-50.94c-2.67,0-4.86,1.96-5.26,4.51,.27-.04,.54-.08,.83-.08h50.94c2.95,0,5.34,2.39,5.34,5.34v33.25c0,.28-.04,.56-.08,.83,2.55-.4,4.51-2.59,4.51-5.26v-33.25c0-2.95-2.39-5.34-5.34-5.34Z"/><rect class="cls-11" x="348.73" y="347.73" width="5.84" height="39.63"/><rect class="cls-16" x="348.73" y="347.73" width="5.84" height="4.1"/><rect class="cls-11" x="384.4" y="347.73" width="5.84" height="39.63"/><rect class="cls-16" x="384.4" y="347.73" width="5.84" height="4.1"/><rect class="cls-11" x="384.4" y="396.28" width="5.84" height="59.83"/><rect class="cls-16" x="384.4" y="396.28" width="5.84" height="4.1"/><rect class="cls-11" x="348.73" y="396.28" width="5.84" height="59.83"/><rect class="cls-16" x="348.73" y="396.28" width="5.84" height="4.1"/></g><g><path class="cls-8" d="M197.35,456.11c0,2.9-29.74,5.26-66.43,5.26s-66.43-2.35-66.43-5.26,29.74-5.26,66.43-5.26,66.43,2.35,66.43,5.26Z"/><path class="cls-37" d="M181.27,456.11h-.08c-2.09,0-3.78-1.69-3.78-3.78v-92.22h7.64v92.22c0,2.09-1.69,3.78-3.78,3.78Z"/><rect class="cls-14" x="177.41" y="360.11" width="7.64" height="13.28"/><path class="cls-37" d="M80.41,456.11h-.08c-2.09,0-3.78-1.69-3.78-3.78v-92.22h7.64v92.22c0,2.09-1.69,3.78-3.78,3.78Z"/><rect class="cls-14" x="76.55" y="360.11" width="7.64" height="13.28"/><rect class="cls-29" x="140.43" y="443.98" width="20.88" height="12.14"/><path class="cls-32" d="M149.69,368.98h-9.26v75h20.88v-63.38c0-6.42-5.2-11.62-11.62-11.62Z"/><rect class="cls-29" x="99.18" y="443.98" width="20.88" height="12.14"/><path class="cls-32" d="M110.8,368.98h9.26v75h-20.88v-63.38c0-6.42,5.2-11.62,11.62-11.62Z"/><rect class="cls-37" x="69.33" y="351.83" width="123.03" height="9.27" rx="4.59" ry="4.59"/><rect class="cls-15" x="105.21" y="351.83" width="50.6" height="9.27"/><path class="cls-12" d="M96.15,327.57l-.94,17.59c-.19,3.62,2.69,6.67,6.32,6.67h7.97v-24.26h-13.34Z"/><path class="cls-12" d="M164.34,327.57l.94,17.59c.19,3.62-2.69,6.67-6.32,6.67h-7.97v-24.26h13.34Z"/><path class="cls-12" d="M150.15,272.45c0,2.37-1.92,4.28-4.28,4.28s-4.28-1.92-4.28-4.28,1.92-4.28,4.28-4.28,4.28,1.92,4.28,4.28Z"/><path class="cls-12" d="M119.27,272.45c0,2.37-1.92,4.28-4.28,4.28s-4.28-1.92-4.28-4.28,1.92-4.28,4.28-4.28,4.28,1.92,4.28,4.28Z"/><rect class="cls-12" x="123.5" y="287.77" width="13.49" height="7.1"/><path class="cls-28" d="M159.57,304.04c-1.72-2.97-5.37-5.34-9.52-7.2-12.56-5.61-27.05-5.61-39.61,0-4.15,1.86-7.8,4.23-9.52,7.2-5.36,9.23-4.91,26.21-4.91,26.21h13.49v38.73h41.5v-38.73l13.52,.55s.42-17.53-4.94-26.77Z"/><path class="cls-39" d="M150.99,297.28v32.97l13.52,.55s.42-17.53-4.94-26.77c-1.59-2.74-4.82-4.97-8.58-6.76Z"/><path class="cls-39" d="M109.5,297.28v32.97h-13.49s-.45-16.98,4.91-26.21c1.59-2.74,4.82-4.97,8.58-6.76Z"/><path class="cls-27" d="M141.72,390.02h-22.96c-5.12,0-9.27-4.15-9.27-9.27v-11.78h41.5v11.78c0,5.12-4.15,9.27-9.27,9.27Z"/><rect class="cls-11" x="98.82" y="387.36" width="62.84" height="8.92" rx="4.42" ry="4.42"/><rect class="cls-11" x="109.5" y="347.73" width="5.84" height="39.63"/><rect class="cls-16" x="109.5" y="347.73" width="5.84" height="4.1"/><rect class="cls-11" x="145.16" y="347.73" width="5.84" height="39.63"/><rect class="cls-16" x="145.16" y="347.73" width="5.84" height="4.1"/><rect class="cls-11" x="145.16" y="396.28" width="5.84" height="59.83"/><rect class="cls-16" x="145.16" y="396.28" width="5.84" height="4.1"/><rect class="cls-11" x="109.5" y="396.28" width="5.84" height="59.83"/><rect class="cls-16" x="109.5" y="396.28" width="5.84" height="4.1"/><path class="cls-29" d="M147.82,322.47h-34.78v-60.39c0-9.51,7.71-17.22,17.22-17.22h.35c9.51,0,17.22,7.71,17.22,17.22v60.39Z"/><path class="cls-1" d="M136.43,245.9c-1.82-.66-3.78-1.03-5.83-1.03h-.35c-9.51,0-17.22,7.71-17.22,17.22v60.39h12v-60.39c0-7.46,4.75-13.79,11.39-16.18Z"/><path class="cls-2" d="M141.58,322.47h6.24v-60.39c0-2.9-.72-5.63-1.99-8.02-2.13,3.62-4.25,9.46-4.25,18.39v50.03Z"/><rect class="cls-11" x="99.57" y="303.79" width="61.62" height="43.94" rx="5.34" ry="5.34"/><path class="cls-13" d="M155.85,303.79h-50.94c-2.67,0-4.86,1.96-5.26,4.51,.27-.04,.54-.08,.83-.08h50.94c2.95,0,5.34,2.39,5.34,5.34v33.25c0,.28-.04,.56-.08,.83,2.55-.4,4.51-2.59,4.51-5.26v-33.25c0-2.95-2.39-5.34-5.34-5.34Z"/></g></g></g></g></svg>