<?xml version="1.0" encoding="UTF-8"?><svg id="Layer_1" xmlns="http://www.w3.org/2000/svg" viewBox="0 0 44.9 44.92"><defs><style>.cls-1{fill:#030302;}.cls-2{fill:#04a46a;}.cls-3{fill:#00c282;}.cls-4{fill:#2574d4;}.cls-5{fill:#fdda18;}.cls-6{fill:#fda21d;}.cls-7{fill:#070605;}.cls-8{fill:#1a4a7a;}.cls-9{fill:#fcc7bb;}.cls-10{fill:#000403;}.cls-11{fill:#060404;}.cls-12{fill:#04a168;}.cls-13{fill:#00c182;}.cls-14{fill:#fdc7bb;}.cls-15{fill:#010202;}.cls-16{fill:#1f7d50;}</style></defs><path class="cls-15" d="M29.93,14.96c.59,.16,.76,.36,.74,.95-.07,2.15-.85,4-2.34,5.55-.12,.12-.29,.18-.48,.3,.52,.29,.87,.52,1.25,.69,.16,.08,.39,.11,.56,.07,1.62-.39,3.22-.83,4.84-1.21,1.67-.39,2.91,.63,2.91,2.34,0,.19,0,.37,0,.58,1.17,.5,1.57,1.43,1.5,2.64-.03,.51,0,1.03,0,1.55,.3,.06,.59,.09,.87,.17,1.23,.36,2.1,1.49,2.12,2.78,.02,1,.01,2,0,2.99-.01,1.67-1.13,2.9-2.79,3.07-.06,0-.12,0-.21,.02,0,.77,0,1.51,0,2.26,0,1.3-.77,2.2-2.06,2.34-2.49,.26-4.99,.49-7.49,.73-1.46,.14-2.92,.28-4.38,.41-.26,.02-.39,.13-.5,.38-.39,.88-1.09,1.36-2.05,1.36-.96,0-1.66-.48-2.05-1.36-.11-.25-.24-.35-.5-.37-2.42-.23-4.84-.46-7.26-.69-1.57-.15-3.13-.29-4.7-.46-1.14-.13-1.94-1.04-1.96-2.19,0-.39,0-.78,0-1.17,0-.39,0-.78,0-1.19-.23-.04-.45-.07-.67-.12-1.32-.3-2.29-1.46-2.32-2.81-.02-.95,0-1.9,0-2.85,0-1.88,1.07-3.06,2.99-3.25,0-.52,.03-1.05,0-1.58-.07-1.21,.34-2.14,1.53-2.64,0-.38-.05-.76,0-1.12,.22-1.3,1.41-2.11,2.74-1.81,1.62,.36,3.23,.79,4.84,1.21,.31,.08,.55,.1,.82-.1,.3-.21,.64-.36,.98-.56-.28-.31-.56-.59-.81-.9-1.19-1.46-1.82-3.14-1.87-5.02-.02-.59,.15-.79,.74-.94,.59,.15,.74,.34,.75,.94,.11,3.66,3.09,6.56,6.74,6.56,3.65,0,6.63-2.9,6.74-6.56,.02-.61,.16-.79,.75-.94Zm-9.76,11.8c-.23-.03-.43-.06-.63-.08-1.87-.18-3.75-.36-5.63-.54-1.84-.17-3.69-.35-5.54-.5-.61-.05-.9,.24-.9,.85,0,.67,0,1.34,0,2.01,0,.26,.07,.42,.29,.58,.65,.46,1.1,1.11,1.15,1.9,.08,1.12,.05,2.24,.06,3.36,0,1.05-.41,1.9-1.25,2.54-.12,.09-.23,.26-.23,.4-.02,.84-.02,1.68,0,2.52,0,.43,.23,.7,.67,.76,.49,.06,.99,.11,1.49,.16,2.51,.24,5.02,.48,7.53,.72,.99,.09,1.98,.18,3,.27v-14.94Zm4.55,0v14.94c.38-.03,.72-.05,1.06-.08,2.17-.2,4.34-.41,6.51-.62,1.43-.13,2.85-.26,4.28-.41,.63-.06,.84-.32,.85-.95,0-.76,.02-1.53-.01-2.29,0-.17-.11-.38-.24-.49-.69-.54-1.16-1.22-1.21-2.08-.06-1.23-.09-2.47,.02-3.69,.05-.56,.33-1.26,.75-1.6,.71-.56,.74-1.2,.7-1.95-.02-.28,0-.56,0-.84,0-.9-.22-1.14-1.1-1.06-2.76,.25-5.52,.52-8.28,.78-1.1,.1-2.2,.22-3.31,.33Zm-3.01,.18c0,.13-.02,.25-.02,.37,0,5.06,0,10.13,0,15.19,0,.11,0,.22,.01,.33,.11,.56,.79,.83,1.19,.43,.18-.18,.28-.52,.28-.79,.02-5.05,.01-10.1,.01-15.14,0-.13-.02-.27-.02-.38h-1.45Zm-14.25,6.04c0-.51,.01-1.03,0-1.54-.02-.84-.68-1.48-1.49-1.48-.82,0-1.48,.64-1.49,1.47-.02,1.01-.02,2.02,0,3.03,.01,.83,.68,1.48,1.49,1.48,.81,0,1.47-.64,1.5-1.48,.01-.5,0-1,0-1.49Zm29.95-.07c0,.51,0,1.03,0,1.54,.02,.84,.66,1.49,1.47,1.5,.83,.01,1.5-.64,1.52-1.5,.01-1,.01-1.99,0-2.99-.01-.84-.66-1.49-1.47-1.5-.84-.01-1.5,.64-1.52,1.5-.01,.48,0,.96,0,1.45ZM8.97,24.17c2.89,.27,5.74,.54,8.59,.82l.04-.15c-1.69-.51-3.38-1.05-5.08-1.53-.85-.24-1.72-.42-2.59-.57-.62-.11-.94,.21-.95,.83,0,.18,0,.37,0,.6Zm26.92,0c.12-1.33-.15-1.62-1.37-1.34-1.56,.36-3.11,.77-4.65,1.2-.85,.24-1.67,.56-2.5,.85,0,.03,.02,.07,.03,.1,2.83-.27,5.65-.54,8.49-.81Zm-18.39-.91c1.08,.44,2.11,.86,3.14,1.3,.6,.25,1.19,.73,1.79,.74,.6,0,1.19-.46,1.79-.72,.06-.02,.11-.05,.17-.07,1-.41,2-.82,3.01-1.24-.75-.42-.75-.41-1.48-.09-2.32,1.05-4.65,1.07-6.95-.02-.56-.27-.99-.23-1.48,.11Z"/><path class="cls-14" d="M29.93,14.96c-.59,.15-.74,.33-.75,.94-.11,3.66-3.09,6.56-6.74,6.56-3.65,0-6.63-2.9-6.74-6.56-.02-.6-.16-.79-.75-.94,0-.49,0-.98,0-1.47,.51,0,1.03-.02,1.54-.01,1.19,.03,2.19-.39,3.01-1.24,.46-.48,.93-.95,1.45-1.49,.52,.54,.99,1.03,1.46,1.52,.8,.83,1.78,1.22,2.93,1.21,1.53-.01,3.05,0,4.58,.01,0,.49,0,.98,0,1.47Zm-7.48,6.01c.81-.07,1.49-.37,2.02-.97,.3-.34,.28-.76-.01-1.05-.29-.28-.66-.3-1.01-.03-.09,.07-.16,.15-.25,.21-.55,.45-.96,.45-1.5,0-.1-.08-.18-.17-.28-.24-.34-.24-.67-.22-.97,.06-.3,.27-.32,.68-.05,1.01,.54,.64,1.25,.95,2.06,1.01Zm-2.26-5.57c0-.17,.02-.35,0-.51-.07-.4-.31-.63-.73-.66-.39-.02-.72,.27-.75,.67-.03,.29-.02,.59,0,.88,.03,.4,.36,.7,.75,.68,.41-.02,.66-.25,.73-.65,.02-.14,0-.28,0-.42Zm6-.05c0-.11,0-.22,0-.33-.02-.47-.32-.79-.74-.79-.42,0-.73,.31-.75,.78,0,.11,0,.22,0,.33,0,.79,.25,1.15,.77,1.14,.5-.01,.73-.36,.73-1.13Z"/><path class="cls-1" d="M29.93,13.5c-1.53,0-3.05-.02-4.58-.01-1.15,0-2.13-.38-2.93-1.21-.47-.49-.94-.98-1.46-1.52-.52,.54-.99,1.01-1.45,1.49-.82,.86-1.82,1.27-3.01,1.24-.51-.01-1.03,0-1.54,.01-1.47-.16-2.22-1.02-2.25-2.52-.03-1.76,.09-3.48,.81-5.12C15.25,1.91,19.27-.35,23.38,.04c4.31,.41,7.98,3.67,8.67,8.18,.16,1.05,.14,2.15,.11,3.22-.04,1.13-.95,1.92-2.22,2.05Zm-2.46-1.51c.8,0,1.59,0,2.39,0,.51,0,.82-.28,.82-.76-.01-.95,.03-1.91-.12-2.85-.57-3.66-3.5-6.41-7.34-6.83-3.49-.38-6.87,1.59-8.34,4.95-.68,1.55-.71,3.18-.64,4.82,.02,.43,.34,.65,.77,.66,.53,0,1.06,0,1.59,0,.71,.01,1.3-.24,1.8-.75,.62-.63,1.25-1.26,1.89-1.89,.5-.5,.85-.5,1.36,0,.65,.65,1.3,1.3,1.95,1.95,.45,.45,1,.67,1.64,.67,.75,0,1.5,0,2.25,0Z"/><path class="cls-8" d="M5.99,4.52c-.05,1.14-.23,1.47-.77,1.47-.54,0-.71-.32-.77-1.47-.59-.09-1.46,.2-1.46-.86,0-.51,.34-.65,1.47-.68,.07-.6-.2-1.52,.83-1.46,.88,.05,.64,.86,.69,1.46,.61,.06,1.4-.2,1.48,.77,.04,.52-.29,.68-1.47,.76Z"/><path class="cls-16" d="M41.92,2.96c1.22,.13,1.5,.28,1.49,.81-.01,.52-.27,.65-1.49,.76-.06,.58,.2,1.38-.77,1.45-.52,.04-.68-.29-.76-1.47-.59-.07-1.42,.19-1.46-.81-.02-.52,.32-.67,1.46-.72,.09-.59-.21-1.46,.85-1.47,.51,0,.66,.35,.68,1.44Z"/><path class="cls-8" d="M35.91,10.47c.02-1.13,.19-1.46,.72-1.48,.54-.03,.72,.3,.81,1.48,.59,.07,1.42-.2,1.46,.81,.02,.51-.31,.66-1.46,.72-.09,.58,.2,1.42-.81,1.47-.53,.02-.69-.33-.72-1.47-.58-.08-1.48,.21-1.46-.79,.02-.93,.86-.68,1.46-.73Z"/><path class="cls-5" d="M9.74,13.5c-.07,1.16-.23,1.47-.77,1.47-.55,0-.73-.33-.77-1.48-.58-.08-1.48,.21-1.46-.79,.02-.92,.86-.68,1.43-.73,.14-1.23,.29-1.5,.81-1.49,.52,.01,.67,.28,.75,1.37,.46,.14,.89,.25,1.3,.43,.11,.05,.17,.33,.17,.5-.01,.51-.31,.65-1.46,.72Z"/><path class="cls-5" d="M43.44,19.46c1.14,.04,1.47,.22,1.46,.77,0,.53-.31,.7-1.47,.77-.09,.58,.19,1.42-.82,1.46-.52,.02-.68-.33-.72-1.47-.58-.08-1.48,.2-1.46-.8,.02-.92,.86-.67,1.43-.73,.13-1.23,.28-1.5,.81-1.49,.52,.01,.66,.28,.76,1.48Z"/><path class="cls-16" d="M1.44,22.46c.13-1.22,.28-1.5,.81-1.49,.52,.01,.66,.28,.76,1.49,.58,.06,1.38-.2,1.45,.77,.04,.53-.3,.69-1.46,.76-.08,.59,.19,1.42-.81,1.46-.52,.02-.67-.32-.72-1.46C.87,23.9,0,24.19,0,23.13c0-.51,.35-.66,1.44-.68Z"/><path class="cls-3" d="M20.17,26.76v14.94c-1.02-.09-2.01-.18-3-.27-2.51-.24-5.02-.48-7.53-.72-.5-.05-.99-.1-1.49-.16-.44-.05-.67-.33-.67-.76-.01-.84-.02-1.68,0-2.52,0-.14,.12-.31,.23-.4,.84-.64,1.26-1.49,1.25-2.54,0-1.12,.02-2.25-.06-3.36-.06-.79-.5-1.44-1.15-1.9-.22-.16-.29-.32-.29-.58,.02-.67,0-1.34,0-2.01,0-.61,.29-.9,.9-.85,1.85,.15,3.69,.33,5.54,.5,1.88,.18,3.75,.36,5.63,.54,.2,.02,.4,.05,.63,.08Z"/><path class="cls-13" d="M24.72,26.75c1.11-.11,2.21-.22,3.31-.33,2.76-.26,5.52-.53,8.28-.78,.88-.08,1.1,.16,1.1,1.06,0,.28-.01,.56,0,.84,.04,.75,0,1.39-.7,1.95-.42,.33-.7,1.03-.75,1.6-.11,1.22-.08,2.46-.02,3.69,.05,.86,.52,1.54,1.21,2.08,.13,.1,.24,.32,.24,.49,.03,.76,.01,1.53,.01,2.29,0,.62-.22,.88-.85,.95-1.42,.15-2.85,.27-4.28,.41-2.17,.21-4.34,.41-6.51,.62-.34,.03-.68,.05-1.06,.08v-14.94Zm3.13,6.19c2.11-.24,4.28-.48,6.44-.73,.62-.07,.94-.39,.87-.86-.06-.46-.44-.7-1.02-.63-2.15,.24-4.3,.48-6.45,.73-.5,.06-.8,.39-.75,.83,.04,.42,.38,.68,.91,.67Zm-.1,3.75c.08,0,.16,0,.23-.02,2.12-.24,4.24-.48,6.35-.72,.58-.07,.89-.39,.83-.85-.06-.44-.42-.7-.97-.64-2.18,.24-4.36,.49-6.54,.74-.47,.05-.76,.4-.71,.82,.04,.4,.36,.68,.81,.68Z"/><path class="cls-2" d="M21.72,26.93h1.45c0,.11,.02,.24,.02,.38,0,5.05,0,10.1-.01,15.14,0,.27-.1,.61-.28,.79-.4,.4-1.08,.14-1.19-.43-.02-.11-.01-.22-.01-.33,0-5.06,0-10.13,0-15.19,0-.12,.01-.24,.02-.37Z"/><path class="cls-9" d="M7.47,32.97c0,.5,.01,1,0,1.49-.02,.83-.68,1.48-1.5,1.48-.81,0-1.48-.65-1.49-1.48-.02-1.01-.02-2.02,0-3.03,.01-.84,.68-1.48,1.49-1.47,.81,0,1.47,.64,1.49,1.48,.01,.51,0,1.03,0,1.54Z"/><path class="cls-9" d="M37.42,32.9c0-.48,0-.96,0-1.45,.02-.86,.68-1.51,1.52-1.5,.81,.01,1.46,.66,1.47,1.5,.01,1,.01,1.99,0,2.99-.01,.86-.69,1.51-1.52,1.5-.81-.01-1.45-.66-1.47-1.5-.01-.51,0-1.03,0-1.54Z"/><path class="cls-12" d="M8.97,24.17c0-.23,0-.41,0-.6,.01-.62,.33-.94,.95-.83,.87,.15,1.74,.33,2.59,.57,1.7,.48,3.38,1.02,5.08,1.53l-.04,.15c-2.85-.27-5.7-.54-8.59-.82Z"/><path class="cls-12" d="M35.88,24.18c-2.84,.27-5.66,.54-8.49,.81,0-.03-.02-.07-.03-.1,.83-.29,1.65-.61,2.5-.85,1.54-.43,3.09-.84,4.65-1.2,1.21-.28,1.49,0,1.37,1.34Z"/><path class="cls-4" d="M17.49,23.27c.49-.34,.92-.38,1.48-.11,2.3,1.09,4.63,1.06,6.95,.02,.73-.33,.73-.34,1.48,.09-1.02,.42-2.01,.83-3.01,1.24-.06,.02-.11,.05-.17,.07-.6,.26-1.2,.72-1.79,.72-.6,0-1.19-.48-1.79-.74-1.03-.43-2.07-.85-3.14-1.3Z"/><path class="cls-11" d="M22.45,20.97c-.81-.06-1.52-.37-2.06-1.01-.28-.33-.25-.74,.05-1.01,.3-.28,.64-.3,.97-.06,.1,.07,.19,.16,.28,.24,.54,.44,.95,.44,1.5,0,.08-.07,.16-.15,.25-.21,.35-.26,.73-.25,1.01,.03,.3,.29,.31,.71,.01,1.05-.53,.6-1.21,.9-2.02,.97Z"/><path class="cls-7" d="M20.19,15.4c0,.14,.02,.28,0,.42-.07,.4-.32,.63-.73,.65-.39,.02-.72-.27-.75-.68-.02-.29-.02-.59,0-.88,.03-.4,.36-.69,.75-.67,.41,.02,.66,.25,.73,.66,.03,.17,0,.34,0,.51Z"/><path class="cls-7" d="M26.19,15.34c0,.77-.23,1.12-.73,1.13-.52,.01-.77-.35-.77-1.14,0-.11,0-.22,0-.33,.03-.47,.33-.78,.75-.78,.42,0,.72,.32,.74,.79,0,.11,0,.22,0,.33Z"/><path class="cls-6" d="M27.47,11.98c-.75,0-1.5,0-2.25,0-.64,0-1.19-.22-1.64-.67-.65-.65-1.3-1.3-1.95-1.95-.51-.5-.85-.5-1.36,0-.63,.63-1.26,1.25-1.89,1.89-.5,.5-1.09,.76-1.8,.75-.53,0-1.06,0-1.59,0-.43,0-.75-.23-.77-.66-.07-1.64-.04-3.27,.64-4.82,1.47-3.36,4.85-5.33,8.34-4.95,3.85,.42,6.78,3.16,7.34,6.83,.14,.93,.11,1.9,.12,2.85,0,.48-.31,.76-.82,.76-.8,.01-1.59,0-2.39,0Z"/><path class="cls-10" d="M27.85,32.94c-.53,.02-.87-.25-.91-.67-.05-.43,.25-.77,.75-.83,2.15-.25,4.3-.49,6.45-.73,.58-.07,.96,.17,1.02,.63,.07,.47-.25,.79-.87,.86-2.16,.25-4.33,.49-6.44,.73Z"/><path class="cls-10" d="M27.75,36.69c-.45,0-.77-.27-.81-.68-.04-.42,.24-.76,.71-.82,2.18-.25,4.36-.5,6.54-.74,.55-.06,.91,.2,.97,.64,.06,.46-.25,.79-.83,.85-2.12,.24-4.23,.48-6.35,.72-.08,0-.16,.01-.23,.02Z"/></svg>