<?xml version="1.0" encoding="UTF-8"?><svg xmlns="http://www.w3.org/2000/svg" xmlns:xlink="http://www.w3.org/1999/xlink" viewBox="0 0 700 500"><defs><style>.cls-1{fill:#4a2d25;}.cls-2{fill:#c78671;}.cls-3{fill:#fff;}.cls-4{fill:#a37953;}.cls-5{fill:#5c5c5c;}.cls-6,.cls-7,.cls-8,.cls-9,.cls-10,.cls-11,.cls-12{mix-blend-mode:multiply;}.cls-6,.cls-8{opacity:.2;}.cls-6,.cls-10,.cls-11,.cls-12{fill:#504587;}.cls-13{isolation:isolate;}.cls-14{fill:#c73a3a;}.cls-15{fill:#f59ec7;}.cls-16{fill:#6388c7;}.cls-17{fill:#fdc151;}.cls-18{clip-path:url(#clippath-1);}.cls-7{fill:#486eb5;}.cls-7,.cls-11{opacity:.1;}.cls-19{fill:#402f2a;}.cls-8,.cls-9{fill:#5b4484;}.cls-9{opacity:.07;}.cls-20{fill:#c4e7ff;}.cls-21{fill:#d9654e;}.cls-22{clip-path:url(#clippath);}.cls-23{fill:none;}.cls-24{fill:#2e2e2e;}.cls-25{fill:#d6a28d;}.cls-26{fill:#f7eee6;}.cls-27{fill:#e8b431;}.cls-10{opacity:.14;}.cls-28{fill:#191919;}.cls-29{fill:#d1a66a;}.cls-30{fill:#73584b;}.cls-31{fill:#cc9881;}.cls-12{opacity:.25;}.cls-32{fill:#fff6ed;}</style><clipPath id="clippath"><rect class="cls-23" width="700" height="500"/></clipPath><clipPath id="clippath-1"><rect class="cls-23" x="-.2" y="276.72" width="334.8" height="223.28"/></clipPath></defs><g class="cls-13"><g id="BACKGROUND"><rect class="cls-20" width="700" height="500"/></g><g id="OBJECTS"><g class="cls-22"><path class="cls-11" d="M-4.96-9.67c13.4-2.16,13.59,192.06,130.76,247.04,64.33,30.18,121.77-1.38,170.97,46.68,34.64,33.84,18.84,61.86,51.89,111.64,57.97,87.33,165.51,89.86,163.14,105.57-3.48,23.03-360.77,65.24-525.1-74.16C-201.46,267.46-21.1-7.07-4.96-9.67Z"/><path class="cls-11" d="M685.6-260.04c12.92-4.15,42.23,187.85,166.32,224.64,68.13,20.2,120.19-19.62,176.04,20.52,39.32,28.26,27.91,58.34,68.04,102.6,70.41,77.65,177.11,64.03,177.12,79.92,0,23.29-346.91,118.59-530.28,5.4-209.97-129.61-72.81-428.08-57.24-433.08Z"/><g><path class="cls-32" d="M-54.2,154.68c-15.02-30.04,11.41-102.83,69.12-105.84,65.4-3.41,101.72,81.45,86.88,103.64-4.64,6.93-17.61,10.47-25.04,7.03-18.42-8.53-21.06-68.49,18.77-83.63,18.44-7.01,46.75-4.71,61.85,9.93,25.87,25.07-2.51,70.51-15.66,69.84-5.81-.3-12.51-9.83-9.84-14.8,5.2-9.7,49.46-8.32,59.16,5.97,12.42,18.3-31.29,58.58-36.58,56.1-2.84-1.34,.57-17.3,9.34-19.11,15.47-3.2,56.44,35.77,43.09,56.16-9.33,14.25-40.72,12.62-42.22,12.53-7.57-.47-22.15-2.63-23-6.92-.95-4.78,14.85-13.43,28.88-10.92,12.39,2.22,20.38,12.6,32.89,28.85,8.15,10.59,5.87,11.76,10.79,15.82,14.29,11.81,18.69-6.02,35.04,3.87,13.76,8.32,7.68,17.46,24.52,33.86,14.9,14.51,45.42,34.83,44.6,36.34-1.04,1.92-42-20.93-71.14-33.99-38.91-17.43-29.38-18.19-63.96-37.48-52.03-29.01-83.44-26.5-127.34-55.97-27.43-18.41-10.47-18.81-36.72-35.64,0,0-54,3.24-73.44-35.64Z"/><path class="cls-7" d="M19.24,190.32c26.25,16.83,9.29,17.23,36.72,35.64,43.9,29.47,75.31,26.96,127.34,55.97,34.59,19.29,25.06,20.05,63.96,37.48,29.14,13.06,70.1,35.9,71.14,33.99,.21-.4-1.73-2.09-4.97-4.62-44.06-27.01-125.11-76.9-142.99-89.34-24.84-17.28-15.12-32.4-15.12-32.4,0,0-17.28,2.16-46.44-9.72-29.16-11.88,3.24-38.88,3.24-38.88,0,0-8.64,5.4-50.76,1.08-42.12-4.32-23.76-34.56-23.76-34.56-47.29-6.39-63.57-44.55-68.98-74.64-24.28,24.65-32.92,64.16-22.82,84.36,19.44,38.88,73.44,35.64,73.44,35.64Z"/></g><g><path class="cls-32" d="M543.23,121.6c-11.75-23.5,8.92-80.42,54.06-82.77,51.15-2.67,79.55,63.7,67.94,81.06-3.63,5.42-13.77,8.18-19.58,5.49-14.41-6.67-16.47-53.56,14.68-65.4,14.42-5.48,36.56-3.68,48.37,7.77,20.23,19.61-1.96,55.14-12.25,54.62-4.55-.23-9.78-7.68-7.7-11.57,4.07-7.59,38.68-6.5,46.26,4.67,9.71,14.31-24.47,45.82-28.6,43.87-2.22-1.05,.45-13.53,7.31-14.95,12.1-2.5,44.14,27.98,33.7,43.92-7.29,11.14-31.85,9.87-33.01,9.8-5.92-.36-17.32-2.06-17.99-5.41-.74-3.74,11.61-10.5,22.59-8.54,9.69,1.73,15.94,9.85,25.73,22.56,6.38,8.28,4.59,9.2,8.43,12.37,11.18,9.24,14.61-4.71,27.4,3.03,10.76,6.51,6.01,13.66,19.18,26.48,11.66,11.35,35.52,27.24,34.88,28.42-.81,1.5-32.84-16.37-55.63-26.58-30.43-13.63-22.97-14.23-50.02-29.31-40.69-22.69-65.25-20.73-99.59-43.77-21.45-14.4-8.19-14.71-28.72-27.87,0,0-42.23,2.53-57.43-27.87Z"/><path class="cls-7" d="M600.67,149.48c20.53,13.16,7.26,13.47,28.72,27.87,34.33,23.05,58.89,21.08,99.59,43.77,27.05,15.08,19.6,15.68,50.02,29.31,22.79,10.21,54.82,28.08,55.63,26.58,.17-.31-1.36-1.63-3.89-3.62-34.46-21.12-97.85-60.14-111.82-69.87-19.43-13.51-11.82-25.34-11.82-25.34,0,0-13.51,1.69-36.32-7.6-22.8-9.29,2.53-30.41,2.53-30.41,0,0-6.76,4.22-39.7,.84-32.94-3.38-18.58-27.03-18.58-27.03-36.99-5-49.72-34.84-53.95-58.37-18.99,19.27-25.74,50.18-17.84,65.97,15.2,30.41,57.43,27.87,57.43,27.87Z"/></g><g><path class="cls-32" d="M832.16,588.84c26.11-2.92,62.63-51.22,40.06-90.38-25.58-44.37-96.72-32.11-104.97-12.93-2.58,5.99,.62,16.01,6.04,19.42,13.44,8.46,53.9-15.31,46.9-47.89-3.24-15.08-16.79-32.68-32.83-36.37-27.46-6.31-45.2,31.64-39.17,39.98,2.67,3.69,11.77,4.03,13.9,.17,4.16-7.54-15.58-36-29.08-36.28-17.29-.37-25.14,45.46-21.26,47.86,2.08,1.29,11.11-7.73,8.57-14.26-4.48-11.51-47.48-21.83-55.19-4.39-5.38,12.18,9.04,32.09,9.73,33.03,3.53,4.77,11.15,13.41,14.33,12.15,3.54-1.41,2.49-15.46-5.12-23.6-6.73-7.19-16.94-8.02-32.92-9.32-10.42-.85-10.22,1.15-14.97-.35-13.83-4.36-4-14.82-17.44-21.35-11.32-5.49-14.73,2.39-32.65-1.69-15.86-3.61-42.18-14.99-42.82-13.81-.81,1.5,31.6,18.66,52.56,32.23,27.99,18.12,24.44,11.54,51.81,26.04,41.17,21.81,52.88,43.49,90.89,59.76,23.75,10.17,16.8-1.13,39.01,8.94,0,0,20.84,36.82,54.63,33.04Z"/><path class="cls-7" d="M777.53,555.8c-22.21-10.07-15.25,1.23-39.01-8.94-38.01-16.28-49.72-37.96-90.89-59.76-27.37-14.5-23.82-7.92-51.81-26.04-20.96-13.57-53.38-30.73-52.56-32.23,.17-.31,2.11,.25,5.15,1.3,36.47,17.43,103.69,49.4,119.45,55.84,21.91,8.95,27.69-3.86,27.69-3.86,0,0,5.93,12.26,26.13,26.34,20.2,14.08,24.14-18.66,24.14-18.66,0,0,.13,7.97,20.88,33.77s32.79,.89,32.79,.89c24.31,28.32,56.27,22.77,78.32,13.53-5.85,26.42-28.11,48.89-45.66,50.85-33.78,3.78-54.63-33.04-54.63-33.04Z"/></g><g><path class="cls-32" d="M207.35,4.96c-11.75-23.5,8.92-80.42,54.06-82.77,51.15-2.67,79.55,63.7,67.94,81.06-3.63,5.42-13.77,8.18-19.58,5.49-14.41-6.67-16.47-53.56,14.68-65.4,14.42-5.48,36.56-3.68,48.37,7.77,20.23,19.61-1.96,55.14-12.25,54.62-4.55-.23-9.78-7.69-7.7-11.57,4.07-7.59,38.68-6.5,46.26,4.67,9.71,14.31-24.47,45.82-28.6,43.87-2.22-1.05,.45-13.53,7.31-14.95,12.1-2.5,44.14,27.98,33.7,43.92-7.29,11.14-31.85,9.87-33.01,9.8-5.92-.36-17.32-2.06-17.99-5.41-.74-3.74,11.61-10.5,22.59-8.54,9.69,1.73,15.94,9.85,25.73,22.56,6.38,8.28,4.59,9.2,8.43,12.37,11.18,9.24,14.61-4.71,27.4,3.03,10.76,6.51,6.01,13.66,19.18,26.48,11.66,11.35,35.52,27.24,34.88,28.42-.81,1.5-32.84-16.37-55.63-26.58-30.43-13.63-22.97-14.23-50.02-29.31-40.69-22.69-65.25-20.73-99.59-43.77-21.45-14.4-8.19-14.71-28.72-27.87,0,0-42.23,2.53-57.43-27.87Z"/><path class="cls-7" d="M264.79,32.84c20.53,13.16,7.26,13.47,28.72,27.87,34.33,23.05,58.89,21.08,99.59,43.77,27.05,15.08,19.6,15.68,50.02,29.31,22.79,10.21,54.82,28.08,55.63,26.58,.17-.31-1.36-1.63-3.89-3.62-34.46-21.12-97.85-60.14-111.82-69.87-19.43-13.51-11.82-25.34-11.82-25.34,0,0-13.51,1.69-36.32-7.6-22.8-9.29,2.53-30.41,2.53-30.41,0,0-6.76,4.22-39.7,.84-32.94-3.38-18.58-27.03-18.58-27.03-36.99-5-49.72-34.84-53.95-58.37-18.99,19.27-25.74,50.18-17.84,65.97,15.2,30.41,57.43,27.87,57.43,27.87Z"/></g></g><g><path class="cls-17" d="M525.8,277.76s32.73,15.18,33.12,32.85l-18.83-5.7-14.28-27.15Z"/><g><path class="cls-2" d="M462.62,301.82l-123.6,44.96s252.3,52.95,267.25,44.32-143.65-89.27-143.65-89.27Z"/><path class="cls-4" d="M462.62,301.82l-123.6,44.96s252.3,52.95,267.25,44.32-143.65-89.27-143.65-89.27Z"/><path class="cls-8" d="M352.98,349.67c48.85,10.06,211.14,42.89,246.95,42.37-24.7-22.63-140.02-81.26-140.02-81.26l-106.93,38.89Z"/><polygon class="cls-2" points="576.05 312.91 348.22 243.9 293.92 257.76 521.75 326.76 576.05 312.91"/><polygon class="cls-4" points="576.05 312.91 348.22 243.9 293.92 257.76 521.75 326.76 576.05 312.91"/><polygon class="cls-8" points="521.75 326.76 570.41 314.3 351.39 247.81 302.72 260.27 521.75 326.76"/><g><g><g><g><path class="cls-31" d="M490.1,227.85l-18.3-21.86c-25.23,19.04-67,42.69-67.49,42.87l5.86,18.89c2.12-.77,52.3-19.05,79.93-39.9Z"/><g><path class="cls-31" d="M507.51,168.33l-8.36,43.23c-1.09,5.64-4.03,12.38-8.58,15.88-7.56,5.81-26.03,4.83-19.03-21.05l24.29-45.22,11.68,7.15Z"/><path class="cls-10" d="M440.12,230.76c8.48-3.34,29.15-16.14,29.15-16.14,4.73-17.61,28.93-49.42,28.93-49.42l-3-2.85-23.48,43.73c-19.07,13.36-35.95,25.85-56.59,34.49-2.72,1.11-5.14,2.07-7.15,2.86-1.01,.39-1.92,.75-2.72,1.05,.89-.19,1.86-.4,2.9-.63,1.39,3.26,4.13,13.17,3.38,23.58,1.77-.66,17.41-7.16,20.91-8.55,.18-9.05-.78-11.48,2.37-22.21,2.54-.59,8.38,9.54,7.14,18.04,10.01-4.51,21.1-9.94,31.3-15.85-12.02,5.55-30.97,6.41-33.13-8.1Z"/><path class="cls-31" d="M499.97,168.7s-8.27,.59-9.95-7.71c-1.69-8.31,.42-13.85,.29-18.34-.12-4.49-2.27-7.16-.57-8,1.7-.83,4.51,.15,5.27,4.04,.46,2.39,1.67,5.41,2.54,7.4,.35,.81,1.5,.81,1.85,0,.79-1.82,1.87-4.28,2.3-5.07,.7-1.29,2.75-8.97,3.53-14.09,.78-5.11,3.51-5.08,4.39-2.84,.88,2.24-2.25,18.56-1.44,19.99,.81,1.43,4.26-4.33,7.03-10.03,2.77-5.7,5.66-10.05,7.39-7.47,1.52,2.27-1.4,7.35-3.5,11.36-2.1,4-4.63,8.93-3.27,9.29,.83,.22,10.92-12.28,12.96-12.33,2.04-.04,2.97,1.24,1.32,4.11-1.66,2.87-11.19,12.31-9.95,13.97,1.24,1.66,11.66-5.39,13.58-3.79,1.91,1.6-1.71,5.33-6.44,7.39-4.73,2.05-6.37,3.56-6.94,4.84-.57,1.28-9.2,19.39-20.36,7.29Z"/><path class="cls-28" d="M498.81,150.14c.74,.92,1.27,1.99,1.68,3.1,.41,1.11,.68,2.28,.81,3.46,.12,1.18,.13,2.38-.05,3.55-.14,1.18-.5,2.32-.97,3.39,.07-1.18,.2-2.31,.19-3.45,.02-1.13-.03-2.26-.16-3.39-.23-2.25-.76-4.45-1.49-6.67Z"/><path class="cls-28" d="M505.5,172.29c-1.14,.01-2.28-.37-3.27-.96-1.01-.58-1.88-1.35-2.66-2.18l.4,.16c-.62,.02-1.17-.03-1.74-.12-.56-.11-1.12-.25-1.65-.47-1.07-.41-2.04-1.09-2.73-1.96,.49,.27,.95,.54,1.46,.73,.49,.21,1,.37,1.51,.5,.51,.12,1.02,.23,1.55,.27,.51,.06,1.06,.09,1.53,.06l.24-.02,.16,.17c1.47,1.59,3.08,3.02,5.2,3.81Z"/></g><path class="cls-28" d="M471.79,205.99c-.62,2.33-1.11,4.63-1.36,6.96-.15,1.16-.2,2.33-.21,3.5-.03,1.18,.08,2.35,.13,3.57-.46-1.12-.79-2.31-.91-3.52-.15-1.21-.14-2.44,0-3.66,.15-1.21,.39-2.41,.78-3.57,.39-1.15,.88-2.27,1.57-3.28Z"/></g><g><path class="cls-31" d="M356.25,247.48l9.41-17.4c-.45-.27-36.85-31.56-57.91-55.13l-22.19,17.9c23.06,25.81,68.75,53.46,70.69,54.63Z"/><g><path class="cls-31" d="M280.01,131.08l-.18,44.03c-.02,5.74,1.55,12.93,5.34,17.24,6.29,7.17,24.6,9.78,22.74-16.96l-15.07-49.07-12.84,4.76Z"/><path class="cls-10" d="M307.34,184.58s22.51,23.91,30.75,27.63c1.01,11.14-.4,13.34-1.97,22.25,3.17,2.04,17.25,11.44,18.86,12.44,1.27-10.36,5.89-19.54,7.88-22.48,.98,.43,1.89,.82,2.73,1.18-.72-.45-1.55-.98-2.47-1.56-1.83-1.16-4.01-2.58-6.47-4.19-18.58-12.48-33.54-28.19-48.8-44.65l.06,.2-14.67-47.8,8.03,35.92s4.84,2.86,6.07,21.06Zm-26.52-1.29c.85,3.42,2.26,6.68,4.36,9.07,.14,.15,.28,.3,.43,.45l-.04,.04c9.71,10.86,23.42,22.05,36.19,31.45,3.23-7.21,8.25-15.21,10.26-18.31-13.61,19.28-42.17-11.92-51.19-22.7Z"/><path class="cls-31" d="M287.33,132.91s8,2.18,11.26-5.64c3.26-7.82,2.27-13.66,3.27-18.05,.99-4.38,3.61-6.59,2.11-7.74-1.51-1.15-4.46-.73-5.95,2.94-.92,2.25-2.69,4.99-3.92,6.76-.5,.72-1.63,.5-1.81-.36-.42-1.94-1-4.56-1.27-5.42-.44-1.4-.96-9.34-.74-14.5,.23-5.17-2.46-5.67-3.75-3.64s-1.39,18.64-2.46,19.89c-1.07,1.25-3.34-5.07-4.95-11.2-1.61-6.13-3.61-10.95-5.8-8.76-1.93,1.93-.05,7.48,1.23,11.82,1.29,4.34,2.82,9.66,1.41,9.75-.86,.05-8.33-14.17-10.33-14.6-1.99-.44-3.16,.64-2.09,3.78,1.07,3.14,8.59,14.24,7.06,15.63-1.54,1.39-10.4-7.55-12.59-6.35-2.19,1.2,.65,5.56,4.89,8.5,4.24,2.93,5.56,4.73,5.87,6.09,.31,1.36,5.27,20.81,18.56,11.09Z"/><path class="cls-28" d="M292.07,114.92c-1.15,2.04-2.09,4.1-2.76,6.26-.34,1.07-.62,2.17-.82,3.29-.23,1.12-.32,2.25-.48,3.42-.26-1.14-.38-2.33-.3-3.52,.05-1.19,.29-2.36,.64-3.5,.36-1.13,.84-2.23,1.46-3.24,.61-1.01,1.34-1.96,2.25-2.72Z"/><path class="cls-28" d="M281.22,135.36c2.23-.37,4.09-1.46,5.84-2.73l.19-.14,.23,.06c.46,.12,1,.19,1.52,.24,.52,.05,1.04,.05,1.57,.03,.52-.02,1.05-.08,1.57-.19,.53-.09,1.04-.27,1.57-.43-.85,.73-1.93,1.2-3.05,1.4-.56,.11-1.14,.14-1.71,.14-.58-.02-1.13-.08-1.73-.22l.43-.08c-.93,.66-1.93,1.25-3.03,1.62-1.09,.38-2.28,.53-3.4,.3Z"/></g><path class="cls-28" d="M307.75,174.95c.48,1.12,.75,2.31,.91,3.52,.16,1.21,.17,2.43,.08,3.65-.1,1.22-.32,2.43-.71,3.59-.35,1.17-.91,2.27-1.57,3.28,.29-1.18,.62-2.31,.82-3.47,.22-1.15,.39-2.31,.47-3.48,.21-2.33,.16-4.68,.01-7.09Z"/></g><path class="cls-15" d="M379.22,224.59s-30.19-27.41-43.96-21.14c0,0-13.57,10.19-17.21,30.73-1.79,10.13-.57,7.77,4.83,20.35l-19.48,41.3s53.52,39.69,112.24,39.89l5.99-57.92s9.42,.9,17.82-4.72c3.5-2.34,4.28-19.38,4.14-43.53,0-1.57-.99-2.97-2.46-3.54-5.74-2.23-22.64-6.43-61.9-1.43Z"/><path class="cls-6" d="M421.62,277.8s9.42,.9,17.82-4.72c1.33-.89,2.26-3.89,2.9-8.59-6.25,3.07-16.43,7.86-19.74,8.09-1.79,.13-1.78,2.72-1.06,5.95l.08-.73Z"/></g><path class="cls-12" d="M406.97,256.48s-19.71,10.44-31.75,19.18c9.08-3.34,24.89-7.65,31.75-19.18Z"/><path class="cls-12" d="M389.36,280.48s22.74-14.53,27.05-31.86c0,0-12.52,18.54-27.05,31.86Z"/><path class="cls-6" d="M349.05,219.73s12.16,35.66,25.85,34.8c13.69-.86,15.7,1.16,1.48-8.97-14.22-10.13-27.33-25.84-27.33-25.84Z"/><g><path class="cls-31" d="M389.67,226.05h0c-5.31,1.51-10.81,.13-14.86-3.73l-.08-.07,4.42-18.69,14.94,3.8-4.42,18.69Z"/><path class="cls-12" d="M389.67,226.05h0c-5.31,1.51-10.81,.13-14.86-3.73l-.08-.07,4.42-18.69,14.94,3.8-4.42,18.69Z"/><path class="cls-28" d="M373.54,221.12c1.23,.96,2.54,1.78,3.87,2.52,1.34,.72,2.74,1.33,4.18,1.76,1.43,.47,2.93,.71,4.44,.78,1.52,.12,3.04-.09,4.59-.31-1.44,.59-2.99,1.07-4.59,1.09l-.6,.04c-.2,0-.4-.02-.6-.03-.4-.03-.8-.04-1.2-.09-.79-.14-1.58-.28-2.34-.52-3.05-.95-5.82-2.78-7.76-5.24Z"/><g><g><path class="cls-31" d="M444.44,190.62c-1.23,5.19-5.86,8.47-10.34,7.33-4.48-1.14-7.11-6.27-5.89-11.46,1.23-5.19,5.86-8.47,10.33-7.33,4.48,1.14,7.11,6.27,5.89,11.46Z"/><path class="cls-6" d="M435.34,193.27c-4.41-1.12-7.02-6.11-5.93-11.22-.72,1.05-1.27,2.26-1.59,3.61-1.23,5.19,1.41,10.32,5.89,11.46s9.11-2.14,10.33-7.33c.02-.08,.03-.17,.05-.25-2.04,2.98-5.43,4.56-8.75,3.72Z"/><path class="cls-28" d="M441.54,186.05c-1.15,.3-2.19,.77-3.07,1.43-.44,.32-.84,.7-1.18,1.12-.36,.4-.62,.88-.89,1.35l-.3-.69c.49,.16,.94,.34,1.39,.58,.44,.23,.87,.52,1.25,.89,.37,.35,.72,.91,.63,1.51-.1,.59-.54,.92-.93,1.19,.26-.4,.52-.82,.48-1.21-.04-.38-.32-.68-.66-.93-.7-.48-1.58-.82-2.42-1.08l-.55-.17,.25-.52c.54-1.13,1.42-2.12,2.51-2.73,1.08-.61,2.33-.9,3.52-.74Z"/></g><g><path class="cls-31" d="M339.76,166.67c-1.23,5.19,1.41,10.32,5.89,11.46,4.48,1.14,9.11-2.14,10.34-7.33,1.23-5.19-1.41-10.32-5.89-11.46-4.48-1.14-9.11,2.14-10.33,7.33Z"/><path class="cls-6" d="M346.49,173.27c4.41,1.12,8.95-2.04,10.27-7.09,.17,1.27,.11,2.62-.21,3.97-1.23,5.19-5.86,8.47-10.33,7.33-4.48-1.14-7.11-6.27-5.89-11.46,.02-.08,.05-.16,.07-.24,.48,3.62,2.78,6.65,6.09,7.5Z"/><path class="cls-28" d="M344.37,164.01c1.13,.43,2.11,1.28,2.8,2.34,.69,1.06,1.03,2.35,1,3.62v.59s-.6-.12-.6-.12c-.86-.17-1.79-.3-2.63-.21-.42,.06-.8,.19-1,.52-.21,.34-.16,.82-.11,1.3-.22-.41-.46-.9-.3-1.47,.18-.58,.75-.92,1.24-1.05,1.02-.28,2.01-.22,3.01-.04l-.6,.47c-.03-.55-.05-1.1-.19-1.64-.12-.54-.3-1.06-.55-1.56-.48-1.01-1.2-1.93-2.07-2.75Z"/></g><ellipse class="cls-31" cx="393" cy="178.5" rx="40.77" ry="43.62" transform="translate(85.58 481.5) rotate(-69.01)"/><path class="cls-1" d="M428.52,168.58s3.87,21.81,4.54,22.36c.68,.56,6.27-11.58,6.27-11.58l.44-7.21-11.25-3.58Z"/><path class="cls-28" d="M377.22,216.16c2.28,.92,4.52,1.76,6.83,2.36,1.15,.33,2.32,.54,3.5,.73,1.18,.19,2.37,.23,3.61,.3-1.18,.35-2.43,.52-3.68,.48-1.24-.04-2.49-.21-3.69-.54-1.2-.33-2.37-.76-3.47-1.31-1.1-.55-2.17-1.2-3.1-2.02Z"/><path class="cls-6" d="M431.52,198.3c-10.26,9.85-27.3,15.63-50.36,10-21.76-5.31-29.52-28.56-30.93-33.47-.2,18.99,13.56,36.78,33.86,41.95,19.3,4.91,38.45-3.13,47.43-18.48Z"/><g><path class="cls-28" d="M393.87,187.2c1.27-.91,2.7-1.63,4.29-1.98,.79-.15,1.64-.24,2.5-.01,.43,.11,.85,.3,1.22,.57,.37,.29,.65,.65,.87,1.06,.45,.83,.38,1.86,.04,2.64-.33,.8-.85,1.45-1.41,2.02-1.15,1.12-2.52,2.01-4.04,2.42,1.38-.72,2.53-1.77,3.5-2.9,.47-.57,.88-1.2,1.11-1.85,.23-.65,.23-1.32-.07-1.87-.6-1.19-2.13-1.44-3.58-1.24-1.47,.18-2.96,.63-4.43,1.15Z"/><path class="cls-19" d="M372.35,176.19c-.12,.58,.05,1.27,.47,1.71,.86,.9,2.52,.48,4.96-.14,1.95-.5,2.97-.77,3.13-1.48,.18-.79-.79-1.73-1.59-2.18-2.44-1.37-6.54,.07-6.97,2.09Z"/><path class="cls-19" d="M414.58,181.09c-.44,.4-.7,1.06-.61,1.66,.18,1.24,1.77,1.86,4.12,2.77,1.88,.73,2.86,1.1,3.4,.61,.61-.54,.36-1.87-.03-2.69-1.19-2.53-5.37-3.74-6.88-2.35Z"/><g><path class="cls-28" d="M378.66,200.95c-.51-.72-1.33-2.71-1.28-4.65,.07-2.96,3.66-4.35,5.72-2.24,2.25,2.3,4.78,5.57,10.23,5.35,2.71-.03,3.81,.92,3.35,2.2-3.52,9.59-16.58,3.11-18.02-.67Z"/><path class="cls-3" d="M384.42,195.43s-2.21,2.05-.99,2.91,2.25,.51,2.25,.51c0,0-.25,1.36,1.34,1.93,1.58,.57,2.72-1.76,2.72-1.76,0,0-2.71-1.22-5.32-3.59Z"/></g></g><path class="cls-28" d="M375.27,185.13c.04-.98,.46-1.93,1.27-2.67,.41-.35,.93-.66,1.53-.77,.3-.07,.6-.09,.89-.06,.3,.01,.59,.06,.86,.16,.57,.15,.99,.47,1.44,.76,.37,.35,.75,.69,1.02,1.09,.27,.4,.53,.81,.72,1.25,.17,.45,.34,.89,.42,1.38-.45-.23-.82-.5-1.18-.76-.35-.28-.74-.48-1.06-.74-.34-.25-.69-.43-1-.65-.33-.14-.64-.35-.95-.41-.6-.19-1.13-.2-1.81,.06-.68,.26-1.37,.78-2.14,1.37Z"/><path class="cls-28" d="M417.49,192.95c-.53-.75-1-1.41-1.52-1.81-.53-.4-.94-.48-1.52-.45-.27-.02-.61,.11-.94,.15-.34,.13-.7,.19-1.06,.34-.75,.24-1.5,.57-2.43,.76,.39-.84,.94-1.55,1.65-2.13,.33-.31,.77-.52,1.18-.76,.47-.16,.92-.37,1.49-.37,.27-.02,.54-.03,.84,.05,.29,.05,.56,.13,.82,.28,.54,.25,.93,.7,1.2,1.14,.51,.92,.58,1.9,.29,2.78Z"/></g></g><path class="cls-31" d="M332.01,205.99c.3-.42,.59-.87,.88-1.34,0,0-.33,.49-.88,1.34Z"/></g><path class="cls-6" d="M415.64,335.72l4.73-45.81c-26.27-2.17-62.53-15.26-90.41-26.88,3.44-8.69,6.45-15.23,7.93-16.59,4.58-4.18-2.26,1.09-8.05,1.78-4.02,.48-6.91-15.82-8.3-25.85-1.47,3.46-2.71,7.39-3.49,11.8-1.79,10.13-.57,7.77,4.83,20.35l-2.16,4.58h0l-1.43,3.03-15.89,33.69h0s.16,.12,.46,.34c0,0,.01,0,.02,.01,1.25,.9,4.94,3.49,10.56,6.94,.02,.01,.04,.02,.06,.03,.46,.28,.93,.57,1.41,.86,0,0,0,0,.01,0h0c19.22,11.63,58.17,31.55,99.72,31.69Z"/><path class="cls-19" d="M353.34,163.08s-4.43,13.88,.3,10.81c4.73-3.07,15.33-19.39,15.33-19.39,0,0-3.71-11.06-7.65-2.61-3.94,8.44,26.27,25.91,41.69,21.82,15.42-4.09-5.38-19.58-3.06-12.12,2.32,7.45,23.52,28.22,36.22,9.66s-15.11-5.18-6.22,1.69c8.89,6.88,20.77,2.44,17.46-11.24-4.35-17.95-33.64-45-43.06-31.65,0,0-10.06-13.25-25.33-10.64-25.96,4.45-24.26,30.45-15.34,26.61,8.93-3.84-28.24-6.65-10.32,17.06Z"/><path class="cls-19" d="M361.97,146.06c-1.21-.91-2.4-1.69-3.62-2.34-1.22-.65-2.49-1.1-3.77-1.34-1.28-.23-2.61-.3-3.95-.04-.69,.05-1.34,.3-2.05,.44-.69,.18-1.36,.47-2.12,.64,.51-.54,1.07-1.07,1.7-1.53,.66-.38,1.3-.85,2.07-1.06,1.46-.6,3.15-.72,4.73-.42,1.59,.29,3.07,1.03,4.27,2.02,1.2,.99,2.19,2.21,2.75,3.64Z"/><path class="cls-19" d="M404.43,130.14c-.9-2.12-1.99-4.06-3.31-5.8-1.33-1.72-2.85-3.27-4.65-4.42-.41-.35-.9-.56-1.36-.84l-.7-.4c-.23-.13-.5-.2-.74-.32l-1.48-.65c-.52-.14-1.04-.31-1.56-.48l-.79-.25-.81-.16-1.63-.35c-1.1-.19-2.23-.27-3.37-.5,1.12-.21,2.27-.4,3.43-.48l1.75,.03,.88,.03,.87,.15c2.36,.27,4.61,1.27,6.63,2.55,.48,.37,.98,.7,1.43,1.09,.43,.41,.88,.82,1.3,1.24l1.13,1.39c.36,.48,.65,1,.97,1.5,1.18,2.05,1.91,4.35,2.01,6.66Z"/><path class="cls-19" d="M402.55,131.66c.86-1.07,1.63-2.1,2.21-3.16,.58-1.06,.88-2.13,.77-3.15-.11-1.02-.62-2.02-1.32-3.02l-1.21-1.45c-.45-.47-.91-.94-1.34-1.5,.66,.18,1.29,.45,1.93,.72,.6,.34,1.19,.72,1.75,1.17,1.05,.95,2.01,2.27,2.17,3.9,.18,1.63-.54,3.18-1.49,4.24-.96,1.08-2.15,1.87-3.48,2.26Z"/><path class="cls-30" d="M394.16,139.82c-.78,.92-7.79-3.74-14.76-8.37-.23-.16-1.79-1.2-1.68-1.4,.3-.54,11.82,6.85,13.92,4.75,1.25-1.25-.78-5.89-4.18-8.41-1.34-1-3.05-1.38-3-1.57,.07-.25,3.01,.43,4.04,.72,8.43,2.36,13.39,11.68,13.24,11.79-.11,.08-2.8-4.47-5.49-4.17-1.58,.18-2.96,2-2.99,3.72-.04,1.7,1.25,2.55,.91,2.94Z"/><path class="cls-30" d="M434.34,162.6c-1.05,.59-6.01-6.21-10.93-12.98-.17-.23-1.26-1.75-1.09-1.89,.47-.4,8.71,10.53,11.4,9.29,1.6-.74,1.31-5.8-1-9.34-.91-1.4-2.38-2.36-2.27-2.52,.15-.21,2.67,1.45,3.54,2.08,7.09,5.14,8.5,15.6,8.32,15.65-.13,.04-1.07-5.17-3.7-5.82-1.54-.38-3.47,.85-4.1,2.45-.62,1.58,.29,2.82-.16,3.07Z"/><path class="cls-30" d="M399.12,167.07c-.79,.89-5.98-3.38-11.13-7.62-.17-.14-1.32-1.1-1.2-1.29,.33-.52,8.89,6.24,10.97,4.19,1.23-1.21,.22-5.59-2.25-7.9-.98-.92-2.36-1.25-2.28-1.43,.1-.24,2.46,.34,3.28,.59,6.72,2.05,9.49,10.8,9.35,10.91-.11,.08-1.68-4.19-3.99-3.84-1.35,.2-2.78,1.97-3.07,3.61-.28,1.62,.67,2.39,.33,2.78Z"/></g><g><path class="cls-17" d="M515.08,271.75s-42.59-10.89-83.82,35.8l77.45,25.8,35.26,.31s16.16-41.75-28.89-61.91Z"/><g><g><path class="cls-25" d="M518.23,283.56h0c-4.92-1.21-8.68-4.81-10.16-9.73l-.03-.09,12.02-12.89,10.18,9.82-12.02,12.89Z"/><path class="cls-12" d="M518.23,283.56h0c-4.92-1.21-8.68-4.81-10.16-9.73l-.03-.09,12.02-12.89,10.18,9.82-12.02,12.89Z"/><path class="cls-28" d="M507.61,272.3c.56,1.32,1.24,2.56,1.97,3.76,.75,1.18,1.58,2.3,2.53,3.29,.93,1.02,2.01,1.89,3.17,2.64,1.15,.79,2.45,1.32,3.78,1.87-1.42-.17-2.88-.48-4.17-1.19-.34-.15-.66-.32-.96-.54-.3-.21-.62-.39-.92-.62-.57-.47-1.14-.94-1.64-1.48-2-2.15-3.38-4.88-3.78-7.74Z"/><g><ellipse class="cls-25" cx="548.73" cy="244.17" rx="37.03" ry="37.69" transform="translate(-31.43 88.82) rotate(-9)"/><path class="cls-28" d="M517.41,264.07c1.3,1.85,2.59,3.62,4.04,5.26,.71,.84,1.49,1.59,2.29,2.34,.8,.75,1.68,1.4,2.58,2.1-1.08-.32-2.14-.82-3.07-1.49-.94-.66-1.8-1.43-2.55-2.29-.75-.87-1.42-1.79-1.98-2.78-.56-.99-1.03-2.03-1.31-3.14Z"/><path class="cls-6" d="M576.4,269.01c-10.88,6.76-26.49,8.63-44.5-.74-16.99-8.84-18.11-30.88-18.15-35.49-4.56,16.76,2.84,35.11,18.65,43.55,15.03,8.02,32.93,4.55,44-7.32Z"/><g><path class="cls-25" d="M578.27,260.65s6.05-1.66,7.4,1.27c1.35,2.93-3.73,6.2-8.82,5.41"/><path class="cls-28" d="M569.33,240.18c-.24,.49-.23,1.15,.04,1.63,.57,.99,2.14,.98,4.46,.96,1.85-.02,2.81-.04,3.11-.64,.33-.67-.33-1.72-.94-2.29-1.88-1.75-5.85-1.36-6.67,.34Z"/><path class="cls-28" d="M556.69,260.17c.81,1.47,1.77,2.83,2.8,4.1,1.05,1.26,2.21,2.41,3.51,3.38,1.27,1,2.71,1.78,4.23,2.34,1.51,.62,3.14,.88,4.81,1.14-1.66,.13-3.41,.12-5.05-.4-.42-.1-.83-.22-1.22-.4-.39-.17-.8-.32-1.19-.51-.75-.42-1.5-.84-2.18-1.38-1.37-1.05-2.56-2.3-3.53-3.71-.96-1.4-1.73-2.95-2.18-4.57Z"/></g></g></g><path class="cls-25" d="M484.16,257.62c.36-.31,.72-.64,1.08-1,0,0-.4,.37-1.08,1Z"/></g><path class="cls-28" d="M569.16,252.8c.45-.67,1.1-1.1,1.82-1.39,.72-.28,1.54-.39,2.38-.22,.84,.16,1.66,.68,2.14,1.38,.51,.69,.63,1.53,.5,2.3-.65-.49-1.09-.94-1.61-1.19-.48-.27-.92-.43-1.43-.54-1.03-.21-2.24-.18-3.8-.34Z"/><path class="cls-28" d="M536.51,236.61s30.38,8.57,48.89-19.42c0,0-38.09-39-53.62-24.14-12.73,12.18,4.74,43.56,4.74,43.56Z"/><path class="cls-28" d="M566.02,214.08s-33.77-28.85-63.32-33.1c0,0-16.79,51.71,11.01,74.8,0,0,51.54-41.76,52.32-41.71Z"/><path class="cls-28" d="M506.13,187.04s-.67-43.33-20.27-52.28c-19.61-8.95-45.66-23.11-45.66-23.11,0,0,2.34,46.1,25.32,56.32,22.98,10.22,36.33,23.29,36.33,23.29l4.29-4.22Z"/><path class="cls-5" d="M477.49,138.02c.42-.65,5.11,.67,9.26,3.75,7.87,5.85,10.39,15.54,9.15,16.21-.67,.36-1.92-2.22-4.91-2.62-3.57-.49-7.81,2.37-7.89,5.18-.08,2.97,4.51,5.11,4.26,5.45-.34,.47-8.9-3.5-17.36-11.32-4.87-4.5-7.73-8.44-7.31-8.84,.53-.5,5.28,5.62,12.38,6.21,4.59,.39,9.97-1.55,10.5-4.39,.76-4.07-8.71-8.67-8.08-9.64Z"/><path class="cls-28" d="M503.65,185.29c-.14-1.71-.08-3.42-.13-5.11-.03-1.7-.06-3.39-.15-5.08-.14-3.38-.42-6.74-.86-10.07-.46-3.32-1.04-6.61-1.93-9.81-.85-3.2-1.97-6.33-3.46-9.24-.71-1.48-1.56-2.87-2.45-4.23-.94-1.32-1.94-2.61-3.07-3.76-2.28-2.38-4.83-4.72-7.22-7.09l-7.35-7.06c-1.21-1.21-2.45-2.39-3.57-3.72-.56-.66-1.07-1.38-1.49-2.14-.43-.76-.71-1.58-.99-2.38,1.54,3.12,4.35,5.03,7.02,7.14,2.68,2.1,5.36,4.22,7.95,6.44,1.31,1.09,2.6,2.22,3.87,3.35l1.9,1.71c.63,.56,1.27,1.14,1.91,1.78,2.54,2.51,4.58,5.48,6.17,8.63,3.15,6.34,4.58,13.29,5.04,20.17,.25,3.44,.21,6.89,0,10.31-.12,1.71-.27,3.42-.48,5.11l-.35,2.54c-.12,.84-.3,1.68-.35,2.53Z"/><path class="cls-28" d="M531.77,193.05c1.22-3.05,4.03-5.43,7.2-6.68,3.2-1.26,6.76-1.45,10.05-.88,.42,.06,.84,.11,1.25,.19l1.21,.31,2.4,.67,2.29,.93c.75,.33,1.54,.6,2.23,1.03,1.43,.8,2.86,1.57,4.2,2.5,1.3,.98,2.6,1.95,3.82,3.02-1.56-.51-3.04-1.12-4.51-1.72-.71-.34-1.49-.55-2.22-.83-.75-.26-1.47-.55-2.2-.83-1.48-.51-2.98-.9-4.44-1.4l-2.24-.5-1.11-.27c-.37-.06-.75-.1-1.12-.15-2.98-.52-5.99-.52-8.89,.14-1.42,.41-2.87,.85-4.18,1.63-1.35,.72-2.61,1.66-3.73,2.83Z"/><path class="cls-28" d="M514.45,255.2c-1.76,.39-3.65,.18-5.42-.38-.92-.24-1.71-.74-2.58-1.15-.39-.26-.77-.54-1.16-.82l-.58-.42c-.19-.15-.34-.33-.51-.49-2.79-2.61-4.5-6.15-5.42-9.71-.26-.89-.35-1.8-.54-2.7-.13-.9-.36-1.8-.36-2.71l-.12-2.71-.04-1.35,.09-1.35c.15-1.79,.2-3.59,.55-5.34,.35-1.76,.69-3.51,1.17-5.22,.19,1.79,.24,3.55,.3,5.31-.01,.88,.07,1.75,.15,2.62,.08,.87,.11,1.74,.17,2.6l.08,1.29,.17,1.28,.31,2.55c.05,.86,.29,1.67,.45,2.51,.18,.82,.27,1.68,.52,2.47,.84,3.25,2.15,6.31,4.2,8.84,.13,.16,.24,.33,.38,.48l.44,.42c.29,.28,.59,.56,.88,.86,.66,.47,1.28,1.05,2.04,1.4,1.44,.86,3.07,1.45,4.83,1.73Z"/><path class="cls-28" d="M504.48,185.03c.31-3.87,.7-7.68,1.07-11.47,.15-1.9,.38-3.79,.5-5.68,.15-1.89,.32-3.78,.39-5.67,.2-3.77,.3-7.53,.1-11.28-.26-3.73-.71-7.46-2.17-11.07,1.3,1.46,2.21,3.25,2.95,5.08,.7,1.85,1.21,3.77,1.55,5.71,.66,3.89,.79,7.83,.57,11.72-.25,3.89-.75,7.75-1.58,11.54-.81,3.79-1.86,7.53-3.37,11.12Z"/><path class="cls-5" d="M540.4,195.77c.14-.63,4.97-1.27,9.97-.39,9.48,1.68,15.48,8.13,14.59,9.08-.48,.51-2.61-1.01-5.53-.27-3.48,.88-6.31,4.52-5.32,6.67,1.05,2.28,6.1,2.29,6,2.64-.14,.47-9.54,.45-20.31-2.51-6.2-1.71-10.34-3.69-10.1-4.14,.31-.56,7,2.41,13.79,.38,4.39-1.31,8.62-4.65,8.03-6.98-.84-3.35-11.33-3.53-11.12-4.48Z"/><g><path class="cls-25" d="M525.84,238.68c-1.64,5.27,.71,10.75,5.25,12.24,4.54,1.5,9.55-1.56,11.19-6.82,1.64-5.27-.71-10.75-5.25-12.24-4.54-1.5-9.55,1.56-11.19,6.82Z"/><path class="cls-28" d="M531.99,237.57c1.13,.54,2.08,1.48,2.7,2.62,.3,.57,.55,1.19,.66,1.84,.14,.64,.15,1.31,.1,1.96l-.04,.59-.58-.16c-.88-.24-1.83-.44-2.7-.4-.43,.03-.84,.14-1.07,.47-.24,.34-.22,.84-.2,1.34-.19-.44-.4-.96-.2-1.54,.22-.58,.84-.89,1.35-.99,.53-.12,1.06-.13,1.57-.08,.52,.04,1.01,.12,1.52,.26l-.63,.43c0-.57,.03-1.15-.08-1.71-.09-.56-.23-1.12-.46-1.65-.43-1.08-1.1-2.07-1.95-2.98Z"/></g><path class="cls-17" d="M507.3,181.84s-4.95,1.35-6.87,8.29c0,0-4.25-1.29-4.71-3.5-.46-2.21,4.97-9.59,10.11-9.16,0,0,3.16,.11,1.47,4.36Z"/></g><rect class="cls-4" x="268.23" y="289.21" width="238.05" height="142" transform="translate(121.05 -96.79) rotate(16.85)"/><polygon class="cls-6" points="253.78 390.29 252.76 393.66 382.44 432.94 441.52 367.25 325.29 324.6 253.78 390.29"/><g><path class="cls-29" d="M315.65,329.12l125.87,38.13s-249.02,66.68-264.42,58.88c-15.4-7.8,138.55-97,138.55-97Z"/><polygon class="cls-29" points="441.52 367.25 315.65 329.12 320.7 312.43 326.65 312.04 447.18 348.55 441.52 367.25"/><rect class="cls-9" x="369.23" y="276.42" width="17.44" height="124.92" transform="translate(-55.94 602.37) rotate(-73.15)"/><path class="cls-8" d="M435.2,365.33c-35.71,10.17-157.75,38.24-220.15,50.01-15.87,2.99-28.06,4.77-37.47,5.69-1.83,2.49-2.13,4.26-.49,5.09,15.4,7.8,264.42-58.88,264.42-58.88l-6.32-1.91Z"/><polygon class="cls-8" points="435.2 365.33 441.49 367.24 447.14 348.58 440.26 348.64 435.2 365.33"/></g><g><polygon class="cls-26" points="314.5 370.31 298.92 372.13 302.74 352.07 312.2 351.15 314.5 370.31"/><polygon class="cls-8" points="300.06 366.16 313.78 364.32 313.22 359.65 301.11 360.64 300.06 366.16"/><polygon class="cls-26" points="283.27 367.17 283.17 360.82 331.28 356.87 330.88 360.78 283.27 367.17"/></g><polygon class="cls-29" points="480.58 462.67 534.88 448.81 576.05 312.91 521.75 326.76 480.58 462.67"/><polygon class="cls-26" points="329.87 315.38 320.62 321.22 309.8 306.5 318.96 298.1 329.87 315.38"/><polygon class="cls-26" points="436.71 357.1 432.73 346.9 449.25 339.09 455.75 349.68 436.71 357.1"/></g><g><path class="cls-25" d="M469.99,371.66s5.77,3.91,11.2,14.19c2.25,4.25,12.95,4.63,6.78,7.93-3.65,1.96-10.1-3.69-10.1-3.69,0,0-.19,3.79,1.73,7.31,1.93,3.52,5.71,7.68,7.52,12.47,.96,2.55-1.21,3.51-4.37,.41,0,0-3.11-1.01-7.67-2.22-4.56-1.21-10.38-4.07-12.7-6.75-2.32-2.69-6.67-28.84-.8-33.69,0,0,0-4.21,8.41,4.04Z"/><path d="M482.75,410.28c-2.72-2.08-5.22-4.37-7.64-6.78-.59-.61-1.19-1.22-1.76-1.87-.59-.71-1.01-1.49-1.36-2.29-.7-1.59-1.14-3.25-1.43-4.94,.66,1.57,1.35,3.13,2.13,4.6,.41,.72,.82,1.44,1.36,2,.57,.6,1.17,1.21,1.77,1.8,2.38,2.41,4.75,4.84,6.93,7.48Z"/><path d="M474.71,407.99c-2.16-1.38-4.12-2.99-5.89-4.87-.22-.24-.43-.5-.63-.76-.21-.29-.39-.59-.53-.89-.27-.6-.5-1.2-.69-1.82-.4-1.22-.68-2.46-.86-3.73,.56,1.15,1.08,2.31,1.59,3.45,.27,.57,.51,1.14,.81,1.67,.14,.27,.29,.51,.46,.73,.19,.23,.39,.46,.6,.68,.83,.92,1.73,1.8,2.59,2.72,.88,.9,1.73,1.84,2.56,2.82Z"/><path d="M465.75,404.11c-.88-.26-1.54-.85-2.06-1.53-.49-.69-.89-1.56-.74-2.48,.32,.34,.57,.64,.81,.95,.26,.3,.49,.62,.73,.93,.46,.64,.92,1.28,1.26,2.12Z"/></g><path class="cls-25" d="M463.19,325.88l11.44-8.68c4.95-5.8,4.52-36.01,4.52-36.01-11.81,3.58-38.68,20.26-45.38,24.48-.99,.62-1.48,1.78-1.24,2.93,2.04,9.69,14.3,52,31.03,76.22l12.28,3.14c-.24-19.34-7.2-44.82-12.66-62.08Z"/><path class="cls-17" d="M442.45,297.52s16.13,23.32,30.92,30.81c0,0,72.77-48.17,18.12-53.19-15.84-1.45-49.03,22.39-49.03,22.39Z"/><path class="cls-6" d="M443.46,299.58s13.6,19.67,21.73,25.14c8.12,5.47,10.01,5.04,10.01,5.04l13.61-13.06,7.72,2.46s1.25-13.23,1.12-17.78-11.44,14.78-20.93,19.43c-9.49,4.65-33.25-21.23-33.25-21.23Z"/><path class="cls-6" d="M545.08,303.53s-.04-3.4-.52-4.29l2.41,4.87-1.89-.57Z"/><path class="cls-6" d="M455.34,424.35c-.27-.36-.89-.46-1.98-.4,.02-.17,.01-.34-.02-.51-.18-1.16-1.3-1.94-2.5-1.75-.46,.07-.86,.28-1.18,.57-.15-.67-.5-1.26-.98-1.71l-.3-3.97c-.64-8.52-8.07-14.91-16.59-14.27h0c-8.52,.64-14.91,8.07-14.27,16.59l.37,4.86c-.68,.55-1.08,1.41-.97,2.33,.03,.23,.08,.45,.17,.66-.9,.12-1.47,.29-1.65,.6-.23,.41,.24,.93,.71,1.22,1.18,.72,3.98-.32,7-.78,6.4-.97,8.48-.17,8.88-1.21,.01-.03,.11-.3-.06-.54-.21-.31-.72-.41-1.63-.4,.02-.14,.02-.28,0-.42-.11-.96-1.01-1.65-2.01-1.53,0,0-.01,0-.02,0l-.19-2.54c-.21-2.79,1.88-5.22,4.67-5.43,2.79-.21,5.22,1.88,5.43,4.67l.14,1.8c-.87,.7-1.37,1.79-1.19,2.95,.04,.28,.12,.54,.23,.79-1.08,.19-1.76,.41-1.96,.81-.26,.5,.34,1.11,.92,1.43,1.46,.82,4.79-.58,8.41-1.28,7.67-1.47,10.22-.61,10.66-1.88,.01-.04,.12-.36-.1-.65Z"/><g><g><path class="cls-27" d="M431.17,401.31h0c-8.52,.64-14.91,8.07-14.27,16.59l.46,6.08c.03,.38,.36,.66,.73,.63l9.41-.71c.16-.01,.28-.15,.27-.31l-.26-3.44c-.21-2.79,1.88-5.22,4.67-5.43h0c2.79-.21,5.22,1.88,5.43,4.67l.26,3.49c.01,.16,.15,.28,.31,.27l9.41-.71c.38-.03,.66-.36,.63-.73l-.46-6.13c-.64-8.52-8.07-14.91-16.59-14.27Z"/><path class="cls-16" d="M431.51,405.78h0c-6.42,.48-11.24,6.08-10.75,12.5l.46,6.09,6.3-.47c.16-.01,.28-.15,.27-.31l-.26-3.44c-.21-2.79,1.88-5.22,4.67-5.43h0c2.79-.21,5.22,1.88,5.43,4.67l.26,3.48c.01,.16,.15,.28,.31,.27l6.3-.47-.46-6.14c-.48-6.42-6.08-11.24-12.5-10.75Z"/><path class="cls-15" d="M431.54,410.33c-4.55,.51-7.81,4.66-7.46,9.23l.34,4.58,3.09-.23c.16-.01,.28-.15,.27-.31l-.26-3.44c-.21-2.79,1.88-5.22,4.67-5.43h0c2.79-.21,5.22,1.88,5.43,4.67l.26,3.49c.01,.16,.15,.28,.31,.27l3.09-.23-.36-4.83c-.36-4.75-4.58-8.29-9.36-7.76Z"/></g><path class="cls-26" d="M454.71,423.36c-.27-.36-.89-.46-1.98-.4,.02-.17,.01-.34-.02-.51-.18-1.16-1.3-1.94-2.5-1.75-.46,.07-.86,.28-1.18,.57-.39-1.76-2.13-2.93-4-2.63-.01,0-.02,0-.03,0-.46-1.1-1.66-1.79-2.93-1.59-1.49,.23-2.51,1.58-2.29,3.02,.02,.13,.05,.26,.09,.39-.18,0-.37,.01-.56,.04-1.8,.28-3.04,1.91-2.76,3.65,.04,.28,.12,.54,.23,.79-1.08,.19-1.76,.41-1.96,.81-.26,.5,.34,1.11,.92,1.43,1.46,.82,4.79-.58,8.41-1.28,7.67-1.47,10.22-.61,10.66-1.88,.01-.04,.12-.36-.1-.65Z"/><path class="cls-26" d="M431.35,425.04c-.21-.31-.72-.41-1.63-.4,.02-.14,.02-.28,0-.42-.11-.96-1.01-1.65-2.01-1.53-.38,.04-.72,.2-.99,.43-.26-1.47-1.67-2.49-3.23-2.31,0,0-.02,0-.03,0-.34-.93-1.31-1.54-2.38-1.41-1.24,.14-2.13,1.23-1.99,2.42,.01,.11,.03,.22,.06,.33-.15,0-.31,0-.47,.02-1.5,.17-2.58,1.49-2.41,2.93,.03,.23,.08,.45,.17,.66-.9,.12-1.47,.29-1.65,.6-.23,.41,.24,.93,.71,1.22,1.18,.72,3.98-.32,7-.78,6.4-.97,8.48-.17,8.88-1.21,.01-.03,.11-.3-.06-.54Z"/></g><g><path class="cls-6" d="M537.9,372.51s3.35-9.02,7.3-5.81c3.95,3.2-11.74,23.53-11.74,23.53,0,0-6.54-17.03-2.33-22.77,4.2-5.75,6.78,5.06,6.78,5.06Z"/><path class="cls-6" d="M520.99,399.16s-1.27-5.21,2.79-5.48,1.2,14.84,1.2,14.84c0,0-11.43-4.55-10.78-8.73,.64-4.18,6.79-.64,6.79-.64Z"/><path class="cls-21" d="M538.38,370.59s3.35-9.02,7.3-5.81c3.95,3.2-11.74,23.53-11.74,23.53,0,0-6.54-17.03-2.33-22.77,4.2-5.75,6.78,5.06,6.78,5.06Z"/><path class="cls-21" d="M521.35,398.56s-1.27-5.21,2.79-5.48,1.2,14.84,1.2,14.84c0,0-11.43-4.55-10.78-8.73,.64-4.18,6.79-.64,6.79-.64Z"/></g></g><g class="cls-18"><g><path class="cls-32" d="M-116.66,444.95c-22.46-47.89,24.08-160.47,116.98-162.04,105.27-1.78,158.89,133.15,133.8,167.11-7.84,10.61-28.89,15.43-40.63,9.64-29.13-14.37-30-108.44,34.84-129.99,30.02-9.98,75.38-4.83,98.83,18.93,40.16,40.69-7.98,110.32-29.08,108.55-9.32-.78-19.54-16.08-14.99-23.72,8.9-14.92,79.94-10.33,94.72,12.59,18.93,29.35-53.56,90.07-61.91,85.88-4.48-2.25,1.89-27.07,16.08-29.44,25.03-4.17,88.69,59.12,66.1,90.34-15.78,21.81-66.14,17.55-68.53,17.33-12.14-1.14-35.44-5.33-36.57-12.1-1.26-7.54,24.61-20.22,47.02-15.53,19.79,4.15,32.05,20.84,51.24,46.99,12.51,17.04,8.77,18.75,16.44,25.38,22.3,19.28,30.36-8.41,56.09,7.98,21.65,13.79,11.37,27.77,37.51,54.38,23.14,23.55,71.03,57.05,69.63,59.37-1.78,2.95-66.31-35.08-112.4-57.13-61.54-29.43-46.18-30.11-100.68-62.21-81.98-48.29-132.58-46.07-201.47-94.63-43.05-30.35-15.77-30.04-57.01-57.84,0,0-86.95,2.13-116.01-59.84Z"/><path class="cls-7" d="M-.65,504.79c41.24,27.8,13.96,27.49,57.01,57.84,68.89,48.56,119.49,46.34,201.47,94.63,54.5,32.1,39.14,32.78,100.68,62.21,46.09,22.04,110.62,60.07,112.4,57.13,.37-.61-2.67-3.37-7.73-7.51-69.29-44.72-196.73-127.31-224.75-147.76-38.95-28.43-22.48-51.58-22.48-51.58,0,0-27.89,2.44-74.08-17.76-46.19-20.2,7.38-60.73,7.38-60.73,0,0-14.18,7.99-81.62-1.08s-36.24-55.44-36.24-55.44c-75.63-12.59-99.65-73.26-106.66-120.69-40.39,37.29-56.48,98.72-41.38,130.91C-87.6,506.92-.65,504.79-.65,504.79Z"/></g></g><g><path class="cls-14" d="M640.8,312.28s9.69-14.64,9.34-20.76c-.35-6.12-2.67-22.55-7.21-22.67-4.54-.12-4.63,11.27-3.31,13.02,1.31,1.75-2.12-14.81-3.5-8.33-1.39,6.48,.99,15.64,.7,12.25-.29-3.39-5.24-5.79-5.68-2.72-.44,3.07-2.02,17.93,9.67,29.22Z"/><path class="cls-21" d="M619.27,305.05c-14.88,5.04-14.91,0-14.91,0-5.65-4.84,1.83-4.75,14.68-2.78,6.23-.43,15.71,3.25,20.51,3.22,8.14-.05,8.88-4.86,10.77-6.1,2.31-1.51,7.82-1.5,8.73,4.64,.51,3.46-2.4,5.41-4.56,9.51-1.95,3.7-9.89,9.07-14.14,9.27-2.85,.13-11.1,1.14-18.31-8.28-1.98-2.62-3.76-7.75-2.75-9.5Z"/><path class="cls-24" d="M658.22,303.8s-1.67,.96-1.55,2.11c.05,.5,.88,1.17,1.59,1.51,0,0,2.85-.44,3.97-2.08,0,0-1.84-1.39-4-1.53Z"/><path class="cls-24" d="M655.46,304.08c-.33-.22-.62-.44-.89-.65-.25-.2-.6-.39-.65-.35,0,0,0,0-.03,0-.04,.04-.07,.08-.1,.12-.07,.09-.1,.21-.14,.36-.06,.3-.05,.66-.04,1.05-.3-.27-.5-.62-.56-1.06-.03-.22,0-.46,.1-.7,.05-.12,.13-.22,.22-.32,.12-.11,.27-.21,.45-.23,.36-.03,.58,.12,.76,.25,.17,.14,.31,.29,.42,.45,.23,.32,.39,.67,.46,1.07Z"/><path class="cls-21" d="M645.07,314.52s-1.5-20.44-6.2-25.85c-4.7-5.41-18.58-18.93-22.86-15.8-4.28,3.13,3.77,13.71,6.24,14.4,2.47,.68-12.54-12.17-9.19-5.2,3.35,6.97,12.08,13.74,9.4,10.81-2.69-2.93-8.98-1.6-7.19,1.55s10.95,18,29.81,20.09Z"/></g><g><path class="cls-14" d="M184.86,216.17s20.6-13.4,23.57-21.47c2.96-8.06,9.14-30.46,3.37-33.15-5.76-2.68-12.22,11.89-11.51,14.88,.71,2.99,5.53-20.21,.14-12.66-5.39,7.55-7.45,20.64-5.92,16.12,1.52-4.51-3.51-10.36-5.79-6.66s-12.58,21.91-3.86,42.93Z"/><path class="cls-21" d="M161.22,194.89c-21.93-1.82-19.16-8.3-19.16-8.3-4.56-9.37,5-5.09,20.4,4.61,8.25,2.92,18.37,12.93,24.55,15.57,10.48,4.47,14.11-1.3,17.24-1.83,3.8-.65,10.88,2.43,8.63,10.82-1.27,4.73-6.1,5.62-11.16,9.68-4.57,3.67-17.76,6.14-23.34,4.03-3.73-1.41-14.9-4.72-18.91-20.84-1.08-4.47-.51-12.04,1.76-13.74Z"/><path class="cls-24" d="M211.97,214.99s-2.67,.3-3.17,1.84c-.21,.66,.49,1.99,1.2,2.82,0,0,3.91,1.02,6.25-.46,0,0-1.59-2.81-4.29-4.2Z"/><path class="cls-24" d="M208.27,213.81c-.31-.46-.54-.91-.78-1.33-.22-.4-.56-.84-.64-.81,0,0,0,0-.04,0-.07,.03-.13,.06-.2,.1-.14,.07-.25,.22-.38,.38-.24,.35-.43,.82-.64,1.33-.23-.51-.3-1.08-.13-1.67,.08-.3,.25-.59,.51-.84,.13-.12,.29-.21,.46-.29,.21-.07,.46-.12,.71-.05,.48,.16,.68,.48,.84,.74,.15,.28,.24,.54,.29,.82,.11,.54,.12,1.08,0,1.63Z"/><path class="cls-21" d="M189.09,221.43s9.46-27.1,6.44-36.67-13.32-34.67-20.56-33.03c-7.24,1.64-2.79,19.72,0,21.97,2.79,2.25-9.33-22.62-8.91-11.8,.41,10.82,7.87,24.39,6.05,19.13-1.82-5.26-10.64-7.06-10.1-2.02,.54,5.04,4.03,29.23,27.1,42.42Z"/></g></g></g></svg>