<?xml version="1.0" encoding="UTF-8"?><svg id="Layer_1" xmlns="http://www.w3.org/2000/svg" viewBox="0 0 360.77 361.57"><defs><style>.cls-1{fill:#15a143;}.cls-2{fill:#099cfe;}.cls-3{fill:#5bbdfe;}.cls-4{fill:#ccd3de;}.cls-5{fill:#4cc56e;}.cls-6{fill:#5cbdfe;}.cls-7{fill:#445f88;}.cls-8{fill:#0a9cfe;}.cls-9{fill:#33527d;}.cls-10{fill:#e4e7ee;}.cls-11{fill:#e3e7ee;}.cls-12{fill:#0b9dfe;}.cls-13{fill:#089cfe;}</style></defs><path class="cls-4" d="M291.96,38.4c12,.57,19.41,8.18,19.41,20,.01,52.16,.02,104.32,.03,156.48-1.58,1.76-3.28,3.42-4.71,5.3-11.66,15.29-17.75,32.83-19.81,51.74-1.62,14.87,7.14,30.05,19.73,35.7,1.6,.89,3.21,1.79,4.81,2.68,0,9.31-.01,18.62-.02,27.93-5,.08-9.99,.16-14.99,.23-.99-.03-1.98-.08-2.97-.08-25.48-.01-50.95-.02-76.43-.03-.02-1.49-.05-2.99-.05-4.48,0-19.81,.03-39.63-.02-59.44-.02-8.64-5.39-13.9-13.36-13.3-14.97-.06-29.94,.21-44.89-.29-10.89-.36-14.98,6.95-14.88,14.93,.25,19.37,.08,38.75,.08,58.12,0,1.43,0,2.86,0,4.53-2.01,0-3.37,0-4.73,0-20.46,0-40.92,.02-61.38,0-7.48,0-14.96-.12-22.44-.18,.71-1.29,1.25-2.7,2.15-3.84,5.2-6.65,10.49-13.24,15.74-19.85,10.35-13.03,20.74-26.03,31.03-39.1,3.28-4.17,6.33-8.51,9.49-12.78,3.73-.04,7.46-.06,11.18-.12,6.2-.11,9.67-3.58,9.74-9.76,.06-5.48,.09-10.96,.13-16.44,.66-.57,1.42-1.05,1.95-1.71,10.82-13.69,21.61-27.41,32.41-41.12,9.83-.05,19.66-.05,29.49-.15,7.01-.08,10.22-3.35,10.24-10.37,.04-13.22,.03-26.44,.05-39.66,2.47-3.04,4.92-6.1,7.43-9.11,3.76-4.5,7.58-8.96,11.37-13.43,2.33,2.35,5.1,3.22,8.43,3.19,12.34-.12,24.69-.02,37.04-.06,6.78-.02,10.15-3.26,10.21-10.07,.1-12.37,.08-24.74,0-37.11-.02-3.01-.41-6.04-3.48-7.77-2.72-3.09-6.45-1.75-9.77-2.25,3.13-3.96,6.29-7.88,9.36-11.88,4.18-5.44,8.28-10.94,12.42-16.42Zm-63.95,220.56c2.46,1.18,4.9,3.33,7.4,3.39,12.81,.35,25.63,.21,38.45,.14,5.58-.03,9.41-3.33,9.51-8.9,.23-13.09,.18-26.18,0-39.27-.04-2.87-.44-6.13-4.14-7.15-1.64-.57-3.27-1.62-4.91-1.64-13.06-.14-26.12-.1-39.19-.06-5.61,.02-9,3.4-9.03,9.09-.06,12.84-.1,25.68,.07,38.51,.03,1.97,1.21,3.92,1.86,5.87Zm51.92-120.82c-2.15-.76-4.3-2.14-6.47-2.18-12.57-.21-25.14-.14-37.71-.08-5.95,.03-9.64,3.63-9.67,9.5-.07,12.84-.08,25.69,.06,38.53,.02,1.5,1.14,2.99,1.75,4.48,.93,4.53,4.64,4.85,8.08,4.9,12.46,.16,24.93,.12,37.39,.04,6.47-.04,10.01-3.52,10.06-9.97,.1-12.49,.08-24.98,0-37.47-.02-3-.43-6.03-3.49-7.75Z"/><path class="cls-11" d="M227.76,120.77c-3.79,4.47-7.61,8.93-11.37,13.43-2.51,3.01-4.96,6.07-7.43,9.11-.77-1.51-1.55-3.02-2.32-4.54-2.33-.96-4.64-2.71-6.99-2.76-12.82-.27-25.64-.2-38.47-.1-5.89,.05-9.23,3.55-9.25,9.41-.04,12.72-.08,25.45,.06,38.17,.02,1.86,.97,3.72,1.49,5.57,1.54,3.49,4.68,4.04,7.95,4.24,2.58,.15,5.17,.13,7.75,.18-10.8,13.71-21.59,27.42-32.41,41.12-.53,.67-1.29,1.15-1.95,1.71-.04-7.23,.14-14.47-.25-21.68-.13-2.36-1.78-4.64-2.73-6.96-1.9-.74-3.79-2.1-5.69-2.13-13.34-.19-26.67-.15-40.01-.08-5.26,.03-8.36,3.16-8.39,8.45-.07,13.36-.06,26.73,.04,40.09,.01,1.36,.84,2.72,1.3,4.08,1.43,3.6,4.5,4.37,7.86,4.41,8.94,.1,17.88,.1,26.82,.14-3.16,4.27-6.21,8.61-9.49,12.78-10.3,13.07-20.68,26.07-31.03,39.1-5.25,6.61-10.54,13.2-15.74,19.85-.89,1.14-1.44,2.55-2.15,3.84-1.99,.02-3.99,.03-5.98,.05-.02-9.34-.04-18.67-.06-28.01,17.34-7.67,26.74-22.03,24.54-39.39-2.66-20.99-9.55-40.39-24.51-56.11,.01-52.09,.18-104.19-.09-156.28-.05-10.17,8.95-20.62,20.05-20.18,5.35,.21,10.72,.03,16.08,.03,63.33,0,126.66,0,190,0,5.53,.03,11.06,.05,16.59,.08-4.14,5.48-8.24,10.97-12.42,16.42-3.07,4-6.24,7.93-9.36,11.88-11.32,.04-22.64,.07-33.96,.12-6.84,.02-10.11,3.2-10.13,10.01-.04,12.34-.08,24.68,.06,37.03,.02,1.83,1,3.66,1.54,5.49,.02,.48,.05,.95,.07,1.43Zm-74.23-.54c2.05,1.21,4.07,3.42,6.14,3.46,13.8,.31,27.62,.24,41.43,.1,4.26-.04,7.65-3.4,7.7-7.63,.14-13.84,.21-27.68-.11-41.51-.05-1.99-2.34-3.92-3.59-5.88-1.91-.65-3.81-1.84-5.73-1.87-12.57-.17-25.15-.1-37.72-.08-6.38,.01-9.71,3.28-9.73,9.61-.03,12.6-.08,25.2,.06,37.8,.02,2.01,1.01,4,1.56,6Zm-22.54-51.4c-1.66-.67-3.31-1.9-4.98-1.92-13.21-.16-26.43-.14-39.65-.06-5.34,.03-8.6,3.35-8.63,8.7-.06,13.24-.06,26.48,.04,39.72,.01,1.36,.83,2.71,1.27,4.06,.99,3.23,3.5,4.47,6.53,4.49,13.56,.09,27.12,.12,40.67,0,4.97-.04,8.36-3.58,8.39-8.62,.09-13.21,.06-26.42,0-39.63-.01-2.83-.74-5.43-3.68-6.75Zm-51.82,120.26c2.18,1.4,4.33,3.94,6.55,4,13.58,.36,27.18,.35,40.76,.05,5.09-.11,8.17-3.87,8.19-8.94,.07-13.12,.03-26.24,.02-39.36,0-2.92-.94-5.38-3.71-6.81-1.64-.71-3.27-2.02-4.92-2.04-13.19-.17-26.38-.21-39.57-.05-5.55,.07-8.74,3.53-8.76,9.01-.05,13.09-.07,26.19,.05,39.28,.01,1.62,.9,3.23,1.39,4.85Z"/><path class="cls-7" d="M49.37,338.27c1.99-.02,3.99-.03,5.98-.05,7.48,.06,14.96,.17,22.44,.18,20.46,.02,40.92,0,61.38,0,1.36,0,2.72,0,4.73,0,0-1.67,0-3.1,0-4.53,0-19.37,.17-38.75-.08-58.12-.1-7.98,3.99-15.29,14.88-14.93,14.95,.5,29.93,.23,44.89,.29-.6,1.21-1.05,2.51-1.82,3.61-2.64,3.77-5.39,7.45-8.08,11.18-10.97,15.23-21.93,30.46-32.88,45.7-3.88,5.4-7.73,10.81-11.96,16.73h68.16c25.48,0,50.95,.02,76.43,.03,.99,0,1.98,.05,2.97,.08,.76,.88,1.42,1.88,2.3,2.61,4.38,3.64,5.62,11.08,2.34,15.34-1.39,1.81-3.09,3.39-4.66,5.07-2.74,.03-5.48,.08-8.22,.08-91.3,0-182.59,0-273.89,0-1.62,0-3.27,.08-4.85-.22-5.78-1.09-9.86-6.46-9.42-12.19,.45-5.85,5.33-10.5,11.53-10.68,6.6-.19,13.21-.13,19.82-.17,3.76,0,7.52,0,11.28,0,2.24,0,4.47-.02,6.71-.02Z"/><path class="cls-10" d="M86.05,27.07c0-4.37,0-8.75,0-13.12,.02-8.22,5.8-13.86,14.26-13.86,34.04-.01,68.09,0,102.13,0,19.2,0,38.41,.16,57.61-.08,7.78-.1,15.52,6.07,14.71,14.7-.38,4.09-.06,8.24-.06,12.36-62.89,0-125.77,0-188.66,0Z"/><path class="cls-5" d="M20.3,308.11c-15.21-8.57-22.14-22.36-19.7-39.67,2.48-17.57,8.4-33.84,19.21-48.05,3.88-5.11,8.48-9.52,15.38-10.26,2.25,2.49,4.7,4.83,6.7,7.51,9.12,12.21,14.04,26.21,17.28,40.96,2.42,10.99,1.92,21.51-3.97,31.39-3.02,5.06-6.81,9.29-12.55,12.22,0-1.68,0-2.8,0-3.91,0-11.99,.12-23.99-.12-35.97-.04-2.08-1.08-4.89-2.63-6.05-3.87-2.88-8.44,.15-8.47,5.37-.06,13.49-.02,26.98-.02,40.47,0,5.45,0,5.41-5.62,5.52-1.83,.03-3.67,.31-5.5,.48Z"/><path class="cls-5" d="M306.61,307.62c-12.6-5.65-21.36-20.84-19.73-35.7,2.06-18.91,8.15-36.44,19.81-51.74,1.43-1.87,3.13-3.54,4.71-5.3,3.49-1.58,6.99-3.17,10.48-4.75,2.25,2.49,4.71,4.83,6.71,7.5,9.2,12.31,14.14,26.4,17.34,41.31,2.41,11.19,1.83,21.77-4.38,31.62-2.98,4.72-6.47,9-12.21,11.58,0-1.45,0-2.42,0-3.39,0-12.24,.13-24.48-.13-36.72-.04-2.03-1.26-4.83-2.85-5.89-4.02-2.69-8.22,.4-8.24,5.78-.04,13.86-.09,27.73,.04,41.59,.03,3.11-1,4.32-4.08,4.12-2.48-.16-4.98-.02-7.48,0Z"/><path class="cls-1" d="M306.61,307.62c2.49,0,4.99-.15,7.48,0,3.08,.2,4.11-1.01,4.08-4.12-.14-13.86-.09-27.73-.04-41.59,.02-5.37,4.22-8.47,8.24-5.78,1.59,1.06,2.81,3.86,2.85,5.89,.26,12.23,.13,24.48,.13,36.72,0,.97,0,1.95,0,3.39,5.73-2.57,9.23-6.85,12.21-11.58,6.21-9.85,6.79-20.44,4.38-31.62-3.2-14.9-8.14-29-17.34-41.31-2-2.68-4.46-5.01-6.71-7.5,3.22,.57,6.8,.44,9.55,1.89,3.32,1.74,6.47,4.41,8.77,7.39,12.59,16.31,19.64,34.93,20.43,55.5,.67,17.45-11.53,32.38-28.57,36.3-2.22,.51-2.78,1.33-2.75,3.43,.11,7.87,.05,15.74,.06,23.61-3.76,0-7.53,0-11.29,0,0-6.62,.02-13.24,.02-19.86q0-6.64-6.68-8.1c-1.6-.89-3.21-1.79-4.81-2.68Z"/><path class="cls-1" d="M20.3,308.11c1.83-.17,3.66-.45,5.5-.48,5.61-.1,5.62-.07,5.62-5.52,0-13.49-.04-26.98,.02-40.47,.02-5.22,4.6-8.25,8.47-5.37,1.55,1.16,2.59,3.97,2.63,6.05,.24,11.99,.12,23.98,.12,35.97,0,1.12,0,2.23,0,3.91,5.74-2.93,9.53-7.16,12.55-12.22,5.89-9.88,6.39-20.39,3.97-31.39-3.24-14.75-8.16-28.75-17.28-40.96-2-2.68-4.46-5.02-6.7-7.51,5.67-1.37,9.83,1.88,14.15,4.63,14.96,15.72,21.84,35.13,24.51,56.11,2.2,17.36-7.2,31.72-24.54,39.39-.84,.21-1.67,.55-2.51,.59-3.67,.18-4.36,2.19-4.23,5.56,.27,7.28,.09,14.58,.1,21.88-3.76,0-7.52,0-11.28,0,0-7.93-.04-15.87,.04-23.8,.02-1.9-.43-2.78-2.49-3.27-2.96-.7-5.77-2.05-8.64-3.12Z"/><path class="cls-4" d="M86.05,27.07c62.89,0,125.77,0,188.66,0,.22,3.75,.45,7.51,.67,11.26-63.33,0-126.67,0-190,0,.22-3.75,.45-7.51,.67-11.26Z"/><path class="cls-9" d="M318.08,338.25c3.77,0,7.53,0,11.29,0,6.35,.03,12.71,.05,19.07,.11,7.19,.06,12.33,4.94,12.33,11.67,0,6.72-5.16,11.55-12.39,11.54-17.32-.02-34.65-.07-51.97-.1,1.56-1.68,3.26-3.26,4.66-5.07,3.27-4.25,2.04-11.69-2.34-15.34-.88-.73-1.54-1.73-2.3-2.61,5-.08,9.99-.16,14.99-.23,2.23,0,4.45,.02,6.68,.03Z"/><path class="cls-9" d="M217.01,338.34h-68.16c4.23-5.92,8.08-11.34,11.96-16.73,10.95-15.24,21.92-30.47,32.88-45.7,2.69-3.73,5.44-7.42,8.08-11.18,.76-1.09,1.22-2.4,1.82-3.61,7.97-.61,13.34,4.66,13.36,13.3,.05,19.81,.02,39.63,.02,59.44,0,1.49,.03,2.99,.05,4.48Z"/><path class="cls-12" d="M279.93,138.15c3.06,1.72,3.47,4.75,3.49,7.75,.08,12.49,.11,24.98,0,37.47-.05,6.45-3.59,9.92-10.06,9.97-12.46,.09-24.93,.12-37.39-.04-3.44-.04-7.15-.36-8.08-4.9,.72-.47,1.52-.84,2.13-1.42,7.53-7.26,15.05-14.52,22.52-21.84,9.15-8.97,18.26-17.99,27.38-26.99Z"/><path class="cls-8" d="M279.21,207.19c3.7,1.02,4.1,4.28,4.14,7.15,.19,13.09,.24,26.18,0,39.27-.1,5.57-3.92,8.87-9.51,8.9-12.82,.06-25.64,.21-38.45-.14-2.49-.07-4.93-2.21-7.4-3.39,1-1.1,1.95-2.26,3-3.3,15.22-14.99,30.47-29.96,45.67-44.97,1.01-1,1.69-2.33,2.52-3.51Z"/><path class="cls-2" d="M227.76,120.77c-.02-.48-.05-.95-.07-1.43,1-.67,2.13-1.21,2.97-2.04,14.59-14.29,29.15-28.61,43.71-42.92,1.85-1.82,3.71-3.62,5.57-5.42,3.07,1.73,3.46,4.76,3.48,7.77,.08,12.37,.1,24.74,0,37.11-.05,6.8-3.43,10.05-10.21,10.07-12.35,.04-24.69-.06-37.04,.06-3.33,.03-6.11-.84-8.43-3.19Z"/><path class="cls-2" d="M206.63,138.78c.77,1.51,1.55,3.02,2.32,4.54-.01,13.22,0,26.44-.05,39.66-.02,7.02-3.23,10.29-10.24,10.37-9.83,.11-19.66,.11-29.49,.15-2.58-.05-5.17-.03-7.75-.18-3.26-.19-6.4-.75-7.95-4.24,9.12-8.79,18.28-17.54,27.35-26.37,6.32-6.16,12.46-12.52,18.83-18.63,2.09-2.01,4.64-3.55,6.98-5.3Z"/><path class="cls-13" d="M113.76,262.64c-8.94-.04-17.88-.04-26.82-.14-3.35-.04-6.43-.81-7.86-4.41,.79-.58,1.66-1.07,2.35-1.74,11.91-11.64,23.77-23.34,35.72-34.95,4.8-4.67,9.79-9.15,14.69-13.72,.95,2.32,2.6,4.6,2.73,6.96,.4,7.21,.21,14.45,.25,21.68-.04,5.48-.06,10.96-.13,16.44-.07,6.18-3.54,9.65-9.74,9.76-3.73,.06-7.46,.08-11.18,.12Z"/><path class="cls-6" d="M279.93,138.15c-9.13,9-18.23,18.02-27.38,26.99-7.47,7.32-14.99,14.58-22.52,21.84-.6,.58-1.41,.95-2.13,1.42-.61-1.49-1.74-2.98-1.75-4.48-.14-12.84-.13-25.69-.06-38.53,.03-5.87,3.72-9.47,9.67-9.5,12.57-.06,25.14-.13,37.71,.08,2.17,.04,4.31,1.42,6.47,2.18Z"/><path class="cls-6" d="M279.94,68.95c-1.86,1.81-3.72,3.61-5.57,5.42-14.57,14.31-29.12,28.64-43.71,42.92-.85,.83-1.98,1.37-2.97,2.04-.54-1.83-1.52-3.65-1.54-5.49-.14-12.34-.1-24.68-.06-37.03,.02-6.81,3.29-9.99,10.13-10.01,11.32-.04,22.64-.08,33.96-.12,3.31,.5,7.05-.84,9.77,2.25Z"/><path class="cls-6" d="M279.21,207.19c-.83,1.18-1.51,2.51-2.52,3.51-15.2,15.01-30.45,29.98-45.67,44.97-1.06,1.04-2,2.2-3,3.3-.65-1.96-1.83-3.91-1.86-5.87-.17-12.84-.13-25.68-.07-38.51,.03-5.69,3.41-9.07,9.03-9.09,13.06-.04,26.13-.07,39.19,.06,1.64,.02,3.28,1.07,4.91,1.64Z"/><path class="cls-8" d="M130.98,138.04c2.77,1.43,3.7,3.88,3.71,6.81,.01,13.12,.05,26.24-.02,39.36-.03,5.06-3.11,8.82-8.19,8.94-13.58,.3-27.18,.31-40.76-.05-2.22-.06-4.37-2.6-6.55-4,1.04-.88,2.13-1.7,3.1-2.64,8.58-8.32,17.2-16.6,25.67-25.02,7.76-7.71,15.37-15.58,23.04-23.39Z"/><path class="cls-13" d="M130.98,68.83c2.94,1.31,3.66,3.92,3.68,6.75,.06,13.21,.08,26.42,0,39.63-.04,5.04-3.43,8.58-8.39,8.62-13.56,.12-27.11,.08-40.67,0-3.04-.02-5.55-1.25-6.53-4.49,1.76-1.33,3.68-2.5,5.26-4.02,9.74-9.4,19.46-18.83,29.07-28.37,5.98-5.93,11.74-12.07,17.61-18.12Z"/><path class="cls-13" d="M205.09,68.78c1.25,1.96,3.55,3.89,3.59,5.88,.31,13.83,.25,27.67,.11,41.51-.04,4.23-3.44,7.59-7.7,7.63-13.81,.14-27.62,.21-41.43-.1-2.07-.05-4.09-2.26-6.14-3.46,16.46-16.17,32.92-32.34,49.35-48.54,.86-.85,1.48-1.94,2.21-2.91Z"/><path class="cls-6" d="M206.63,138.78c-2.34,1.75-4.89,3.29-6.98,5.3-6.37,6.12-12.5,12.47-18.83,18.63-9.07,8.84-18.23,17.59-27.35,26.37-.52-1.86-1.47-3.71-1.49-5.57-.13-12.72-.1-25.45-.06-38.17,.02-5.87,3.36-9.37,9.25-9.41,12.82-.1,25.65-.17,38.47,.1,2.35,.05,4.66,1.79,6.99,2.76Z"/><path class="cls-3" d="M205.09,68.78c-.73,.98-1.35,2.07-2.21,2.91-16.43,16.2-32.89,32.37-49.35,48.54-.54-2-1.53-3.99-1.56-6-.14-12.6-.1-25.2-.06-37.8,.02-6.32,3.34-9.59,9.73-9.61,12.57-.02,25.15-.09,37.72,.08,1.92,.03,3.82,1.22,5.73,1.87Z"/><path class="cls-6" d="M130.98,138.04c-7.67,7.8-15.28,15.67-23.04,23.39-8.48,8.42-17.1,16.7-25.67,25.02-.97,.94-2.06,1.76-3.1,2.64-.48-1.62-1.37-3.23-1.39-4.85-.11-13.09-.1-26.19-.05-39.28,.02-5.48,3.21-8.94,8.76-9.01,13.19-.16,26.38-.12,39.57,.05,1.65,.02,3.28,1.33,4.92,2.04Z"/><path class="cls-3" d="M130.98,68.83c-5.86,6.05-11.63,12.19-17.61,18.12-9.61,9.54-19.33,18.97-29.07,28.37-1.58,1.52-3.5,2.69-5.26,4.02-.45-1.35-1.27-2.71-1.28-4.06-.1-13.24-.1-26.48-.04-39.72,.03-5.35,3.28-8.67,8.63-8.7,13.21-.08,26.43-.1,39.65,.06,1.67,.02,3.32,1.25,4.98,1.92Z"/><path class="cls-3" d="M131.83,207.68c-4.9,4.57-9.88,9.05-14.69,13.72-11.94,11.61-23.8,23.31-35.72,34.95-.69,.68-1.56,1.17-2.35,1.74-.45-1.36-1.29-2.71-1.3-4.08-.1-13.36-.11-26.73-.04-40.09,.03-5.29,3.13-8.42,8.39-8.45,13.34-.08,26.68-.11,40.01,.08,1.91,.03,3.8,1.39,5.69,2.13Z"/></svg>