<?xml version="1.0" encoding="utf-8"?>
<!-- Generator: Adobe Illustrator 26.5.0, SVG Export Plug-In . SVG Version: 6.00 Build 0)  -->
<svg version="1.1" xmlns="http://www.w3.org/2000/svg" xmlns:xlink="http://www.w3.org/1999/xlink" x="0px" y="0px"
	 viewBox="0 0 406 357" style="enable-background:new 0 0 406 357;" xml:space="preserve">
<style type="text/css">
	.st0{fill:#88CAD2;}
	.st1{opacity:0.1;fill:#FFFFFF;}
	.st2{opacity:0.5;fill:#88CAD2;}
	.st3{fill:#2A4150;}
	.st4{fill:#0988A1;}
	.st5{opacity:0.2;fill:#231F20;}
	.st6{fill:#FFFFFF;}
	.st7{fill:#FF9082;}
	.st8{fill:#C46623;}
	.st9{fill:#3B4451;}
	.st10{fill:#47505F;}
	.st11{fill:#074D68;}
	.st12{fill:#325F85;}
	.st13{fill:#FAA61A;}
	.st14{fill:none;stroke:#325F85;stroke-width:3;stroke-miterlimit:10;}
	.st15{fill:#F4B395;}
	.st16{fill:#E67D21;}
	.st17{fill:#6D4430;}
	.st18{clip-path:url(#SVGID_00000127026193456646318690000012604325109545118897_);}
	.st19{fill:#C94958;}
	.st20{fill:#333333;}
	.st21{fill:#DD9D81;}
	.st22{fill:#7C675B;}
	.st23{fill:#5A6472;}
	.st24{fill:#514344;}
	.st25{fill:#B9CFE0;}
	.st26{fill:#8EB8CE;}
	.st27{display:none;}
	.st28{display:inline;}
	.st29{clip-path:url(#SVGID_00000027602946377365384180000002284451494423621002_);}
	.st30{fill:#E1606A;}
	.st31{fill:#F48184;}
	.st32{clip-path:url(#SVGID_00000155824908961907566310000005163338153310602418_);}
	.st33{fill:#592B00;}
	.st34{display:inline;fill:none;stroke:#FFFFFF;stroke-miterlimit:10;}
	.st35{fill:#000100;}
</style>
<g id="BACKGROUND_1_">
	<rect x="-28" y="-92" class="st0" width="500" height="500"/>
	<circle class="st1" cx="221" cy="165" r="156.6"/>
</g>
<g id="OBJECTS">
	<g>
		<path class="st2" d="M369.8,219.7h-94.1V209h-15l-2.5-10.6h21.1h2.7c2.4,0,4.7-2.2,5.1-4.8l8.2-54.6c0.4-2.6-1.3-4.8-3.7-4.8h-2.7
			h-86h-2.7c-2.4,0-4.7,2.2-5,4.8l-7,54.6c-0.3,2.6,1.3,4.8,3.7,4.8h2.7h43.8l2.4,10.6h-15.5c-0.7-3-2.5-5.6-5-7.2
			c-1.6-1.2-3.7-1.9-5.9-1.9h-47.2v-15.7c0-0.7,0-1.3-0.1-2c0-0.2,0-0.4-0.1-0.7c0-0.4-0.1-0.9-0.1-1.3c0-0.3-0.1-0.5-0.1-0.8
			c-0.1-0.4-0.1-0.8-0.2-1.2c0-0.3-0.1-0.5-0.2-0.8c-0.1-0.4-0.1-0.7-0.2-1.1c-0.1-0.3-0.1-0.5-0.2-0.8c-0.1-0.4-0.2-0.7-0.3-1.1
			c-0.1-0.3-0.2-0.5-0.2-0.8c-0.1-0.4-0.2-0.7-0.3-1.1c-0.1-0.3-0.2-0.5-0.3-0.8c-0.1-0.3-0.3-0.7-0.4-1c-0.1-0.2-0.2-0.5-0.3-0.7
			c-0.2-0.3-0.3-0.7-0.5-1c-0.1-0.2-0.2-0.5-0.3-0.7c-0.2-0.3-0.3-0.7-0.5-1c-0.1-0.2-0.2-0.4-0.4-0.7c-0.2-0.3-0.4-0.7-0.6-1
			c-0.1-0.2-0.2-0.4-0.4-0.6c-0.2-0.3-0.5-0.7-0.7-1c-0.1-0.2-0.2-0.4-0.4-0.5c-0.3-0.4-0.5-0.7-0.8-1.1c-0.1-0.2-0.2-0.3-0.4-0.5
			c-0.3-0.4-0.6-0.7-0.9-1.1c-0.1-0.1-0.2-0.2-0.3-0.3c-0.4-0.4-0.8-0.9-1.2-1.3c0,0-0.1-0.1-0.1-0.1c-0.9-0.9-1.9-1.8-2.9-2.7
			c0,0,0,0,0,0l0,0c-5.3-4.5-11.9-7.6-19.2-8.9c8.1-1.4,14.7-7.6,16.7-15.5c0.3,0,0.6,0,0.8-0.1c0.4,0.1,0.8,0.1,1.3,0.1
			c5.2,0,9.5-4.2,9.5-9.5s-4.2-9.5-9.5-9.5c-0.3,0-0.5,0-0.8,0V98.9h2.3c5.5,0,9.9-4.4,9.9-9.9c0-5.5-4.4-9.9-9.9-9.9h-6.3
			c-3.1-3.4-7.7-5.5-12.9-5.5L138,79h-6.7l4.5-5.5h-16.1c-8.8,0-16,6.2-16.8,14c-2.2,3.2-3.6,7.1-3.6,11.3v14.6
			c-3.7,1.4-6.4,5-6.4,9.2c0,5.4,4.4,9.8,9.8,9.8c0.4,0,0.9,0,1.3-0.1c0.4,0.1,0.9,0.1,1.3,0.1c0.6,0,1.1-0.1,1.7-0.1
			c1.7,6.3,6.3,11.5,12.3,14l-0.1,1.2c-6.6,1.2-12.6,3.9-17.6,7.6c-2,0.8-3.6,2.3-4.7,4.1c-6.3,6.6-10.2,15.3-10.2,24.8v31.3
			c-0.8-0.4-1.8-0.7-2.8-0.7H73.2c-3,0-5.4,2.1-6,4.9H11.7c-3.5,0-6.3,2.8-6.3,6.3v0.2c0,3.5,2.8,6.3,6.3,6.3h31.6L29.1,352.1h9.2
			l4.5-38.2h29.3l3.4,28.5c0,0.3-0.1,0.7-0.1,1.1h0.2l1,8.6h9.2l0-0.3c4.5-0.1,8.1-3.7,8.1-8.2h2c0-4.8-3.3-8.8-7.7-9.9
			c0.7-7.6,5.8-13.5,12.1-13.5h11.8c-3.3,3.4-5.4,8.2-5.8,13.6c-4.3,1.2-7.5,5.2-7.5,9.8h2c0,4.5,3.7,8.2,8.2,8.2
			c4.5,0,8.2-3.7,8.2-8.2h2c0-4.9-3.4-9-8-10c0.7-7.5,5.8-13.4,12.1-13.4h7.6c6.2,0,11.4,5.9,12.1,13.5c-4.4,1.1-7.7,5.1-7.7,9.9h2
			c0,4.5,3.7,8.2,8.2,8.2c4.5,0,8.2-3.7,8.2-8.2h2c0-4.8-3.3-8.8-7.8-9.9c-0.4-5.4-2.5-10.1-5.8-13.5H154c6.2,0,11.4,5.9,12.1,13.5
			c-4.5,1.1-7.9,5.1-7.9,10h2c0,4.5,3.7,8.2,8.2,8.2c4.5,0,8.2-3.7,8.2-8.2h2c0-4.7-3.2-8.7-7.6-9.9c-0.7-10.4-8.1-18.5-17.1-18.5
			h-20.4v-21.7h-2.4V287v-2.2h9.6c4.4,0,8-3.6,8-8v-0.8h14.1h0.6c3.4,0,6.2-2.3,7-5.4c0.3-0.8,0.4-1.7,0.4-2.6v-1.5
			c0-0.9-0.2-1.8-0.5-2.6c-0.5-2-1.9-3.7-3.7-4.6c0,0.1,0,0.2,0.1,0.2c-1-0.5-2.1-0.9-3.2-1h6.9v1.2c0,2.6,2.1,4.8,4.8,4.8
			c2.6,0,4.8-2.1,4.8-4.8v-1.2h8.2v69.5h-1.6v7.2h1.6v16.7h43.8c0-9.2-7.5-16.7-16.7-16.7h-5.6v-7.2h-1.6v-36l6.2,14.3l-1.5,0.6
			l2.9,6.6l1.5-0.6l6.7,15.4l40.2-17.4c-3.7-8.5-13.5-12.4-22-8.7l-5.2,2.2l-2.9-6.6l-1.5,0.6l-28.6-66.1H309l-14.2,119.6h9.2
			l4.5-38.2h29.3l4.5,38.2h9.2l-14.2-119.6h32.4c3.5,0,6.3-2.8,6.3-6.3V226C376.1,222.5,373.3,219.7,369.8,219.7z M71.7,232.5h2.2
			v18.2L71.7,232.5z M43.9,305l8.6-72.5h10l8.6,72.5H43.9z M121.7,287v6.4h-2.4v21.7h-19c-8.5,0-15.5,7.3-16.9,16.9l-8.1-68.7
			c0.9,0.8,2,1.3,3.3,1.3c2.6,0,4.8-2.1,4.8-4.8v-27.4h3.4v6.6c0,1.8,0.7,3.5,1.7,4.9c0,0,0,0,0,0c0.5,0.6,1.1,1.2,1.8,1.7
			c0,0,0.1,0,0.1,0.1c0.3,0.2,0.7,0.4,1,0.6c0,0,0.1,0,0.1,0.1c0.3,0.2,0.7,0.3,1.1,0.4c0,0,0.1,0,0.1,0c0.4,0.1,0.8,0.2,1.2,0.3
			c0.1,0,0.2,0,0.3,0c0.4,0.1,0.8,0.1,1.3,0.1H97c2.5,6.5,8.8,11.2,16.1,11.4H90.9c-4.4,0-8,3.6-8,8v1.5c0,1.2,0.3,2.3,0.7,3.3
			c-0.2-0.1-0.4-0.1-0.5-0.2c1,2.9,3.7,4.9,6.9,4.9h1H105v0.8c0,4.4,3.6,8,8,8h8.7V287z M336.8,305h-27.2l8.6-72.5h10L336.8,305z"/>
		<g>
			<g>
				<rect x="145" y="236.1" class="st3" width="9.5" height="44.9"/>
				<path class="st3" d="M164.1,278.9h-27.8c-4.4,0-8-3.6-8-8v-1.5c0-4.4,3.6-8,8-8h27.8c4.4,0,8,3.6,8,8v1.5
					C172.1,275.3,168.5,278.9,164.1,278.9z"/>
				<path class="st4" d="M186.2,270.1h-72c-4.4,0-8-3.6-8-8v-1.5c0-4.4,3.6-8,8-8h72c4.4,0,8,3.6,8,8v1.5
					C194.2,266.5,190.6,270.1,186.2,270.1z"/>
				<path class="st5" d="M190,253.4c0.3,0.7,0.4,1.5,0.4,2.3v3c0,4-3.2,7.2-7.2,7.2h-73.5c-1.2,0-2.3-0.3-3.3-0.8
					c1,2.9,3.7,4.9,6.9,4.9h73.5c4,0,7.2-3.2,7.2-7.2v-3C194,257,192.3,254.6,190,253.4z"/>
				<rect x="145" y="273.7" class="st3" width="9.5" height="24.2"/>
				<path class="st3" d="M198.4,258.6L198.4,258.6c-2.6,0-4.8-2.1-4.8-4.8v-32.7h9.5v32.7C203.2,256.5,201.1,258.6,198.4,258.6z"/>
				<rect x="142.6" y="287.4" class="st6" width="14.3" height="24.2"/>
				<g>
					<path class="st6" d="M171.4,329.3h-5c0-8.4-5.4-15.2-12.1-15.2h-30.6c-6.7,0-12.1,6.8-12.1,15.2h-5c0-11.1,7.7-20.2,17.1-20.2
						h30.6C163.7,309.1,171.4,318.2,171.4,329.3z"/>
				</g>
				<g>
					<path class="st6" d="M194.4,329.3h-5c0-8.4-5.4-15.2-12.1-15.2h-30.6c-6.7,0-12.1,6.8-12.1,15.2h-5c0-11.1,7.7-20.2,17.1-20.2
						h30.6C186.7,309.1,194.4,318.2,194.4,329.3z"/>
				</g>
				<path class="st4" d="M181.6,241.2h-62.9c-4.8,0-8.7-3.6-8.7-8.1v-54.9c0-20.6,18-37.3,40.2-37.3h0c22.2,0,40.2,16.7,40.2,37.3
					V233C190.4,237.5,186.4,241.2,181.6,241.2z"/>
				<path class="st4" d="M203.8,221.2h-10.8c-3.4,0-6.2-2.8-6.2-6.2l0,0c0-3.4,2.8-6.2,6.2-6.2h10.8c3.4,0,6.2,2.8,6.2,6.2l0,0
					C210,218.4,207.2,221.2,203.8,221.2z"/>
				<path class="st3" d="M101.9,258.6L101.9,258.6c-2.6,0-4.8-2.1-4.8-4.8v-32.7h9.5v32.7C106.6,256.5,104.5,258.6,101.9,258.6z"/>
				<path class="st4" d="M107.2,221.2H96.5c-3.4,0-6.2-2.8-6.2-6.2l0,0c0-3.4,2.8-6.2,6.2-6.2h10.8c3.4,0,6.2,2.8,6.2,6.2l0,0
					C113.4,218.4,110.6,221.2,107.2,221.2z"/>
				<g>
					<circle class="st3" cx="109" cy="337.5" r="8.2"/>
					<path class="st3" d="M98.8,337.5c0-5.7,4.6-10.2,10.2-10.2c5.7,0,10.2,4.6,10.2,10.2"/>
				</g>
				<g>
					<circle class="st3" cx="132.3" cy="337.5" r="8.2"/>
					<path class="st3" d="M122.1,337.5c0-5.7,4.6-10.2,10.2-10.2c5.7,0,10.2,4.6,10.2,10.2"/>
				</g>
				<path class="st5" d="M177.1,150.5c5.3,6.3,8.5,14.3,8.5,22.9v54.9c0,4.5-3.9,8.1-8.7,8.1H114c-1.2,0-2.4-0.2-3.5-0.7
					c1.2,3.2,4.4,5.4,8.2,5.4h62.9c4.8,0,8.7-3.6,8.7-8.1v-54.9C190.4,167.2,185.2,157.3,177.1,150.5z"/>
				<g>
					<circle class="st3" cx="168.9" cy="337.5" r="8.2"/>
					<path class="st3" d="M158.7,337.5c0-5.7,4.6-10.2,10.2-10.2c5.7,0,10.2,4.6,10.2,10.2"/>
				</g>
				<g>
					<circle class="st3" cx="191.7" cy="337.5" r="8.2"/>
					<path class="st3" d="M181.5,337.5c0-5.7,4.6-10.2,10.2-10.2c5.7,0,10.2,4.6,10.2,10.2"/>
				</g>
			</g>
			<polygon class="st7" points="141.6,151.1 155.9,151.1 158,129.9 143.7,129.9 			"/>
			<path class="st8" d="M171.7,213.7L171.7,213.7c7.5-0.4,11.8-8.9,7.6-15.2l-26.1-39.9c-1.9-2.9-5.3-4.6-8.8-4.4h0
				c-7.5,0.4-11.8,8.9-7.6,15.2l26.1,39.9C164.8,212.3,168.2,214,171.7,213.7z"/>
			<path class="st8" d="M237.6,193.9h-66.7c-5.5,0-9.9,4.4-9.9,9.9l0,0c0,5.5,4.4,9.9,9.9,9.9h66.7c5.5,0,9.9-4.4,9.9-9.9l0,0
				C247.5,198.3,243.1,193.9,237.6,193.9z"/>
			<path class="st9" d="M178.9,252.6l35.7-15.3c5-2.2,7.4-8,5.2-13l0,0c-2.2-5-8-7.4-13-5.2l-54.6,23.4c-4.2,1.8-6.3,5.8-5.8,10.1"
				/>
			<path class="st10" d="M221.3,232.8h-66.7c-5.5,0-9.9,4.4-9.9,9.9v0c0,5.5,4.4,9.9,9.9,9.9h66.7c5.5,0,9.9-4.4,9.9-9.9v0
				C231.2,237.2,226.8,232.8,221.3,232.8z"/>
			<path class="st10" d="M211.4,243.6v83.7h19.9v-83.7c0-6-4.4-10.8-9.9-10.8l0,0C215.8,232.8,211.4,237.6,211.4,243.6z"/>
			<g>
				<circle class="st11" cx="176.7" cy="116.7" r="9.5"/>
				<circle class="st12" cx="174.2" cy="116.7" r="9.5"/>
			</g>
			<path class="st13" d="M161.1,148.5H134c-8.3,0-15,6.7-15,15V233h57.1v-69.5C176.1,155.2,169.4,148.5,161.1,148.5z"/>
			<path class="st14" d="M159.1,67.5c9.3,0,16.8,6.9,16.8,15.5v27"/>
			<path class="st15" d="M150.6,141.9h3.7c11.6,0,21-9.4,21-21V96.2c0-8.6-7-15.5-15.5-15.5h-14.6c-8.6,0-15.5,7-15.5,15.5v24.7
				C129.6,132.5,139,141.9,150.6,141.9z"/>
			<path class="st16" d="M187.8,193.9h-59.8c-4.9,0-8.9,4.4-8.9,9.9l0,0c0,5.5,4,9.9,8.9,9.9h59.8c4.9,0,8.9-4.4,8.9-9.9l0,0
				C196.7,198.3,192.7,193.9,187.8,193.9z"/>
			<path class="st17" d="M142.5,73h35.8c5.5,0,9.9,4.4,9.9,9.9l0,0c0,5.5-4.4,9.9-9.9,9.9h-30c-6.4,0-11.6,5.2-11.6,11.6v0
				c0,6.3-5.1,11.4-11.4,11.4h-2.7v-23l0,0C122.6,81.9,131.5,73,142.5,73z"/>
			<path class="st14" d="M126.1,107.7V83c0-8.6,7.5-15.5,16.8-15.5h16.1"/>
			<g>
				<g>
					<g>
						<path class="st7" d="M147.2,117.7c0,2.2-1.9,4-4.3,4c-2.4,0-4.3-1.8-4.3-4c0-2.2,1.9-4,4.3-4
							C145.3,113.7,147.2,115.5,147.2,117.7z"/>
					</g>
				</g>
				<g>
					<defs>
						<path id="SVGID_1_" d="M166.1,127.1c0,3.9-3.2,7.1-7.1,7.1l0,0c-3.9,0-7.1-3.2-7.1-7.1"/>
					</defs>
					<use xlink:href="#SVGID_1_"  style="overflow:visible;fill:#333333;"/>
					<clipPath id="SVGID_00000013171670534286499820000001486024634533538964_">
						<use xlink:href="#SVGID_1_"  style="overflow:visible;"/>
					</clipPath>
					<g style="clip-path:url(#SVGID_00000013171670534286499820000001486024634533538964_);">
						<g>
							<path class="st19" d="M165,132.8c0,1.4-2.7,2.5-5.9,2.5c-3.3,0-5.9-1.1-5.9-2.5s2.7-2.5,5.9-2.5
								C162.3,130.3,165,131.4,165,132.8z"/>
						</g>
						<g>
							<rect x="152" y="126.7" class="st6" width="14.1" height="2.4"/>
						</g>
					</g>
				</g>
				<g>
					<g>
						<path class="st7" d="M175.3,114.3c-0.7-0.4-1.5-0.6-2.3-0.6c-2.4,0-4.3,1.8-4.3,4c0,2.2,1.9,4,4.3,4c0.7,0,1.7-0.3,2.3-0.6"/>
					</g>
				</g>
				<path class="st20" d="M145.2,108.7c0,2,1.1,3.7,2.5,3.7c1.4,0,2.5-1.6,2.5-3.7s-1.1-3.7-2.5-3.7
					C146.4,105,145.2,106.6,145.2,108.7z"/>
				<path class="st20" d="M166.7,108.7c0,2,1.1,3.7,2.5,3.7s2.5-1.6,2.5-3.7s-1.1-3.7-2.5-3.7S166.7,106.6,166.7,108.7z"/>
				<g>
					<path class="st17" d="M149.1,99.9c-0.9,0.2-1.8,0.3-2.6,0.5c-0.8,0.2-1.6,0.4-2.3,0.6c-0.7,0.2-1.5,0.5-2.2,0.9l-2.4,1.1
						c0.6-1.9,2.2-3.2,4-3.8C145.5,98.5,147.6,98.7,149.1,99.9z"/>
				</g>
				<g>
					<path class="st17" d="M164.9,99.9c1.5-1.2,3.7-1.4,5.5-0.8c1.8,0.6,3.5,2,4,3.8l-2.4-1.1c-0.8-0.3-1.5-0.6-2.2-0.9
						c-0.7-0.2-1.5-0.4-2.3-0.6C166.7,100.2,165.9,100.1,164.9,99.9z"/>
				</g>
				<ellipse class="st21" cx="159.1" cy="121.7" rx="3.4" ry="1.2"/>
			</g>
			<path class="st22" d="M238.5,329.4h-27.1v16.7h43.8l0,0C255.2,336.9,247.7,329.4,238.5,329.4z"/>
			<rect x="209.7" y="322.1" class="st9" width="23.1" height="7.2"/>
			<path class="st23" d="M206.2,228.4l33.3,76.8l18.2-7.9l-33.3-76.8c-2.4-5.5-8.4-8.2-13.4-6l0,0
				C205.9,216.7,203.8,222.9,206.2,228.4z"/>
			<path class="st22" d="M265.2,296.3l-24.9,10.8l6.7,15.4l40.2-17.4l0,0C283.5,296.5,273.6,292.6,265.2,296.3z"/>
			
				<rect x="236.4" y="296.2" transform="matrix(0.9175 -0.3977 0.3977 0.9175 -98.7748 123.3368)" class="st9" width="23.1" height="7.2"/>
			<path class="st14" d="M132,122.9c3.2,10.1,13.5,13.8,20.8,12.5"/>
			<path class="st12" d="M156,135.3c0,1.8-1.4,3.2-3.2,3.2c-1.8,0-3.2-1.4-3.2-3.2c0-1.8,1.4-3.2,3.2-3.2
				C154.5,132.1,156,133.6,156,135.3z"/>
			<g>
				<circle class="st12" cx="128.7" cy="116.7" r="9.8"/>
				<circle class="st11" cx="126.1" cy="116.7" r="9.8"/>
				<path class="st12" d="M120.2,116.7c0,3.3,2.6,5.9,5.9,5.9c3.3,0,5.9-2.6,5.9-5.9s-2.6-5.9-5.9-5.9
					C122.8,110.7,120.2,113.4,120.2,116.7z"/>
			</g>
			<path class="st15" d="M199,205.5c0-6.4-5.2-11.6-11.6-11.6c-6.4,0-11.6,5.2-11.6,11.6"/>
			<g>
				<path class="st22" d="M393.1,226.5H35c-3.5,0-6.3-2.8-6.3-6.3V220c0-3.5,2.8-6.3,6.3-6.3h358.1c3.5,0,6.3,2.8,6.3,6.3v0.2
					C399.3,223.7,396.5,226.5,393.1,226.5z"/>
				<g>
					<polygon class="st24" points="327.3,346.1 318.1,346.1 332.3,226.5 341.5,226.5 					"/>
					<polygon class="st24" points="365.7,346.1 374.9,346.1 360.7,226.5 351.5,226.5 					"/>
					<rect x="327.9" y="299" class="st24" width="35.3" height="8.9"/>
				</g>
				<g>
					<polygon class="st24" points="61.6,346.1 52.4,346.1 66.6,226.5 75.8,226.5 					"/>
					<polygon class="st24" points="100,346.1 109.1,346.1 95,226.5 85.8,226.5 					"/>
					<rect x="62.2" y="299" class="st24" width="35.3" height="8.9"/>
				</g>
			</g>
			<path class="st15" d="M248.8,205.5c0-6.4-5.2-11.6-11.6-11.6c-6.4,0-11.6,5.2-11.6,11.6"/>
			
				<rect x="175.8" y="205.6" transform="matrix(-1 -1.224647e-16 1.224647e-16 -1 463.1602 419.3167)" class="st25" width="111.6" height="8.2"/>
			<path class="st16" d="M128.5,213.8L128.5,213.8c-5.2,0-9.5-4.2-9.5-9.5V158c0-5.2,4.2-9.5,9.5-9.5h0c5.2,0,9.5,4.2,9.5,9.5v46.3
				C137.9,209.5,133.7,213.8,128.5,213.8z"/>
			<path class="st10" d="M176.1,252.6H137c-9.9,0-18-8.1-18-18v-1.9h57.1V252.6z"/>
			<g>
				<path class="st25" d="M215.2,192.4h87.4c2.4,0,4.7-2.2,5.1-4.8l8.2-54.6c0.4-2.6-1.3-4.8-3.7-4.8h-88.7c-2.4,0-4.7,2.2-5,4.8
					l-7,54.6C211.1,190.3,212.8,192.4,215.2,192.4z"/>
				<path class="st6" d="M217.8,192.4h87.4c2.4,0,4.7-2.2,5.1-4.8l8.2-54.6c0.4-2.6-1.3-4.8-3.7-4.8h-88.7c-2.4,0-4.7,2.2-5,4.8
					l-7,54.6C213.8,190.3,215.4,192.4,217.8,192.4z"/>
				<polygon class="st26" points="266.1,212.2 284,212.2 256.4,159.9 256.4,169.2 				"/>
				
					<rect x="242" y="203" transform="matrix(-1 -1.224647e-16 1.224647e-16 -1 540.9294 416.7039)" class="st6" width="57" height="10.8"/>
				<polygon class="st25" points="266.1,203 284,203 273.6,159.9 256.4,159.9 				"/>
			</g>
		</g>
	</g>
	<rect x="-28" y="345.8" class="st4" width="500" height="62.2"/>
	<g class="st27">
		<g class="st28">
			<g>
				<g>
					<path class="st6" d="M45.2,3.7c0,2,0,4.1,0,6.1c0,1.3,2,1.3,2,0c0-2,0-4.1,0-6.1C47.2,2.4,45.2,2.4,45.2,3.7L45.2,3.7z"/>
				</g>
			</g>
			<g>
				<g>
					<path class="st6" d="M35.2,10.5c1.8,1,3.5,2,5.3,3c1.1,0.6,2.1-1.1,1-1.7c-1.8-1-3.5-2-5.3-3C35.1,8.1,34.1,9.9,35.2,10.5
						L35.2,10.5z"/>
				</g>
			</g>
			<g>
				<g>
					<path class="st6" d="M36.1,22.6c1.8-1,3.5-2,5.3-3c1.1-0.6,0.1-2.4-1-1.7c-1.8,1-3.5,2-5.3,3C34,21.5,35,23.3,36.1,22.6
						L36.1,22.6z"/>
				</g>
			</g>
			<g>
				<g>
					<path class="st6" d="M47,27.9c0-2,0-4.1,0-6.1c0-1.3-2-1.3-2,0c0,2,0,4.1,0,6.1C45,29.2,47,29.2,47,27.9L47,27.9z"/>
				</g>
			</g>
			<g>
				<g>
					<path class="st6" d="M57.1,21c-1.8-1-3.5-2-5.3-3c-1.1-0.6-2.1,1.1-1,1.7c1.8,1,3.5,2,5.3,3C57.2,23.4,58.2,21.7,57.1,21
						L57.1,21z"/>
				</g>
			</g>
			<g>
				<g>
					<path class="st6" d="M56.1,8.9c-1.8,1-3.5,2-5.3,3c-1.1,0.6-0.1,2.4,1,1.7c1.8-1,3.5-2,5.3-3C58.3,10,57.2,8.3,56.1,8.9
						L56.1,8.9z"/>
				</g>
			</g>
		</g>
		<g class="st28">
			<g>
				<g>
					<path class="st6" d="M40.4,157.4c0,2,0,4.1,0,6.1c0,1.3,2,1.3,2,0c0-2,0-4.1,0-6.1C42.4,156.1,40.4,156.1,40.4,157.4
						L40.4,157.4z"/>
				</g>
			</g>
			<g>
				<g>
					<path class="st6" d="M30.4,164.2c1.8,1,3.5,2,5.3,3c1.1,0.6,2.1-1.1,1-1.7c-1.8-1-3.5-2-5.3-3
						C30.3,161.8,29.3,163.6,30.4,164.2L30.4,164.2z"/>
				</g>
			</g>
			<g>
				<g>
					<path class="st6" d="M31.3,176.3c1.8-1,3.5-2,5.3-3c1.1-0.6,0.1-2.4-1-1.7c-1.8,1-3.5,2-5.3,3C29.2,175.2,30.2,177,31.3,176.3
						L31.3,176.3z"/>
				</g>
			</g>
			<g>
				<g>
					<path class="st6" d="M42.3,181.6c0-2,0-4.1,0-6.1c0-1.3-2-1.3-2,0c0,2,0,4.1,0,6.1C40.3,182.9,42.3,182.9,42.3,181.6
						L42.3,181.6z"/>
				</g>
			</g>
			<g>
				<g>
					<path class="st6" d="M52.3,174.7c-1.8-1-3.5-2-5.3-3c-1.1-0.6-2.1,1.1-1,1.7c1.8,1,3.5,2,5.3,3
						C52.4,177.1,53.4,175.4,52.3,174.7L52.3,174.7z"/>
				</g>
			</g>
			<g>
				<g>
					<path class="st6" d="M51.4,162.6c-1.8,1-3.5,2-5.3,3c-1.1,0.6-0.1,2.4,1,1.7c1.8-1,3.5-2,5.3-3C53.5,163.7,52.5,162,51.4,162.6
						L51.4,162.6z"/>
				</g>
			</g>
		</g>
		<g class="st28">
			<g>
				<g>
					<path class="st6" d="M398.4,158.8c0,2,0,4.1,0,6.1c0,1.3,2,1.3,2,0c0-2,0-4.1,0-6.1C400.4,157.5,398.4,157.5,398.4,158.8
						L398.4,158.8z"/>
				</g>
			</g>
			<g>
				<g>
					<path class="st6" d="M388.4,165.7c1.8,1,3.5,2,5.3,3c1.1,0.6,2.1-1.1,1-1.7c-1.8-1-3.5-2-5.3-3
						C388.3,163.3,387.3,165,388.4,165.7L388.4,165.7z"/>
				</g>
			</g>
			<g>
				<g>
					<path class="st6" d="M389.3,177.8c1.8-1,3.5-2,5.3-3c1.1-0.6,0.1-2.4-1-1.7c-1.8,1-3.5,2-5.3,3
						C387.2,176.7,388.2,178.4,389.3,177.8L389.3,177.8z"/>
				</g>
			</g>
			<g>
				<g>
					<path class="st6" d="M400.3,183c0-2,0-4.1,0-6.1c0-1.3-2-1.3-2,0c0,2,0,4.1,0,6.1C398.3,184.3,400.3,184.3,400.3,183L400.3,183
						z"/>
				</g>
			</g>
			<g>
				<g>
					<path class="st6" d="M410.3,176.2c-1.8-1-3.5-2-5.3-3c-1.1-0.6-2.1,1.1-1,1.7c1.8,1,3.5,2,5.3,3
						C410.4,178.5,411.4,176.8,410.3,176.2L410.3,176.2z"/>
				</g>
			</g>
			<g>
				<g>
					<path class="st6" d="M409.3,164.1c-1.8,1-3.5,2-5.3,3c-1.1,0.6-0.1,2.4,1,1.7c1.8-1,3.5-2,5.3-3
						C411.5,165.2,410.5,163.4,409.3,164.1L409.3,164.1z"/>
				</g>
			</g>
		</g>
		<g class="st28">
			<g>
				<path class="st6" d="M112.8,15.8c-0.3,4.8-7.6,4.9-7.6,0C105.2,10.9,112.5,10.9,112.8,15.8c0.1,1.3,2.1,1.3,2,0
					c-0.2-3.1-2.5-5.8-5.8-5.8c-3.1,0-5.8,2.6-5.8,5.8c0,3,2.5,5.6,5.5,5.8c3.4,0.1,5.9-2.5,6-5.8C114.8,14.5,112.8,14.5,112.8,15.8
					z"/>
			</g>
		</g>
		<g class="st28">
			<g>
				<path class="st6" d="M45,80.7c-0.3,4.8-7.6,4.9-7.6,0C37.5,75.8,44.8,75.9,45,80.7c0.1,1.3,2.1,1.3,2,0
					c-0.2-3.1-2.5-5.8-5.8-5.8c-3.1,0-5.8,2.6-5.8,5.8c0,3,2.5,5.6,5.5,5.8c3.4,0.1,5.9-2.5,6-5.8C47.1,79.4,45.1,79.4,45,80.7z"/>
			</g>
		</g>
		<g class="st28">
			<g>
				<path class="st6" d="M354.1,191c-0.3,4.8-7.6,4.9-7.6,0C346.5,186.1,353.8,186.2,354.1,191c0.1,1.3,2.1,1.3,2,0
					c-0.2-3.1-2.5-5.8-5.8-5.8c-3.1,0-5.8,2.6-5.8,5.8c0,3,2.5,5.6,5.5,5.8c3.4,0.1,5.9-2.5,6-5.8
					C356.2,189.7,354.2,189.7,354.1,191z"/>
			</g>
		</g>
	</g>
	<g class="st27">
		<g class="st28">
			<defs>
				<circle id="SVGID_00000111891594703451999790000009483215814037404603_" cx="330.9" cy="42.6" r="71.1"/>
			</defs>
			<use xlink:href="#SVGID_00000111891594703451999790000009483215814037404603_"  style="overflow:visible;fill:#0988A1;"/>
			<clipPath id="SVGID_00000054235244329415016340000002954560758318367616_">
				<use xlink:href="#SVGID_00000111891594703451999790000009483215814037404603_"  style="overflow:visible;"/>
			</clipPath>
			<g style="clip-path:url(#SVGID_00000054235244329415016340000002954560758318367616_);">
				<rect x="307.7" y="4.1" class="st24" width="58.6" height="70.5"/>
				<path class="st30" d="M277.3,71.1V67h51.6v19.1h-36.6C284,86.1,277.3,79.4,277.3,71.1z"/>
				<polygon class="st15" points="297.5,67 324.8,36.1 312.2,23.2 304.9,36.9 286.6,56.8 				"/>
				<polygon class="st7" points="347.4,63 333,63 330.9,41.8 345.2,41.8 				"/>
				<path class="st31" d="M327.8,60.4h27.1c8.3,0,15,6.7,15,15v69.5h-57.1V75.4C312.8,67.1,319.5,60.4,327.8,60.4z"/>
				<path class="st6" d="M325.1,42.7l-9.7,2.9c-1.1,0.3-2.2-0.3-2.5-1.3l-7.4-24.5c-0.3-1.1,0.3-2.2,1.3-2.5l9.7-2.9
					c1.1-0.3,2.2,0.3,2.5,1.3l7.4,24.5C326.8,41.3,326.2,42.4,325.1,42.7z"/>
				<path class="st15" d="M338.3,53.8h-3.7c-11.5,0-21-9.5-21-21V8.1c0-8.6,7-15.5,15.5-15.5h14.6c8.6,0,15.5,7,15.5,15.5v24.7
					C359.3,44.3,349.9,53.8,338.3,53.8z"/>
				<path class="st24" d="M346.4-15.1h-35.8c-5.5,0-9.9,4.4-9.9,9.9l0,0c0,5.5,4.4,9.9,9.9,9.9h30c6.4,0,11.6,5.2,11.6,11.6v0
					c0,6.3,5.1,11.4,11.4,11.4h2.7v-23l0,0C366.3-6.2,357.4-15.1,346.4-15.1z"/>
				<g>
					<g>
						<g>
							<path class="st7" d="M341.7,29.6c0,2.2,1.9,4,4.3,4c2.4,0,4.3-1.8,4.3-4c0-2.2-1.9-4-4.3-4C343.6,25.6,341.7,27.3,341.7,29.6
								z"/>
						</g>
					</g>
					<g>
						<defs>
							<path id="SVGID_00000135687652277026967420000003466305979205915839_" d="M322.8,39c0,3.9,3.2,7.1,7.1,7.1l0,0
								c3.9,0,7.1-3.2,7.1-7.1"/>
						</defs>
						<use xlink:href="#SVGID_00000135687652277026967420000003466305979205915839_"  style="overflow:visible;fill:#333333;"/>
						<clipPath id="SVGID_00000181805411256499067580000010361069319685454993_">
							<use xlink:href="#SVGID_00000135687652277026967420000003466305979205915839_"  style="overflow:visible;"/>
						</clipPath>
						<g style="clip-path:url(#SVGID_00000181805411256499067580000010361069319685454993_);">
							<g>
								<path class="st19" d="M323.9,44.7c0,1.4,2.7,2.5,5.9,2.5c3.3,0,5.9-1.1,5.9-2.5s-2.7-2.5-5.9-2.5
									C326.6,42.1,323.9,43.3,323.9,44.7z"/>
							</g>
							<g>
								
									<rect x="322.8" y="38.6" transform="matrix(-1 -1.224647e-16 1.224647e-16 -1 659.6531 79.5603)" class="st6" width="14.1" height="2.4"/>
							</g>
						</g>
					</g>
					<g>
						<g>
							<path class="st7" d="M313.6,26.2c0.7-0.4,1.5-0.6,2.3-0.6c2.4,0,4.3,1.8,4.3,4c0,2.2-1.9,4-4.3,4c-0.7,0-1.7-0.3-2.3-0.6"/>
						</g>
					</g>
					<path class="st20" d="M343.7,20.5c0,2-1.1,3.7-2.5,3.7c-1.4,0-2.5-1.6-2.5-3.7s1.1-3.7,2.5-3.7
						C342.6,16.9,343.7,18.5,343.7,20.5z"/>
					<path class="st20" d="M322.2,20.5c0,2-1.1,3.7-2.5,3.7s-2.5-1.6-2.5-3.7s1.1-3.7,2.5-3.7S322.2,18.5,322.2,20.5z"/>
					<g>
						<path class="st33" d="M339.8,11.7c1.5-1.2,3.7-1.4,5.5-0.8c1.8,0.6,3.5,2,4,3.8l-2.4-1.1c-0.8-0.3-1.5-0.6-2.2-0.9
							c-0.7-0.2-1.5-0.4-2.3-0.6C341.5,12.1,340.7,11.9,339.8,11.7z"/>
					</g>
					<g>
						<path class="st33" d="M324,11.7c-0.9,0.2-1.8,0.3-2.6,0.5c-0.8,0.2-1.6,0.4-2.3,0.6c-0.7,0.2-1.5,0.5-2.2,0.9l-2.4,1.1
							c0.6-1.9,2.2-3.2,4-3.8C320.3,10.4,322.4,10.5,324,11.7z"/>
					</g>
					<ellipse class="st21" cx="329.8" cy="33.5" rx="3.4" ry="1.2"/>
				</g>
				<path class="st30" d="M393.1,114.9L393.1,114.9c4.3-3,5.2-9,2.2-13.2L368.3,64c-3-4.3-9-5.2-13.2-2.2l0,0c-4.3,3-5.2,9-2.2,13.2
					l26.9,37.7C382.9,116.9,388.8,117.9,393.1,114.9z"/>
				<path class="st15" d="M359.3,35.5L359.3,35.5c-2,0-3.7-1.6-3.7-3.7v-4.5c0-2,1.6-3.7,3.7-3.7l0,0c2,0,3.7,1.6,3.7,3.7v4.5
					C363,33.8,361.3,35.5,359.3,35.5z"/>
				<path class="st30" d="M283.5,83.2l-1.5-1.5c-6.7-6.5-6.9-17.3-0.4-24L298,40.8l13.7,13.3L283.5,83.2z"/>
			</g>
		</g>
		<g class="st28">
			<path class="st6" d="M239.4,35.5h-81.9c-6.6,0-12-5.4-12-12v-40c0-6.6,5.4-12,12-12h81.9c6.6,0,12,5.4,12,12v40
				C251.4,30.1,246,35.5,239.4,35.5z"/>
			<polygon class="st6" points="239.4,35.5 270.2,35.5 251.4,14.3 			"/>
			<g>
				<path class="st25" d="M236,6.9h-75.1c-1.9,0-3.4-1.5-3.4-3.4v0c0-1.9,1.5-3.4,3.4-3.4H236c1.9,0,3.4,1.5,3.4,3.4v0
					C239.4,5.4,237.9,6.9,236,6.9z"/>
				<path class="st25" d="M195.1,22.5h-34.2c-1.9,0-3.4-1.5-3.4-3.4v0c0-1.9,1.5-3.4,3.4-3.4h34.2c1.9,0,3.4,1.5,3.4,3.4v0
					C198.4,21,196.9,22.5,195.1,22.5z"/>
			</g>
		</g>
		<circle class="st34" cx="330.9" cy="42.6" r="79.1"/>
	</g>
</g>
<g id="DESIGNED_BY_FREEPIK" class="st27">
</g>
</svg>
