<?xml version="1.0" encoding="UTF-8"?>
<svg id="Layer_1" xmlns="http://www.w3.org/2000/svg" version="1.1" viewBox="0 0 2500 1163">
  <!-- Generator: Adobe Illustrator 29.5.0, SVG Export Plug-In . SVG Version: 2.1.0 Build 137)  -->
  <defs>
    <style>
      .st0 {
        fill: #005128;
      }

      .st1 {
        fill: #fff;
      }

      .st2 {
        fill: #00b67a;
      }
    </style>
  </defs>
  <path class="st2" d="M.32,694.32h468.68v468.68H.32v-468.68ZM507.99,694.32h468.68v468.68h-468.68v-468.68ZM1015.66,694.32h468.68v468.68h-468.68v-468.68ZM1523.33,694.32h468.68v468.68h-468.68v-468.68ZM2031,694.32h468.68v468.68h-468.68v-468.68Z"/>
  <path class="st1" d="M234.66,1010.24l71.28-18.1,29.79,91.78-101.07-73.68ZM398.62,891.57h-125.47l-38.59-118.17-38.59,118.17h-125.47l101.57,73.18-38.59,118.17,101.57-73.18,62.48-44.89,101.07-73.18v-.1ZM742.33,1010.24l71.28-18.1,29.79,91.78-101.07-73.68ZM906.39,891.57h-125.47l-38.59-118.17-38.59,118.17h-125.47l101.57,73.18-38.59,118.17,101.57-73.18,62.48-44.89,101.07-73.18v-.1ZM1250,1010.24l71.28-18.1,29.79,91.78-101.07-73.68ZM1414.06,891.57h-125.47l-38.59-118.17-38.59,118.17h-125.47l101.57,73.18-38.59,118.17,101.57-73.18,62.48-44.89,101.07-73.18v-.1ZM1757.67,1010.24l71.28-18.1,29.79,91.78-101.07-73.68ZM1921.73,891.57h-125.47l-38.59-118.17-38.59,118.17h-125.47l101.57,73.18-38.59,118.17,101.57-73.18,62.48-44.89,101.07-73.18v-.1ZM2265.34,1010.24l71.28-18.1,29.79,91.78-101.07-73.68ZM2429.4,891.57h-125.47l-38.59-118.17-38.59,118.17h-125.47l101.57,73.18-38.59,118.17,101.57-73.18,62.48-44.89,101.07-73.18v-.1Z"/>
  <path class="st1" d="M657.25,217.44h252.83v47.09h-99.57v265.33h-54.59v-265.33h-99.17l.4-47.09h.1ZM899.29,303.72h46.69v43.69h.8c1.7-6.2,4.6-12.1,8.8-17.9s9.2-11.3,15.4-15.8c5.8-5,12.5-8.8,19.99-11.7,7.1-2.9,14.6-4.6,22.09-4.6s10,.4,12.1.4c2.1.4,4.6.8,6.7.8v47.89c-3.3-.8-7.1-1.2-10.8-1.7-3.7-.4-7.1-.8-10.8-.8-8.3,0-16.2,1.7-23.79,5s-13.8,8.3-19.59,14.6c-5.4,6.7-10,14.6-13.3,24.19s-5,20.79-5,33.29v107.47h-49.99l.8-224.94-.1.1ZM1260.8,529.86h-49.19v-31.69h-.8c-6.2,11.7-15.4,20.39-27.49,27.49s-24.59,10.4-37.09,10.4c-29.59,0-51.19-7.1-64.58-22.09-13.3-14.6-19.99-37.09-19.99-66.68v-143.66h49.99v138.66c0,19.99,3.7,34.19,11.7,42.09,7.5,8.3,18.3,12.5,32.09,12.5s19.19-1.7,26.19-5c7.1-3.3,12.9-7.5,17.1-12.9,4.6-5.4,7.5-12.1,9.6-19.59s2.9-15.8,2.9-24.59v-131.17h49.99v226.14h-.4v.1ZM1345.78,457.38c1.7,14.6,7.1,24.59,16.7,30.79,9.6,5.8,21.29,8.8,34.59,8.8s10-.4,15.8-1.2,11.7-2.1,16.7-4.2c5.4-2.1,9.6-5,12.9-9.2s5-9.2,4.6-15.4-2.5-11.7-7.1-15.8-10-7.1-16.7-10c-6.7-2.5-14.6-4.6-23.29-6.2-8.8-1.7-17.5-3.7-26.69-5.8s-18.3-4.6-27.09-7.5-16.2-6.7-23.29-12.1c-6.7-5-12.5-11.3-16.2-19.2-4.2-7.9-6.2-17.1-6.2-28.69s2.9-22.49,9.2-30.79c5.8-8.3,13.7-15,22.89-19.99s19.59-8.8,30.79-10.8c11.2-2.1,22.09-2.9,32.09-2.9s22.89,1.2,33.29,3.7,20.39,6.2,28.69,12.1c8.8,5.4,15.8,12.9,21.29,21.69,5.8,8.8,9.2,19.59,10.8,32.09h-52.09c-2.5-12.1-7.9-19.99-16.2-24.19-8.8-4.2-18.3-6.2-29.59-6.2s-7.9.4-12.5.8c-5,.8-9.2,1.7-13.7,3.3-4.2,1.7-7.9,4.2-10.8,7.1s-4.6,7.1-4.6,12.1,2.1,10.8,6.2,14.6c4.2,3.7,9.6,6.7,16.7,9.6,6.7,2.5,14.6,4.6,23.29,6.2s17.9,3.7,27.09,5.8,17.9,4.6,26.69,7.5,16.7,6.7,23.29,12.1c6.7,5,12.5,11.3,16.7,18.7,4.2,7.5,6.2,17.1,6.2,27.89s-2.9,24.59-9.2,34.19c-6.2,9.2-14.2,17.1-23.79,22.89s-20.79,10-32.49,12.9c-12.1,2.5-23.79,4.2-35.39,4.2s-27.49-1.7-39.59-5-22.89-8.3-31.69-14.6c-8.8-6.7-15.8-14.6-20.79-24.59-5-9.6-7.9-21.29-8.3-34.99h50.39v.4h.4v-.1ZM1510.33,303.72h37.89v-68.28h49.99v67.88h44.99v37.09h-44.99v120.77c0,5.4.4,9.6.8,13.7.4,3.7,1.7,7.1,2.9,9.6,1.7,2.5,4.2,4.6,7.1,5.8,3.3,1.2,7.5,2.1,13.3,2.1s7.1,0,10.4-.4,7.1-.8,10.4-1.7v38.69c-5.4.8-10.8,1.2-16.2,1.7-5.4.8-10.4.8-16.2.8-13.3,0-23.79-1.2-31.69-3.7s-14.2-6.2-18.7-10.8c-4.6-5-7.5-10.8-9.2-17.9s-2.5-15.8-2.9-24.99v-133.27h-37.89v-37.89.8ZM1678.19,303.72h47.09v30.79h.8c7.1-13.3,16.7-22.49,29.19-28.29s25.79-8.8,40.79-8.8,33.29,2.9,46.69,9.6c13.3,6.2,24.19,14.6,32.89,25.79,8.8,10.8,15.4,23.79,19.59,38.29s6.7,30.39,6.7,46.69-2.1,29.99-5.8,44.19c-4.2,14.2-10,27.09-17.9,37.89s-17.9,19.59-30.39,26.19c-12.5,6.7-26.69,10-43.29,10s-14.6-.8-21.69-2.1c-7.1-1.2-14.2-3.3-20.79-6.2-6.7-2.9-12.9-6.7-18.3-11.3-5.8-4.6-10.4-10-14.2-15.8h-.8v112.87h-49.99v-309.92h-.4l-.2.1ZM1852.74,416.99c0-10-1.2-19.99-4.2-29.59-2.5-9.6-6.7-17.9-12.1-25.39s-12.1-13.3-19.59-17.9c-7.9-4.6-17.1-6.7-27.09-6.7-20.79,0-36.69,7.1-47.49,21.69-10.4,14.6-15.8,34.19-15.8,58.28s1.2,22.09,4.2,31.69,6.7,17.9,12.5,24.99c5.4,7.1,12.1,12.5,19.99,16.7s16.7,6.2,27.09,6.2,20.79-2.5,28.69-7.1,14.2-10.8,19.59-17.9c5-7.5,8.8-15.8,10.8-25.39,2.1-10,3.3-19.59,3.3-29.59h.1ZM1940.62,217.44h49.99v47.09h-49.99v-47.09ZM1940.62,303.72h49.99v226.14h-49.99v-226.14ZM2035.2,217.44h49.99v312.42h-49.99V217.44ZM2237.65,536.16c-17.9,0-34.19-2.9-48.29-9.2-14.2-6.2-25.79-14.2-35.79-24.59-9.6-10.4-17.1-23.29-22.09-37.89s-7.9-30.79-7.9-47.89,2.5-32.89,7.9-47.49c5-14.6,12.5-27.09,22.09-37.89,9.6-10.4,21.69-18.7,35.79-24.59,14.2-5.8,30.39-9.2,48.29-9.2s34.19,2.9,48.29,9.2c14.2,5.8,25.79,14.2,35.79,24.59,9.6,10.4,17.1,23.29,22.09,37.89s7.9,30.39,7.9,47.49-2.5,33.29-7.9,47.89-12.5,27.09-22.09,37.89c-9.6,10.4-21.69,18.7-35.79,24.59-14.2,5.8-29.99,9.2-48.29,9.2ZM2237.65,496.57c10.8,0,20.79-2.5,28.79-7.1,8.3-4.6,14.6-10.8,19.99-18.3s9.2-16.2,11.7-25.39c2.5-9.6,3.8-19.2,3.8-29.19s-1.2-19.2-3.8-28.69c-2.5-9.6-6.2-17.9-11.7-25.39s-12.1-13.3-19.99-17.9c-8.3-4.6-17.9-7.1-28.79-7.1s-20.79,2.5-28.79,7.1c-8.3,4.6-14.6,10.8-19.99,17.9-5.4,7.5-9.2,15.8-11.7,25.39s-3.8,19.2-3.8,28.69,1.2,19.59,3.8,29.19c2.5,9.6,6.2,17.9,11.7,25.39,5.4,7.5,12.1,13.7,19.99,18.3,8.3,5,17.9,7.1,28.79,7.1ZM2366.81,303.72h37.89v-68.28h49.99v67.88h44.99v37.09h-44.99v120.77c0,5.4.4,9.6.8,13.7.4,3.7,1.7,7.1,2.9,9.6,1.7,2.5,4.2,4.6,7.1,5.8,3.3,1.2,7.5,2.1,13.3,2.1s7.1,0,10.4-.4,7.1-.8,10.4-1.7v38.69c-5.4.8-10.8,1.2-16.3,1.7-5.4.8-10.4.8-16.3.8-13.3,0-23.79-1.2-31.69-3.7s-14.2-6.2-18.7-10.8c-4.6-5-7.5-10.8-9.2-17.9s-2.5-15.8-2.9-24.99v-133.27h-37.89v-37.89.8h.2Z"/>
  <path class="st2" d="M598.97,217.44h-228.74L299.85,0l-70.78,217.44-228.74-.4,184.95,134.57-70.78,217.44,184.95-134.57,184.95,134.57-70.38-217.44,184.95-134.17Z"/>
  <path class="st0" d="M429.81,400.7l-15.8-49.19-114.17,82.88,129.97-33.79v.1Z"/>
</svg>