<?xml version="1.0" encoding="UTF-8"?>
<svg id="Layer_1" xmlns="http://www.w3.org/2000/svg" version="1.1" viewBox="0 0 384 384">
  <!-- Generator: Adobe Illustrator 29.5.0, SVG Export Plug-In . SVG Version: 2.1.0 Build 137)  -->
  <defs>
    <style>
      .st0 {
        fill: #fe9833;
      }

      .st1 {
        fill: #fcbe01;
      }

      .st2 {
        fill: #c0136b;
      }

      .st3 {
        fill: #fc9833;
      }

      .st4 {
        fill: #fecb98;
      }

      .st5 {
        fill: #01215a;
      }

      .st6 {
        fill: #fe9001;
      }

      .st7 {
        fill: #feb367;
      }

      .st8 {
        fill: #295fcb;
      }

      .st9 {
        fill: #fed82d;
      }

      .st10 {
        fill: #6ca3ea;
      }

      .st11 {
        fill: #295fcc;
      }

      .st12 {
        fill: #0189fe;
      }

      .st13 {
        fill: #fb661e;
      }

      .st14 {
        fill: #fd405d;
      }

      .st15 {
        fill: #fea54d;
      }

      .st16 {
        fill: #cbedfe;
      }

      .st17 {
        fill: #0189fd;
      }

      .st18 {
        fill: #99cffe;
      }

      .st19 {
        fill: #fe405c;
      }

      .st20 {
        fill: #fecb99;
      }

      .st21 {
        fill: #01e8cc;
      }

      .st22 {
        fill: #192b80;
      }

      .st23 {
        fill: #004db5;
      }

      .st24 {
        fill: #fefefe;
      }

      .st25 {
        fill: #79fde3;
      }

      .st26 {
        fill: #fca44d;
      }
    </style>
  </defs>
  <g>
    <path class="st8" d="M293.25,104.46v132.81c-2.59,8.33-7.92,12.77-16.79,13.34-18.09,1.17-37.52-.73-55.8-.02-.76.03-1.59-.4-1.37.78l-.98-.81c-8.77.04-17.55.05-26.31.03v-12.14c8.31-.01,16.63.02,24.94,0l1.11.3c.51.25,1.3.09,1.83.1,13.26.16,26.56-.13,39.75-.4,4.56-.09,13.66.77,17.52-.08,1.75-.39,3.53-2.62,3.97-4.3.5-21.07.26-42.28.27-63.4s.35-43.24-.44-64.72c-1.45-2.14-2.12-2.83-4.89-3.07l-84.06.02v-11.75c28.16-.03,56.32,0,84.49.03l1.34-.42h.4c7.69,1.36,13.12,6.2,15.03,13.71Z"/>
    <path class="st12" d="M107.36,91.41c28.21-.03,56.43.04,84.64,0v11.87c-28.47,0-57-.16-85.44.19-2.38.92-3.89,2.93-3.96,5.53.03,20.9.02,41.81.02,62.7,0,21.45-.22,42.99.27,64.39.77,2.41,2.64,3.95,5.17,4.32,4.82.7,11.98.07,17.1.1,6.98.04,13.98-.01,20.96,0s13.72,0,20.57,0h25.31v11.87c-9.09-.02-18.2,0-27.29,0-18-.02-38.27,1.17-55.98.02-9.49-.62-15.26-5.72-17.98-14.65V105.65c1-1.12.98-2.71,1.63-4.1,2.56-5.5,8.78-10.06,14.98-10.13Z"/>
    <path class="st10" d="M277.83,90.75l-1.34.42c-28.16-.03-56.33-.06-84.49-.03v-.4h85.83Z"/>
    <path class="st18" d="M192,90.75v.4c-28.29.04-56.61-.03-84.9,0v-.4h84.9Z"/>
  </g>
  <g>
    <rect class="st18" x="144.01" y="292.72" width="47.99" height=".53"/>
    <path class="st10" d="M239.99,292.85v.4h-47.99v-.4c15.99,0,32,0,47.99,0Z"/>
    <path class="st22" d="M192,252.12c8.76.02,17.54,0,26.31-.03l.98.82,3.56,27.29-.56.83c-10.1-.06-20.2-.05-30.29-.04v-28.87Z"/>
    <path class="st23" d="M192,252.12v28.87c-10.54,0-21.1-.07-31.64,0l4.35-28.87c9.09,0,18.2-.02,27.29,0Z"/>
    <path class="st11" d="M222.85,280.2c.51.14.24.73.97.83,4.57.63,14.89-1.31,18.39.97,4.59,2.99,3.05,10.27-2.35,10.86-15.95,0-31.91,0-47.86,0v-11.87c10.09,0,20.19-.03,30.29.04l.56-.83Z"/>
    <path class="st17" d="M160.36,280.86c10.54-.07,21.1,0,31.64,0v11.87h-47.86c-7.23-1.45-6.49-11.02.99-11.87,4.45-.5,10.56.03,15.23,0Z"/>
  </g>
  <g>
    <path class="st5" d="M217.71,171.43h63.68c0,21.32.23,42.73-.27,64-.44,1.69-2.22,3.95-3.97,4.34-3.86.86-12.96,0-17.52.08,3.66-4.78.82-13.18-3.55-16.81-5.72-4.75-11.26-3.08-17.8-2.96-8.11.15-15.78-1.73-20.73,6.36-2.12,3.46-3.58,10.18-.63,13.41-8.3.02-16.62-.01-24.92,0v-68.42h25.71ZM238.27,217.71c18.02.15,18.31-27.27,0-27.29s-18.26,27.14,0,27.29Z"/>
    <g>
      <path class="st21" d="M259.76,239.86c-13.19.27-26.49.57-39.75.4-.67,0-1.76.25-2.17-.4,6.85-.01,13.72,0,20.57,0v-19.78c6.54-.12,12.08-1.79,17.8,2.96,4.38,3.64,7.22,12.03,3.55,16.81Z"/>
      <path class="st25" d="M238.41,220.08v19.78c-6.97,0-13.97-.02-20.94,0l-.72-.36c-2.54-3.35-1.11-9.71.93-13.05,4.95-8.09,12.63-6.21,20.73-6.36Z"/>
      <g>
        <path class="st3" d="M238.41,217.71v-27.29c18.31.02,18.02,27.44,0,27.29Z"/>
        <path class="st26" d="M238.41,190.42v27.29c-18.26-.15-17.97-27.31,0-27.29Z"/>
      </g>
    </g>
  </g>
  <g>
    <path class="st19" d="M192,102.88l84.22-.02c2.78.25,3.44.94,4.9,3.11.79,21.72.45,43.67.44,65.46h-22.59c4.4-3.11,2.06-11.71-.78-15.27-5.32-6.67-12.17-5.35-19.82-5.34-7.58.01-15.86-1.13-20.54,6.21-2.31,3.61-4.3,11.61-.06,14.4h-25.76v-68.55ZM238.27,121.6c-18.73.7-17.66,26.84,0,27.29s18.22-27.97,0-27.29Z"/>
    <path class="st16" d="M192,103.01v68.42h-25.31c3.15-2.08,2.28-9.18.99-12.26-3.88-9.3-13.32-8.3-21.56-8.3s-17.87-1.18-21.82,8.43c-1.38,3.36-2.48,10.07,1.26,12.13h-22.94c0-20.9.01-41.8-.02-62.7.07-2.6,1.58-4.61,3.96-5.53,28.44-.34,56.97-.18,85.44-.19ZM146.12,148.89c17.31.02,18.49-27.26,0-27.29-18.67-.03-17.88,27.27,0,27.29Z"/>
    <g>
      <g>
        <path class="st9" d="M238.41,150.87v20.57h-20.57c-4.23-2.78-2.24-10.77.06-14.37,4.68-7.32,12.93-6.18,20.5-6.19Z"/>
        <path class="st1" d="M258.97,171.43h-20.57v-20.57c7.64-.01,14.48-1.33,19.79,5.33,2.83,3.55,5.17,12.13.78,15.24Z"/>
      </g>
      <g>
        <path class="st0" d="M238.41,148.89v-27.29c18.22-.68,17.88,27.74,0,27.29Z"/>
        <path class="st15" d="M238.41,121.6v27.29c-17.66-.45-18.73-26.59,0-27.29Z"/>
      </g>
    </g>
  </g>
  <g>
    <path class="st24" d="M125.3,171.43h66.7v69.08h-25.41c3.61-2.56,2.13-10.03.21-13.51-4.2-7.59-11.86-7.29-19.51-7.17-.72.01-1.27.42-1.34.43-8.28.14-16.31-1.71-21.22,6.77-1.94,3.35-3.29,10.87.17,13.47-5.14-.03-12.32.6-17.17-.1-2.54-.37-4.42-1.91-5.19-4.34-.5-21.49-.27-43.11-.27-64.64h23.03ZM146.12,217.71c17.91.02,17.85-27.24,0-27.29s-18.38,27.27,0,27.29Z"/>
    <g>
      <path class="st6" d="M146.12,220.08v20.17c-6.98-.01-13.98.04-20.96,0-3.45-2.6-2.11-10.08-.17-13.42,4.89-8.45,12.88-6.61,21.14-6.75Z"/>
      <path class="st13" d="M166.69,240.25c-6.85,0-13.72.01-20.57,0v-20.17c.07,0,.62-.41,1.34-.42,7.62-.12,15.25-.42,19.43,7.14,1.92,3.46,3.39,10.9-.2,13.45Z"/>
      <path class="st4" d="M146.12,190.42v27.29c-18.38-.02-18.13-27.34,0-27.29Z"/>
      <path class="st7" d="M146.12,217.71v-27.29c17.85.05,17.91,27.31,0,27.29Z"/>
    </g>
    <g>
      <g>
        <path class="st14" d="M146.12,150.87v20.57h-20.57c-3.74-2.06-2.64-8.77-1.26-12.13,3.95-9.61,13.26-8.44,21.82-8.43Z"/>
        <path class="st2" d="M146.12,150.87c8.24,0,17.68-1,21.56,8.3,1.28,3.08,2.16,10.19-.99,12.26h-20.57v-20.57Z"/>
      </g>
      <g>
        <path class="st20" d="M146.12,121.6v27.29c-17.88-.02-18.67-27.32,0-27.29Z"/>
        <path class="st7" d="M146.12,148.89v-27.29c18.49.03,17.31,27.31,0,27.29Z"/>
      </g>
    </g>
  </g>
</svg>