<?xml version="1.0" encoding="UTF-8"?><svg id="Layer_1" xmlns="http://www.w3.org/2000/svg" viewBox="0 0 370.97 370.93"><defs><style>.cls-1{fill:#405c6c;}.cls-2{fill:#415d6b;}.cls-3{fill:#bf3a2b;}.cls-4{fill:#425e6d;}.cls-5{fill:#f2d45b;}.cls-6{fill:#425e6b;}.cls-7{fill:#415e6c;}.cls-8{fill:#f8e9af;}.cls-9{fill:#435f6d;}.cls-10{fill:#e54c3c;}.cls-11{fill:#e47d25;}</style></defs><path class="cls-8" d="M127.8,33.06c.58-5.42,.42-11.05,1.89-16.21C132.63,6.52,142.05,.02,152.76,.02c64.63-.02,129.26-.03,193.89,0,13.32,0,24.29,10.99,24.29,24.33,.03,90.24,.03,180.48,0,270.71,0,13.52-11.02,24.48-24.55,24.57-8.75,.06-17.5,.04-26.25,.05-.07-14.77-.15-29.54-.22-44.31,8.87-.39,13.24-4.09,13.17-11.86-.05-5.45,2.31-8.85,6.9-11.41,5.64-3.15,7.34-9.21,4.02-14.79-2.96-4.97-2.94-9.42,.09-14.36,3.23-5.28,1.5-11.69-3.87-14.54-4.99-2.65-7.2-6.34-7.14-12.03,.08-6.92-4.45-11.15-11.37-11.09-5.27,.05-9.01-2.05-11.59-6.71-3.36-6.08-9.31-7.78-15.27-4.27-4.71,2.78-9.01,2.76-13.72-.01-5.96-3.51-11.89-1.8-15.26,4.3-2.58,4.68-6.34,6.73-11.6,6.69-7.13-.05-11.35,4.36-11.24,11.52,.07,4.93-1.86,8.57-6.28,11.04-6.63,3.71-8.18,9.58-4.29,16.13,2.4,4.04,2.51,7.92,.24,12.04-4.12,7.46-2.71,12.43,4.67,16.86,3.62,2.17,5.59,5.35,5.7,9.52,.26,9.25,3.56,12.59,13.02,12.98-.06,14.75-.12,29.49-.17,44.24-34.74,0-69.49,.02-104.23,0-1.35,0-2.74-.2-4.04-.57-12.46-3.53-19.82-13.24-19.83-26.19-.04-36.11-.05-72.22-.08-108.33-.02-4.4-.03-8.8-.05-13.2,.02-6.59,.04-13.17,.06-19.76,.01-4.31,.03-8.62,.04-12.93-.01-6.67-.02-13.35-.03-20.02v-12.85c0-6.71,0-13.43,0-20.14,0-4.29,0-8.59,0-12.88,0-13.23,0-26.45,.01-39.68Zm144.06,36.96c-21.25,0-42.5,0-63.76,0-6.58,0-9.82,2.21-9.73,6.63,.09,4.3,3.19,6.36,9.62,6.36,42.75,0,85.51,0,128.26-.02,1.61,0,3.3-.02,4.82-.46,2.79-.8,4.35-2.79,4.44-5.79,.09-2.97-1.22-5.16-4-6.1-1.61-.54-3.43-.6-5.16-.61-21.5-.04-43-.02-64.51-.02Zm.28-31.83c-22.12,0-44.24-.02-66.36,.01-4.56,0-7.33,2.39-7.4,6.16-.07,3.85,2.92,6.49,7.48,6.61,.62,.02,1.25,0,1.87,0,42.87,0,85.73,0,128.6-.01,1.49,0,3.27,.29,4.4-.4,1.78-1.09,4.02-2.71,4.39-4.46,.41-1.93-.53-4.78-1.91-6.26-1.19-1.27-3.83-1.59-5.84-1.6-21.74-.1-43.49-.07-65.24-.06Zm-.32,76.69c17.24,0,34.49,0,51.73,0,5.25,0,10.54,.35,15.73-.2,2.07-.22,4.88-2.07,5.6-3.88,.73-1.83-.07-5.05-1.4-6.67-1.14-1.4-3.98-1.94-6.07-1.95-43.61-.1-87.22-.08-130.84-.07-1,0-2.02-.04-2.98,.16-3.09,.63-5.31,3.45-5.21,6.45,.11,3.24,2.58,5.81,5.96,6.12,1.12,.1,2.25,.05,3.37,.05,21.37,0,42.74,0,64.11,0Zm-51.08,32.12c4.99,0,9.99,.05,14.98-.01,4.56-.06,7.6-2.79,7.51-6.58-.1-3.75-2.91-6.17-7.41-6.18-9.99-.04-19.98-.04-29.96,0-4.59,.02-7.35,2.32-7.47,6.08-.13,3.84,2.86,6.62,7.38,6.69,4.99,.07,9.99,.02,14.98,.02Zm-54.23-76.9s0,0,0,.01c-2.36,0-4.75-.21-7.09,.05-3.58,.4-6.03,3.3-5.9,6.56,.12,3.17,2.49,5.91,5.97,6.11,4.59,.26,9.21,.25,13.8-.04,3.58-.23,5.77-2.84,5.85-6.12,.07-3.4-2.25-6.12-5.91-6.53-2.21-.25-4.47-.05-6.71-.05Zm.09-31.9c-2.24,0-4.48-.08-6.72,.02-3.47,.16-5.98,2.48-6.32,5.69-.33,3.09,1.85,6.52,5.11,6.77,5.06,.4,10.19,.4,15.25,.02,3.37-.25,5.42-3.42,5.18-6.68-.23-3.23-2.7-5.61-6.17-5.79-2.11-.11-4.23-.02-6.34-.03Zm.11,96.04c-2.36,0-4.73-.11-7.09,.03-3.39,.2-5.9,2.73-6.09,5.93-.18,3.11,2.12,6.37,5.4,6.59,4.95,.33,9.95,.34,14.89-.03,3.38-.26,5.48-3.34,5.3-6.6-.18-3.23-2.64-5.69-6.07-5.89-2.11-.12-4.23-.02-6.34-.02Zm-.45-19.4c2.38,0,4.76,.15,7.12-.04,3.29-.26,5.49-2.71,5.64-5.92,.16-3.41-1.91-6.4-5.28-6.62-4.85-.32-9.75-.3-14.61-.03-3.29,.18-5.69,3.3-5.61,6.46,.08,3.14,2.67,5.89,5.98,6.12,2.24,.15,4.5,.03,6.75,.02Z"/><path class="cls-5" d="M127.78,118.61c.01,6.67,.02,13.35,.03,20.03-11.62,2.73-23.28,5.31-34.8,8.37-1.78,.47-3.73,3.01-4.24,4.95-1.27,4.82,3.27,8.21,8.9,6.88,10.05-2.37,20.07-4.84,30.1-7.27-.02,6.59-.04,13.17-.06,19.76-8.49,2.02-16.98,3.99-25.45,6.07-4.83,1.19-7.03,4.33-5.99,8.26,.97,3.69,4.34,5.33,8.96,4.24,7.52-1.76,15.03-3.58,22.54-5.38,.02,36.11,.04,72.22,.08,108.33,.01,12.94,7.37,22.66,19.83,26.19,1.3,.37,2.69,.56,4.04,.57,34.74,.02,69.49,0,104.23,0,0,3.99,.02,7.98,.03,11.97-10.2,2.37-20.41,4.67-30.59,7.12-43.29,10.43-86.56,20.92-129.85,31.34-14.74,3.55-28.06-4.3-31.63-18.91-12.04-49.18-23.93-98.39-35.85-147.59C18.95,165.96,9.87,128.38,.84,90.79c-3.54-14.73,4.34-28.02,18.96-31.6,35.98-8.81,72-17.44,108-26.14,0,13.23,0,26.45-.01,39.68-.37,.02-.76-.02-1.12,.06-16.02,3.84-32.04,7.64-48.03,11.58-3.98,.98-5.9,4.33-4.96,7.91,.96,3.65,4.21,5.45,8.64,4.39,15.17-3.62,30.31-7.36,45.46-11.06,0,6.71,0,13.43,0,20.14-14.17,3.32-28.36,6.56-42.49,10.03-3.33,.82-4.89,4.46-3.98,7.84,.88,3.3,4.2,5.16,7.99,4.26,12.83-3.05,25.65-6.18,38.47-9.28Zm-57.4,66.54c-4.12,1.06-9.4,2.07-14.4,3.84-3.16,1.12-4.17,4.2-3.16,7.48,.96,3.11,3.36,4.94,6.51,4.41,4.88-.83,9.73-2.07,14.46-3.54,3.3-1.03,4.5-3.84,3.82-7.16-.65-3.2-2.84-4.81-7.24-5.03Zm-17.56-15.45c3.78-.97,8.93-1.96,13.83-3.67,3.16-1.1,4.24-4.06,3.38-7.4-.77-3.01-3.72-5.2-6.77-4.6-4.74,.94-9.46,2.11-14.09,3.5-3.33,1-4.54,3.71-4.04,7.06,.47,3.15,3.02,5.11,7.69,5.11Zm-15.14-62.2c3.93-1.02,9.07-2.03,13.97-3.73,3.25-1.13,4.03-4.22,3.3-7.47-.64-2.85-3.88-5.11-6.86-4.5-4.74,.97-9.45,2.12-14.08,3.52-3.1,.94-4.65,4.07-3.94,7.1,.79,3.36,2.96,5.03,7.61,5.07Zm17.14,15.52c-3.86,.99-8.86,2.03-13.7,3.59-3,.97-4.3,4.39-3.47,7.39,.84,3.04,3.66,5.26,6.73,4.66,4.75-.92,9.48-2.07,14.1-3.51,3.29-1.03,4.5-3.79,3.96-7.14-.5-3.07-3.16-5.03-7.63-4.98Z"/><path class="cls-3" d="M255.97,331.57c0-3.99-.02-7.98-.03-11.97,.06-14.75,.12-29.49,.17-44.24,4.08-.25,7.25,1.77,8.83,5.13,3.54,7.52,11.22,8.91,17.83,4.77,3.83-2.4,7.49-1.9,11.17,.33,5.6,3.38,13.16,2.73,16.76-4.47,1.83-3.65,4.83-5.95,9.23-5.75,.07,14.77,.15,29.54,.22,44.31-.05,14.22-.16,28.44-.13,42.67,0,3.45-.31,6.66-3.95,8.09-3.52,1.38-6.15-.35-8.58-2.88-4.58-4.77-9.29-9.42-14.01-14.06-3.87-3.81-7.07-3.77-10.96,.06-4.62,4.56-9.25,9.11-13.75,13.78-2.5,2.6-5.14,4.57-8.86,3.05-3.63-1.48-3.91-4.7-3.89-8.13,.06-10.23-.03-20.46-.06-30.69Z"/><path class="cls-10" d="M319.93,275.38c-4.4-.21-7.4,2.1-9.23,5.75-3.6,7.2-11.16,7.86-16.76,4.47-3.69-2.23-7.35-2.73-11.17-.33-6.61,4.14-14.29,2.76-17.83-4.77-1.58-3.36-4.74-5.38-8.83-5.13-9.46-.39-12.76-3.73-13.02-12.98-.12-4.17-2.08-7.34-5.7-9.52-7.38-4.43-8.79-9.4-4.67-16.86,2.27-4.12,2.16-7.99-.24-12.04-3.88-6.55-2.34-12.43,4.29-16.13,4.42-2.47,6.35-6.11,6.28-11.04-.11-7.16,4.11-11.57,11.24-11.52,5.26,.04,9.02-2.02,11.6-6.69,3.37-6.1,9.3-7.81,15.26-4.3,4.71,2.77,9,2.79,13.72,.01,5.96-3.51,11.91-1.81,15.27,4.27,2.58,4.67,6.32,6.76,11.59,6.71,6.92-.06,11.45,4.17,11.37,11.09-.06,5.69,2.15,9.38,7.14,12.03,5.37,2.85,7.1,9.27,3.87,14.54-3.03,4.94-3.05,9.39-.09,14.36,3.32,5.58,1.62,11.64-4.02,14.79-4.59,2.56-6.94,5.96-6.9,11.41,.07,7.77-4.31,11.48-13.17,11.86Zm-32.13-13.5c17.5,.91,31.96-14.44,32.16-30.95,.23-18.69-14.38-32.65-32.03-32.79-17.33-.14-31.68,14.54-31.86,31.94-.18,17.57,15.04,32.61,31.72,31.8Z"/><path class="cls-9" d="M271.87,70.02c21.5,0,43-.01,64.51,.02,1.73,0,3.55,.06,5.16,.61,2.78,.94,4.09,3.13,4,6.1-.09,3-1.65,4.98-4.44,5.79-1.53,.44-3.21,.46-4.82,.46-42.75,.02-85.51,.02-128.26,.02-6.42,0-9.53-2.06-9.62-6.36-.09-4.42,3.15-6.63,9.73-6.63,21.25,0,42.5,0,63.76,0Z"/><path class="cls-7" d="M272.15,38.19c21.75,0,43.49-.04,65.24,.06,2.01,0,4.65,.33,5.84,1.6,1.39,1.48,2.32,4.33,1.91,6.26-.37,1.75-2.61,3.37-4.39,4.46-1.13,.69-2.91,.4-4.4,.4-42.87,.02-85.73,.01-128.6,.01-.62,0-1.25,.01-1.87,0-4.57-.12-7.55-2.76-7.48-6.61,.07-3.77,2.84-6.16,7.4-6.16,22.12-.03,44.24-.01,66.36-.01Z"/><path class="cls-1" d="M271.83,114.88c-21.37,0-42.74,0-64.11,0-1.12,0-2.26,.05-3.37-.05-3.38-.31-5.85-2.88-5.96-6.12-.1-3,2.11-5.82,5.21-6.45,.97-.2,1.99-.16,2.98-.16,43.61,0,87.22-.03,130.84,.07,2.09,0,4.93,.55,6.07,1.95,1.33,1.63,2.13,4.85,1.4,6.67-.72,1.81-3.53,3.66-5.6,3.88-5.19,.55-10.48,.2-15.73,.2-17.24,0-34.49,0-51.73,0Z"/><path class="cls-2" d="M127.78,85.61c-15.15,3.7-30.29,7.44-45.46,11.06-4.43,1.06-7.68-.75-8.64-4.39-.94-3.58,.98-6.93,4.96-7.91,15.99-3.93,32.02-7.74,48.03-11.58,.36-.09,.75-.05,1.12-.06,0,4.29,0,8.59,0,12.88Z"/><path class="cls-6" d="M127.78,118.61c-12.82,3.1-25.64,6.23-38.47,9.28-3.79,.9-7.11-.96-7.99-4.26-.9-3.38,.65-7.02,3.98-7.84,14.13-3.47,28.32-6.71,42.49-10.03,0,4.28,0,8.57-.01,12.85Z"/><path class="cls-4" d="M220.75,147c-4.99,0-9.99,.06-14.98-.02-4.52-.06-7.51-2.85-7.38-6.69,.13-3.76,2.88-6.06,7.47-6.08,9.99-.04,19.98-.04,29.96,0,4.5,.02,7.31,2.43,7.41,6.18,.1,3.79-2.95,6.53-7.51,6.58-4.99,.06-9.99,.01-14.98,.01Z"/><path class="cls-2" d="M127.77,151.56c-10.03,2.43-20.05,4.91-30.1,7.27-5.63,1.33-10.17-2.06-8.9-6.88,.51-1.94,2.47-4.48,4.24-4.95,11.53-3.07,23.19-5.64,34.8-8.37-.01,4.31-.03,8.62-.04,12.93Z"/><path class="cls-6" d="M127.76,184.52c-7.51,1.79-15.02,3.61-22.54,5.38-4.62,1.08-7.98-.55-8.96-4.24-1.04-3.93,1.16-7.08,5.99-8.26,8.47-2.08,16.97-4.05,25.45-6.07,.02,4.4,.03,8.8,.05,13.2Z"/><path class="cls-9" d="M166.51,70.1c2.24,0,4.5-.2,6.71,.05,3.66,.41,5.98,3.13,5.91,6.53-.07,3.28-2.26,5.89-5.85,6.12-4.58,.3-9.21,.3-13.8,.04-3.48-.2-5.84-2.94-5.97-6.11-.13-3.27,2.32-6.16,5.9-6.56,2.33-.26,4.72-.05,7.09-.05,0,0,0,0,0-.01Z"/><path class="cls-4" d="M166.6,38.21c2.11,0,4.23-.09,6.34,.02,3.47,.18,5.94,2.56,6.17,5.79,.24,3.26-1.82,6.43-5.18,6.68-5.06,.38-10.19,.38-15.25-.02-3.26-.26-5.44-3.69-5.11-6.77,.34-3.2,2.85-5.53,6.32-5.69,2.23-.1,4.48-.02,6.72-.02Z"/><path class="cls-4" d="M166.71,134.24c2.11,0,4.23-.1,6.34,.02,3.43,.2,5.89,2.66,6.07,5.89,.18,3.26-1.92,6.35-5.3,6.6-4.94,.37-9.95,.37-14.89,.03-3.28-.22-5.57-3.48-5.4-6.59,.18-3.2,2.7-5.73,6.09-5.93,2.36-.14,4.72-.03,7.09-.03Z"/><path class="cls-4" d="M166.26,114.85c-2.25,0-4.51,.13-6.75-.02-3.31-.23-5.9-2.97-5.98-6.12-.08-3.16,2.31-6.28,5.61-6.46,4.86-.27,9.76-.29,14.61,.03,3.36,.22,5.44,3.21,5.28,6.62-.15,3.21-2.36,5.66-5.64,5.92-2.36,.19-4.75,.04-7.12,.04Z"/><path class="cls-6" d="M70.38,185.15c4.39,.21,6.59,1.83,7.24,5.03,.67,3.32-.52,6.13-3.82,7.16-4.73,1.47-9.58,2.71-14.46,3.54-3.15,.53-5.55-1.3-6.51-4.41-1.01-3.28,0-6.36,3.16-7.48,5-1.77,10.27-2.78,14.4-3.84Z"/><path class="cls-6" d="M52.82,169.7c-4.67,0-7.22-1.96-7.69-5.11-.5-3.35,.71-6.06,4.04-7.06,4.63-1.4,9.35-2.56,14.09-3.5,3.05-.61,6,1.58,6.77,4.6,.85,3.34-.22,6.3-3.38,7.4-4.9,1.71-10.05,2.7-13.83,3.67Z"/><path class="cls-6" d="M37.69,107.51c-4.64-.04-6.82-1.72-7.61-5.07-.71-3.03,.83-6.16,3.94-7.1,4.63-1.4,9.34-2.55,14.08-3.52,2.98-.61,6.22,1.65,6.86,4.5,.73,3.25-.05,6.34-3.3,7.47-4.9,1.7-10.04,2.71-13.97,3.73Z"/><path class="cls-6" d="M54.82,123.02c4.47-.05,7.13,1.91,7.63,4.98,.54,3.36-.67,6.12-3.96,7.14-4.62,1.44-9.35,2.59-14.1,3.51-3.07,.6-5.89-1.62-6.73-4.66-.83-3,.47-6.42,3.47-7.39,4.83-1.56,9.83-2.6,13.7-3.59Z"/><path class="cls-11" d="M287.8,261.88c-16.68,.81-31.91-14.23-31.72-31.8,.18-17.4,14.53-32.08,31.86-31.94,17.64,.14,32.26,14.1,32.03,32.79-.2,16.52-14.67,31.87-32.16,30.95Z"/></svg>