<?xml version="1.0" encoding="UTF-8"?><svg id="Layer_1" xmlns="http://www.w3.org/2000/svg" viewBox="0 0 345.53 356.22"><defs><style>.cls-1{fill:#585874;}.cls-2{fill:#6689ce;}.cls-3{fill:#3e3e51;}.cls-4{fill:#daf2fd;}.cls-5{fill:#fdc575;}.cls-6{fill:#b25f6c;}.cls-7{fill:#5f5f7f;}.cls-8{fill:#fbfbfc;}.cls-9{fill:#f1904e;}.cls-10{fill:#c8d2e7;}.cls-11{fill:#de888c;}.cls-12{fill:#60607f;}.cls-13{fill:#98c4f7;}.cls-14{fill:#f3924f;}.cls-15{fill:#98c4f8;}</style></defs><path class="cls-3" d="M286.11,233.76c3.09,.29,4.51,1.97,4.86,5.09,2.72,23.86,4.7,47.8,3.89,71.81-.84,25-21.93,45.17-47.03,45.28-53.75,.24-107.5,.15-161.24,.17-17.12,0-34.26,.32-51.36-.17-18.93-.55-34.49-16.39-34.97-35.38-.39-15.49-.3-31-.02-46.49,.21-11.88,4.79-22.3,12.04-31.64,1.01-1.3,1.67-3.35,1.56-4.98-1.59-22.21-2.37-44.44-.73-66.68,1.71-23.13,5.01-45.93,15.65-66.98,4.4-8.7,10.23-16.25,18.13-22.11,.93-.69,1.63-1.82,2.18-2.88,1.9-3.69,4.88-5.4,9-5.7,1.49-.11,3.02-1.07,4.32-1.96,1.1-.76,1.7-2.28,2.83-2.95,7.68-4.53,9-12.13,10.14-19.99,1-6.91,2.37-13.77,3.67-20.64C81.94,12.21,94.84,.74,110.45,.31c14.11-.39,28.25-.41,42.36-.05,17.1,.44,29.92,12.06,32.75,28.87,1.27,7.51,2.7,14.98,3.94,22.49,.41,2.51,1.22,4.51,3.91,5.25,.47,.13,.93,.39,1.33,.69,4.05,3.09,7.85,4.28,13.02,1.46,4.57-2.49,9.82-1.12,14.28,1.68,27,16.95,52.95,35.4,77.71,55.49,6.86,5.57,8.36,14.6,3.88,22.33-4.62,7.97-9.51,15.8-14.78,24.51,1.61-.82,2.57-1.19,3.41-1.74,7.93-5.21,15.83-10.47,23.75-15.69,6.6-4.34,11.73-3.14,15.62,3.68,3.96,6.94,7.87,13.9,11.78,20.86,3.58,6.37,2.72,10.24-3.24,14.31-17.53,11.98-35.07,23.93-52.59,35.91-1.12,.77-2.13,1.7-3.19,2.55-8.82,5.89-17.66,11.75-26.4,17.75-.67,.46-1.07,1.96-.94,2.88,3.74,25.87,5.38,51.89,4.88,78-.1,5.41-2.02,10.97-4.02,16.11-1.39,3.57-4.34,6.53-6.74,9.97,.71,0,1.31,.06,1.89,0,15.47-1.97,30.72-15.36,32.74-30.88,1.52-11.67,1.12-23.68,.63-35.5-.59-13.94-2.15-27.84-3.4-41.75-.25-2.75,.76-4.53,3.09-5.75ZM176.87,89.53c-9.52-5.13-18.96-10.41-28.6-15.3-2.97-1.51-6.37-.79-8.21,2.36-2.31,3.96-4.17,8.17-6.22,12.28-.82,1.37-1.57,2.81-2.49,4.11-1.89,2.65-1.33,4.12,1.62,5.74,5.79,3.18,11.38,6.75,16.87,10.42,6.09,4.08,11.99,8.45,18.36,12.97,5.19-9.79,10.29-19.4,15.58-29.37-2.68-1.25-4.79-2.24-6.91-3.22Zm112.92,83.28c-6.02,3.26-11.51,6.79-15.04,13.23-5.79,10.57-11.96,20.99-18.79,30.92-3.8,5.53-1.72,10.13-.54,15.8,3.78-2.64,7.11-4.97,10.45-7.3,1.74-1.14,3.49-2.27,5.35-3.48-.85-1.45-1.52-2.63-2.23-3.79-1.54-2.47-2.29-5.08,.74-6.77,2.73-1.52,4.7,.06,6.02,2.6,.6,1.15,1.39,2.2,2.15,3.4,3.65-2.52,6.91-4.77,10.36-7.15-1.99-3.4-3.85-6.61-5.74-9.79-1.39-2.35-1.6-4.66,1.01-6.14,2.55-1.45,4.48-.24,5.85,2.17,1.72,3.01,3.54,5.97,5.51,9.28,3.47-2.36,6.73-4.58,10.12-6.89-1.1-1.92-2.6-3.55-2.92-5.38-.29-1.63,.18-4.1,1.29-5.11,1.75-1.58,3.99-.87,5.39,1.26,.99,1.5,1.94,3.03,2.97,4.64,3.22-2.21,6.06-4.15,8.74-5.98-.75-3.71-6.12-6.96-1.51-10.19,5.36-3.76,5.85,3.25,8.7,5.32,3.42-2.36,6.77-4.66,10.21-7.03-4.58-8.09-8.96-15.77-13.28-23.49-.86-1.53-1.7-2.41-3.5-1.19-10.42,7.05-20.86,14.05-31.3,21.07ZM84.67,85.47c-.29-.04-.59-.08-.88-.12,.12,.23,.24,.46,.36,.69,9.09,14.19,15.7,29.49,19.48,45.88,4.67,20.28,17.04,33.67,35.73,41.74,15.96,6.89,32.87,9.23,50.04,9.57,12.03,.24,23.5,2.55,34.69,6.73,1.07,.4,2.17,.71,3.26,1.07,.17-.26,.35-.53,.52-.79-1.06-1.32-2.08-2.69-3.2-3.96-22.95-26.1-48.67-49.13-77.14-69.02-19.4-13.56-40.33-24.32-62.87-31.77Zm173.42,112.96c2.8-4.58,5.61-9.15,8.39-13.74,9.57-15.8,19.15-31.6,28.7-47.41,4.74-7.84,4.04-11.52-3.19-17.23-.88-.7-1.78-1.38-2.66-2.07-22.52-17.87-45.96-34.44-70.25-49.8-6.03-3.81-11.58-2.84-14.72,2.98-8.23,15.26-16.22,30.65-24.31,45.99-1.44,2.61-2.79,5.28-4.36,7.82-1.17,1.89-.69,3,.94,4.37,7.06,5.94,14.23,11.78,20.93,18.11,20.08,18.97,40.79,37.47,52.86,63.72,2.6-4.32,5.13-8.54,7.67-12.75Zm-6.76,63.65c-1.89-12.07-3.26-24.25-5.81-36.18-3.48-16.28-13.67-27.29-29.87-31.2-9.85-2.38-20.2-2.93-30.37-3.7-16.51-1.24-32.76-3.57-48.17-9.93-21.31-8.79-35.73-23.67-41.02-46.65-1.28-5.57-3.09-11.05-5.02-16.45-4.52-12.67-10.5-24.56-19.54-34.69-1.02-1.15-2.45-1.93-3.94-3.07-.31,1.12-.46,1.36-.43,1.58,1.33,10.88,2.79,21.75,3.96,32.64,.68,6.35-2.51,10.73-8.19,12.01-10.12,2.28-15.99-2.29-16.15-12.72-.1-6.91-.02-13.81-.02-21.75-2.18,2.55-3.8,4.24-5.19,6.1-7.25,9.66-11.37,20.75-14.29,32.31-7.07,28.02-7.52,56.58-6.64,85.23,.29,5.67,.58,11.35,.89,17.33,.88-.32,1.37-.39,1.74-.65,10.41-7.27,22.03-10.26,34.64-9.99,1.34,.03,2.97-.93,4.01-1.92,3.5-3.31,7.84-4.14,12.04-2.1,3.34,1.62,4.71,4.6,5.72,7.87,.14,1.11,.32,2.22,.42,3.33,1.14,11.67,2.6,23.31,3.28,35,.42,7.19-5.26,11.92-12.96,11.92-8.32,0-12.98-3.97-13.1-11.58-.13-7.87,0-15.75,.18-23.61,.08-3.44,.61-6.88,.96-10.48-1.25-.14-2.1-.31-2.95-.32-26.02-.46-47.29,20.12-47.6,46.2-.15,13.12-.04,26.25-.03,39.37,0,19.88,12.42,32.35,32.23,32.36,26.87,.01,53.75,0,80.62,0,24,0,48,.07,72-.03,16.05-.06,29.76-10.67,31.43-26.03,1.63-14.99,1.66-30.17-3.78-44.79-10.62-28.57-37.07-46.87-68.69-47.08-18.87-.13-37.75-.05-56.62,0-3.14,0-5.8-.46-6.38-4.21,.82-3.09,2.98-3.87,5.96-3.86,18.74,.07,37.49,0,56.23,.07,3.86,.01,7.75,.14,11.56,.71,32.43,4.83,54.31,22.8,65.95,53.35,5.01,13.16,4.56,26.94,4.41,40.68-.1,8.5-2.6,16.23-7.74,23-2.06,2.72-4.48,5.17-7.09,8.14,2.99,0,5.45,.03,7.91,0,18.69-.27,28.96-13.98,28.17-28.68-1.03-19.18-1.82-38.37-2.72-57.55ZM122.39,92.85c3.22-6.1,6.2-11.71,9.13-17.35,5.18-9.97,12.66-12.41,22.62-7.24,10.08,5.24,20.08,10.61,30.2,15.77,1.08,.55,3.58,.52,3.95-.12,3.03-5.11,5.71-10.43,8.54-15.77-.83-.55-1.32-.92-1.85-1.23-20.32-11.76-41.95-18.19-65.68-16.44-17.74,1.31-34.26,6.32-49.3,15.86-2.84,1.8-5.33,4.15-8.83,6.92,18.84,3.9,35.02,11.25,51.21,19.59Zm-40.08-37.69c4.31-1.81,8.23-3.36,12.05-5.14,.84-.39,1.69-1.54,1.85-2.46,.68-3.78,1.12-7.61,1.6-11.43,1.3-10.39,10.29-18.48,20.68-18.5,9.5-.02,19-.12,28.5,.04,5.93,.11,10.62,2.99,14.54,7.35,4.76,5.3,4.9,12.03,6.07,18.48,.2,1.12,.59,2.8,1.35,3.11,3.75,1.54,7.66,2.71,11.76,4.1,.12-.97,.34-1.59,.23-2.15-1.14-6.1-2.55-12.16-3.46-18.29-2.14-14.38-13.87-22.4-27.43-22.39-12.25,0-24.5-.05-36.75,.02-13.5,.07-24.18,8.78-26.61,21.74-1.55,8.28-2.86,16.6-4.39,25.51Zm77.25-10.56c-.37-2.42-.66-4.36-.96-6.31-1.31-8.46-6.22-12.87-14.67-12.96-7.87-.09-15.75-.03-23.62-.01-5.04,.01-9.38,1.64-12.21,6.02-3.01,4.67-2.84,10.06-3.76,15.57,18.48-4.38,36.46-4.99,55.22-2.3Zm-84.24,214.71c.26-.04,.52-.07,.77-.11-1.5-10.28-2.96-20.56-4.58-30.82-.17-1.06-1.36-1.95-2.08-2.92-.79,1.07-2.15,2.07-2.29,3.22-1.47,11.67-3.11,23.33-1.75,35.18,.36,3.17,1.12,5.02,4.45,5.01,3.8-.02,5.44-1.69,5.48-5.44,.02-1.37,0-2.74,0-4.11ZM58.53,81.22c-.51,.05-1.01,.1-1.52,.15-.41,1.47-1.12,2.93-1.17,4.41-.36,9.63-.52,19.27-.86,28.9-.1,2.91,.68,4.4,3.95,4.32,3.23-.08,4.67-1.44,4.34-4.56-.86-8.37-1.7-16.74-2.75-25.08-.35-2.75-1.3-5.42-1.98-8.13Z"/><path class="cls-2" d="M286.11,233.76c-2.33,1.22-3.34,2.99-3.09,5.75,1.25,13.91,2.82,27.81,3.4,41.75,.5,11.82,.89,23.83-.63,35.5-2.02,15.52-17.27,28.91-32.74,30.88-.58,.07-1.18,0-1.89,0,2.4-3.44,5.36-6.4,6.74-9.97,2-5.14,3.91-10.69,4.02-16.11,.5-26.11-1.14-52.13-4.88-78-.13-.92,.26-2.42,.94-2.88,8.75-6,17.59-11.86,26.4-17.75,.57,3.61,1.15,7.22,1.72,10.83Z"/><path class="cls-15" d="M88.68,226.23c.58,3.75,3.24,4.21,6.38,4.21,18.87-.04,37.75-.12,56.62,0,31.62,.21,58.07,18.52,68.69,47.08,5.44,14.62,5.41,29.8,3.78,44.79-1.67,15.36-15.38,25.97-31.43,26.03-24,.09-48,.03-72,.03-26.87,0-53.75,.01-80.62,0-19.81-.01-32.22-12.48-32.23-32.36,0-13.12-.12-26.25,.03-39.37,.31-26.08,21.58-46.66,47.6-46.2,.85,.01,1.69,.18,2.95,.32-.34,3.61-.87,7.04-.96,10.48-.19,7.87-.31,15.75-.18,23.61,.12,7.61,4.78,11.57,13.1,11.58,7.7,0,13.38-4.73,12.96-11.92-.69-11.69-2.14-23.34-3.28-35-.11-1.11-.28-2.22-.42-3.33,3,.02,6,.04,9,.06Z"/><path class="cls-13" d="M20.65,215.62c-.88-28.65-.42-57.21,6.64-85.23,2.92-11.56,7.04-22.65,14.29-32.31,1.39-1.86,3.01-3.55,5.19-6.1,0,7.93-.08,14.84,.02,21.75,.15,10.42,6.03,15,16.15,12.72,5.68-1.28,8.87-5.66,8.19-12.01-1.17-10.9-2.63-21.76-3.96-32.64-.03-.22,.12-.46,.43-1.58,1.49,1.14,2.92,1.92,3.94,3.07,9.04,10.13,15.02,22.02,19.54,34.69,1.92,5.4,3.73,10.87,5.02,16.45,5.29,22.99,19.71,37.86,41.02,46.65,15.41,6.36,31.65,8.68,48.17,9.93,10.17,.77,20.52,1.33,30.37,3.7,16.2,3.91,26.39,14.92,29.87,31.2,2.55,11.93,3.91,24.11,5.81,36.18-.53-.45-1.25-.81-1.56-1.38-5.91-11-13.51-20.6-23.25-28.47-15.79-12.75-33.73-20.67-54.05-20.91-43.59-.51-87.18-.16-130.77-.14-1.61,0-3.26,.09-4.81,.45-5.43,1.26-10.82,2.65-16.23,4Z"/><path class="cls-5" d="M180.04,117.15c8.09-15.34,16.08-30.73,24.31-45.99,3.14-5.82,8.7-6.8,14.72-2.98,24.29,15.37,47.73,31.93,70.25,49.8,.88,.7,1.78,1.38,2.66,2.07,7.23,5.71,7.93,9.39,3.19,17.23-9.56,15.81-19.13,31.61-28.7,47.41-2.78,4.59-5.59,9.16-8.39,13.74-.32-.17-.81-.26-.94-.53-5.16-10.28-11.08-20.11-19.01-28.46-9.85-10.36-19.8-20.68-30.38-30.27-8.72-7.91-18.44-14.72-27.71-22.02Zm27.87-1.9c-1.31,1.05-2.9,1.77-3.48,2.98-.48,1-.13,2.83,.54,3.84,.85,1.29,2.36,2.15,3.64,3.14,7.86,6.07,15.81,12.03,23.57,18.22,4.36,3.48,8.35,7.43,12.65,11,1.35,1.12,3.12,2.21,4.77,2.33,1.04,.08,3-1.56,3.13-2.61,.18-1.43-.55-3.56-1.65-4.47-12.41-10.31-24.95-20.46-37.5-30.6-1.61-1.3-3.45-2.33-5.69-3.82Zm47.77,8.74c1.19-1.02,2.9-1.8,3.28-3,.38-1.2-.08-3.39-1-4.17-6.42-5.48-13.05-10.7-19.61-16-2.22-1.79-4.41-1.85-6.1,.59-1.77,2.56-.33,4.2,1.8,5.87,5.96,4.67,11.74,9.56,17.64,14.31,1.03,.83,2.28,1.4,3.98,2.41Z"/><path class="cls-4" d="M84.67,85.46c22.54,7.46,43.47,18.22,62.87,31.78,28.46,19.89,54.19,42.93,77.14,69.02,1.12,1.27,2.13,2.64,3.2,3.96-.17,.26-.35,.53-.52,.79-1.09-.35-2.19-.67-3.26-1.07-11.19-4.18-22.66-6.49-34.69-6.73-17.17-.34-34.08-2.68-50.04-9.57-18.7-8.07-31.06-21.46-35.73-41.74-3.77-16.38-10.39-31.69-19.48-45.88,.17-.19,.34-.38,.52-.57Z"/><path class="cls-2" d="M20.65,215.62c5.41-1.34,10.8-2.74,16.23-4,1.56-.36,3.21-.45,4.81-.45,43.59-.02,87.19-.36,130.77,.14,20.32,.24,38.26,8.16,54.05,20.91,9.74,7.87,17.34,17.48,23.25,28.47,.31,.57,1.03,.92,1.56,1.38,.9,19.19,1.69,38.38,2.72,57.55,.79,14.7-9.48,28.41-28.17,28.68-2.46,.03-4.92,0-7.91,0,2.61-2.97,5.03-5.42,7.09-8.14,5.13-6.78,7.64-14.5,7.74-23,.16-13.74,.61-27.52-4.41-40.68-11.64-30.55-33.52-48.52-65.95-53.35-3.81-.57-7.7-.69-11.56-.71-18.74-.07-37.49,0-56.23-.07-2.99-.01-5.14,.77-5.96,3.86-3-.02-6-.04-9-.06-1.01-3.27-2.38-6.25-5.72-7.87-4.2-2.04-8.53-1.21-12.04,2.1-1.04,.98-2.67,1.94-4.01,1.92-12.61-.27-24.23,2.72-34.64,9.99-.37,.26-.86,.33-1.74,.65-.31-5.99-.6-11.66-.89-17.33Z"/><path class="cls-2" d="M122.39,92.85c-16.2-8.34-32.37-15.69-51.21-19.59,3.5-2.77,5.99-5.12,8.83-6.92,15.05-9.54,31.56-14.55,49.3-15.86,23.73-1.75,45.36,4.68,65.68,16.44,.53,.3,1.02,.67,1.85,1.23-2.83,5.34-5.51,10.66-8.54,15.77-.38,.63-2.88,.67-3.95,.12-10.12-5.15-20.12-10.53-30.2-15.77-9.96-5.17-17.44-2.73-22.62,7.24-2.93,5.64-5.92,11.24-9.13,17.35Z"/><path class="cls-8" d="M289.79,172.82c10.44-7.02,20.88-14.03,31.3-21.07,1.8-1.21,2.64-.33,3.5,1.19,4.33,7.71,8.7,15.4,13.28,23.49-3.44,2.37-6.79,4.67-10.21,7.03-2.85-2.07-3.34-9.07-8.7-5.32-4.61,3.23,.76,6.48,1.51,10.19-2.67,1.83-5.51,3.78-8.74,5.98-1.03-1.61-1.98-3.14-2.97-4.64-1.41-2.13-3.64-2.85-5.39-1.26-1.12,1.01-1.58,3.48-1.29,5.11,.32,1.83,1.82,3.46,2.92,5.38-3.39,2.31-6.65,4.53-10.12,6.89-1.97-3.32-3.79-6.27-5.51-9.28-1.37-2.4-3.3-3.61-5.85-2.17-2.6,1.48-2.4,3.79-1.01,6.14,1.89,3.19,3.74,6.39,5.74,9.79-3.45,2.38-6.71,4.63-10.36,7.15-.76-1.19-1.55-2.24-2.15-3.4-1.32-2.55-3.29-4.12-6.02-2.6-3.04,1.68-2.28,4.3-.74,6.77,.72,1.15,1.38,2.34,2.23,3.79-1.86,1.21-3.6,2.35-5.35,3.48-.51-1.04-1.62-2.21-1.42-3.1,.85-3.94,1.35-8.21,3.3-11.6,6.65-11.54,13.88-22.75,20.82-34.13,.67-1.11,.83-2.53,1.23-3.81Z"/><path class="cls-1" d="M82.3,55.16c1.52-8.91,2.84-17.23,4.39-25.51,2.43-12.96,13.11-21.67,26.61-21.74,12.25-.07,24.5,0,36.75-.02,13.56-.01,25.29,8.02,27.43,22.39,.91,6.13,2.32,12.19,3.46,18.29,.1,.56-.12,1.17-.23,2.15-4.1-1.39-8.01-2.55-11.76-4.1-.76-.31-1.15-2-1.35-3.11-1.17-6.44-1.31-13.18-6.07-18.48-3.92-4.37-8.61-7.25-14.54-7.35-9.5-.17-19-.07-28.5-.04-10.38,.03-19.38,8.11-20.68,18.5-.48,3.82-.92,7.64-1.6,11.43-.16,.92-1.01,2.07-1.85,2.46-3.82,1.78-7.74,3.33-12.05,5.14Z"/><path class="cls-9" d="M180.04,117.15c9.27,7.3,18.99,14.11,27.71,22.02,10.58,9.59,20.53,19.91,30.38,30.27,7.93,8.34,13.85,18.18,19.01,28.46,.13,.27,.62,.36,.94,.53-2.53,4.21-5.07,8.43-7.67,12.75-12.07-26.25-32.78-44.75-52.86-63.72-6.7-6.33-13.87-12.17-20.93-18.11-1.63-1.37-2.11-2.48-.94-4.37,1.56-2.54,2.92-5.21,4.36-7.82Z"/><path class="cls-11" d="M133.84,88.88c2.05-4.1,3.91-8.32,6.22-12.28,1.84-3.15,5.23-3.87,8.21-2.36,9.64,4.88,19.08,10.17,28.6,15.3-1.79,2.35-3.56,4.71-5.36,7.06-5.99,7.8-10.11,8.32-18.63,3.05-6.2-3.83-12.68-7.19-19.04-10.76Z"/><path class="cls-6" d="M133.84,88.88c6.36,3.57,12.85,6.93,19.04,10.76,8.52,5.27,12.63,4.75,18.63-3.05,1.8-2.34,3.58-4.7,5.36-7.06,2.11,.98,4.23,1.97,6.91,3.22-5.29,9.97-10.39,19.58-15.58,29.37-6.37-4.52-12.27-8.9-18.36-12.97-5.49-3.67-11.08-7.24-16.87-10.42-2.95-1.62-3.51-3.09-1.62-5.74,.93-1.3,1.67-2.74,2.49-4.11Z"/><path class="cls-10" d="M289.79,172.82c-.4,1.28-.55,2.7-1.23,3.81-6.94,11.38-14.17,22.59-20.82,34.13-1.95,3.39-2.45,7.67-3.3,11.6-.19,.89,.92,2.06,1.42,3.1-3.34,2.33-6.67,4.66-10.45,7.3-1.19-5.66-3.27-10.27,.54-15.8,6.83-9.92,13-20.34,18.79-30.92,3.53-6.44,9.02-9.97,15.04-13.23Z"/><path class="cls-12" d="M75.32,259.31c0,1.37,.01,2.74,0,4.11-.05,3.75-1.68,5.42-5.48,5.44-3.33,.02-4.08-1.84-4.45-5.01-1.36-11.85,.29-23.51,1.75-35.18,.14-1.15,1.5-2.15,2.29-3.22,.72,.97,1.91,1.87,2.08,2.92,1.63,10.26,3.08,20.54,4.58,30.82-.26,.04-.52,.07-.77,.11Z"/><path class="cls-7" d="M58.53,81.22c.68,2.71,1.64,5.38,1.98,8.13,1.05,8.34,1.89,16.72,2.75,25.08,.32,3.12-1.12,4.48-4.34,4.56-3.27,.08-4.05-1.41-3.95-4.32,.34-9.63,.51-19.27,.86-28.9,.05-1.48,.77-2.94,1.17-4.41,.51-.05,1.01-.1,1.52-.15Z"/><path class="cls-4" d="M84.15,86.03c-.12-.23-.24-.46-.36-.69,.29,.04,.59,.08,.88,.12-.17,.19-.34,.38-.52,.57Z"/><path class="cls-14" d="M207.91,115.25c2.24,1.49,4.08,2.52,5.69,3.82,12.55,10.14,25.09,20.29,37.5,30.6,1.1,.91,1.83,3.04,1.65,4.47-.13,1.05-2.09,2.69-3.13,2.61-1.65-.12-3.42-1.21-4.77-2.33-4.3-3.57-8.29-7.52-12.65-11-7.76-6.2-15.71-12.15-23.57-18.22-1.28-.99-2.79-1.85-3.64-3.14-.67-1.01-1.02-2.84-.54-3.84,.57-1.21,2.17-1.93,3.48-2.98Z"/><path class="cls-14" d="M255.68,123.99c-1.7-1.02-2.95-1.58-3.98-2.41-5.9-4.75-11.68-9.64-17.64-14.31-2.13-1.67-3.58-3.31-1.8-5.87,1.69-2.44,3.88-2.38,6.1-.59,6.57,5.3,13.2,10.53,19.61,16,.92,.78,1.38,2.97,1,4.17-.38,1.2-2.09,1.98-3.28,3Z"/></svg>