<?xml version="1.0" encoding="UTF-8"?><svg id="Layer_1" xmlns="http://www.w3.org/2000/svg" viewBox="0 0 384 356.99"><defs><style>.cls-1{fill:#03648e;}.cls-2{fill:#626060;}.cls-3{fill:#fd816d;}.cls-4{fill:#503e32;}.cls-5{fill:#c2cbce;}.cls-6{fill:#575a5c;}.cls-7{fill:#efccb1;}.cls-8{fill:#58585a;}.cls-9{fill:#503d31;}.cls-10{fill:#fe9a8b;}.cls-11{fill:#ced1d3;}.cls-12{fill:#d8d9da;}.cls-13{fill:#5b5b5c;}.cls-14{fill:#fe826e;}.cls-15{fill:#d0d2d3;}.cls-16{fill:#d1d2d3;}.cls-17{fill:#e5e6e7;}.cls-18{fill:#eeccaf;}.cls-19{fill:#edccb0;}.cls-20{fill:#eecdaf;}.cls-21{fill:#fec601;}.cls-22{fill:#edcbb0;}.cls-23{fill:#985620;}</style></defs><path class="cls-1" d="M384,17.28V183.05c-.2,.13-.52,.21-.58,.38-3.75,10.96-11.71,15.87-22.98,16.04-3.31-6.29-7.69-11.57-14.04-15.05-18.15-9.93-38.56-3.74-49.49,15.03-12.28,0-24.56,.02-36.84,.03-3.87-7.2-9.05-13.11-16.71-16.41-14.22-6.13-36.11-4.47-46.89,16.38-5.88-.07-11.75-.15-17.63-.22,.99-2.02,1.85-4.1,2.97-6.04,7.89-13.75,15.84-27.46,23.75-41.2,2.7-4.69,2.57-5.97-.61-7.84-3.17-1.87-4.86-1.12-7.48,3.43-4.36,7.57-8.62,15.2-13.01,22.75-5.64,9.71-11.36,19.37-17.04,29.05-15.8,.02-31.6,.03-47.4,.05-.2-3.71-.36-7.42-.62-11.12-.81-11.44-9.9-20.06-21.39-20.24-4.1-.07-8.21,.07-12.31-.03-2.36-.06-4.71-.41-7.06-.63,.06-1.16,.11-2.33,.17-3.49,7.69,.8,15.4,1.55,23.08,2.44,2.71,.32,4.56-.78,5.14-3.21,1.04-4.34,2.56-8.82,2.31-13.15-.87-15.31-2.07-30.62-3.8-45.86-.96-8.48-4.27-16.39-8.99-23.61-6.47-9.9-15.85-15.67-26.95-18.99,.01-12.62,.01-25.24,.03-37.85C69.66,8.64,78.29,.03,93.34,.03c78.69,0,157.39,0,236.08,0,11.12,0,22.23-.07,33.35,.03,9.72,.09,17.78,6.37,20.48,15.68,.16,.54,.49,1.03,.74,1.54Zm-80.35,83.71h-119.69v8.74h119.69v-8.74Zm-.04-69.93h-119.83v8.41h119.83v-8.41Zm-42.91,48.71h-76.74v8.67h76.74v-8.67Zm-76.96,53.57h62.14v-8.55h-62.14v8.55ZM250.25,63.56h53.25v-8.56h-53.25v8.56Zm-24.51-8.65h-41.96v8.6h41.96v-8.6Zm77.83,69.8h-37.33v8.64h37.33v-8.64Z"/><path class="cls-18" d="M25.36,264.11c-3.61-.05-7.23-.3-10.83-.1-6.38,.37-11.53-1.38-14.54-7.45v-51.76c5.97,0,11.94,.01,17.91-.01,1.84,0,2.92,.33,3.02,2.66,.21,4.77,.71,9.55,1.36,14.29,.65,4.74,1.51,9.47,2.58,14.13,.24,1.04,1.63,2.5,2.6,2.58,5.31,.49,10.64,.61,15.97,.86,2.48,.23,4.98,.34,7.45,.72,2.63,.41,4.12-.67,5.3-2.95,1.66-3.22,3.55-6.32,5.45-9.4,1.88-3.06,4.81-4,8.05-2.75,3.24,1.25,4.85,4.3,4.07,7.85-.47,2.12-1.07,4.22-1.74,6.8,2,0,3.47-.05,4.95,0,5.55,.22,7.6,2.34,7.68,7.91,.03,2.5,.01,5,0,7.5-.02,6.95-1.92,8.82-8.97,8.86-10.74,.06-21.49,.13-32.23,.19-6.03,.02-12.06,.03-18.08,.05Z"/><path class="cls-16" d="M43.44,239.32c-5.33-.25-10.67-.37-15.97-.86-.97-.09-2.37-1.54-2.6-2.58-1.06-4.67-1.92-9.39-2.58-14.13-.65-4.74-1.15-9.51-1.36-14.29-.1-2.33-1.18-2.67-3.02-2.66-5.97,.03-11.94,.01-17.91,.01,0-6.5,0-13,0-19.5,.35-.5,.84-.95,1.04-1.5,3.92-11.27,12.56-15.4,23.71-15.66,4.47-.1,8.95,0,13.43,.01-.46,.85-.8,1.81-1.41,2.54-2.88,3.41-5.94,6.68-8.73,10.17-1.85,2.31-1.35,4.37,1.46,5.71,2.58,1.24,5.13,2.54,7.68,3.84,4.51,2.29,4.93,3.43,3.05,8.27-1.92,4.93-1.66,5.56,3.1,7.58,.04,11.02,.08,22.04,.13,33.06Z"/><path class="cls-23" d="M42.69,161.99c-10.38,1.29-20.74,2.86-31.15,3.76-6.49,.56-6.74-.12-6.64-6.48,.3-21,1.69-41.94,6.48-62.41,3.66-15.66,12.13-28.1,27.97-34.06,8.9-3.35,18.07-3.24,27.3-1.66,.98,.17,1.97,.27,2.95,.4,11.1,3.32,20.48,9.09,26.95,18.99,4.72,7.22,8.03,15.14,8.99,23.61,1.73,15.24,2.93,30.55,3.8,45.86,.25,4.33-1.28,8.82-2.31,13.15-.58,2.43-2.43,3.53-5.14,3.21-7.68-.9-15.39-1.64-23.08-2.44-.6-2.59,.33-4.34,2.42-6.07,6.09-5.01,9.95-11.52,11.13-19.35,1.58-10.5,.65-20.88-2.18-31.12-.58-2.11-1.59-2.44-3.48-2.18-13.92,1.96-27.28-.55-40.21-5.52-5.27-2.02-10.23-4.86-15.52-7.41-2.46,14.09-4.52,28.08-3.99,42.35,.4,10.62,4.87,18.89,13.35,25.13,.87,.64,1.59,1.48,2.38,2.23Z"/><path class="cls-9" d="M360.44,199.48c.94,5.96,2.27,11.9,2.72,17.9,.47,6.31,.16,12.68,.09,19.02-.05,4.98-.25,9.93,2.53,14.45,.57,.92,.33,2.33,.49,3.73-2.36,.17-4.32,.32-6.27,.46-2.46-.11-4.92-.23-7.38-.34-.05-6.21-.27-12.42-.07-18.63,.12-3.7-2.04-3.52-4.54-3.52-2.5,0-4.66-.19-4.54,3.52,.19,6.2-.03,12.42-.07,18.63-3.43,0-6.86,.02-10.28,.02-.03-6.21-.22-12.43-.01-18.64,.12-3.67-2-3.58-4.54-3.55-2.46,.03-4.71-.26-4.6,3.48,.19,6.21-.01,12.42-.05,18.63-2.93,.02-5.87,.04-8.8,.06-.03-6.21-.22-12.43-.02-18.64,.12-3.68-2.03-3.56-4.55-3.54-2.47,.02-4.7-.24-4.59,3.49,.19,6.21,0,12.42-.04,18.64-3.45,.12-6.91,.23-10.36,.35-1.54-.16-3.09-.32-5.56-.57,5.07-8.17,4-16.71,4.04-25.11,.02-3.99-.35-8.02,.08-11.96,.65-6,1.85-11.94,2.81-17.91,10.92-18.77,31.34-24.95,49.49-15.02,6.35,3.47,10.73,8.76,14.04,15.05Z"/><path class="cls-19" d="M42.69,161.99c-.79-.75-1.51-1.59-2.38-2.23-8.49-6.24-12.95-14.51-13.35-25.13-.54-14.27,1.53-28.26,3.99-42.35,5.29,2.55,10.25,5.39,15.52,7.41,12.93,4.97,26.3,7.48,40.21,5.52,1.89-.27,2.9,.07,3.48,2.18,2.83,10.24,3.76,20.61,2.18,31.12-1.18,7.83-5.03,14.34-11.13,19.35-2.1,1.72-3.02,3.48-2.42,6.07-.06,1.16-.11,2.33-.17,3.49-5.45,12.4-10.89,24.79-16.34,37.19-.78,0-1.56,0-2.34,.01-.1-.61-.08-1.27-.32-1.81-5.38-11.84-10.8-23.67-16.21-35.5-.25-1.77-.49-3.53-.74-5.3Zm17.02-11.69c4.84-.04,9.1-1.46,12.3-5.29,1.85-2.22,2.12-4.62-.15-6.65-2.09-1.86-4.25-1.5-6.36,.34-3.85,3.35-7.51,3.47-11.37,.29-2.31-1.9-4.61-2.21-6.63-.05-2.21,2.35-1.45,4.84,.66,6.95,3.19,3.18,7.14,4.43,11.56,4.41Zm22.75-29.41c0-.59,0-1.17,0-1.76-1.61-1.17-3.07-2.89-4.86-3.38-2.28-.63-4.55,1.95-4.36,4.42,.2,2.64,1.89,4.47,4.34,4.06,1.76-.3,3.26-2.17,4.87-3.34Zm-39,4.44c.6,.02,1.2,.03,1.8,.05,1.17-1.58,3.04-3.02,3.36-4.76,.51-2.72-1.39-4.39-4.23-4.41-2.72-.01-4.46,1.75-4.11,4.19,.26,1.76,2.06,3.29,3.17,4.93Z"/><path class="cls-4" d="M193.63,234.02c.17-8.67,.16-17.35,.61-26,.15-2.89,1.46-5.71,2.23-8.56,10.78-20.85,32.68-22.51,46.89-16.38,7.67,3.3,12.84,9.21,16.71,16.41,4.34,11.28,2.65,23.01,2.58,34.62-5.07,4.22-10.07,8.54-15.28,12.58-1.43,1.11-3.5,1.94-5.3,1.97-9.47,.19-18.94,.19-28.41,0-1.79-.04-3.86-.89-5.27-2.03-5.05-4.05-9.87-8.38-14.77-12.61Z"/><path class="cls-12" d="M62.3,204.59c5.45-12.4,10.89-24.79,16.34-37.19,2.35,.22,4.7,.57,7.06,.63,4.1,.1,8.21-.04,12.31,.03,11.49,.18,20.59,8.8,21.39,20.24,.26,3.7,.42,7.42,.62,11.12,.48,3.09-.9,4.84-3.91,5.41-1.48,.03-2.96,.06-4.43,.1-.98-.11-1.96-.21-2.94-.32-4.25-.16-8.49-.32-12.74-.48-.74,.16-1.49,.32-2.23,.48-3.51,0-7.02,0-10.54,0-.24,0-.49,.01-.73,.02-6.74-.01-13.47-.03-20.21-.04Z"/><path class="cls-5" d="M303.65,100.99v8.74h-119.69v-8.74h119.69Z"/><path class="cls-15" d="M303.61,31.06v8.41h-119.83v-8.41h119.83Z"/><path class="cls-6" d="M160.02,215.99c.35-1.62,.4-3.39,1.11-4.84,1.95-3.99,4.18-7.85,6.3-11.77,5.69-9.68,11.4-19.34,17.04-29.05,4.39-7.56,8.66-15.18,13.01-22.75,2.62-4.55,4.31-5.3,7.48-3.43,3.18,1.87,3.3,3.16,.61,7.84-7.91,13.74-15.86,27.45-23.75,41.2-1.11,1.94-1.98,4.02-2.97,6.04-3.16,5.36-6.31,10.71-9.46,16.07-3.33,4.61-4.72,4.71-9.37,.69Z"/><path class="cls-11" d="M260.7,79.77v8.67h-76.74v-8.67h76.74Z"/><path class="cls-15" d="M183.74,133.33v-8.55h62.14v8.55h-62.14Z"/><path class="cls-11" d="M250.25,63.56v-8.56h53.25v8.56h-53.25Z"/><path class="cls-15" d="M225.75,54.92v8.6h-41.96v-8.6h41.96Z"/><path class="cls-15" d="M303.58,124.71v8.64h-37.33v-8.64h37.33Z"/><path class="cls-14" d="M111.45,281.33c.97,4.47,2.09,8.92,2.88,13.42,3.47,19.78,6.84,39.59,10.23,59.38,.14,.84,.2,1.69,.32,2.73H7.14c1.64-6.84,3.21-13.36,4.78-19.89,4.26-17.71,8.51-35.42,12.79-53.12,.2-.84,.56-1.64,.85-2.46,5.99-.02,11.98-.04,17.97-.06,22.65,0,45.29,0,67.94-.01Z"/><path class="cls-9" d="M272.85,356.95c-29.75,0-59.49,0-89.24,.01,1.59-15.78,3.02-31.59,4.84-47.35,1.22-10.62,9.54-17.82,20.2-17.9,13-.1,26-.09,39,0,10.86,.08,18.99,7.46,20.18,18.28,1.73,15.64,3.35,31.3,5.02,46.95Z"/><path class="cls-9" d="M375.97,356.97c-29.69,0-59.38,0-89.06,.01,1.62-15.88,3.16-31.76,4.89-47.63,1.09-9.97,9.47-17.51,19.61-17.61,13.35-.14,26.7-.14,40.05,0,10.16,.11,18.45,7.4,19.62,17.6,1.83,15.85,3.27,31.75,4.88,47.63Z"/><path class="cls-21" d="M111.45,281.33c-22.65,0-45.29,0-67.94,.01-.02-5.76-.05-11.52-.07-17.28,10.74-.07,21.49-.14,32.23-.19,7.04-.04,8.95-1.91,8.97-8.86,0-2.5,.03-5,0-7.5-.08-5.57-2.13-7.69-7.68-7.91-1.47-.06-2.95,0-4.95,0,.67-2.58,1.27-4.68,1.74-6.8,.79-3.55-.83-6.6-4.07-7.85-3.24-1.25-6.17-.31-8.05,2.75-1.9,3.09-3.79,6.18-5.45,9.4-1.18,2.28-2.67,3.36-5.3,2.95-2.46-.38-4.96-.49-7.45-.72-.04-11.02-.08-22.04-.13-33.06,.94-.51,1.85-1.43,2.81-1.47,4.6-.19,9.22-.14,13.83-.18,.78,0,1.56,0,2.34-.01,6.74,.01,13.47,.03,20.21,.04,.24,0,.49-.01,.73-.02,3.51,0,7.02,0,10.54,0,.74,.02,1.49,.05,2.23,.07,4.25-.02,8.49-.05,12.74-.07,.98,.11,1.96,.21,2.94,.32,0,11.18,0,22.36,0,33.53-.08,14.28-.15,28.57-.23,42.85Z"/><path class="cls-3" d="M375.97,356.97c-1.61-15.88-3.05-31.78-4.88-47.63-1.18-10.2-9.46-17.49-19.62-17.6-13.35-.14-26.7-.14-40.05,0-10.14,.11-18.52,7.64-19.61,17.61-1.73,15.87-3.27,31.75-4.89,47.63-2.13,0-4.25-.02-6.37-.03-.06-19.54-.12-39.09-.17-58.63,1.19-12.14,11.52-22.26,23.61-23.11,1.61-.11,3.23-.15,4.85-.23,13.37,0,26.73,.02,40.1,.03,4.84,.31,9.83,0,14.49,1.07,11.31,2.6,19.57,12.78,19.74,24.38,.27,18.35,.08,36.7,.07,55.06,0,.35-.15,.71-.32,1.45h-6.92Z"/><path class="cls-3" d="M272.85,356.95c-1.67-15.65-3.29-31.31-5.02-46.95-1.2-10.82-9.32-18.2-20.18-18.28-13-.09-26-.1-39,0-10.66,.08-18.97,7.28-20.2,17.9-1.82,15.76-3.24,31.56-4.84,47.35-2.09,0-4.19,0-6.67,0-.08-1.64-.21-3.09-.21-4.53-.01-15.96,.5-31.94-.14-47.87-.72-17.98,13.11-30.94,29.49-29.48,.74,.07,1.49-.04,2.24-.07,13.36,0,26.72,0,40.08,0,3.6,.23,7.34-.07,10.79,.77,11.79,2.89,18.37,10.84,20.67,22.56-.05,19.53-.1,39.07-.15,58.6h-6.86Z"/><path class="cls-20" d="M111.69,238.47c0-11.18,0-22.36,0-33.53,1.48-.03,2.96-.06,4.43-.1,6.06,5.5,12.08,11.04,18.21,16.46,.82,.73,2.31,1.37,3.28,1.14,7-1.67,13.94-3.57,20.89-5.44,.56-.15,1.02-.67,1.52-1.02,4.65,4.02,6.04,3.91,9.37-.69,5.81,2.78,10.46,13.14,7.88,18.98-1.02,2.31-3.68,4.75-6.08,5.44-13.19,3.76-26.5,7.1-39.83,10.34-3.63,.88-6.75-.95-9.53-3.32-3.31-2.83-6.75-5.51-10.14-8.26Z"/><path class="cls-22" d="M248.41,275.02c-13.36,0-26.72,0-40.08,0,.87-4.54-.09-8.21-4.43-10.73-2-1.16-3.59-3.02-5.34-4.6-3.53-3.18-5.2-7.11-5.03-11.91,.16-4.59,.07-9.18,.09-13.77,4.91,4.23,9.73,8.56,14.78,12.61,1.41,1.13,3.48,1.99,5.27,2.03,9.47,.2,18.94,.19,28.41,0,1.8-.04,3.86-.86,5.3-1.97,5.21-4.04,10.2-8.37,15.28-12.58,1.33,10.41,.27,20.13-8.09,27.72-.74,.67-1.33,1.52-2.13,2.09-3.94,2.79-4.93,6.6-4.02,11.12Z"/><path class="cls-7" d="M348.91,275.02c-13.37,0-26.73-.02-40.1-.03,1.39-5.29-1.53-8.36-5.29-11.43-3-2.44-5.35-5.68-7.98-8.56,3.45-.12,6.91-.23,10.36-.35,3.07,.02,6.13,.03,9.2,.05,2.93-.02,5.87-.04,8.8-.06,3.07,.02,6.13,.05,9.2,.07,3.43,0,6.86-.02,10.28-.02,3.08,0,6.16,0,9.24,0,2.46,.11,4.92,.23,7.38,.34-2.37,2.97-4.38,6.33-7.19,8.81-3.58,3.16-4.87,6.66-3.9,11.18Z"/><path class="cls-16" d="M43.45,264.06c.02,5.76,.05,11.52,.07,17.28-5.99,.02-11.98,.04-17.97,.06-.06-5.76-.12-11.53-.19-17.29,6.03-.02,12.05-.03,18.08-.05Z"/><path class="cls-10" d="M279.72,356.96c.05-19.53,.1-39.07,.15-58.6,.16,0,.33-.02,.49-.03,.06,19.54,.12,39.09,.17,58.63-.27,0-.54,0-.82,0Z"/><path class="cls-17" d="M59.96,204.61c-4.61,.04-9.22,0-13.83,.18-.96,.04-1.87,.96-2.81,1.47-4.76-2.02-5.01-2.65-3.1-7.58,1.88-4.84,1.47-5.98-3.05-8.27-2.55-1.3-5.1-2.6-7.68-3.84-2.81-1.34-3.3-3.4-1.46-5.71,2.79-3.49,5.85-6.75,8.73-10.17,.61-.73,.95-1.69,1.41-2.54,1.75-.29,3.5-.57,5.25-.86,5.41,11.83,10.82,23.66,16.21,35.5,.25,.54,.22,1.21,.32,1.81Z"/><path class="cls-8" d="M315.1,254.71c-3.07-.02-6.13-.03-9.2-.05,.04-6.21,.24-12.43,.04-18.64-.12-3.73,2.12-3.47,4.59-3.49,2.52-.02,4.67-.15,4.55,3.54-.2,6.21,0,12.42,.02,18.64Z"/><path class="cls-2" d="M352.62,254.69c-3.08,0-6.16,0-9.24,0,.05-6.21,.27-12.42,.07-18.63-.12-3.7,2.04-3.52,4.54-3.52,2.5,0,4.66-.18,4.54,3.52-.2,6.2,.03,12.42,.07,18.63Z"/><path class="cls-8" d="M333.1,254.72c-3.07-.02-6.13-.05-9.2-.07,.04-6.21,.24-12.43,.05-18.64-.11-3.74,2.14-3.45,4.6-3.48,2.53-.03,4.66-.12,4.54,3.55-.2,6.21-.01,12.42,.01,18.64Z"/><path class="cls-13" d="M59.71,150.3c-4.42,.02-8.38-1.22-11.57-4.4-2.11-2.11-2.87-4.59-.66-6.95,2.03-2.16,4.32-1.85,6.63,.05,3.86,3.17,7.52,3.05,11.37-.29,2.11-1.83,4.28-2.2,6.36-.34,2.28,2.03,2.01,4.43,.15,6.65-3.19,3.82-7.45,5.25-12.29,5.28Z"/><path class="cls-13" d="M82.45,120.89c-1.62,1.17-3.11,3.04-4.87,3.34-2.45,.41-4.15-1.42-4.34-4.06-.19-2.48,2.08-5.05,4.36-4.42,1.8,.49,3.25,2.21,4.86,3.38,0,.59,0,1.17,0,1.76Z"/><path class="cls-13" d="M43.46,125.33c-1.11-1.63-2.92-3.17-3.17-4.93-.36-2.44,1.39-4.21,4.11-4.19,2.84,.01,4.73,1.69,4.23,4.41-.32,1.74-2.19,3.18-3.36,4.76-.6-.02-1.2-.03-1.8-.05Z"/><path class="cls-20" d="M108.74,204.62c-4.25,.02-8.49,.05-12.74,.07,0-.18,0-.37,0-.55,4.25,.16,8.49,.32,12.74,.48Z"/><path class="cls-19" d="M96,204.14c0,.18,0,.37,0,.55-.74-.02-1.49-.05-2.23-.07,.74-.16,1.49-.32,2.23-.48Z"/><path class="cls-19" d="M83.24,204.61c-.24,0-.49,.01-.73,.02,.24,0,.49-.01,.73-.02Z"/></svg>