<?xml version="1.0" encoding="UTF-8"?><svg id="Layer_1" xmlns="http://www.w3.org/2000/svg" viewBox="0 0 384 381"><defs><style>.cls-1{fill:#60d8f8;}.cls-2{fill:#5fd5f4;}.cls-3{fill:#fde3c0;}.cls-4{fill:#e0dce0;}.cls-5{fill:#94d328;}.cls-6{fill:#fdf1dd;}.cls-7{fill:#fadc74;}.cls-8{fill:#070706;}.cls-9{fill:#030303;}.cls-10{fill:#040303;}.cls-11{fill:#fee077;}.cls-12{fill:#fd646f;}.cls-13{fill:#fef2dd;}.cls-14{fill:#01cdf7;}.cls-15{fill:#f94755;}.cls-16{fill:#fde3c1;}.cls-17{fill:#f9dc74;}.cls-18{fill:#a0e42e;}.cls-19{fill:#f1eef1;}.cls-20{fill:#030304;}.cls-21{fill:#040403;}.cls-22{fill:#01cef9;}.cls-23{fill:#93d128;}.cls-24{fill:#60d6f6;}</style></defs><path class="cls-9" d="M74.44,284.16c.95-4.11,3.6-5.4,7.69-5.37,20.24,.13,40.49,0,60.73,.07,21.31,.06,37.25,9.53,48.1,27.75,.24,.41,.5,.81,.97,1.55,.65-1,1.17-1.77,1.65-2.55,10.53-16.95,25.63-26.49,45.69-26.66,36.99-.32,73.97-.12,110.96-.09,6.63,0,10.27,3.73,10.31,10.59,.07,12.61,.02,25.23,.02,38.33,3.06,0,6.02,.19,8.95-.04,7.07-.54,11.93,2.28,14.48,8.95v36c-3.2,6.49-8.5,8.31-15.56,8.3-117.62-.15-235.24-.15-352.86,0-7.07,0-12.37-1.81-15.58-8.3v-36.75c4.83-10.6,14.56-7.78,23.43-8.22,0-7.38,0-14.58,0-21.78,0-5.5-.06-11,.02-16.49,.09-7,3.7-10.56,10.68-10.6,6.12-.04,12.25,.14,18.36-.06,4.04-.13,6.37,1.54,7.32,5.37-1.33,4.88-2.71,5.93-7.93,5.94-5.67,.01-11.34,0-17,0v37.52H186.03c-.76-6.04-2.38-11.56-5.65-16.53-8.26-13.79-20.54-20.78-36.5-20.94-20.49-.21-40.99-.05-61.48-.06-5.26,0-6.64-1.05-7.96-5.94Zm251.06,6.09c-29.72-.01-59.45-.56-89.15,.19-14.3,.36-25.37,8.13-32.74,20.65-3.28,4.97-4.89,10.5-5.65,16.49h151.18v-37.33h-23.64ZM11.37,353.19v16.18H372.5v-30.18h-47.01c-1-.05-1.99-.14-2.99-.14-102.55,0-205.1,0-307.65,0-1.09,0-2.18,.09-3.48,.15v14Z"/><path class="cls-20" d="M238.84,221.92c-.33,3.58-.26,6.75-.99,9.72-1.55,6.32-6.83,10.62-13.28,10.66-21.74,.13-43.47,.15-65.21,0-7.84-.06-13.7-6.34-13.95-14.25-.06-1.86,0-3.73,0-6.13-5.83,0-11.51,0-17.2,0-10.15,0-13.83-3.64-13.84-13.68,0-14.74,.11-29.48-.06-44.22-.07-5.72,2.06-9.68,7.05-12.55,7.24-4.16,14.23-8.75,21.41-13.01,1.95-1.15,2.66-2.44,2.67-4.73,.05-10.34-1.26-20.88,2.14-30.87,2.43-7.13,5.32-14.27,9.15-20.72,8.15-13.71,17.02-27,25.63-40.43,5.42-8.46,13.68-8.47,19.1-.03,8.49,13.22,16.85,26.52,25.41,39.7,7.97,12.29,11.94,25.66,11.67,40.32-.09,4.99-1.54,10.88,.59,14.72,2.11,3.81,7.93,5.58,12.15,8.21,4.23,2.64,8.5,5.22,12.74,7.84,3.57,2.21,5.41,5.38,5.4,9.63-.01,16.24,.06,32.48-.03,48.72-.04,6.86-4.42,11.01-11.43,11.1-6.35,.08-12.7,.02-19.12,.02Zm-45.25-141.76h19.12c-7.06-11.03-13.81-21.58-20.83-32.55-3.45,5.53-6.47,10.37-9.49,15.22-3.68,5.66-7.35,11.32-11.26,17.33h22.45Zm-42.7,104.44c4.73,1.48,5.72,2.81,5.75,7.77,.05,7.86,.1,15.71,.15,23.57-.05,3.37-.14,6.74-.14,10.1,0,4.37,.68,5.07,4.98,5.07,20.24,.02,40.48-.03,60.71,.05,3.49,.01,4.95-1.31,4.94-4.86-.07-36.23,0-72.46-.1-108.69-.02-8.36-2.24-16.29-6.13-23.68-.56-1.06-2.12-2.2-3.25-2.24-5.36-.18-10.73,.02-16.09,.08-11.96-.06-23.92-.19-35.88-.08-1.07,0-2.56,1.32-3.12,2.41-4.16,7.97-6.11,16.5-6.08,25.5,.05,14.21,.02,28.42,0,42.63,0,4.95-1.05,6.32-5.75,7.75-4.1-.86-5.75-3.38-5.54-7.54,.2-3.91,.04-7.83,.04-12.47-6.19,3.8-11.62,7.25-17.19,10.49-1.97,1.15-2.68,2.46-2.66,4.75,.11,13.98,.05,27.95,.06,41.93,0,1.1,.11,2.19,.16,3.22h19.62c0-6.27,.15-12.26-.05-18.23-.14-4.15,1.45-6.68,5.55-7.54Zm107.27,25.94c0-15.84,0-31.4-.03-46.97,0-.65-.32-1.6-.81-1.91-6.04-3.83-12.14-7.56-18.58-11.54v60.42h19.42Z"/><path class="cls-21" d="M296.49,39.67c-2.5-4.58-2.17-6.29,1.83-9.64,16.39-13.68,39.97-13.74,56.54-.13,.77,.63,1.53,1.26,2.96,2.45,3.52-6.89,6.91-13.53,10.3-20.18-.36-.38-.72-.75-1.08-1.13-2.14,.73-4.31,1.41-6.43,2.19-4.02,1.49-7.09,.47-8.4-2.86-1.24-3.16,.16-5.97,4.12-7.5,2.89-1.12,5.88-2.17,8.91-2.67,8.67-1.4,14.63,4.77,13.18,13.42-1.33,7.94-5.07,14.9-9.62,21.3-3.02,4.24-3.6,7.49-1.36,12.57,7.37,16.73,2.75,36.43-10.54,48.72-13.69,12.66-33.15,15.62-49.69,7.36-2.42-1.21-3.96-1.14-6.25,.41-7.63,5.18-15.38,10.31-24.81,11.67-8.86,1.28-14.6-4.52-13.17-13.31,.4-2.44,1.03-4.89,1.9-7.21,1.22-3.26,4.23-4.63,7.24-3.61,2.9,.97,4.25,3.99,3.3,7.33-.49,1.74-.95,3.49-1.57,5.79,8.18-1.4,14.23-5.79,20.74-9.78-.51-.75-.9-1.48-1.43-2.1-7.88-9.31-11.37-20.05-10.54-32.21,.37-5.52,1.78-7,7.21-7.46,3.48,1.74,4.41,4.54,4.1,8.34-.85,10.29,2.59,19.05,10.16,26.46,13.87-11.19,26.81-23.01,38.03-36.63,2.82-3.23,5.64-6.47,9.1-10.44-4.22-2.56-7.86-4.76-11.51-6.97-12.38-5.18-23.81-3.39-34.19,4.91-2.99,2.39-5.77,3.25-9.05,.91Zm18.78,54.94c10.48,5.52,26.71,1.57,36.12-8.79,9.43-10.38,10.06-27.42,5.85-33.15-13.98,13.97-28.05,28.03-41.98,41.94Z"/><path class="cls-6" d="M74.44,284.16c1.33,4.89,2.7,5.94,7.96,5.94,20.49,.01,40.99-.15,61.48,.06,15.95,.16,28.23,7.16,36.5,20.94-48.5,.02-97.01,.05-145.51,.07v-21.06c5.66,0,11.33,.01,17,0,5.22-.01,6.61-1.06,7.93-5.94,4.88,0,9.76,0,14.64,0Z"/><path class="cls-21" d="M89.26,24.97c2.24,1.73,5.62,3,6.54,5.26,4.71,11.61,12.97,19.06,24.24,24.18,6.29,2.86,5.93,11.28-.11,14.91-4.26,2.56-8.77,4.72-13.04,7.27-1.4,.84-2.71,2.16-3.55,3.56-2.37,3.94-4.5,8.03-6.68,12.09-1.78,3.32-4.31,5.43-8.27,5.39-3.8-.03-6.63-1.91-7.92-5.26-4.21-10.95-11.71-18.38-22.6-22.63-3.41-1.33-5.28-4.19-5.31-7.9-.03-3.88,1.94-6.79,5.48-8.17,10.77-4.19,18.19-11.55,22.34-22.37,1.35-3.52,4.28-5.43,8.87-6.33Zm-22.91,36.37c5.25,3.15,10.42,5.15,14.02,8.72,3.52,3.51,5.45,8.62,8.62,13.96,3.47-11.53,10.77-18.31,21.42-22.38-11.1-3.51-17.76-11.11-22.04-21.55-3.83,10.84-10.96,17.69-22.02,21.25Z"/><path class="cls-10" d="M326.37,251.49c-3.06-.14-5.82-1.48-7.03-4.5-4.13-10.35-11.28-17.28-21.58-21.75-6.66-2.89-6.66-11.94-.02-14.86,10.22-4.51,17.15-11.49,21.69-21.69,2.87-6.46,11.82-6.51,14.63-.04,4.53,10.42,11.81,17.21,21.98,21.93,6.27,2.91,5.97,10.83,.1,14.59-.52,.34-1.05,.7-1.63,.92-9.45,3.62-15.89,10.17-19.58,19.6-1.42,3.63-4.21,5.85-8.56,5.8Zm.37-52.93c-3.48,9.61-9.93,15.73-19.56,18.93,4.55,2.74,9.1,4.5,12.25,7.65,3.14,3.14,4.89,7.68,7.66,12.29,3.09-9.8,9.53-16.04,18.96-19.7-9.58-3.46-15.72-9.75-19.31-19.18Z"/><path class="cls-18" d="M296.49,39.67c3.29,2.34,6.07,1.48,9.05-.91,10.38-8.31,21.81-10.09,34.19-4.91,.8,5.8,1.6,11.61,2.41,17.41-11.23,13.62-24.17,25.44-38.03,36.63-7.58-7.41-11.01-16.16-10.16-26.46,.31-3.8-.62-6.6-4.1-8.34,2.21-4.47,4.43-8.95,6.64-13.42Z"/><path class="cls-8" d="M67.69,178.15c2.49,1.28,5.02,1.97,6.72,3.55,5.48,5.09,10.75,10.43,15.93,15.84,4.04,4.21,4,9.46-.07,13.7-5.1,5.31-10.31,10.52-15.63,15.62-4.18,4.01-9.49,3.98-13.71-.08-5.31-5.11-10.52-10.31-15.62-15.63-4.01-4.18-3.97-9.5,.08-13.7,5.11-5.3,10.28-10.55,15.67-15.57,1.71-1.6,4.18-2.39,6.62-3.72Zm.33,13.21c-4.54,4.49-8.87,8.77-13.02,12.87,4.31,4.29,8.69,8.66,12.68,12.64,4.24-4.21,8.62-8.56,12.94-12.85-4.09-4.11-8.39-8.43-12.6-12.66Z"/><path class="cls-15" d="M325.49,339.19h47.01v30.18H11.37c0-5.31,0-10.74,0-16.18,101.91,0,203.82,0,305.73,.01,.62,0,1.25,.03,1.87-.01,3.58-.27,6.32-2.93,6.5-6.51,.13-2.49,.02-4.99,.02-7.49Z"/><path class="cls-12" d="M325.49,339.19c0,2.5,.11,5-.02,7.49-.18,3.58-2.92,6.24-6.5,6.51-.62,.05-1.25,.01-1.87,.01-101.91,0-203.82,0-305.73-.01,0-4.59,0-9.18,0-14,1.3-.06,2.39-.15,3.48-.15,102.55,0,205.1,0,307.65,0,1,0,1.99,.09,2.99,.14Z"/><path class="cls-16" d="M325.5,290.25h23.64v37.33H197.96c.76-5.99,2.37-11.52,5.65-16.49,37.99,.03,75.98,.07,113.97,.1,.12,0,.25,0,.37,0,5-.27,7.51-2.84,7.54-7.82,.03-4.37,0-8.75,0-13.12Z"/><path class="cls-3" d="M34.87,311.17c48.5-.02,97.01-.05,145.51-.07,3.27,4.97,4.89,10.49,5.65,16.53H34.87v-16.46Z"/><path class="cls-13" d="M325.5,290.25c0,4.37,.03,8.75,0,13.12-.03,4.97-2.55,7.55-7.54,7.82-.12,0-.25,0-.37,0-37.99-.03-75.98-.07-113.97-.1,7.36-12.52,18.44-20.29,32.74-20.65,29.7-.75,59.43-.2,89.15-.19Z"/><path class="cls-19" d="M156.79,215.94c-.05-7.86-.1-15.71-.15-23.57-.03-4.96-1.02-6.29-5.75-7.77,0-4.87,0-9.74,0-14.61,4.7-1.43,5.75-2.8,5.75-7.75,.02-14.21,.05-28.42,0-42.63-.03-9.01,1.92-17.54,6.08-25.5,.57-1.09,2.05-2.4,3.12-2.41,11.96-.11,23.92,.02,35.88,.08,1.82,4.73,4.04,9.35,5.32,14.22,1.05,4,.98,8.3,1.41,12.47-.67-.55-1.34-1.09-2-1.65-8.91-7.52-21.95-7.04-30.27,1.11-8.42,8.26-9.03,21.43-1.43,30.53,7.36,8.81,22.63,12.28,34.3,.28,.06,19.68,.2,39.37,.14,59.05-.01,5.11-3.49,8.16-8.67,8.16-14.58,.02-29.16,0-43.74,0Z"/><path class="cls-4" d="M156.79,215.94c14.58,0,29.16,.02,43.74,0,5.18,0,8.66-3.06,8.67-8.16,.05-19.68-.08-39.37-.14-59.05,7.42-10.88,7.24-19.65-.61-30.27-.43-4.17-.36-8.46-1.41-12.47-1.28-4.87-3.51-9.49-5.32-14.22,5.36-.06,10.73-.26,16.09-.08,1.13,.04,2.69,1.18,3.25,2.24,3.89,7.39,6.11,15.32,6.13,23.68,.1,36.23,.03,72.46,.1,108.69,0,3.55-1.45,4.88-4.94,4.86-20.24-.08-40.48-.02-60.71-.05-4.31,0-4.98-.7-4.98-5.07,0-3.37,.09-6.74,.14-10.1Z"/><path class="cls-2" d="M150.88,169.99c0,4.87,0,9.74,0,14.61-4.1,.86-5.69,3.39-5.55,7.54,.2,5.97,.05,11.96,.05,18.23h-19.62c-.05-1.03-.16-2.13-.16-3.22-.01-13.98,.05-27.95-.06-41.93-.02-2.29,.69-3.6,2.66-4.75,5.56-3.24,11-6.69,17.19-10.49,0,4.64,.16,8.56-.04,12.47-.21,4.15,1.43,6.68,5.54,7.54Z"/><path class="cls-22" d="M258.15,210.54h-19.42v-60.42c6.44,3.98,12.54,7.71,18.58,11.54,.49,.31,.8,1.26,.81,1.91,.04,15.56,.03,31.13,.03,46.97Z"/><path class="cls-14" d="M182.39,62.83c3.02-4.84,6.04-9.69,9.49-15.22,7.02,10.97,13.77,21.52,20.83,32.55-6.8,0-12.96,0-19.12,0-3.73-5.78-7.46-11.55-11.19-17.33Z"/><path class="cls-1" d="M182.39,62.83c3.73,5.78,7.46,11.55,11.19,17.33-7.21,0-14.43,0-22.45,0,3.91-6.01,7.58-11.67,11.26-17.33Z"/><path class="cls-5" d="M315.26,94.6c13.93-13.91,28-27.97,41.98-41.94,4.21,5.74,3.57,22.78-5.85,33.15-9.41,10.36-25.65,14.31-36.12,8.79Z"/><path class="cls-23" d="M342.14,51.26c-.8-5.8-1.6-11.61-2.41-17.41,3.64,2.21,7.29,4.41,11.51,6.97-3.47,3.98-6.28,7.21-9.1,10.44Z"/><path class="cls-7" d="M66.35,61.34c11.05-3.56,18.18-10.41,22.02-21.25,4.28,10.44,10.94,18.04,22.04,21.55-10.65,4.07-17.95,10.85-21.42,22.38-3.18-5.34-5.1-10.45-8.62-13.96-3.59-3.58-8.76-5.57-14.02-8.72Z"/><path class="cls-17" d="M326.74,198.56c3.58,9.43,9.73,15.72,19.31,19.18-9.43,3.65-15.86,9.89-18.96,19.7-2.77-4.62-4.52-9.15-7.66-12.29-3.16-3.15-7.7-4.91-12.25-7.65,9.63-3.2,16.09-9.32,19.56-18.93Z"/><path class="cls-11" d="M68.03,191.36c4.2,4.22,8.5,8.54,12.6,12.66-4.32,4.29-8.7,8.64-12.94,12.85-3.99-3.97-8.37-8.34-12.68-12.64,4.15-4.1,8.48-8.38,13.02-12.87Z"/><path class="cls-20" d="M208.45,118.46c7.85,10.62,8.02,19.39,.61,30.27-11.67,12-26.94,8.53-34.3-.28-7.6-9.1-7-22.27,1.43-30.53,8.32-8.16,21.36-8.63,30.27-1.11,.66,.56,1.33,1.1,2,1.65Zm-16.64,4.33c-6.17,.05-11.1,5.02-11.09,11.18,0,6.05,5.1,11.21,11.14,11.26,6.11,.06,11.46-5.37,11.34-11.5-.13-6.14-5.19-11-11.38-10.95Z"/><path class="cls-24" d="M191.81,122.79c6.19-.05,11.25,4.82,11.38,10.95,.13,6.13-5.22,11.55-11.34,11.5-6.03-.06-11.13-5.21-11.14-11.26,0-6.17,4.92-11.13,11.09-11.18Z"/></svg>