<?xml version="1.0" encoding="UTF-8"?><svg id="Layer_1" xmlns="http://www.w3.org/2000/svg" viewBox="0 0 512 512"><defs><style>.cls-1{fill:#08df91;}.cls-2{fill:#025bad;}.cls-3{fill:#fbc173;}.cls-4{fill:#035bad;}.cls-5{fill:#0573cc;}.cls-6{fill:#fb6930;}.cls-7{fill:#fbd094;}.cls-8{fill:#fb7d44;}.cls-9{fill:#fcdfb7;}.cls-10{fill:#fc7d43;}.cls-11{fill:#015aac;}.cls-12{fill:#0673cc;}.cls-13{fill:#00efa4;}</style></defs><path class="cls-7" d="M410.15,0l4.85,3.27,12.67,22.56-1.57,2.19-21.1,117.2.28,318.5c-12.47,8.86-25.61,16.74-39.28,23.6l1-138.71v-203.62l-27.94-.05c-4.07,0-7.95-1.97-9.69-4.8-2.3-3.74-1.89-7.63.23-11.46l47.8-86.23,21.74-39.17,4.92-3.28h6.09Z"/><path class="cls-9" d="M476.42,143.31c-9.48.84-19.24.41-29.42.54l1,204.76.44,73.67c-12.6,15.35-27.25,29.26-43.44,40.92l-.27-319.28,20.41-114.86,1.52-2.14,56.18,102.57c2.75,5.02-1.03,13.35-6.42,13.83Z"/><path class="cls-5" d="M377.59,42.72l-47.08,86.06c-2.09,3.82-2.49,7.7-.23,11.43,1.72,2.83,5.54,4.79,9.54,4.79l26.17.05v203.95s-54-.01-54-.01v-161.77s-5.82-10.65-11.93-11.22l-31.87,1h-28.25c-5.65-.12-9.94,10.11-9.94,10.11v160.89h-51.08l-.21.15c-.62-29.74-7.61-58.74-21.01-85.83-.44-.89-2.11-2.41-2.8-2.89l.29-2.27-23.91-43.42c-2.4-3.27-5.82-5.02-9.76-4.8-3.36.19-6.73,2.57-8.61,6.02l-24.02,44.11c-14.9,27.35-22.63,89.92-22.63,89.92l-44.49.06C-2.06,284.64,1.5,212.82,31.6,151.74,95.04,22.99,252.68-26.46,377.59,42.72Z"/><path class="cls-12" d="M477.97,144.48c33.21,63.22,37.8,137.87,13.11,204.52l-43.08-.32v-203.65c10.37-.13,20.31.31,29.97-.55Z"/><path class="cls-11" d="M230,349.13l.06,161.46c-17.37-1.05-34.32-5.48-51.06-10.32l.02-151.27,50.98.13Z"/><path class="cls-11" d="M366,349.01l.39,138.05c-17.25,8.75-35.49,14.87-54.39,19.13l-.46-157.19h54.46Z"/><path class="cls-4" d="M66,348.94l-.51,75.13c-18.85-22.38-33.97-47.73-44.09-75.08l44.61-.06Z"/><path class="cls-2" d="M490.64,349.32c-9.91,26.75-24.55,51.41-42.64,73.45l-.44-73.76,43.08.32Z"/><path class="cls-13" d="M312,348.61l.46,157.44c-11.64,2.62-23.53,4.38-35.47,5.83l-15.99.37.47-322.69c0-6.08,1.93-9.65,6.77-12.55h31.82s11.72,3.3,10.93,10.22l1,161.39Z"/><path class="cls-1" d="M268.83,176.9c-4.88,2.9-6.83,6.47-6.83,12.55l-.48,322.55-25.38-.04-7.15-1.73,1-161.46v-161.52c0-5.99,4.53-10.22,10.24-10.24l28.59-.1Z"/><path class="cls-10" d="M178.79,348.08l.21.49-.02,151.27c-25.85-8.29-50.4-20.98-71.98-37.36l.62-113.68-.05-.8,71.23.08Z"/><path class="cls-6" d="M107,348.97l-.62,113.68c-14.82-11.31-28.43-24.19-40.38-38.52l.51-75.13,40.49-.03Z"/><path class="cls-9" d="M154.93,259.07c.7.48,2.37,2.01,2.81,2.9,13.43,27.16,20.44,56.22,21.06,86.03l-71.74-.08c.27-29.72,2.14-59.42,5.81-88.92l42.06.07Z"/><path class="cls-3" d="M113,259.28c-3.67,29.5-5.54,59.2-5.81,88.92l.06.8-41.02.03c0-31.3,7.75-62.62,22.68-90.03l24.1.28Z"/><path class="cls-8" d="M154.9,259l-41.96,1h-24.04l24.02-45.04c1.88-3.45,5.25-5.83,8.61-6.02,3.93-.23,7.35,1.53,9.76,4.8l23.91,43.42-.29,1.84Z"/></svg>