<?xml version="1.0" encoding="UTF-8"?><svg id="Layer_1" xmlns="http://www.w3.org/2000/svg" viewBox="0 0 384 384"><defs><style>.cls-1{fill:#fe4547;}.cls-2{fill:#fe9100;}.cls-3{fill:#df0016;}.cls-4{fill:#58589f;}.cls-5{fill:#fe7666;}.cls-6{fill:#feb54c;}.cls-7{fill:#9266d7;}</style></defs><polygon class="cls-2" points="146.62 294.07 90.8 384 0 384 0 383.25 1.81 381.95 79.51 294 146.62 294.07"/><polygon class="cls-4" points="304.53 293.96 384.11 384 292.88 384.06 237.35 294 304.53 293.96"/><polygon class="cls-3" points="236.93 294 237.47 294.07 292.91 384 192 384 191.99 294 236.93 294"/><polygon class="cls-1" points="192 294 192.01 384 90.83 384 146.67 294.03 147.09 294 192 294"/><polygon class="cls-5" points="193.08 0 192 .75 191.98 294 147 294 148 175.74 148 68 113.46 68 189.53 2.14 191.37 0 193.08 0"/><polygon class="cls-1" points="238 175.73 237.93 294 192 294 192.02 .26 272.49 67 237 67 238 175.73"/><polygon class="cls-6" points="147 175.36 147.1 293.97 146.68 294 80 293.93 79.97 203 57.75 202.82 113.48 135.27 147 175.36"/><polygon class="cls-7" points="305.04 294 237.54 294.04 237 293.96 237.07 175.58 271.05 135.58 327.52 203 305 203.18 305.04 294"/></svg>