<?xml version="1.0" encoding="UTF-8"?><svg id="Layer_1" xmlns="http://www.w3.org/2000/svg" viewBox="0 0 344.37 384"><defs><style>.cls-1{fill:#f2db44;}.cls-2{fill:#d5606a;}.cls-3{fill:#edb684;}.cls-4{fill:#050403;}.cls-5{fill:#e6bf2d;}.cls-6{fill:#040302;}.cls-7{fill:#040102;}.cls-8{fill:#c22430;}.cls-9{fill:#e8c02d;}.cls-10{fill:#e9b382;}.cls-11{fill:#040403;}.cls-12{fill:#e3af7e;}.cls-13{fill:#eac12e;}.cls-14{fill:#efcea4;}.cls-15{fill:#efb785;}.cls-16{fill:#edcda2;}.cls-17{fill:#e8b382;}.cls-18{fill:#d84953;}</style></defs><path class="cls-6" d="M154.16,384c-7.22-1.74-14.41-3.62-21.66-5.2-29.4-6.4-58.84-12.65-88.24-19.06-12.27-2.67-19.22-11.52-19.24-24.12-.02-18.12,0-36.24,0-54.37,0-1.23,0-2.46,0-3.64-3.22-.42-6.27-.42-9.07-1.26-8.86-2.65-14.37-8.74-15.41-17.87-.73-6.41-.7-13.03-.02-19.45,1.15-10.78,9.75-18.21,20.55-18.66,1.11-.05,2.23,0,3.94,0,0-2.98-.01-5.79,0-8.6,.08-16.39,12.53-26.7,28.61-23.55,8.32,1.63,16.59,3.52,25.08,5.34-.87-4.49-1.96-8.77-2.48-13.11-.53-4.45-.51-8.96-.71-13.14-3.26-1.66-6.43-2.88-9.15-4.75-11.24-7.73-14.13-23.35-6.17-34.43,1.95-2.72,1.95-4.93,1.26-7.82-4.17-17.65-7.41-35.44-7.2-53.68,.02-2,.06-4,.21-5.99,.39-4.99,1.53-6.21,6.47-7.1,3.68,1.08,4.89,3.53,4.86,7.33-.06,7.59-.25,15.26,.65,22.76,1.39,11.58,3.65,23.06,5.52,34.49,3.36-.43,5.95-1.06,8.54-1.05,9.7,.06,17.02-4.39,21.53-12.52,3.33-6.01,5.18-12.84,7.82-19.25,.82-1.99,2.08-3.81,3.13-5.7,3.07-.98,5.54-.12,7.81,2.16,1.75,1.76,3.76,3.3,5.79,4.75,13.55,9.62,28.98,13.93,45.29,15.13,23.28,1.71,45.04-2.5,63.88-17.44,11.74-9.31,22.34-19.73,30.86-32.03,4.22-6.11,7.57-12.87,10.84-19.56,1.46-2.99,3.28-7.1-.17-9.65-3.34-2.47-6.9,.25-9.44,2.4-5.61,4.74-10.9,9.88-16.1,15.07-3.13,3.12-5.76,4.12-8.45,2.21-3.12-2.23-2.7-4.99-1.56-8.3,1.87-5.39,3.53-10.92,4.52-16.52,.89-5.01-1.42-7.14-6.43-6.41-2.61,.38-5.07,1.78-7.6,2.71l-.96,.63s-.01-.02-.01-.02c-8.18,5.3-12.8,13.25-16.35,21.99-2.64,3.72-5.15,4.84-8.03,3.36-3.42-1.76-3.27-4.63-2.8-8.02,.76-5.5,1.07-11.09,1.09-16.65,0-1.33-1.89-2.67-2.92-4-2.66,1.41-5.95,2.24-7.86,4.33-5.53,6.07-10.58,12.59-15.68,19.04-5.36,6.79-11.09,13.14-18.57,17.69-.36,.09-.74,.14-1.08,.28-4.51,1.83-7.53,1.2-9.05-1.89-1.61-3.28-.11-6.02,4.42-8.39,7.29-3.81,11.88-10.29,16.84-16.54-9.14-5.56-21.27-9.32-31.13-9.76-12.34-.54-22.4,5.26-27.39,15.81-3.62,4.71-4.74,4.95-10.44,2.84-2.57-.95-5.21-1.86-7.9-2.29-9.2-1.48-17.49-.25-23.12,8.36-1.83,2.8-4.52,3.32-7.58,2.1-3.45-3.25-3.78-5.33-1.22-9.06,8.15-11.91,19.91-14.49,33.29-12.59,2.82,.4,5.57,1.25,8.35,1.89,.2-.13,.47-.22,.6-.41,11.48-16.86,29.12-21.15,50.16-15.73,4.08,1.05,8.08,2.55,11.99,4.13,3.8,1.53,7.44,3.43,11.57,5.36,5.2-6.75,11.02-13.14,19.3-16.58h7.51c5.79,2.09,9.6,6.05,11.11,13,5.25-6.9,12.1-9.94,18.93-13h9.76c8.9,2.6,12.83,8.75,12.56,18.32,2.21-1.41,3.91-2.95,5.9-3.67,4.16-1.5,8.48-3.62,12.73-3.61,9.66,.03,15.61,9.11,13.53,19.54-2.17,10.93-8.06,20.06-14.46,28.85-3.45,4.74-7.51,9.03-11.03,13.72-1.06,1.41-1.84,3.53-1.72,5.26,.82,12.08,1.92,24.14,2.89,36.21,.13,1.67,.23,2.79,2.36,3.51,11.55,3.9,18.12,13,17.99,24.35-.13,11.16-6.89,20.03-18.21,23.89-.45,.15-.91,.27-.86,.26-1.19,9.32-2.33,18.3-3.5,27.5,6.96-1.51,14.54-3.43,22.22-4.74,5.22-.89,10.74-1.92,15.85-1.11,10.49,1.67,17.62,10.77,18.03,21.43,.13,3.36,.02,6.74,.02,10.66,1.38,0,2.58-.04,3.77,0,11.04,.44,19.66,7.91,20.78,18.84,.65,6.3,.64,12.78,0,19.08-1.08,10.71-9.48,18.16-20.4,18.93-1.24,.09-2.49,.01-4.13,.01,0,9.38,.01,18.59,0,27.81,0,4.99-.92,6.19-5.77,7.77-4.09-.91-5.63-3.46-5.55-7.61,.17-9,0-18,.1-27,.02-1.99-.59-3.05-2.32-4.13-6.87-4.28-10.48-10.51-10.44-18.71,.02-4.62-.02-9.25,0-13.87,.04-6.52,2.31-12.54,7.7-15.89,4.88-3.04,5.44-6.74,5.03-11.48-.08-.87,0-1.75-.01-2.62-.12-9.03-6.36-14.09-15.13-12.21-32,6.87-63.98,13.83-96,20.58-3.29,.69-4.01,2.08-4,5.2,.1,47.37,.07,94.74,.07,142.11,0,1.3,0,2.6,0,3.86,.84,.06,1.1,.13,1.34,.08,32.72-7.09,65.4-14.36,98.18-21.18,11.42-2.37,16.3-4.71,15.6-19.1-.22-4.52,1.06-5.88,5.49-7.09,4.39,1.07,5.71,2.59,5.72,6.91,0,3.24,.21,6.54-.34,9.7-1.77,10.04-7.62,16.74-17.66,18.98-27.36,6.11-54.79,11.94-82.18,17.93-9.91,2.17-19.79,4.48-29.69,6.73h-35.3ZM21.27,231.79c-5.63,.35-9.43,4.01-9.65,9.69-.19,4.83-.18,9.67,0,14.5,.21,5.43,3.65,8.97,8.91,9.58,2.22,.14,4.45,.48,6.66,.39,6.66-.27,10.5-4.31,10.57-11.02,.05-4.24,.07-8.48,0-12.72-.11-6.44-4.05-10.4-10.52-10.61-1.98-.06-3.98,.12-5.96,.19Zm294.74,0c-5.56,.33-9.45,3.89-9.68,9.3-.21,5.09-.2,10.21,0,15.3,.2,5.14,3.76,8.61,8.95,9.19,2.34,.13,4.69,.49,7.01,.35,6.21-.38,10.01-4.4,10.16-10.63,.1-4.47,.13-8.96-.01-13.43-.19-6.02-4.13-9.97-10.1-10.24-2.1-.09-4.21,.1-6.32,.16ZM127.05,100.45c-2.65-1.74-5.3-3.48-8.08-5.31-1.15,2.83-2.07,5.41-3.23,7.89-5.61,12.05-13.61,21.45-27.3,24.61-.79,.18-1.75,1.93-1.75,2.94,.12,16.11,.04,32.24,.81,48.32,.25,5.31,2.66,10.55,4.35,15.73,.34,1.04,1.78,2.17,2.91,2.42,11.44,2.55,22.91,4.92,34.38,7.34,16.1,4.06,32.25,7.71,49.06,6.35,3.22-.26,6.56,.21,9.69-.43,19.28-4.01,38.52-8.19,57.73-12.49,1.41-.32,3.21-1.74,3.66-3.05,1.78-5.27,4.06-10.62,4.44-16.06,1.92-27.2,1.16-54.4-.93-81.57-.28-3.65-.75-7.29-1.13-10.89-.58,0-.75-.05-.83,0-.78,.62-1.57,1.22-2.31,1.89-19.04,17.22-41.61,25.01-67.06,25.12-19.16,.08-37.35-3.94-54.4-12.8Zm23.96,270.84c0-1.73,0-2.96,0-4.19,0-47.37-.03-94.75,.08-142.12,0-3.23-.91-4.47-4.08-5.15-32.09-6.8-64.14-13.77-96.21-20.66-7.87-1.69-14.28,3.25-14.63,11.28-.12,2.87,.1,5.76-.07,8.62-.13,2.15,.67,3.31,2.51,4.46,7.14,4.49,10.59,11.13,10.22,19.8-.15,3.5-.2,7.01-.01,10.5,.48,8.98-3.24,15.57-10.41,20.42-1.09,.74-2.16,2.44-2.17,3.7-.13,19.5-.14,39-.06,58.5,.03,6.59,3.86,10.89,10.39,12.29,13.53,2.91,27.06,5.86,40.59,8.78,21.08,4.55,42.16,9.09,63.86,13.77Zm30,.71V222h-19v150h19Zm85-242.53v25.35c5.16-2.91,7.88-6.72,8.04-12.17,.18-5.92-2.53-10.14-8.04-13.19Zm-191,25.27v-25.2c-5.27,2.92-7.98,6.98-8,12.57-.01,5.6,2.68,9.66,8,12.62Z"/><path class="cls-18" d="M313.32,312.78l.11,10.97c-4.41,1.21-5.69,2.57-5.47,7.09,.7,14.38-4.18,16.72-15.58,19.1-32.73,6.81-65.36,14.09-98.03,21.18-.23,.05-.49-.03-1.33-.08,0-1.26,0-2.56,0-3.86,0-47.37,.03-94.74-.07-142.11,0-3.12,.71-4.5,4-5.2,31.97-6.75,63.91-13.71,95.86-20.58,8.76-1.88,14.99,3.18,15.11,12.21,.01,.87-.06,1.76,.01,2.62,.41,4.74-.14,8.44-5.02,11.48-5.38,3.36-7.65,9.37-7.69,15.89-.03,4.62,0,9.25,0,13.87-.03,8.2,3.57,14.43,10.43,18.71,1.74,1.08,2.34,2.14,2.32,4.13-.1,9,.08,18-.1,27-.08,4.12,1.44,6.66,5.46,7.59Zm-26.41-78.23c-.82,.12-1.95,.23-3.04,.47-13.75,2.97-27.51,5.94-41.25,8.94-6.33,1.38-12.67,2.69-18.95,4.27-3.17,.8-4.74,3.76-4,6.6,.8,3.02,3.27,4.62,6.53,4.19,.99-.13,1.97-.31,2.95-.52,12.54-2.7,25.07-5.4,37.61-8.12,7.18-1.56,14.37-3.07,21.51-4.79,3.57-.86,5.18-3.38,4.54-6.6-.6-3-2.58-4.41-5.9-4.43Zm-60.97,45.38c.72-.13,1.95-.33,3.17-.59,6.21-1.34,12.41-2.71,18.62-4.04,13.14-2.83,26.31-5.55,39.41-8.57,1.95-.45,4.21-1.94,5.17-3.62,.76-1.33,.41-4.33-.64-5.41-1.3-1.33-4.02-2.3-5.84-1.95-12.35,2.38-24.62,5.14-36.91,7.78-8.04,1.73-16.08,3.41-24.1,5.2-3.55,.79-5.61,3.32-5.33,6.2,.29,2.96,2.77,5.05,6.46,5Z"/><path class="cls-13" d="M112.91,79.6c-1.05,1.9-2.31,3.71-3.13,5.7-2.64,6.41-4.48,13.23-7.81,19.25-4.5,8.13-11.81,12.58-21.49,12.52-2.58-.01-5.17,.62-8.53,1.05-1.87-11.43-4.13-22.91-5.51-34.49-.9-7.51-.71-15.17-.64-22.76,.03-3.79-1.18-6.24-4.85-7.33,.91-3.52,1.83-7.03,2.74-10.54,3.06,1.22,5.74,.71,7.57-2.1,5.62-8.62,13.9-9.84,23.08-8.36,2.68,.43,5.32,1.34,7.89,2.29,5.7,2.11,6.81,1.87,10.43-2.84-.24,1.33-.36,2.7-.74,3.99-3.65,12.47-5.22,25.07-2.03,37.87,.51,2.04,1.99,3.84,3.02,5.75Z"/><path class="cls-8" d="M151.02,371.29c-21.71-4.68-42.79-9.22-63.86-13.77-13.53-2.92-27.05-5.88-40.59-8.78-6.53-1.4-10.36-5.7-10.39-12.29-.08-19.5-.07-39,.06-58.5,0-1.26,1.08-2.96,2.17-3.7,7.17-4.85,10.89-11.43,10.41-20.42-.19-3.5-.14-7,.01-10.5,.37-8.66-3.08-15.31-10.22-19.8-1.83-1.15-2.64-2.31-2.51-4.46,.17-2.86-.06-5.75,.07-8.62,.35-8.03,6.76-12.97,14.63-11.28,32.07,6.9,64.12,13.86,96.21,20.66,3.17,.67,4.09,1.92,4.08,5.15-.11,47.37-.08,94.75-.08,142.12,0,1.23,0,2.46,0,4.19Z"/><path class="cls-14" d="M127.05,100.45c17.05,8.86,35.24,12.88,54.4,12.8,25.45-.11,48.02-7.9,67.06-25.12,.74-.67,1.53-1.27,2.31-1.89,.08-.06,.24,0,.83,0,.38,3.6,.85,7.24,1.13,10.89,2.1,27.17,2.86,54.38,.93,81.57-.39,5.44-2.66,10.8-4.44,16.06-.44,1.31-2.24,2.73-3.66,3.05-19.21,4.3-38.45,8.49-57.73,12.49-3.12,.65-6.46,.17-9.69,.43-16.81,1.36-32.96-2.29-49.06-6.35-1.02-6.45-2.49-12.87-2.95-19.37-.61-8.53-.45-17.12-.56-25.69,0-.39,.51-.79,.79-1.19,4.7,.87,7.37-.37,9.27-4.67,2.11-4.78,2.14-9.65-.29-14.36-2.12-4.12-4.6-5.18-9.14-4.1-.25-.67-.71-1.34-.71-2.01-.04-8.6-.12-17.2,.06-25.8,.05-2.26,.95-4.5,1.45-6.76Zm43.35,96.19c10.23-.48,17.9-4.82,22.89-13.59,2.05-3.6,1.38-6.71-1.61-8.46-2.92-1.71-5.93-.67-8.14,2.82-6.73,10.6-19.14,10.59-25.84-.02-2.2-3.49-5.2-4.52-8.16-2.8-2.88,1.67-3.58,4.94-1.58,8.47,4.98,8.78,12.68,13.06,22.44,13.58Zm50.55-49.9c-1.16-3.23-1.77-6.37-3.33-8.92-2.76-4.49-7.59-4.44-10.81-.31-3.67,4.73-3.6,13.65,.15,18.25,3.09,3.8,7.69,3.97,10.36-.11,1.7-2.6,2.42-5.83,3.63-8.92Z"/><path class="cls-1" d="M112.91,79.6c-1.03-1.91-2.51-3.71-3.02-5.75-3.2-12.8-1.62-25.4,2.03-37.87,.38-1.29,.5-2.66,.74-3.99,4.98-10.54,15.03-16.35,27.35-15.81,9.85,.43,21.96,4.19,31.09,9.76-4.95,6.25-9.53,12.73-16.81,16.54-4.53,2.37-6.02,5.12-4.42,8.39,1.52,3.09,4.54,3.72,9.04,1.89,.34-.14,.72-.19,1.08-.28,13.07,1.23,22.83-4.01,29.06-15.41,4.59-8.41,8.68-17.1,12.99-25.66,1.02,1.33,2.92,2.67,2.91,4-.02,5.56-.33,11.15-1.08,16.65-.47,3.39-.61,6.26,2.8,8.02,2.87,1.48,5.38,.36,8.01-3.36,5.33,.02,7.27-1.38,9.29-6.18,2.24-5.31,4.68-10.54,7.03-15.81,0,0,.01,.02,.02,.02,.32-.21,.64-.42,.96-.63,2.53-.94,4.99-2.33,7.59-2.71,5-.73,7.3,1.4,6.42,6.41-.99,5.6-2.65,11.13-4.51,16.52-1.15,3.31-1.57,6.08,1.55,8.3,2.68,1.91,5.31,.91,8.43-2.21,5.2-5.19,10.48-10.33,16.08-15.07,2.54-2.14,6.08-4.87,9.42-2.4,3.44,2.54,1.63,6.65,.17,9.65-3.27,6.69-6.61,13.45-10.82,19.56-8.5,12.3-19.09,22.72-30.81,32.03-18.81,14.94-40.53,19.15-63.78,17.44-16.29-1.2-31.69-5.51-45.22-15.13-2.03-1.44-4.03-2.99-5.78-4.75-2.26-2.27-4.73-3.13-7.8-2.16Z"/><path class="cls-15" d="M127.05,100.45c-.51,2.25-1.41,4.49-1.45,6.76-.18,8.6-.1,17.2-.06,25.8,0,.67,.46,1.34,.71,2.01-7.24,6.51-7.17,16.79,.16,23.13-.27,.4-.79,.8-.79,1.19,.11,8.57-.05,17.16,.56,25.69,.46,6.49,1.93,12.91,2.95,19.37-11.46-2.42-22.94-4.79-34.38-7.34-1.12-.25-2.57-1.39-2.91-2.42-1.69-5.18-4.1-10.42-4.35-15.73-.77-16.08-.69-32.21-.81-48.32,0-1.01,.95-2.76,1.75-2.94,13.7-3.16,21.69-12.56,27.3-24.61,1.15-2.47,2.08-5.06,3.23-7.89,2.78,1.83,5.43,3.57,8.08,5.31Z"/><path class="cls-2" d="M181.02,372h-19V222h19v150Z"/><path class="cls-16" d="M316.02,231.79c2.11-.06,4.22-.25,6.32-.16,5.97,.27,9.91,4.22,10.1,10.24,.14,4.47,.12,8.95,.01,13.43-.14,6.24-3.95,10.26-10.16,10.63-2.32,.14-4.67-.22-7.01-.35-.76-2.22-1.96-4.39-2.19-6.66-.53-5.06-1.12-10.21-.64-15.23,.39-4.05,2.32-7.94,3.57-11.9Z"/><path class="cls-14" d="M21.27,231.79c1.99-.07,3.98-.25,5.96-.19,6.48,.21,10.41,4.18,10.52,10.61,.07,4.24,.05,8.48,0,12.72-.08,6.7-3.91,10.75-10.57,11.02-2.21,.09-4.44-.25-6.66-.39-.76-3.45-1.84-6.87-2.2-10.36-.38-3.8,.08-7.68-.13-11.5-.23-4.34,.4-8.36,3.07-11.9Z"/><path class="cls-9" d="M202.02,11.4c-4.31,8.56-8.39,17.25-12.99,25.66-6.23,11.4-15.99,16.65-29.06,15.41,7.47-4.55,13.19-10.91,18.54-17.69,5.09-6.45,10.13-12.97,15.66-19.04,1.9-2.09,5.19-2.93,7.85-4.33Z"/><path class="cls-17" d="M21.27,231.79c-2.67,3.54-3.3,7.56-3.07,11.9,.21,3.83-.25,7.7,.13,11.5,.35,3.49,1.43,6.91,2.2,10.36-5.26-.61-8.7-4.15-8.91-9.58-.18-4.83-.19-9.67,0-14.5,.22-5.68,4.02-9.34,9.65-9.69Z"/><path class="cls-3" d="M316.02,231.79c-1.25,3.96-3.18,7.86-3.57,11.9-.48,5.02,.11,10.17,.64,15.23,.24,2.27,1.43,4.44,2.19,6.66-5.18-.58-8.74-4.05-8.95-9.19-.2-5.09-.21-10.21,0-15.3,.23-5.41,4.12-8.97,9.68-9.3Z"/><path class="cls-12" d="M266.02,129.47c5.5,3.05,8.22,7.27,8.04,13.19-.16,5.44-2.88,9.25-8.04,12.17v-25.35Z"/><path class="cls-10" d="M75.02,154.74c-5.32-2.96-8.01-7.03-8-12.62,.01-5.6,2.73-9.65,8-12.57v25.2Z"/><path class="cls-5" d="M230.99,14.72c-2.35,5.27-4.79,10.5-7.03,15.81-2.03,4.8-3.97,6.19-9.29,6.18,3.55-8.74,8.16-16.68,16.33-21.99Z"/><path class="cls-5" d="M231.96,14.11c-.32,.21-.64,.42-.96,.63,.32-.21,.64-.42,.96-.63Z"/><path class="cls-7" d="M286.91,234.55c3.32,.02,5.3,1.43,5.9,4.43,.65,3.23-.96,5.75-4.54,6.6-7.14,1.71-14.33,3.23-21.51,4.79-12.53,2.72-25.07,5.42-37.61,8.12-.97,.21-1.96,.39-2.95,.52-3.26,.43-5.74-1.17-6.53-4.19-.75-2.84,.83-5.8,4-6.6,6.28-1.58,12.62-2.89,18.95-4.27,13.75-3,27.5-5.97,41.25-8.94,1.09-.24,2.21-.34,3.04-.47Z"/><path class="cls-7" d="M225.94,279.93c-3.69,.04-6.17-2.05-6.46-5-.28-2.88,1.78-5.41,5.33-6.2,8.02-1.79,16.07-3.47,24.1-5.2,12.3-2.64,24.57-5.4,36.91-7.78,1.82-.35,4.53,.62,5.84,1.95,1.06,1.08,1.41,4.08,.64,5.41-.95,1.67-3.21,3.17-5.17,3.62-13.1,3.02-26.27,5.74-39.41,8.57-6.21,1.34-12.41,2.7-18.62,4.04-1.22,.26-2.45,.46-3.17,.59Z"/><path class="cls-11" d="M170.41,196.64c-9.75-.52-17.46-4.8-22.44-13.58-2-3.53-1.3-6.79,1.58-8.47,2.95-1.72,5.95-.68,8.16,2.8,6.7,10.61,19.11,10.62,25.84,.02,2.22-3.49,5.23-4.53,8.14-2.82,2.98,1.75,3.66,4.86,1.61,8.46-4.99,8.77-12.66,13.1-22.89,13.59Z"/><path class="cls-4" d="M126.42,158.15c-7.33-6.33-7.4-16.61-.16-23.13,4.53-1.08,7.02-.02,9.14,4.1,2.43,4.71,2.4,9.58,.29,14.36-1.9,4.3-4.57,5.53-9.27,4.67Z"/><path class="cls-11" d="M220.96,146.74c-1.21,3.09-1.93,6.32-3.63,8.92-2.67,4.07-7.27,3.91-10.36,.11-3.74-4.61-3.82-13.53-.15-18.25,3.21-4.14,8.05-4.18,10.81,.31,1.57,2.55,2.17,5.69,3.33,8.92Z"/></svg>