<?xml version="1.0" encoding="UTF-8"?><svg id="Layer_1" xmlns="http://www.w3.org/2000/svg" viewBox="0 0 47.93 47.93"><defs><style>.cls-1{fill:#e4ebf1;}.cls-2{fill:#d32032;}.cls-3{fill:#138ce1;}.cls-4{fill:#fed57d;}.cls-5{fill:#0c6bc2;}.cls-6{fill:#fefdfd;}.cls-7{fill:#f89945;}.cls-8{fill:#e82a3b;}.cls-9{fill:#fefcfc;}.cls-10{fill:#4bb4fd;}.cls-11{fill:#d42335;}.cls-12{fill:#e8ebee;}.cls-13{fill:#e7ebf0;}.cls-14{fill:#fd6459;}.cls-15{fill:#f89944;}.cls-16{fill:#fefdfc;}.cls-17{fill:#f9ba53;}.cls-18{fill:#108be0;}.cls-19{fill:#e7ebee;}.cls-20{fill:#0e6cc3;}.cls-21{fill:#f9bb54;}.cls-22{fill:#fcfdfe;}</style></defs><path class="cls-2" d="M15.83,23.9c-2.21-.39-3.79-2.17-3.85-4.51-.07-2.4-.02-4.8-.01-7.2,0-.05,.02-.09,.04-.14,1.23,0,2.47,0,3.7,0,0,2.35,.01,4.7,.02,7.06,0,.82,.34,1.18,1.17,1.18,4.72,0,9.44,0,14.16,0,.83,0,1.17-.35,1.17-1.18,0-2.35,.01-4.7,.02-7.06h3.7c.01,.57,.04,1.13,.04,1.69,0,1.62-.05,3.24,.01,4.86,.11,2.69-1.25,4.76-3.94,5.37-.25,0-.49,.01-.74,.02-1.16,.02-2.32,.05-3.48,.07-.07-.02-.15-.07-.22-.07-2.57,0-5.13,0-7.7,.02-.35,0-.69-.01-1.04-.02-1.02-.02-2.04-.04-3.06-.07Z"/><path class="cls-5" d="M47.9,36c0,2.55,.05,5.1,0,7.65-.04,2.23-2.15,4.26-4.38,4.27-5.05,.02-10.1,.02-15.15,0-1.99,0-3.87-1.61-4.31-3.62-.02-.11-.07-.22-.1-.33,0-2.66-.01-5.32-.02-7.98,0,0,.03,0,.03,0,1.22,0,2.44,0,3.66,0,0,2.29,.01,4.57,.02,6.86,0,1.06,.33,1.38,1.4,1.38,4.59,0,9.18,0,13.76,0,1.09,0,1.4-.32,1.4-1.43,0-2.27,.01-4.54,.02-6.81h3.66Z"/><path class="cls-15" d="M23.95,36c0,2.66,.01,5.32,.02,7.98-.26,1.04-.68,2-1.5,2.73-.87,.78-1.88,1.22-3.06,1.22-4.95,0-9.9,0-14.85,0-2.44,0-4.54-2.09-4.55-4.52,0-2.47,0-4.93,.01-7.4,1.22,0,2.44,0,3.66,0,0,2.29,0,4.57,.01,6.86,0,1.04,.34,1.38,1.36,1.38,4.62,0,9.24,0,13.86,0,1.02,0,1.35-.34,1.35-1.38,0-2.29,0-4.57,.01-6.86,1.22,0,2.44,0,3.66,0Z"/><path class="cls-8" d="M15.7,12.03c-1.23,0-2.47,0-3.7,0,0-2.58-.05-5.17,.04-7.75C12.11,1.99,14.1,.05,16.41,.03c5.04-.04,10.07-.04,15.11,0,2.31,.02,4.3,1.95,4.38,4.26,.08,2.58,.03,5.17,.04,7.75-1.23,0-2.47,0-3.7,0h-.04c0-2.31,.01-4.62,.02-6.94,0-1.11-.26-1.37-1.37-1.37-4.58,0-9.17,0-13.75,0-.18,0-.36,0-.54,.03-.53,.09-.83,.41-.83,.94,0,2.45,0,4.9,.01,7.35h-.04ZM20.7,2.5c1.03,0,2.05,0,3.08,0,.57,0,.98-.39,.97-.9,0-.51-.42-.89-.99-.89-2.02,0-4.04,0-6.06,0-.58,0-.99,.37-1,.88,0,.53,.41,.91,1.01,.91,.99,0,1.99,0,2.98,0Z"/><path class="cls-17" d="M3.69,36c-1.22,0-2.44,0-3.66,0,0-2.55-.06-5.1,0-7.65,.06-2.4,2.12-4.36,4.54-4.38,3.56-.02,7.12,0,10.67-.01,.19,0,.39-.04,.58-.06,1.02,.02,2.04,.05,3.06,.07,.35,0,.69,.01,1.04,.02,1.13,.21,2.11,.69,2.89,1.56,.64,.72,.96,1.59,1.16,2.52,0,2.65,.01,5.29,.02,7.94,0,0-.03,0-.03,0-1.22,0-2.44,0-3.66,0-.02,0-.03,0-.05,0,0-2.35,.02-4.7,.02-7.05,0-.94-.34-1.28-1.29-1.28-4.65,0-9.3,0-13.95,0-.94,0-1.29,.34-1.3,1.28,0,2.05,0,4.11,0,6.16,0,.3,.02,.59,.03,.89-.02,0-.04,0-.06,0Zm4.56-9.45c.98,0,1.95,0,2.93,0,.68,0,1.12-.36,1.15-.91,.02-.49-.5-.97-1.11-.97-1.97,0-3.94-.01-5.91,0-.67,0-1.03,.38-1.02,1.01,0,.54,.4,.87,1.04,.87,.98,0,1.95,0,2.93,0Z"/><path class="cls-18" d="M23.98,36c0-2.65-.01-5.29-.02-7.94,.02-.06,.06-.12,.07-.18,.4-2.07,1.75-3.43,3.8-3.84,1.16-.02,2.32-.05,3.48-.07,.25,0,.49-.01,.74-.02,3.72,0,7.44,0,11.17,.02,2.21,0,4.01,1.4,4.55,3.51,.07,.29,.14,.58,.14,.88,0,2.55,0,5.1,0,7.64-1.22,0-2.44,0-3.66,0-.02,0-.04,0-.06,0,0-2.43,.03-4.86,.01-7.3,0-.71-.37-1.02-1.12-1.02-1.37-.01-2.75,0-4.12,0-3.34,0-6.69,0-10.03,0-.85,0-1.23,.31-1.23,1.07-.01,2.42,0,4.83,.01,7.25-.02,0-.03,0-.05,0-1.22,0-2.44,0-3.66,0Zm8.72-9.45c.98,0,1.95,0,2.93,0,.61,0,1.13-.43,1.14-.93,0-.5-.51-.94-1.13-.94-1.95,0-3.9,0-5.85,0-.62,0-1.14,.45-1.13,.95,0,.56,.44,.93,1.13,.93,.98,0,1.95,0,2.93,0Z"/><path class="cls-13" d="M32.23,12.03c0,2.35-.01,4.7-.02,7.06,0,.83-.34,1.18-1.17,1.18-4.72,0-9.44,0-14.16,0-.83,0-1.17-.36-1.17-1.18,0-2.35-.01-4.7-.02-7.06,0,0,.04,0,.04,0,1.45,0,2.9,0,4.35,0,0,.26,.01,.53,.01,.79,0,1.28,0,2.55,0,3.83,0,.65,.45,1.12,1.02,1.13,.58,.01,1.04-.48,1.05-1.15,0-.28,0-.56,0-.84,0-.65,0-1.31,0-1.95h3.59c0,.93,0,1.84,0,2.74,0,.44,.13,.82,.53,1.05,.74,.42,1.53-.09,1.54-1.02,.01-1.52,.01-3.05,.02-4.57,1.45,0,2.9,0,4.35,0h.04Z"/><path class="cls-1" d="M44.24,36c0,2.27-.01,4.54-.02,6.81,0,1.11-.31,1.43-1.4,1.43-4.59,0-9.18,0-13.76,0-1.07,0-1.4-.32-1.4-1.38,0-2.29-.01-4.57-.02-6.86,.02,0,.03,0,.05,0,1.3,0,2.61,0,3.91-.01,.05,.44,.06,.9,.16,1.33,.94,3.94,5.34,4.59,8.13,2.77,.4-.26,.49-.78,.27-1.2-.23-.43-.71-.61-1.18-.43-.31,.12-.6,.29-.91,.38-2.26,.69-4.43-.3-4.38-2.83h10.49s.04,0,.06,0Z"/><path class="cls-12" d="M20.29,36c0,2.29,0,4.57-.01,6.86,0,1.04-.34,1.38-1.35,1.38-4.62,0-9.24,0-13.86,0-1.02,0-1.35-.34-1.36-1.38,0-2.29,0-4.57-.01-6.86,.02,0,.04,0,.06,0,1.46,0,2.93,0,4.4-.01,0,1.35,.05,2.71,0,4.06-.04,1.15,.61,1.39,1.41,1.39,.91,0,1.82,.02,2.73-.01,.49-.02,1-.08,1.45-.24,1.94-.7,2.89-3.22,1.29-5.19,1.74,0,3.48,0,5.22,0,.02,0,.04,0,.05,0Z"/><path class="cls-9" d="M32.2,12.04c-1.45,0-2.9,0-4.35,0-.01-.64-.02-1.29-.04-1.93-.06-2.2-1.64-3.82-3.77-3.88-2.07-.06-3.74,1.51-3.9,3.68-.05,.71-.04,1.42-.06,2.13-1.45,0-2.9,0-4.35,0,0-2.45-.02-4.9-.01-7.35,0-.53,.3-.85,.83-.94,.18-.03,.36-.03,.54-.03,4.58,0,9.17,0,13.75,0,1.11,0,1.38,.26,1.37,1.37,0,2.32-.01,4.63-.02,6.95Z"/><path class="cls-14" d="M20.7,2.5c-.99,0-1.99,0-2.98,0-.61,0-1.02-.39-1.01-.91,0-.51,.42-.88,1-.88,2.02,0,4.04,0,6.06,0,.57,0,.98,.38,.99,.89,0,.51-.4,.9-.97,.9-1.03,0-2.05,0-3.08,0Z"/><path class="cls-16" d="M8.14,35.99c-1.47,0-2.93,0-4.4,.01-.01-.3-.03-.59-.03-.89,0-2.05,0-4.11,0-6.16,0-.95,.35-1.28,1.3-1.28,4.65,0,9.3,0,13.95,0,.95,0,1.29,.34,1.29,1.28,0,2.35-.02,4.7-.02,7.05-1.74,0-3.48,0-5.22,0h-.03c.12-.2,.24-.42,.36-.63,1.28-2.14-.19-4.81-2.69-4.85-1.14-.02-2.28-.01-3.42,0-.7,0-1.07,.37-1.07,1.08,0,1.47,0,2.94,0,4.41h-.03Z"/><path class="cls-4" d="M8.25,26.55c-.98,0-1.95,0-2.93,0-.64,0-1.03-.34-1.04-.87,0-.63,.35-1,1.02-1.01,1.97-.01,3.94-.01,5.91,0,.61,0,1.14,.48,1.11,.97-.02,.55-.47,.91-1.15,.91-.98,0-1.95,0-2.93,0Z"/><path class="cls-22" d="M31.61,35.99c-1.3,0-2.61,0-3.91,.01,0-2.42-.02-4.83-.01-7.25,0-.76,.39-1.07,1.23-1.07,3.34,0,6.69,0,10.03,0,1.37,0,2.75,0,4.12,0,.75,0,1.12,.31,1.12,1.02,.02,2.43,0,4.86-.01,7.3-3.5,0-6.99,0-10.49,0-.02,0-.04-.01-.06-.02,.02-.18,.04-.36,.06-.54,.17-1.47,.98-2.32,2.45-2.57,.91-.16,1.77,.05,2.6,.44,.66,.31,1.19,.16,1.44-.35,.25-.52,.02-1.01-.64-1.35-.23-.12-.47-.24-.72-.34-3.47-1.31-7.23,.53-7.18,4.73h-.03Z"/><path class="cls-10" d="M32.7,26.55c-.98,0-1.95,0-2.93,0-.68,0-1.12-.37-1.13-.93,0-.5,.51-.94,1.13-.95,1.95,0,3.9,0,5.85,0,.63,0,1.14,.45,1.13,.94,0,.5-.53,.93-1.14,.93-.98,0-1.95,0-2.93,0Z"/><path class="cls-11" d="M20.09,12.04c.02-.71,0-1.42,.06-2.13,.16-2.18,1.83-3.74,3.9-3.68,2.13,.06,3.71,1.68,3.77,3.88,.02,.64,.02,1.29,.04,1.93,0,1.52,0,3.05-.02,4.57,0,.93-.79,1.44-1.54,1.02-.41-.23-.53-.6-.53-1.05,0-.91,0-1.81,0-2.74h-3.59c0,.64,0,1.3,0,1.95,0,.28,0,.56,0,.84-.01,.67-.46,1.16-1.05,1.15-.57-.01-1.02-.48-1.02-1.13-.01-1.28,0-2.55,0-3.83,0-.26,0-.53-.01-.79Zm5.69-.29c0-.63,.02-1.23,0-1.82-.04-.86-.72-1.58-1.55-1.67-.94-.1-1.84,.43-1.98,1.33-.11,.7-.02,1.43-.02,2.16h3.56Z"/><path class="cls-20" d="M33.62,35.99s.04,.01,.06,.02c-.05,2.53,2.12,3.53,4.38,2.83,.31-.1,.6-.27,.91-.38,.48-.18,.96,0,1.18,.43,.22,.41,.13,.93-.27,1.2-2.79,1.82-7.19,1.17-8.13-2.77-.1-.43-.11-.88-.16-1.33,0,0,.03,.01,.03,.01,.66,0,1.33,0,1.99-.01Z"/><path class="cls-7" d="M15.02,36c1.6,1.98,.65,4.49-1.29,5.19-.45,.16-.96,.22-1.45,.24-.91,.04-1.82,0-2.73,.01-.8,0-1.46-.24-1.41-1.39,.05-1.35,0-2.71,0-4.06,0,0,.03,.01,.03,.01,2.27,0,4.54,0,6.82,0h.03Zm-4.83,3.37c.86,0,1.67,.02,2.48,0,.62-.02,1.09-.55,1.13-1.17,.03-.52-.41-1.15-.93-1.18-.88-.05-1.77-.01-2.67-.01v2.37Z"/><path class="cls-21" d="M14.99,36.01c-2.27,0-4.54,0-6.82,0,0-1.47-.02-2.94,0-4.41,0-.7,.37-1.07,1.07-1.08,1.14,0,2.28-.02,3.42,0,2.5,.04,3.97,2.71,2.69,4.85-.13,.21-.24,.43-.36,.64Zm-4.8-3.48v2.39c.85,0,1.67,.02,2.49,0,.61-.02,1.12-.55,1.14-1.16,.02-.58-.44-1.18-1.02-1.21-.85-.05-1.71-.01-2.6-.01Z"/><path class="cls-3" d="M33.62,35.99c-.66,0-1.33,0-1.99,.01-.05-4.2,3.71-6.03,7.18-4.73,.25,.09,.48,.21,.72,.34,.65,.34,.88,.83,.64,1.35-.25,.52-.79,.66-1.44,.35-.83-.39-1.68-.59-2.6-.44-1.46,.25-2.27,1.1-2.45,2.57-.02,.18-.04,.36-.06,.54Z"/><path class="cls-6" d="M25.77,11.75h-3.56c0-.73-.09-1.46,.02-2.16,.15-.9,1.04-1.43,1.98-1.33,.83,.09,1.51,.81,1.55,1.67,.03,.59,0,1.18,0,1.82Z"/><path class="cls-19" d="M10.19,39.38v-2.37c.9,0,1.79-.04,2.67,.01,.52,.03,.96,.66,.93,1.18-.03,.62-.51,1.15-1.13,1.17-.81,.03-1.61,0-2.48,0Z"/><path class="cls-16" d="M10.18,32.52c.89,0,1.75-.04,2.6,.01,.58,.03,1.04,.64,1.02,1.21-.02,.61-.52,1.14-1.14,1.16-.82,.02-1.64,0-2.49,0v-2.39Z"/></svg>