<?xml version="1.0" encoding="UTF-8"?><svg id="Layer_1" xmlns="http://www.w3.org/2000/svg" viewBox="0 0 381.2 381.77"><defs><style>.cls-1{fill:#d9ddde;}.cls-2{fill:#5a7281;}.cls-3{fill:#fe8e85;}.cls-4{fill:#43b3e1;}.cls-5{fill:#f0786b;}.cls-6{fill:#5c7381;}.cls-7{fill:#445c6c;}.cls-8{fill:#5a7280;}.cls-9{fill:#455c6c;}.cls-10{fill:#fad784;}.cls-11{fill:#455d6c;}.cls-12{fill:#d75e56;}.cls-13{fill:#d75f56;}.cls-14{fill:#fd8f86;}</style></defs><path class="cls-5" d="M380.95,217.61c.02,30.5,.04,61.01,.05,91.51-18.05,.03-36.1,.06-54.15,.09-.88-.88-1.78-1.74-2.64-2.63-9.15-9.46-20.34-14.19-33.45-13.89-13.6,.31-24.58,6.34-33.51,16.39-48.53,.02-97.05,.05-145.58,.07-1.33-1.31-2.61-2.66-3.99-3.92-13.03-11.91-27.98-15.52-44.92-10.23-8.32,2.6-14.89,7.83-20.71,14.11-13.28-.04-26.57-.07-39.85-.11,.14-1.71,0-3.51,.48-5.13,2.28-7.77,4.73-15.49,7.11-23.23,3.43,.53,6.86,1.16,10.31,1.56,12.74,1.49,24.56-1.07,35.03-8.63,9.21-6.64,10.71-16.91,3.45-25.64-2.62-3.15-6.52-5.25-9.84-7.83,.82-.54,1.59-1.19,2.47-1.61,14.22-6.75,29.18-10.6,44.94-11.2,1.65-.06,3.49,.54,3.67-2.33,.94-14.49,4.09-28.5,9.36-42.05,6.17-15.86,14.99-30.11,26.37-42.68,13.54-14.97,29.5-26.69,48.1-34.82,14.74-6.44,30.13-10.44,46.08-11.5,16.45-1.1,32.77,.37,48.79,4.96,27.8,7.96,51.07,22.93,69.55,44.98,16.39,19.55,26.99,42.01,30.9,67.42,.33,2.16,1.31,4.21,1.99,6.31Zm-228.5-16.24h79.9c.17-.77,.31-1.12,.31-1.48-.02-26.21-.05-52.42-.08-78.62v-8.87c-4.44,.91-8.51,1.51-12.45,2.58-38.7,10.5-66.37,43.89-68.84,84.71-.03,.54,.75,1.13,1.16,1.69Zm183.24-.45c.45-.67,1.35-1.38,1.29-2.01-.36-3.96-.61-7.96-1.48-11.82-8.47-37.62-31.26-61.93-68.23-72.84-3.69-1.09-7.61-1.38-11.69-2.09v88.54c.8,.17,1.16,.31,1.52,.31,26.2-.02,52.39-.05,78.59-.08Zm-120.11,21.46v-.02c-2.15-.82-2.23-.85-4.37-1.68-1.64,1.9-3.31,1.65-4.97,1.68-4.88,.08-7.48,2.24-7.59,6.3-.11,4.07,2.79,6.94,7.44,7.14,3.23,.13,6.48,.09,9.71,.02,3.72-.08,7.5,.07,11.15-.51,3.91-.62,5.83-3.62,5.42-7.24-.39-3.44-2.81-5.56-6.7-5.66-3.36-.09-6.73-.02-10.09-.02Zm107,.36v-.02c-3.37,0-6.74-.06-10.12,.01-4.16,.09-6.59,2.21-6.89,5.86-.32,3.9,1.74,6.8,5.84,7.32,3.44,.43,6.97,.3,10.46,.25,4.1-.06,8.25,0,12.29-.59,3.25-.47,5.41-3.88,5.12-6.84-.31-3.19-3.16-5.86-6.59-5.96-3.37-.1-6.74-.02-10.11-.02Z"/><path class="cls-3" d="M380.95,217.61c-.68-2.1-1.66-4.16-1.99-6.31-3.91-25.42-14.51-47.87-30.9-67.42-18.48-22.05-41.75-37.02-69.55-44.98-16.02-4.59-32.34-6.06-48.79-4.96-15.95,1.06-31.34,5.06-46.08,11.5-18.59,8.13-34.56,19.85-48.1,34.82-11.37,12.58-20.2,26.82-26.37,42.68-5.27,13.55-8.42,27.56-9.36,42.05-.19,2.87-2.03,2.27-3.67,2.33-15.76,.6-30.71,4.45-44.94,11.2-.88,.42-1.65,1.07-2.47,1.61-4.83-1.56-9.66-3.12-14.49-4.68,10.91-9.42,23.73-15.15,37.55-18.47,9.01-2.16,18.3-3.22,26.91-4.67,2.03-10.1,3.35-20.64,6.31-30.68,13.07-44.24,41.48-74.8,83.99-92.4,13.94-5.77,28.62-8.28,43.54-9.74,7.5,.23,15.01,.46,22.51,.69,26.19,3.11,50.01,12.22,70.87,28.48,28.51,22.22,46.44,51.04,52.84,86.72,1.31,7.31,1.48,14.82,2.18,22.24Z"/><path class="cls-13" d="M111.67,309.16c48.53-.02,97.05-.05,145.58-.07-7.71,10.13-10.7,21.58-9.6,34.19-36.75,.03-73.5,.05-110.25,.08-5.5,0-11,.04-16.5,.06,.07-3.45,.37-6.91,.17-10.35-.53-8.96-4.35-16.69-9.4-23.91Z"/><path class="cls-11" d="M247.65,343.27c-1.1-12.6,1.88-24.06,9.6-34.19,8.93-10.05,19.91-16.08,33.51-16.39,13.11-.3,24.31,4.43,33.45,13.89,.86,.89,1.76,1.75,2.64,2.63,7.52,10.19,10.48,21.61,9.27,34.16-3.85,19.25-14.77,32.25-34.08,36.98-24.49,6-48.68-9.81-53.73-34.57-.17-.85-.44-1.67-.66-2.51Zm20.79-6.32c-.06,13.12,10.34,23.77,23.32,23.86,12.93,.09,23.72-10.5,23.89-23.44,.17-12.93-10.47-23.71-23.47-23.78-13.16-.07-23.68,10.28-23.74,23.36Z"/><path class="cls-9" d="M111.67,309.16c5.05,7.22,8.87,14.95,9.4,23.91,.2,3.43-.1,6.9-.17,10.35-3.81,21.69-19.61,36.26-41.44,38.2-18.91,1.68-38-11.05-44.6-29.86-.94-2.69-1.41-5.54-2.1-8.32-.02-3.95-.39-7.94,0-11.85,.82-8.37,4.49-15.68,9.29-22.47,5.83-6.29,12.39-11.52,20.71-14.11,16.94-5.29,31.89-1.68,44.92,10.23,1.37,1.26,2.66,2.61,3.99,3.92Zm-58.42,27.87c-.02,13.22,10.58,23.84,23.73,23.78,12.88-.06,23.53-10.81,23.5-23.71-.03-12.98-10.6-23.51-23.61-23.52-13.06-.01-23.59,10.44-23.61,23.45Z"/><path class="cls-4" d="M255.58,81.06c-7.67-.24-15.33-.47-23-.71,0-8.01,0-16.02,0-24.62-10.61,6.62-21.37,7.87-32.62,2.26-4.28-2.14-8.03-5.26-10.71-9.22-11.56-17.09-4.52-38.79,13.03-46.25,14.09-5.99,33.74-1.42,41.85,20.06,4.21-11.54,11.65-19.13,23.38-21.8,8.25-1.88,16.03-.28,23.07,4.25,13.81,8.88,18.11,27.11,9.94,41.12-7.32,12.56-25.24,21.51-44.94,9.59v25.32Zm-58.34-49.9c.04,9.58,7.92,17.47,17.43,17.46,9.53-.01,17.66-8.2,17.66-17.79,0-9.34-8.09-17.32-17.6-17.34-9.82-.02-17.53,7.76-17.49,17.66Zm93.18-.04c.05-9.71-7.53-17.52-17.11-17.63-9.96-.11-17.67,7.46-17.72,17.37-.05,9.85,7.76,17.78,17.46,17.75,9.55-.03,17.31-7.85,17.37-17.5Z"/><path class="cls-10" d="M34.25,235.45c4.83,1.56,9.66,3.12,14.49,4.68,3.32,2.58,7.21,4.67,9.84,7.83,7.26,8.73,5.75,18.99-3.45,25.64-10.47,7.56-22.29,10.12-35.03,8.63-3.45-.4-6.87-1.03-10.31-1.56-1.49-.53-2.98-1.05-4.47-1.58,2.59-10.84,7.66-20.52,14.58-29.09,4.26-5.27,9.53-9.73,14.35-14.55Z"/><path class="cls-13" d="M336.12,343.37c1.22-12.56-1.75-23.98-9.27-34.16,18.05-.03,36.1-.06,54.15-.09,.45,7.79,.52,15.48-4.27,22.31-5.9,8.39-14.13,11.88-24.11,11.92-5.5,.02-11,.02-16.5,.03Z"/><path class="cls-12" d="M42.06,309.12c-4.79,6.79-8.46,14.1-9.29,22.47-.38,3.91-.02,7.9,0,11.85-4.08-.3-8.3-.03-12.2-1.01-11.42-2.89-18.26-10.38-20.39-22.05,.67-3.79,1.35-7.57,2.02-11.36,13.28,.04,26.57,.07,39.85,.11Z"/><path class="cls-14" d="M2.2,309.01c-.67,3.79-1.35,7.57-2.02,11.36-.71-14.06,.55-27.88,5.14-41.28,1.49,.52,2.98,1.05,4.47,1.58-2.39,7.74-4.83,15.46-7.11,23.23-.47,1.62-.34,3.41-.48,5.13Z"/><path class="cls-7" d="M335.69,200.92c-26.2,.03-52.39,.06-78.59,.08-.36,0-.71-.14-1.52-.31,0-26.59,0-53.23,0-79.87,11.64,.83,22.46,4.59,32.55,10.1,15.37,8.4,27.8,20.09,36.45,35.48,6.03,10.73,10.44,22.03,11.1,34.51Z"/><path class="cls-7" d="M232.44,121.26c.03,26.21,.06,52.42,.08,78.62,0,.36-.15,.71-.31,1.48-26.6,0-53.25,0-79.9,0,.03-1.37-.14-2.78,.11-4.11,3.52-19,11.98-35.52,25.44-49.36,8.96-9.22,19.55-16.36,31.55-20.85,7.37-2.76,15.34-3.91,23.04-5.78Z"/><path class="cls-2" d="M335.69,200.92c-.66-12.48-5.07-23.78-11.1-34.51-8.65-15.4-21.08-27.08-36.45-35.48-10.09-5.51-20.92-9.27-32.55-10.1,0-2.6,0-5.2,0-8.66,4.08,.71,8,1.01,11.69,2.09,36.97,10.91,59.76,35.22,68.23,72.84,.87,3.86,1.12,7.87,1.48,11.82,.06,.63-.84,1.34-1.29,2.01Z"/><path class="cls-8" d="M232.58,120.82c-7.7,1.87-15.67,3.02-23.04,5.78-11.99,4.49-22.58,11.63-31.55,20.85-13.46,13.84-21.92,30.36-25.44,49.36-.25,1.33-.08,2.74-.11,4.11-.4-.56-1.19-1.15-1.16-1.69,2.48-40.82,30.14-74.2,68.84-84.71,3.94-1.07,8.01-1.67,12.45-2.58v8.87Z"/><path class="cls-6" d="M215.58,222.38c3.36,0,6.73-.07,10.09,.02,3.88,.1,6.31,2.23,6.7,5.66,.41,3.62-1.52,6.62-5.42,7.24-3.65,.58-7.43,.43-11.15,.51-3.24,.07-6.48,.12-9.71-.02-4.65-.19-7.55-3.06-7.44-7.14,.11-4.06,2.71-6.22,7.59-6.3,1.66-.03,3.33,.22,4.97-1.68l4.37,1.68v.02Z"/><path class="cls-6" d="M322.58,222.74c3.37,0,6.75-.08,10.11,.02,3.42,.1,6.28,2.78,6.59,5.96,.29,2.97-1.87,6.37-5.12,6.84-4.04,.58-8.19,.52-12.29,.59-3.49,.06-7.02,.19-10.46-.25-4.1-.52-6.16-3.42-5.84-7.32,.3-3.65,2.73-5.76,6.89-5.86,3.37-.07,6.74-.01,10.12-.01v.02Z"/><path class="cls-1" d="M268.45,336.95c.06-13.09,10.57-23.44,23.74-23.36,13,.07,23.64,10.85,23.47,23.78-.17,12.95-10.96,23.54-23.89,23.44-12.97-.09-23.38-10.74-23.32-23.86Z"/><path class="cls-1" d="M53.26,337.03c.02-13.01,10.55-23.46,23.61-23.45,13.01,.01,23.58,10.54,23.61,23.52,.03,12.9-10.62,23.65-23.5,23.71-13.15,.06-23.75-10.57-23.73-23.78Z"/></svg>