<?xml version="1.0" encoding="UTF-8"?><svg id="Layer_1" xmlns="http://www.w3.org/2000/svg" viewBox="0 0 361.56 351.81"><defs><style>.cls-1{fill:#dfb767;}.cls-2{fill:#f35170;}.cls-3{fill:#fefcfd;}.cls-4{fill:#4d5d74;}.cls-5{fill:#fecf6c;}</style></defs><path class="cls-5" d="M89.34,313.29c-10.32,5.56-21.39,8.79-32.96,10.42-11.21,1.58-22.14,.51-32.68-3.75-.58-.23-1.25-.36-1.71-.74-1.55-1.3-3.02-2.69-4.53-4.04,1.4-1.28,2.63-2.86,4.24-3.78,12.11-6.96,22.97-15.17,28.73-28.47,4.21-9.73,4.16-19.66,.52-29.55-.48-1.31-1.61-2.49-2.68-3.47-20.11-18.25-35.4-39.72-42.89-66.05C-6.6,141.76,1.68,103.27,27.71,68.59,46.95,42.96,72.42,25.4,102.11,13.72,130.73,2.47,160.5-1.6,190.98,.56c40.77,2.89,77.77,16.35,109.39,42.73,23.62,19.7,40.28,44.2,47.85,74.33,4.47,17.77,5.2,35.71,1.4,53.73-.3-.39-.66-.74-.89-1.16-12.56-22.1-30.9-38.02-53.5-49.06-26.05-12.72-53.66-17.09-82.51-14.35-19.1,1.81-37.15,7-54.19,15.74-19.61,10.05-35.95,23.92-47.83,42.53-12.02,18.81-17.64,39.44-15.5,61.91-.71,8.99-1.49,17.97-2.1,26.96-.61,9.03-1.01,18.08-1.58,27.12-.68,10.76-1.44,21.51-2.17,32.27Zm-30.08-171.47c-.02,12.9,10.51,23.45,23.3,23.34,12.52-.11,23.11-10.84,23.06-23.37-.05-12.49-10.43-22.9-22.9-22.98-13.16-.08-23.44,9.99-23.46,23.01Z"/><path class="cls-2" d="M95.18,226.94c-2.14-22.46,3.48-43.09,15.5-61.91,11.89-18.61,28.22-32.48,47.83-42.53,17.05-8.74,35.09-13.93,54.19-15.74,28.85-2.73,56.45,1.63,82.51,14.35,22.6,11.03,40.94,26.96,53.5,49.06,.24,.42,.59,.78,.89,1.16,3.26,8.98,7.57,17.73,9.6,26.98,6.73,30.67-1.29,58.06-20.43,82.46-3.23,4.11-6.65,8.26-10.69,11.51-7.47,6.01-7.85,13.77-6.49,22.04,1.64,10.01,7.99,16.99,15.85,22.75,2.41,1.77,5.12,3.11,7.57,4.84,1.21,.85,2.12,2.13,3.16,3.22-1.19,.98-2.24,2.27-3.6,2.89-8.69,4.02-17.91,4.43-27.16,3.05-17.81-2.66-32.87-11.44-46.84-22.22-3.14-2.43-5.83-2.8-9.5-2.03-34.88,7.35-68.5,3.59-100.66-11.99-12.1-5.87-23.03-13.51-32.73-22.86-.71-.69-1.52-1.27-2.29-1.9-2.26-2.65-4.56-5.27-6.78-7.94-13.34-16.05-21.33-34.38-23.44-55.2Zm76.67-7.91c0-10.79-8.76-19.57-19.51-19.56-10.7,0-19.51,8.87-19.49,19.62,.02,10.71,8.9,19.6,19.55,19.58,10.72-.03,19.46-8.85,19.46-19.64Zm75.78,.16c.04-10.85-8.5-19.55-19.34-19.71-10.55-.16-19.62,8.81-19.67,19.46-.05,10.7,8.74,19.64,19.41,19.73,10.69,.09,19.56-8.73,19.6-19.48Zm75.78,.04c.06-10.87-8.4-19.53-19.29-19.75-10.51-.21-19.64,8.77-19.72,19.42-.08,10.65,8.75,19.66,19.39,19.77,10.69,.12,19.56-8.67,19.62-19.44Z"/><path class="cls-1" d="M95.18,226.94c2.11,20.82,10.1,39.15,23.44,55.2,2.22,2.68,4.52,5.3,6.78,7.94-11.14,9.11-22.89,17.27-36.07,23.2,.73-10.76,1.49-21.51,2.17-32.27,.57-9.04,.97-18.08,1.58-27.12,.61-8.99,1.39-17.97,2.1-26.96Z"/><path class="cls-4" d="M59.25,141.82c.02-13.01,10.3-23.09,23.46-23.01,12.47,.08,22.84,10.49,22.9,22.98,.05,12.53-10.54,23.26-23.06,23.37-12.79,.11-23.32-10.44-23.3-23.34Z"/><path class="cls-3" d="M171.85,219.03c0,10.79-8.73,19.61-19.46,19.64-10.66,.03-19.54-8.86-19.55-19.58-.02-10.74,8.79-19.61,19.49-19.62,10.75,0,19.51,8.77,19.51,19.56Z"/><path class="cls-3" d="M247.63,219.19c-.04,10.75-8.91,19.57-19.6,19.48-10.67-.09-19.46-9.03-19.41-19.73,.05-10.65,9.12-19.62,19.67-19.46,10.84,.17,19.38,8.86,19.34,19.71Z"/><path class="cls-3" d="M323.42,219.23c-.06,10.77-8.92,19.55-19.62,19.44-10.64-.12-19.47-9.12-19.39-19.77,.08-10.64,9.21-19.63,19.72-19.42,10.89,.22,19.34,8.88,19.29,19.75Z"/></svg>