<?xml version="1.0" encoding="UTF-8"?><svg id="Layer_1" xmlns="http://www.w3.org/2000/svg" viewBox="0 0 384 382.28"><defs><style>.cls-1{fill:#fe8b44;}.cls-2{fill:#fcfdfd;}.cls-3{fill:#415661;}.cls-4{fill:#fcfefd;}.cls-5{fill:#fe96c0;}.cls-6{fill:#625bc4;}.cls-7{fill:#fe6e80;}.cls-8{fill:#febad4;}.cls-9{fill:#01c072;}.cls-10{fill:#827cd0;}.cls-11{fill:#405661;}.cls-12{fill:#01cd8e;}.cls-13{fill:#59d4fe;}.cls-14{fill:#feb25a;}.cls-15{fill:#01c3fb;}.cls-16{fill:#f7485e;}</style></defs><path class="cls-10" d="M384,187.32c-2.23,6.39-4.7,12.74-10.45,16.8-4.88,3.45-10.12,6.39-15.27,9.44-5.15,3.05-10.38,5.96-15.57,8.93-.79-.52-1.54-1.13-2.38-1.56-6.4-3.26-11.25-7.98-14.13-14.65-5.44-12.6-5.06-25.52-2.22-38.58,6.55-3.81,12.93-7.96,19.7-11.35,14.69-7.36,33.27,.69,38.71,16.45,.47,1.36,1.07,2.68,1.61,4.01v10.5Z"/><path class="cls-15" d="M0,78.56c2.52-4.73,5.03-9.47,7.55-14.2,.22,.93,.56,1.86,.63,2.8,.93,13.09,6.66,23.72,16.59,32.14,9.27,7.86,20.28,10.63,32.15,10.8-.16,7.21,.57,14.57-.67,21.58-2.34,13.16-13.84,22.41-26.49,22.63-14.12,.24-25.34-8.14-28.99-21.64-.15-.56-.5-1.07-.76-1.61,0-17.5,0-35,0-52.51Z"/><path class="cls-12" d="M114,155.01c12.67-2.61,24.82-.4,36.6,4.3,22.3,8.9,40.07,24.12,56.45,41.15,12.95,13.46,23.34,28.65,29.25,46.52,11.06,33.42,4.53,64.02-15.63,92.1-4.4,6.13-10.03,11.39-15.09,17.05-6.95-.29-13.98-.05-20.84-1-12.85-1.78-25.19-5.36-36.59-11.9-9.84-5.64-18.22-12.92-25.16-21.79-13.3-16.98-20.15-36.63-23.3-57.76-.45-2.99-1.39-5.91-2.11-8.86,6.31-7.2,6.95-13.74,2.27-23.25,1.02-.71,2.04-1.44,3.08-2.14,2.22-1.5,4.68-1.25,6.01,.72,1,1.48,.86,3.85,.85,5.82,0,.84-1.06,1.64-1.55,2.5-1.55,2.73-.91,5.17,1.47,6.95,2.5,1.86,5.19,1.71,7.51-.47,4.3-4.05,5.81-11.87,3.48-17.38-3.76-8.88-11.62-11.96-22.42-8.78,.24-2.83,.45-5.67,.73-8.49,1.5-14.86,4.95-29.28,9.93-43.33,1.44-4.08,3.38-7.98,5.09-11.97Zm60.77,151.5c-2.32-.88-4.58-2.05-6.98-2.59-11.08-2.5-20.58,5.41-19.7,16.26,.93,11.46,10.04,21.38,21.43,23.34,11.07,1.9,19.21-5.19,18.83-16.4-.18-5.21-2.37-9.61-5.37-13.7,7.39-6.53,8.17-16.76,1.81-23.53-6.29-6.7-16.54-7.19-22.78-1.1-2.6,2.54-3.01,5.48-1.1,7.95,1.93,2.5,5.05,2.98,7.95,.83,2.54-1.89,5.03-2.51,7.37-.24,2.58,2.5,1.66,5.19-.38,7.65-.4,.48-.72,1.01-1.08,1.52Zm-57.85-36.97c.09,11.08,8.86,19.83,19.96,19.89,4.41,.02,7.03-1.94,7.11-5.32,.08-3.52-2.24-5.59-6.68-5.95-5.82-.47-8.66-3.34-9.13-9.21-.35-4.35-2.52-6.73-6.02-6.59-3.34,.13-5.27,2.78-5.23,7.19Z"/><path class="cls-9" d="M97.57,254.82c.71,2.95,1.66,5.87,2.11,8.86,3.16,21.12,10.01,40.77,23.3,57.76,6.94,8.86,15.32,16.15,25.16,21.79,11.4,6.53,23.75,10.12,36.59,11.9,6.86,.95,13.89,.7,20.84,1-13.03,13.08-28.57,21.47-46.77,24.69-25.59,4.52-49.24-1.64-70.68-15.23-31.29-19.83-55.38-46.72-72.73-79.45-6.98-13.17-9.68-27.45-7.65-42.35,2.54-18.67,14-30.29,30.55-37.58,5.57-2.45,11.27-4.65,17.06-6.51,8.78-2.83,15.57-8.2,21.13-15.37,4.21-5.42,8.14-11.08,12.65-16.23,6.54-7.47,14.86-11.98,24.86-13.07-1.71,3.98-3.64,7.89-5.09,11.97-4.98,14.05-8.42,28.47-9.93,43.33-.29,2.83-.49,5.66-.73,8.49-1.77,1.51-3.54,3.02-5.31,4.53-2.96-1.54-5.78-3.55-8.92-4.52-13.51-4.17-24.02,5.54-21,19.29,3.23,14.71,21.56,25.98,34.55,16.71Z"/><path class="cls-16" d="M288.11,131.95c-9.42,9.45-18.59,19.16-28.31,28.29-10.98,10.32-28.66,9.55-39.21-1.17-10.8-10.96-11.39-28.39-.63-39.53,14.91-15.42,30.31-30.37,45.5-45.52,.24,.66,.72,1.33,.68,1.97-.42,6.92-1.58,13.87-1.24,20.75,.5,10.25,3.56,19.94,11.3,27.2,3.44,3.23,7.91,5.37,11.91,8Z"/><path class="cls-7" d="M288.11,131.95c-4-2.63-8.47-4.77-11.91-8-7.74-7.26-10.8-16.96-11.3-27.2-.34-6.88,.82-13.83,1.24-20.75,.04-.64-.44-1.31-.68-1.97,5.59-5.51,10.91-11.31,16.81-16.46,11.45-10,28.29-8.95,38.88,2.03,10.39,10.77,10.73,28.07,.27,38.98-10.88,11.34-22.19,22.27-33.32,33.38Z"/><path class="cls-5" d="M202.67,74.81c-5.44,9.51-10.05,19.63-16.52,28.38-9.53,12.9-25.78,14.97-38.61,6.29-12.45-8.42-16.15-24.24-8.49-38.06,7.38-13.3,15.18-26.37,22.8-39.54,2.56-4.43,5.12-8.85,7.69-13.27,.23,.67,.77,1.42,.64,2-1.57,6.62-.76,13.19,.9,19.57,4.43,17.01,14.12,29.42,31.59,34.64Z"/><path class="cls-6" d="M323.98,167.7c-2.84,13.07-3.22,25.98,2.22,38.58,2.88,6.68,7.73,11.39,14.13,14.65,.84,.43,1.59,1.03,2.38,1.56-10.78,6.24-21.36,12.88-32.4,18.63-12.98,6.76-28.99,1.8-36.62-10.6-7.82-12.71-5.31-29.54,7.06-37.64,13.93-9.13,28.78-16.84,43.23-25.17Z"/><path class="cls-8" d="M202.67,74.81c-17.47-5.21-27.16-17.62-31.59-34.64-1.66-6.38-2.47-12.95-.9-19.57,.14-.58-.41-1.33-.64-2C174.95,8.05,183.01,.74,195.23,.05c10.82-.62,23,4.79,28.19,18.72,3.36,9,1.95,17.63-2.85,25.84-5.6,9.58-11.11,19.22-16.68,28.82-.3,.52-.81,.92-1.23,1.38Z"/><path class="cls-14" d="M323.95,279.18c7.94-.63,15.87-1.62,23.81-1.8,15.07-.34,28.09,11.79,28.73,26.27,.7,16.17-10.61,29.32-26.38,30.62-3.47,.29-6.94,.48-10.42,.72-1.11-.78-2.2-1.59-3.33-2.34-13.13-8.73-19.49-24.04-16.21-39.54,1-4.7,2.51-9.28,3.79-13.92Z"/><path class="cls-1" d="M323.95,279.18c-1.28,4.64-2.8,9.22-3.79,13.92-3.29,15.5,3.07,30.81,16.21,39.54,1.13,.75,2.22,1.56,3.33,2.34-10.66,1-21.3,2.6-31.98,2.86-15.26,.37-27.88-12.12-28.36-27.96-.49-16.15,11.95-27.5,24.53-28.83,6.68-.71,13.38-1.25,20.06-1.87Z"/><path class="cls-13" d="M56.92,110.1c-11.87-.17-22.89-2.94-32.15-10.8-9.93-8.42-15.66-19.05-16.59-32.14-.07-.94-.41-1.87-.63-2.8,7.51-8.54,19.63-11.55,30.75-7.62,10.42,3.68,18.4,14.1,18.64,24.9,.21,9.49,0,18.98-.01,28.47Z"/><path class="cls-4" d="M182.98,313.42c3,4.09,5.19,8.49,5.37,13.7,.38,11.21-7.76,18.31-18.83,16.4-11.39-1.96-20.5-11.88-21.43-23.34-.88-10.85,8.62-18.76,19.7-16.26,2.4,.54,4.66,1.71,6.98,2.59,.02,6.02,2.57,8.16,8.21,6.91Z"/><path class="cls-2" d="M97.57,254.82c-12.99,9.27-31.32-2-34.55-16.71-3.02-13.75,7.5-23.46,21-19.29,3.14,.97,5.95,2.99,8.92,4.52-1.23,5.7,.87,8.21,6.89,8.23,4.68,9.51,4.04,16.05-2.27,23.25Z"/><path class="cls-3" d="M99.84,231.58c-6.02-.02-8.13-2.53-6.89-8.23,1.77-1.51,3.54-3.02,5.31-4.53,10.8-3.18,18.66-.1,22.42,8.78,2.34,5.52,.82,13.34-3.48,17.38-2.31,2.18-5.01,2.33-7.51,.47-2.38-1.77-3.01-4.22-1.47-6.95,.49-.87,1.54-1.67,1.55-2.5,.02-1.97,.15-4.34-.85-5.82-1.33-1.97-3.79-2.23-6.01-.72-1.03,.7-2.05,1.42-3.08,2.14Z"/><path class="cls-3" d="M182.98,313.42c-5.64,1.25-8.19-.9-8.21-6.91,.36-.51,.69-1.04,1.08-1.52,2.04-2.47,2.96-5.15,.38-7.65-2.34-2.27-4.83-1.65-7.37,.24-2.9,2.15-6.03,1.67-7.95-.83-1.91-2.47-1.5-5.41,1.1-7.95,6.23-6.09,16.49-5.59,22.78,1.1,6.36,6.77,5.58,17-1.81,23.53Z"/><path class="cls-11" d="M116.92,269.54c-.03-4.41,1.89-7.06,5.23-7.19,3.51-.13,5.68,2.24,6.02,6.59,.47,5.87,3.31,8.74,9.13,9.21,4.43,.36,6.76,2.43,6.68,5.95-.08,3.38-2.7,5.34-7.11,5.32-11.1-.06-19.87-8.8-19.96-19.89Z"/></svg>