<?xml version="1.0" encoding="UTF-8"?><svg id="Layer_1" xmlns="http://www.w3.org/2000/svg" viewBox="0 0 384 375.5"><defs><style>.cls-1{fill:#060504;}.cls-2{fill:#f9ef97;}.cls-3{fill:#020303;}.cls-4{fill:#5fd9a7;}.cls-5{fill:#020404;}.cls-6{fill:#59d5fd;}.cls-7{fill:#060503;}.cls-8{fill:#5871a4;}.cls-9{fill:#050503;}.cls-10{fill:#59d3fb;}.cls-11{fill:#00cd8d;}.cls-12{fill:#fa5b6e;}.cls-13{fill:#00cc8c;}.cls-14{fill:#00be71;}.cls-15{fill:#00c2fa;}.cls-16{fill:#00bf71;}.cls-17{fill:#48649c;}.cls-18{fill:#00c4fc;}.cls-19{fill:#fea1ab;}.cls-20{fill:#00cb8c;}.cls-21{fill:#f8d788;}.cls-22{fill:#fc8996;}.cls-23{fill:#010404;}</style></defs><path class="cls-3" d="M0,196.74c.58-1.45,1.18-2.89,1.74-4.35,2.37-6.16,6.53-10.75,11.98-14.43,33.37-22.58,66.69-45.23,100.03-67.86,1.23-.84,2.45-1.7,4.71-3.26-2.58,0-4.09,.02-5.59,0-8.09-.11-13.63-5.61-13.73-13.65-.55-41.86,30.44-81.3,71.27-90.69,52.11-11.98,102.23,20.31,112.72,72.77,1.1,5.48,1.47,11.15,1.69,16.74,.36,9.23-5.2,14.78-14.37,14.83-1.21,0-2.42,0-4.78,0,2.1,1.46,3.34,2.35,4.61,3.21,32.1,21.79,64.1,43.72,96.35,65.27,8.4,5.61,14.91,12.17,17.38,22.17v10.5c-.31,.47-.74,.91-.92,1.42-7.01,20.17-26.84,26.81-44.51,14.88-2.94-1.98-5.87-3.98-9.15-6.21v27.55c.7,.19,1.28,.38,1.87,.51,13.5,2.86,23.07,13.92,23.62,27.68,.1,2.49,1.03,3.64,2.98,4.92,15.53,10.16,20.29,30.43,11.06,46.52-.59,1.02-1.15,2.06-1.71,3.06,.58,.42,.88,.64,1.19,.85,10.07,6.56,14.39,17.26,11.31,28.07-3.17,11.14-12.45,18.1-24.5,18.22-8.75,.09-17.49-.03-26.24,.04-3.85,.03-6.16-1.61-6.7-5.5,1.03-4.47,2.54-5.74,7.28-5.78,8.75-.06,17.5,.07,26.24-.05,6.84-.09,12.16-4.59,13.29-10.93,1.6-9.04-4.72-16.26-14.36-16.27-61.11-.02-122.22,0-183.33,0-.87,0-1.74,.08-2.62,.13-1-.04-1.99-.13-2.99-.13-45.45,0-90.9,0-136.35,0-.87,0-1.75-.02-2.62,.05-6.08,.54-11.21,5.47-12.02,11.52-1.18,8.9,4.85,15.62,14.25,15.63,45.82,.04,91.65,.02,137.47,0,.74,0,1.49-.11,2.23-.17,1.49,.06,2.98,.18,4.47,.19,41.91,.01,83.82,0,125.72,.01,5.75,0,7,.87,8.54,5.76-1.66,4.95-2.48,5.51-8.28,5.51-89.69,0-179.38,0-269.08,0-1,0-2,0-3-.05-10.89-.52-19.75-7.48-22.81-17.92-3.02-10.3,.82-21.13,9.72-27.38,.89-.62,1.78-1.23,2.6-1.79-.07-.34-.06-.49-.12-.58-12.19-18.16-5.27-40.55,10.78-49.97,.88-.52,1.52-2.14,1.56-3.27,.27-7,2.62-13.15,7.11-18.49,4.85-5.76,11.14-9.04,18.42-10.31v-27.49c-4.08,2.74-7.72,5.36-11.54,7.7-15.7,9.63-35.56,2.37-41.49-15.09-.34-.99-.93-1.9-1.4-2.84,0-3.75,0-7.5,0-11.25Zm211.75,127.47c-.07-12.55,.44-25.14-.38-37.64-.73-11.13-13.15-18.75-23.91-15.7-7.74,1.51-14.3,7.86-14.89,15.69-.67,8.92-.47,17.91-.61,26.88-.06,3.96,0,7.91,0,12.26,13.21,0,26,.01,38.8-.06,.34,0,.67-.92,1-1.42Zm-38.45-254.36c7.09-5.37,14.97-7.96,23.85-6.26,13.62,2.62,22.98,13.44,23.96,27.43,.14,2.04,.03,4.38,2.79,4.46,5.7,.17,11.41,.05,17.36,.05,.63-18.65-5.67-33.77-20.65-44.44-15.21-10.83-31.75-12.29-48.96-4.81-18.75,7.98-31.32,29.46-28.41,49.29,5.32,0,10.68-.02,16.03,0,2.29,.01,3.48-1.06,3.56-3.35,.32-8.94,4.08-16.28,10.47-22.38Zm-2.3-35.84c.96-.25,1.93-.47,2.88-.75,35.32-10.53,70.55,10.75,77.55,46.99,.96,4.95,1.08,10.06,1.61,15.32h10.94c10.07,0,10.29-.03,9.13-10.08-3.97-34.42-22.44-57.8-54.75-69.82-15.68-5.83-31.95-6.2-48.13-1.22-.85,.17-1.72,.26-2.54,.52-17.11,5.46-30.88,15.61-41.45,30.03-10.03,13.67-15.06,29.15-15.81,46.04-.08,1.86-.76,4.42,2.4,4.48,6.08,.11,12.16,.03,18.57,.03,0-1.93-.04-3.41,0-4.88,.43-15.3,5.52-28.76,15.77-40.24,6.63-7.42,14.85-12.46,23.83-16.42Zm3.62,55.91c-.18,.84-.47,1.67-.53,2.51-.64,9.17-6.08,14.35-15.24,14.39-5.5,.03-11-.2-16.48,.1-2.33,.13-4.94,.8-6.85,2.08-22.69,15.23-45.28,30.63-67.89,45.98-16.11,10.93-32.23,21.85-48.32,32.81-6.34,4.32-9.23,11.08-7.74,17.73,2.74,12.24,15.99,17.23,26.78,9.93,32.15-21.75,64.26-43.56,96.36-65.38,17.12-11.64,34.19-23.35,51.29-35.03,4.42-3.77,8.28-2.51,12.72,.57,18.14,12.61,36.5,24.89,54.78,37.3,30.57,20.75,61.14,41.5,91.68,62.28,3.73,2.54,7.69,4.17,12.27,3.66,7.55-.84,12.97-5.61,14.79-12.85,1.76-7.01-1.02-13.76-7.78-18.35-38.91-26.46-77.84-52.9-116.81-79.27-1.34-.91-3.18-1.43-4.81-1.47-6.24-.17-12.51,.2-18.73-.19-2.84-.18-5.92-1.17-8.33-2.69-4.33-2.72-5.74-7.15-5.94-12.23-.37-9.7-7.94-17.15-17.21-17.37-9.28-.22-17.06,6.48-18.01,15.51Zm6.18,170.77c.73-.17,1.46-.32,2.18-.52,17.67-5.05,35.55,5.19,39.28,23.11,1.26,6.02,.81,12.42,.92,18.65,.13,7.82,.03,15.65,.03,23.54h94.63c.07-.59,.15-.95,.15-1.32,0-37.11,.04-74.22-.1-111.33,0-1.44-1.35-3.37-2.63-4.24-27.6-18.89-55.27-37.66-82.94-56.45-13.41-9.1-26.82-18.19-40.38-27.39-1.81,1.34-3.5,2.6-5.18,3.85-.33,.15-.69,.26-.99,.46-39.25,26.63-78.49,53.29-117.79,79.85-1.96,1.32-2.02,2.82-2.02,4.73,.02,36.12,.01,72.24,.02,108.36,0,1.2,.1,2.39,.15,3.53h94.64c0-10.65,.23-21.13-.05-31.59-.41-15.48,5.93-26.66,20.09-33.24Zm-126.2-3.09c-8.62,1.17-15.08,9.51-14.16,18.83,.52,5.23-.81,8.1-5.81,10.47-14.09,6.67-17.38,25.25-6.91,36.73,.73,.8,1.71,1.92,2.6,1.94,8.05,.15,16.11,.09,24.28,.09v-68.06Zm274.85,68.11c7.47,0,14.57-.13,21.67,.07,2.56,.07,4.19-.88,5.72-2.73,10-12.03,6.03-29.93-8.18-36.65-5.25-2.48-5.54-3.06-5.11-8.92,.13-1.73,.16-3.51-.04-5.23-.87-7.19-7.25-13.85-14.06-14.63v68.08Z"/><path class="cls-2" d="M186.77,128.6c1.69-1.25,3.37-2.51,5.18-3.85,13.56,9.2,26.97,18.28,40.38,27.39,27.67,18.79,55.34,37.56,82.94,56.45,1.28,.88,2.63,2.8,2.63,4.24,.14,37.11,.11,74.22,.1,111.33,0,.36-.08,.72-.15,1.32h-94.63c0-7.88,.1-15.71-.03-23.54-.11-6.23,.34-12.63-.92-18.65-3.74-17.93-21.61-28.16-39.28-23.11-.72,.21-1.45,.35-2.18,.52-.63-3.77-1.48-7.53-1.85-11.33-1.25-12.9-2.35-25.82-3.42-38.74-.07-.87,.53-1.79,.81-2.69,11.36,9.97,24.26,6.64,30.84,.2,3.17-3.11,3.63-6.24,1.24-8.86-2.35-2.59-5.47-2.4-8.83,.54-4.88,4.26-10.44,4.39-15.13,0-2.54-2.38-5.05-2.96-8.13-1.51-.28-1.15-.84-2.32-.8-3.46,.1-3.22,.28-6.46,.72-9.65,1.6-11.53,3.05-23.09,5.09-34.54,1.32-7.43,3.57-14.7,5.41-22.05Zm57.77,74.88c-.06-3.11,.02-6.22-.21-9.31-.26-3.35-2.91-5.68-5.91-5.49-2.96,.18-5.11,2.43-5.24,5.71-.11,2.61-.4,5.29,.08,7.81,.4,2.13,1.78,4.09,2.72,6.12-9.31,6.41-8.04,18.11,.27,24.3,8.05,5.99,17.19,6.38,26.21,2.59,6.6-2.78,11.16-8.07,10.99-15.51-.15-6.53-4.18-11.26-10.03-14.25-6.04-3.09-12.37-3.38-18.87-1.97Zm27.04,55.41c-4,0-7.99-.06-11.99,.01-9.79,.18-17.69,7.55-18.23,17.28-.3,5.35-.29,10.75,.01,16.1,.54,9.28,7.95,16.7,17.24,17.04,8.6,.32,17.24,.33,25.84-.01,9.41-.38,16.77-8.08,17.15-17.54,.21-5.11,.21-10.25-.01-15.36-.43-9.7-8.31-17.28-18.03-17.5-3.99-.09-7.99-.02-11.99-.02Z"/><path class="cls-21" d="M186.77,128.6c-1.83,7.34-4.08,14.61-5.41,22.05-2.04,11.45-3.49,23.01-5.09,34.54-.44,3.19-.62,6.43-.72,9.65-.04,1.14,.52,2.31,.8,3.46-3.16,3.99-3.16,5.31,0,9.64-.29,.9-.89,1.82-.81,2.69,1.07,12.92,2.17,25.84,3.42,38.74,.37,3.8,1.22,7.55,1.85,11.33-14.15,6.57-20.5,17.76-20.09,33.24,.28,10.46,.05,20.94,.05,31.59H66.14c-.05-1.14-.15-2.34-.15-3.53,0-36.12,0-72.24-.02-108.36,0-1.91,.06-3.4,2.02-4.73,39.3-26.56,78.54-53.22,117.79-79.85,.3-.2,.66-.31,.99-.46Zm-47.3,74.89c-7.89-1.7-15.38-.95-22.04,3.96-7.55,5.57-9.5,15.82-2.01,23.57,7.83,8.11,24.84,8.58,33.27,.96,7.89-7.14,7.99-17.7-.7-23.65,.96-2.02,2.32-3.96,2.77-6.1,.48-2.26,.15-4.71,.1-7.07-.08-4-2.32-6.55-5.63-6.5-3.28,.05-5.5,2.63-5.61,6.62-.08,2.73-.1,5.47-.15,8.2Zm-26.59,105.92c4.12,0,8.25,.18,12.36-.04,9.5-.5,16.89-7.8,17.41-17.3,.28-5.23,.29-10.5,0-15.73-.53-9.8-8.34-17.26-18.1-17.42-7.99-.12-15.99-.12-23.98,0-9.93,.15-17.81,7.81-18.19,17.72-.19,4.99-.19,9.99,0,14.98,.35,9.64,7.77,17.22,17.39,17.74,4.36,.24,8.74,.04,13.11,.04Z"/><path class="cls-22" d="M174.63,89.92c.95-9.03,8.73-15.73,18.01-15.51,9.27,.22,16.84,7.67,17.21,17.37,.19,5.08,1.61,9.52,5.94,12.23,2.41,1.51,5.49,2.51,8.33,2.69,6.22,.4,12.49,.02,18.73,.19,1.63,.04,3.47,.57,4.81,1.47,38.97,26.37,77.9,52.81,116.81,79.27,6.75,4.59,9.54,11.34,7.78,18.35-1.82,7.24-7.24,12.01-14.79,12.85-4.58,.51-8.54-1.12-12.27-3.66-30.55-20.78-61.12-41.53-91.68-62.28-18.28-12.41-36.64-24.7-54.78-37.3-4.43-3.08-8.29-4.33-12.72-.57-1.02-1.05-2.16-2.02-3.06-3.17-5.03-6.45-7.2-14-8.32-21.95Z"/><path class="cls-12" d="M174.63,89.92c1.12,7.94,3.29,15.5,8.32,21.95,.9,1.15,2.03,2.12,3.06,3.17-17.09,11.68-34.17,23.39-51.29,35.03-32.1,21.82-64.21,43.63-96.36,65.38-10.79,7.3-24.03,2.31-26.78-9.93-1.49-6.65,1.4-13.41,7.74-17.73,16.09-10.96,32.21-21.88,48.32-32.81,22.61-15.35,45.2-30.74,67.89-45.98,1.91-1.28,4.52-1.95,6.85-2.08,5.48-.3,10.99-.07,16.48-.1,9.15-.05,14.59-5.22,15.24-14.39,.06-.85,.35-1.67,.53-2.51Z"/><path class="cls-4" d="M322.29,370c-4.92-.01-9.85-.02-14.77-.03-1.54-4.89-2.79-5.76-8.54-5.76-41.91,0-83.82,0-125.72-.01-1.49,0-2.98-.12-4.47-.19-7.15-9.29-7.15-17.28,.02-26.91,.87-.04,1.74-.13,2.62-.13,61.11,0,122.22-.02,183.33,0,9.64,0,15.96,7.23,14.36,16.27-1.13,6.34-6.45,10.84-13.29,10.93-8.75,.12-17.5,0-26.24,.05-4.74,.03-6.25,1.3-7.28,5.78Z"/><path class="cls-11" d="M168.8,337.1c-7.16,9.63-7.17,17.62-.02,26.91-.74,.06-1.49,.17-2.23,.17-45.82,0-91.65,.03-137.47,0-9.4,0-15.44-6.72-14.25-15.63,.8-6.05,5.94-10.99,12.02-11.52,.87-.08,1.75-.05,2.62-.05,45.45,0,90.9,0,136.35,0,1,0,1.99,.08,2.99,.13Z"/><path class="cls-20" d="M170.23,14.44c16.18-4.98,32.45-4.61,48.13,1.22,32.3,12.02,50.78,35.4,54.75,69.82,1.16,10.06,.94,10.08-9.13,10.08h-10.94c-.53-5.26-.65-10.37-1.61-15.32-7-36.24-42.23-57.52-77.55-46.99-.95,.28-1.92,.5-2.88,.75-.26-6.52-.51-13.04-.77-19.57Z"/><path class="cls-14" d="M170.23,14.44c.26,6.52,.51,13.04,.77,19.57-8.99,3.96-17.2,8.99-23.83,16.42-10.25,11.48-15.34,24.94-15.77,40.24-.04,1.47,0,2.95,0,4.88-6.41,0-12.49,.08-18.57-.03-3.16-.06-2.48-2.62-2.4-4.48,.75-16.89,5.78-32.37,15.81-46.04,10.57-14.42,24.34-24.57,41.45-30.03,.82-.26,1.69-.35,2.54-.52Z"/><path class="cls-10" d="M171.66,46.28c17.21-7.47,33.74-6.02,48.96,4.81,14.99,10.67,21.29,25.8,20.65,44.44-5.96,0-11.66,.12-17.36-.05-2.76-.08-2.65-2.42-2.79-4.46-.97-14-10.33-24.81-23.96-27.43-8.88-1.71-16.76,.88-23.85,6.26-.55-7.86-1.1-15.71-1.65-23.57Z"/><path class="cls-16" d="M54.61,257.6v68.06c-8.17,0-16.23,.06-24.28-.09-.88-.02-1.87-1.14-2.6-1.94-10.47-11.48-7.18-30.07,6.91-36.73,5.01-2.37,6.33-5.24,5.81-10.47-.93-9.32,5.54-17.66,14.16-18.83Z"/><path class="cls-13" d="M329.45,325.71v-68.08c6.82,.78,13.2,7.43,14.06,14.63,.21,1.72,.17,3.49,.04,5.23-.44,5.87-.15,6.44,5.11,8.92,14.21,6.72,18.18,24.62,8.18,36.65-1.54,1.85-3.16,2.8-5.72,2.73-7.1-.19-14.2-.07-21.67-.07Z"/><path class="cls-17" d="M211.75,324.2c-.33,.49-.67,1.41-1,1.42-12.8,.07-25.59,.06-38.8,.06,0-4.35-.05-8.3,0-12.26,.13-8.96-.07-17.95,.61-26.88,.59-7.83,7.15-14.18,14.89-15.68,3.79,15.03,8.73,29.64,16.53,43.11,2.13,3.68,5.15,6.84,7.76,10.24Z"/><path class="cls-15" d="M171.66,46.28c.55,7.86,1.1,15.71,1.65,23.57-6.39,6.1-10.15,13.44-10.47,22.38-.08,2.29-1.27,3.36-3.56,3.35-5.35-.03-10.71,0-16.03,0-2.9-19.84,9.66-41.32,28.41-49.29Z"/><path class="cls-8" d="M211.75,324.2c-2.61-3.4-5.63-6.56-7.76-10.24-7.8-13.46-12.74-28.08-16.53-43.11,10.77-3.05,23.18,4.56,23.91,15.7,.83,12.5,.31,25.09,.38,37.64Z"/><path class="cls-5" d="M271.58,258.9c4,0,8-.07,11.99,.02,9.72,.22,17.6,7.81,18.03,17.5,.22,5.11,.22,10.25,.01,15.36-.38,9.46-7.74,17.17-17.15,17.54-8.6,.35-17.24,.33-25.84,.01-9.3-.34-16.71-7.76-17.24-17.04-.31-5.35-.31-10.75-.01-16.1,.54-9.74,8.44-17.1,18.23-17.28,4-.07,7.99-.01,11.99,0Zm0,11.25c-3.62,0-7.23,0-10.85,0-.25,0-.5,0-.75,.01-4.45,.22-7.24,2.79-7.42,7.25-.18,4.48-.18,8.98,0,13.46,.17,4.46,2.9,7.19,7.38,7.27,7.73,.15,15.46,.15,23.19-.02,4.45-.1,7.11-2.92,7.25-7.4,.14-4.36,.14-8.73,0-13.09-.15-4.65-2.93-7.35-7.58-7.47-3.74-.09-7.48-.02-11.22-.02Z"/><path class="cls-19" d="M244.54,203.48c6.51-1.41,12.84-1.12,18.87,1.97,5.85,2.99,9.89,7.72,10.03,14.25,.17,7.44-4.39,12.73-10.99,15.51-9.02,3.79-18.16,3.4-26.21-2.59-8.32-6.18-9.58-17.89-.27-24.3,5.17,1.12,6.71,.24,8.57-4.84Z"/><path class="cls-9" d="M176.36,207.93c-3.16-4.33-3.16-5.65,0-9.64,3.07-1.45,5.59-.87,8.13,1.51,4.69,4.4,10.26,4.27,15.13,0,3.36-2.94,6.48-3.12,8.83-.54,2.39,2.62,1.93,5.76-1.24,8.86-6.58,6.44-19.49,9.77-30.84-.2Z"/><path class="cls-1" d="M244.54,203.48c-1.86,5.08-3.4,5.95-8.57,4.84-.95-2.03-2.32-3.99-2.72-6.12-.47-2.52-.19-5.21-.08-7.81,.14-3.28,2.28-5.53,5.24-5.71,3-.18,5.66,2.14,5.91,5.49,.24,3.09,.16,6.21,.21,9.31Z"/><path class="cls-23" d="M112.87,309.41c-4.37,0-8.75,.19-13.11-.04-9.62-.52-17.03-8.1-17.39-17.74-.18-4.99-.19-10,0-14.98,.39-9.91,8.26-17.58,18.19-17.72,7.99-.12,15.99-.12,23.98,0,9.76,.15,17.57,7.61,18.1,17.42,.28,5.23,.28,10.5,0,15.73-.52,9.51-7.91,16.8-17.41,17.3-4.11,.22-8.24,.04-12.36,.03Zm-.29-11.2c3.74,0,7.48,.1,11.22-.03,4.71-.16,7.47-2.79,7.64-7.43,.17-4.36,.17-8.73,0-13.09-.18-4.83-3-7.44-7.95-7.49-7.35-.07-14.71-.07-22.07,0-4.9,.05-7.69,2.76-7.83,7.6-.12,4.24-.12,8.48,0,12.71,.13,4.85,2.84,7.54,7.76,7.69,3.74,.12,7.48,.02,11.22,.02Z"/><path class="cls-19" d="M147.99,208.33c8.69,5.94,8.59,16.51,.7,23.65-8.43,7.63-25.44,7.15-33.27-.96-7.49-7.76-5.54-18.01,2.01-23.57,6.66-4.91,14.15-5.65,22.04-3.96,1.85,5.06,3.4,5.95,8.53,4.84Z"/><path class="cls-7" d="M147.99,208.33c-5.12,1.11-6.68,.22-8.53-4.84,.05-2.73,.07-5.47,.15-8.2,.12-3.99,2.33-6.58,5.61-6.62,3.31-.05,5.55,2.5,5.63,6.5,.05,2.36,.38,4.81-.1,7.07-.46,2.13-1.81,4.07-2.77,6.1Z"/><path class="cls-6" d="M271.58,270.15c3.74,0,7.48-.07,11.22,.02,4.65,.12,7.43,2.82,7.58,7.47,.14,4.36,.14,8.73,0,13.09-.14,4.48-2.81,7.31-7.25,7.4-7.73,.17-15.46,.16-23.19,.02-4.49-.08-7.21-2.82-7.38-7.27-.17-4.48-.18-8.98,0-13.46,.18-4.46,2.97-7.03,7.42-7.25,.25-.01,.5,0,.75-.01,3.62,0,7.23,0,10.85,0Z"/><path class="cls-18" d="M112.59,298.2c-3.74,0-7.48,.1-11.22-.02-4.92-.16-7.63-2.84-7.76-7.69-.11-4.24-.11-8.48,0-12.71,.14-4.84,2.93-7.54,7.83-7.6,7.35-.08,14.71-.07,22.07,0,4.94,.05,7.77,2.66,7.95,7.49,.16,4.36,.16,8.73,0,13.09-.18,4.64-2.93,7.27-7.64,7.43-3.74,.13-7.48,.03-11.22,.03Z"/></svg>