<?xml version="1.0" encoding="UTF-8"?><svg id="Layer_1" xmlns="http://www.w3.org/2000/svg" viewBox="0 0 343.07 298.76"><defs><style>.cls-1{fill:#f8b838;}.cls-2{fill:#f7b739;}.cls-3{fill:#fefdfb;}.cls-4{fill:#ef5644;}.cls-5{fill:#fad487;}.cls-6{fill:#fbfbfe;}.cls-7{fill:#9f9ff8;}.cls-8{fill:#fad385;}.cls-9{fill:#4a4848;}.cls-10{fill:#f4c3a2;}.cls-11{fill:#adadf9;}.cls-12{fill:#e3a223;}.cls-13{fill:#f8ba3c;}.cls-14{fill:#5f5fee;}.cls-15{fill:#f8ba3d;}.cls-16{fill:#acacf9;}.cls-17{fill:#fc9189;}.cls-18{fill:#7979f6;}.cls-19{fill:#e4a320;}.cls-20{fill:#fa655a;}.cls-21{fill:#7b7bf6;}.cls-22{fill:#302e2e;}</style></defs><path class="cls-18" d="M4,134.37c-1.3-4.73-3.68-9.46-3.73-14.21C-.07,89.81-.06,59.44,.16,29.09,.28,13,13.38,.2,29.53,.12,59.64-.02,89.76-.11,119.88,.28c4.97,.07,9.9,2.72,14.84,4.17-.03,1-.19,2.02-.06,3,.41,2.94,1.34,5.86,1.35,8.79,.1,30.48,.07,60.96,.05,91.43,0,1.36-.05,2.76-.36,4.07-3.83,16.25-15.15,24.64-31.89,24.78-27.98,.23-55.97,.15-83.96-.03-4.27-.03-8.53-1.35-12.8-2.01-1-.16-2.03-.08-3.05-.11ZM76.36,31.49c-4.34-.39-6.5,2.25-8.03,5.86-8.37,19.76-16.78,39.51-25.14,59.28-1.62,3.84-.67,6.86,2.42,8.27,3.27,1.5,6.36,.09,8.06-3.77,1.71-3.88,3.43-7.77,4.94-11.73,.75-1.97,1.87-2.58,3.92-2.56,9.12,.1,18.25,.12,27.37-.01,2.27-.03,3.34,.75,4.1,2.82,1.38,3.74,2.99,7.4,4.56,11.07,1.72,4.02,5.02,5.66,8.28,4.21,3.16-1.4,3.99-4.46,2.25-8.65-3.02-7.26-6.09-14.5-9.15-21.73-5.31-12.52-10.64-25.04-15.95-37.56-1.43-3.37-3.55-5.74-7.63-5.5ZM29.53,68.54c0-4.13,.01-8.25,0-12.38-.01-3.66-2.12-6.57-4.68-6.52-2.8,.06-4.96,2.73-5.01,6.38-.06,4.37-.02,8.75-.01,13.13,0,4.37-.15,8.76,.12,13.12,.21,3.33,2.79,5.91,5.1,5.34,2.94-.72,4.65-2.59,4.53-5.95-.16-4.37-.04-8.75-.04-13.12Zm0-32.97c-.05-3.24-1.8-5.38-4.46-5.43-2.69-.06-5.16,2.69-5.2,5.81-.04,2.54,2.42,5.31,4.76,5.37,3.06,.08,4.96-2.16,4.91-5.75Z"/><path class="cls-1" d="M124.69,149.22c7.15,.16,14.38-.26,21.01,3.23,.32,.17,.58,.43,.87,.65,2.77,7.23,3.08,14.75,3.04,22.4-.13,24.23-.01,48.46-.08,72.69-.01,4.22-.11,8.49-.79,12.63-1.5,9.12-6.53,15.95-14.46,20.71-5.65,3.39-11.89,4.29-18.28,4.31-25.73,.07-51.47-.02-77.2,.06-7.51,.02-14.91-.38-22.03-3.02-1.25-4.63-3.53-9.25-3.58-13.89-.33-29.99-.24-59.99-.14-89.98,.05-14.24,10.03-26.06,24.09-29.01,.47-.1,.92-.34,1.37-.52,5-.04,9.99-.11,14.99-.12,23.73-.05,47.46-.09,71.19-.13Zm-20.5,67.17c1.34-1.32,2.81-2.51,3.94-3.95,8.59-10.94,2.35-27.02-12.08-29.08-10.3-1.47-20.93-.9-31.4-.82-3.52,.03-4.99,2.93-4.99,6.35,0,19.37-.03,38.74,.02,58.11,.01,4.54,2.13,6.49,6.8,6.54,5.5,.05,11.01,.21,16.5-.04,6.09-.28,12.28-.39,18.2-1.62,7.19-1.5,12.21-6.09,13.89-13.61,2.18-9.75-.97-16.08-10.88-21.87Zm-61.87,1.98c0-4.86-.06-9.72,.02-14.57,.05-2.95-1.61-4.63-4.19-4.72-2.71-.09-4.83,1.45-4.84,4.54-.06,9.59-.23,19.19,.19,28.76,.07,1.56,2.8,3.94,4.58,4.24,2.33,.39,4.35-1.34,4.27-4.43-.12-4.61-.03-9.22-.03-13.82Zm0-33.48c-.02-3.42-1.86-5.57-4.66-5.47-2.75,.1-4.39,2.28-4.39,5.84,0,3.49,1.73,5.44,4.72,5.34,2.92-.1,4.36-2,4.33-5.72Z"/><path class="cls-18" d="M183.19,215.36c2.19-5.69,4.08-11.52,6.63-17.04,20.63-44.64,41.38-89.23,62.1-133.83,.26-.57,.57-1.11,.86-1.66,6.96,3.31,13.92,6.62,20.88,9.91,11.67,5.51,23.36,11.01,35.04,16.51-.24,.96-.32,1.98-.73,2.86-6.91,14.91-13.87,29.81-20.81,44.71-5.21,11.18-10.42,22.35-15.62,33.53-9.88,21.23-19.75,42.45-29.62,63.68-1.03,2.22-2.04,4.46-3.06,6.69-.58-.13-1.21-.16-1.74-.41-13.96-6.45-27.91-12.92-41.86-19.39-4.01-1.86-8.04-3.71-12.05-5.56Zm46.85-53.23c.62-.53,2.61-1.44,3.33-2.95,5.21-10.91,10.14-21.96,15.21-32.94,1.48-3.19-.12-5.05-2.69-6.31-2.81-1.38-4.94-.01-6.15,2.48-3.17,6.5-6.18,13.08-9.21,19.65-2.14,4.64-4.38,9.25-6.22,14.01-1.26,3.26,.94,6.02,5.72,6.07Zm25.34-69.06c-.55,.43-2.21,1.18-2.98,2.46-1.53,2.54-2.62,5.36-3.79,8.1-1.04,2.46,.19,6.03,2.7,6.25,1.94,.17,4.67-.9,5.93-2.37,1.78-2.1,2.65-5.03,3.7-7.69,1.4-3.54-.76-6.73-5.56-6.76Z"/><path class="cls-14" d="M124.69,149.22c-23.73,.04-47.46,.08-71.19,.13-4.99,.01-9.99,.08-14.99,.12-5.3-.31-10.73,.03-15.86-1.06-8.18-1.75-14.59-6.51-18.65-14.05,1.02,.03,2.05-.04,3.05,.11,4.27,.67,8.53,1.98,12.8,2.01,27.98,.18,55.97,.26,83.96,.03,16.74-.14,28.07-8.53,31.89-24.78,.31-1.31,.36-2.71,.36-4.07,.02-30.48,.06-60.96-.05-91.43,0-2.93-.94-5.85-1.35-8.79-.14-.98,.03-2,.06-3,9.75,5.62,14.55,14.46,14.66,25.32,.31,29.87,.2,59.74,.07,89.61-.06,14.23-9.49,25.75-23.41,29.25-.47,.12-.9,.39-1.35,.59Z"/><path class="cls-19" d="M16.77,282.88c7.12,2.64,14.52,3.05,22.03,3.02,25.73-.08,51.47,0,77.2-.06,6.39-.02,12.63-.92,18.28-4.31,7.92-4.76,12.96-11.59,14.46-20.71,.68-4.14,.78-8.42,.79-12.63,.07-24.23-.05-48.46,.08-72.69,.04-7.65-.27-15.17-3.04-22.4,9.69,5,15.44,13.15,15.59,23.8,.45,31.34,.28,62.7,.11,94.05-.08,13.97-13.53,27.5-27.6,27.6-31.36,.22-62.72,.37-94.07-.1-10.62-.16-18.82-5.89-23.83-15.57Z"/><path class="cls-10" d="M183.19,215.36c4.02,1.85,8.04,3.7,12.05,5.56,13.95,6.47,27.9,12.94,41.86,19.39,.53,.25,1.16,.28,1.74,.41,4.35,2.14,8.7,4.27,13.05,6.41-4.43,5.6-8.17,12.01-13.46,16.62-7.51,6.55-16.18,11.8-24.35,17.6-2.97-3.59-5.94-7.19-8.92-10.78-7.23-5.86-15.39-6.39-24.02-4.18-.77-9.58-2.32-19.18-2.06-28.74,.2-7.46,2.64-14.87,4.09-22.3Z"/><path class="cls-14" d="M251.91,247.13c-4.35-2.14-8.7-4.27-13.05-6.41,1.02-2.23,2.03-4.47,3.06-6.69,9.87-21.23,19.75-42.46,29.62-63.68,5.2-11.18,10.41-22.35,15.62-33.53,6.94-14.9,13.9-29.8,20.81-44.71,.41-.88,.5-1.9,.73-2.86,.25,0,.49-.02,.74-.05,4.6,2.29,9.2,4.58,13.8,6.87-8.77,19.01-17.53,38.04-26.33,57.04-12.57,27.15-25.12,54.31-37.82,81.4-2.05,4.37-4.78,8.42-7.19,12.62Z"/><path class="cls-20" d="M264.43,37.58c4.15-10.62,9.58-20.24,20-26.08,19.02-10.66,42.19-4.21,53.3,14.87-.06,.09-.2,.25-.18,.27,.13,.15,.29,.27,.45,.41,.18,.27,.36,.55,.54,.82-.21,1.06-.44,2.12-.63,3.19-1.02,5.59-1.4,11.39-3.17,16.73-3.23,9.74-15.07,15.15-25.07,10.24-11.42-5.6-23.01-10.85-34.57-16.15-3.48-1.6-7.12-2.87-10.68-4.29Zm40.97-21.78c-8.8,.24-16.18,3.65-22.16,10.06-2,2.14-2.43,4.91-.06,6.54,1.53,1.06,5.07,1.43,6.24,.41,5.43-4.69,11.15-7.72,18.58-7.41,2.86,.12,5.03-2.02,4.91-5.06-.12-3-2.07-4.69-5.26-4.55-.75,.03-1.5,0-2.25,0Z"/><path class="cls-4" d="M264.43,37.58c3.56,1.42,7.2,2.69,10.68,4.29,11.56,5.3,23.15,10.55,34.57,16.15,10,4.91,21.84-.5,25.07-10.24,1.77-5.34,2.15-11.14,3.17-16.73,.19-1.07,.42-2.13,.63-3.19,5.11,9.79,5.99,20.08,2.14,30.31-3.14,8.34-7.36,16.28-11.1,24.39-4.7-2.04-9.39-4.07-14.09-6.11-13.7-6.47-27.41-12.89-41.08-19.43-5.21-2.49-10.29-5.25-15.42-7.89,1.81-3.85,3.62-7.71,5.43-11.56Z"/><path class="cls-2" d="M259,49.14c5.14,2.64,10.22,5.39,15.42,7.89,13.66,6.54,27.38,12.96,41.07,19.43-2.02,4.25-4.04,8.49-6.06,12.74-.25,.03-.49,.05-.74,.05-11.68-5.5-23.36-11-35.04-16.51-6.97-3.29-13.92-6.61-20.88-9.91,2.07-4.56,4.14-9.12,6.22-13.69Z"/><path class="cls-22" d="M205.18,270.57c2.97,3.59,5.94,7.19,8.92,10.78-6.09,4-12.42,7.68-18.19,12.1-6.07,4.65-12.2,.39-11.82-6.09,.04-.74-.03-1.48-.04-2.22,2.91-1.84,5.89-3.58,8.71-5.55,4.2-2.93,8.29-6.01,12.42-9.03Z"/><path class="cls-9" d="M205.18,270.57c-4.14,3.02-8.22,6.1-12.42,9.03-2.82,1.97-5.8,3.71-8.71,5.55-.68-4.72-1.35-9.45-2.06-14.17-.23-1.53-.55-3.06-.83-4.58,8.63-2.21,16.79-1.69,24.02,4.18Z"/><path class="cls-12" d="M309.44,89.2c2.02-4.25,4.04-8.49,6.06-12.74,4.7,2.04,9.39,4.07,14.09,6.11-2.12,4.5-4.23,9-6.34,13.5-4.6-2.29-9.2-4.58-13.8-6.87Z"/><path class="cls-4" d="M338,27.05c-.15-.13-.32-.25-.45-.41-.02-.02,.11-.17,.18-.27,.15,.2,.24,.42,.27,.67Z"/><path class="cls-6" d="M76.36,31.49c4.09-.24,6.21,2.13,7.63,5.5,5.31,12.52,10.64,25.04,15.95,37.56,3.07,7.24,6.13,14.48,9.15,21.73,1.75,4.19,.92,7.25-2.25,8.65-3.26,1.45-6.56-.2-8.28-4.21-1.58-3.67-3.19-7.33-4.56-11.07-.76-2.06-1.83-2.85-4.1-2.82-9.12,.14-18.25,.11-27.37,.01-2.05-.02-3.17,.59-3.92,2.56-1.51,3.96-3.23,7.84-4.94,11.73-1.7,3.86-4.79,5.26-8.06,3.77-3.09-1.41-4.05-4.42-2.42-8.27,8.36-19.77,16.77-39.51,25.14-59.28,1.53-3.62,3.69-6.26,8.03-5.86Zm11.82,44.35c-4.03-9.69-7.83-18.83-11.95-28.74-4.1,9.91-7.91,19.12-11.89,28.74h23.84Z"/><path class="cls-16" d="M29.53,68.54c0,4.38-.12,8.76,.04,13.12,.13,3.36-1.58,5.23-4.53,5.95-2.31,.57-4.89-2.01-5.1-5.34-.28-4.36-.11-8.75-.12-13.12,0-4.38-.04-8.75,.01-13.13,.05-3.65,2.21-6.32,5.01-6.38,2.56-.05,4.67,2.86,4.68,6.52,.02,4.13,0,8.25,0,12.38Z"/><path class="cls-11" d="M29.52,35.57c.06,3.59-1.85,5.83-4.91,5.75-2.34-.06-4.79-2.83-4.76-5.37,.04-3.12,2.51-5.87,5.2-5.81,2.66,.06,4.41,2.19,4.46,5.43Z"/><path class="cls-3" d="M104.19,216.4c9.91,5.79,13.06,12.12,10.88,21.87-1.68,7.52-6.7,12.11-13.89,13.61-5.93,1.24-12.11,1.34-18.2,1.62-5.49,.25-11,.09-16.5,.04-4.67-.04-6.79-2-6.8-6.54-.05-19.37-.02-38.74-.02-58.11,0-3.42,1.47-6.32,4.99-6.35,10.48-.08,21.1-.65,31.4,.82,14.43,2.06,20.67,18.15,12.08,29.08-1.13,1.45-2.61,2.63-3.94,3.95Zm-33.23,27.19c9.2-.63,18.03-.85,26.75-1.98,4.74-.62,6.82-4.03,6.94-8.48,.12-4.8-1.77-7.93-6.53-9.25-8.89-2.47-18-1.35-27.16-1.45v21.17Zm.04-30.97c7.63-.37,14.96-.4,22.21-1.19,5.05-.55,7.53-3.89,7.68-8.62,.15-4.73-2.15-8.33-7.18-8.95-7.45-.91-15.02-.9-22.71-1.28v20.04Z"/><path class="cls-5" d="M42.32,218.38c0,4.61-.09,9.22,.03,13.82,.08,3.09-1.94,4.82-4.27,4.43-1.79-.3-4.52-2.68-4.58-4.24-.43-9.57-.25-19.17-.19-28.76,.02-3.09,2.14-4.63,4.84-4.54,2.59,.08,4.24,1.76,4.19,4.72-.08,4.86-.02,9.71-.02,14.57Z"/><path class="cls-8" d="M42.33,184.89c.03,3.71-1.42,5.62-4.33,5.72-2.99,.1-4.72-1.85-4.72-5.34,0-3.56,1.64-5.75,4.39-5.84,2.8-.1,4.64,2.05,4.66,5.47Z"/><path class="cls-7" d="M230.05,162.13c-4.78-.04-6.98-2.81-5.72-6.07,1.84-4.76,4.09-9.37,6.22-14.01,3.03-6.57,6.03-13.15,9.21-19.65,1.22-2.49,3.34-3.86,6.15-2.48,2.57,1.26,4.16,3.12,2.69,6.31-5.08,10.98-10,22.03-15.21,32.94-.72,1.52-2.71,2.43-3.33,2.95Z"/><path class="cls-7" d="M255.39,93.07c4.8,.02,6.95,3.22,5.56,6.76-1.05,2.66-1.92,5.59-3.7,7.69-1.25,1.47-3.98,2.54-5.93,2.37-2.51-.22-3.75-3.8-2.7-6.25,1.17-2.75,2.26-5.56,3.79-8.1,.77-1.28,2.43-2.03,2.98-2.46Z"/><path class="cls-17" d="M305.4,15.8c.75,0,1.5,.03,2.25,0,3.2-.14,5.14,1.55,5.26,4.55,.12,3.04-2.06,5.18-4.91,5.06-7.42-.31-13.15,2.72-18.58,7.41-1.17,1.01-4.71,.64-6.24-.41-2.37-1.63-1.94-4.4,.06-6.54,5.99-6.41,13.36-9.82,22.16-10.06Z"/><path class="cls-21" d="M88.18,75.85h-23.84c3.98-9.62,7.79-18.83,11.89-28.74,4.12,9.91,7.92,19.05,11.95,28.74Z"/><path class="cls-15" d="M70.96,243.59v-21.17c9.16,.1,18.26-1.02,27.16,1.45,4.76,1.32,6.65,4.46,6.53,9.25-.11,4.45-2.2,7.86-6.94,8.48-8.72,1.13-17.55,1.35-26.75,1.98Z"/><path class="cls-13" d="M71,212.61v-20.04c7.7,.39,15.26,.37,22.71,1.28,5.03,.62,7.33,4.22,7.18,8.95-.15,4.72-2.64,8.07-7.68,8.62-7.25,.79-14.58,.82-22.21,1.19Z"/></svg>