<?xml version="1.0" encoding="UTF-8"?><svg id="Layer_1" xmlns="http://www.w3.org/2000/svg" viewBox="0 0 723.43 792.96"><defs><style>.cls-1{fill:#e4b002;}.cls-2{fill:#feb98a;}.cls-3{fill:#48e4e0;}.cls-4{fill:#fa8276;}.cls-5{fill:#fa8275;}.cls-6{fill:#a2f8f7;}.cls-7{fill:#7bb540;}.cls-8{fill:#a2f7f5;}.cls-9{fill:#fed4b2;}.cls-10{fill:#e4bfa1;}.cls-11{fill:#42ceca;}.cls-12{fill:#ee5050;}.cls-13{fill:#e0756a;}.cls-14{fill:#89c947;}.cls-15{fill:#d4e862;}.cls-16{fill:#fec403;}.cls-17{fill:#bfd15a;}.cls-18{fill:#fcc887;}.cls-19{fill:#a1f8f8;}.cls-20{fill:#de841c;}.cls-21{fill:#e1756a;}.cls-22{fill:#90dfdf;}.cls-23{fill:#795638;}.cls-24{fill:#fbda66;}.cls-25{fill:#f6931e;}.cls-26{fill:#fdd4b2;}</style></defs><path class="cls-25" d="M525.2,0c8.9,2.02,17.87,3.79,26.7,6.09,69.27,18.06,121.42,78.59,129.51,149.75,.93,8.22-5.76,10.79-9.41,15.69-20.77,10.94-42.31,14.49-64.71,5.78-22.25-8.65-36.26-26.11-46.92-45.97-8.24,12.66-15.52,25.78-24.66,37.44-13.13,16.75-29.45,28.88-52.41,27.93-25.16-1.04-40.48-18.93-36.12-42.27,.28-1.52,.19-3.11,.36-6.52-3.87,5.61-6.18,10.01-9.45,13.51-8.75,9.37-17.19,19.26-27.11,27.25-10.33,8.32-22.83,9.39-34.92,2.94-11.82-6.31-15.76-17.11-15.24-29.88,.25-6.13,.86-12.24,1.46-20.47-5.88,8.92-10.53,15.96-15.17,23.01-5.73,5.13-11.46,10.27-17.19,15.4-.99-2.44-2.82-4.89-2.82-7.33,.01-6.12,.77-12.25,1.38-18.37,3.56-36,18.34-67.27,41.89-94.13,26.43-30.14,59.9-48.83,99.3-56.8,1.61-.33,2.95-1.99,4.42-3.04,17.04,0,34.08,0,51.11,0Z"/><path class="cls-5" d="M41.91,602.89c20.05-.09,40.1-.19,60.13-.28,2.75,.43,5.51,1.25,8.27,1.24,26.65,0,53.3-.15,79.96-.26l1.69,.5c.01,57.84,.06,115.69-.02,173.53,0,5.11-.85,10.21-1.31,15.32H41.94c-4.7-7.82-4.73-16.41-4.7-25.19,.16-47.58-.12-95.15,.28-142.73,.06-7.4,2.86-14.77,4.39-22.15Zm52.86,65.21c-3.04-2.48-6.71-5.72-10.62-8.62-11.83-8.76-27.33-6.5-37.12,5.28-7.9,9.51-6.25,25.86,3.45,35.16,13.01,12.47,26.17,24.81,38.83,37.63,4.71,4.77,8.41,5.01,12.96,.46,13.67-13.68,27.57-27.14,41.01-41.05,8.29-8.58,8.9-19.96,2.62-30.6-5.39-9.13-17.7-14.94-27.8-11.26-7.92,2.88-14.95,8.21-23.32,13Z"/><path class="cls-16" d="M376.51,792.96H238.65c-1.55-5.03-4.41-10.05-4.44-15.09-.3-58.03-.18-116.05-.17-174.08,16.49-.29,32.97-.58,49.46-.86,3.11-.05,6.22-.09,9.33-.14,6.23,1.96,12.34,4.58,18.71,5.72,8.34,1.49,16.88,1.82,25.34,2.65-.09,.72-.17,1.43-.26,2.15-9.14-.75-18.27-1.7-27.42-2.2-8.94-.49-14.02,4.37-14.48,13.26-.4,7.64,4.19,12.97,12.46,13.78,19.91,1.97,39.73,6.19,59.88,2.59,5.53,1.66,11.06,3.31,16.58,4.97,.11,19.58,.21,39.17,.32,58.75-.22,2.8-.63,5.61-.64,8.41-.05,21.91-.18,43.82,.06,65.73,.07,6.19-1.42,11.08-6.88,14.36Zm-89.58-51.22c2.84,0,5.69-.19,8.51,.03,12.23,.96,20.7-4.09,26.08-15.16,3.14-6.46,7.3-12.42,10.76-18.74,3.73-6.83,3.69-13.73-.36-20.53-4.47-7.52-9-15.02-13.27-22.65-3.64-6.5-9.15-9.55-16.4-9.62-9.02-.09-18.07,.39-27.07-.15-8.57-.51-14.48,3.37-18.72,10-4.85,7.58-8.98,15.61-13.54,23.38-4.08,6.96-3.46,13.71,.51,20.45,4.31,7.32,8.68,14.61,12.83,22.01,4.04,7.21,10.36,10.47,18.3,10.93,4.11,.24,8.25,.04,12.37,.05Z"/><path class="cls-19" d="M634.75,704.64c30.08-3.79,56.75,28.36,43.99,60.35-4.7,11.79-13.11,20.12-25.05,24.74-2.59,1-5.12,2.15-7.67,3.23h-108.42c-1.28-1.43-2.36-3.15-3.88-4.24-8.64-6.18-15.89-13.37-16.38-24.73-.7-16.17-.87-32.36-1.43-48.53-.39-11.45,2.53-21.82,9.34-31.07,2.93,4.41,7.16,8.47,8.46,13.31,1.59,5.93,4.43,6.95,9.75,6.92,30.43-.15,60.87-.02,91.3,.02Z"/><path class="cls-20" d="M474.09,0c-1.47,1.04-2.8,2.71-4.42,3.04-39.39,7.97-72.87,26.66-99.3,56.8-23.55,26.86-38.33,58.13-41.89,94.13-.61,6.11-1.36,12.24-1.38,18.37,0,2.44,1.82,4.89,2.82,7.33-9.45,8.21-20.63,9.25-32.41,7.77q-20.33-6.86-18.69-27.64C284.91,82.53,344.76,16.47,420.8,3,424.68,2.31,428.45,1.01,432.27,0c13.94,0,27.88,0,41.82,0Z"/><path class="cls-8" d="M376.51,792.96c5.45-3.28,6.95-8.16,6.88-14.36-.25-21.91-.12-43.82-.06-65.73,0-2.8,.42-5.61,.64-8.41,2.31,.03,4.64-.13,6.93,.1,9.94,1.02,16.02-.58,21.16-11.99,10.12-22.46,41.82-26.68,58.93-1.7-4.76,28.28-5.06,56.56,.02,84.84-5.47,8.82-13.53,14.17-23.26,17.25h-71.25Z"/><path class="cls-1" d="M234.05,603.79c-.01,58.03-.14,116.06,.17,174.08,.03,5.04,2.89,10.06,4.44,15.09h-48.02c.45-5.11,1.3-10.21,1.31-15.32,.08-57.84,.03-115.69,.02-173.53,14.03-.11,28.06-.21,42.09-.31Z"/><path class="cls-13" d="M41.91,602.89c-1.53,7.38-4.33,14.75-4.39,22.15-.4,47.57-.12,95.15-.28,142.73-.03,8.79,0,17.38,4.7,25.19H6.31C1.42,789.59-.02,785.03,0,779.07c.2-54.18,.11-108.36,.13-162.53,0-10.2,3.63-13.87,13.93-13.9,9.28-.03,18.57,.16,27.85,.25Z"/><path class="cls-22" d="M471.01,775.71c-5.09-28.28-4.78-56.56-.02-84.84,1.7-1.85,3.53-3.6,5.08-5.56,11.87-15,36.88-15.49,49.17-.92-6.8,9.25-9.73,19.62-9.34,31.07,.55,16.17,.73,32.36,1.43,48.53,.49,11.36,7.75,18.55,16.38,24.73,1.52,1.09,2.6,2.81,3.88,4.24h-43.37c-7.74-5.75-15.48-11.5-23.21-17.25Z"/><path class="cls-15" d="M234.05,603.79c-14.03,.1-28.06,.21-42.09,.31-.56-.17-1.13-.34-1.68-.5-12.52-.36-25.05-.87-37.58-1.05-12.48-.19-14.72-2.28-14.72-14.86,0-51.27-.12-102.54,.14-153.81,.03-6.76,1.96-13.51,3-20.27,14.93-.13,29.87-.26,44.8-.39,20.85,.04,41.69,.08,62.54,.13,8.72,.01,17.45,.01,26.17,.05,11.07,.04,13.69,2.62,13.78,13.46,.13,15.13,.27,30.25,.4,45.38,0,22.78,0,45.55-.02,68.33-.14,15.38,.13,30.79-.62,46.14-.27,5.47-3.04,10.81-4.66,16.22-16.49,.29-32.97,.58-49.46,.86Zm-74.27-55.24c-.28,4.27,3.91,7.36,9.27,5.05,5.91-2.55,11.77-5.35,17.25-8.69,4.81-2.93,8.88-2.75,13.54,.15,5.01,3.13,10.23,6.04,15.67,8.32,2.25,.94,6.01,.91,7.77-.42,1.56-1.17,1.96-4.82,1.71-7.26-.56-5.6-1.6-11.17-2.89-16.66-1.18-5.04-.17-8.89,3.85-12.37,4.48-3.87,8.72-8.08,12.59-12.55,1.66-1.92,3.35-5.2,2.8-7.26-.51-1.88-3.87-3.53-6.27-4.23-3.66-1.06-7.56-1.44-11.39-1.69-9.01-.59-16.18-3.33-18.96-13.15-1.1-3.89-3.33-7.56-5.5-11.05-4.4-7.09-9.15-6.9-12.93,.36-2.74,5.26-5.51,10.51-7.9,15.93-1.83,4.14-4.12,6.43-9.14,6.65-6.62,.29-13.24,1.58-19.74,3-2.14,.47-4.68,2.29-5.59,4.18-.65,1.36,.59,4.35,1.9,5.78,4.51,4.95,9.27,9.7,14.23,14.2,3.63,3.3,4.91,6.62,3.51,11.6-1.72,6.15-2.42,12.58-3.78,20.11Z"/><path class="cls-10" d="M297.52,187.44c11.78,1.47,22.95,.43,32.41-7.77,5.73-5.13,11.46-10.27,17.19-15.4,.5,46.33,.6,92.68,1.67,139,.57,24.53,8.29,47.4,20.81,68.47,20.27,34.14,50.03,56,88.1,66.54,11.5,3.18,23.34,5.17,35.02,7.71-17.76-.45-35.52-.9-53.27-1.34-3.15-.26-6.3-.52-9.44-.78-12.93-3.39-25.85-6.79-38.78-10.18-11.64-7-23.99-13.07-34.79-21.19-29.91-22.47-47.93-52.99-53.89-89.6-3.49-21.41-3.91-43.4-4.63-65.16-.78-23.41-.3-46.86-.37-70.29Z"/><path class="cls-17" d="M141.12,413.61c-1.05,6.75-2.97,13.51-3,20.27-.25,51.27-.14,102.54-.14,153.81,0,12.59,2.24,14.68,14.72,14.86,12.53,.19,25.06,.69,37.58,1.05-26.66,.1-53.31,.24-79.96,.25-2.76,0-5.52-.81-8.27-1.24-1.88-4.83-5.36-9.65-5.4-14.49-.39-53.29-.26-106.59-.23-159.88,0-11.81,3.25-14.96,15.21-14.99,8.24-.01,16.48,.08,24.71,.12,1.59,.08,3.18,.16,4.78,.24Z"/><path class="cls-11" d="M391.21,433.67c12.93,3.39,25.85,6.79,38.77,10.18-2.15,1.84-4.56,3.45-6.39,5.56-20.77,24.1-31.61,51.97-31.6,83.91,0,15.73-.01,31.47-.02,47.2-.17,.2-.28,.43-.35,.69-5.52-12.58-11.19-25.1-16.51-37.77-3.82-9.11-9.08-12.51-17.63-10.59-8.77,1.97-12.6,7.87-11.84,17.59,.09,1.13-1.84,2.41-2.84,3.63-.17-4.99-.35-9.97-.52-14.96,.3-16.71,1.72-33.27,7.94-48.98,3.38-8.54,7.3-16.87,10.98-25.3,0,0-.01-.05-.01-.05,.54-.49,1.08-.99,1.62-1.48,9.46-9.88,18.93-19.76,28.39-29.64Z"/><path class="cls-6" d="M361.2,464.83c-3.68,8.43-7.6,16.76-10.98,25.3-6.22,15.71-7.64,32.27-7.94,48.98-17.83,.48-35.66,.97-53.49,1.45,0-22.78,0-45.55,.01-68.33,23.74,3.3,46.81,.51,69.36-7.38,.9-.32,2.02-.03,3.04-.02Z"/><path class="cls-14" d="M248.46,413.35c-20.85-.04-41.69-.08-62.54-.12-.57-13.95,1.7-26.61,15.53-33.99,9.43,.09,18.92-.39,28.29,.44,9.82,.87,17.63,9.84,18.38,19.83,.34,4.6,.24,9.23,.34,13.85Z"/><path class="cls-7" d="M201.44,379.23c-13.83,7.38-16.1,20.04-15.53,33.99-14.93,.13-29.87,.26-44.8,.39-1.59-.08-3.19-.16-4.78-.24,.5-5.84,.33-11.84,1.64-17.49,2.3-9.91,9.55-16.11,19.63-16.46,14.6-.51,29.22-.16,43.83-.18Z"/><path class="cls-6" d="M362.81,463.3c-.54,.49-1.08,.99-1.62,1.48,.54-.49,1.08-.99,1.62-1.48Z"/><path class="cls-9" d="M492.7,445.97c-11.68-2.53-23.52-4.52-35.02-7.71-38.07-10.53-67.83-32.4-88.1-66.54-12.51-21.08-20.24-43.95-20.81-68.47-1.07-46.32-1.17-92.66-1.67-139,4.64-7.04,9.29-14.08,15.17-23.01-.6,8.23-1.21,14.35-1.46,20.47-.51,12.77,3.43,23.57,15.24,29.88,12.09,6.46,24.59,5.39,34.92-2.94,9.92-7.99,18.36-17.88,27.11-27.25,3.27-3.5,5.58-7.89,9.45-13.51-.18,3.41-.08,5-.36,6.52-4.36,23.33,10.97,41.23,36.12,42.27,22.96,.95,39.29-11.18,52.41-27.93,9.14-11.66,16.42-24.77,24.66-37.44,10.66,19.86,24.67,37.32,46.92,45.97,22.4,8.71,43.94,5.16,64.71-5.78,0,7.96,0,15.91,0,24.4,13.62,1.75,24.76,6.87,33.81,16.39,27.4,28.83,22.06,85.48-10.7,106.1-6.2,3.91-14.29,5.48-21.73,6.52-4.79,.67-7.25,1.74-8.65,6.44-7.43,24.91-20.19,47.07-38.73,65.04-11.52,11.16-25.61,19.68-38.6,29.32-2.05,1.52-4.36,2.7-6.55,4.03-12.96,4.18-25.79,8.82-38.92,12.36-8.11,2.18-16.67,2.69-25.02,3.94-8.07-.03-16.15-.06-24.22-.09Zm-9.31-57.24c19.92-9.55,30.86-25.04,31.1-47.44,.09-8.51-2.98-11.42-11.75-11.45-14.19-.06-28.38,0-42.56,.01-14.42-.04-28.85-.18-43.27-.07-8.01,.06-11,3.34-11.09,11.4-.45,38.51,43.18,65.25,77.58,47.55Zm214.07-128.37c-.95-4.44-2.07-10.73-3.66-16.89-1.69-6.5-8.2-10.62-13.98-9.28-6.24,1.44-10.22,8.18-8.73,15.1,.48,2.25,1.64,4.35,2.11,6.6,1.68,8.02,.9,15.14-6.54,20.49-7.04,5.07-8.26,10.09-4.65,15.71,3.71,5.79,9.79,7.28,16.89,3.55,13.36-7.02,17.37-19.36,18.57-35.26Zm-235.95,13.82c0-4.26,.51-8.2-.11-11.94-1.06-6.33-5.01-10.13-11.74-9.94-6.67,.19-10.54,3.91-11.12,10.49-.4,4.61-.06,9.27-.16,13.91-.45,20.92,19.31,24.9,31.31,20.29,3.32-1.28,6.92-6.93,6.84-10.5-.08-3.6-4.23-7.44-7.27-10.51-1.35-1.37-4.36-1.09-7.76-1.8Zm96.2-14.49c0-3.34,.19-6.7-.04-10.03-.47-6.69-5.08-11.16-11.34-11.26-6.29-.1-11.36,4.26-11.71,10.83-.37,6.93-.36,13.9,0,20.83,.34,6.47,5.65,11.17,11.66,11.07,6.05-.1,10.9-4.83,11.38-11.41,.24-3.33,.04-6.69,.05-10.03Zm-176.78,.18c0-3.6,.32-7.23-.07-10.79-.73-6.65-5.65-10.85-11.93-10.68-6.25,.18-10.82,4.66-11.07,11.43-.24,6.68-.28,13.38,.03,20.05,.31,6.65,5.24,11.48,11.39,11.17,6.46-.32,10.55-4.03,11.53-10.4,.54-3.52,.1-7.18,.11-10.78Z"/><path class="cls-3" d="M516.92,446.06c8.36-1.26,16.92-1.76,25.02-3.94,13.13-3.54,25.96-8.18,38.92-12.36,37.8,26.02,53.97,62.83,53.92,107.81-.06,55.69-.02,111.38-.03,167.06-30.44-.03-60.87-.16-91.3-.02-5.31,.03-8.15-.99-9.75-6.92-1.3-4.85-5.53-8.91-8.46-13.31-12.29-14.57-37.31-14.08-49.17,.92-1.55,1.96-3.38,3.71-5.08,5.56-17.11-24.98-48.81-20.75-58.93,1.71-5.14,11.41-11.22,13.01-21.16,11.99-2.29-.24-4.62-.08-6.93-.1-.11-19.59-.21-39.17-.32-58.75,2.58,.1,5.21-.12,7.72,.35,20.19,3.8,40.33,3.46,60.53-.09,64.14-11.28,111.48-45.65,141.7-103.3,2.53-4.82,4.25-10.83,4.01-16.19-.69-15.83-11.4-27.3-26.94-30.47-13.4-2.74-27.6,4.5-34.52,17.91-9.26,17.94-21.71,33.23-38.06,45.03-32.05,23.14-67.47,30.48-106.12,21.57,0-15.73,.03-31.47,.02-47.2-.01-31.94,10.82-59.82,31.6-83.91,1.82-2.11,4.24-3.72,6.39-5.56,3.15,.26,6.3,.52,9.45,.78,1.64,6.15,2.23,12.85,5.13,18.33,7.81,14.74,24.35,21.98,40.52,18.9,18.03-3.44,28.91-15.68,31.83-35.8Z"/><path class="cls-12" d="M94.77,668.1c8.37-4.78,15.4-10.11,23.32-13,10.1-3.68,22.41,2.13,27.8,11.26,6.29,10.65,5.67,22.02-2.62,30.6-13.44,13.91-27.34,27.36-41.01,41.05-4.55,4.55-8.24,4.31-12.96-.46-12.66-12.82-25.82-25.15-38.83-37.63-9.7-9.29-11.34-25.65-3.45-35.16,9.78-11.78,25.28-14.05,37.12-5.28,3.91,2.9,7.58,6.14,10.62,8.62Z"/><path class="cls-19" d="M391.97,580.53c38.65,8.91,74.07,1.58,106.12-21.57,16.35-11.81,28.8-27.09,38.06-45.03,6.92-13.42,21.12-20.65,34.52-17.91,15.53,3.18,26.24,14.64,26.94,30.47,.23,5.36-1.49,11.37-4.01,16.19-30.22,57.65-77.56,92.02-141.7,103.3-20.2,3.55-40.34,3.89-60.53,.09-2.51-.47-5.14-.25-7.72-.35-5.53-1.66-11.06-3.31-16.58-4.97,1.02-1.06,1.86-2.47,3.09-3.12,13.97-7.37,22.82-18.68,24.12-34.45,.59-7.2-1.68-14.63-2.66-21.95,.07-.26,.18-.48,.35-.69Z"/><path class="cls-26" d="M391.62,581.22c.97,7.33,3.25,14.76,2.66,21.95-1.3,15.78-10.15,27.08-24.12,34.45-1.23,.65-2.07,2.06-3.09,3.12-20.16,3.59-39.98-.63-59.88-2.59-8.26-.82-12.86-6.15-12.46-13.78,.47-8.89,5.54-13.75,14.48-13.26,9.15,.5,18.28,1.45,27.42,2.2,.09-.72,.17-1.43,.26-2.15-8.46-.83-17-1.16-25.34-2.65-6.37-1.14-12.48-3.76-18.71-5.72-3.85-16.94,1.41-23.12,18.75-21.96,1.78,.12,3.51,.72,5.29,.88,7.62,.69,15.25,1.3,22.87,1.94,.06-.67,.12-1.35,.18-2.02-1.83-.28-3.65-.6-5.48-.83-7.86-.98-15.79-1.56-23.56-3-6.95-1.29-10.82-6.9-10.13-13.21,.97-8.84,5.07-13.47,13.03-13.14,9.69,.4,19.34,1.7,29.01,2.62,.99-1.21,2.93-2.5,2.84-3.63-.76-9.71,3.07-15.62,11.84-17.59,8.55-1.92,13.81,1.47,17.63,10.59,5.32,12.67,10.99,25.19,16.51,37.77Z"/><path class="cls-24" d="M286.93,741.73c-4.13,0-8.26,.19-12.37-.04-7.94-.46-14.26-3.71-18.3-10.93-4.15-7.41-8.51-14.7-12.83-22.01-3.97-6.74-4.59-13.48-.51-20.45,4.55-7.77,8.69-15.8,13.54-23.38,4.24-6.63,10.15-10.51,18.72-10,8.99,.54,18.04,.05,27.07,.15,7.25,.07,12.76,3.12,16.4,9.62,4.27,7.63,8.8,15.13,13.27,22.65,4.05,6.8,4.09,13.7,.36,20.53-3.45,6.32-7.62,12.28-10.76,18.74-5.38,11.08-13.85,16.13-26.08,15.16-2.82-.22-5.67-.03-8.51-.04Z"/><path class="cls-14" d="M159.78,548.55c1.36-7.53,2.06-13.96,3.78-20.11,1.39-4.98,.11-8.3-3.51-11.6-4.96-4.51-9.72-9.26-14.23-14.2-1.31-1.43-2.55-4.42-1.9-5.78,.91-1.9,3.45-3.71,5.59-4.18,6.5-1.42,13.12-2.71,19.74-3,5.02-.22,7.31-2.51,9.14-6.65,2.4-5.42,5.17-10.67,7.9-15.93,3.78-7.27,8.53-7.46,12.93-.36,2.17,3.49,4.39,7.15,5.5,11.05,2.78,9.82,9.95,12.56,18.96,13.15,3.83,.25,7.73,.63,11.39,1.69,2.41,.7,5.76,2.35,6.27,4.23,.56,2.06-1.13,5.34-2.8,7.26-3.87,4.47-8.11,8.68-12.59,12.55-4.02,3.48-5.04,7.32-3.85,12.37,1.29,5.48,2.32,11.06,2.89,16.66,.25,2.44-.16,6.09-1.71,7.26-1.77,1.33-5.52,1.36-7.77,.42-5.44-2.27-10.65-5.19-15.67-8.32-4.66-2.91-8.73-3.08-13.54-.15-5.49,3.34-11.35,6.14-17.25,8.69-5.36,2.31-9.54-.78-9.27-5.05Z"/><path class="cls-18" d="M516.92,446.06c-2.92,20.12-13.81,32.36-31.83,35.8-16.17,3.09-32.72-4.16-40.52-18.9-2.9-5.48-3.49-12.19-5.13-18.33,17.76,.45,35.51,.9,53.27,1.34,8.07,.03,16.15,.06,24.22,.09Z"/><path class="cls-21" d="M483.4,388.73c-34.41,17.7-78.03-9.04-77.58-47.55,.09-8.07,3.09-11.35,11.09-11.4,14.42-.11,28.85,.04,43.27,.07-1.55,2.58-4.51,5.23-4.38,7.72,.41,7.54,1.21,15.25,3.34,22.46,3.82,12.89,14.27,20.71,24.25,28.7Z"/><path class="cls-4" d="M483.4,388.73c-9.97-7.99-20.43-15.82-24.25-28.7-2.13-7.21-2.93-14.92-3.34-22.46-.14-2.49,2.83-5.14,4.38-7.72,14.19-.01,28.38-.07,42.56-.01,8.78,.04,11.85,2.95,11.75,11.45-.24,22.4-11.18,37.89-31.1,47.44Z"/><path class="cls-2" d="M697.46,260.36c-1.2,15.9-5.21,28.24-18.57,35.26-7.1,3.73-13.18,2.24-16.89-3.55-3.6-5.62-2.39-10.64,4.65-15.71,7.43-5.35,8.21-12.47,6.54-20.49-.47-2.25-1.62-4.35-2.11-6.6-1.48-6.91,2.49-13.66,8.73-15.1,5.78-1.33,12.29,2.78,13.98,9.28,1.6,6.16,2.72,12.45,3.66,16.89Z"/><path class="cls-23" d="M461.51,274.18c3.4,.71,6.4,.44,7.76,1.8,3.04,3.07,7.19,6.9,7.27,10.51,.08,3.57-3.52,9.23-6.84,10.5-12.01,4.62-31.76,.63-31.31-20.29,.1-4.64-.25-9.31,.16-13.91,.58-6.58,4.45-10.31,11.12-10.49,6.72-.19,10.68,3.6,11.74,9.94,.63,3.74,.11,7.68,.11,11.94Z"/><path class="cls-23" d="M557.71,259.7c0,3.34,.2,6.7-.04,10.03-.48,6.58-5.32,11.31-11.38,11.41-6.01,.1-11.32-4.6-11.66-11.07-.37-6.93-.37-13.9,0-20.83,.35-6.57,5.42-10.94,11.71-10.83,6.25,.1,10.87,4.57,11.34,11.26,.23,3.33,.04,6.69,.04,10.03Z"/><path class="cls-23" d="M380.92,259.88c0,3.6,.43,7.27-.11,10.78-.98,6.38-5.06,10.08-11.53,10.4-6.15,.31-11.08-4.52-11.39-11.17-.31-6.67-.27-13.38-.03-20.05,.25-6.77,4.82-11.25,11.07-11.43,6.28-.18,11.19,4.02,11.93,10.68,.39,3.56,.07,7.19,.06,10.79Z"/></svg>